<?xml version="1.0" encoding="utf-8"?>
<!-- Generator: Adobe Illustrator 25.0.0, SVG Export Plug-In . SVG Version: 6.00 Build 0)  -->
<svg version="1.1" xmlns="http://www.w3.org/2000/svg" xmlns:xlink="http://www.w3.org/1999/xlink" x="0px" y="0px"
	 viewBox="0 0 80.8 48.1" style="enable-background:new 0 0 80.8 48.1;" xml:space="preserve">
<style type="text/css">
	.st0{fill:#FFA105;stroke:#FFA105;stroke-miterlimit:10;}
	.st1{fill:#FFFFFF;stroke:#FFA105;stroke-miterlimit:10;}
	.st2{fill:#FFFFFF;stroke:#FFA105;stroke-width:1.5;stroke-miterlimit:10;}
	.st3{fill:#FFA105;}
</style>
<g id="圖層_7">
</g>
<g id="圖層_3">
</g>
<g id="圖層_1">
</g>
<g id="圖層_6">
</g>
<g id="圖層_4">
</g>
<g id="拒菸">
	<g>
		<path class="st0" d="M78.4,29.1c0.4-0.5,0.8-1.1,1.1-1.9c1.1-2.4,0.8-4.3,0.4-5.5c-0.5-1.5-1.6-2.8-3.2-3.8
			c-0.4-0.3-0.8-0.7-1.2-1.1c2.5-1.1,4-3.6,3.8-6.6c-0.2-3.8-3-6.4-6.7-6.4c-0.2,0-0.3,0-0.5,0l-2.9,0.2c-1.2-1-2.7-1.6-4.5-1.6
			c-0.2,0-0.3,0-0.5,0c-1.7,0.1-3.3,0.7-4.5,1.8c-0.1,0.1-0.2,0.2-0.3,0.3l-1.9,0.1c-0.1-0.1-0.2-0.2-0.3-0.2C56,3.5,54.6,3,53,3
			c-0.2,0-0.3,0-0.5,0c-1.7,0.1-3.3,0.7-4.5,1.8C48,5,47.9,5.1,47.8,5.2l-2.7,0.2C43.4,5.4,42,6,40.9,7c-1.1-0.8-2.4-1.2-4-1.2
			c-0.2,0-0.3,0-0.5,0L21.5,6.6c-0.9,0.1-1.8,0.3-2.5,0.6C17.7,6,16,5.3,14.1,5.3c-0.2,0-0.3,0-0.5,0C11,5.4,9.5,6.6,8.6,7.5
			C7.8,8.5,6.8,10.2,7,12.7c-1,0.4-1.7,1-2.2,1.6c-0.8,0.9-1.8,2.6-1.6,5c0.1,2.1,1,3.9,2.4,5c-0.7,0.6-1.1,1.3-1.4,1.8
			c-0.6,1.1-1.1,3-0.2,5.4c0.6,1.9,1.8,3.3,3.4,4.1c-0.4,0.4-0.8,0.8-1,1.2c-0.7,1-1.6,3.1-0.6,6c1.1,2.9,3.7,4.7,7,4.7
			c0.3,0,0.6,0,0.9,0l0.1,0c2-0.2,3.6-0.7,5-1.5l0.1-0.1c0.4-0.2,0.7-0.5,1-0.7c0.9,0.4,2,0.7,3.1,0.7c0.2,0,0.3,0,0.5,0l15.9-0.9
			c1.8-0.1,3-0.7,3.9-1.4c1.5,1.1,2.9,1.4,3.9,1.4c0.3,0,0.6,0,1-0.1c0.6-0.1,1.1-0.3,1.6-0.5c1.1,0.6,2.3,0.9,3.6,0.9
			c0.2,0,0.4,0,0.6,0l0.2,0l0.2,0c0.9-0.1,1.5-0.2,2-0.3c1.5-0.3,2.8-1,4-2c0.2,0.1,0.3,0.2,0.5,0.3l0.1,0.1l0.1,0.1
			c0.8,0.4,1.7,0.6,2.7,0.6c0.9,0,1.9-0.2,2.8-0.6c2.9-1.1,5.9-2.4,9.2-3.9c3.2-1.5,4.7-4.6,3.9-8C79.2,30.5,78.8,29.8,78.4,29.1z"
			/>
		<path class="st1" d="M76,27.5c0.4-0.5,0.8-1.1,1.1-1.9c1.1-2.4,0.8-4.3,0.4-5.5c-0.5-1.5-1.6-2.8-3.2-3.8
			c-0.4-0.3-0.8-0.7-1.2-1.1c2.5-1.1,4-3.6,3.8-6.6c-0.2-3.8-3-6.4-6.7-6.4c-0.2,0-0.3,0-0.5,0l-2.9,0.2c-1.2-1-2.7-1.6-4.5-1.6
			c-0.2,0-0.3,0-0.5,0c-1.7,0.1-3.3,0.7-4.5,1.8c-0.1,0.1-0.2,0.2-0.3,0.3L55.1,3c-0.1-0.1-0.2-0.2-0.3-0.2
			c-1.2-0.9-2.6-1.3-4.2-1.3c-0.2,0-0.3,0-0.5,0c-1.7,0.1-3.3,0.7-4.5,1.8c-0.1,0.1-0.2,0.2-0.3,0.3l-2.7,0.2
			c-1.7,0.1-3.1,0.7-4.2,1.6c-1.1-0.8-2.4-1.2-4-1.2c-0.2,0-0.3,0-0.5,0L19.1,5c-0.9,0.1-1.8,0.3-2.5,0.6c-1.2-1.2-2.9-1.9-4.9-1.9
			c-0.2,0-0.3,0-0.5,0C8.6,3.8,7.1,5,6.2,5.9c-0.8,0.9-1.8,2.6-1.7,5.1c-1,0.4-1.7,1-2.2,1.6c-0.8,0.9-1.8,2.6-1.6,5
			c0.1,2.1,1,3.9,2.4,5c-0.7,0.6-1.1,1.3-1.4,1.8c-0.6,1.1-1.1,3-0.2,5.4c0.6,1.9,1.8,3.3,3.4,4.1c-0.4,0.4-0.8,0.8-1,1.2
			c-0.7,1-1.6,3.1-0.6,6c1.1,2.9,3.7,4.7,7,4.7c0.3,0,0.6,0,0.9,0l0.1,0c2-0.2,3.6-0.7,5-1.5l0.1-0.1c0.4-0.2,0.7-0.5,1-0.7
			c0.9,0.4,2,0.7,3.1,0.7c0.2,0,0.3,0,0.5,0l15.9-0.9c1.8-0.1,3-0.7,3.9-1.4c1.5,1.1,2.9,1.4,3.9,1.4c0.3,0,0.6,0,1-0.1
			c0.6-0.1,1.1-0.3,1.6-0.5c1.1,0.6,2.3,0.9,3.6,0.9c0.2,0,0.4,0,0.6,0l0.2,0l0.2,0c0.9-0.1,1.5-0.2,2-0.3c1.5-0.3,2.8-1,4-2
			c0.2,0.1,0.3,0.2,0.5,0.3l0.1,0.1l0.1,0.1c0.8,0.4,1.7,0.6,2.7,0.6c0.9,0,1.9-0.2,2.8-0.6c2.9-1.1,5.9-2.4,9.2-3.9
			c3.2-1.5,4.7-4.6,3.9-8C76.8,28.9,76.4,28.1,76,27.5z"/>
		<path class="st2" d="M76,27.5c0.4-0.5,0.8-1.1,1.1-1.9c1.1-2.4,0.8-4.3,0.4-5.5c-0.5-1.5-1.6-2.8-3.2-3.8
			c-0.4-0.3-0.8-0.7-1.2-1.1c2.5-1.1,4-3.6,3.8-6.6c-0.2-3.8-3-6.4-6.7-6.4c-0.2,0-0.3,0-0.5,0l-2.9,0.2c-1.2-1-2.7-1.6-4.5-1.6
			c-0.2,0-0.3,0-0.5,0c-1.7,0.1-3.3,0.7-4.5,1.8c-0.1,0.1-0.2,0.2-0.3,0.3L55.1,3c-0.1-0.1-0.2-0.2-0.3-0.2
			c-1.2-0.9-2.6-1.3-4.2-1.3c-0.2,0-0.3,0-0.5,0c-1.7,0.1-3.3,0.7-4.5,1.8c-0.1,0.1-0.2,0.2-0.3,0.3l-2.7,0.2
			c-1.7,0.1-3.1,0.7-4.2,1.6c-1.1-0.8-2.4-1.2-4-1.2c-0.2,0-0.3,0-0.5,0L19.1,5c-0.9,0.1-1.8,0.3-2.5,0.6c-1.2-1.2-2.9-1.9-4.9-1.9
			c-0.2,0-0.3,0-0.5,0C8.6,3.8,7.1,5,6.2,5.9c-0.8,0.9-1.8,2.6-1.7,5.1c-1,0.4-1.7,1-2.2,1.6c-0.8,0.9-1.8,2.6-1.6,5
			c0.1,2.1,1,3.9,2.4,5c-0.7,0.6-1.1,1.3-1.4,1.8c-0.6,1.1-1.1,3-0.2,5.4c0.6,1.9,1.8,3.3,3.4,4.1c-0.4,0.4-0.8,0.8-1,1.2
			c-0.7,1-1.6,3.1-0.6,6c1.1,2.9,3.7,4.7,7,4.7c0.3,0,0.6,0,0.9,0l0.1,0c2-0.2,3.6-0.7,5-1.5l0.1-0.1c0.4-0.2,0.7-0.5,1-0.7
			c0.9,0.4,2,0.7,3.1,0.7c0.2,0,0.3,0,0.5,0l15.9-0.9c1.8-0.1,3-0.7,3.9-1.4c1.5,1.1,2.9,1.4,3.9,1.4c0.3,0,0.6,0,1-0.1
			c0.6-0.1,1.1-0.3,1.6-0.5c1.1,0.6,2.3,0.9,3.6,0.9c0.2,0,0.4,0,0.6,0l0.2,0l0.2,0c0.9-0.1,1.5-0.2,2-0.3c1.5-0.3,2.8-1,4-2
			c0.2,0.1,0.3,0.2,0.5,0.3l0.1,0.1l0.1,0.1c0.8,0.4,1.7,0.6,2.7,0.6c0.9,0,1.9-0.2,2.8-0.6c2.9-1.1,5.9-2.4,9.2-3.9
			c3.2-1.5,4.7-4.6,3.9-8C76.8,28.9,76.4,28.1,76,27.5z"/>
		<g>
			<g>
				<path class="st3" d="M8,39.6c-0.5-1.4,0.2-2.2,2-2.2c0.2,0,0.3,0,0.4,0c0.4,0,0.6-0.3,0.5-0.7l-0.4-7.4
					c-0.2,0.1-0.5,0.2-0.9,0.3S9,29.6,8.8,29.7c-1.2,0.4-2,0-2.5-1.3c-0.2-0.7-0.2-1.2,0-1.6c0.2-0.4,0.6-0.7,1.3-0.9
					c0.2-0.1,0.6-0.2,1-0.3c0.8-0.2,1.4-0.4,1.8-0.5l-0.3-6l-2.3,0.1c-1.2,0.1-1.9-0.5-2-1.8c-0.1-1.2,0.5-1.9,1.8-2l2.3-0.1
					l-0.3-4.5c-0.1-1.3,0.6-2,1.9-2.1c1.3-0.1,2,0.6,2.1,1.9l0.3,4.5l1.8-0.1c1.2-0.1,1.9,0.5,2,1.8c0.1,1.3-0.5,1.9-1.8,2L14,18.8
					l0.3,5.1l1.5-0.5c1.3-0.4,2.1,0.1,2.4,1.4c0.2,1.1-0.2,1.9-1.4,2.3c-0.7,0.3-1.5,0.5-2.2,0.8l0.2,4.3l0.2,4.2
					c0.1,1,0,1.8-0.2,2.4s-0.5,1-1.1,1.3c-0.7,0.4-1.7,0.7-3,0.9C9.3,41,8.4,40.6,8,39.6z M20.7,39.2c-1.2,0.1-1.9-0.5-2-1.8
					c-0.1-1.2,0.5-1.9,1.8-2l0.2,0l-1.2-21.7l-0.1,0c-1.1,0.1-1.7-0.5-1.8-1.7c-0.1-1.4,0.5-2.1,1.8-2.1l14.9-0.9
					c1.3-0.1,1.9,0.5,2,1.8c0.1,1.3-0.5,1.9-1.8,2l-11.2,0.6l0.2,4.1l9.7-0.6c0.7,0,1.2,0.1,1.7,0.5c0.4,0.4,0.7,0.9,0.7,1.6
					l0.5,8.1c0,0.7-0.1,1.2-0.5,1.7s-0.9,0.7-1.6,0.7l-9.7,0.6l0.3,4.9l11.8-0.7c1.2-0.1,1.9,0.5,2,1.8c0.1,1.3-0.5,1.9-1.8,2
					l-8,0.5L20.7,39.2z M24.1,26.5l3.9-0.2l3.1-0.2c0.6,0,0.8-0.3,0.8-0.9l-0.2-3.3c0-0.6-0.3-0.8-0.9-0.8l-7.1,0.4L24.1,26.5z"/>
				<path class="st3" d="M50.9,13.9c-1.3,0.1-2-0.5-2.1-1.7l0-0.1l-5.6,0.3c-1.2,0.1-1.9-0.5-1.9-1.8c-0.1-1.2,0.5-1.9,1.7-1.9
					l5.6-0.3l0-0.1c0-0.6,0.1-1,0.5-1.3c0.4-0.3,0.8-0.5,1.4-0.5c0.6,0,1.1,0.1,1.5,0.4c0.4,0.3,0.6,0.7,0.6,1.3l0,0.1l7.6-0.4
					l0-0.1c0-0.6,0.1-1,0.5-1.3C61,6,61.5,5.8,62.1,5.8c1.3-0.1,2,0.5,2.1,1.6l0,0.1L70,7.1c1.2-0.1,1.9,0.5,1.9,1.7
					c0.1,1.2-0.5,1.9-1.7,2l-2,0.1l-3.8,0.2l0,0.1c0.1,1.2-0.5,1.9-1.9,2c-1.3,0.1-2-0.5-2.1-1.7l0-0.1l-7.6,0.4l0,0.1
					C52.8,13.1,52.2,13.8,50.9,13.9z M51.2,38.6c-1.3,0.1-2.1-0.4-2.4-1.3c-0.2-0.7-0.2-1.2,0.1-1.6c0.3-0.3,0.9-0.5,1.7-0.5
					c0.4,0,0.7-0.2,0.9-0.5c0.4-0.6,0.5-2.8,0.4-6.6c0-0.6-0.1-1-0.2-1.2c-0.1-0.2-0.3-0.3-0.6-0.3l-2,0.1c-0.2,4.5-1.2,8-2.8,10.6
					c-0.4,0.6-0.9,1-1.3,1s-0.9-0.2-1.5-0.7c-0.5-0.5-0.8-1-0.8-1.4c0-0.4,0.2-1,0.6-1.5c0.9-1.6,1.5-3.7,1.8-6.3
					c0.2-1.8,0.3-4.2,0.2-7.4l-1.9,0.1c-1.2,0.1-1.8-0.5-1.9-1.7c-0.1-1.2,0.5-1.8,1.7-1.9l4-0.2L47,16.2c-0.1-1.3,0.5-2,1.9-2.1
					c1.3-0.1,2,0.6,2.1,1.9l0.1,1.1l3.7-0.2c1.2-0.1,1.8,0.5,1.9,1.7c0.1,1.2-0.5,1.9-1.7,1.9l-2,0.1l-3.8,0.2c0,1,0,1.8,0,2.2
					l6.4-0.4l0,0.1c1.2-0.8,2.2-2,3.3-3.4c0.9-1.3,1.7-2.7,2.4-4.3c0.2-0.5,0.5-0.9,0.9-1.2c0.4-0.3,0.9-0.5,1.4-0.5l0.3,0
					c0.5,0,1,0.1,1.5,0.3c0.5,0.2,0.8,0.6,1.1,1c1.6,2.5,3.3,4.5,5.2,5.8c0.7,0.4,1.1,0.8,1.3,1.3c0.2,0.5,0.1,1.1-0.2,1.8
					s-0.7,1.1-1.2,1.2s-1-0.1-1.7-0.5c-2.4-1.9-4.3-4.2-5.8-6.9c-1.1,2.8-2.7,5.3-4.8,7.4c-0.6,0.5-1.1,0.7-1.7,0.6s-1-0.5-1.4-1.2
					c-0.1-0.2-0.3-0.5-0.5-0.8c-0.1-0.1-0.1-0.2-0.1-0.2c0,0.2,0,0.5,0,1c0.1,4.3,0.1,7.3,0,9.1c-0.1,1.9-0.3,3.1-0.7,3.7
					c-0.5,0.7-1.2,1.2-2.1,1.4C52.5,38.4,52,38.5,51.2,38.6z M60.6,37.1c-0.4-0.2-0.7-0.6-1-1.2c-0.3-0.7-0.5-1.3-0.3-1.7
					c0.1-0.4,0.6-0.8,1.3-1c1.1-0.4,2.5-0.8,4.1-1.4c1.9-0.7,3.6-1.3,5.2-2c1.2-0.4,2,0,2.3,1.2c0.3,1-0.1,1.8-1.1,2.2
					c-3.2,1.4-6.1,2.7-8.9,3.8C61.5,37.2,61,37.3,60.6,37.1z M64,27.7c-0.2-0.2-0.5-0.5-0.9-1c-0.5-0.5-0.9-1-1.3-1.3
					c-0.9-0.9-0.9-1.7,0.1-2.6c0.8-0.7,1.5-0.7,2.3,0c1,0.9,2,1.8,2.9,2.8c0.3,0.4,0.5,0.8,0.4,1.2c-0.1,0.3-0.3,0.7-0.8,1.1
					C65.7,28.9,64.8,28.8,64,27.7z"/>
			</g>
		</g>
	</g>
</g>
</svg>
