<?xml version="1.0" encoding="utf-8"?>
<!-- Generator: Adobe Illustrator 25.0.0, SVG Export Plug-In . SVG Version: 6.00 Build 0)  -->
<svg version="1.1" id="圖層_1" xmlns="http://www.w3.org/2000/svg" xmlns:xlink="http://www.w3.org/1999/xlink" x="0px" y="0px"
	 viewBox="0 0 312.8 27.4" style="enable-background:new 0 0 312.8 27.4;" xml:space="preserve">
<style type="text/css">
	.st0{fill:#F17F23;}
	.st1{fill:#F18024;}
	.st2{fill:#FFFFFF;}
</style>
<g>
	<g>
		<path class="st0" d="M282.6,14.2c0-4.3,1.1-8,4.4-10.8c4.1-3.7,10-3.9,15-2.7c4.6,0.9,9.2,4.1,10.4,9c1.4,6.3-1.1,12.8-6.9,15.6
			c-3.9,1.9-8.5,2.4-12.7,1.8C286.3,26.1,282.7,20.7,282.6,14.2z"/>
	</g>
</g>
<path class="st1" d="M1.7,23.5c-0.5,0-0.9-0.2-1.3-0.5C0.2,22.7,0,22.2,0,21.7v-0.1c0-0.7,0.4-1.4,1.1-2c2.5-2.3,4.4-4.3,5.5-5.8
	c1.4-1.9,2.1-3.4,2.1-4.7c0-0.9-0.2-1.7-0.7-2.2S6.8,6.1,6,6.1c-0.7,0-1.3,0.2-2,0.6c-1,0.9-2,0.9-2.9,0C0.6,6.3,0.4,5.9,0.5,5.4
	c0-0.5,0.3-0.9,0.8-1.3c1.5-1.2,3.4-1.8,5.4-1.8s3.7,0.6,4.9,1.8c1.3,1.2,1.9,2.8,1.9,4.8c0,2.9-2.1,6.5-6.3,10.8
	c1.4-0.2,2.5-0.3,3.4-0.3h1.7c1.4,0,2.1,0.7,2.1,2.1s-0.7,2.1-2.1,2.1H7.2H1.7V23.5z"/>
<path class="st1" d="M25.2,23.8c-2.3,0-4-0.9-5.3-2.8c-1.4-1.9-2-4.6-2-8.1s0.7-6.2,2-8s3.1-2.7,5.3-2.7s4,0.9,5.3,2.7
	c1.4,1.9,2,4.5,2,8s-0.7,6.2-2,8.1C29.3,22.9,27.5,23.8,25.2,23.8z M25.2,20c0.9,0,1.5-0.5,1.9-1.4c0.5-1.1,0.8-3,0.8-5.7
	s-0.3-4.5-0.8-5.6C26.7,6.4,26,6,25.2,6s-1.4,0.5-1.8,1.4c-0.5,1.1-0.8,2.9-0.8,5.6s0.3,4.5,0.8,5.7C23.8,19.5,24.4,20,25.2,20z"/>
<path class="st1" d="M37.5,23.5c-0.5,0-0.9-0.2-1.3-0.5c-0.3-0.3-0.5-0.7-0.5-1.3v-0.1c0-0.7,0.4-1.4,1.1-2c2.5-2.3,4.4-4.3,5.5-5.8
	c1.4-1.8,2.1-3.4,2.1-4.7c0-0.9-0.2-1.7-0.7-2.2s-1.1-0.8-2-0.8c-0.7,0-1.3,0.2-2,0.6c-1,0.9-2,0.9-2.9,0c-0.4-0.4-0.6-0.9-0.6-1.4
	S36.5,4.4,37,4c1.5-1.2,3.4-1.8,5.4-1.8s3.7,0.6,4.9,1.8c1.3,1.2,1.9,2.8,1.9,4.8c0,2.9-2.1,6.5-6.3,10.8c1.4-0.2,2.5-0.3,3.4-0.3
	H48c1.4,0,2.1,0.7,2.1,2.1s-0.7,2.1-2.1,2.1h-5C43,23.5,37.5,23.5,37.5,23.5z"/>
<path class="st1" d="M60.5,23.8c-2.4,0-4.4-0.6-6.1-1.9c-0.4-0.4-0.7-0.8-0.7-1.1c0-0.4,0.1-0.8,0.5-1.3c0.8-1.2,1.8-1.3,3-0.4
	c0.9,0.5,1.7,0.7,2.5,0.7c1,0,1.8-0.3,2.4-0.8c0.6-0.6,0.9-1.4,0.9-2.4s-0.3-1.8-0.8-2.4c-0.6-0.5-1.3-0.8-2.2-0.8
	c-0.6,0-1.1,0.1-1.7,0.3c-0.8,0.5-1.6,0.5-2.4,0l-0.1-0.1c-0.7-0.4-1-1.1-1-1.9l0.4-7.3c0-0.5,0.2-1,0.6-1.3s0.8-0.5,1.3-0.5h4.1H65
	c1.4,0,2.1,0.7,2.1,2.1S66.4,6.8,65,6.8h-5.3l-0.3,3.5c0.7-0.3,1.4-0.4,2.2-0.4c1.9,0,3.4,0.5,4.6,1.6c1.3,1.2,1.9,2.8,1.9,5
	c0,2.3-0.8,4.1-2.3,5.5C64.3,23.2,62.6,23.8,60.5,23.8z"/>
<path class="st1" d="M75.3,23.8c-0.9,0-1.6-0.3-2.1-0.9c-0.6-0.6-0.8-1.3-0.8-2.2s0.3-1.6,0.8-2.2c0.6-0.6,1.3-0.9,2.1-0.9
	c0.8,0,1.5,0.3,2.1,0.9s0.9,1.3,0.9,2.2c0,0.9-0.3,1.6-0.8,2.2C76.9,23.5,76.2,23.8,75.3,23.8z"/>
<path class="st1" d="M88.1,23.5c-1.7,0-2.5-0.8-2.5-2.5V8l-1.8,0.8c-1,0.4-1.9,0.2-2.5-0.8c-0.7-1.2-0.5-2.1,0.7-2.6l5-2.6h1.9
	c0.5,0,1,0.2,1.3,0.5s0.5,0.7,0.5,1.3v8.7v7.9C90.6,22.6,89.8,23.5,88.1,23.5z"/>
<path class="st1" d="M104.9,23.8c-2.3,0-4-0.9-5.3-2.8c-1.4-1.9-2-4.6-2-8.1s0.7-6.2,2-8s3.1-2.7,5.3-2.7s4,0.9,5.3,2.7
	c1.4,1.9,2,4.5,2,8s-0.7,6.2-2,8.1C108.9,22.9,107.1,23.8,104.9,23.8z M104.9,20c0.9,0,1.5-0.5,1.9-1.4c0.5-1.1,0.8-3,0.8-5.7
	s-0.3-4.5-0.8-5.6c-0.4-0.9-1.1-1.3-1.9-1.3s-1.5,0.5-1.9,1.4c-0.5,1.1-0.8,2.9-0.8,5.6s0.3,4.5,0.8,5.7C103.4,19.5,104,20,104.9,20
	z"/>
<path class="st1" d="M119.2,23.8c-0.9,0-1.6-0.3-2.1-0.9c-0.6-0.6-0.8-1.3-0.8-2.2s0.3-1.6,0.8-2.2c0.6-0.6,1.3-0.9,2.1-0.9
	c0.8,0,1.5,0.3,2.1,0.9s0.9,1.3,0.9,2.2c0,0.9-0.3,1.6-0.8,2.2C120.7,23.5,120,23.8,119.2,23.8z"/>
<path class="st1" d="M196.6,17.1c-1.2,0-1.7-0.6-1.7-1.8s0.6-1.7,1.7-1.7h4.5c1.2,0,1.7,0.6,1.7,1.7c0,1.2-0.6,1.8-1.7,1.8h-2.2
	H196.6z"/>
<path class="st1" d="M214.7,23.5c-1.7,0-2.5-0.8-2.5-2.5V8l-1.8,0.8c-1,0.4-1.9,0.2-2.5-0.8c-0.7-1.2-0.5-2.1,0.7-2.6l5-2.6h1.9
	c0.5,0,1,0.2,1.3,0.5s0.5,0.7,0.5,1.3v8.7v7.9C217.1,22.6,216.3,23.5,214.7,23.5z"/>
<path class="st1" d="M232.5,23.5c-1.7,0-2.5-0.8-2.5-2.5V8l-1.8,0.8c-1,0.4-1.9,0.2-2.5-0.8c-0.7-1.2-0.5-2.1,0.7-2.6l5-2.6h1.9
	c0.5,0,1,0.2,1.3,0.5s0.5,0.7,0.5,1.3v8.7v7.9C235,22.6,234.2,23.5,232.5,23.5z"/>
<path class="st1" d="M243.6,23.8c-0.9,0-1.6-0.3-2.1-0.9c-0.6-0.6-0.8-1.3-0.8-2.2s0.3-1.6,0.8-2.2c0.6-0.6,1.3-0.9,2.1-0.9
	s1.5,0.3,2.1,0.9s0.9,1.3,0.9,2.2c0,0.9-0.3,1.6-0.8,2.2C245.2,23.5,244.5,23.8,243.6,23.8z"/>
<g>
	<path class="st2" d="M292.9,20.2c-0.3,0-0.6-0.1-0.8-0.3c-0.2-0.2-0.3-0.5-0.3-0.8v-12c0-0.3,0.1-0.6,0.3-0.8
		c0.2-0.2,0.5-0.3,0.8-0.3h5h5c0.3,0,0.6,0.1,0.8,0.3c0.2,0.2,0.3,0.5,0.3,0.8v12c0,0.3-0.1,0.6-0.3,0.8c-0.2,0.2-0.5,0.3-0.8,0.3
		H292.9z M293.9,11.9h4h4V8h-7.5c-0.3,0-0.4,0.1-0.4,0.4v3.5H293.9z M294.3,18.1h7.5v-4h-4h-4v3.6C293.9,17.9,294.1,18.1,294.3,18.1
		z"/>
</g>
<g>
	<g>
		<path class="st0" d="M160.3,14.2c0-4.3,1.1-8,4.4-10.8c4.1-3.7,10-3.9,15-2.7c4.6,0.9,9.2,4.1,10.4,9c1.4,6.3-1.1,12.8-6.9,15.6
			c-3.9,1.9-8.5,2.4-12.7,1.8C164,26.1,160.4,20.7,160.3,14.2z"/>
	</g>
</g>
<g>
	<path class="st2" d="M169,20.1c-0.3,0-0.6-0.1-0.8-0.3c-0.2-0.2-0.3-0.5-0.3-0.8V7.7c0-0.3,0.1-0.6,0.3-0.8
		c0.2-0.2,0.5-0.3,0.8-0.3h6.3h6.3c0.3,0,0.6,0.1,0.8,0.3c0.2,0.2,0.3,0.5,0.3,0.8v11.2c0,0.3-0.1,0.6-0.3,0.8
		c-0.2,0.2-0.5,0.3-0.8,0.3H169V20.1z M170.4,18h4.9h4.9c0.3,0,0.4-0.1,0.4-0.4v-2.9c-0.1,0.2-0.3,0.4-0.6,0.5s-0.6,0.2-1.1,0.2
		h-1.1c-0.6,0-1-0.2-1.4-0.5c-0.2-0.2-0.3-0.4-0.3-0.6C176,14,176,13.6,176,13V8.6h-1.6c-0.1,1.7-0.3,3-0.5,4
		c-0.3,1.2-0.9,2.3-1.6,3c-0.3,0.3-0.6,0.4-0.9,0.3c-0.3,0-0.6-0.2-0.8-0.5c-0.2-0.2-0.4-0.4-0.6-0.6v2.8
		C170,17.8,170.1,18,170.4,18z M170,14.7c0.9-0.6,1.5-1.4,1.9-2.6c0.3-0.8,0.4-2,0.5-3.6h-2c-0.3,0-0.4,0.1-0.4,0.4v2.7V14.7z
		 M178.3,13.6h0.5c0.2,0,0.3,0,0.3-0.1c0.1-0.1,0.2-0.2,0.2-0.4c0-0.1,0.1-0.3,0.1-0.6c0-0.6,0.2-0.7,0.5-0.4
		c0.2,0.1,0.4,0.2,0.7,0.3V9c0-0.3-0.1-0.4-0.4-0.4H178v2.2V13c0,0.3,0,0.4,0.1,0.5C178.1,13.5,178.2,13.6,178.3,13.6z"/>
</g>
<g>
	<path class="st0" d="M133,23.3c-1.7,0-2.5-0.8-2.5-2.5v-13l-1.8,0.8c-1,0.4-1.9,0.2-2.5-0.8c-0.7-1.2-0.5-2,0.7-2.6l4.9-2.6h1.9
		c0.5,0,1,0.2,1.3,0.5c0.3,0.3,0.5,0.7,0.5,1.3v8.7v7.9C135.5,22.5,134.6,23.3,133,23.3z"/>
	<path class="st0" d="M149.4,23.7c-2.2,0-3.9-0.8-5.3-2.5c-1.6-1.9-2.4-4.6-2.4-8.2c0-3.5,0.8-6.3,2.5-8.3c1.5-1.8,3.4-2.7,5.8-2.7
		c1.8,0,3.4,0.5,4.8,1.4c0.5,0.4,0.7,0.8,0.7,1.2c0,0.4-0.2,0.8-0.7,1.3c-0.9,1-1.9,1.1-3.1,0.4c-0.5-0.2-0.9-0.3-1.4-0.3
		c-2.5,0-3.9,2-4.1,6.1c0.5-0.6,1.1-1.1,1.9-1.5c0.7-0.4,1.4-0.5,2-0.5c1.8,0,3.3,0.5,4.4,1.6c1.2,1.2,1.7,2.8,1.7,5
		c0,2.1-0.7,3.9-2,5.2C152.9,23.1,151.3,23.7,149.4,23.7z M149.3,20c0.7,0,1.3-0.3,1.7-0.8c0.5-0.6,0.7-1.4,0.7-2.5c0-2-0.8-3-2.5-3
		c-1.2,0-2.2,0.6-2.9,1.9c0.2,1.6,0.6,2.8,1.2,3.5C147.9,19.7,148.5,20,149.3,20z"/>
</g>
<g>
	<path class="st0" d="M255.4,23.3c-1.7,0-2.5-0.8-2.5-2.5v-13l-1.8,0.8c-1,0.4-1.9,0.2-2.5-0.8c-0.7-1.2-0.5-2,0.7-2.6l4.9-2.6h1.9
		c0.5,0,1,0.2,1.3,0.5c0.3,0.3,0.5,0.7,0.5,1.3v8.7v7.9C257.9,22.5,257.1,23.3,255.4,23.3z"/>
	<path class="st0" d="M271.9,23.7c-2.2,0-3.9-0.8-5.3-2.5c-1.6-1.9-2.4-4.6-2.4-8.2c0-3.5,0.8-6.3,2.5-8.3c1.5-1.8,3.4-2.7,5.8-2.7
		c1.8,0,3.4,0.5,4.8,1.4c0.5,0.4,0.7,0.8,0.7,1.2c0,0.4-0.2,0.8-0.7,1.3c-0.9,1-1.9,1.1-3.1,0.4c-0.5-0.2-0.9-0.3-1.4-0.3
		c-2.5,0-3.9,2-4.1,6.1c0.5-0.6,1.1-1.1,1.9-1.5c0.7-0.4,1.4-0.5,2-0.5c1.8,0,3.3,0.5,4.4,1.6c1.2,1.2,1.7,2.8,1.7,5
		c0,2.1-0.7,3.9-2,5.2C275.4,23.1,273.8,23.7,271.9,23.7z M271.7,20c0.7,0,1.3-0.3,1.7-0.8c0.5-0.6,0.7-1.4,0.7-2.5c0-2-0.8-3-2.5-3
		c-1.2,0-2.2,0.6-2.9,1.9c0.2,1.6,0.6,2.8,1.2,3.5C270.4,19.7,271,20,271.7,20z"/>
</g>
</svg>
