<?xml version="1.0" encoding="utf-8"?>
<!-- Generator: Adobe Illustrator 25.0.0, SVG Export Plug-In . SVG Version: 6.00 Build 0)  -->
<svg version="1.1" id="圖層_1" xmlns="http://www.w3.org/2000/svg" xmlns:xlink="http://www.w3.org/1999/xlink" x="0px" y="0px"
	 viewBox="0 0 293.6 27.3" style="enable-background:new 0 0 293.6 27.3;" xml:space="preserve">
<style type="text/css">
	.st0{fill:#58b66a;}
	.st1{fill:#58b66a;}
	.st2{fill:#FFFFFF;}
</style>
<g>
	<g>
		<path class="st0" d="M263.4,14.1c0-4.3,1.1-8,4.4-10.8c4.1-3.7,10-3.9,15-2.7c4.6,0.9,9.2,4.1,10.4,9c1.4,6.3-1.1,12.8-6.9,15.6
			c-3.9,1.9-8.5,2.4-12.7,1.8C267.1,26,263.5,20.6,263.4,14.1z"/>
	</g>
</g>
<g>
	<path class="st1" d="M1.7,23c-0.5,0-0.9-0.2-1.3-0.5C0.2,22.2,0,21.7,0,21.2v-0.1c0-0.7,0.4-1.4,1.1-2c2.5-2.3,4.4-4.3,5.5-5.8
		C8,11.4,8.7,9.9,8.7,8.6c0-0.9-0.2-1.7-0.7-2.2C7.5,5.9,6.8,5.6,6,5.6c-0.7,0-1.3,0.2-2,0.6c-1,0.9-2,0.9-2.9,0
		C0.6,5.8,0.4,5.4,0.5,4.9c0-0.5,0.3-0.9,0.8-1.3c1.5-1.2,3.4-1.8,5.4-1.8c2,0,3.7,0.6,4.9,1.8c1.3,1.2,1.9,2.8,1.9,4.8
		c0,2.9-2.1,6.5-6.3,10.8c1.4-0.2,2.5-0.3,3.4-0.3h1.7c1.4,0,2.1,0.7,2.1,2.1c0,1.4-0.7,2.1-2.1,2.1H7.2H1.7z"/>
	<path class="st1" d="M25.2,23.3c-2.3,0-4-0.9-5.3-2.8c-1.4-1.9-2-4.6-2-8.1s0.7-6.2,2-8c1.3-1.8,3.1-2.7,5.3-2.7s4,0.9,5.3,2.7
		c1.4,1.9,2,4.5,2,8s-0.7,6.2-2,8.1C29.3,22.4,27.5,23.3,25.2,23.3z M25.2,19.5c0.9,0,1.5-0.5,1.9-1.4c0.5-1.1,0.8-3,0.8-5.7
		s-0.3-4.5-0.8-5.6c-0.4-0.9-1.1-1.3-1.9-1.3S23.8,6,23.4,6.9c-0.5,1.1-0.8,2.9-0.8,5.6c0,2.7,0.3,4.5,0.8,5.7
		C23.8,19,24.4,19.5,25.2,19.5z"/>
	<path class="st1" d="M37.5,23c-0.5,0-0.9-0.2-1.3-0.5c-0.3-0.3-0.5-0.7-0.5-1.3v-0.1c0-0.7,0.4-1.4,1.1-2c2.5-2.3,4.4-4.3,5.5-5.8
		c1.4-1.8,2.1-3.4,2.1-4.7c0-0.9-0.2-1.7-0.7-2.2c-0.5-0.5-1.1-0.8-2-0.8c-0.7,0-1.3,0.2-2,0.6c-1,0.9-2,0.9-2.9,0
		c-0.4-0.4-0.6-0.9-0.6-1.4c0-0.5,0.3-0.9,0.8-1.3c1.5-1.2,3.4-1.8,5.4-1.8c2,0,3.7,0.6,4.9,1.8c1.3,1.2,1.9,2.8,1.9,4.8
		c0,2.9-2.1,6.5-6.3,10.8c1.4-0.2,2.5-0.3,3.4-0.3h1.7c1.4,0,2.1,0.7,2.1,2.1c0,1.4-0.7,2.1-2.1,2.1H43H37.5z"/>
	<path class="st1" d="M60.5,23.3c-2.4,0-4.4-0.6-6.1-1.9c-0.4-0.4-0.7-0.8-0.7-1.1c0-0.4,0.1-0.8,0.5-1.3c0.8-1.2,1.8-1.3,3-0.4
		c0.9,0.5,1.7,0.7,2.5,0.7c1,0,1.8-0.3,2.4-0.8c0.6-0.6,0.9-1.4,0.9-2.4c0-1-0.3-1.8-0.8-2.4c-0.6-0.5-1.3-0.8-2.2-0.8
		c-0.6,0-1.1,0.1-1.7,0.3c-0.8,0.5-1.6,0.5-2.4,0l-0.1-0.1c-0.7-0.4-1-1.1-1-1.9l0.4-7.3c0-0.5,0.2-1,0.6-1.3s0.8-0.5,1.3-0.5h4.1
		H65c1.4,0,2.1,0.7,2.1,2.1c0,1.4-0.7,2.1-2.1,2.1h-5.3l-0.3,3.5c0.7-0.3,1.4-0.4,2.2-0.4c1.9,0,3.4,0.5,4.6,1.6
		c1.3,1.2,1.9,2.8,1.9,5c0,2.3-0.8,4.1-2.3,5.5C64.3,22.7,62.6,23.3,60.5,23.3z"/>
	<path class="st1" d="M75.3,23.3c-0.9,0-1.6-0.3-2.1-0.9c-0.6-0.6-0.8-1.3-0.8-2.2s0.3-1.6,0.8-2.2c0.6-0.6,1.3-0.9,2.1-0.9
		c0.8,0,1.5,0.3,2.1,0.9c0.6,0.6,0.9,1.3,0.9,2.2c0,0.9-0.3,1.6-0.8,2.2C76.9,23,76.2,23.3,75.3,23.3z"/>
	<path class="st1" d="M90.7,23c-1.7,0-2.5-0.8-2.5-2.5v-13l-1.8,0.8c-1,0.4-1.9,0.2-2.5-0.8c-0.7-1.2-0.5-2.1,0.7-2.6l5-2.6h1.9
		c0.5,0,1,0.2,1.3,0.5c0.3,0.3,0.5,0.7,0.5,1.3v8.7v7.9C93.2,22.1,92.4,23,90.7,23z"/>
	<path class="st1" d="M107.5,23.3c-2.3,0-4-0.9-5.3-2.8c-1.4-1.9-2-4.6-2-8.1s0.7-6.2,2-8c1.3-1.8,3.1-2.7,5.3-2.7s4,0.9,5.3,2.7
		c1.4,1.9,2,4.5,2,8s-0.7,6.2-2,8.1C111.5,22.4,109.7,23.3,107.5,23.3z M107.5,19.5c0.9,0,1.5-0.5,1.9-1.4c0.5-1.1,0.8-3,0.8-5.7
		s-0.3-4.5-0.8-5.6c-0.4-0.9-1.1-1.3-1.9-1.3S106,6,105.6,6.9c-0.5,1.1-0.8,2.9-0.8,5.6c0,2.7,0.3,4.5,0.8,5.7
		C106,19,106.6,19.5,107.5,19.5z"/>
	<path class="st1" d="M121.8,23.3c-0.9,0-1.6-0.3-2.1-0.9c-0.6-0.6-0.8-1.3-0.8-2.2s0.3-1.6,0.8-2.2c0.6-0.6,1.3-0.9,2.1-0.9
		c0.8,0,1.5,0.3,2.1,0.9c0.6,0.6,0.9,1.3,0.9,2.2c0,0.9-0.3,1.6-0.8,2.2C123.3,23,122.6,23.3,121.8,23.3z"/>
	<path class="st1" d="M135,23.3c-1.8,0-3.4-0.5-4.8-1.4c-0.5-0.4-0.7-0.8-0.7-1.2c0-0.4,0.2-0.8,0.6-1.3c0.9-1,2-1.2,3.1-0.4
		c0.5,0.2,1,0.3,1.5,0.3c2.5,0,3.8-2,4-6.1c-0.5,0.6-1.1,1.1-1.9,1.5c-0.7,0.4-1.4,0.6-2.1,0.6c-1.8,0-3.3-0.5-4.4-1.6
		c-1.2-1.2-1.7-2.8-1.7-5s0.7-3.9,2-5.2c1.3-1.2,2.9-1.9,4.8-1.9c2.2,0,4,0.8,5.4,2.4c1.6,1.9,2.4,4.6,2.4,8.1
		c0,3.6-0.8,6.4-2.5,8.4C139.2,22.5,137.3,23.3,135,23.3z M135.6,11.8c1.2,0,2.2-0.7,2.9-2c-0.2-1.6-0.6-2.7-1.2-3.5
		c-0.5-0.6-1.1-0.9-1.8-0.9c-0.7,0-1.3,0.3-1.7,0.8c-0.5,0.6-0.7,1.4-0.7,2.6C133.1,10.8,134,11.8,135.6,11.8z"/>
	<path class="st1" d="M186.2,16.6c-1.2,0-1.7-0.6-1.7-1.8c0-1.2,0.6-1.7,1.7-1.7h4.5c1.2,0,1.7,0.6,1.7,1.7c0,1.2-0.6,1.8-1.7,1.8
		h-2.2H186.2z"/>
	<path class="st1" d="M204.3,23c-1.7,0-2.5-0.8-2.5-2.5v-13l-1.8,0.8c-1,0.4-1.9,0.2-2.5-0.8c-0.7-1.2-0.5-2.1,0.7-2.6l5-2.6h1.9
		c0.5,0,1,0.2,1.3,0.5c0.3,0.3,0.5,0.7,0.5,1.3v8.7v7.9C206.7,22.1,205.9,23,204.3,23z"/>
	<path class="st1" d="M222.1,23c-1.7,0-2.5-0.8-2.5-2.5v-13l-1.8,0.8c-1,0.4-1.9,0.2-2.5-0.8c-0.7-1.2-0.5-2.1,0.7-2.6l5-2.6h1.9
		c0.5,0,1,0.2,1.3,0.5c0.3,0.3,0.5,0.7,0.5,1.3v8.7v7.9C224.6,22.1,223.8,23,222.1,23z"/>
	<path class="st1" d="M235.3,23.3c-0.9,0-1.6-0.3-2.1-0.9c-0.6-0.6-0.8-1.3-0.8-2.2s0.3-1.6,0.8-2.2c0.6-0.6,1.3-0.9,2.1-0.9
		c0.8,0,1.5,0.3,2.1,0.9c0.6,0.6,0.9,1.3,0.9,2.2c0,0.9-0.3,1.6-0.8,2.2C236.9,23,236.2,23.3,235.3,23.3z"/>
	<path class="st1" d="M248.5,23.3c-1.8,0-3.4-0.5-4.8-1.4c-0.5-0.4-0.7-0.8-0.7-1.2c0-0.4,0.2-0.8,0.6-1.3c0.9-1,2-1.2,3.1-0.4
		c0.5,0.2,1,0.3,1.5,0.3c2.5,0,3.8-2,4-6.1c-0.5,0.6-1.1,1.1-1.9,1.5c-0.7,0.4-1.4,0.6-2.1,0.6c-1.8,0-3.3-0.5-4.4-1.6
		c-1.2-1.2-1.7-2.8-1.7-5s0.7-3.9,2-5.2c1.3-1.2,2.9-1.9,4.8-1.9c2.2,0,4,0.8,5.4,2.4c1.6,1.9,2.4,4.6,2.4,8.1
		c0,3.6-0.8,6.4-2.5,8.4C252.7,22.5,250.8,23.3,248.5,23.3z M249.2,11.8c1.2,0,2.2-0.7,2.9-2c-0.2-1.6-0.6-2.7-1.2-3.5
		c-0.5-0.6-1.1-0.9-1.8-0.9c-0.7,0-1.3,0.3-1.7,0.8c-0.5,0.6-0.7,1.4-0.7,2.6C246.6,10.8,247.5,11.8,249.2,11.8z"/>
</g>
<g>
	<path class="st2" d="M273.7,20.1c-0.3,0-0.6-0.1-0.8-0.3c-0.2-0.2-0.3-0.5-0.3-0.8v-12c0-0.3,0.1-0.6,0.3-0.8
		c0.2-0.2,0.5-0.3,0.8-0.3h5h5c0.3,0,0.6,0.1,0.8,0.3c0.2,0.2,0.3,0.5,0.3,0.8v12c0,0.3-0.1,0.6-0.3,0.8c-0.2,0.2-0.5,0.3-0.8,0.3
		H273.7z M274.7,11.8h4h4V7.9h-7.5c-0.3,0-0.4,0.1-0.4,0.4V11.8z M275.1,18h7.5v-4h-4h-4v3.6C274.7,17.8,274.9,18,275.1,18z"/>
</g>
<g>
	<g>
		<path class="st0" d="M149.9,14.1c0-4.3,1.1-8,4.4-10.8c4.1-3.7,10-3.9,15-2.7c4.6,0.9,9.2,4.1,10.4,9c1.4,6.3-1.1,12.8-6.9,15.6
			c-3.9,1.9-8.5,2.4-12.7,1.8C153.6,26,150,20.6,149.9,14.1z"/>
	</g>
</g>
<g>
	<path class="st2" d="M158.6,20c-0.3,0-0.6-0.1-0.8-0.3c-0.2-0.2-0.3-0.5-0.3-0.8V7.6c0-0.3,0.1-0.6,0.3-0.8
		c0.2-0.2,0.5-0.3,0.8-0.3h6.3h6.3c0.3,0,0.6,0.1,0.8,0.3c0.2,0.2,0.3,0.5,0.3,0.8v11.2c0,0.3-0.1,0.6-0.3,0.8
		c-0.2,0.2-0.5,0.3-0.8,0.3H158.6z M160,17.9h4.9h4.9c0.3,0,0.4-0.1,0.4-0.4v-2.9c-0.1,0.2-0.3,0.4-0.6,0.5
		c-0.3,0.1-0.6,0.2-1.1,0.2h-1.1c-0.6,0-1-0.2-1.4-0.5c-0.2-0.2-0.3-0.4-0.3-0.6c-0.1-0.3-0.1-0.7-0.1-1.3V8.5H164
		c-0.1,1.7-0.3,3-0.5,4c-0.3,1.2-0.9,2.3-1.6,3c-0.3,0.3-0.6,0.4-0.9,0.3c-0.3,0-0.6-0.2-0.8-0.5c-0.2-0.2-0.4-0.4-0.6-0.6v2.8
		C159.6,17.7,159.7,17.9,160,17.9z M159.6,14.6c0.9-0.6,1.5-1.4,1.9-2.6c0.3-0.8,0.4-2,0.5-3.6H160c-0.3,0-0.4,0.1-0.4,0.4v2.7V14.6
		z M167.9,13.5h0.5c0.2,0,0.3,0,0.3-0.1c0.1-0.1,0.2-0.2,0.2-0.4c0-0.1,0.1-0.3,0.1-0.6c0-0.6,0.2-0.7,0.5-0.4
		c0.2,0.1,0.4,0.2,0.7,0.3V8.9c0-0.3-0.1-0.4-0.4-0.4h-2.2v2.2v2.2c0,0.3,0,0.4,0.1,0.5C167.7,13.4,167.8,13.5,167.9,13.5z"/>
</g>
</svg>
