<?xml version="1.0" encoding="utf-8"?>
<!-- Generator: Adobe Illustrator 25.0.0, SVG Export Plug-In . SVG Version: 6.00 Build 0)  -->
<svg version="1.1" id="Layer_1" xmlns="http://www.w3.org/2000/svg" xmlns:xlink="http://www.w3.org/1999/xlink" x="0px" y="0px"
	 viewBox="0 0 2240.5 2032.7" style="enable-background:new 0 0 2240.5 2032.7;" xml:space="preserve">
<style type="text/css">
	.st0{fill:#FFFFFF;}
	.st1{fill:#EAEAEA;}
	.st2{fill:#FDD23C;}
	.st3{fill:#DFE9F4;}
</style>
<g>
	<g>
		<path class="st0" d="M1908,1177.1l-595.7,595.7c-21.5,21.5-44.4,41.6-67.8,60c-291.2,230.3-717.2,224.2-987.7-40.8
			C107.7,1646.3,33.7,1453.9,34,1262.2c0-162.5,53-325,159.4-458.7c17.6-23.2,36.9-44.7,57.8-65.6L860,129.1
			c126.7-126.7,332.2-126.7,458.9,0l589,589C2034.7,844.9,2034.7,1050.3,1908,1177.1z"/>
	</g>
	<g>
		<path class="st1" d="M1908.2,1177.2l-595.7,595.4c-21.7,21.7-44.5,41.8-67.9,60.1c-291.3,230.5-717.3,224.4-987.8-40.7
			c-29.9-29.2-56.7-60.1-80.4-92.7c269.2,195.5,643.6,180.9,907.4-27.5c23.4-18.3,46.2-38.4,67.6-60.1l595.7-595.7
			c127-126.6,127-332,0-458.9l161.2,161.2C2034.8,844.9,2034.8,1050.2,1908.2,1177.2z"/>
	</g>
	<g>
		<path class="st2" d="M1748.5,888.6c-244.5,244.5-577.3,308.2-742.9,142.7C840,865.7,904,533.2,1148.5,288.6
			c58.3-58.3,121.4-106.4,186.5-143.5l556.9,556.9C1854.8,767.1,1806.8,830.2,1748.5,888.6z"/>
	</g>
	<g>
		<path class="st2" d="M1256.7,396.8C1039.5,614,964.8,900.9,1067,1078.1c-22.4-12.9-43.1-28.5-61.4-46.8
			c-165.6-165.7-101.5-498,142.9-742.7c58.4-58.4,121.5-106.2,186.7-143.2l108,107.9C1378.3,290.5,1315.1,338.4,1256.7,396.8z"/>
	</g>
	<g>
		<path class="st3" d="M1446.2,763.7c-79,79-181.7,104.6-229.4,56.9c-48-48-22.4-150.6,56.6-229.7c79-79,181.7-104.6,229.7-56.6
			C1550.8,582,1525.2,684.6,1446.2,763.7z"/>
	</g>
	<path d="M2230.5,296c-13.3-13.3-34.7-13.3-48,0l-87.8,87.8c-19.3,19.3-50.7,19.3-69.9,0L1898,257c-44.3-44.3-121.6-44.4-165.9,0
		l-118.6,118.6C1315.8,78,1363.2,125.3,1342.9,105.1C1202.9-35,976.1-35,836,105.1c-659.3,659.2-634,630.8-669.2,677.3
		C-70.6,1080.8-60,1529.9,233.1,1816.3c277,271.2,720.8,289.6,1032.4,43.2c51.1-40.2,34.4-26.2,474.8-466.7
		c13.3-13.3,13.3-34.7,0-48c-13.3-13.3-34.7-13.3-48,0c-440.1,440.2-420.9,423.6-468.8,461.4C938.4,2031.6,533,2015,280.5,1767.8
		C12.3,1505.6,4.1,1096,220.4,824c32.2-42.3,1-8.4,663.6-670.9c108-108,280.5-114.1,395.8-13.7c-54.9,35.2-107.1,77-155.3,125.2
		c-21.4,21.5-41.9,44-60.9,66.9c-12,14.4-10,35.8,4.5,47.8c14.5,12,35.8,9.9,47.8-4.5c17.7-21.3,36.7-42.3,56.7-62.2
		c48.7-48.7,101.5-90.6,157.1-124.8l235.8,235.8l-66.5,66.5c-66.2-33.7-168.5-4.4-249.6,76.8c-81.1,81.1-110.5,183.4-76.8,249.6
		l-165.1,165.1c-87.9-115.6-78-308.1,28.9-492.8c9.4-16.2,3.8-37-12.4-46.4c-16.3-9.5-37-3.8-46.4,12.4
		c-132.8,229.6-131.3,465.3,3.9,600.5c178.6,178.7,533.5,114.7,790.9-142.6c48.2-48.2,90-100.4,125.3-155.3
		c46,52.9,71.4,119.6,71.4,190.4c0,77.6-30.2,150.6-85.1,205.5l-70.8,70.8c-13.3,13.3-13.3,34.7,0,48c13.3,13.3,34.7,13.3,48,0
		l70.8-70.8c67.7-67.7,105-157.7,105-253.5c0-95.7-37.3-185.8-105-253.5c-2.2-2.2,24.8,24.8-270.5-270.5L1780.1,305
		c18.7-18.7,51.3-18.7,69.9,0l126.8,126.8c45.8,45.7,120.2,45.7,165.9,0l87.8-87.8C2243.8,330.7,2243.8,309.2,2230.5,296z
		 M1724.4,864.6c-218.5,218.5-509.2,287.2-668.8,164.9l165.3-165.3c18.1,9.2,38.5,14.2,60.8,14.2c59.3,0,129.5-31.8,188.5-90.8
		c13.3-13.3,13.3-34.7,0-48c-13.3-13.3-34.7-13.3-48,0c-70.2,70.2-151.9,86.4-181.4,56.9c-29.6-29.6-13.6-111.5,56.6-181.7
		c70.1-70.2,152.1-86.2,181.7-56.6c17.9,17.9,18.7,54.2,2.2,94.8c-7.1,17.4,1.3,37.2,18.7,44.2c17.2,7,37.1-1.3,44.2-18.7
		c21.5-52.9,21.8-102.9,2.7-140.5l66.6-66.6l235.8,235.8C1815.1,763.1,1773.1,815.9,1724.4,864.6z"/>
</g>
</svg>
