<?xml version="1.0" encoding="utf-8"?>
<!-- Generator: Adobe Illustrator 25.0.0, SVG Export Plug-In . SVG Version: 6.00 Build 0)  -->
<svg version="1.1" id="圖層_5" xmlns="http://www.w3.org/2000/svg" xmlns:xlink="http://www.w3.org/1999/xlink" x="0px" y="0px"
	 viewBox="0 0 137.2 46.7" style="enable-background:new 0 0 137.2 46.7;" xml:space="preserve">
<style type="text/css">
	.st0{fill:#FFFFFF;stroke:#FFFFFF;stroke-width:2.8192;stroke-linecap:round;stroke-linejoin:round;stroke-miterlimit:10;}
	.st1{fill:#98B71D;}
	.st2{fill:#979797;}
</style>
<g>
	<g>
		<g>
			<g>
				<path class="st0" d="M28.1,45.3V23.8h6.8v7.8h1.7v5.7h-1.7v8H28.1z M37.6,45.3V23.8h6.7v21.5H37.6z"/>
				<path class="st0" d="M46.8,45.3v-13c0-1.1,0.1-2,0.2-2.7c0.2-0.7,0.4-1.4,0.8-2.1c0.7-1.3,1.7-2.3,3-3.1
					c1.3-0.7,2.8-1.1,4.5-1.1c2.4,0,4.4,0.8,6,2.3c1.6,1.5,2.4,3.4,2.4,5.6c0,2-0.7,3.6-2.1,4.9C60.1,37.4,58.2,38,56,38
					c-0.3,0-0.5,0-0.7,0c-0.2,0-0.3,0-0.5,0v-5.3c0.1,0,0.1,0,0.2,0c0.1,0,0.1,0,0.3,0c0.6,0,1.1-0.2,1.4-0.5
					c0.4-0.3,0.6-0.8,0.6-1.3c0-0.5-0.2-0.9-0.5-1.2c-0.4-0.3-0.8-0.5-1.3-0.5c-0.7,0-1.1,0.2-1.4,0.7c-0.3,0.5-0.4,1.3-0.4,2.4
					v13.1H46.8z"/>
				<path class="st0" d="M64.9,45.3V33.9c0-1.2,0-2.1,0.1-2.7c0.1-0.6,0.2-1.2,0.3-1.7c0.5-1.9,1.4-3.4,2.8-4.5
					c1.4-1.1,3-1.6,4.9-1.6c1.3,0,2.6,0.3,3.7,0.9c1.1,0.6,2.1,1.4,2.8,2.4c0.6,0.9,1,1.8,1.3,2.8c0.3,1,0.4,2.5,0.4,4.3v11.5h-6.6
					v-13c0-0.8-0.1-1.4-0.3-1.8C74,30.1,73.6,30,73.1,30c-0.5,0-0.8,0.2-1,0.5c-0.2,0.3-0.3,0.9-0.3,1.9v2.3h1.7v5.7h-1.7v5H64.9z"
					/>
			</g>
			<g>
				<path class="st0" d="M88.6,27.6v4.9c0,0.3-0.2,0.4-0.5,0.4c-0.3,0-0.5-0.1-0.5-0.4v-3.7c-0.2,0.2-0.3,0.3-0.5,0.3
					c-0.1,0-0.3-0.1-0.4-0.2c-0.1-0.1-0.2-0.2-0.2-0.4s0.1-0.3,0.2-0.4c0.8-0.8,1.2-1.4,1.4-1.8c0.1-0.1,0.2-0.2,0.3-0.2
					c0.4,0,0.5,0.2,0.5,0.5C89.1,26.7,89,27.1,88.6,27.6z M87.3,26.3c-0.1,0-0.3-0.1-0.4-0.2c-0.1-0.1-0.2-0.3-0.2-0.4
					s0.1-0.3,0.1-0.4c0.4-0.4,0.9-1.1,1.3-1.9c0.1-0.1,0.2-0.2,0.3-0.2c0.4,0,0.5,0.2,0.5,0.5c0,0.2-0.2,0.7-0.7,1.5
					C87.9,25.9,87.5,26.3,87.3,26.3z M93.3,31.4c0,0.3-0.1,0.5-0.4,0.5h-1.1v0.7c0,0.3-0.2,0.4-0.5,0.4c-0.3,0-0.4-0.1-0.4-0.4v-0.7
					h-0.9c-0.5,0-0.8-0.2-0.8-0.6c0-0.1,0-0.3,0.1-0.4c0.1-0.2,0.1-0.3,0.2-0.5h-0.2c-0.2,0-0.4-0.2-0.4-0.5c0-0.3,0.1-0.5,0.4-0.5
					h1.6V29h-1c-0.4,0-0.6-0.2-0.6-0.6v-1.2c0-0.4,0.2-0.6,0.5-0.6h2.7c0.4,0,0.6,0.2,0.6,0.6v1.2c0,0.4-0.2,0.6-0.5,0.6h-0.7v0.4
					h1.1c0.2,0,0.4,0.2,0.4,0.5c0,0.3-0.1,0.5-0.4,0.5h-1.1v0.7h1.1C93.2,30.9,93.3,31.1,93.3,31.4z M93.3,25.8
					c0,0.3-0.1,0.5-0.4,0.5h-3.5c-0.2,0-0.4-0.2-0.4-0.5c0-0.3,0.1-0.5,0.4-0.5h0.5l0.2-0.6h-0.5c-0.2,0-0.4-0.2-0.4-0.5
					c0-0.3,0.1-0.5,0.4-0.5h0.7c0,0,0-0.1,0.1-0.3c0.1-0.3,0.2-0.4,0.4-0.4c0.3,0,0.5,0.1,0.5,0.3c0,0.1,0,0.2-0.1,0.4H92
					c0.5,0,0.7,0.2,0.7,0.7v0.8h0.3C93.2,25.4,93.3,25.5,93.3,25.8z M92.2,27.8c0-0.2-0.1-0.3-0.2-0.3h-1.7c-0.1,0-0.2,0.1-0.2,0.3
					c0,0.2,0.1,0.3,0.2,0.3H92C92.1,28,92.2,28,92.2,27.8z M90.9,30.9v-0.7h-0.5c0,0,0,0.1-0.1,0.2c-0.1,0.2-0.1,0.3-0.1,0.3
					c0,0.1,0.1,0.2,0.3,0.2H90.9z M91.8,25.4V25c0-0.2-0.1-0.3-0.2-0.3h-0.5l-0.2,0.6H91.8z M95.8,26.7c0,0.4-0.1,0.5-0.4,0.5h-0.2
					v4.6c0,0.6-0.4,1-1.1,1c-0.6,0-1-0.2-1-0.5c0-0.4,0.1-0.6,0.4-0.6c0,0,0.1,0,0.1,0c0.2,0,0.3,0.1,0.4,0.1c0,0,0,0,0,0
					c0.1,0,0.2-0.2,0.2-0.5v-4.1h-0.6c-0.3,0-0.4-0.2-0.4-0.5c0-0.3,0.1-0.5,0.4-0.5h1.8C95.6,26.3,95.8,26.4,95.8,26.7z M95.6,24.2
					c0,0.4-0.1,0.5-0.4,0.5h-1.5c-0.3,0-0.4-0.2-0.4-0.5c0-0.3,0.1-0.5,0.4-0.5h1.5C95.5,23.7,95.6,23.9,95.6,24.2z"/>
				<path class="st0" d="M105.8,32c0,0.4-0.2,0.6-0.5,0.6h-8.2c-0.3,0-0.5-0.2-0.5-0.6c0-0.4,0.1-0.6,0.4-0.6h3.7v-2.1h-2.7
					c-0.3,0-0.5-0.2-0.5-0.6c0-0.4,0.1-0.6,0.4-0.6h2.8v-1.9h-2.2c-0.5,1.1-0.9,1.6-1.2,1.6c-0.4,0-0.6-0.2-0.6-0.6
					c0-0.1,0-0.2,0.1-0.4c0.6-1,1.1-2,1.4-3.1c0-0.2,0.2-0.3,0.4-0.3c0.4,0,0.7,0.2,0.7,0.5c0,0.1,0,0.1,0,0.2c0,0,0,0.1,0,0.2
					c-0.1,0.3-0.2,0.6-0.2,0.8h1.8v-1.5c0-0.3,0.2-0.4,0.5-0.4c0.4,0,0.6,0.2,0.6,0.5v1.5h3.1c0.3,0,0.4,0.2,0.4,0.6
					s-0.2,0.6-0.5,0.6h-3.1v1.9h2.7c0.3,0,0.4,0.2,0.4,0.6c0,0.4-0.2,0.6-0.5,0.6h-2.7v2.1h3.4C105.6,31.4,105.8,31.6,105.8,32z"/>
				<path class="st0" d="M108,28.8c0,2.1-0.3,3.1-0.8,3.1c-0.4,0-0.6-0.2-0.6-0.5c0-0.1,0-0.2,0-0.2c0.3-0.7,0.4-1.5,0.4-2.4v-1.3
					c0-0.3,0.2-0.4,0.5-0.4c0.3,0,0.4,0.1,0.4,0.4V28.8z M110.4,26.2c0,0.4-0.2,0.5-0.5,0.5h-0.8v5.8c0,0.3-0.2,0.4-0.5,0.4
					c-0.3,0-0.5-0.1-0.5-0.4v-5.8h-1c-0.3,0-0.5-0.2-0.5-0.5c0-0.4,0.2-0.6,0.5-0.6h2.7C110.3,25.7,110.4,25.8,110.4,26.2z
					 M110.3,24.2c0,0.4-0.2,0.6-0.5,0.6h-2.3c-0.3,0-0.5-0.2-0.5-0.6c0-0.4,0.2-0.5,0.5-0.5h2.3C110.1,23.7,110.3,23.9,110.3,24.2z
					 M110.3,30.8c0,0.3-0.1,0.4-0.4,0.4c-0.3,0-0.4-0.1-0.4-0.4v-3.2c0-0.3,0.1-0.4,0.4-0.4c0.3,0,0.4,0.1,0.4,0.4V30.8z
					 M115.8,24.1c0,0.3-0.1,0.5-0.4,0.5h-4.5c-0.3,0-0.4-0.2-0.4-0.5c0-0.4,0.1-0.5,0.4-0.5h4.5C115.6,23.5,115.8,23.7,115.8,24.1z
					 M115.6,32.2c0,0.4-0.2,0.6-0.5,0.6h-3.9c-0.4,0-0.6-0.2-0.6-0.7v-3.6c0-0.4,0.2-0.6,0.6-0.6h3.9c0.4,0,0.5,0.2,0.5,0.6V32.2z
					 M115.4,27c0,0.4-0.2,0.6-0.5,0.6h-3.6c-0.4,0-0.6-0.2-0.6-0.7v-1.4c0-0.4,0.2-0.6,0.5-0.6h3.6c0.4,0,0.6,0.2,0.6,0.6V27z
					 M112.6,29.8v-0.9h-0.8c-0.2,0-0.3,0.1-0.3,0.3v0.6H112.6z M112.6,31.7v-1h-1.1v0.7c0,0.2,0.1,0.3,0.3,0.3H112.6z M114.5,26.3
					c0-0.2-0.1-0.3-0.2-0.3h-2.5c-0.1,0-0.2,0.1-0.2,0.3c0,0.2,0.1,0.3,0.2,0.3h2.5C114.5,26.5,114.5,26.4,114.5,26.3z M114.7,29.8
					v-0.6c0-0.2-0.1-0.3-0.2-0.3h-0.9v0.9H114.7z M114.7,31.4v-0.6h-1.1v1h0.9C114.6,31.7,114.7,31.6,114.7,31.4z"/>
				<path class="st0" d="M122.4,26.3c0,0.4-0.1,0.5-0.4,0.5h-1.7c0.4,0.3,0.8,0.8,1.2,1.3c0.5,0.6,0.7,0.9,0.7,1.1
					c0,0.1-0.1,0.3-0.2,0.4c-0.1,0.1-0.2,0.2-0.4,0.2c-0.2,0-0.4-0.2-0.7-0.7c-0.1-0.2-0.2-0.3-0.2-0.3c0,0,0,0-0.1-0.1
					c-0.3-0.4-0.4-0.6-0.5-0.7v4.5c0,0.3-0.2,0.4-0.5,0.4c-0.3,0-0.5-0.1-0.5-0.4v-4c-0.2,0.4-0.5,0.8-1,1.2
					c-0.4,0.4-0.7,0.7-0.9,0.7c-0.1,0-0.3-0.1-0.4-0.2c-0.1-0.1-0.2-0.3-0.2-0.4c0-0.1,0-0.2,0.1-0.3c1.1-1.1,1.9-2,2.2-2.7h-1.9
					c-0.3,0-0.4-0.2-0.4-0.5c0-0.4,0.1-0.5,0.4-0.5h2v-1.3c-0.7,0-1.2,0-1.6,0c-0.3,0-0.4-0.2-0.4-0.6c0-0.3,0.2-0.5,0.5-0.5
					c1.2,0,2.4-0.1,3.9-0.3c0,0,0.1,0,0.1,0c0.3,0,0.5,0.2,0.5,0.6c0,0.3-0.2,0.4-0.6,0.5c-0.4,0.1-0.8,0.1-1.3,0.2v1.3h1.9
					C122.2,25.8,122.4,25.9,122.4,26.3z M125.4,30.4c0,1.1-0.1,1.8-0.3,2c-0.2,0.3-0.6,0.4-1,0.4c-1.1,0-1.6-0.2-1.6-0.6
					c0-0.5,0.2-0.7,0.5-0.7c0,0,0.1,0,0.2,0c0.4,0.1,0.7,0.2,0.8,0.2c0.4,0,0.5-0.4,0.5-1.3v-6.8c0-0.2,0.2-0.4,0.5-0.4
					c0.3,0,0.5,0.1,0.5,0.4V30.4z M123.5,30.4c0,0.3-0.2,0.4-0.5,0.4c-0.3,0-0.5-0.1-0.5-0.4v-6.5c0-0.2,0.2-0.4,0.5-0.4
					c0.3,0,0.5,0.1,0.5,0.4V30.4z"/>
				<path class="st0" d="M132.1,27.5c0,0.3-0.2,0.5-0.5,0.5H127c-0.2,0-0.4-0.2-0.4-0.5c0-0.4,0.1-0.6,0.4-0.6h0.9
					c-0.1-0.4-0.2-0.9-0.5-1.7h-0.3c-0.3,0-0.4-0.2-0.4-0.5c0-0.4,0.1-0.5,0.5-0.5h1.5v-0.5c0-0.3,0.2-0.5,0.5-0.5
					c0.4,0,0.6,0.2,0.6,0.5v0.5h1.6c0.3,0,0.5,0.2,0.5,0.5c0,0.3-0.2,0.5-0.5,0.5h-0.3c0,0.1-0.1,0.4-0.1,0.7c0,0,0,0.1,0,0.1
					c-0.1,0.4-0.1,0.7-0.2,0.9h0.8C131.9,26.9,132.1,27.1,132.1,27.5z M131.7,32.1c0,0.4-0.2,0.6-0.5,0.6h-3.5
					c-0.4,0-0.6-0.2-0.6-0.7v-2.8c0-0.4,0.2-0.6,0.5-0.6h3.5c0.4,0,0.5,0.2,0.5,0.6V32.1z M130.7,31.3v-1.3c0-0.2-0.1-0.2-0.2-0.2
					h-2.1c-0.2,0-0.3,0.1-0.3,0.3v1.3c0,0.2,0.1,0.3,0.3,0.3h2.2C130.6,31.6,130.7,31.5,130.7,31.3z M130.2,25.2h-1.7
					c0,0.1,0.1,0.2,0.1,0.4c0.1,0.4,0.2,0.8,0.3,1.3h0.9c0.2-0.7,0.3-1.2,0.3-1.5C130.2,25.3,130.2,25.3,130.2,25.2z M135.8,30.2
					c0,1.3-0.5,2-1.6,2c0,0-0.1,0-0.1,0c-0.3,0-0.6-0.1-0.7-0.3v0.6c0,0.3-0.2,0.4-0.5,0.4c-0.3,0-0.5-0.1-0.5-0.4v-8.4
					c0-0.5,0.2-0.7,0.7-0.7h1.7c0.5,0,0.8,0.2,0.8,0.7c0,0.2-0.3,1.1-0.8,2.7c-0.1,0.3-0.2,0.5-0.2,0.5c0,0.1,0,0.1,0.1,0.2
					c0.2,0.2,0.5,0.6,0.7,1.1C135.6,29.3,135.7,29.8,135.8,30.2z M134.8,30.3c0-0.6-0.4-1.4-1.1-2.3c-0.1-0.1-0.2-0.3-0.2-0.4
					c0-0.1,0-0.2,0.1-0.4c0.3-0.6,0.5-1.4,0.8-2.4c0-0.1,0-0.1,0-0.2c0-0.1-0.1-0.1-0.2-0.1h-0.6c-0.2,0-0.3,0.1-0.3,0.4v6.4
					c0.1-0.1,0.1-0.1,0.2-0.1c0,0,0.1,0,0.2,0c0.2,0,0.4,0.1,0.5,0.1C134.6,31.2,134.8,30.9,134.8,30.3z"/>
				<path class="st0" d="M95.4,44.3c0,0.6-0.3,0.8-0.8,0.8h-6.7c-0.5,0-0.8-0.3-0.8-0.8v-7.6c0-0.6,0.3-0.8,0.8-0.8h6.7
					c0.5,0,0.8,0.3,0.8,0.8V44.3z M92.1,41.6c-0.3-0.8-0.4-1.8-0.5-3h-3c-0.3,0-0.4-0.2-0.4-0.5c0-0.3,0.1-0.5,0.4-0.5h2.9
					c0-0.3,0-0.5,0-0.6c0-0.1,0.1-0.2,0.2-0.3h-3.3c-0.2,0-0.3,0.1-0.3,0.3v6.7c0,0.2,0.1,0.3,0.3,0.3h2.6c-0.2-0.1-0.3-0.3-0.3-0.5
					c0-0.1,0.1-0.2,0.2-0.3c0.2-0.2,0.3-0.3,0.4-0.3c-1,0.4-1.9,0.5-2.5,0.5c-0.3,0-0.4-0.2-0.4-0.6c0-0.3,0.1-0.4,0.4-0.5
					c0.9-0.1,1.8-0.3,2.7-0.6c0,0,0.1,0,0.1,0c0.2,0,0.3,0.1,0.3,0.3C91.8,42,92,41.8,92.1,41.6z M91.3,41.1c0,0.5-0.2,0.7-0.7,0.7
					h-1.5c-0.5,0-0.7-0.2-0.7-0.7v-1.4c0-0.5,0.2-0.7,0.7-0.7h1.5c0.5,0,0.7,0.2,0.7,0.7V41.1z M90.5,40.8v-0.6
					c0-0.1-0.1-0.2-0.2-0.2h-0.9c-0.1,0-0.2,0.1-0.2,0.2v0.6c0,0.1,0.1,0.2,0.2,0.2h0.9C90.4,41,90.5,40.9,90.5,40.8z M94.4,43.8v-1
					C94.3,43.6,94,44,93.6,44c-0.5,0-0.8-0.4-1.1-1.2c-0.4,0.6-0.8,1-1.2,1.3h2.9C94.4,44.1,94.4,44,94.4,43.8z M93.1,37.7
					c-0.2-0.2-0.3-0.4-0.4-0.5c0,0,0-0.1,0-0.2c0-0.1,0-0.2,0.1-0.2h-0.6c0.1,0.1,0.2,0.1,0.2,0.3c0,0.2,0,0.4,0,0.6H93.1z
					 M94.4,41.5v-4.3c0-0.2-0.1-0.3-0.3-0.3h-0.7c0.3,0.3,0.4,0.5,0.4,0.6c0,0.1,0,0.2-0.1,0.3h0.1c0.3,0,0.4,0.2,0.4,0.5
					c0,0.3-0.1,0.5-0.4,0.5h-1.5c0.1,0.7,0.2,1.3,0.2,1.8c0.2-0.4,0.3-0.8,0.5-1.2c0.1-0.2,0.2-0.3,0.4-0.3c0.4,0,0.5,0.2,0.5,0.5
					c0,0.2-0.1,0.6-0.4,1.3c0,0,0,0,0,0.1c-0.1,0.3-0.3,0.7-0.5,1c0.1,0.6,0.3,0.8,0.4,0.8c0.1,0,0.1-0.3,0.2-0.9
					c0-0.2,0.1-0.3,0.4-0.3C94.2,41.4,94.3,41.4,94.4,41.5z"/>
				<path class="st0" d="M104.6,45.3c-0.6,0-1.2-0.4-1.9-1.2c-0.7-0.8-1.1-1.6-1.4-2.5h-2.7v2c0.3,0,0.9-0.2,1.8-0.4
					c0.6-0.2,0.9-0.2,0.9-0.2c0.3,0,0.5,0.2,0.5,0.7c0,0.3-0.2,0.5-0.7,0.6c-0.5,0.1-0.9,0.2-1.3,0.4c-1.3,0.3-2.2,0.5-2.7,0.5
					c-0.3,0-0.5-0.2-0.5-0.7c0-0.3,0.1-0.5,0.4-0.5c0.1,0,0.2,0,0.4-0.1c0.1,0,0.2,0,0.2,0v-6.9c0-0.6,0.2-0.8,0.6-0.8c0,0,0,0,0,0
					h6.4h0c0.4,0,0.5,0.3,0.5,0.8v1.7c0,0.6-0.2,0.8-0.5,0.8h0H102c0,0.3,0.1,0.5,0.2,0.9c0,0.1,0,0.2,0,0.2h3
					c0.3,0,0.5,0.2,0.5,0.6c0,0.4-0.2,0.5-0.5,0.5h-2.7c0.2,0.6,0.6,1.2,1,1.6c0.4,0.5,0.7,0.7,0.9,0.7c0.1,0,0.2-0.3,0.3-0.8
					c0.1-0.5,0.2-0.8,0.5-0.8c0.4,0,0.6,0.2,0.6,0.5c0,0.3-0.1,0.8-0.2,1.5C105.4,44.9,105.1,45.2,104.6,45.3z M104.2,37.9v-0.6
					c0-0.2-0.1-0.3-0.3-0.3H99c-0.2,0-0.3,0.1-0.3,0.3v0.8h5.3C104.1,38.2,104.2,38.1,104.2,37.9z M101.1,40.4c0,0,0-0.1-0.1-0.2
					c-0.1-0.3-0.1-0.6-0.2-0.8h-2.2v1.1H101.1z"/>
				<path class="st0" d="M108.5,37.9v7c0,0.3-0.2,0.4-0.5,0.4c-0.3,0-0.5-0.1-0.5-0.4v-4.5c-0.1,0.1-0.2,0.2-0.3,0.2
					c-0.4,0-0.5-0.2-0.5-0.5c0-0.1,0-0.2,0.1-0.3c0.6-1.2,1-2.5,1.1-3.9c0-0.2,0.2-0.3,0.4-0.3c0.4,0,0.5,0.1,0.5,0.4
					C108.8,36.1,108.7,36.7,108.5,37.9z M115.8,44.6c0,0.3-0.2,0.5-0.5,0.5h-2.7c-1.2,0-2-0.3-2.5-1c-0.4,0.8-0.7,1.2-1,1.2
					c-0.4,0-0.6-0.2-0.6-0.5c0-0.1,0-0.2,0.1-0.3c0.3-0.4,0.5-0.7,0.7-1.1c-0.5-0.9-0.7-1.7-0.7-2.4c0-0.3,0.2-0.4,0.5-0.4
					c0.2,0,0.4,0.1,0.4,0.3c0.1,0.3,0.1,0.7,0.3,1.1c0.1-0.4,0.1-0.8,0.1-1.4c0-0.2-0.1-0.3-0.2-0.3h-0.7c-0.4,0-0.5-0.2-0.5-0.6
					c0-0.2,0-0.3,0.1-0.4c0.8-1.1,1.1-1.8,1.1-2c0-0.1-0.1-0.1-0.2-0.1h-0.4c-0.3,0-0.4-0.2-0.4-0.5c0-0.3,0.1-0.5,0.4-0.5h1
					c0.4,0,0.7,0.2,0.7,0.7c0,0.2-0.1,0.5-0.3,0.9c0,0,0,0.1,0,0.1c0-0.1,0.1-0.1,0.2-0.1h1.8v-0.4h-1.1c-0.3,0-0.5-0.2-0.5-0.5
					c0-0.3,0.2-0.5,0.5-0.5h1.1V36c0-0.3,0.2-0.5,0.5-0.5c0.3,0,0.5,0.2,0.5,0.5v0.3h1c0.5,0,0.7,0.2,0.7,0.7v0.7h0.1
					c0.3,0,0.5,0.2,0.5,0.5c0,0.3-0.2,0.5-0.5,0.5h-0.1v0.7c0,0.5-0.2,0.7-0.7,0.7h-1v0.4h1.3c0.3,0,0.4,0.2,0.4,0.5
					c0,0.3-0.1,0.5-0.4,0.5h-1.3V42h1.7c0.3,0,0.4,0.2,0.4,0.5c0,0.3-0.1,0.5-0.4,0.5h-1.7v0.6c0,0.2-0.1,0.4-0.2,0.4h2.1
					C115.6,44,115.8,44.2,115.8,44.6z M112.5,42v-0.5h-1c-0.3,0-0.5-0.2-0.5-0.5c0-0.3,0.2-0.5,0.5-0.5h1v-0.4h-1.1
					c-0.3,0-0.5-0.2-0.5-0.5c0-0.3,0.2-0.5,0.5-0.5h1.1v-0.4h-1.8c-0.2,0-0.4-0.1-0.4-0.4c0,0,0-0.1,0-0.1c-0.3,0.5-0.4,0.8-0.5,1
					c0,0,0,0.1,0,0.1c0,0,0,0.1,0.1,0.1h0.4c0.4,0,0.6,0.2,0.6,0.7v1c0,0.3,0,0.6,0,0.9c0,0.2,0,0.3,0,0.4c0-0.1,0.1-0.2,0.3-0.2
					H112.5z M112.8,44C112.8,44,112.8,44,112.8,44c-0.2,0-0.3-0.1-0.3-0.4V43h-1.5c-0.2,0-0.3-0.2-0.3-0.5c0,0.1-0.1,0.3-0.2,0.6
					c0,0.1,0.2,0.3,0.6,0.5c0.4,0.2,0.8,0.4,1.4,0.4C112.6,44,112.7,44,112.8,44z M114.3,37.7v-0.2c0-0.1-0.1-0.2-0.2-0.2h-0.6v0.4
					H114.3z M114.3,38.9v-0.2h-0.8v0.4h0.6C114.2,39.1,114.3,39,114.3,38.9z"/>
				<path class="st0" d="M125.8,39.5c0,0.3-0.1,0.5-0.3,0.5h-0.6v0.5c0,0.5-0.2,0.8-0.6,0.8h-2.1c0.2,0.5,0.6,1,1.1,1.4
					c-0.1-0.1-0.1-0.2-0.1-0.3c0-0.2,0.1-0.3,0.3-0.5c0.2-0.2,0.4-0.3,0.5-0.4c0.3-0.2,0.5-0.4,0.6-0.4c0.1-0.1,0.2-0.1,0.3-0.1
					c0.1,0,0.2,0.1,0.3,0.2c0.1,0.1,0.1,0.3,0.1,0.4c0,0.2-0.2,0.4-0.7,0.8c-0.5,0.4-0.8,0.6-1,0.6c0,0-0.1,0-0.1,0
					c0.5,0.4,1.1,0.7,1.9,1c0.2,0.1,0.3,0.2,0.3,0.4c0,0.5-0.2,0.7-0.5,0.7c-0.3,0-0.8-0.2-1.5-0.7c-0.6-0.4-1.2-0.9-1.6-1.5v1.4
					c0,0.6-0.4,0.9-1.1,0.9c-0.9,0-1.3-0.2-1.3-0.6c0-0.4,0.1-0.6,0.4-0.6c0,0,0,0,0.1,0c0.4,0.1,0.6,0.1,0.7,0.1
					c0.1,0,0.2-0.1,0.2-0.4V43c-0.1,0.1-0.4,0.3-0.8,0.6c-0.1,0-0.1,0.1-0.1,0.1c-0.9,0.7-1.5,1-1.7,1c-0.3,0-0.5-0.2-0.5-0.7
					c0-0.2,0.1-0.3,0.3-0.5c0.3-0.2,0.8-0.4,1.3-0.8c-0.2-0.1-0.5-0.3-0.9-0.6c-0.2-0.1-0.3-0.2-0.3-0.4c0-0.4,0.1-0.6,0.4-0.6
					c0.1,0,0.2,0,0.3,0.1c0,0,0.1,0.1,0.2,0.1c0.7,0.4,1.1,0.7,1.1,0.9c0,0.1,0,0.1,0,0.1c0.2-0.2,0.3-0.3,0.4-0.3
					c0.1-0.1,0.2-0.1,0.2-0.1c0.1,0,0.2,0,0.3,0.1v-0.9h-2.2c-0.2,0-0.4-0.2-0.4-0.5c0-0.3,0.1-0.5,0.4-0.5h2.2V40h-2.8v1.1
					c0,0.5,0,1-0.1,1.6c-0.1,0.6-0.2,1.1-0.4,1.6c-0.2,0.5-0.3,0.7-0.6,0.7c-0.4,0-0.6-0.2-0.6-0.5c0-0.1,0-0.1,0-0.2
					c0.4-1.1,0.6-2.5,0.6-4.2v-3.1c0-0.6,0.3-0.8,0.8-0.8h2.9v-0.3c0-0.3,0.2-0.4,0.5-0.4c0.3,0,0.5,0.1,0.5,0.4v0.3h3.2
					c0.3,0,0.4,0.2,0.4,0.5c0,0.3-0.1,0.5-0.4,0.5h-3.1v0.4h2.2c0.4,0,0.6,0.2,0.6,0.6V39h0.6C125.7,39,125.8,39.2,125.8,39.5z
					 M121.2,39v-0.3h-2.3c-0.2,0-0.3-0.2-0.3-0.5c0-0.3,0.1-0.5,0.3-0.5h2.3v-0.4h-2.4c-0.3,0-0.4,0.1-0.4,0.4V39H121.2z M124,39
					v-0.1c0-0.1-0.1-0.2-0.2-0.2h-1.7V39H124z M124,40.2V40h-1.8v0.3h1.7C123.9,40.3,124,40.3,124,40.2z"/>
				<path class="st0" d="M135.2,42.6c-0.1,0-0.1,0-0.2-0.1c-0.2-0.1-0.3-0.3-0.5-0.4v2.2c0,0.5-0.3,0.8-0.8,0.8h-5
					c-0.5,0-0.8-0.3-0.8-0.8V43c-0.1,0.1-0.4,0.1-0.7,0.2c0,0,0,0,0,0c0,0-0.1,0-0.1,0c-0.3,0-0.5-0.2-0.5-0.7c0-0.1,0-0.2,0.1-0.3
					c0.1-0.1,0.4-0.2,0.9-0.3c1.3-0.3,2.2-0.6,2.8-0.9h-3.2c-0.3,0-0.4-0.2-0.4-0.5c0,0,0,0,0,0c0-0.3,0.1-0.4,0.4-0.4h3.3v-0.4
					h-2.6c-0.3,0-0.4-0.2-0.4-0.5c0-0.3,0.1-0.5,0.4-0.5h2.6v-0.4c0,0-0.2,0-0.7,0c-0.5,0-1.2,0-2,0c-0.5,0-0.8-0.3-0.8-0.8v-0.9
					c0-0.5,0.2-0.8,0.7-0.8h6.8c0.5,0,0.7,0.3,0.7,0.8v0.9c0,0.5-0.2,0.8-0.7,0.8h-3.1v0.4h2.5c0.1,0,0.1-0.1,0.2-0.2
					c0.1-0.1,0.2-0.1,0.3-0.1c0.1,0,0.3,0.1,0.4,0.2c0.1,0.1,0.2,0.2,0.2,0.4c0,0.2-0.4,0.5-1.2,1.1h1.4c0.2,0,0.4,0.1,0.4,0.4
					c0,0.3-0.1,0.5-0.4,0.5h-0.8c0.8,0.3,1.2,0.7,1.2,0.9C135.7,42.4,135.6,42.6,135.2,42.6z M129.4,37.4v-0.7h-1.1
					c-0.2,0-0.3,0.1-0.3,0.3v0.1c0,0.2,0.1,0.3,0.3,0.3H129.4z M133.6,43v-0.2c0-0.2-0.1-0.2-0.2-0.2h-4.1c-0.2,0-0.2,0.1-0.2,0.3
					V43H133.6z M133.6,44v-0.2H129V44c0,0.2,0.1,0.2,0.2,0.2h4.1C133.5,44.3,133.6,44.2,133.6,44z M131.9,37.4v-0.7h-1.5v0.7H131.9z
					 M133.8,41.7c-0.1,0-0.2-0.1-0.3-0.2c-0.2-0.1-0.3-0.2-0.3-0.3c0-0.1,0-0.1,0-0.2h-0.6c-0.1,0-0.2,0.1-0.3,0.2
					c-0.1,0.1-0.2,0.1-0.3,0.1c0,0-0.3,0.1-0.7,0.3H133.8z M133,39.7h-1.4v0.4h0.7C132.6,39.9,132.9,39.7,133,39.7z M134.4,37.1V37
					c0-0.2-0.1-0.3-0.3-0.3h-1.3v0.7h1.3C134.3,37.4,134.4,37.3,134.4,37.1z"/>
			</g>
			<g>
				<path class="st0" d="M19.6,9.2c1.1,0,1.9-0.9,1.9-1.9c0-1.1-0.9-1.9-1.9-1.9c-1.1,0-1.9,0.9-1.9,1.9C17.7,8.4,18.5,9.2,19.6,9.2
					z"/>
				<path class="st0" d="M8.2,10.4c1.1,0,1.9-0.9,1.9-1.9c0-1.1-0.9-1.9-1.9-1.9c-1.1,0-1.9,0.9-1.9,1.9C6.3,9.6,7.1,10.4,8.2,10.4z
					"/>
				<path class="st0" d="M3.3,13.3c0.9,0,1.6-0.7,1.6-1.6C5,10.8,4.2,10,3.3,10c-0.9,0-1.6,0.7-1.6,1.6C1.7,12.6,2.4,13.3,3.3,13.3z
					"/>
				<path class="st0" d="M13.9,6.8c1.5,0,2.7-1.2,2.7-2.7c0-1.5-1.2-2.7-2.7-2.7c-1.5,0-2.7,1.2-2.7,2.7C11.2,5.6,12.4,6.8,13.9,6.8
					z"/>
				<path class="st0" d="M19.6,10.8c-1.2,0-2.2,1-2.2,2.1v8.8h-1V10.9c0-1.3-1.1-2.4-2.5-2.4c-1.4,0-2.5,1.1-2.5,2.4v10.7h-1v-7.6
					c0-1.2-1-2.1-2.2-2.1c-1.2,0-2.2,1-2.2,2.1v7.6H5.2V17c0-1-0.9-1.9-1.9-1.9c-1.1,0-1.9,0.8-1.9,1.9v6.4v8.3v12
					c0,1,0.8,1.7,1.7,1.7H20c1,0,1.7-0.8,1.7-1.7v-7.5c-0.1-0.7-0.6-1.2-1-1.4H7.2c-1.1,0-2.1-0.7-2.6-1.6c-0.2-0.4-0.3-0.8-0.3-1.3
					c0-0.9,0.4-1.6,1-2.2c0.3-0.2,0.6-0.4,0.9-0.6c0.3-0.1,0.7-0.2,1.1-0.2h3.2h1h4.9h1h3.2c0.6-0.2,0.9-0.6,1.1-0.9v-4.5V12.9
					C21.7,11.7,20.7,10.8,19.6,10.8z"/>
			</g>
		</g>
	</g>
	<g>
		<g>
			<g>
				<path class="st1" d="M28.1,45.3V23.8h6.8v7.8h1.7v5.7h-1.7v8H28.1z M37.6,45.3V23.8h6.7v21.5H37.6z"/>
				<path class="st1" d="M46.8,45.3v-13c0-1.1,0.1-2,0.2-2.7c0.2-0.7,0.4-1.4,0.8-2.1c0.7-1.3,1.7-2.3,3-3.1
					c1.3-0.7,2.8-1.1,4.5-1.1c2.4,0,4.4,0.8,6,2.3c1.6,1.5,2.4,3.4,2.4,5.6c0,2-0.7,3.6-2.1,4.9C60.1,37.4,58.2,38,56,38
					c-0.3,0-0.5,0-0.7,0c-0.2,0-0.3,0-0.5,0v-5.3c0.1,0,0.1,0,0.2,0c0.1,0,0.1,0,0.3,0c0.6,0,1.1-0.2,1.4-0.5
					c0.4-0.3,0.6-0.8,0.6-1.3c0-0.5-0.2-0.9-0.5-1.2c-0.4-0.3-0.8-0.5-1.3-0.5c-0.7,0-1.1,0.2-1.4,0.7c-0.3,0.5-0.4,1.3-0.4,2.4
					v13.1H46.8z"/>
				<path class="st1" d="M64.9,45.3V33.9c0-1.2,0-2.1,0.1-2.7c0.1-0.6,0.2-1.2,0.3-1.7c0.5-1.9,1.4-3.4,2.8-4.5
					c1.4-1.1,3-1.6,4.9-1.6c1.3,0,2.6,0.3,3.7,0.9c1.1,0.6,2.1,1.4,2.8,2.4c0.6,0.9,1,1.8,1.3,2.8c0.3,1,0.4,2.5,0.4,4.3v11.5h-6.6
					v-13c0-0.8-0.1-1.4-0.3-1.8C74,30.1,73.6,30,73.1,30c-0.5,0-0.8,0.2-1,0.5c-0.2,0.3-0.3,0.9-0.3,1.9v2.3h1.7v5.7h-1.7v5H64.9z"
					/>
			</g>
			<g>
				<path class="st2" d="M88.6,27.6v4.9c0,0.3-0.2,0.4-0.5,0.4c-0.3,0-0.5-0.1-0.5-0.4v-3.7c-0.2,0.2-0.3,0.3-0.5,0.3
					c-0.1,0-0.3-0.1-0.4-0.2c-0.1-0.1-0.2-0.2-0.2-0.4s0.1-0.3,0.2-0.4c0.8-0.8,1.2-1.4,1.4-1.8c0.1-0.1,0.2-0.2,0.3-0.2
					c0.4,0,0.5,0.2,0.5,0.5C89.1,26.7,89,27.1,88.6,27.6z M87.3,26.3c-0.1,0-0.3-0.1-0.4-0.2c-0.1-0.1-0.2-0.3-0.2-0.4
					s0.1-0.3,0.1-0.4c0.4-0.4,0.9-1.1,1.3-1.9c0.1-0.1,0.2-0.2,0.3-0.2c0.4,0,0.5,0.2,0.5,0.5c0,0.2-0.2,0.7-0.7,1.5
					C87.9,25.9,87.5,26.3,87.3,26.3z M93.3,31.4c0,0.3-0.1,0.5-0.4,0.5h-1.1v0.7c0,0.3-0.2,0.4-0.5,0.4c-0.3,0-0.4-0.1-0.4-0.4v-0.7
					h-0.9c-0.5,0-0.8-0.2-0.8-0.6c0-0.1,0-0.3,0.1-0.4c0.1-0.2,0.1-0.3,0.2-0.5h-0.2c-0.2,0-0.4-0.2-0.4-0.5c0-0.3,0.1-0.5,0.4-0.5
					h1.6V29h-1c-0.4,0-0.6-0.2-0.6-0.6v-1.2c0-0.4,0.2-0.6,0.5-0.6h2.7c0.4,0,0.6,0.2,0.6,0.6v1.2c0,0.4-0.2,0.6-0.5,0.6h-0.7v0.4
					h1.1c0.2,0,0.4,0.2,0.4,0.5c0,0.3-0.1,0.5-0.4,0.5h-1.1v0.7h1.1C93.2,30.9,93.3,31.1,93.3,31.4z M93.3,25.8
					c0,0.3-0.1,0.5-0.4,0.5h-3.5c-0.2,0-0.4-0.2-0.4-0.5c0-0.3,0.1-0.5,0.4-0.5h0.5l0.2-0.6h-0.5c-0.2,0-0.4-0.2-0.4-0.5
					c0-0.3,0.1-0.5,0.4-0.5h0.7c0,0,0-0.1,0.1-0.3c0.1-0.3,0.2-0.4,0.4-0.4c0.3,0,0.5,0.1,0.5,0.3c0,0.1,0,0.2-0.1,0.4H92
					c0.5,0,0.7,0.2,0.7,0.7v0.8h0.3C93.2,25.4,93.3,25.5,93.3,25.8z M92.2,27.8c0-0.2-0.1-0.3-0.2-0.3h-1.7c-0.1,0-0.2,0.1-0.2,0.3
					c0,0.2,0.1,0.3,0.2,0.3H92C92.1,28,92.2,28,92.2,27.8z M90.9,30.9v-0.7h-0.5c0,0,0,0.1-0.1,0.2c-0.1,0.2-0.1,0.3-0.1,0.3
					c0,0.1,0.1,0.2,0.3,0.2H90.9z M91.8,25.4V25c0-0.2-0.1-0.3-0.2-0.3h-0.5l-0.2,0.6H91.8z M95.8,26.7c0,0.4-0.1,0.5-0.4,0.5h-0.2
					v4.6c0,0.6-0.4,1-1.1,1c-0.6,0-1-0.2-1-0.5c0-0.4,0.1-0.6,0.4-0.6c0,0,0.1,0,0.1,0c0.2,0,0.3,0.1,0.4,0.1c0,0,0,0,0,0
					c0.1,0,0.2-0.2,0.2-0.5v-4.1h-0.6c-0.3,0-0.4-0.2-0.4-0.5c0-0.3,0.1-0.5,0.4-0.5h1.8C95.6,26.3,95.8,26.4,95.8,26.7z M95.6,24.2
					c0,0.4-0.1,0.5-0.4,0.5h-1.5c-0.3,0-0.4-0.2-0.4-0.5c0-0.3,0.1-0.5,0.4-0.5h1.5C95.5,23.7,95.6,23.9,95.6,24.2z"/>
				<path class="st2" d="M105.8,32c0,0.4-0.2,0.6-0.5,0.6h-8.2c-0.3,0-0.5-0.2-0.5-0.6c0-0.4,0.1-0.6,0.4-0.6h3.7v-2.1h-2.7
					c-0.3,0-0.5-0.2-0.5-0.6c0-0.4,0.1-0.6,0.4-0.6h2.8v-1.9h-2.2c-0.5,1.1-0.9,1.6-1.2,1.6c-0.4,0-0.6-0.2-0.6-0.6
					c0-0.1,0-0.2,0.1-0.4c0.6-1,1.1-2,1.4-3.1c0-0.2,0.2-0.3,0.4-0.3c0.4,0,0.7,0.2,0.7,0.5c0,0.1,0,0.1,0,0.2c0,0,0,0.1,0,0.2
					c-0.1,0.3-0.2,0.6-0.2,0.8h1.8v-1.5c0-0.3,0.2-0.4,0.5-0.4c0.4,0,0.6,0.2,0.6,0.5v1.5h3.1c0.3,0,0.4,0.2,0.4,0.6
					s-0.2,0.6-0.5,0.6h-3.1v1.9h2.7c0.3,0,0.4,0.2,0.4,0.6c0,0.4-0.2,0.6-0.5,0.6h-2.7v2.1h3.4C105.6,31.4,105.8,31.6,105.8,32z"/>
				<path class="st2" d="M108,28.8c0,2.1-0.3,3.1-0.8,3.1c-0.4,0-0.6-0.2-0.6-0.5c0-0.1,0-0.2,0-0.2c0.3-0.7,0.4-1.5,0.4-2.4v-1.3
					c0-0.3,0.2-0.4,0.5-0.4c0.3,0,0.4,0.1,0.4,0.4V28.8z M110.4,26.2c0,0.4-0.2,0.5-0.5,0.5h-0.8v5.8c0,0.3-0.2,0.4-0.5,0.4
					c-0.3,0-0.5-0.1-0.5-0.4v-5.8h-1c-0.3,0-0.5-0.2-0.5-0.5c0-0.4,0.2-0.6,0.5-0.6h2.7C110.3,25.7,110.4,25.8,110.4,26.2z
					 M110.3,24.2c0,0.4-0.2,0.6-0.5,0.6h-2.3c-0.3,0-0.5-0.2-0.5-0.6c0-0.4,0.2-0.5,0.5-0.5h2.3C110.1,23.7,110.3,23.9,110.3,24.2z
					 M110.3,30.8c0,0.3-0.1,0.4-0.4,0.4c-0.3,0-0.4-0.1-0.4-0.4v-3.2c0-0.3,0.1-0.4,0.4-0.4c0.3,0,0.4,0.1,0.4,0.4V30.8z
					 M115.8,24.1c0,0.3-0.1,0.5-0.4,0.5h-4.5c-0.3,0-0.4-0.2-0.4-0.5c0-0.4,0.1-0.5,0.4-0.5h4.5C115.6,23.5,115.8,23.7,115.8,24.1z
					 M115.6,32.2c0,0.4-0.2,0.6-0.5,0.6h-3.9c-0.4,0-0.6-0.2-0.6-0.7v-3.6c0-0.4,0.2-0.6,0.6-0.6h3.9c0.4,0,0.5,0.2,0.5,0.6V32.2z
					 M115.4,27c0,0.4-0.2,0.6-0.5,0.6h-3.6c-0.4,0-0.6-0.2-0.6-0.7v-1.4c0-0.4,0.2-0.6,0.5-0.6h3.6c0.4,0,0.6,0.2,0.6,0.6V27z
					 M112.6,29.8v-0.9h-0.8c-0.2,0-0.3,0.1-0.3,0.3v0.6H112.6z M112.6,31.7v-1h-1.1v0.7c0,0.2,0.1,0.3,0.3,0.3H112.6z M114.5,26.3
					c0-0.2-0.1-0.3-0.2-0.3h-2.5c-0.1,0-0.2,0.1-0.2,0.3c0,0.2,0.1,0.3,0.2,0.3h2.5C114.5,26.5,114.5,26.4,114.5,26.3z M114.7,29.8
					v-0.6c0-0.2-0.1-0.3-0.2-0.3h-0.9v0.9H114.7z M114.7,31.4v-0.6h-1.1v1h0.9C114.6,31.7,114.7,31.6,114.7,31.4z"/>
				<path class="st2" d="M122.4,26.3c0,0.4-0.1,0.5-0.4,0.5h-1.7c0.4,0.3,0.8,0.8,1.2,1.3c0.5,0.6,0.7,0.9,0.7,1.1
					c0,0.1-0.1,0.3-0.2,0.4c-0.1,0.1-0.2,0.2-0.4,0.2c-0.2,0-0.4-0.2-0.7-0.7c-0.1-0.2-0.2-0.3-0.2-0.3c0,0,0,0-0.1-0.1
					c-0.3-0.4-0.4-0.6-0.5-0.7v4.5c0,0.3-0.2,0.4-0.5,0.4c-0.3,0-0.5-0.1-0.5-0.4v-4c-0.2,0.4-0.5,0.8-1,1.2
					c-0.4,0.4-0.7,0.7-0.9,0.7c-0.1,0-0.3-0.1-0.4-0.2c-0.1-0.1-0.2-0.3-0.2-0.4c0-0.1,0-0.2,0.1-0.3c1.1-1.1,1.9-2,2.2-2.7h-1.9
					c-0.3,0-0.4-0.2-0.4-0.5c0-0.4,0.1-0.5,0.4-0.5h2v-1.3c-0.7,0-1.2,0-1.6,0c-0.3,0-0.4-0.2-0.4-0.6c0-0.3,0.2-0.5,0.5-0.5
					c1.2,0,2.4-0.1,3.9-0.3c0,0,0.1,0,0.1,0c0.3,0,0.5,0.2,0.5,0.6c0,0.3-0.2,0.4-0.6,0.5c-0.4,0.1-0.8,0.1-1.3,0.2v1.3h1.9
					C122.2,25.8,122.4,25.9,122.4,26.3z M125.4,30.4c0,1.1-0.1,1.8-0.3,2c-0.2,0.3-0.6,0.4-1,0.4c-1.1,0-1.6-0.2-1.6-0.6
					c0-0.5,0.2-0.7,0.5-0.7c0,0,0.1,0,0.2,0c0.4,0.1,0.7,0.2,0.8,0.2c0.4,0,0.5-0.4,0.5-1.3v-6.8c0-0.2,0.2-0.4,0.5-0.4
					c0.3,0,0.5,0.1,0.5,0.4V30.4z M123.5,30.4c0,0.3-0.2,0.4-0.5,0.4c-0.3,0-0.5-0.1-0.5-0.4v-6.5c0-0.2,0.2-0.4,0.5-0.4
					c0.3,0,0.5,0.1,0.5,0.4V30.4z"/>
				<path class="st2" d="M132.1,27.5c0,0.3-0.2,0.5-0.5,0.5H127c-0.2,0-0.4-0.2-0.4-0.5c0-0.4,0.1-0.6,0.4-0.6h0.9
					c-0.1-0.4-0.2-0.9-0.5-1.7h-0.3c-0.3,0-0.4-0.2-0.4-0.5c0-0.4,0.1-0.5,0.5-0.5h1.5v-0.5c0-0.3,0.2-0.5,0.5-0.5
					c0.4,0,0.6,0.2,0.6,0.5v0.5h1.6c0.3,0,0.5,0.2,0.5,0.5c0,0.3-0.2,0.5-0.5,0.5h-0.3c0,0.1-0.1,0.4-0.1,0.7c0,0,0,0.1,0,0.1
					c-0.1,0.4-0.1,0.7-0.2,0.9h0.8C131.9,26.9,132.1,27.1,132.1,27.5z M131.7,32.1c0,0.4-0.2,0.6-0.5,0.6h-3.5
					c-0.4,0-0.6-0.2-0.6-0.7v-2.8c0-0.4,0.2-0.6,0.5-0.6h3.5c0.4,0,0.5,0.2,0.5,0.6V32.1z M130.7,31.3v-1.3c0-0.2-0.1-0.2-0.2-0.2
					h-2.1c-0.2,0-0.3,0.1-0.3,0.3v1.3c0,0.2,0.1,0.3,0.3,0.3h2.2C130.6,31.6,130.7,31.5,130.7,31.3z M130.2,25.2h-1.7
					c0,0.1,0.1,0.2,0.1,0.4c0.1,0.4,0.2,0.8,0.3,1.3h0.9c0.2-0.7,0.3-1.2,0.3-1.5C130.2,25.3,130.2,25.3,130.2,25.2z M135.8,30.2
					c0,1.3-0.5,2-1.6,2c0,0-0.1,0-0.1,0c-0.3,0-0.6-0.1-0.7-0.3v0.6c0,0.3-0.2,0.4-0.5,0.4c-0.3,0-0.5-0.1-0.5-0.4v-8.4
					c0-0.5,0.2-0.7,0.7-0.7h1.7c0.5,0,0.8,0.2,0.8,0.7c0,0.2-0.3,1.1-0.8,2.7c-0.1,0.3-0.2,0.5-0.2,0.5c0,0.1,0,0.1,0.1,0.2
					c0.2,0.2,0.5,0.6,0.7,1.1C135.6,29.3,135.7,29.8,135.8,30.2z M134.8,30.3c0-0.6-0.4-1.4-1.1-2.3c-0.1-0.1-0.2-0.3-0.2-0.4
					c0-0.1,0-0.2,0.1-0.4c0.3-0.6,0.5-1.4,0.8-2.4c0-0.1,0-0.1,0-0.2c0-0.1-0.1-0.1-0.2-0.1h-0.6c-0.2,0-0.3,0.1-0.3,0.4v6.4
					c0.1-0.1,0.1-0.1,0.2-0.1c0,0,0.1,0,0.2,0c0.2,0,0.4,0.1,0.5,0.1C134.6,31.2,134.8,30.9,134.8,30.3z"/>
				<path class="st2" d="M95.4,44.3c0,0.6-0.3,0.8-0.8,0.8h-6.7c-0.5,0-0.8-0.3-0.8-0.8v-7.6c0-0.6,0.3-0.8,0.8-0.8h6.7
					c0.5,0,0.8,0.3,0.8,0.8V44.3z M92.1,41.6c-0.3-0.8-0.4-1.8-0.5-3h-3c-0.3,0-0.4-0.2-0.4-0.5c0-0.3,0.1-0.5,0.4-0.5h2.9
					c0-0.3,0-0.5,0-0.6c0-0.1,0.1-0.2,0.2-0.3h-3.3c-0.2,0-0.3,0.1-0.3,0.3v6.7c0,0.2,0.1,0.3,0.3,0.3h2.6c-0.2-0.1-0.3-0.3-0.3-0.5
					c0-0.1,0.1-0.2,0.2-0.3c0.2-0.2,0.3-0.3,0.4-0.3c-1,0.4-1.9,0.5-2.5,0.5c-0.3,0-0.4-0.2-0.4-0.6c0-0.3,0.1-0.4,0.4-0.5
					c0.9-0.1,1.8-0.3,2.7-0.6c0,0,0.1,0,0.1,0c0.2,0,0.3,0.1,0.3,0.3C91.8,42,92,41.8,92.1,41.6z M91.3,41.1c0,0.5-0.2,0.7-0.7,0.7
					h-1.5c-0.5,0-0.7-0.2-0.7-0.7v-1.4c0-0.5,0.2-0.7,0.7-0.7h1.5c0.5,0,0.7,0.2,0.7,0.7V41.1z M90.5,40.8v-0.6
					c0-0.1-0.1-0.2-0.2-0.2h-0.9c-0.1,0-0.2,0.1-0.2,0.2v0.6c0,0.1,0.1,0.2,0.2,0.2h0.9C90.4,41,90.5,40.9,90.5,40.8z M94.4,43.8v-1
					C94.3,43.6,94,44,93.6,44c-0.5,0-0.8-0.4-1.1-1.2c-0.4,0.6-0.8,1-1.2,1.3h2.9C94.4,44.1,94.4,44,94.4,43.8z M93.1,37.7
					c-0.2-0.2-0.3-0.4-0.4-0.5c0,0,0-0.1,0-0.2c0-0.1,0-0.2,0.1-0.2h-0.6c0.1,0.1,0.2,0.1,0.2,0.3c0,0.2,0,0.4,0,0.6H93.1z
					 M94.4,41.5v-4.3c0-0.2-0.1-0.3-0.3-0.3h-0.7c0.3,0.3,0.4,0.5,0.4,0.6c0,0.1,0,0.2-0.1,0.3h0.1c0.3,0,0.4,0.2,0.4,0.5
					c0,0.3-0.1,0.5-0.4,0.5h-1.5c0.1,0.7,0.2,1.3,0.2,1.8c0.2-0.4,0.3-0.8,0.5-1.2c0.1-0.2,0.2-0.3,0.4-0.3c0.4,0,0.5,0.2,0.5,0.5
					c0,0.2-0.1,0.6-0.4,1.3c0,0,0,0,0,0.1c-0.1,0.3-0.3,0.7-0.5,1c0.1,0.6,0.3,0.8,0.4,0.8c0.1,0,0.1-0.3,0.2-0.9
					c0-0.2,0.1-0.3,0.4-0.3C94.2,41.4,94.3,41.4,94.4,41.5z"/>
				<path class="st2" d="M104.6,45.3c-0.6,0-1.2-0.4-1.9-1.2c-0.7-0.8-1.1-1.6-1.4-2.5h-2.7v2c0.3,0,0.9-0.2,1.8-0.4
					c0.6-0.2,0.9-0.2,0.9-0.2c0.3,0,0.5,0.2,0.5,0.7c0,0.3-0.2,0.5-0.7,0.6c-0.5,0.1-0.9,0.2-1.3,0.4c-1.3,0.3-2.2,0.5-2.7,0.5
					c-0.3,0-0.5-0.2-0.5-0.7c0-0.3,0.1-0.5,0.4-0.5c0.1,0,0.2,0,0.4-0.1c0.1,0,0.2,0,0.2,0v-6.9c0-0.6,0.2-0.8,0.6-0.8c0,0,0,0,0,0
					h6.4h0c0.4,0,0.5,0.3,0.5,0.8v1.7c0,0.6-0.2,0.8-0.5,0.8h0H102c0,0.3,0.1,0.5,0.2,0.9c0,0.1,0,0.2,0,0.2h3
					c0.3,0,0.5,0.2,0.5,0.6c0,0.4-0.2,0.5-0.5,0.5h-2.7c0.2,0.6,0.6,1.2,1,1.6c0.4,0.5,0.7,0.7,0.9,0.7c0.1,0,0.2-0.3,0.3-0.8
					c0.1-0.5,0.2-0.8,0.5-0.8c0.4,0,0.6,0.2,0.6,0.5c0,0.3-0.1,0.8-0.2,1.5C105.4,44.9,105.1,45.2,104.6,45.3z M104.2,37.9v-0.6
					c0-0.2-0.1-0.3-0.3-0.3H99c-0.2,0-0.3,0.1-0.3,0.3v0.8h5.3C104.1,38.2,104.2,38.1,104.2,37.9z M101.1,40.4c0,0,0-0.1-0.1-0.2
					c-0.1-0.3-0.1-0.6-0.2-0.8h-2.2v1.1H101.1z"/>
				<path class="st2" d="M108.5,37.9v7c0,0.3-0.2,0.4-0.5,0.4c-0.3,0-0.5-0.1-0.5-0.4v-4.5c-0.1,0.1-0.2,0.2-0.3,0.2
					c-0.4,0-0.5-0.2-0.5-0.5c0-0.1,0-0.2,0.1-0.3c0.6-1.2,1-2.5,1.1-3.9c0-0.2,0.2-0.3,0.4-0.3c0.4,0,0.5,0.1,0.5,0.4
					C108.8,36.1,108.7,36.7,108.5,37.9z M115.8,44.6c0,0.3-0.2,0.5-0.5,0.5h-2.7c-1.2,0-2-0.3-2.5-1c-0.4,0.8-0.7,1.2-1,1.2
					c-0.4,0-0.6-0.2-0.6-0.5c0-0.1,0-0.2,0.1-0.3c0.3-0.4,0.5-0.7,0.7-1.1c-0.5-0.9-0.7-1.7-0.7-2.4c0-0.3,0.2-0.4,0.5-0.4
					c0.2,0,0.4,0.1,0.4,0.3c0.1,0.3,0.1,0.7,0.3,1.1c0.1-0.4,0.1-0.8,0.1-1.4c0-0.2-0.1-0.3-0.2-0.3h-0.7c-0.4,0-0.5-0.2-0.5-0.6
					c0-0.2,0-0.3,0.1-0.4c0.8-1.1,1.1-1.8,1.1-2c0-0.1-0.1-0.1-0.2-0.1h-0.4c-0.3,0-0.4-0.2-0.4-0.5c0-0.3,0.1-0.5,0.4-0.5h1
					c0.4,0,0.7,0.2,0.7,0.7c0,0.2-0.1,0.5-0.3,0.9c0,0,0,0.1,0,0.1c0-0.1,0.1-0.1,0.2-0.1h1.8v-0.4h-1.1c-0.3,0-0.5-0.2-0.5-0.5
					c0-0.3,0.2-0.5,0.5-0.5h1.1V36c0-0.3,0.2-0.5,0.5-0.5c0.3,0,0.5,0.2,0.5,0.5v0.3h1c0.5,0,0.7,0.2,0.7,0.7v0.7h0.1
					c0.3,0,0.5,0.2,0.5,0.5c0,0.3-0.2,0.5-0.5,0.5h-0.1v0.7c0,0.5-0.2,0.7-0.7,0.7h-1v0.4h1.3c0.3,0,0.4,0.2,0.4,0.5
					c0,0.3-0.1,0.5-0.4,0.5h-1.3V42h1.7c0.3,0,0.4,0.2,0.4,0.5c0,0.3-0.1,0.5-0.4,0.5h-1.7v0.6c0,0.2-0.1,0.4-0.2,0.4h2.1
					C115.6,44,115.8,44.2,115.8,44.6z M112.5,42v-0.5h-1c-0.3,0-0.5-0.2-0.5-0.5c0-0.3,0.2-0.5,0.5-0.5h1v-0.4h-1.1
					c-0.3,0-0.5-0.2-0.5-0.5c0-0.3,0.2-0.5,0.5-0.5h1.1v-0.4h-1.8c-0.2,0-0.4-0.1-0.4-0.4c0,0,0-0.1,0-0.1c-0.3,0.5-0.4,0.8-0.5,1
					c0,0,0,0.1,0,0.1c0,0,0,0.1,0.1,0.1h0.4c0.4,0,0.6,0.2,0.6,0.7v1c0,0.3,0,0.6,0,0.9c0,0.2,0,0.3,0,0.4c0-0.1,0.1-0.2,0.3-0.2
					H112.5z M112.8,44C112.8,44,112.8,44,112.8,44c-0.2,0-0.3-0.1-0.3-0.4V43h-1.5c-0.2,0-0.3-0.2-0.3-0.5c0,0.1-0.1,0.3-0.2,0.6
					c0,0.1,0.2,0.3,0.6,0.5c0.4,0.2,0.8,0.4,1.4,0.4C112.6,44,112.7,44,112.8,44z M114.3,37.7v-0.2c0-0.1-0.1-0.2-0.2-0.2h-0.6v0.4
					H114.3z M114.3,38.9v-0.2h-0.8v0.4h0.6C114.2,39.1,114.3,39,114.3,38.9z"/>
				<path class="st2" d="M125.8,39.5c0,0.3-0.1,0.5-0.3,0.5h-0.6v0.5c0,0.5-0.2,0.8-0.6,0.8h-2.1c0.2,0.5,0.6,1,1.1,1.4
					c-0.1-0.1-0.1-0.2-0.1-0.3c0-0.2,0.1-0.3,0.3-0.5c0.2-0.2,0.4-0.3,0.5-0.4c0.3-0.2,0.5-0.4,0.6-0.4c0.1-0.1,0.2-0.1,0.3-0.1
					c0.1,0,0.2,0.1,0.3,0.2c0.1,0.1,0.1,0.3,0.1,0.4c0,0.2-0.2,0.4-0.7,0.8c-0.5,0.4-0.8,0.6-1,0.6c0,0-0.1,0-0.1,0
					c0.5,0.4,1.1,0.7,1.9,1c0.2,0.1,0.3,0.2,0.3,0.4c0,0.5-0.2,0.7-0.5,0.7c-0.3,0-0.8-0.2-1.5-0.7c-0.6-0.4-1.2-0.9-1.6-1.5v1.4
					c0,0.6-0.4,0.9-1.1,0.9c-0.9,0-1.3-0.2-1.3-0.6c0-0.4,0.1-0.6,0.4-0.6c0,0,0,0,0.1,0c0.4,0.1,0.6,0.1,0.7,0.1
					c0.1,0,0.2-0.1,0.2-0.4V43c-0.1,0.1-0.4,0.3-0.8,0.6c-0.1,0-0.1,0.1-0.1,0.1c-0.9,0.7-1.5,1-1.7,1c-0.3,0-0.5-0.2-0.5-0.7
					c0-0.2,0.1-0.3,0.3-0.5c0.3-0.2,0.8-0.4,1.3-0.8c-0.2-0.1-0.5-0.3-0.9-0.6c-0.2-0.1-0.3-0.2-0.3-0.4c0-0.4,0.1-0.6,0.4-0.6
					c0.1,0,0.2,0,0.3,0.1c0,0,0.1,0.1,0.2,0.1c0.7,0.4,1.1,0.7,1.1,0.9c0,0.1,0,0.1,0,0.1c0.2-0.2,0.3-0.3,0.4-0.3
					c0.1-0.1,0.2-0.1,0.2-0.1c0.1,0,0.2,0,0.3,0.1v-0.9h-2.2c-0.2,0-0.4-0.2-0.4-0.5c0-0.3,0.1-0.5,0.4-0.5h2.2V40h-2.8v1.1
					c0,0.5,0,1-0.1,1.6c-0.1,0.6-0.2,1.1-0.4,1.6c-0.2,0.5-0.3,0.7-0.6,0.7c-0.4,0-0.6-0.2-0.6-0.5c0-0.1,0-0.1,0-0.2
					c0.4-1.1,0.6-2.5,0.6-4.2v-3.1c0-0.6,0.3-0.8,0.8-0.8h2.9v-0.3c0-0.3,0.2-0.4,0.5-0.4c0.3,0,0.5,0.1,0.5,0.4v0.3h3.2
					c0.3,0,0.4,0.2,0.4,0.5c0,0.3-0.1,0.5-0.4,0.5h-3.1v0.4h2.2c0.4,0,0.6,0.2,0.6,0.6V39h0.6C125.7,39,125.8,39.2,125.8,39.5z
					 M121.2,39v-0.3h-2.3c-0.2,0-0.3-0.2-0.3-0.5c0-0.3,0.1-0.5,0.3-0.5h2.3v-0.4h-2.4c-0.3,0-0.4,0.1-0.4,0.4V39H121.2z M124,39
					v-0.1c0-0.1-0.1-0.2-0.2-0.2h-1.7V39H124z M124,40.2V40h-1.8v0.3h1.7C123.9,40.3,124,40.3,124,40.2z"/>
				<path class="st2" d="M135.2,42.6c-0.1,0-0.1,0-0.2-0.1c-0.2-0.1-0.3-0.3-0.5-0.4v2.2c0,0.5-0.3,0.8-0.8,0.8h-5
					c-0.5,0-0.8-0.3-0.8-0.8V43c-0.1,0.1-0.4,0.1-0.7,0.2c0,0,0,0,0,0c0,0-0.1,0-0.1,0c-0.3,0-0.5-0.2-0.5-0.7c0-0.1,0-0.2,0.1-0.3
					c0.1-0.1,0.4-0.2,0.9-0.3c1.3-0.3,2.2-0.6,2.8-0.9h-3.2c-0.3,0-0.4-0.2-0.4-0.5c0,0,0,0,0,0c0-0.3,0.1-0.4,0.4-0.4h3.3v-0.4
					h-2.6c-0.3,0-0.4-0.2-0.4-0.5c0-0.3,0.1-0.5,0.4-0.5h2.6v-0.4c0,0-0.2,0-0.7,0c-0.5,0-1.2,0-2,0c-0.5,0-0.8-0.3-0.8-0.8v-0.9
					c0-0.5,0.2-0.8,0.7-0.8h6.8c0.5,0,0.7,0.3,0.7,0.8v0.9c0,0.5-0.2,0.8-0.7,0.8h-3.1v0.4h2.5c0.1,0,0.1-0.1,0.2-0.2
					c0.1-0.1,0.2-0.1,0.3-0.1c0.1,0,0.3,0.1,0.4,0.2c0.1,0.1,0.2,0.2,0.2,0.4c0,0.2-0.4,0.5-1.2,1.1h1.4c0.2,0,0.4,0.1,0.4,0.4
					c0,0.3-0.1,0.5-0.4,0.5h-0.8c0.8,0.3,1.2,0.7,1.2,0.9C135.7,42.4,135.6,42.6,135.2,42.6z M129.4,37.4v-0.7h-1.1
					c-0.2,0-0.3,0.1-0.3,0.3v0.1c0,0.2,0.1,0.3,0.3,0.3H129.4z M133.6,43v-0.2c0-0.2-0.1-0.2-0.2-0.2h-4.1c-0.2,0-0.2,0.1-0.2,0.3
					V43H133.6z M133.6,44v-0.2H129V44c0,0.2,0.1,0.2,0.2,0.2h4.1C133.5,44.3,133.6,44.2,133.6,44z M131.9,37.4v-0.7h-1.5v0.7H131.9z
					 M133.8,41.7c-0.1,0-0.2-0.1-0.3-0.2c-0.2-0.1-0.3-0.2-0.3-0.3c0-0.1,0-0.1,0-0.2h-0.6c-0.1,0-0.2,0.1-0.3,0.2
					c-0.1,0.1-0.2,0.1-0.3,0.1c0,0-0.3,0.1-0.7,0.3H133.8z M133,39.7h-1.4v0.4h0.7C132.6,39.9,132.9,39.7,133,39.7z M134.4,37.1V37
					c0-0.2-0.1-0.3-0.3-0.3h-1.3v0.7h1.3C134.3,37.4,134.4,37.3,134.4,37.1z"/>
			</g>
			<g>
				<path class="st1" d="M19.6,9.2c1.1,0,1.9-0.9,1.9-1.9c0-1.1-0.9-1.9-1.9-1.9c-1.1,0-1.9,0.9-1.9,1.9C17.7,8.4,18.5,9.2,19.6,9.2
					z"/>
				<path class="st1" d="M8.2,10.4c1.1,0,1.9-0.9,1.9-1.9c0-1.1-0.9-1.9-1.9-1.9c-1.1,0-1.9,0.9-1.9,1.9C6.3,9.6,7.1,10.4,8.2,10.4z
					"/>
				<path class="st1" d="M3.3,13.3c0.9,0,1.6-0.7,1.6-1.6C5,10.8,4.2,10,3.3,10c-0.9,0-1.6,0.7-1.6,1.6C1.7,12.6,2.4,13.3,3.3,13.3z
					"/>
				<path class="st1" d="M13.9,6.8c1.5,0,2.7-1.2,2.7-2.7c0-1.5-1.2-2.7-2.7-2.7c-1.5,0-2.7,1.2-2.7,2.7C11.2,5.6,12.4,6.8,13.9,6.8
					z"/>
				<path class="st1" d="M19.6,10.8c-1.2,0-2.2,1-2.2,2.1v8.8h-1V10.9c0-1.3-1.1-2.4-2.5-2.4c-1.4,0-2.5,1.1-2.5,2.4v10.7h-1v-7.6
					c0-1.2-1-2.1-2.2-2.1c-1.2,0-2.2,1-2.2,2.1v7.6H5.2V17c0-1-0.9-1.9-1.9-1.9c-1.1,0-1.9,0.8-1.9,1.9v6.4v8.3v12
					c0,1,0.8,1.7,1.7,1.7H20c1,0,1.7-0.8,1.7-1.7v-7.5c-0.1-0.7-0.6-1.2-1-1.4H7.2c-1.1,0-2.1-0.7-2.6-1.6c-0.2-0.4-0.3-0.8-0.3-1.3
					c0-0.9,0.4-1.6,1-2.2c0.3-0.2,0.6-0.4,0.9-0.6c0.3-0.1,0.7-0.2,1.1-0.2h3.2h1h4.9h1h3.2c0.6-0.2,0.9-0.6,1.1-0.9v-4.5V12.9
					C21.7,11.7,20.7,10.8,19.6,10.8z"/>
			</g>
		</g>
	</g>
</g>
</svg>
