<?xml version="1.0" encoding="utf-8"?>
<!-- Generator: Adobe Illustrator 25.0.0, SVG Export Plug-In . SVG Version: 6.00 Build 0)  -->
<svg version="1.1" id="分離模式" xmlns="http://www.w3.org/2000/svg" xmlns:xlink="http://www.w3.org/1999/xlink" x="0px"
	 y="0px" viewBox="0 0 3000.6 2614.4" style="enable-background:new 0 0 3000.6 2614.4;" xml:space="preserve">
<style type="text/css">
	.st0{fill:#fff;}
</style>
<path class="st0" d="M2962.5,922.7c-125.5-468-580.3-772.2-1037.3-861.4C1422.9-51.6,840.5-32.2,434.5,320.7
	C104.4,588.4-3.9,945.6,0.1,1354.9c13,625,365,1138.7,1009.6,1233.9c424.6,61,874.1,15.9,1264.4-168.1
	C2852.5,2154.4,3102.8,1528.8,2962.5,922.7z M1795.9,869.7c-35.2-16-72.9-24.1-113.1-24.1s-71.6,13-94.2,39s-33.9,67.4-33.8,124.3
	v89.1h201.6v215.5h-201.6v824.3h-275.1v-824.3h-143.2v-202.4l143.2-11.8v-84.8c0-71.7,12.2-136.7,36.7-194.9
	c24.5-58.1,63.4-104.3,116.8-138.3c53.4-34.1,124-51.1,212-51.1c42.7,0,81,3.8,114.9,11.2s62.8,15.5,86.7,24.1L1795.9,869.7z"/>
</svg>
