<?xml version="1.0" encoding="utf-8"?>
<!-- Generator: Adobe Illustrator 25.0.0, SVG Export Plug-In . SVG Version: 6.00 Build 0)  -->
<svg version="1.1" id="圖層_2_1_" xmlns="http://www.w3.org/2000/svg" xmlns:xlink="http://www.w3.org/1999/xlink" x="0px"
	 y="0px" viewBox="0 0 185.9 57.5" style="enable-background:new 0 0 185.9 57.5;" xml:space="preserve">
<style type="text/css">
	.st0{fill:#fff;}
</style>
<g>
	<g>
		<path class="st0" d="M45,3.9c0.5,0,0.9,0.3,1.5,0.3c0.2,0,0.8-0.1,1-0.3c0.2-0.1-0.4-0.4-0.2-0.1c0.4,0.4,1,0.6,1.5,0.6
			c0.6-0.1,0.8-0.5,1.3-0.7c-0.5,0-1,0-1.5,0c0.4,0.2,0.6,0.6,1.1,0.7c0.6,0.1,1.4,0,2-0.1c0.5-0.1,1-0.1,1.4-0.2
			c0.7-0.1,0.8-0.5,1.3-0.8c-0.5,0-1,0-1.5,0c0.3,0.1,0.5,0.5,0.9,0.6c0.5,0.2,1.2,0.3,1.7,0.2c0.4-0.1,0.8-0.3,1-0.3
			c0.1,0,1.7,0.3,0.7-0.1c0.4,0.2,0.6,0.5,1,0.6c0.5,0.1,1.2,0,1.7-0.1s0.8-0.2,1.3-0.4c0.4-0.2,0.7-0.5,1.1-0.7c-0.5,0-1,0-1.5,0
			C60.5,3,61,3.4,61.1,3.5c0.2,0.2,0.5,0.4,0.8,0.5c0.7,0.2,1.3,0.2,1.9,0c0.7-0.2,0.6,0,1.3,0s0.9-0.5,1.5-0.7
			c-0.4,0.1-0.8,0.1-1.2,0.2C66,3.7,66.6,4,67.2,4c0.3,0,0.7-0.1,0.9-0.3c0.2-0.1,0.9-0.5,0.2-0.2c-0.4-0.1-0.8-0.1-1.2-0.2
			c0.5,0.2,0.9,0.6,1.5,0.6c0.1,0,1.1-0.2,0.6-0.2s0.3,0.2,0.4,0.2c0.6,0.1,1.2,0,1.8,0s1.1,0.1,1.7-0.2c-0.2,0.1-0.5,0,0,0
			c0.4,0,0.7,0.1,1-0.1c0.4-0.1,0.4-0.1,0-0.2c0.4,0.1,0.4,0.1,0.7,0.2c0.6,0.2,1.1,0.3,1.7,0.2c0.6-0.1,0.8-0.5,1.3-0.7
			c-0.4,0.1-0.8,0.1-1.2,0.2c0.2,0.1,0.5,0.1,0.7,0.2c-0.4-0.2-0.4-0.2-0.1,0C77.4,3.7,77.7,3.9,78,4c0.7,0.2,1.8-0.2,2.6-0.2
			c0.3,0,1.1,0,0.4-0.1c0.5,0.1,0.8,0.3,1.4,0.2c0.4,0,0.7-0.1,1.1-0.3c0.3-0.1,0.5-0.4,0.7-0.5c-0.5,0-1,0-1.5,0
			c0.7,0.3,1.4,0.8,2.2,0.8c0.3,0,0.6-0.1,0.9-0.3c0.1,0,0.9-0.8,0.6-0.6c-0.5,0-1,0-1.5,0c0.3,0.1,0.6,0.5,0.9,0.6
			c0.3,0.2-0.2-0.1,0.3,0.2c0.2,0.1,0.4,0.2,0.6,0.3c0.6,0.1,1.2-0.1,1.6-0.5c0.1-0.1,0.3-0.3,0.4-0.5c0.4-0.7-0.8,0.4-0.7,0.2
			c-0.2-0.1-0.2-0.1-0.1,0c0.1,0.1,0.2,0.2,0.2,0.2c0.2,0.1,0.4,0.3,0.7,0.4c0.5,0.1,1-0.1,1.3-0.1c0.6,0,1.1,0.3,1.7,0.1
			c0.4-0.1,0.7-0.5,1.1-0.6c-0.4,0.1-0.8,0.1-1.2,0.2c0.6,0.1,1.3,0.4,1.8,0.4c0.6,0,1-0.4,1.5-0.6c-0.4,0.1-0.8,0.1-1.2,0.2
			c0.5,0.2,0.8,0.4,1.3,0.3s0.8-0.4,1.3-0.6c-0.4,0.1-0.8,0.1-1.2,0.2c0.4,0.1,0.7,0.3,1.1,0.3c0.1,0,0.3,0,0.4-0.1
			c0.5-0.1,0.5-0.1,0-0.1c0.8,0.3,1.4,0.2,2.3,0.2c0.4,0,0.9,0.1,1.3,0c0.2,0,0.5-0.3,0.7-0.3s0.4,0.2,0.7,0.2
			c0.5,0.1,1-0.1,1.5-0.2c-0.4-0.1-0.8-0.1-1.2-0.2c0.6,0.3,1,0.7,1.7,0.6c0.6-0.1,0.8-0.5,1.3-0.7c-0.4,0.1-0.8,0.1-1.2,0.2
			c0.9,0.2,1.8,0.6,2.8,0.5c0.5,0,1.1-0.1,1.6-0.2c0.6-0.1,0.6-0.1,1.2,0.1c0.5,0.1,1,0,1.5,0c0.3,0,1.2-0.3,1.2-0.3
			c0.5,0,1,0.3,1.5,0.3c0.6,0,1.3-0.2,1.8-0.4c-0.4-0.1-0.8-0.1-1.2-0.2c0.1,0,0.4,0.5,0.6,0.6c0.3,0.2,0.7,0.3,1.1,0.3
			c0.5,0,0.9,0,1.3-0.2c0.3-0.1,0.5-0.4,0.7-0.5c-0.4,0.1-0.8,0.1-1.2,0.2c0.5,0.2,1.1,0.3,1.7,0.3c0.2,0,0.5,0,0.7-0.1
			c0.1,0,0.7-0.2,0.3-0.2c-0.5,0,0.5,0.1,0.6,0.2c0.2,0,0.5,0,0.7,0.1c0.6,0.1,1,0.2,1.5,0c0.2-0.1,0.4-0.2,0.6-0.4
			c0.1-0.1,0.1-0.1-0.1,0c-0.2,0.1-0.2,0.1,0,0c0.1,0.1,0.9,0.1,1.2,0.1c0.5,0,1,0.2,1.5,0c0.5-0.1,0.7-0.5,1.1-0.6
			c-0.5,0-1,0-1.5,0c-0.3-0.1,0.1,0.2,0.2,0.3c0.2,0.2,0.3,0.3,0.5,0.4c0.6,0.3,1.2,0.4,1.8,0.4c0.6,0,1.1-0.1,1.6-0.5
			c0.1-0.1,0.2-0.2,0.3-0.3c0.3-0.3,0.1-0.2-0.4,0.1c-0.3,0-0.9-0.9-0.4-0.1c0.3,0.5,0.8,0.8,1.3,0.9c0.3,0,0.6,0,1-0.1
			c0.1,0,1-0.1,0.6-0.1c-0.4-0.1,0.4,0.2,0.4,0.2c0.3,0.1,0.6,0.1,1-0.1c0.2-0.1,0.4-0.2,0.6-0.4c0.1-0.1,0.6-0.6,0.3-0.4
			c-0.4,0.1-0.8,0.1-1.2,0.2c0.9,0.4,1.2,0.5,2.2,0.2c-0.4-0.1-0.8-0.1-1.2-0.2c0.7,0.3,1.3,0.7,2.2,0.7c0.4,0,0.8-0.2,1.1-0.4
			c0.1-0.1,0.2-0.2,0.3-0.3c-0.4,0.1-0.5,0.2,0,0.2c0.7,0.3,1.4,0.4,2.1,0.3c0.2,0,0.6-0.1,0.8-0.1c0.5,0.1,0.5,0,0-0.2
			c0.1,0.1,0.2,0.2,0.3,0.3c0.6,0.4,1.3,0.5,2,0.1c1.3-0.7-1.1-0.4-0.1,0c0.3,0.1,0.7,0.1,1,0.1c1-0.2,0.1-0.4,0-0.2
			c-0.1,0.2,1.3,0.3,1.4,0.3c0.7-0.1,1.2-0.6,1.8-0.9c-0.4,0.1-0.8,0.1-1.2,0.2c0.5,0.2,0.9,0.4,1.4,0.6c1.8,0.7,2.6-2.2,0.8-2.9
			c-1-0.4-1.8-0.9-2.8-0.3c-0.1,0-0.5,0.3-0.5,0.3c-0.3,0.1-0.2,0.1,0.1,0.1s0.4,0,0.1-0.1c-0.4-0.3-1-0.3-1.5-0.1
			c-0.5,0.1-0.5,0.2-0.1,0.1c0.3,0,0.4,0,0.1-0.1c-0.2-0.1-0.4-0.2-0.6-0.2c-0.4-0.1-1.1,0.1-1.4,0.5c-0.4,0.3-0.2,0.3,0.5,0.1
			c0.7,0.2,0.9,0.1,0.6-0.1c-0.1-0.2-0.6-0.4-0.8-0.5c-0.5-0.2-1-0.1-1.5-0.2c-0.1,0-1.6-0.1-1.5,0.2c0-0.1,1,0.2,0.2-0.1
			c-0.2-0.1-0.5-0.1-0.8-0.2c-0.5-0.1-1.2-0.2-1.7-0.1c-0.2,0-0.4,0.1-0.5,0.2s-0.2,0.2-0.3,0.2c-0.2,0.2-0.2,0.3,0,0.1
			c-0.1-0.2,0.6,0.4,0.2-0.1c-0.1-0.2-0.5-0.3-0.8-0.4s-0.5,0-0.8,0c-0.4,0.1-0.5,0.1-0.2,0.1c0.2,0,0.2,0,0-0.1
			c-0.4-0.4-1.2-0.2-1.6,0c-0.2,0.1-0.3,0.2-0.4,0.3c-0.1,0.1-0.6,0.6-0.3,0.4c0.4-0.1,0.8-0.1,1.2-0.2c-0.5-0.2-0.8-0.4-1.3-0.3
			c-0.5,0-1.1,0.2-1.6,0.3c0.4,0.1,0.8,0.1,1.2,0.2c0.3,0.3,0.3,0.3,0.1,0c-0.1-0.2-0.2-0.3-0.4-0.5c-0.3-0.3-0.7-0.5-1.2-0.5
			c-0.7-0.1-1.9,0.1-2.2,0.9c-0.3,0.3-0.1,0.2,0.4-0.2c-0.3-0.1-0.4-0.1-0.2,0.1c-0.3-0.2-0.5-0.6-0.8-0.8c-1-0.5-1.4,0.1-2.2,0.5
			c0.4-0.1,0.8-0.1,1.2-0.2c-1.2-0.2-2.5-0.5-3.7-0.1c-0.3,0.1-0.6,0.2-0.8,0.5c-0.5,0.5,0.5-0.3,0.6-0.1c-0.1-0.2-1.5-0.2-1.8-0.3
			c-0.5-0.1-1.1,0.2-1.5,0.1c-0.7-0.1-1.1-0.4-1.8-0.1c-0.1,0-0.7,0.4-0.7,0.5c-0.1-0.3,0.8-0.1,0.7,0.1c0.2-0.3-1.2-0.8-1.3-0.8
			c-0.6-0.1-1.2,0.3-1.6,0.2c-0.4,0-1.1-0.4-1.6-0.3c-0.6,0.1-1.2,0.3-1.8,0.4c-0.5,0,0.7,0.2-0.2-0.1c-0.3-0.1-0.5-0.1-0.8-0.1
			c-1.2-0.1-2.3,0.6-3.6,0.2c-0.5-0.1-1-0.4-1.5-0.3c-0.6,0.1-0.8,0.5-1.3,0.7c0.5,0,1,0,1.5,0c-0.4-0.2-0.8-0.5-1.3-0.6
			c-0.2,0-0.6,0-0.8,0.1c-0.3,0.2,0.4,0.1-0.2-0.1c-1-0.3-1.9,0.1-2.8,0.1c-0.4,0-0.8,0.1-1.2,0c-0.5-0.1-1.1-0.5-1.6-0.2
			c-0.3,0.2,0.4,0.1-0.2,0c-0.2-0.1-0.4-0.1-0.6-0.1c-0.6,0-1,0.4-1.5,0.6c0.4-0.1,0.8-0.1,1.2-0.2c-0.5-0.2-0.8-0.4-1.3-0.3
			s-0.8,0.4-1.3,0.6c0.4-0.1,0.8-0.1,1.2-0.2c-1-0.3-2-0.6-2.9,0c-0.1,0.1-0.2,0.1-0.2,0.2c-0.1,0.1-0.1,0.1,0.1,0
			c0.2-0.1,0.2-0.1,0-0.2c-0.1,0-0.2-0.1-0.3-0.1c-0.6-0.1-1.1,0-1.7,0.2C89.2,0.9,89.6,0.9,90,1c-0.3-0.1-0.4-0.4-0.7-0.5
			c-0.4-0.2-1-0.3-1.5-0.2c-0.5,0.1-0.9,0.2-1.2,0.5c-0.1,0.2-0.3,0.3-0.4,0.5c-0.2,0.3-0.2,0.3,0.1,0c0.4-0.1,0.8-0.1,1.2-0.2
			c0.7,0.3-0.6-0.4-0.4-0.3c-0.3-0.3-0.6-0.6-1-0.7c-0.5-0.1-0.9,0-1.3,0.2c-0.1,0-0.9,0.8-0.6,0.6c0.4-0.1,0.8-0.1,1.2-0.2
			c-0.9-0.2-1.6-0.9-2.6-0.4c-0.2,0.1-0.6,0.4-0.7,0.4c0.2-0.1,0.5,0,0-0.1c-0.2-0.1-0.4-0.1-0.6-0.1c-0.4,0-2.8,0-2.9,0.3
			c0.1-0.2,1.1,0.6,0.6,0.1c-0.2-0.2-0.4-0.3-0.7-0.4c-0.4-0.2-1-0.3-1.5-0.3c-0.4,0-0.9,0.3-1.1,0.6c-0.2,0.3,0.2-0.1,0.2-0.1
			c-0.1-0.1-0.4-0.2-0.5-0.2c-0.4-0.1-1-0.2-1.4-0.2c-0.2,0-0.5,0.1-0.6,0.2c-0.4,0.3,0.4,0.1,0,0c-0.6-0.1-0.9,0-1.4,0.1
			c-0.4,0.1-0.8,0-1.2,0c-0.5,0-0.7,0-1.1-0.1c-0.6-0.2-1.1,0-1.6,0.2c0.4,0.1,0.8,0.1,1.2,0.2c-0.6-0.3-1-0.7-1.7-0.6
			c-0.2,0-0.5,0.1-0.7,0.3c-1.1,0.7,0.4,0.1,0.5,0.2c-0.1-0.3-1.5-0.5-1.7-0.5c-0.7,0-0.9,0.5-1.5,0.7c0.4-0.1,0.8-0.1,1.2-0.2
			c-0.5-0.1-1-0.2-1.5-0.2c-0.1,0-1.3,0.2-1.3,0.4c0.2-0.1,0.4-0.1,0.4,0.2C63.1,1,63,0.9,62.8,0.7c-0.3-0.3-0.8-0.5-1.2-0.5
			c-0.8,0-1.3,0.7-1.8,0.8c-0.2,0-0.5,0.1-0.7,0.1c0.4,0.3,0.4,0.3,0.2,0.1c-0.3-0.2-0.6-0.4-1-0.5c-0.9-0.1-1.9-0.2-2.8,0.1
			c-0.2,0-0.4,0.1-0.6,0.2c0.3-0.1,0.4-0.1,0.2,0c-0.4-0.2-0.6-0.5-1-0.7c-0.5-0.1-0.9,0-1.3,0.2c-0.2,0.1-0.3,0.3-0.5,0.4
			c0.5-0.1,0.5-0.2,0-0.2c-0.4,0-0.7,0.2-1.1,0.2c-0.5,0.1-1,0.1-1.5,0.2c0.4,0.1,0.8,0.1,1.2,0.2c-0.5-0.2-0.8-0.7-1.5-0.7
			s-1,0.5-1.5,0.7c0.4-0.1,0.8-0.1,1.2-0.2c0.7,0.3-0.3-0.3-0.5-0.4c-0.4-0.2-1-0.2-1.5-0.2c-0.2,0-0.5,0.1-0.6,0.2
			c-0.3,0.2,0.5,0.2,0.2,0c-0.4-0.3-1.1-0.2-1.5-0.3C43.1,0.8,43.1,3.8,45,3.9L45,3.9z"/>
	</g>
</g>
<g>
	<g>
		<path class="st0" d="M153.8,4.6c0.4,0,0.9,0,1.3-0.2c0.2-0.1,1.3-0.7,0.6-0.4c-0.4-0.1-0.8-0.1-1.2-0.2c0.2,0.1,0.4,0.4,0.7,0.5
			c0.5,0.2,1.1,0.4,1.7,0.3c0.6,0,0.4,0,1,0.1c0.5,0.1,0.9-0.2,1.3-0.3c-0.4-0.1-0.8-0.1-1.2-0.2c-0.5-0.3-0.3-0.2-0.1,0.1
			c0.2,0.2,0.4,0.5,0.7,0.6c0.7,0.4,1.2,0.1,1.9,0c-0.4-0.1-0.8-0.1-1.2-0.2c0.7,0.4,1.1,0.8,2,0.6c0.5-0.1,0.6,0.2,0.1-0.2
			c0.2,0.2,0.4,0.4,0.6,0.5c0.7,0.3,1.6,0.2,2.3,0.4c0.4,0.1,0.8,0.1,1.2,0c0.9-0.2-0.3,0-0.2-0.4c-0.2,0.5,1.4,1,1.6,1.1
			c0.4,0.2,0.2,0.1,0.5,0.4s0.5,0.5,0.9,0.7c0.3,0.1,0.7,0,1.1,0.2c-0.3-0.2-0.3-0.3-0.1,0c0.1,0.1,0.2,0.2,0.3,0.3
			c0.3,0.3,0.6,0.4,1.1,0.4c0.3,0,0.7-0.2,0.9-0.2c-0.4-0.1-0.7-0.3-1.1-0.4c0.5,0.5,0.8,1.2,1.5,1.5c0.4,0.1,0.7,0.2,1.1,0.1
			c0.3-0.1,1-0.2,0.5-0.3c-0.4-0.1-0.7-0.3-1.1-0.4c0.2,0.2,0.5,0.3,0.6,0.6c0.2,0.3,0.1,0.2,0.2,0.4c0.2,0.6,0.5,1.1,1.2,1.3
			c0.2,0.1,1.1,0.2,0.4,0c-0.6-0.2,0,0.1,0.2,0.3c0.4,0.5,0.8,0.9,1.5,1c0.1,0,0.8,0,0.8,0c-0.4,0.1-0.6,0-0.7-0.3
			c-0.1-0.2-0.1-0.2-0.1,0.1c-0.1,0.6,0.4,1.2,0.8,1.5c0.1,0.1,0.9,0.5,0.4,0c0.1,0.1,0.4,0.5,0.4,0.6c0.3,0.6,0.3,1.1,0.9,1.6
			c0.2,0.1,0.4,0.3,0.7,0.3c0.2,0-0.3-0.4,0,0.1c0,0,0.6,0.8,0.7,0.7c-0.1-0.2-0.1-0.3-0.2-0.5c0,0.4,0,0.5,0.1,0.3
			c0,0.3-0.1,1,0.1,1.5c0.1,0.3,0.4,0.4,0.6,0.6c0.3,0.3-0.2-0.4,0,0.3c0.1,0.3,0.4,0.7,0.6,0.9c0.1,0.1,0.1,0.2,0.2,0.3
			c0-0.4,0-0.4-0.1-0.1c-0.1,0.7,0.3,1.2,0.5,1.8c0.2,0.4,0.1,0.9,0.3,1.4c0.1,0.3,0.4,0.5,0.6,0.7c0.1,0.1,0.7,0.5,0.4,0.2
			c-0.1-0.5-0.3-1-0.4-1.5c0.1-0.5-0.3,0.4-0.4,0.5c-0.2,0.4-0.2,0.7-0.1,1.1c0,0.8,0.4,1.3,0.6,2.1c0.2,0.7,0.1,1.7,0.1,2.5
			c0,0.7-0.3,1.3-0.4,2c0,0.3,0,0.9,0.2,1.1s0,0.3,0.2-0.1c-0.2,0.4-0.4,0.5-0.5,0.9c-0.1,0.2,0.2,1.5,0.1,0.8
			c0.2-0.4,0.1-0.4-0.1,0c0,0.1-0.1,0.2-0.2,0.3c-0.2,0.3-0.4,0.5-0.5,0.9c-0.1,0.3-0.1,0.7,0,1c0,0.1,0.6,1.1,0.5,0.7
			c0.1-0.4,0.1-0.8,0.2-1.2c-0.3,0.4-0.6,0.8-0.9,1.2c-0.3,0.5-0.2,1.3-0.4,1.8c-0.1,0.3-0.7,0.5-0.9,1c-0.3,0.6-0.2,1.1-0.3,1.7
			c0.2-0.3,0.5-0.6,0.7-0.9c-0.3,0.2-0.7,0.2-0.9,0.5c-0.5,0.4-0.4,0.9-0.7,1.4c-0.2,0.4-0.6,0.7-0.8,1.1c-0.1,0.2-0.4,0.6,0.1,0.2
			c0.5-0.5-0.1-0.1-0.3,0c-0.4,0.2-0.7,0.5-0.9,1c-0.1,0.2-0.1,0.4-0.2,0.6c0,0.1-0.3,0.7,0,0.3c0.3-0.4-0.2,0-0.3,0.1
			c-0.2,0.1-0.4,0.3-0.6,0.4c-0.4,0.4-0.6,0.7-0.9,1.2c0.3-0.2,0.6-0.5,0.9-0.7c-0.3,0.1-0.6,0-0.9,0.1c-0.4,0.1-0.6,0.4-0.9,0.6
			s-0.7,0.3-0.9,0.6c-0.3,0.3-0.4,0.7-0.6,1c0.3-0.2,0.6-0.5,0.9-0.7c0.5-0.1,0.3-0.1-0.1-0.1c-0.3,0-0.5,0-0.8,0.1
			c-0.5,0.2-0.9,0.5-1.1,1c-0.3,0.7,0,0.1,0.1,0.1c-0.1,0-0.4,0.1-0.5,0.1c-0.6,0.1-1,0.5-1.3,0.9c-0.1,0.2-0.7,0.7-0.7,0.8
			c-0.2,0.1-0.1,0.1,0.2,0c0.4,0,0.4-0.1-0.1-0.1c-0.1,0-0.3,0-0.4,0c-1.3-0.1-2.2,0.5-3.4,1c0.4-0.1,0.8-0.1,1.2-0.2
			c-0.9-0.1-1.3-0.4-2.2,0.1c-0.1,0.1-0.4,0.3-0.6,0.4s-1.1,1-0.4,0.5c0.4-0.1,0.8-0.1,1.2-0.2c-0.9-0.1-1.7-0.3-2.6-0.2
			c-0.3,0-0.6,0.1-0.9,0.3c0.1,0-0.7,0.5-0.4,0.4c-0.7,0.2-1.5-0.6-2.2-0.6c-0.4,0-0.7,0.3-1.1,0.3s-0.9-0.2-1.4-0.3
			c-1.9-0.3-2.7,2.6-0.8,2.9c0.6,0.1,1.2,0.3,1.8,0.4c0.3,0,0.8,0,1.1-0.1c0.2,0,1-0.2,0.3-0.2s0.1,0.2,0.3,0.2
			c0.3,0.1,0.6,0.1,0.9,0.2c0.7,0.1,1.3,0.2,2.1-0.1c0.2-0.1,0.5-0.2,0.7-0.4c0.5-0.4,0.2-0.1-0.1-0.1c0.5,0,0.9,0,1.5,0.1
			c0.7,0.1,1.2-0.1,1.7-0.6c0.2-0.2,0.6-0.5,0-0.1c0.2-0.1,0.4-0.3,0.6-0.4c-0.4,0.1-0.8,0.1-1.2,0.2c0.6,0.1,1,0.4,1.6,0.2
			c0.6-0.1,1.1-0.6,1.6-0.7c0.9-0.2,1.8,0.2,2.6-0.5c0.4-0.3,0.7-0.6,0.9-0.9c0.1-0.1,0.3-0.3,0.4-0.4c0.1-0.4-0.8,0.2,0,0
			c0.5-0.1,1.2-0.4,1.5-0.8c0.3-0.3,0.3-0.8,0.5-1.2c-0.3,0.2-0.6,0.5-0.9,0.7c-0.8,0.1,0.5,0.1,0.8,0.1c0.5-0.1,0.9-0.5,1.1-0.9
			s0.3-0.3,0-0.1c0.1-0.1,0.6-0.4,0.6-0.4c0.3-0.1,0.8-0.1,1.2-0.3c0.5-0.3,0.6-0.7,0.8-1.1c-0.3,0.5,0,0,0.2-0.1
			c0.1-0.1,0.3-0.2,0.4-0.3c0.9-0.6,1-1.5,1.3-2.4c-0.2,0.3-0.5,0.6-0.7,0.9c0.2-0.1,0.6-0.1,0.8-0.3c0.5-0.3,0.5-0.7,0.8-1.3
			c0.2-0.4,0.5-0.7,0.7-1c0.2-0.4,0.3-0.8,0.4-1.3c-0.2,0.3-0.5,0.6-0.7,0.9c0.3-0.2,0.7-0.2,0.9-0.5c0.4-0.3,0.5-0.7,0.6-1.2
			c0-0.1,0.1-0.6,0.1-0.7c0.1,0.1-0.5,0.4,0,0.2c0.5-0.2,0.7-0.7,0.9-1.2c0.2-0.5,0.2-1,0.4-1.4c0.1-0.4,0.5-0.7,0.7-1.1
			c0.3-0.5,0.4-0.9,0.3-1.5c0-0.2-0.1-0.4-0.3-0.6c-0.1-0.1-0.3-0.6-0.3-0.3c-0.1,0.4-0.1,0.8-0.2,1.2c0.3-0.5,0.9-1,1-1.6
			c0.1-0.2,0.1-0.4,0-0.6c0-0.6-0.1-0.5-0.2,0.1c0,0.1,0.5-0.9,0.5-0.9c0-0.1,0.3-2.3-0.3-2.3c-0.1,0.8,0,0.9,0.2,0.3
			c0.1-0.1,0.1-0.3,0.1-0.4c0.1-0.4,0.1-0.8,0.1-1.2c0.1-0.8,0-1.7,0-2.5c0-0.4,0-0.8-0.1-1.1c-0.1-0.4-0.5-0.9-0.5-1.3
			c-0.2,0.2-0.2,0.3,0,0c0.1-0.1,0.2-0.2,0.2-0.3c0.2-0.4,0.3-0.9,0.2-1.3c-0.1-0.3-0.3-0.6-0.5-0.8c-0.1-0.1-1-0.8-0.7-0.4
			c0.1,0.4,0.3,0.7,0.4,1.1c0-0.7-0.2-1.3-0.5-2c-0.1-0.3-0.2-0.7-0.2-0.2c0-0.4,0.1-0.6,0-1c-0.2-0.6-0.6-1-0.8-1.6
			c-0.3-0.8-0.5-1-1.1-1.5c0.1,0.4,0.3,0.7,0.4,1.1c0-0.4,0.1-0.8,0-1.3s-0.2-1-0.6-1.4c-0.3-0.3-0.6-0.6-0.9-0.9
			c-0.4-0.5-0.8-0.4-1.3-0.7c0.2,0.3,0.5,0.6,0.7,0.9c-0.2-0.7-0.4-1.2-0.8-1.8c-0.5-0.8-0.8-0.9-1.6-1.3c0.2,0.3,0.5,0.6,0.7,0.9
			c0-0.2,0-0.5,0-0.7c-0.1-0.3-0.2-0.6-0.4-0.9c-0.4-0.6-0.9-1-1.7-1c-0.1,0-0.1,0-0.2,0c-0.6,0-0.5,0.1,0.2,0.2l-0.5-0.7
			c-0.5-0.6-0.9-0.5-1.6-0.7c0.3,0.2,0.6,0.5,0.9,0.7c-0.2-0.3-0.2-0.7-0.4-1c-0.3-0.4-0.6-0.8-1-1.1c-0.4-0.3-0.8-0.6-1.3-0.6
			c-0.2,0-0.4,0.1-0.6,0.1c-0.3,0.1-0.7,0.2-0.3,0.2c0.4,0.1,0.7,0.3,1.1,0.4c-0.4-0.4-0.7-0.9-1.1-1.3c-0.3-0.2-0.6-0.3-1-0.3
			c-0.3,0-0.6,0.2-0.8,0.2c0.4,0.1,0.7,0.3,1.1,0.4c-0.4-0.4-0.6-0.8-1.2-1s-1.2-0.2-1.8-0.3c0.4,0.1,0.7,0.3,1.1,0.4
			c-0.4-0.3-0.5-0.7-1-1c-0.6-0.4-1.2-0.5-1.9-0.6c0.4,0.1,0.7,0.3,1.1,0.4c-0.2-0.2-0.3-0.5-0.5-0.7c-0.4-0.3-0.9-0.5-1.4-0.6
			c-0.4-0.1-0.7,0-1.1,0c-0.5,0.2-0.5,0.2-0.1,0.1c-0.2-0.1-0.5-0.2-0.7-0.2s-0.5-0.1-0.7-0.1c-0.5,0-0.5,0,0,0.2
			c-0.2-0.1-0.4-0.4-0.6-0.5c-0.9-0.4-1.8-0.1-2.6,0c0.4,0.1,0.8,0.1,1.2,0.2c-0.4-0.2-0.7-0.5-1.2-0.6S159,1.9,158.6,2
			c0.4,0.1,0.8,0.1,1.2,0.2c0.7,0.5,0-0.2-0.2-0.4c-0.3-0.3-0.8-0.5-1.2-0.5c-0.4,0-0.6,0.2-1,0.3c0.8-0.2-0.6-0.2-0.8-0.2
			c-0.7,0.1,0,0.2-0.5-0.1c-0.3-0.1-0.5-0.4-0.8-0.5c-0.5-0.1-0.9,0-1.3,0.2c-0.2,0.1-0.3,0.3-0.5,0.4c0.5-0.2,0.5-0.2,0-0.1
			C151.9,1.8,151.9,4.8,153.8,4.6L153.8,4.6z"/>
	</g>
</g>
<g>
	<g>
		<path class="st0" d="M147,55L147,55c-0.1,0-0.3,0-0.4-0.1l0,0c-0.1-0.1-0.2-0.1-0.4-0.2c0,0,0,0,0.1,0c-0.1-0.1-0.2-0.2-0.3-0.2
			l0.1,0.1c-0.1-0.1-0.2-0.2-0.2-0.3c0.2,0.2,0.3,0.5,0.5,0.7l0,0c0.1,0.1,0.2,0.2,0.3,0.3c0.3,0.2,0.5,0.2,0.8,0.2s0.6-0.1,0.8-0.1
			c-0.1,0-0.3,0-0.4,0.1c0.1,0,0.1,0,0.2,0c0.2,0,0.4,0,0.6-0.1c0.1,0,0.3-0.1,0.4-0.1c-0.1,0-0.3,0-0.4,0.1h0.1
			c0.2,0,0.4,0,0.6-0.1c0.2-0.1,0.3-0.2,0.5-0.3c0.1-0.1,0.2-0.3,0.3-0.5s0.1-0.4,0.1-0.6c0-0.4-0.1-0.8-0.4-1.1
			c-0.3-0.3-0.6-0.4-1.1-0.4c-0.3,0-0.6,0.1-1,0.2c0.1,0,0.3,0,0.4-0.1c-0.1,0-0.2,0-0.3,0c-0.2,0-0.4,0.1-0.7,0.1
			c0.1,0,0.3,0,0.4-0.1c-0.1,0-0.2,0-0.3,0c0.1,0,0.3,0,0.4,0.1l0,0c0.1,0.1,0.2,0.1,0.4,0.2c0,0,0,0-0.1,0c0.1,0.1,0.2,0.2,0.3,0.2
			l-0.1-0.1c0.1,0.1,0.2,0.2,0.2,0.3c-0.1-0.1-0.2-0.2-0.2-0.4c-0.1-0.1-0.2-0.3-0.3-0.4s-0.2-0.2-0.4-0.3c-0.3-0.2-0.4-0.2-0.8-0.2
			c-0.2,0-0.4,0-0.6,0.1c-0.2,0.1-0.3,0.2-0.5,0.3c-0.1,0.1-0.2,0.3-0.3,0.5s-0.1,0.4-0.1,0.6c0,0.4,0.1,0.8,0.4,1.1
			c0.1,0.1,0.2,0.2,0.3,0.2C146.5,54.9,146.8,55,147,55L147,55z"/>
	</g>
</g>
<g>
	<g>
		<path class="st0" d="M35.6,4.5C35.6,4.5,35.7,4.5,35.6,4.5c-0.1,0-0.2,0-0.3,0h0.1c-0.1-0.1-0.2-0.1-0.4-0.2
			c0.1,0,0.1,0.1,0.2,0.1c0.2,0.1,0.4,0.2,0.5,0.2c0,0,0,0,0.1,0s0.3,0.1,0.4,0.1l0,0c0,0,0.4,0,0.4-0.1l0,0c0.1,0,0.3-0.1,0.4-0.2
			c0.1-0.1,0.2-0.2,0.3-0.3c0.1-0.1,0.2-0.3,0.3-0.4l0.1-0.1c0.1-0.1,0.1-0.2,0.2-0.3c-0.1,0.1-0.2,0.2-0.2,0.3l0.1-0.1
			c-0.1,0.1-0.2,0.2-0.3,0.2l0,0c-0.1,0.1-0.2,0.1-0.4,0.2l0,0c-0.1,0-0.3,0-0.4,0.1l0,0c-0.1,0-0.3,0-0.4-0.1l0,0
			c-0.1-0.1-0.2-0.1-0.4-0.2c0,0,0,0,0.1,0c-0.1-0.1-0.2-0.2-0.3-0.2c0.1,0,0.1,0.1,0.2,0.2c-0.1-0.1-0.2-0.2-0.2-0.3
			C35.9,3.6,36,3.8,36.2,4c0,0,0,0,0.1,0.1l0,0c0.1,0.1,0.2,0.2,0.3,0.2l0,0c0.1,0,0.3,0.1,0.4,0.2c0.1,0,0.3,0.1,0.4,0.1
			c0.2,0,0.4,0,0.6-0.1c0.2-0.1,0.3-0.2,0.5-0.3c0.1-0.1,0.2-0.3,0.3-0.5s0.1-0.4,0.1-0.6c0-0.4-0.1-0.8-0.4-1.1
			c-0.1-0.1-0.2-0.2-0.3-0.2c-0.2-0.1-0.5-0.2-0.8-0.2l0,0c0.1,0,0.3,0,0.4,0.1l0,0c0.1,0.1,0.2,0.1,0.4,0.2c0,0,0,0-0.1,0
			c0.1,0.1,0.2,0.2,0.3,0.2c-0.1,0-0.1-0.1-0.2-0.2c0.1,0.1,0.2,0.2,0.2,0.3c-0.2-0.2-0.3-0.5-0.5-0.6l0,0c-0.1-0.1-0.2-0.2-0.3-0.2
			l0,0c-0.1,0-0.3-0.1-0.4-0.2c-0.1,0-0.2,0-0.2,0c-0.1,0-0.1,0-0.2,0c-0.1,0-0.3,0-0.4,0.1c-0.1,0-0.8,0.4-0.4,0.2
			c-0.3,0.2-0.5,0.4-0.7,0.8c-0.1,0.1-0.1,0.3-0.2,0.4c0.1-0.1,0.2-0.2,0.2-0.3l-0.1,0.1c0.1-0.1,0.2-0.2,0.3-0.2l0,0
			c0.1-0.1,0.2-0.1,0.4-0.2l0,0c0.1,0,0.3,0,0.4-0.1c0,0,0,0-0.1,0c0.1,0,0.3,0,0.4,0.1h-0.1c0.1,0.1,0.2,0.1,0.4,0.2
			c-0.1,0-0.2-0.1-0.3-0.2c-0.3-0.2-0.6-0.3-1-0.3c-0.2,0-0.4,0-0.6,0.1c-0.2,0.1-0.3,0.2-0.5,0.3c-0.1,0.1-0.2,0.3-0.3,0.5
			s-0.1,0.4-0.1,0.6c0,0.4,0.1,0.8,0.4,1.1C34.9,4.3,35.2,4.5,35.6,4.5L35.6,4.5z"/>
	</g>
</g>
<g>
	<g>
		<path class="st0" d="M29.4,2.5c-0.2,0-0.4,0-0.5,0.1c-0.1,0-0.1,0-0.2,0c0.2,0.1,0.4,0.3,0.7,0.4c0.1-0.2-0.8-1-0.9-1
			c-0.5-0.3-0.9-0.3-1.4-0.1c-0.4,0.1-0.6,0.5-0.9,0.6c0.4-0.1,0.8-0.1,1.2-0.2c-1-0.2-2.2-0.8-3.2-0.4c-0.4,0.1-0.7,0.4-1,0.6
			c-0.5,0.2-0.9,0.2-1.4,0.3C21.7,2.8,21,3,21.4,3c0.4-0.1-0.3-0.1-0.5-0.1c-0.5-0.1-1.1-0.1-1.5,0.1c-0.4,0.1-0.9,0.4-1.1,0.8
			c-0.4,0.8,0.9-0.5,0.9-0.3c0-0.1-0.7-0.1-0.7-0.1c-0.7,0-2.1,0.6-2.6,1c-0.2,0.3-0.5,0.7-0.5,1c-0.1,0.5,0.1,0.2,0.7-0.6
			c-0.1,0-0.3,0-0.4,0.1c-0.2,0-0.4,0.1-0.6,0.1c-0.2,0.1-0.5,0.1-0.7,0.2c-0.4,0.2-0.3,0.1,0.1,0.2c-0.4,0-0.8-0.2-1.2,0
			c-0.5,0.1-0.9,0.5-1.1,1c-0.1,0.2-0.1,0.5-0.1,0.7c0,0.4-0.2,0.5,0.1,0c0.3-0.2,0.6-0.5,0.9-0.7C12.4,6.6,11.7,6.8,11,7
			c-0.9,0.3-0.9,0.8-1.4,1.5c0.3-0.2,0.6-0.5,0.9-0.7c-0.4,0.1-0.8,0.1-1.1,0.3C9,8.4,8.9,8.7,8.6,9.1C8.8,8.8,8,9.6,7.9,9.7
			c-0.1,0.2-0.2,0.4-0.3,0.6c0.5-0.4,0.5-0.5,0-0.2c-0.7,0.3-1.2,1.2-1.4,1.9c-0.1,0.5-0.1,0.5,0.2,0c-0.2,0.1-0.3,0.3-0.5,0.4
			c-0.3,0.3-0.7,0.5-0.9,0.8c-0.3,0.3-0.4,0.6-0.6,0.9c-0.3,0.4-0.7,0.5-0.9,1.1c0,0.1-0.1,0.3-0.1,0.4c-0.1,0.4,0,0.3,0.2-0.3
			c-0.1-0.2-0.9,1-0.9,1.1c-0.1,0.4,0,0.8-0.1,1.2c0.2-0.3,0.2-0.3-0.2,0c-0.2,0.2-0.3,0.3-0.4,0.5c-0.4,0.8,0,1.6,0,2.4
			c0.1-0.4,0.3-0.7,0.4-1.1c-0.3,0.4-0.8,0.7-0.9,1.2c-0.2,0.6,0.3,0.1,0.1,0.1C1.5,20.7,1,21,1,21.1c-0.4,0.4-0.6,0.9-0.5,1.4
			c0,0.3,0.1,0.5,0.2,0.7C0.8,23.3,1.1,24,1,23.5c0.1-0.4,0.1-0.8,0.2-1.2c-0.3,0.6-0.6,0.9-0.6,1.6c0,0.6,0.2,1.1,0.3,1.7
			C1,25.2,1,24.8,1.1,24.4c-0.3,0.6-0.8,1-1,1.6c-0.3,1,0.3,1.3,0.7,2c0-0.5,0-1,0-1.5c-0.3,0.6-0.7,0.9-0.7,1.6
			c-0.1,0.9,0.2,1.3,0.6,2c-0.1-0.4-0.1-0.8-0.2-1.2c-0.2,0.7-0.4,1.2-0.1,1.9c0.2,0.5,0.6,0.9,0.9,1.3c-0.1-0.4-0.1-0.8-0.2-1.2
			c0.4-0.5,0.4-0.6,0.1-0.3C1,30.7,0.9,30.8,0.7,31c-0.3,0.3-0.4,0.6-0.5,1s0.1,0.8,0.3,1.1c0.1,0.1,1,1.1,0.6,0.5
			C1,33.2,1,32.8,0.9,32.4C0.8,33,0.4,33.3,0.5,34c0.1,0.6,0.5,1.1,0.8,1.6c0.6,1.2,0.4,2.6,1.3,3.7c0.1,0.1,0.2,0.2,0.2,0.3
			c-0.1-0.7-0.1-0.7-0.1-0.1c0,0.3,0.1,0.6,0.2,0.8c0.2,0.5,0.6,1.4,0.9,1.8c0.2,0.2,0.4,0.3,0.6,0.5c0.2,0.3,0.2,0.7,0.4,1
			c0.4,0.6,0.9,0.5,1.4,0.8c-0.2-0.3-0.5-0.6-0.7-0.9c-0.1-0.7-0.1-0.4-0.1,0c-0.1,0.3-0.1,0.6,0,0.9c0.1,0.6,0.5,0.9,0.9,1.2
			c0.4,0.3,0.9,0.6,1.3,1c0.4,0.3,0.5,0.8,0.9,1.2c0.1,0.1,0.3,0.3,0.5,0.3c0.5,0.3,0.5,0.2,0.1-0.3c-0.2-0.5-0.3-0.6-0.2-0.2
			c0,0.5,0.3,1,0.7,1.4s0.9,0.6,1.4,0.8c0.5,0.2,0.9,0.1,1.3,0.2c-0.3-0.2-0.6-0.5-0.9-0.7c0.3,0.5,0.2,0.9,0.7,1.3
			c0.2,0.1,0.4,0.2,0.6,0.3c0.3,0.3,0.3,0.5,0.7,0.7c0.3,0.1,0.5,0.2,0.8,0.2c0.2,0,0.4,0,0.6,0c-0.1,0-0.2,0-0.3,0
			c-0.2-0.4-0.2-0.4-0.1-0.2c0.1,0.2,0.1,0.3,0.2,0.5c0.1,0.2,0.3,0.4,0.5,0.6c0.4,0.3,0.9,0.3,1.4,0.4c1.3,0.2-0.3-0.6-0.2-0.6
			c-0.1,0,0.3,0.9,0.3,0.8c0.3,0.5,0.8,0.8,1.4,0.9c0.3,0,0.6-0.1,0.9-0.2c0.3-0.1,0.8-0.3,0.1-0.2c-0.4-0.1-0.7-0.3-1.1-0.4
			c0.3,0.3,0.6,0.7,1,0.9c0.5,0.2,1,0.1,1.4,0.3c0.5,0.2,1,0.5,1.5,0.6c0.4,0.1,0.9-0.1,1.2,0c0.4,0.1,0.7,0.5,1.1,0.6
			c0.3,0.1,0.7,0.1,0.9,0.1c0.6,0,0.2,0.1,0-0.1c0.8,0.9,1.5,0.7,2.6,0.4c-0.4-0.1-0.8-0.1-1.2-0.2c0.7,0.4,1.3,0.8,2.2,0.7
			c0.3,0,0.7-0.1,0.9-0.3c0.2-0.1,0.3-0.3,0.5-0.4c-0.8,0.1-1,0.2-0.5,0.2c0.4,0.5,1.6,0.5,2.1,0.2c0.3-0.2,0.5-0.4,0.7-0.6
			c0.1-0.1,0.2-0.2,0.2-0.4c0.2-0.3,0.1-0.3-0.2,0.1c1.7-0.9,0.2-3.5-1.5-2.6c-0.3,0.2-0.5,0.4-0.7,0.7c-0.1,0.1-0.1,0.2-0.2,0.3
			c-0.2,0.3-0.1,0.3,0.2-0.1c0.4-0.1,0.8-0.1,1.2-0.2c-1.1-0.4-2.2-0.9-3.2,0.1c-0.3,0.3,0.5-0.5,0.5-0.1c0-0.1-0.6-0.4-0.7-0.4
			c-0.7-0.3-1.1,0-1.7,0.2c0.4,0.1,0.8,0.1,1.2,0.2c-0.7-0.4-0.7-0.7-1.6-0.8c-0.7,0-1.1-0.5-1.8-0.7c-0.6-0.2-1.2,0-1.8-0.2
			c-0.9-0.3-1.5-0.6-2.5-0.7c0.4,0.1,0.7,0.3,1.1,0.4c-0.5-0.4-0.9-1-1.6-1c-0.3,0-0.6,0.1-0.9,0.2c-0.3,0.1-0.8,0.3-0.1,0.2
			c0.4,0.1,0.7,0.3,1.1,0.4c0.2,0.3,0.3,0.4,0.1,0c-0.1-0.3-0.2-0.5-0.4-0.8c-0.3-0.4-0.7-0.5-1.2-0.6c-0.2,0-0.4-0.1-0.6-0.1
			c-0.1,0-0.3,0-0.4-0.1c0.6,0.8,0.9,0.9,0.7,0.5c-0.1-0.5-0.5-0.9-0.9-1.2c-0.5-0.3-1.1-0.6-1.6-0.6c-0.1,0-0.3,0-0.4,0.1
			c0.8,0.4,1,0.5,0.7,0.1c-0.1-0.2-0.5-0.5-0.6-0.6c-0.4-0.3-0.2-0.1-0.1,0.1c-0.1-0.2-0.1-0.5-0.2-0.7c-0.3-0.5-0.8-0.8-1.3-0.9
			c0,0-0.5,0-0.4,0c0.2,0-0.3-0.1-0.4-0.1c0,0,0.2,0.7,0-0.1c-0.1-0.2-0.1-0.5-0.3-0.7c-0.1-0.2-0.3-0.4-0.5-0.5
			c-0.1,0-0.9-0.4-0.5-0.1c0.4,0.2,0-0.1-0.1-0.3c-0.2-0.3-0.4-0.5-0.6-0.7C9.9,43.7,9.5,43.4,9,43c-0.4-0.3-0.6-0.7-0.4,0.1
			c0.2,0.9,0.2,0.4,0.3,0c0.1-0.6,0-1.2-0.4-1.6c-0.3-0.3-0.8-0.3-1.1-0.5c0.2,0.3,0.5,0.6,0.7,0.9c-0.3-0.7-0.5-1.4-1-2
			c-0.1-0.1-0.7-0.6-0.4-0.3C7,39.9,6.5,39.1,6.5,39c-0.5-0.6-0.1,0.4-0.2-0.4c0-0.4-0.1-0.7-0.2-1c-0.2-0.5-0.7-0.8-0.9-1.3
			C5,35.7,5,35,4.7,34.4c-0.1-0.3-0.2-0.6-0.4-0.9C4.2,33.3,3.7,33,4,33.3c-0.1,0.3-0.1,0.3,0.1,0c0.1-0.1,0.1-0.2,0.2-0.4
			c0.1-0.3,0.1-0.7,0-1S4,31.3,3.8,31.1C3.7,31,3.1,30.4,3.5,31c0.1,0.4,0.1,0.8,0.2,1.2c-0.4,0.5-0.4,0.6-0.1,0.3
			c0.2-0.1,0.3-0.2,0.5-0.4c0.3-0.3,0.5-0.7,0.5-1.2c0-0.8-0.7-1.4-1.1-2.1c0.1,0.4,0.1,0.8,0.2,1.2c0.1-0.5,0.4-1,0.2-1.5
			c0-0.1-0.3-0.9-0.5-0.9c0.4,0.1-0.2,0.7,0.1,0.5c0.4-0.2,0.6-1.1,0.6-1.5C4,26,3.6,25.8,3.4,25.3c0.1,0.4,0.1,0.8,0.2,1.2
			c0.2-0.5,0.4-0.4,0.7-1s0.2-1.3-0.1-1.8c-0.1-0.1-0.3,0.5,0-0.1c0.2-0.3,0.3-0.6,0.3-1c0-0.3-0.1-0.7-0.2-0.9
			c-0.1-0.1-0.4-0.8-0.3-0.3c-0.1,0.5-0.3,1-0.4,1.5c0.1-0.1,0.6-0.3,0.7-0.5C4.7,22,4.7,21.6,5,21.2c0.3-0.5,0.6-0.8,0.5-1.4
			c0-0.4-0.2-0.9-0.2-1.3c-0.1,0.4-0.3,0.7-0.4,1.1c0.5-0.5,0.8-0.7,1.1-1.4c0.2-0.6,0.2-1.1,0.2-1.7c-0.1,0.4-0.3,0.7-0.4,1.1
			c0.4-0.4,0.8-0.5,1.1-1.1c0.1-0.2,0.4-0.9,0-0.4s0.3-0.1,0.4-0.2c0.3-0.4,0.4-0.7,0.8-1.1c0.4-0.3,0.8-0.6,1.1-0.9
			c0.4-0.4,0.5-0.9,0.6-1.4c0.1-0.3-0.3,0.2,0,0c0.2-0.2,0.5-0.2,0.7-0.4c0.2-0.2,0.3-0.5,0.4-0.7c0.3-0.5-0.6,0.4,0.2-0.2
			c0.4-0.3,0.6-0.8,0.9-1.2c-0.3,0.2-0.6,0.5-0.9,0.7c0.5-0.2,1-0.2,1.4-0.6c0.3-0.3,0.3-0.7,0.6-1.1c-0.3,0.2-0.6,0.5-0.9,0.7
			C13,9.5,13.9,9.4,14.6,9c0.4-0.2,0.7-0.5,0.9-0.9c0.1-0.2,0.1-0.5,0.1-0.7c0-0.4,0.2-0.5-0.1,0c-0.4,0.2-0.9,0.5-1.3,0.7
			c0.3,0,0.6,0.1,0.9,0.1c0.5,0,0.9-0.3,1.4-0.5c0.8-0.2,1.6-0.1,2.1-1c0.1-0.2,0.2-0.4,0.2-0.6c0.2-0.5,0-0.3-0.5,0.4
			c0.1,0.1,0.9-0.4,1-0.4c-0.5,0-0.6,0-0.2,0.2c0.2,0,0.4,0.1,0.6,0.1c0.5,0,0.9-0.2,1.2-0.6c0.1-0.2,0.3-0.3,0.4-0.5
			c-0.7,0.4-0.9,0.5-0.5,0.3c0.3,0.3,1,0.3,1.4,0.2c0.8-0.1,1.7-0.3,2.5-0.6c0.3-0.1,0.9-0.6,1.2-0.7c-0.7,0.1,0.7,0.4,0.8,0.4
			c0.6,0.1,1,0.2,1.5-0.1c0.3-0.1,0.5-0.4,0.8-0.5c-0.5,0-1,0-1.5,0c-0.3-0.3-0.3-0.4-0.1,0c0.1,0.2,0.2,0.3,0.4,0.5
			s0.5,0.4,0.8,0.5c0.8,0.2,1.5,0,2.3-0.2C32.1,5.1,31.3,2.2,29.4,2.5L29.4,2.5z"/>
	</g>
</g>
<g>
	<g>
		<path class="st0" d="M36.2,56.6c0.4,0.2,0.6,0.6,1.1,0.7c0.6,0.1,1.3-0.1,1.9-0.4c0.2-0.1,0.4-0.3,0.5-0.3
			c-0.6,0.2,0.1,0.2,0.3,0.2c0.8,0.1,1,0,1.7-0.3c-0.4-0.1-0.8-0.1-1.2-0.2c-0.6-0.3-0.2-0.1,0,0.2c0.2,0.3,0.4,0.5,0.7,0.6
			c0.6,0.3,1.7,0.3,2.1-0.4c0.2-0.2,0.1-0.1-0.3,0.1c0.1-0.1,0.2-0.1,0.3,0c0.3,0.2,0.7,0.2,1,0.2s0.6-0.2,0.9-0.4
			c0.1-0.1,0.8-0.7,0.4-0.5c-0.4,0.1-0.8,0.1-1.2,0.2c0.7,0.2,1.3,0.2,2,0.3c0.6,0.1,1,0.3,1.6,0.4c0.6,0,1.2,0,1.8-0.1
			c0.3-0.1,0.6-0.1,0.9-0.3c0.2-0.1,0.9-0.5,0.2-0.2c-0.4-0.1-0.8-0.1-1.2-0.2c-0.2-0.1-0.4-0.5-0.2-0.1c0.1,0.1,0.2,0.3,0.2,0.4
			c0.3,0.3,0.6,0.6,1,0.8c0.5,0.1,1-0.1,1.5-0.1c0.6,0,0.9-0.1,1.4-0.3c0.1-0.1,0.4-0.1,0.5-0.2c0.2-0.2-0.2-0.2,0-0.1
			c0.4,0.2,1,0.3,1.5,0.3c1,0,2.1-0.2,3.1-0.5c-0.4-0.1-0.8-0.1-1.2-0.2c0.2,0.1,0.4,0.5,0.7,0.6c0.5,0.3,1,0.2,1.5,0.2
			c0.3,0,0.6-0.1,0.9-0.1c0.1,0,0.7-0.1,0.5-0.1c0.6,0,1.1,0.2,1.7,0.1c0.1,0,0.8-0.1,0.4-0.1c-0.4-0.1,0.4,0.2,0.4,0.2
			c0.3,0.1,0.5,0.1,0.8,0c0.7-0.2-0.1-0.3,0.2-0.1c0.5,0.2,1,0.3,1.6,0c0.2-0.1,0.3-0.2,0.4-0.3c0.1-0.1,0.6-0.5,0.3-0.4
			c-0.4,0.1-0.8,0.1-1.2,0.2c0.6,0.2,0.8,0.5,1.5,0.4c0.3-0.1,1.5-0.8,0.7-0.5c-0.4-0.1-0.8-0.1-1.2-0.2c-0.3-0.1,0.2,0.4,0.3,0.4
			c0.2,0.2,0.5,0.4,0.8,0.5c0.8,0.2,1.2-0.3,1.9-0.5c-0.4,0.1-0.8,0.1-1.2,0.2c0.5,0.1,1,0.1,1.5,0.1c0.4,0,0.8-0.2,1.1-0.2
			c0.4,0,0.6,0.2,1,0.2c0.4,0.1,0.9-0.1,1.1-0.1c0.6,0,1.6,0.4,2.4,0.4c0.4,0,0.9-0.2,1.3-0.3c0.3-0.1,0.5-0.4,0.7-0.5
			c-0.4,0.1-0.8,0.1-1.2,0.2c0.6,0.1,1.1,0.2,1.7,0.2c0.5,0,0.7,0.3,1.2,0.4s1.2,0,1.6-0.5c0.1-0.1,0.2-0.1,0.2-0.1
			c-0.3,0.2-0.4-0.1,0.2,0.2c0.4,0.2,0.8,0.4,1.2,0.5c0.6,0.2,1,0.1,1.7,0c0.5,0,0.9,0.1,1.4-0.2c0.2-0.1,0.3-0.2,0.4-0.4
			c0.2-0.2,0.6-0.6,0.2-0.4c-0.4,0.1-0.8,0.1-1.2,0.2c0.2,0.1,1,0.6,0.4,0.2c0.4,0.3,0.7,0.5,1.2,0.6s1,0.1,1.5-0.1
			c0.4-0.1,0.6-0.5,0.9-0.6c-0.4,0.1-0.8,0.1-1.2,0.2c0.6,0.2,1.4,0.5,2,0.4s0.8-0.5,1.3-0.8c-0.5,0-1,0-1.5,0
			c-0.4-0.2,0.5,0.5,0.6,0.6c0.3,0.2,0.6,0.3,0.9,0.3c0.7,0,1.2-0.5,1.8-0.7c-0.4-0.1-0.8-0.1-1.2-0.2c-0.4-0.2,0.1,0.4,0.3,0.5
			c0.2,0.2,0.5,0.4,0.8,0.4c0.9,0.2,1.2-0.4,1.9-0.7c-0.4,0.1-0.8,0.1-1.2,0.2c0.8,0.3,1.7,0.5,2.6,0.5c0.5,0,1-0.1,1.4-0.2
			c0.1,0,1.5-0.2,0.7-0.3c-0.8-0.1,0.6,0.3,0.7,0.3c0.3,0,0.5-0.1,0.8-0.1c-0.4,0-0.4,0.1,0,0.2c0.9,0.4,1.6-0.3,2.5-0.4
			c-0.4-0.1-0.8-0.1-1.2-0.2c0.6,0.3,0.8,0.7,1.5,0.8c0.7,0,1.2-0.3,1.8-0.5c-0.4-0.1-0.8-0.1-1.2-0.2c-0.4-0.2,0.5,0.5,0.6,0.6
			c0.4,0.2,0.9,0.3,1.3,0.2c0.4-0.1,0.7-0.4,1-0.8c0.1-0.1,0.2-0.3,0.2-0.4c0.2-0.3,0.1-0.3-0.2,0.1c-0.5,0-1,0-1.5,0
			c0.3,0.2,0.5,0.5,0.9,0.7c0.6,0.2,1.3,0.1,1.9,0c1.2-0.2,2.3-0.2,3.4-0.5c-0.4-0.1-0.8-0.1-1.2-0.2c-0.3-0.1,0.1,0.2,0.2,0.3
			c0.2,0.2,0.3,0.3,0.5,0.4c0.6,0.3,1.1,0.1,1.8-0.1c0.2-0.1,0.4-0.1,0.5-0.2c0.3-0.1-0.4-0.2,0.2,0.1c0.7,0.3,1.2,0.1,1.9,0.1
			c-0.4,0-0.2,0.1,0,0.2c0.3,0.1,0.7,0.2,1,0.1c0.2,0,0.4-0.1,0.5-0.2s0.3-0.2,0.4-0.3c0.1-0.1,0.1-0.1-0.1,0
			c-0.2,0.1-0.2,0.1-0.1,0.2c0.1,0.1,0.2,0.1,0.4,0.2c0.3,0.1,0.6,0.1,0.8,0.1c0.6-0.1,0.8-0.5,1.3-0.7c-0.4,0.1-0.8,0.1-1.2,0.2
			c0.6,0.1,1.2,0.3,1.8,0.3s1.2-0.1,1.8,0.1c0.5,0.2,0.9,0.4,1.5,0.2c0.1,0,0.9-0.3,0.4-0.2c-0.4,0.1,0.6,0.1,0.6,0.1
			c0.6,0,1.1-0.3,1.7-0.4c0.1,0,0,0-0.1-0.1c0.2,0.1,0.5,0.3,0.7,0.4c0.6,0.2,1.2,0.1,1.8,0.1c0.7,0,1-0.3,1.7-0.6c-0.5,0-1,0-1.5,0
			c-0.4-0.2,0.3,0.4,0.4,0.5c0.3,0.2,0.5,0.3,0.9,0.4c0.8,0.1,1.6-0.1,2.4-0.3c-0.4-0.1-0.4-0.1-0.1,0c0.1,0.1,0.3,0.1,0.4,0.1
			c0.4,0.1,0.7,0,1-0.1c0.7-0.1,1.3-0.2,1.9-0.4c-0.4-0.1-0.8-0.1-1.2-0.2c0.4,0.2,0.6,0.6,1.1,0.7c0.6,0.1,1.1-0.1,1.7-0.3
			c0.3-0.1,0.7-0.2,0.9-0.2c-0.5,0-0.2,0.1,0.2,0.2c0.6,0.2,1.3,0.1,2,0.1c1.9-0.2,1.9-3.2,0-3c-0.4,0-0.8,0.1-1.2,0
			s-0.7-0.3-1.2-0.3c-0.8,0.1-1.6,0.3-2.4,0.5c0.4,0.1,0.8,0.1,1.2,0.2c-0.4-0.2-0.6-0.6-1.1-0.7c-0.6-0.1-0.9,0.1-1.4,0.2
			c-0.1,0-1.4,0-1.4,0.2c0,0,1.2,0.1,0.1-0.2c-0.2-0.1-0.5-0.1-0.7-0.1c-0.3,0-0.6,0.2-0.9,0.2c-0.1,0-0.2,0.1-0.4,0.1
			c-0.4,0-0.4,0-0.1,0.2c0.3,0.2,0.3,0.2,0.1,0c-0.1-0.1-0.1-0.2-0.2-0.2c-0.2-0.2-0.3-0.3-0.5-0.4c-0.5-0.3-1.1-0.2-1.6,0.1
			c-0.3,0.2-0.6,0.2-0.2,0.2c-0.1,0-1,0-0.6,0.1c0.3,0.1-0.2-0.1-0.3-0.2c-0.3-0.2-0.6-0.2-0.9-0.3c-0.6-0.1-1,0-1.5,0.1
			c-0.6,0.2-0.5,0.1-0.9,0.1s-0.6-0.1-0.9,0c-1.1,0.3,0.1,0.2,0.1,0.3c0-0.5-2.8-0.4-3.2-0.4c-0.6,0-1.2-0.3-1.8-0.2
			c-0.5,0.1-0.7,0.5-1.1,0.7c0.4-0.1,0.8-0.1,1.2-0.2c-0.6-0.2-1.2-0.5-1.8-0.4c-0.7,0-0.9,0.5-1.5,0.7c0.4-0.1,0.8-0.1,1.2-0.2
			c-0.5-0.2-0.8-0.4-1.3-0.4c-0.6,0-0.5,0.1-1.2-0.1c-1-0.2-1.6,0.2-2.6,0.4c0.4,0.1,0.8,0.1,1.2,0.2c0.3,0.1,0-0.1-0.1-0.2
			s-0.3-0.3-0.4-0.4c-0.4-0.3-0.8-0.3-1.3-0.2c-1,0.2-2,0.3-3.1,0.4c-0.1,0-0.8,0-0.3,0.1c0.4,0.1,0-0.2-0.2-0.3
			c-0.4-0.3-0.8-0.5-1.3-0.4s-0.8,0.3-1.1,0.6c-0.1,0.1-0.2,0.3-0.3,0.4c-0.2,0.4-0.3,0.3,0.1,0c0.5,0,1,0,1.5,0
			c0.4,0.2-0.1-0.2-0.3-0.3c-0.3-0.3-0.6-0.4-1-0.5c-0.7-0.1-1.4,0.3-2,0.5c0.4,0.1,0.8,0.1,1.2,0.2c-0.4-0.2-0.6-0.6-1.1-0.7
			s-1.3,0-1.8,0.2c-0.8,0.3,0.6,0.3-0.2,0c-0.2-0.1-0.4-0.1-0.6-0.1c-0.2,0-0.4,0-0.6,0.1c-0.3,0.1-0.2,0.1,0.1,0
			c-0.2-0.1-0.5-0.2-0.8-0.3c-0.6-0.1-1,0.2-1.5,0.4c-0.6,0.1-1.2,0.2-1.8,0.1c-0.5-0.1-0.9-0.4-1.5-0.3c-0.7,0.1-0.8,0.5-1.3,0.8
			c0.5,0,1,0,1.5,0c0.4,0.2-0.1-0.4-0.3-0.5c-0.3-0.3-0.6-0.4-1-0.5c-0.8-0.1-1.4,0.4-2,0.7c0.4,0.1,0.8,0.1,1.2,0.2
			c0.4,0.2-0.2-0.2-0.3-0.4c-0.3-0.3-0.6-0.4-1-0.5c-0.9-0.1-1,0.4-1.7,0.8c0.4-0.1,0.8-0.1,1.2-0.2c-0.7-0.1-1.5-0.5-2.2-0.3
			c-0.3,0.1-0.6,0.3-0.8,0.5c-0.7,0.6,0.7-0.5,0.5,0.2c0.1-0.2-1.3-0.8-1.5-0.9c-0.6-0.2-1.3-0.1-1.8,0.4c-0.1,0.1-0.5,0.6-0.5,0.6
			c0.2-0.1,0.4-0.2,0.6-0.4c-0.3,0-0.5,0-0.8,0c-0.5,0-0.7-0.1-1.4-0.4c-0.6-0.2-1-0.3-1.7-0.2c-0.8,0.1-1,0.5-1.6,0.8
			c0.4-0.1,0.8-0.1,1.2-0.2c-1-0.4-2.3-0.7-3.5-0.6c-0.5,0.1-0.9,0.5-1.2,0.6c0.1,0-0.2,0-0.3-0.1c-0.4-0.1-0.7-0.1-1.1-0.2
			c-0.3-0.1-0.6-0.2-1-0.1c-0.3,0-0.8,0.1-0.2,0.2c-0.6-0.1-1.1-0.4-1.7-0.3c-0.7,0-1.3,0.2-2,0.1c-0.7,0-1.1,0.3-1.7,0.6
			c0.5,0,1,0,1.5,0c0.3,0.1-0.2-0.4-0.3-0.4c-0.2-0.2-0.5-0.4-0.8-0.5c-0.6-0.1-1.4,0.1-1.7,0.5c-0.1,0.1,1.4,0,0.5-0.3
			c-0.3-0.1-0.7-0.2-1-0.1s-0.6,0.3-0.8,0.5c-0.1,0.1-0.6,0.6-0.3,0.4c0.4-0.1,0.8-0.1,1.2-0.2c-0.3-0.1-0.6-0.2-0.9-0.3
			c-0.2,0-1.2,0.1-0.8,0.1c0.5,0-0.8-0.3-0.8-0.3c-0.4,0-0.7,0.2-1.1,0.2c-0.4,0-0.7-0.2-1.1-0.2c-0.3,0-0.7,0.1-1.1,0.2
			c-0.5,0.1-1,0-0.3,0.3c-0.2-0.1-0.4-0.5-0.7-0.6c-0.8-0.4-1.5-0.1-2.3,0.1s-1.3,0.1-2.1-0.1s-1.2,0-1.9,0.3s-1.4,0.2-2.2,0.4
			c0.4,0.1,0.8,0.1,1.2,0.2c0.2,0.1,0.4,0.5,0.2,0.1c-0.1-0.2-0.2-0.4-0.4-0.5c-0.3-0.4-0.8-0.7-1.3-0.7c-0.4,0-1.1,0.2-1.3,0.6
			c-0.1,0.1,0.4,0,0.1-0.1c-0.3-0.1-0.7,0.1-0.9,0.1c-0.4,0-0.6-0.3-1-0.4c-0.5-0.1-1.1,0-1.6-0.1c-0.6-0.1-1.1-0.3-1.7,0
			c-0.2,0.1-0.4,0.2-0.5,0.4c-0.1,0.1-0.5,0.4-0.2,0.3c0.4-0.1,0.8-0.1,1.2-0.2c-0.6-0.2-1.2-0.3-1.8-0.2c-0.7,0.1-0.9,0.5-1.5,0.7
			c0.5,0,1,0,1.5,0c0.5,0.3,0.2,0.2,0-0.2c-0.2-0.2-0.3-0.4-0.6-0.6c-0.6-0.4-1.2-0.2-1.8,0c0.1,0,0.2,0,0.3,0
			c-0.2,0-0.4-0.1-0.6-0.1c-0.3,0-0.6-0.1-0.9,0c-0.7,0.1-1.2,0.5-1.8,0.7c0.4,0.1,0.8,0.1,1.2,0.2c-0.3-0.1-0.4-0.4-0.7-0.5
			C35.9,53.2,34.4,55.8,36.2,56.6L36.2,56.6z"/>
	</g>
</g>
</svg>
