<?xml version="1.0" encoding="utf-8"?>
<!-- Generator: Adobe Illustrator 25.0.0, SVG Export Plug-In . SVG Version: 6.00 Build 0)  -->
<svg version="1.1" id="分離模式" xmlns="http://www.w3.org/2000/svg" xmlns:xlink="http://www.w3.org/1999/xlink" x="0px"
	 y="0px" viewBox="0 0 3000.6 2614.4" style="enable-background:new 0 0 3000.6 2614.4;" xml:space="preserve">
<style type="text/css">
	.st0{fill:#13B6CD;}
</style>
<path class="st0" d="M2962.5,922.7c-125.5-468-580.3-772.2-1037.3-861.4C1422.9-51.6,840.5-32.2,434.5,320.7
	C104.4,588.4-3.9,945.6,0.1,1354.9c13,625,365,1138.7,1009.6,1233.9c424.6,61,874.1,15.9,1264.4-168.1
	C2852.5,2154.4,3102.8,1528.8,2962.5,922.7z M1910.6,1476.3L1363,1792.5c-116.7,67.4-262.5-16.8-262.5-151.5v-632.3
	c0-134.7,145.8-218.9,262.5-151.5l547.6,316.2C2027.3,1240.8,2027.3,1409.1,1910.6,1476.3z"/>
</svg>
