<?xml version="1.0" encoding="utf-8"?>
<!-- Generator: Adobe Illustrator 25.0.0, SVG Export Plug-In . SVG Version: 6.00 Build 0)  -->
<svg version="1.1" id="圖層_1" xmlns="http://www.w3.org/2000/svg" xmlns:xlink="http://www.w3.org/1999/xlink" x="0px" y="0px"
	 viewBox="0 0 3000.6 2614.4" style="enable-background:new 0 0 3000.6 2614.4;" xml:space="preserve">
<style type="text/css">
	.st0{fill:#13B6CD;}
</style>
<g>
	<path class="st0" d="M1733.7,1056.2c-0.2,0-0.3,0-0.4,0h-68.9c-10,0-18.2,8.1-18.2,18.2v252.2L1452,1064.3c-0.5-0.7-1-1.3-1.6-1.9
		l-1.1-1.1l-1-0.8h-0.5l-1-0.7h-0.5l-1-0.6h-77.2c-10,0-18.2,8.1-18.2,18.2v424.4c0,10,8.1,18.2,18.2,18.2h69
		c10,0,18.2-8.1,18.2-18.2v-254.6l194.4,262.5c1.2,1.8,2.9,3.4,4.7,4.7l1.1,0.7h0.5l0.9,0.5h2.8c1.6,0.4,3.2,0.6,4.9,0.6h68.5
		c10,0,18.2-8.1,18.2-18.2l0.3-423.2C1751.8,1064.7,1743.8,1056.4,1733.7,1056.2z"/>
	<path class="st0" d="M1263.6,1056.1h-68.9c-10.3,0-18.6,8.3-18.6,18.6v424.4c0,10.3,8.3,18.6,18.6,18.6h68.9
		c10.3,0,18.6-8.3,18.6-18.6v-424.4C1282.2,1064.4,1273.9,1056.1,1263.6,1056.1z"/>
	<path class="st0" d="M1117.3,1430.5c0-10-8.1-18.2-18.2-18.2H913.4V1075c0-10-8.1-18.2-18.2-18.2h-69.3c-10,0-18.2,8.1-18.2,18.2
		v424.1c0,10,8.1,18.2,18.2,18.2h273.5l-0.3,0.3c10,0,18.2-8.1,18.2-18.2l0,0L1117.3,1430.5L1117.3,1430.5z"/>
	<path class="st0" d="M2109.8,1162.3c10,0,18.2-8.1,18.2-18.2h-0.1v-69c0-10-8.1-18.2-18.2-18.2h-273.5c-10,0-18.2,8.1-18.2,18.2
		v424.3c0,10,8.1,18.2,18.2,18.2h273.5c0.3,0,0.5,0,0.7,0c10.1-0.4,18-8.8,17.6-18.9v-68.9c0-10-8.1-18.2-18.2-18.2h-185.7v-71.7
		h185.7c10,0,18.2-8.1,18.2-18.2v-69.6c0-10-8.1-18.2-18.2-18.2h-185.7v-71.6L2109.8,1162.3L2109.8,1162.3z"/>
	<path class="st0" d="M2962.5,922.7c-125.5-468-580.3-772.2-1037.3-861.4C1422.9-51.6,840.5-32.2,434.5,320.7
		C104.4,588.4-3.9,945.6,0.1,1354.9c13,625,365,1138.7,1009.6,1233.9c424.6,61,874.1,15.9,1264.4-168.1
		C2852.5,2154.4,3102.8,1528.8,2962.5,922.7z M2146.5,1726c-185,213-598.7,472.4-692.8,512c-94.1,39.6-80.2-25.3-76.3-47.6
		c2.3-13.2,12.6-75.4,12.6-75.4c3-22.5,6-57.5-2.9-79.8c-9.9-24.5-49-37.3-77.7-43.4c-423.3-56-737.4-352.3-737.4-706
		c0-394.5,395.6-715.5,881.8-715.5s881.8,321.1,881.7,715.4C2335.6,1443.3,2274.3,1585.9,2146.5,1726z"/>
</g>
</svg>
