<?xml version="1.0" encoding="utf-8"?>
<!-- Generator: Adobe Illustrator 25.0.0, SVG Export Plug-In . SVG Version: 6.00 Build 0)  -->
<svg version="1.1" id="圖層_1" xmlns="http://www.w3.org/2000/svg" xmlns:xlink="http://www.w3.org/1999/xlink" x="0px" y="0px"
	 viewBox="0 0 49.5 48" style="enable-background:new 0 0 49.5 48;" xml:space="preserve">
<style type="text/css">
	.st0{fill:#FFFFFF;}
</style>
<g id="圖層_2_1_">
</g>
<g>
	<path class="st0" d="M5.1,48c-1.4,0-2.6-0.5-3.6-1.5S0,44.1,0,42.3s0.5-3.2,1.5-4.2s2.2-1.5,3.6-1.5c1,0,1.8,0.3,2.6,0.9
		c0.4,0.3,0.4,0.7,0,1.2c-0.4,0.5-0.9,0.5-1.4,0.1c-0.2-0.2-0.6-0.3-1-0.3c-0.8,0-1.5,0.3-2.1,1s-0.8,1.6-0.8,2.8s0.3,2.1,0.8,2.8
		s1.2,1,2.1,1c0.5,0,1-0.2,1.5-0.5c0.5-0.4,1-0.4,1.4,0.1c0.3,0.4,0.3,0.8-0.1,1.2C7.2,47.6,6.2,48,5.1,48z"/>
	<path class="st0" d="M12.1,47.8c-0.3,0-0.5-0.1-0.7-0.3s-0.3-0.4-0.3-0.7v-8.9c0-0.7,0.4-1.1,1.1-1.1c0.7,0,1.1,0.4,1.1,1.1v8h3.5
		c0.6,0,0.9,0.3,0.9,0.9c0,0.6-0.3,0.9-0.9,0.9h-2.4L12.1,47.8L12.1,47.8z"/>
	<path class="st0" d="M24.8,48c-1.5,0-2.6-0.5-3.5-1.5s-1.4-2.4-1.4-4.2s0.5-3.1,1.4-4.2c0.9-1,2.1-1.5,3.5-1.5
		c1.5,0,2.6,0.5,3.5,1.5s1.4,2.4,1.4,4.2s-0.5,3.1-1.4,4.2C27.4,47.4,26.2,48,24.8,48z M24.8,46.1c0.8,0,1.5-0.3,1.9-1
		s0.7-1.6,0.7-2.8s-0.2-2.1-0.7-2.8s-1.1-1-1.9-1s-1.5,0.3-1.9,1s-0.8,1.6-0.8,2.7s0.2,2.1,0.7,2.8S23.9,46.1,24.8,46.1z"/>
	<path class="st0" d="M35.8,48c-1.2,0-2.3-0.3-3.3-1c-0.4-0.4-0.5-0.9-0.1-1.4s0.9-0.6,1.5-0.1c0.7,0.4,1.3,0.6,1.9,0.6
		c0.6,0,1-0.1,1.3-0.3s0.5-0.5,0.5-0.9s-0.1-0.6-0.4-0.9c-0.2-0.1-0.5-0.3-1.1-0.6H36l-1.5-0.6c-1.5-0.6-2.2-1.6-2.2-2.9
		c0-0.9,0.4-1.7,1.1-2.3c0.7-0.7,1.6-1,2.7-1c1,0,2,0.3,2.8,0.9c0.4,0.4,0.4,0.7,0.1,1.2c-0.4,0.5-0.8,0.6-1.3,0.2
		c-0.5-0.3-1-0.4-1.6-0.4c-0.5,0-0.9,0.1-1.2,0.3s-0.4,0.5-0.4,0.8s0.2,0.6,0.5,0.8c0.2,0.1,0.6,0.3,1.1,0.5h0.1l1.4,0.6
		c0.7,0.3,1.2,0.7,1.6,1.1c0.4,0.5,0.6,1.1,0.6,1.9c0,0.9-0.4,1.7-1.1,2.3C38,47.6,37,48,35.8,48z"/>
	<path class="st0" d="M43.5,47.8c-0.3,0-0.5-0.1-0.7-0.3s-0.3-0.4-0.3-0.7v-9c0-0.3,0.1-0.5,0.3-0.7s0.4-0.3,0.7-0.3h4.9
		c0.6,0,0.9,0.3,0.9,0.9c0,0.6-0.3,0.9-0.9,0.9h-3.6v2.5h2.9c0.6,0,0.9,0.3,0.9,0.9s-0.3,0.9-0.9,0.9h-2.9v2.9h3.8
		c0.6,0,0.9,0.3,0.9,0.9c0,0.6-0.3,0.9-0.9,0.9h-2.5h-2.6C43.5,47.6,43.5,47.8,43.5,47.8z"/>
</g>
<path class="st0" d="M13.7,0.7c0.8-0.9,2.3-0.9,3.2,0l7.9,8.5l7.9-8.5c0.9-0.9,2.3-0.9,3.2,0.1c0.8,0.9,0.8,2.4,0,3.3L28,12.6
	l7.9,8.5c0.8,0.9,0.8,2.5-0.1,3.4c-0.8,0.9-2.2,0.9-3.1,0l-7.9-8.5l-7.9,8.5c-0.9,0.9-2.3,0.9-3.2-0.1c-0.8-0.9-0.8-2.4,0-3.3
	l7.9-8.5l-7.9-8.5C12.9,3.2,12.9,1.6,13.7,0.7L13.7,0.7z"/>
</svg>
