<?xml version="1.0" encoding="utf-8"?>
<!-- Generator: Adobe Illustrator 25.0.0, SVG Export Plug-In . SVG Version: 6.00 Build 0)  -->
<svg version="1.1" xmlns="http://www.w3.org/2000/svg" xmlns:xlink="http://www.w3.org/1999/xlink" x="0px" y="0px"
	 viewBox="0 0 224 24.9" style="enable-background:new 0 0 224 24.9;" xml:space="preserve">
<style type="text/css">
	.st0{fill:#FFE400;}
	.st1{fill:#222222;}
</style>
<g id="圖層_7">
	<path class="st0" d="M217.9,24.9H6.1c-3.4,0-6.1-2.4-6.1-5.3v0c0-2.9,2.7-5.3,6.1-5.3h211.7c3.4,0,6.1,2.4,6.1,5.3v0
		C224,22.5,221.3,24.9,217.9,24.9z"/>
	<g>
		<path class="st1" d="M8.9,23.1c-0.8,0-1.3-0.2-1.7-0.7c-0.4-0.5-0.5-1.1-0.5-1.9c0.3-3.3,0.9-6.1,1.7-8.5c0.9-2.5,2.3-5.1,4.1-7.7
			H4.2c-1.2,0-1.9-0.6-1.9-1.9c0-1.2,0.6-1.9,1.9-1.9h5.7h5.9c0.5,0,0.9,0.2,1.2,0.5s0.5,0.7,0.5,1.2v0.1c0,0.6-0.2,1.2-0.7,1.8
			c-2,2.5-3.3,5.1-4.1,7.6c-0.7,2.2-1.2,5.1-1.4,8.7c0,0.8-0.3,1.4-0.6,1.9C10.1,22.8,9.6,23.1,8.9,23.1z"/>
		<path class="st1" d="M28.8,23.5c-2.4,0-4.2-1-5.6-3c-1.4-2.1-2.1-5-2.1-8.9s0.7-6.8,2.1-8.8C24.5,1,26.4,0,28.8,0
			c2.4,0,4.2,1,5.5,2.9c1.4,2,2.1,4.9,2.1,8.8s-0.7,6.8-2.1,8.9C33,22.5,31.2,23.5,28.8,23.5z M28.8,20c2.3,0,3.4-2.8,3.4-8.3
			c0-5.5-1.1-8.2-3.4-8.2c-2.3,0-3.4,2.7-3.4,8.2c0,3,0.3,5.2,1,6.6C26.9,19.4,27.7,20,28.8,20z"/>
		<path class="st1" d="M41.4,22c-0.2,0.1-0.6,0-1-0.2s-0.7-0.4-0.8-0.7c-0.1-0.3-0.1-0.6,0.1-1c0.3-0.9,0.5-2,0.7-3.4
			c0.1-0.9,0.6-1.3,1.5-1.2c0.8,0.1,1.1,0.6,1,1.4c-0.1,0.9-0.3,1.7-0.4,2.4c-0.2,0.9-0.4,1.5-0.5,1.8C41.9,21.7,41.7,21.9,41.4,22z
			 M44.9,24.4c-0.9,0-1.3-0.4-1.3-1.3v-9l-2.4,0.2c-0.9,0.1-1.3-0.4-1.4-1.2c-0.1-0.9,0.3-1.4,1.3-1.4l0.5,0
			c0.5-0.6,0.9-1.1,1.2-1.6c-0.5-0.7-1.2-1.6-2.2-2.7c-0.3-0.3-0.4-0.6-0.3-1c0-0.4,0.2-0.7,0.4-1C40.6,5,40.8,4.9,41,4.8
			c0.2-0.1,0.4,0,0.6,0.2c0.5-1,1-2,1.4-3.2c0.2-0.4,0.4-0.7,0.6-0.8c0.3-0.1,0.6-0.1,1.1,0.1c0.9,0.3,1.1,1,0.6,1.9
			c-0.8,1.6-1.5,2.8-2.1,3.8c0.3,0.3,0.6,0.6,0.9,1.1c0.6-0.9,1.1-1.9,1.8-3.1c0.4-0.7,1-0.9,1.8-0.6c0.9,0.4,1.1,1,0.6,1.8
			c-1.4,2.1-2.7,4-4,5.7l2.6-0.1c-0.1-0.3-0.2-0.5-0.3-0.7C46,10,46.2,9.5,47,9.1c0.6-0.3,1.1-0.1,1.5,0.5c0.7,1.3,1.2,2.6,1.6,3.6
			c0.1,0.3,0.1,0.6-0.1,0.8c-0.1,0.2-0.3,0.3-0.7,0.5c-0.9,0.4-1.4,0.2-1.6-0.7c0,0,0,0,0-0.1l-1.5,0.1v5.3V23
			C46.2,23.9,45.8,24.4,44.9,24.4z M47.5,19.6c0-0.2-0.1-0.4-0.2-0.8c0-0.1-0.1-0.2-0.1-0.2c-0.2-0.6-0.4-1.1-0.5-1.4
			c-0.3-0.7,0-1.2,0.8-1.5c0.7-0.2,1.2,0,1.4,0.6c0.4,0.9,0.7,1.8,1,2.8c0.1,0.4,0.1,0.7,0,0.9s-0.4,0.4-0.8,0.5
			C48.2,20.8,47.7,20.5,47.5,19.6z M49.9,23.6c-0.9,0-1.4-0.5-1.4-1.4c0-0.9,0.5-1.4,1.4-1.4h1V3.4c0-0.5,0.2-0.9,0.5-1.2
			c0.3-0.3,0.7-0.5,1.2-0.5H60c0.5,0,0.9,0.2,1.2,0.5c0.3,0.3,0.5,0.7,0.5,1.2v17.5H62c0.9,0,1.4,0.5,1.4,1.4c0,0.9-0.5,1.4-1.4,1.4
			H56H49.9z M53.8,8h2.4h2.4V5.1c0-0.4-0.2-0.6-0.6-0.6h-3.6c-0.4,0-0.6,0.2-0.6,0.6V8z M53.8,14.4h2.4h2.4v-3.7h-4.8V14.4z
			 M53.8,20.9h4.8v-3.8h-2.4h-2.4V20.9z"/>
		<path class="st1" d="M67.5,23.2c-0.9-1-0.5-1.9,1.1-2.8c3.5-2.2,5.7-5.5,6.7-9.9h-7.1c-1,0-1.6-0.5-1.6-1.6c0-1,0.5-1.6,1.6-1.6
			h7.7C76,5.9,76.1,4.2,76.1,2c0-1,0.6-1.5,1.6-1.5c1.1,0,1.7,0.5,1.6,1.6c0,2.2-0.1,3.9-0.3,5.3h5h3.4c1,0,1.6,0.5,1.6,1.6
			c0,1.1-0.5,1.6-1.6,1.6h-7.4c1.5,4.5,3.9,7.8,7.3,9.8c0.7,0.4,1.2,0.8,1.3,1.2c0.2,0.5,0,1-0.4,1.6c-0.3,0.4-0.7,0.7-1.1,0.7
			c-0.4,0.1-0.8-0.1-1.4-0.4c-3.4-2.1-6.1-5.4-7.9-10c-1.4,4.3-3.9,7.6-7.7,9.9C69,24,68.1,23.9,67.5,23.2z"/>
		<path class="st1" d="M112.8,24.1c-2.1-0.2-3.9-0.7-5.2-1.3c-1.4-0.6-2.5-1.5-3.4-2.6c-1.4,1.9-4.3,3.2-8.7,3.9
			c-0.5,0.1-0.9,0.1-1.3-0.1c-0.5-0.1-0.9-0.3-1.1-0.6c-0.3-0.5-0.3-1,0.2-1.4c0.4-0.3,1-0.5,1.7-0.7c2.9-0.6,5-1.3,6.1-2.3h-7.2
			c-0.8,0-1.3-0.4-1.3-1.3s0.4-1.3,1.3-1.3h3.6h4.9v-0.2v-0.7c0-1,0.5-1.5,1.5-1.5s1.5,0.5,1.5,1.5v0.8v0.1h4.4
			c-0.2-0.1-0.4-0.1-0.7-0.2c-0.3-0.1-0.6-0.2-0.7-0.2c-0.4-0.1-0.6-0.3-0.7-0.5c-0.1-0.3,0-0.6,0.2-0.9l0.2-0.3h-0.3
			c-0.1,0-0.1,0-0.1-0.1c-0.1-0.4-0.3-0.9-0.5-1.6l-0.5,0.3c-1.1,0.6-2,0.4-2.8-0.5c-0.3-0.4-0.5-0.8-0.4-1.1s0.3-0.7,0.8-0.9l0.1,0
			h-1.9c-0.7,0-1-0.4-1-1.1c0-0.7,0.3-1,1-1h0.2c-0.1-0.3-0.3-0.6-0.5-1c-0.2-0.2-0.2-0.4-0.2-0.6s0.2-0.2,0.5-0.3
			c1-0.1,1.8-0.3,2.3-0.4c-0.4-0.4-0.9-0.8-1.5-1.3c-0.1,0-0.2,0.1-0.3,0.1c-0.2,0-0.3,0.1-0.4,0.1c-0.4,0.1-0.6,0-0.8-0.3
			c-0.4-0.5-0.7-1-1.1-1.3v10.2c0,0.9-0.5,1.4-1.4,1.4c-0.9,0-1.4-0.5-1.4-1.4v-3.3h-1.4v0.2c0,1.6-0.4,3-1.2,4.2
			c-0.6,0.6-1.1,0.8-1.7,0.4c-0.5-0.3-0.7-0.6-0.7-1c0-0.4,0.2-0.9,0.5-1.3c0.3-0.7,0.5-1.5,0.5-2.3v-0.1h-0.3
			c-0.8,0-1.2-0.4-1.2-1.2c0-0.8,0.4-1.2,1.2-1.2h4.4V6.7h-2.7c-0.5,0-0.9-0.2-1.2-0.5S93.5,5.5,93.5,5V2.4c0-0.8,0.4-1.3,1.3-1.3
			S96,1.6,96,2.4v1.4c0,0.4,0.2,0.6,0.6,0.6h1.3V1.8c0-0.9,0.5-1.4,1.4-1.4c0.9,0,1.4,0.5,1.4,1.4v1.6c3.1-0.6,5.4-1.5,6.9-2.6
			c0.3-0.2,0.8-0.3,1.5-0.1c0.3,0.1,0.6,0.2,0.7,0.4c0.2,0.2,0.2,0.4-0.1,0.6h3.2c0.6,0,1,0.2,1.2,0.5c0.2,0.3,0.1,0.8-0.3,1.5
			c-1,1.3-2.3,2.3-4,3h1.5c0.4,0,0.7,0.1,1,0.4c0.2,0.2,0.4,0.6,0.4,1v0.3h2.2c0.7,0,1,0.3,1,1c0,0.7-0.3,1.1-1,1.1h-2.2V12
			c0,0.6-0.1,1.1-0.2,1.4c-0.2,0.3-0.5,0.6-0.9,0.7c-0.4,0.2-1,0.3-1.8,0.3c1.1,0.3,2.1,0.6,3,1c0.2,0.1,0.3,0.2,0.4,0.5
			c0.1,0.2,0,0.5-0.1,0.7l-0.1,0.1h1.4c0.8,0,1.3,0.4,1.3,1.3s-0.4,1.3-1.3,1.3H107c1.2,1.2,3.3,1.9,6.2,2.2
			c0.9,0.1,1.5,0.2,1.9,0.5c0.4,0.3,0.5,0.8,0.1,1.5C114.7,24,114,24.2,112.8,24.1z M103.6,8.3h3.1h3.1V6.7
			C108.1,7.4,106,8,103.6,8.3z M106.6,5.7c0.4-0.1,0.8-0.2,1.3-0.4c-0.2-0.2-0.5-0.4-0.9-0.7c0,0-0.1-0.1-0.1-0.1
			c-0.4-0.3-0.7-0.5-0.9-0.6c-0.4,0.2-0.7,0.3-1,0.4C105.7,4.8,106.3,5.3,106.6,5.7z M109.3,12.3c0.3,0,0.4-0.1,0.4-0.4v-1.4h-2.2
			h-2.2c0.7,0.6,1.2,1.2,1.7,1.8C107.6,12.2,108.4,12.3,109.3,12.3z M109.5,4.6c0.2-0.1,0.6-0.3,1-0.6c0.3-0.2,0.6-0.4,0.8-0.7h-3.5
			C108.3,3.7,108.9,4.1,109.5,4.6z"/>
		<path class="st1" d="M130.7,23.2c-0.4-1.1,0.1-1.7,1.7-1.7c0.3,0,0.6,0,0.9,0c0.4,0,0.5-0.1,0.5-0.4v-2.7h-7.5
			c0.9,0.7,1.6,1.4,2.2,2c0.3,0.3,0.4,0.7,0.4,0.9c-0.1,0.3-0.3,0.6-0.6,0.9c-0.4,0.4-0.8,0.5-1.1,0.5c-0.3,0-0.7-0.2-1-0.6
			c-0.4-0.5-1-1.1-1.7-1.7c-0.4-0.3-0.6-0.6-0.6-1s0.2-0.7,0.6-1l0.1-0.1h-3.4c-0.9,0-1.3-0.4-1.3-1.3s0.4-1.3,1.3-1.3h12.6v-1.5
			h-7.4h-6.2c-0.9,0-1.3-0.4-1.3-1.3c0-0.9,0.4-1.3,1.3-1.3h8.6v-1.5h-6.1c-0.8,0-1.3-0.4-1.3-1.3s0.4-1.3,1.3-1.3h6.1V7.1
			c0-0.4,0.2-0.5,0.5-0.5h1c-0.1-0.1-0.2-0.1-0.4-0.3c-0.2-0.1-0.4-0.2-0.5-0.3c-0.2-0.1-0.3-0.2-0.3-0.4c0-0.2,0.1-0.3,0.2-0.5
			c0-0.1,0.1-0.1,0.2-0.2c0.1-0.1,0.1-0.1,0.2-0.2h-3.4c0,0.1,0.1,0.1,0.1,0.2c0.1,0.1,0.1,0.2,0.1,0.2c0.3,0.8,0.1,1.4-0.7,1.7
			c-0.5,0.2-0.9,0.2-1.2,0.1c-0.3-0.1-0.5-0.4-0.7-0.9c-0.3-0.6-0.5-1-0.7-1.4h-0.3c-0.6,0.8-1.1,1.5-1.5,1.9
			c-0.3,0.4-0.6,0.6-0.9,0.6c-0.3,0.1-0.6-0.1-1-0.3c-0.5-0.4-0.8-0.7-0.8-1c0-0.3,0.2-0.7,0.7-1.2c0.8-0.9,1.5-1.9,2.1-3.2
			c0.2-0.4,0.5-0.7,0.8-0.8c0.4-0.2,0.8-0.2,1.2-0.1c1,0.3,1.2,0.8,0.8,1.7h4.2c0.4,0,0.8,0.1,1,0.4c0.2,0.2,0.4,0.6,0.4,1v0.1
			c0,0.4,0.1,0.5,0.4,0.2c0.5-0.7,1-1.5,1.4-2.3c0.4-0.9,1-1.2,2-0.9c0.9,0.2,1.2,0.8,0.9,1.7h5.7c0.8,0,1.2,0.4,1.2,1.2
			c0,0.8-0.4,1.3-1.2,1.3h-3c0,0.1,0.1,0.1,0.1,0.2c0.1,0.1,0.1,0.2,0.2,0.2c0.2,0.4,0.3,0.8,0.2,1s-0.4,0.5-0.8,0.7
			c-0.9,0.4-1.5,0.2-1.9-0.6c-0.2-0.4-0.6-0.9-1-1.6h-1c-0.5,0.8-1,1.5-1.5,2v1h6.4c0.8,0,1.3,0.4,1.3,1.3s-0.4,1.3-1.3,1.3h-6.4
			v1.5h8.7c0.9,0,1.3,0.4,1.3,1.3c0,0.9-0.4,1.3-1.3,1.3h-3.8v1.5h3c0.9,0,1.3,0.4,1.3,1.3s-0.4,1.3-1.3,1.3h-3v2.8
			c0,0.8-0.1,1.4-0.3,1.7c-0.2,0.4-0.6,0.7-1.1,0.9c-0.6,0.3-1.6,0.4-2.8,0.4C131.6,24.3,131,23.9,130.7,23.2z"/>
		<path class="st1" d="M149.1,24.3c-1,0-1.4-0.5-1.4-1.4V11.2c0,0,0,0.1-0.1,0.1c-0.1,0.1-0.1,0.2-0.2,0.2c-0.5,0.6-0.9,0.9-1.3,0.9
			c-0.4,0-0.8-0.4-1.1-1c-0.2-0.5-0.3-0.9-0.3-1.2c0.1-0.3,0.2-0.7,0.6-1.1c1.7-2,3.1-4.4,4.3-7.1c0.3-0.9,1-1.3,1.9-1
			c1,0.3,1.3,0.9,0.9,1.8c-0.5,1.2-1.1,2.5-1.9,3.9v8.8v7.4C150.5,23.8,150.1,24.3,149.1,24.3z M156.6,23.1
			c-0.4-1.2,0.1-1.8,1.7-1.8c0.1,0,0.1,0,0.2,0c0.3,0,0.5-0.1,0.5-0.4v-13H156c-0.3,0.8-0.8,1.6-1.5,2.6c-0.3,0.5-0.6,0.7-1,0.8
			c-0.3,0-0.7-0.1-1.1-0.5s-0.7-0.7-0.7-1c0-0.3,0.1-0.7,0.4-1.2c1.2-1.8,2.2-3.9,2.9-6.5c0.3-1,0.9-1.4,1.9-1.2
			c1,0.2,1.3,0.8,1.1,1.8c-0.2,0.7-0.5,1.5-0.8,2.3h4.3h5.2c0.5,0,1,0.2,1.2,0.5c0.3,0.3,0.4,0.8,0.3,1.4c-0.2,1.3-0.4,2.4-0.6,3.4
			c-0.1,0.4-0.2,0.6-0.5,0.7c-0.2,0.1-0.5,0.1-1,0c-0.9-0.2-1.2-0.6-1.1-1.4c0.1-0.4,0.1-1,0.2-1.8h-3.4v13.1c0,0.8-0.1,1.4-0.2,1.8
			c-0.2,0.5-0.5,0.8-0.9,1c-0.5,0.3-1.1,0.5-2,0.5C157.6,24.3,156.9,24,156.6,23.1z M154.2,20.5c-0.3,0.1-0.7,0-1.1-0.3
			c-0.5-0.3-0.8-0.6-0.8-0.9s0.1-0.7,0.4-1.2c0.7-1.3,1.4-2.9,1.8-4.6c0.2-1,0.8-1.5,1.8-1.3c1,0.2,1.3,0.8,1.1,1.8
			c-0.4,1.3-0.8,2.4-1.1,3.2c-0.3,0.9-0.7,1.7-1.2,2.6C154.8,20.2,154.5,20.4,154.2,20.5z M165.7,20.4c-0.3-0.1-0.5-0.5-0.6-1.1
			c-0.2-0.7-0.4-1.5-0.7-2.5c-0.3-1-0.7-2-1-3c-0.4-0.9-0.1-1.5,0.8-1.8c0.8-0.3,1.4,0,1.8,0.7c0.9,2.1,1.6,4.1,2,6.1
			c0.1,0.4,0,0.8-0.2,1c-0.2,0.2-0.5,0.4-0.9,0.5C166.4,20.5,166,20.6,165.7,20.4z"/>
		<path class="st1" d="M171.9,23.2c-0.3-1.1,0.2-1.6,1.5-1.6c0,0,0.1,0,0.1,0c0.3,0,0.4-0.1,0.4-0.4v-5.7l-0.9,0.3
			c-1,0.4-1.6,0-1.8-1c-0.2-0.9,0.1-1.5,0.9-1.7c0.2-0.1,0.6-0.2,1.1-0.4c0.3-0.1,0.6-0.2,0.8-0.3V8.1h-1.3c-0.9,0-1.4-0.5-1.4-1.4
			s0.5-1.4,1.4-1.4h1.3V1.9c0-0.9,0.5-1.4,1.4-1.4c0.9,0,1.4,0.5,1.4,1.4v3.4h2.1l0-0.1c-0.1-0.1,0-0.2,0-0.3
			c0.1-0.1,0.2-0.2,0.3-0.3c0.4-0.2,0.8-0.3,1.3-0.4c0.5,0,0.9,0.1,1,0.4c0.2,0.4,0.6,1.1,1.1,2l0,0.1V2.1c0-0.9,0.5-1.4,1.4-1.4
			s1.4,0.5,1.4,1.4v4.2v5.5c0,2.7-0.2,4.8-0.7,6.4c-0.6,2.1-1.8,3.8-3.5,5.1c-0.9,0.6-1.7,0.6-2.3,0c-0.8-0.8-0.6-1.7,0.7-2.5
			c1.5-1.3,2.4-2.9,2.8-5c-0.1,0-0.1,0.1-0.2,0.2c-0.7,0.5-1.2,0.9-1.5,1.2c-0.8,0.6-1.5,0.5-2-0.4c-0.3-0.4-0.4-0.8-0.4-1.1
			c0-0.3,0.3-0.6,0.7-0.8c1-0.6,2.2-1.4,3.7-2.4l0.1,0.1v-0.8V9.2l-0.8,0.5c-0.2,0.1-0.4,0.2-0.5,0.1c-0.2,0-0.3-0.1-0.3-0.3
			c-0.5-1.3-1.1-2.7-2-4.1v1.4c0,0.4-0.1,0.7-0.3,0.9s-0.5,0.4-0.9,0.4h-0.8v3.3l0.5-0.2c0.9-0.3,1.5,0,1.7,1
			c0.2,0.8-0.1,1.3-0.9,1.6c-0.2,0.1-0.4,0.1-0.7,0.2c-0.3,0.1-0.5,0.2-0.7,0.3v6.8c0,0.7-0.1,1.3-0.2,1.7c-0.2,0.4-0.4,0.7-0.8,1
			c-0.5,0.3-1.1,0.5-1.9,0.5C172.8,24.3,172.2,23.9,171.9,23.2z M189.8,24.1c-1.1,0-1.9-0.3-2.3-0.8c-0.4-0.6-0.6-1.6-0.6-3.2v-9.6
			V2.2c0-0.9,0.5-1.4,1.4-1.4c0.9,0,1.4,0.5,1.4,1.4v6.1c0.6-1.2,1.1-2.3,1.5-3.4c0.2-0.5,0.4-0.8,0.7-0.9c0.3-0.1,0.7-0.1,1.2,0.2
			c0.9,0.4,1,1.1,0.5,2.1c-0.1,0.1-0.2,0.3-0.3,0.6c-0.6,1-1,1.8-1.3,2.2c-0.2,0.3-0.5,0.5-0.9,0.6c-0.4,0.1-0.8,0-1.2-0.2l-0.3-0.2
			v2.9l0.4-0.4c0.2-0.2,0.4-0.2,0.6,0c1.3,1.1,2.5,2.2,3.5,3.4c0.3,0.3,0.4,0.6,0.3,0.9c-0.1,0.2-0.2,0.5-0.5,0.8
			c-0.4,0.4-0.7,0.7-1,0.7c-0.3,0-0.6-0.2-0.9-0.6c-0.7-0.9-1.6-1.8-2.5-2.7V20c0,0.6,0,1,0.1,1.1c0.1,0.2,0.2,0.2,0.5,0.2h1.4
			c0.2,0,0.3-0.2,0.4-0.5c0.1-0.8,0.2-1.3,0.5-1.7c0.3-0.5,0.7-0.6,1.3-0.4c0.3,0.2,0.6,0.5,0.7,1c0.1,0.4,0.1,0.9,0.1,1.4
			c-0.2,1-0.5,1.7-0.9,2.2c-0.4,0.4-1,0.7-1.8,0.7H189.8z"/>
		<path class="st1" d="M204.2,24.3c-1,0-1.4-0.5-1.4-1.4v-2.2h-4.1c-0.9,0-1.3-0.4-1.3-1.3s0.4-1.3,1.3-1.3h4.1v-1.3h-2.8
			c-0.5,0-0.9-0.2-1.2-0.5c-0.3-0.3-0.5-0.7-0.5-1.2V9.2c0-0.5,0.2-0.9,0.5-1.2c0.3-0.3,0.7-0.5,1.2-0.5h4.3h4.3
			c0.5,0,0.9,0.2,1.2,0.5c0.3,0.3,0.5,0.7,0.5,1.2v5.9c0,0.5-0.2,0.9-0.5,1.2c-0.3,0.3-0.7,0.5-1.2,0.5h-3v1.3h3.9
			c0.9,0,1.3,0.4,1.3,1.3s-0.4,1.3-1.3,1.3h-3.9v2.2C205.7,23.9,205.2,24.3,204.2,24.3z M199.8,6.6c-0.5,0-0.9-0.2-1.2-0.5
			c-0.3-0.3-0.5-0.7-0.5-1.2V2.8c0-0.5,0.2-0.9,0.5-1.2s0.7-0.5,1.2-0.5h1.2h1.5c0.4,0,0.7,0.1,1,0.4s0.4,0.6,0.4,1v2.5
			c0,0.5-0.2,0.9-0.5,1.2c-0.3,0.3-0.7,0.5-1.2,0.5H199.8z M200.6,4.7h0.4c0.4,0,0.6-0.2,0.6-0.6V3.6c0-0.4-0.2-0.6-0.6-0.6h-0.1
			c-0.4,0-0.6,0.2-0.6,0.6v0.3v0.5C200.3,4.6,200.4,4.7,200.6,4.7z M200.9,11.1h2.1V9.8h-1h-0.6c-0.3,0-0.4,0.1-0.4,0.4V11.1z
			 M201.5,14.6h1.5v-1.4h-1h-1V14C200.9,14.4,201.1,14.6,201.5,14.6z M206.4,6.6c-0.5,0-0.9-0.2-1.2-0.5c-0.3-0.3-0.5-0.7-0.5-1.2
			V2.8c0-0.5,0.2-0.9,0.5-1.2c0.3-0.3,0.7-0.5,1.2-0.5h1.2h1.5c0.4,0,0.7,0.1,1,0.4c0.2,0.2,0.4,0.6,0.4,1v2.5
			c0,0.5-0.2,0.9-0.5,1.2c-0.3,0.3-0.7,0.5-1.2,0.5H206.4z M205.5,11.1h1.1h1.1v-0.7c0-0.4-0.2-0.6-0.6-0.6h-1.6V11.1z M205.5,14.6
			h1.1h0.6c0.3,0,0.5-0.2,0.5-0.5v-0.9h-2.2V14.6z M207.2,4.7h0.4c0.4,0,0.6-0.2,0.6-0.6V3.6c0-0.4-0.2-0.6-0.6-0.6h-0.1
			c-0.4,0-0.6,0.2-0.6,0.6v0.3v0.5C206.9,4.6,207,4.7,207.2,4.7z M218.5,24.4c-1.5-0.1-2.7-1.2-3.5-3.3c-0.9,0.9-1.8,1.7-2.7,2.3
			c-0.4,0.3-0.8,0.4-1.1,0.4c-0.3,0-0.7-0.2-1-0.5c-0.5-0.4-0.6-0.8-0.6-1.2c0.1-0.3,0.4-0.7,1-1c1.3-0.8,2.4-1.8,3.4-3
			c-0.5-2-0.8-4.5-1.1-7.5l-0.7,0.1c-0.9,0.1-1.5-0.3-1.6-1.3c-0.1-0.9,0.3-1.4,1.2-1.6l0.8-0.1c-0.1-1.3-0.2-3.1-0.3-5.5
			c0-1,0.4-1.5,1.4-1.5c0.9,0,1.4,0.5,1.4,1.5c0,1.7,0.1,3.4,0.2,5.2l4-0.5c0.9-0.1,1.5,0.3,1.6,1.2c0.1,0.9-0.3,1.4-1.2,1.6
			l-1.4,0.2l-2.7,0.3c0.2,1.7,0.3,3.3,0.5,4.6c0.6-1,1.1-2.1,1.5-3.2c0.3-0.9,0.9-1.2,1.8-0.7c0.7,0.4,0.9,0.9,0.6,1.6
			c-0.7,2-1.8,4-3.1,5.9c0.4,1.5,0.9,2.2,1.4,2.3c0.2,0,0.3-0.2,0.4-0.6c0.1-0.8,0.3-1.4,0.6-1.8c0.3-0.4,0.8-0.4,1.3,0
			c0.2,0.2,0.4,0.6,0.4,1.2c0,0.4,0,0.9-0.1,1.4C220.5,23.2,219.6,24.4,218.5,24.4z M217.9,5.1c-0.1-0.3-0.3-0.5-0.4-0.8
			c-0.3-0.5-0.5-0.9-0.6-1.1c-0.5-0.7-0.3-1.3,0.5-1.8c0.7-0.4,1.3-0.2,1.7,0.4c0.6,0.9,1.1,1.7,1.5,2.4c0.3,0.6,0.1,1.1-0.7,1.5
			C218.9,6.2,218.3,6,217.9,5.1z"/>
	</g>
</g>
<g id="圖層_3">
</g>
<g id="圖層_1">
</g>
<g id="圖層_6">
</g>
<g id="圖層_4">
</g>
<g id="拒菸">
</g>
</svg>
