<?xml version="1.0" encoding="utf-8"?>
<!-- Generator: Adobe Illustrator 25.0.0, SVG Export Plug-In . SVG Version: 6.00 Build 0)  -->
<svg version="1.1" xmlns="http://www.w3.org/2000/svg" xmlns:xlink="http://www.w3.org/1999/xlink" x="0px" y="0px"
	 viewBox="0 0 231.5 31.3" style="enable-background:new 0 0 231.5 31.3;" xml:space="preserve">
<style type="text/css">
	.st0{fill:#FFA105;}
	.st1{fill:#FFFFFF;}
</style>
<g id="圖層_7">
</g>
<g id="圖層_3">
	<g>
		<g>
			<path class="st0" d="M55.2,4.1c0-0.2-0.1-0.4-0.2-0.6c-0.3-0.9-1.1-2.1-3.1-2.7c-0.5-0.1-1-0.2-1.5-0.2c-1.4,0-2.5,0.6-3.4,1.6
				C46.3,0.8,44.9,0,43.1,0c-1.8,0-3.3,0.9-4,2.2c-0.2-0.1-0.4-0.3-0.5-0.4c-1-0.7-2-1.1-3-1.1c-0.5,0-1,0.1-1.5,0.3l-0.1,0
				l-0.1,0.1c-1.2,0.5-2,1.3-2.3,2.5c-0.1,0.2-0.1,0.3-0.1,0.5C30.8,4.4,30.4,4.7,30,5c-0.3,0.3-0.6,0.7-0.8,1.2
				c-0.4-0.3-0.8-0.6-1.4-0.9c-1.6-0.9-3-2-4.1-3.4c-1-1.2-2.4-1.9-4-1.9H19c-0.8,0-1.6,0.2-2.3,0.5c-0.8,0.4-1.4,0.9-1.9,1.6
				c-0.5,0.7-1.2,1.4-2.1,2.2c-0.2,0.1-0.3,0.3-0.5,0.4V4.5c0-2.7-1.9-4.5-4.5-4.5C5.1,0,3.2,1.9,3.2,4.5v0.8
				C1.3,5.9,0.1,7.5,0.1,9.7c0,1.9,1,3.4,2.5,4.1c-1.1,0.5-1.7,1.2-2,1.8c-0.5,1-0.7,2.1-0.4,3.4c0.4,1.8,1.5,3.1,3.1,3.5v0.2
				c-0.8,0.3-1.4,0.8-1.7,1.3c-0.5,0.6-1.2,1.9-0.6,3.9c0.6,2.2,2.5,3.4,4.9,3.4l0.2,0l0.2,0c1.4-0.1,2.6-0.5,3.5-1
				c0.1-0.1,0.3-0.2,0.4-0.3c0.8,0.4,1.5,0.5,2,0.5c0.2,0,0.5,0,0.7-0.1c0.3,0,0.5-0.1,0.8-0.2c0.1,0,0.1,0.1,0.2,0.1
				c0.8,0.6,1.8,0.9,2.9,0.9c0.9,0,1.7-0.3,2.4-0.7c0,0,0,0,0,0H22c0,0,0,0,0,0c0.7,0.4,1.4,0.7,2.3,0.7c1.1,0,2.1-0.3,2.9-0.8
				c0.1-0.1,0.2-0.1,0.3-0.2c0.3-0.1,0.5-0.2,0.7-0.4c0,0,0.1-0.1,0.1-0.1c0.1-0.1,0.2-0.1,0.3-0.2c0.1-0.1,0.2-0.1,0.4-0.2
				c0,0,0,0,0.1,0c0.3,0.1,0.5,0.1,0.8,0.1c0.3,0,0.6-0.2,0.8-0.4c0.1,0,0.1,0,0.2,0c0.1,0,0.3,0.1,0.4,0c0,0,0.1,0,0.1,0
				c0.1,0,0.3,0.1,0.4,0.1c0,0,0,0,0,0c0.1,0.1,0.1,0.1,0.1,0.2c0.9,0.9,2.1,1.4,3.4,1.4h15.9c1.3,0,2.5-0.5,3.4-1.4
				c0.9-0.9,1.4-2.1,1.4-3.4v-6.1c0-1.3-0.5-2.5-1.4-3.4c-0.2-0.2-0.5-0.4-0.7-0.6c2.4-0.3,4-2,4-4.5V8.4c0-1.3-0.5-2.5-1.4-3.4
				C56.2,4.6,55.7,4.3,55.2,4.1z M29.1,29.2C29.1,29.2,29.1,29.2,29.1,29.2C29.1,29.2,29.1,29.2,29.1,29.2z M31.2,28.9
				C31.2,28.9,31.3,28.9,31.2,28.9C31.2,28.9,31,28.9,31.2,28.9z"/>
			<path class="st0" d="M231.3,22.7c-0.4-1.1-1.1-2-2.4-2.8c-0.4-0.3-0.8-0.6-1.2-1c0.3-0.2,0.5-0.3,0.8-0.5c1.6-1.2,2-2.6,2-3.5
				c0-0.6-0.1-1.3-0.5-2.1c0.8-0.8,1.2-1.9,1.2-3.3V6.9c0-1.3-0.5-2.5-1.4-3.4c-0.9-0.9-2.1-1.4-3.4-1.4h-5.7
				c-0.8-1.3-2.2-2.1-4-2.1s-3.2,0.8-4,2.1h-5.5c-1.3,0-2.5,0.5-3.4,1.4c-0.4,0.4-0.8,0.9-1,1.5c-0.2-0.3-0.4-0.7-0.6-1
				c-0.6-0.9-1.4-1.6-2.4-1.9c-0.2-0.1-0.4-0.1-0.6-0.1c-0.2-0.3-0.4-0.5-0.5-0.7c-0.6-0.6-1.6-1.3-3.2-1.3c-1.2,0-2.2,0.4-3,1.1
				c-0.8-0.7-1.8-1.1-3.1-1.1c-1.6,0-2.9,0.7-3.7,1.8c-0.7-0.6-1.7-1-2.8-1h-4.1c-2.4,0-4,1.6-4.2,3.9c-0.2-0.4-0.4-0.7-0.7-1
				c-0.9-0.9-2.1-1.4-3.4-1.4h-6.7c-1.3,0-2.4,0.4-3.3,1.2c-0.4-0.1-0.9-0.2-1.3-0.2H157c-0.1-0.4-0.3-0.8-0.5-1.1
				c-0.4-0.7-1.3-1.6-3-1.9c-0.4-0.1-0.7-0.1-1.1-0.1c-1.7,0-3.8,1-4.3,3.7c-0.4,1.7-0.9,3.2-1.5,4.4c-0.6,1.1-0.9,2.2-0.7,3.2
				c0.1,0.5,0.3,0.9,0.5,1.4c-0.3,0.6-0.5,1.4-0.5,2.2c0,2.4,1.5,4.2,3.8,4.5c-0.4,0.9-0.9,1.7-1.6,2.4c-1.2,1.1-1.8,2.3-1.9,3.6
				c0,0.9,0.1,2.1,1.3,3.4c1.2,1.3,2.4,1.5,3.3,1.5c1.1,0,2.2-0.4,3.3-1.3l0.1-0.1l0.1-0.1c0.8-0.7,1.4-1.5,2-2.4
				c1.1,1.4,2.4,1.7,3.4,1.7c0,0,0,0,0,0c0.7,0,1.3-0.2,1.9-0.5c0.7,0.4,1.5,0.6,2.4,0.6h6.7c1.3,0,2.5-0.5,3.4-1.4
				c0.3-0.3,0.5-0.6,0.7-0.9c0.2,0.8,0.6,1.5,1.2,2.1c0.9,0.9,2.1,1.4,3.4,1.4h3.4c1.3,0,2.5-0.5,3.4-1.4c0.1-0.1,0.2-0.2,0.3-0.3
				c0.4,0.1,0.8,0.1,1.2,0.1h1c0.2,0.4,0.5,0.9,1,1.3c1,1,2.1,1.3,2.8,1.3l0.1,0h0.1c0.9,0,1.8-0.3,2.6-0.9c0,0,0.2-0.2,0.3-0.2
				c1.2,1.1,2.6,1.4,3.5,1.4c0.1,0,0.2,0,0.3,0c1.4,0,3.2-0.6,4.5-3.2c0.6,0.7,1.2,1.2,2,1.4c0.4,0.1,0.8,0.2,1.3,0.2
				c0.6,0,1.2-0.1,1.9-0.4c0.3-0.1,0.6-0.2,0.9-0.4c0.8,1.4,2.3,2.2,4.1,2.3l0.9,0c1,0,1.9-0.1,2.7-0.4c0.9-0.3,1.7-0.8,2.5-1.4
				c1-0.8,1.7-1.8,2.2-3c0.5,0.5,1.1,1,1.7,1.4l0.1,0.1c0.9,0.6,1.9,0.9,2.8,0.9c0.2,0,0.4,0,0.5,0c0.8-0.1,2-0.5,3.1-1.8
				C231.8,25.1,231.6,23.5,231.3,22.7z"/>
		</g>
		<g>
			<path class="st1" d="M3.8,26.9c-0.3-1.2,0.2-1.8,1.7-1.8c0.1,0,0.2,0,0.3,0c0.3,0,0.4-0.2,0.4-0.5V19l-1.1,0.4
				c-1.1,0.3-1.8,0-2-1.1C3,17.7,3,17.3,3.2,17s0.5-0.5,1.1-0.6c0.2-0.1,0.6-0.1,1.1-0.2C5.7,16,6,15.9,6.2,15.9v-4.7H4.5
				c-1,0-1.5-0.5-1.5-1.5c0-1,0.5-1.5,1.5-1.5h1.7V4.5c0-1,0.5-1.5,1.5-1.5c1,0,1.5,0.5,1.5,1.5v3.7h1.6c0.4,0,0.6,0.2,0.6,0.6v0.1
				c1.1-0.6,2.2-1.4,3.3-2.3c1-0.9,1.9-1.8,2.6-2.7c0.1-0.2,0.4-0.4,0.7-0.6c0.3-0.2,0.7-0.2,1-0.2h0.7c0.7,0,1.3,0.3,1.7,0.8
				c1.4,1.7,3.1,3.1,5,4.1c0.6,0.3,1,0.6,1.1,0.9c0.1,0.4,0,0.8-0.3,1.4c-0.3,0.5-0.6,0.7-0.9,0.8c-0.3,0.1-0.7,0-1.2-0.3
				c-0.6-0.3-1.2-0.8-1.9-1.3v0.7c0,0.3-0.2,0.5-0.5,0.5h-3.3h-2.9c-0.6,0-0.9-0.3-0.9-0.9V9.6c-0.6,0.4-1.3,0.9-2.1,1.5
				c-0.4,0.2-0.8,0.3-1.2,0.2s-0.7-0.4-0.9-0.8l0,0l0,0v0.5c0,0.2-0.1,0.3-0.3,0.3H9.2v3.9l0.8-0.2c1-0.3,1.5,0.1,1.6,1.1
				c0.1,0.8-0.2,1.3-1,1.6c-0.2,0.1-0.5,0.1-0.8,0.3c-0.3,0.1-0.5,0.1-0.6,0.2v6.6c0,0.8-0.1,1.4-0.2,1.8c-0.2,0.5-0.5,0.8-0.9,1.1
				c-0.5,0.3-1.2,0.5-2.2,0.6C4.8,28.2,4,27.8,3.8,26.9z M16.7,28.2c-0.5,0-0.9-0.1-1.2-0.4c-0.4-0.3-0.6-0.6-0.6-1v-3.7
				c-0.4,1.4-1,2.6-1.7,3.6c-0.3,0.4-0.7,0.6-1,0.7c-0.3,0.1-0.7-0.1-1.1-0.4c-0.7-0.7-0.7-1.5,0.1-2.5c1.2-2,1.8-4.7,1.8-8.2v-2.8
				c0-0.5,0.2-0.9,0.5-1.3c0.3-0.3,0.7-0.5,1.3-0.5h4.7h4.7c0.5,0,0.9,0.2,1.3,0.5c0.3,0.3,0.5,0.7,0.5,1.3v4.7
				c0,0.5-0.2,0.9-0.5,1.3c-0.3,0.3-0.7,0.5-1.3,0.5h-8.6c0,0.2-0.1,0.4-0.1,0.7c0,0.2,0,0.3-0.1,0.4h9.1c0.5,0,0.9,0.2,1.3,0.5
				s0.5,0.7,0.5,1.3v3.9c0,0.5-0.2,0.8-0.6,1.1c-0.4,0.2-0.8,0.4-1.3,0.4c-0.2,0-0.4-0.1-0.6-0.2c-0.2-0.1-0.3-0.3-0.3-0.5v-0.1
				h-5.8v0.1c0,0.2-0.1,0.4-0.3,0.5C17.2,28.1,17,28.2,16.7,28.2z M15.8,17.8h3.6h3c0.4,0,0.6-0.2,0.6-0.6v-0.5h-7.2
				c0,0.1,0,0.3,0,0.6C15.8,17.5,15.8,17.7,15.8,17.8z M15.9,15h3.6h3.6v-0.6c0-0.3-0.1-0.4-0.4-0.4h-6.1c-0.4,0-0.6,0.2-0.6,0.6V15
				z M17.1,8.4h2.4h1.8c0.4,0,0.5-0.2,0.1-0.5c-0.7-0.7-1.4-1.4-2-2.1C18.8,6.6,18.1,7.5,17.1,8.4z M18.3,25.1h2.3h2.3
				c0.4,0,0.6-0.2,0.6-0.6V24c0-0.4-0.2-0.6-0.6-0.6h-5.2v1.2C17.6,24.9,17.9,25.1,18.3,25.1z"/>
			<path class="st1" d="M33.2,12.8c-1,0-1.5-0.5-1.5-1.5V8.4c0-0.5,0.2-0.9,0.5-1.3c0.3-0.3,0.7-0.5,1.3-0.5h1.8
				c-0.1-0.3-0.4-0.7-0.8-1.3c-0.2-0.3-0.3-0.6-0.2-0.9C34.4,4.2,34.6,4,35,3.9l0.2-0.1c0.4-0.2,1,0,1.7,0.5c0.6,0.4,1,0.9,1.4,1.4
				c0.1,0.2,0.2,0.3,0.2,0.5c0,0.2,0,0.4-0.1,0.4l-0.1,0h3.3V4.6c0-1,0.5-1.6,1.6-1.6c1,0,1.6,0.5,1.6,1.6v2.1h3.2l-0.2-0.1
				c0.4-0.5,0.8-1.2,1.2-2c0.5-1,1.2-1.3,2.2-1c1.2,0.4,1.4,1.1,0.6,2.3c0,0,0,0.1-0.1,0.1c-0.2,0.3-0.4,0.6-0.5,0.7h2.1
				c0.5,0,0.9,0.2,1.3,0.5S55,7.9,55,8.4v2.8c0,1-0.5,1.6-1.6,1.6c-1.1,0-1.6-0.5-1.6-1.6V10c0-0.4-0.2-0.6-0.6-0.6h-7.9h-7.9
				c-0.4,0-0.6,0.2-0.6,0.6v1.3C34.7,12.3,34.2,12.8,33.2,12.8z M35.4,27.6c-0.5,0-0.9-0.2-1.3-0.5c-0.3-0.3-0.5-0.7-0.5-1.3v-6.1
				c0-0.5,0.2-0.9,0.5-1.3s0.7-0.5,1.3-0.5h8h8c0.5,0,0.9,0.2,1.3,0.5s0.5,0.7,0.5,1.3v6.1c0,0.5-0.2,0.9-0.5,1.3
				c-0.3,0.3-0.7,0.5-1.3,0.5H35.4z M37.9,16.9c-0.5,0-0.9-0.2-1.3-0.5s-0.5-0.7-0.5-1.3v-2.7c0-0.5,0.2-0.9,0.5-1.3
				s0.7-0.5,1.3-0.5h10.6c0.5,0,0.9,0.2,1.3,0.5c0.3,0.3,0.5,0.7,0.5,1.3v2.7c0,0.5-0.2,0.9-0.5,1.3c-0.3,0.3-0.7,0.5-1.3,0.5h-5.3
				H37.9z M36.6,21.7h2.5h2.5v-1.4h-4.3c-0.4,0-0.6,0.2-0.6,0.6V21.7z M37.3,25.3h4.4v-1.4h-2.5h-2.5v0.8
				C36.6,25.1,36.9,25.3,37.3,25.3z M39.8,14.6h3.3h3.4c0.4,0,0.6-0.2,0.6-0.6v-0.3c0-0.4-0.2-0.6-0.6-0.6h-6.7
				c-0.4,0-0.6,0.2-0.6,0.6v0.3C39.2,14.4,39.4,14.6,39.8,14.6z M44.7,21.7h2.6h2.6V21c0-0.4-0.2-0.6-0.6-0.6h-4.6V21.7z M44.7,25.3
				h4.6c0.4,0,0.6-0.2,0.6-0.6v-0.8h-2.6h-2.6V25.3z"/>
			<path class="st1" d="M149.7,27c-0.8-0.9-0.6-1.8,0.5-2.8c1.8-1.9,2.9-4.4,3.4-7.5h-3.2c-1,0-1.5-0.5-1.5-1.5s0.5-1.5,1.5-1.5h3.4
				V13V9.4h-1.1c-0.3,0.8-0.7,1.6-1,2.2c-0.3,0.5-0.6,0.8-0.9,0.8c-0.3,0.1-0.7-0.1-1.2-0.4c-0.5-0.3-0.7-0.7-0.8-1
				c-0.1-0.3,0-0.7,0.3-1.2c0.8-1.4,1.4-3.1,1.8-5.2c0.2-1.1,0.9-1.6,1.9-1.3c1,0.2,1.4,0.8,1.2,1.8c-0.1,0.5-0.2,0.9-0.4,1.3h3.5
				h2.1c1,0,1.5,0.5,1.5,1.5c0,1-0.5,1.5-1.5,1.5h-2.3V13v0.6h2.9c1,0,1.5,0.5,1.5,1.5s-0.5,1.5-1.5,1.5h-3.1
				c-0.1,0.5-0.1,0.9-0.2,1.1c0.8,0.8,2.2,2.4,4.3,4.9c0.3,0.4,0.4,0.7,0.4,0.9c-0.1,0.2-0.3,0.5-0.6,1c-0.4,0.6-0.8,0.8-1.2,0.9
				c-0.4,0-0.7-0.3-1.1-0.8c-0.8-1.1-1.6-2.3-2.7-3.5c-0.8,2.3-2,4.3-3.6,5.9C151.2,27.7,150.4,27.8,149.7,27z M163.9,25.5
				c-0.5,0-0.9-0.2-1.3-0.5c-0.3-0.3-0.5-0.7-0.5-1.3V7.1c0-0.5,0.2-0.9,0.5-1.3s0.7-0.5,1.3-0.5h3.3h3.3c0.5,0,0.9,0.2,1.3,0.5
				s0.5,0.7,0.5,1.3v16.7c0,0.5-0.2,0.9-0.5,1.3c-0.3,0.3-0.7,0.5-1.3,0.5H163.9z M165.9,22.5h2.6c0.4,0,0.6-0.2,0.6-0.6V9
				c0-0.4-0.2-0.6-0.6-0.6h-2.6c-0.4,0-0.6,0.2-0.6,0.6v6.4v6.4C165.2,22.3,165.4,22.5,165.9,22.5z"/>
			<path class="st1" d="M177.8,10c-0.8,0-1.3-0.4-1.3-1.3s0.4-1.3,1.3-1.3h2.9h2.9c0.8,0,1.3,0.4,1.3,1.3s-0.4,1.3-1.3,1.3H177.8z
				 M179.2,26.8c-0.5,0-0.9-0.2-1.3-0.5c-0.3-0.3-0.5-0.7-0.5-1.3v-4.6c0-0.5,0.2-0.9,0.5-1.3s0.7-0.5,1.3-0.5h1.7h1.8
				c0.5,0,0.9,0.1,1.2,0.4s0.4,0.7,0.4,1.2V25c0,0.5-0.2,0.9-0.5,1.3c-0.3,0.3-0.7,0.5-1.3,0.5H179.2z M178.8,13.7
				c-0.8,0-1.2-0.4-1.2-1.2c0-0.8,0.4-1.2,1.2-1.2h2.1h2.2c0.8,0,1.2,0.4,1.2,1.2c0,0.8-0.4,1.2-1.2,1.2H178.8z M178.7,17.3
				c-0.8,0-1.2-0.4-1.2-1.2c0-0.8,0.4-1.2,1.2-1.2h4.3c0.8,0,1.2,0.4,1.2,1.2c0,0.8-0.4,1.2-1.2,1.2h-2.2H178.7z M178.9,6.3
				c-0.8,0-1.2-0.4-1.2-1.2c0-0.8,0.4-1.2,1.2-1.2h2.1h2.1c0.8,0,1.2,0.4,1.2,1.2c0,0.8-0.4,1.2-1.2,1.2H178.9z M180.5,24.2h0.7
				c0.4,0,0.6-0.2,0.6-0.6v-0.9v-0.9c0-0.4-0.2-0.6-0.6-0.6h-0.7c-0.4,0-0.6,0.2-0.6,0.6v1.8C179.9,24,180.1,24.2,180.5,24.2z
				 M199,28.3c-1.4-0.1-2.4-1.1-3.1-2.9c-0.7,0.7-1.5,1.5-2.5,2.2c-0.3,0.2-0.6,0.4-0.9,0.4c-0.3,0-0.5-0.2-0.8-0.5
				c-0.4-0.4-0.5-0.7-0.5-1s0.3-0.6,0.7-0.9c0.1-0.1,0.2-0.2,0.4-0.3l0.1-0.1h-4.9c-0.5,0-0.9-0.2-1.3-0.5c-0.3-0.3-0.5-0.7-0.5-1.3
				v-5.9c0-0.5,0.2-0.9,0.5-1.3s0.7-0.5,1.3-0.5h4c0.5,0,0.9,0.2,1.3,0.5c0.3,0.3,0.5,0.7,0.5,1.3v6.8c0.7-0.7,1.3-1.4,1.9-2
				c-0.3-1.9-0.6-4.5-0.7-7.8h-4.9H186c-0.8,0-1.3-0.4-1.3-1.3c0-0.8,0.4-1.3,1.3-1.3h0.7c-0.1-0.9-0.2-1.9-0.5-3
				c-0.1-0.3,0-0.5,0.4-0.6l0.1,0c0.5-0.1,0.9,0,1.3,0.2c0.3,0.3,0.5,0.6,0.7,1.2c0.1,0.5,0.1,1-0.1,1.3c-0.2,0.4-0.5,0.6-1,0.8
				l-0.3,0.1h4.3l-0.8-0.2c-0.4-0.1-0.6-0.3-0.5-0.7c0.1-0.7,0.3-1.6,0.4-2.6c0-0.4-0.2-0.6-0.6-0.6h-3.6c-0.8,0-1.2-0.4-1.2-1.2
				c0-0.8,0.4-1.2,1.2-1.2h1.6V4.5c0-1,0.5-1.5,1.5-1.5s1.5,0.5,1.5,1.5v1.2h1.6c0.8,0,1.2,0.4,1.2,1.2c0,0.8-0.4,1.2-1.2,1.2h-1.8
				l1.3,0.2c0.4,0.1,0.6,0.2,0.8,0.4c0.1,0.2,0.2,0.6,0.1,0.9c-0.3,1.1-0.5,1.9-0.6,2.4h2.1c-0.1-2.3-0.1-4.8-0.1-7.6
				c0-1,0.5-1.5,1.4-1.5c0.9,0,1.4,0.5,1.3,1.4v1.1l1.2-0.5c0.3-0.1,0.6-0.1,0.9-0.1c0.3,0.1,0.5,0.3,0.7,0.6c0.5,0.8,1,1.8,1.4,2.9
				c0.1,0.4,0.1,0.7,0,0.9c-0.1,0.2-0.4,0.4-0.8,0.6c-0.5,0.2-0.9,0.2-1.1,0.1s-0.5-0.4-0.6-0.9c-0.4-1.2-1-2.4-1.7-3.5
				c0,2.5,0,4.6,0,6.3h3.1c0.8,0,1.3,0.4,1.3,1.3c0,0.9-0.4,1.3-1.3,1.3h-3c0,1.3,0.1,2.7,0.3,4.4c0.3-0.6,0.6-1.2,0.8-1.8
				c0.3-1,1-1.2,1.8-0.7c0.7,0.4,0.9,1,0.6,1.8c-0.7,1.7-1.6,3.2-2.6,4.7c0.3,1.2,0.8,1.8,1.3,1.9c0.1,0,0.2-0.1,0.3-0.4
				c0.1-0.8,0.3-1.3,0.6-1.6c0.3-0.3,0.7-0.3,1.2,0.1c0.4,0.4,0.5,1.2,0.2,2.4C200.9,27.4,200.1,28.3,199,28.3z M188.1,19.4h1.3h1.3
				v-0.8c0-0.4-0.2-0.6-0.6-0.6h-1.4c-0.4,0-0.6,0.2-0.6,0.6V19.4z M188.7,23h2v-1.4h-1.3h-1.3v0.8C188.1,22.8,188.3,23,188.7,23z"
				/>
			<path class="st1" d="M214,28.3c-1,0-1.6-0.5-1.8-1.3c-0.2-0.7-0.2-1.2,0.2-1.4c0.3-0.2,0.8-0.3,1.6-0.3c0.1,0,0.2,0,0.2,0
				c0.8,0,1.3-0.2,1.6-0.6c0.3-0.3,0.6-0.6,0.7-1.2c0.2-0.5,0.2-1.2,0.2-1.9c-2.6,1.9-5.5,3.5-8.9,4.9c-0.5,0.2-0.9,0.2-1.2,0.1
				c-0.3-0.1-0.6-0.4-0.8-0.8c-0.3-0.6-0.4-1-0.2-1.4c0.2-0.3,0.6-0.6,1.2-0.8c1.7-0.6,3.4-1.3,5-2.2c1.7-0.9,3.1-1.8,4.2-2.7
				c-0.2-0.4-0.4-0.7-0.5-0.9c-1.9,1.3-4.2,2.5-6.9,3.6c-0.4,0.1-0.8,0.2-1.1,0.1c-0.3-0.1-0.5-0.3-0.8-0.7
				c-0.4-0.5-0.5-0.9-0.3-1.3c0.1-0.3,0.5-0.5,1.2-0.7c2.6-0.9,4.8-1.9,6.4-3c-0.3-0.3-0.5-0.5-0.7-0.6c-1.8,0.8-3.5,1.5-5.1,1.9
				c-0.8,0.2-1.4,0-1.9-0.6c-0.7-1-0.4-1.7,0.9-1.9c2.4-0.6,4.5-1.4,6.2-2.3H211c-0.9,0-1.3-0.4-1.3-1.3s0.4-1.3,1.3-1.3h5.8h5.8
				c0.9,0,1.3,0.4,1.3,1.3s-0.5,1.3-1.3,1.3h-1.7c0.3,1,0.7,2.1,1.1,3.1c1-0.7,1.9-1.3,2.7-2c0.7-0.6,1.4-0.6,2.2,0
				c0.9,0.8,0.8,1.5-0.2,2.3c-1.1,0.8-2.2,1.5-3.4,2.2c1.1,1.8,2.4,3.2,4,4.3c0.7,0.4,1.1,0.8,1.2,1.2c0.1,0.5,0,1-0.5,1.5
				c-0.4,0.5-0.7,0.7-1.1,0.7c-0.4,0.1-0.8-0.1-1.3-0.4c-3.5-2.5-6-6.8-7.5-12.9h-0.1c-0.6,0.5-1.4,1-2.2,1.6c1.6,1.4,2.7,3,3.4,4.9
				c0.6,1.7,0.8,3.3,0.5,4.9c-0.3,1.5-0.8,2.6-1.7,3.3c-0.5,0.4-1,0.7-1.5,0.9c-0.5,0.2-1.1,0.2-1.8,0.2
				C214.5,28.3,214.2,28.3,214,28.3z M207.1,11.2c-1,0-1.6-0.5-1.6-1.6V6.9c0-0.5,0.2-0.9,0.5-1.3s0.7-0.5,1.3-0.5h7.9V4.6
				c0-1.1,0.5-1.6,1.6-1.6s1.6,0.5,1.6,1.6v0.5h8c0.5,0,0.9,0.2,1.3,0.5s0.5,0.7,0.5,1.3v2.6c0,1.1-0.5,1.6-1.6,1.6
				c-1.1,0-1.6-0.5-1.6-1.6V8.7c0-0.4-0.2-0.6-0.6-0.6h-7.5h-7.5c-0.4,0-0.6,0.2-0.6,0.6v0.9C208.7,10.6,208.1,11.2,207.1,11.2z"/>
		</g>
	</g>
</g>
<g id="圖層_1">
</g>
<g id="圖層_6">
</g>
<g id="圖層_4">
</g>
<g id="拒菸">
</g>
</svg>
