<?xml version="1.0" encoding="utf-8"?>
<!-- Generator: Adobe Illustrator 25.0.0, SVG Export Plug-In . SVG Version: 6.00 Build 0)  -->
<svg version="1.1" xmlns="http://www.w3.org/2000/svg" xmlns:xlink="http://www.w3.org/1999/xlink" x="0px" y="0px"
	 viewBox="0 0 468.9 36.1" style="enable-background:new 0 0 468.9 36.1;" xml:space="preserve">
<style type="text/css">
	.st0{fill:#FFB337;}
	.st1{fill:#FA8D93;}
	.st2{fill:#13B6CD;}
	.st3{fill:#FEFEFE;}
	.st4{fill:#2E2E2E;}
	.st5{fill:#FFFFFF;}
</style>
<g id="圖層_2">
</g>
<g id="圖層_1">
	<g>
		<path class="st0" d="M0,18.7C-0.1,13.1,1.4,8.1,5.7,4.4c5.3-4.9,13-5.1,19.6-3.6c6,1.2,12,5.4,13.6,11.9c1.8,8.4-1.4,17-9,20.7
			c-5.1,2.5-11,3.2-16.6,2.3C4.8,34.4,0.2,27.3,0,18.7z"/>
	</g>
	<g>
		<path class="st1" d="M104.4,18.7c-0.1-5.7,1.4-10.6,5.7-14.3c5.3-4.9,13-5.1,19.6-3.6c6,1.2,12,5.4,13.6,11.9
			c1.8,8.4-1.4,17-9,20.7c-5.1,2.5-11,3.2-16.6,2.3C109.2,34.4,104.6,27.3,104.4,18.7z"/>
	</g>
	<g>
		<path class="st2" d="M203.1,18.7c-0.1-5.7,1.4-10.6,5.7-14.3c5.3-4.9,13-5.1,19.6-3.6c6,1.2,12,5.4,13.6,11.9
			c1.8,8.4-1.4,17-9,20.7c-5.1,2.5-11,3.2-16.6,2.3C207.9,34.4,203.3,27.3,203.1,18.7z"/>
	</g>
	<g>
		<path class="st3" d="M18.6,30.4c-1.1,0-1.6-0.5-1.6-1.6V18.1c-2,2.2-4.2,4-6.5,5.4c-1,0.5-1.8,0.4-2.3-0.4c-0.8-1-0.5-1.8,0.7-2.5
			c1.8-1.1,3.5-2.4,5.1-4.1c1.5-1.5,2.8-3.1,3.8-4.9H9.4c-1,0-1.5-0.5-1.5-1.5c0-1,0.5-1.5,1.5-1.5h9.3h9.3c1,0,1.5,0.5,1.5,1.5
			c0,1-0.5,1.5-1.5,1.5h-6.2c-0.4,0.7-0.9,1.5-1.5,2.3v2.6l1-0.8c0.3-0.2,0.5-0.3,0.9-0.4c0.3,0,0.6,0.1,0.8,0.3
			c2.9,2.1,5,3.9,6.4,5.2c0.4,0.4,0.5,0.7,0.5,1.1c-0.1,0.3-0.3,0.7-0.7,1.1c-0.5,0.4-0.8,0.6-1.1,0.7c-0.4,0-0.7-0.2-1.1-0.6
			c-1.6-1.6-3.8-3.5-6.7-5.8v11.4C20.2,29.9,19.7,30.4,18.6,30.4z"/>
		<path class="st4" d="M43.7,16.7c-0.8,0-1.2-0.4-1.2-1.1V14c0-0.4,0.1-0.7,0.4-1c0.3-0.3,0.6-0.4,1-0.4h1.7
			c-0.1-0.1-0.2-0.3-0.3-0.5c-0.1-0.1-0.1-0.2-0.2-0.3c-0.1-0.2-0.2-0.4-0.1-0.5c0.1-0.2,0.2-0.3,0.4-0.3l0.6-0.2
			c0.2-0.1,0.5,0,0.8,0.2c0.3,0.2,0.5,0.4,0.6,0.6c0.1,0.2,0.2,0.4,0.3,0.6c0,0.2-0.1,0.4-0.3,0.4l0,0h2.8v-1c0-0.8,0.4-1.2,1.2-1.2
			c0.8,0,1.2,0.4,1.2,1.2v1h3l-0.4-0.1c-0.2,0-0.2-0.1-0.1-0.3c0.1-0.2,0.3-0.5,0.6-0.9c0.4-0.6,0.9-0.8,1.6-0.7
			c1,0.2,1.1,0.8,0.4,1.6c0,0-0.1,0.1-0.1,0.1c-0.1,0.1-0.1,0.1-0.1,0.1H59c0.4,0,0.7,0.1,1,0.4c0.3,0.3,0.4,0.6,0.4,1v1.4
			c0,0.8-0.4,1.2-1.2,1.2c-0.8,0-1.2-0.4-1.2-1.2v-0.6c0-0.3-0.2-0.5-0.5-0.5h-6.1h-6.1c-0.3,0-0.5,0.2-0.5,0.5v0.6
			C44.8,16.3,44.4,16.7,43.7,16.7z M48.9,22.9c-1.9,0-3.1-0.1-3.8-0.4c-0.7-0.3-1-0.9-1-1.8v-1.3c0-0.3,0.1-0.6,0.3-0.8
			s0.5-0.3,0.8-0.3h0.6v-1.8c0-0.4,0.1-0.7,0.4-1c0.3-0.3,0.6-0.4,1-0.4h4.3h4.3c0.4,0,0.7,0.1,1,0.4c0.3,0.3,0.4,0.6,0.4,1v0.7
			c0,0.4-0.1,0.7-0.4,1c-0.3,0.3-0.6,0.4-1,0.4h-9.4v0.8c4.6-0.1,8.1-0.3,10.5-0.6c0.2,0,0.7,0.3,1.4,0.9c0.2,0.2,0.2,0.2,0.1,0.3
			l0,0c0.3,0.1,0.6,0.3,0.9,0.4c0.6,0.1,0.8,0.5,0.6,1.2c-0.2,0.6-0.6,0.9-1.1,1.2c-0.5,0.2-1.3,0.3-2.3,0.3H48.9z M46.1,29.6
			c-0.4,0-0.7-0.1-1-0.4c-0.3-0.3-0.4-0.6-0.4-1v-3.3c0-0.4,0.1-0.7,0.4-1c0.3-0.3,0.6-0.4,1-0.4h5.4H57c0.4,0,0.7,0.1,1,0.4
			c0.3,0.3,0.4,0.6,0.4,1v3.3c0,0.4-0.1,0.7-0.4,1c-0.3,0.3-0.6,0.4-1,0.4H46.1z M48.8,21.4h3.7h3.7c0.8,0,1.3-0.1,1.5-0.3
			c0.2-0.2,0.4-0.6,0.5-1.2c-2.8,0.5-6.6,0.8-11.4,0.8c-0.2,0-0.3,0-0.4,0.1c-0.1,0.1-0.1,0.1-0.1,0.2c0.1,0.2,0.3,0.3,0.7,0.3
			C47.4,21.4,48,21.4,48.8,21.4z M47.1,25.9h4.4h4.4v-0.5c0-0.2-0.1-0.3-0.3-0.3h-7.9c-0.3,0-0.5,0.2-0.5,0.5V25.9z M47.5,28.1h7.9
			c0.3,0,0.5-0.2,0.5-0.5v-0.4h-4.4h-4.4v0.5C47.1,28,47.2,28.1,47.5,28.1z M48,17.2h6.2c0.3,0,0.4-0.1,0.4-0.4v-0.1
			c0-0.2-0.1-0.4-0.4-0.4h-2.9h-2.8c-0.3,0-0.5,0.2-0.5,0.5V17.2z"/>
		<path class="st4" d="M65.4,15.9c-0.7,0-1-0.3-1-1c0-0.7,0.3-1,1-1h2.8h2.8c0.7,0,1,0.3,1,1c0,0.7-0.3,1-1,1H65.4z M66.6,29
			c-0.4,0-0.7-0.1-1-0.4c-0.3-0.3-0.4-0.6-0.4-1V24c0-0.4,0.1-0.7,0.4-1c0.3-0.3,0.6-0.4,1-0.4h1.7H70c0.4,0,0.7,0.1,1,0.4
			c0.3,0.3,0.4,0.6,0.4,1v3.6c0,0.4-0.1,0.7-0.4,1S70.4,29,70,29H66.6z M66.2,18.8c-0.6,0-0.9-0.3-0.9-1c0-0.6,0.3-0.9,0.9-0.9h4.2
			c0.6,0,0.9,0.3,0.9,0.9c0,0.6-0.3,1-0.9,1h-2.1H66.2z M66.2,21.6c-0.6,0-0.9-0.3-0.9-0.9c0-0.6,0.3-0.9,0.9-0.9h4.3
			c0.6,0,0.9,0.3,0.9,0.9c0,0.6-0.3,0.9-0.9,0.9h-2.1H66.2z M66.3,13c-0.6,0-0.9-0.3-0.9-0.9c0-0.6,0.3-0.9,0.9-0.9h2h2
			c0.6,0,0.9,0.3,0.9,0.9c0,0.6-0.3,0.9-0.9,0.9H66.3z M67.8,27h1c0.3,0,0.5-0.2,0.5-0.5v-0.7v-0.7c0-0.3-0.2-0.5-0.5-0.5h-1
			c-0.3,0-0.5,0.2-0.5,0.5v1.4C67.3,26.9,67.4,27,67.8,27z M72.4,28.6c-0.2-0.1-0.3-0.4-0.4-0.8c-0.2-0.8,0.1-1.2,0.9-1.3
			c0.1,0,0.3-0.1,0.5-0.1c0.2,0,0.3,0,0.4-0.1v-5.1h-0.7c-0.7,0-1.1-0.4-1.1-1.1s0.4-1.1,1.1-1.1H75h1.8c0.7,0,1.1,0.4,1.1,1.1
			s-0.4,1.1-1.1,1.1h-0.5v4.7l1-0.2c0.7-0.1,1.1,0.2,1.2,0.9c0,0.6-0.2,1-0.8,1.2c-0.3,0.1-0.7,0.1-1.3,0.3c-1.4,0.3-2.3,0.5-3,0.6
			C72.9,28.7,72.6,28.7,72.4,28.6z M81.8,30.1c-1.2,0-2.1-1.2-2.7-3.6c-0.5-2-0.8-5.3-0.9-9.8h-3h-1.9c-0.8,0-1.1-0.4-1.1-1.1
			s0.4-1.1,1.1-1.1h4.8c0-0.3,0-0.7,0-1.4c0-0.6,0-1.1,0-1.4c0-0.4,0.1-0.7,0.3-0.9c0.2-0.2,0.5-0.3,0.9-0.3c0.7,0,1.1,0.3,1.1,1v0
			l0.9-0.5c0.2-0.1,0.5-0.2,0.7-0.1c0.2,0,0.4,0.2,0.6,0.4c0.2,0.3,0.5,0.7,0.8,1.1c0.3,0.5,0.2,0.9-0.4,1.3
			c-0.6,0.4-1.1,0.3-1.4-0.3c-0.4-0.7-0.8-1.3-1.2-1.8c0,1,0,1.9,0,2.8h1.9c0.8,0,1.1,0.4,1.1,1.1s-0.4,1.1-1.1,1.1h-1.9
			c0.1,3.1,0.2,5.6,0.5,7.4c0.3,1.9,0.6,2.9,0.9,2.9c0.1,0,0.2-0.1,0.2-0.3c0.1-0.7,0.2-1.1,0.5-1.3c0.3-0.3,0.6-0.3,1,0.1
			c0.2,0.2,0.3,0.5,0.3,0.9c0,0.4,0,0.7-0.1,1.1C83.3,29.2,82.7,30.1,81.8,30.1z"/>
		<path class="st5" d="M124.6,30.4c-1.1,0-1.6-0.5-1.6-1.6V18.1c-2,2.2-4.2,4-6.5,5.4c-1,0.5-1.8,0.4-2.3-0.4
			c-0.8-1-0.5-1.8,0.7-2.5c1.8-1.1,3.5-2.4,5.1-4.1c1.5-1.5,2.8-3.1,3.8-4.9h-8.4c-1,0-1.5-0.5-1.5-1.5c0-1,0.5-1.5,1.5-1.5h9.3h9.3
			c1,0,1.5,0.5,1.5,1.5c0,1-0.5,1.5-1.5,1.5h-6.2c-0.4,0.7-0.9,1.5-1.5,2.3v2.6l1-0.8c0.3-0.2,0.5-0.3,0.9-0.4
			c0.3,0,0.6,0.1,0.8,0.3c2.9,2.1,5,3.9,6.4,5.2c0.4,0.4,0.5,0.7,0.5,1.1c-0.1,0.3-0.3,0.7-0.7,1.1c-0.5,0.4-0.8,0.6-1.1,0.7
			c-0.4,0-0.7-0.2-1.1-0.6c-1.6-1.6-3.8-3.5-6.7-5.8v11.4C126.2,29.9,125.6,30.4,124.6,30.4z"/>
		<path class="st4" d="M147.9,29.8c-0.2,0-0.5,0-0.8-0.2c-0.3-0.2-0.5-0.5-0.6-0.7c0-0.3,0.1-0.5,0.3-0.9c0.4-0.6,0.7-1.3,1-2
			c0.2-0.7,0.7-1,1.4-0.8c0.8,0.2,1,0.6,0.7,1.4c-0.2,0.4-0.4,0.9-0.7,1.5c-0.2,0.4-0.5,0.9-0.8,1.3
			C148.4,29.6,148.2,29.8,147.9,29.8z M148.7,24.8c-0.4,0-0.7-0.1-1-0.4c-0.3-0.3-0.4-0.6-0.4-1V12.6c0-0.4,0.1-0.7,0.4-1
			c0.3-0.3,0.6-0.4,1-0.4h1.8h1.8c0.4,0,0.7,0.1,1,0.4c0.3,0.3,0.4,0.6,0.4,1v10.8c0,0.4-0.1,0.7-0.4,1c-0.3,0.3-0.6,0.4-1,0.4
			H148.7z M149.4,15.2h1h1v-1.4c0-0.3-0.2-0.5-0.5-0.5h-1c-0.3,0-0.5,0.2-0.5,0.5V15.2z M149.4,19h1h1v-2h-2.1V19z M149.9,22.8h0.5
			h0.6c0.3,0,0.4-0.1,0.4-0.4v-1.5h-2.1v1.5C149.4,22.6,149.6,22.8,149.9,22.8z M152.6,28.9c-0.2-0.1-0.4-0.3-0.5-0.7
			c-0.1-0.2-0.2-0.5-0.3-0.7c0-0.1-0.1-0.2-0.2-0.5c-0.1-0.2-0.2-0.4-0.2-0.5c-0.3-0.6-0.2-1.1,0.5-1.3c0.5-0.2,1-0.1,1.3,0.4
			c0.4,0.7,0.7,1.3,1,1.8c0.2,0.5,0,1-0.5,1.3C153.1,28.9,152.8,29,152.6,28.9z M156.1,30.1c-0.7,0-1.1-0.4-1.1-1.1v-2.2h-0.3
			c-0.6,0-0.9-0.3-0.9-0.9c0-0.6,0.3-0.9,0.9-0.9h0.3v-1.1h-0.1c-0.5,0-0.8-0.3-0.8-0.8c0-0.5,0.3-0.8,0.8-0.8h0.1v-1.4
			c0-0.4,0.1-0.7,0.3-0.9c0.2-0.2,0.5-0.3,0.9-0.3h2.5v-0.8h-3.9c-0.6,0-0.9-0.3-0.9-0.9c0-0.6,0.3-0.9,0.9-0.9h1.7v-0.8h-0.9
			c-0.5,0-0.8-0.3-0.8-0.8c0-0.5,0.3-0.8,0.8-0.8h0.9v-0.8h-1.4c-0.6,0-0.9-0.3-0.9-0.9c0-0.6,0.3-0.9,0.9-0.9h1.4v-0.5
			c0-0.7,0.4-1.1,1.1-1.1c0.7,0,1.1,0.4,1.1,1.1v0.5h2.1v-0.5c0-0.7,0.4-1.1,1.1-1.1c0.7,0,1.1,0.4,1.1,1.1v0.5h1.4
			c0.6,0,0.9,0.3,0.9,0.9c0,0.6-0.3,0.9-0.9,0.9h-1.4v0.8h1.1c0.5,0,0.8,0.3,0.8,0.8c0,0.6-0.3,0.8-0.8,0.8h-1.1v0.8h1.7
			c0.6,0,0.9,0.3,0.9,0.9c0,0.6-0.3,0.9-0.9,0.9h-3.9v0.8h2.5c0.4,0,0.7,0.1,1,0.4s0.4,0.6,0.4,1v1.3h0c0.5,0,0.8,0.3,0.8,0.8
			c0,0.5-0.3,0.8-0.8,0.8h0V25h0.1c0.6,0,0.9,0.3,0.9,0.9c0,0.6-0.3,0.9-0.9,0.9h-0.1v1c0,0.5-0.1,0.9-0.2,1.2s-0.4,0.5-0.7,0.7
			c-0.4,0.2-1,0.3-1.8,0.3c-0.8,0-1.3-0.2-1.4-0.8c-0.3-0.8,0.1-1.2,1.2-1.2c0.1,0,0.3,0,0.4,0c0.2,0,0.4-0.1,0.4-0.3v-1h-2.7h-2.7
			V29C157.2,29.7,156.8,30.1,156.1,30.1z M157.2,22.3h1.6v-0.9H158h-0.5c-0.2,0-0.3,0.1-0.3,0.3V22.3z M157.2,25h1.6v-1.1H158h-0.8
			V25z M158.8,14.7h2.1v-0.8h-1.1h-1V14.7z M158.8,17.1h2.1v-0.8h-1.1h-1V17.1z M160.9,22.3h0.8h0.8v-0.5c0-0.3-0.1-0.4-0.4-0.4
			h-1.2V22.3z M160.9,25h1.6v-1.1h-0.8h-0.8V25z"/>
		<path class="st4" d="M170.3,29.6c-0.8-0.8-0.6-1.3,0.7-1.6c1.6-0.4,2.9-0.9,3.9-1.3h-1.8c-0.4,0-0.7-0.1-1-0.4
			c-0.3-0.3-0.4-0.6-0.4-1v-6.5c0-0.4,0.1-0.7,0.4-1c0.3-0.3,0.6-0.4,1-0.4h5.7h5.7c0.4,0,0.7,0.1,1,0.4c0.3,0.3,0.4,0.6,0.4,1v6.5
			c0,0.4-0.1,0.7-0.4,1c-0.3,0.3-0.6,0.4-1,0.4h-2.2c1.6,0.5,3,1,4.3,1.6c0.6,0.3,0.9,0.5,0.9,0.8c0,0.2-0.4,0.5-1.1,0.8
			c-0.3,0.1-0.5,0.2-0.7,0.2c-0.2,0-0.4,0-0.7-0.2c-0.9-0.5-2-0.9-3.3-1.4c-0.6-0.2-0.9-0.5-1-0.8c-0.1-0.3,0.2-0.6,0.6-0.9l0.1-0.1
			h-5.8l1,0.4c0.3,0.1,0.4,0.2,0.4,0.4c0,0.2-0.1,0.3-0.3,0.4c-1.3,0.7-2.9,1.4-5,2.1C171.2,30.1,170.8,30,170.3,29.6z M171.9,16.5
			c-0.4,0-0.7-0.1-1-0.4c-0.3-0.3-0.4-0.6-0.4-1v-2.4c0-0.4,0.1-0.7,0.4-1c0.3-0.3,0.6-0.4,1-0.4h6.8h6.8c0.4,0,0.7,0.1,1,0.4
			c0.3,0.3,0.4,0.6,0.4,1v2.4c0,0.4-0.1,0.7-0.4,1c-0.3,0.3-0.6,0.4-1,0.4H171.9z M173.4,14.7h0.7h1.3v-1.4h-2
			c-0.3,0-0.5,0.2-0.5,0.5v0.4C172.9,14.5,173,14.7,173.4,14.7z M174.2,20h9.1v-0.6c0-0.3-0.1-0.4-0.4-0.4h-4.1h-4
			c-0.3,0-0.5,0.2-0.5,0.5V20z M174.2,22.5h9.1v-1h-4.5h-4.6V22.5z M174.6,25h8.1c0.3,0,0.5-0.2,0.5-0.5V24h-4.5h-4.6v0.6
			C174.2,24.9,174.3,25,174.6,25z M177.4,14.7h1.2h1.3v-1.4h-2.5V14.7z M182,14.7h1.3h0.8c0.3,0,0.5-0.2,0.5-0.5v-0.4
			c0-0.3-0.2-0.5-0.5-0.5H182V14.7z"/>
		<path class="st5" d="M222.8,30.4c-1.1,0-1.6-0.5-1.6-1.6V18.1c-2,2.2-4.2,4-6.5,5.4c-1,0.5-1.8,0.4-2.3-0.4
			c-0.8-1-0.5-1.8,0.7-2.5c1.8-1.1,3.5-2.4,5.1-4.1c1.5-1.5,2.8-3.1,3.8-4.9h-8.4c-1,0-1.5-0.5-1.5-1.5c0-1,0.5-1.5,1.5-1.5h9.3h9.3
			c1,0,1.5,0.5,1.5,1.5c0,1-0.5,1.5-1.5,1.5h-6.2c-0.4,0.7-0.9,1.5-1.5,2.3v2.6l1-0.8c0.3-0.2,0.5-0.3,0.9-0.4
			c0.3,0,0.6,0.1,0.8,0.3c2.9,2.1,5,3.9,6.4,5.2c0.4,0.4,0.5,0.7,0.5,1.1c-0.1,0.3-0.3,0.7-0.7,1.1c-0.5,0.4-0.8,0.6-1.1,0.7
			c-0.4,0-0.7-0.2-1.1-0.6c-1.6-1.6-3.8-3.5-6.7-5.8v11.4C224.4,29.9,223.8,30.4,222.8,30.4z"/>
		<path class="st4" d="M246.6,29c-0.3-1,0.2-1.4,1.4-1.4c0.1,0,0.1,0,0.2,0c0.2,0,0.3-0.1,0.3-0.4V23l-1,0.3
			c-0.8,0.2-1.3-0.1-1.5-0.9c-0.1-0.4-0.1-0.7,0.1-1c0.1-0.2,0.4-0.4,0.8-0.5c0.1,0,0.3-0.1,0.5-0.1c0.5-0.1,1-0.2,1.2-0.3v-3.8
			h-1.3c-0.8,0-1.1-0.4-1.1-1.2c0-0.8,0.4-1.1,1.1-1.1h1.3v-2.8c0-0.8,0.4-1.2,1.2-1.2c0.8,0,1.2,0.4,1.2,1.2v2.8h0.5
			c0.8,0,1.1,0.4,1.1,1.1c0,0.8-0.4,1.2-1.1,1.2h-0.5v3.2l0.4-0.1c0.8-0.2,1.2,0.1,1.3,0.9c0.1,0.7-0.2,1.1-0.8,1.3
			c-0.1,0-0.2,0.1-0.4,0.1c-0.2,0.1-0.4,0.1-0.5,0.2v2.5v2.5c0,0.6-0.1,1.1-0.2,1.5c-0.1,0.4-0.3,0.6-0.7,0.8
			c-0.4,0.3-1,0.4-1.7,0.5C247.4,30,246.8,29.7,246.6,29z M255.4,29c-0.4,0-0.7-0.1-1-0.4s-0.4-0.6-0.4-1l0-8.7
			c-0.6,0.7-1.2,0.7-1.7-0.1c-0.5-0.7-0.5-1.4,0-1.9c1.1-1.4,2-3.1,2.7-5.3c0.3-0.8,0.8-1.1,1.5-0.9c0.8,0.2,1.1,0.7,0.8,1.5
			c-0.2,0.5-0.4,1.2-0.8,2.1h2.3c0.3-0.7,0.6-1.6,0.9-2.6c0.2-0.8,0.7-1.1,1.6-0.9c0.9,0.2,1.2,0.8,0.8,1.7
			c-0.4,0.8-0.6,1.4-0.8,1.8h2.5c0.7,0,1.1,0.4,1.1,1.1c0,0.7-0.4,1.1-1.1,1.1H261v1.9h2.2c0.7,0,1,0.3,1,1s-0.3,1-1,1H261v2h2.2
			c0.7,0,1,0.3,1,1c0,0.7-0.3,1-1,1H261v2.1h3c0.8,0,1.1,0.4,1.1,1.1s-0.4,1.1-1.1,1.1h-3.3H255.4z M256.4,18.5h1.2h1.2v-1.9h-2.4
			V18.5z M256.4,22.6h1.2h1.2v-2h-2.4V22.6z M256.9,26.8h1.9v-2.1h-1.2h-1.2v1.6C256.4,26.6,256.5,26.8,256.9,26.8z"/>
		<path class="st4" d="M283.8,30.1c-0.7,0-1.1-0.3-1.2-0.7c-0.1-0.4-0.1-0.7,0.1-0.8c0.2-0.2,0.5-0.2,0.9-0.2c0,0,0,0,0,0
			c0.3,0,0.5-0.1,0.6-0.2c0.2-0.2,0.3-0.6,0.4-1.3c0-0.3,0-0.5-0.1-0.6c-0.1-0.1-0.2-0.2-0.4-0.2h-2.1c0.4,0.5,0.7,0.9,0.9,1.2
			c0.1,0.1,0.1,0.3,0,0.4s-0.2,0.3-0.3,0.3l-0.1,0c-0.7,0.3-1.2,0.2-1.6-0.4c-0.4-0.7-0.2-1.2,0.6-1.5l0,0H275v0
			c-0.1,0.2-0.2,0.3-0.5,0.2c-0.5-0.1-0.9-0.2-1.2-0.4c-0.3-0.2-0.5-0.5-0.4-0.9c0.3-1.2,0.6-2.4,0.9-3.7h-1.5
			c-0.1,3-0.6,5.5-1.4,7.5c-0.2,0.4-0.4,0.6-0.7,0.7c-0.3,0.1-0.6,0-0.9-0.2c-0.4-0.2-0.6-0.5-0.6-0.8c-0.1-0.3,0-0.6,0.2-1
			c0.8-1.8,1.2-4.4,1.2-7.8v-3.2c0-0.4,0.1-0.7,0.4-1c0.3-0.3,0.6-0.4,1-0.4h5.5v0c0-0.3,0.1-0.5,0.3-0.7c0.2-0.2,0.5-0.3,0.8-0.3
			c0.3,0,0.6,0.1,0.8,0.3c0.2,0.2,0.3,0.4,0.3,0.7v0h7.2c0.6,0,0.8,0.3,0.8,0.8c0,0.6-0.3,0.8-0.8,0.8h-5v0.9h3.6
			c0.4,0,0.7,0.1,1,0.4c0.3,0.3,0.4,0.6,0.4,1v1c0,0.4-0.1,0.7-0.4,1c-0.3,0.3-0.6,0.4-1,0.4h-8.9l-0.2,0.8h10.6
			c0.5,0,0.8,0.3,0.8,0.8c0,0.5-0.3,0.8-0.8,0.8h-5.1h-5.9l-0.2,0.7h10.3c0.9,0,1.3,0.8,1.2,2.3c-0.2,1.4-0.4,2.3-0.8,2.7
			c-0.3,0.4-0.8,0.6-1.3,0.6C284.6,30,284.2,30.1,283.8,30.1z M274.6,14.7c-0.4,0-0.7-0.1-0.9-0.3c-0.2-0.2-0.4-0.4-0.4-0.8v0H270
			c-0.7,0-1-0.3-1-1c0-0.7,0.3-1,1-1h3.4v0c0-0.3,0.1-0.6,0.4-0.8c0.2-0.2,0.5-0.3,0.9-0.3c0.4,0,0.7,0.1,0.9,0.3
			c0.2,0.2,0.3,0.4,0.3,0.8v0h2.4h2.4v0c0-0.3,0.1-0.6,0.4-0.8c0.2-0.2,0.5-0.3,0.9-0.3c0.4,0,0.7,0.1,0.9,0.3
			c0.2,0.2,0.4,0.4,0.4,0.8v0h3.3c0.7,0,1,0.3,1,1c0,0.7-0.3,1-1,1h-3.3v0c0,0.3-0.1,0.6-0.4,0.8c-0.2,0.2-0.5,0.3-0.9,0.3
			c-0.4,0-0.7-0.1-0.9-0.3c-0.2-0.2-0.4-0.4-0.4-0.8v0h-4.8v0c0,0.3-0.1,0.6-0.3,0.8C275.3,14.6,275,14.7,274.6,14.7z M272,29.7
			c-0.7-0.5-0.7-1-0.1-1.5c0.3-0.3,0.5-0.6,0.7-1c0.3-0.6,0.7-0.8,1.3-0.5c0.6,0.3,0.8,0.7,0.5,1.2c-0.2,0.4-0.3,0.6-0.5,0.8
			c-0.2,0.3-0.4,0.5-0.7,0.9C272.8,30,272.4,30,272,29.7z M272.4,17.6h1.2h1.2v-0.9h-2c-0.3,0-0.5,0.2-0.5,0.5V17.6z M272.4,20h2.5
			v-1h-1.2h-1.2v0.7V20z M275.5,28.8c0,0,0-0.1,0-0.2c0-0.1,0-0.2,0-0.2c0-0.3-0.1-0.5-0.1-0.6c-0.1-0.6,0.2-1,0.8-1.1
			c0.6-0.1,1,0.2,1,0.7c0.1,0.6,0.1,1.1,0.2,1.4c0,0.5-0.2,0.8-0.8,0.9C275.9,29.8,275.5,29.5,275.5,28.8z M276.9,17.6h1.2h1.2v-0.9
			h-2.4V17.6z M276.9,20h2.4v-1h-1.2h-1.2V20z M278.6,28.6c0-0.1-0.1-0.2-0.1-0.4c-0.1-0.2-0.1-0.3-0.2-0.5c-0.2-0.6,0-1,0.6-1.2
			c0.5-0.2,0.8,0,1.1,0.4c0.2,0.4,0.3,0.8,0.5,1.2c0.2,0.5,0,0.9-0.6,1C279.1,29.5,278.7,29.2,278.6,28.6z M281.4,20h1.3h0.8
			c0.3,0,0.5-0.2,0.5-0.5v-0.1c0-0.3-0.1-0.4-0.4-0.4h-2.2V20z"/>
		<path class="st4" d="M300.9,17.4c-0.6,0-1-0.2-1.4-0.6c-0.4-0.4-0.6-0.8-0.6-1.4c0-0.6,0.2-1,0.6-1.4c0.4-0.4,0.9-0.6,1.4-0.6
			c0.6,0,1,0.2,1.4,0.6c0.4,0.4,0.6,0.8,0.6,1.4c0,0.6-0.2,1-0.6,1.4C301.9,17.3,301.4,17.4,300.9,17.4z M300.9,27.4
			c-0.6,0-1-0.2-1.4-0.6c-0.4-0.4-0.6-0.8-0.6-1.4c0-0.6,0.2-1,0.6-1.4c0.4-0.4,0.9-0.6,1.4-0.6c0.6,0,1,0.2,1.4,0.6
			c0.4,0.4,0.6,0.8,0.6,1.4c0,0.6-0.2,1-0.6,1.4C301.9,27.3,301.4,27.4,300.9,27.4z"/>
		<path class="st4" d="M323.4,19.9c-0.8,0-1.2-0.4-1.2-1.2v-3.2h-5.2c-0.3,0-0.5,0.2-0.5,0.5v1c0,0.7-0.4,1.1-1.1,1.1
			c-0.7,0-1.1-0.4-1.1-1.1v-1.8c0-0.4,0.1-0.7,0.4-1c0.3-0.3,0.6-0.4,1-0.4h6.5v-0.8h-5.5c-0.6,0-0.9-0.3-0.9-0.9s0.3-0.9,0.9-0.9
			h6.7h6.7c0.6,0,0.9,0.3,0.9,0.9s-0.3,0.9-0.9,0.9h-5.6v0.8h6.6c0.4,0,0.7,0.1,1,0.4s0.4,0.6,0.4,1V17c0,0.8-0.4,1.1-1.1,1.1
			c-0.8,0-1.2-0.4-1.2-1.1v-1c0-0.3-0.2-0.5-0.5-0.5h-5.2v3.2C324.6,19.5,324.2,19.9,323.4,19.9z M325.8,30c-1.4,0-2.4-0.2-2.9-0.6
			s-0.7-1.1-0.7-2.2v-0.1h-3.5v0c0,0.6-0.3,0.9-1,0.9c-0.4,0-0.7-0.1-1-0.3c-0.2-0.2-0.4-0.5-0.4-0.9v-5.1c0-0.4,0.1-0.7,0.4-1
			c0.3-0.3,0.6-0.4,1-0.4h5.8h5.8c0.4,0,0.7,0.1,1,0.4s0.4,0.6,0.4,1v4c0,0.4-0.1,0.7-0.4,1s-0.6,0.4-1,0.4h-4.8v0.1
			c0,0.4,0.1,0.6,0.3,0.7c0.2,0.1,0.6,0.2,1.2,0.2h3.9c0.4,0,0.7-0.1,0.9-0.3c0.1-0.5,0.3-0.9,0.6-1.2c0.3-0.3,0.7-0.4,1.1-0.2
			c0.6,0.2,0.7,0.8,0.6,1.8c-0.2,0.7-0.5,1.1-1,1.4c-0.4,0.3-1.1,0.4-2,0.4H325.8z M317.7,19.7c-0.4,0-0.7-0.2-0.7-0.7
			c0-0.4,0.2-0.7,0.7-0.7h3.1c0.4,0,0.7,0.2,0.7,0.7c0,0.5-0.2,0.7-0.7,0.7h-1.6H317.7z M318.1,17.6c-0.4,0-0.7-0.2-0.7-0.7
			s0.2-0.7,0.7-0.7h1.4h1.4c0.4,0,0.7,0.2,0.7,0.7s-0.2,0.7-0.7,0.7H318.1z M318.7,23.1h1.7h1.7v-0.9h-3c-0.3,0-0.5,0.2-0.5,0.5
			V23.1z M319,25.5h3.1v-0.9h-1.7h-1.7v0.5C318.7,25.3,318.8,25.5,319,25.5z M324.5,23.1h1.9h1.9v-0.5c0-0.3-0.1-0.4-0.4-0.4h-3.4
			V23.1z M324.5,25.5h3.2c0.3,0,0.5-0.2,0.5-0.5v-0.4h-1.9h-1.9V25.5z M326.1,17.6c-0.4,0-0.7-0.2-0.7-0.7s0.2-0.7,0.7-0.7h2.7
			c0.4,0,0.7,0.2,0.7,0.7s-0.2,0.7-0.7,0.7h-1.4H326.1z M326.1,19.7c-0.4,0-0.7-0.2-0.7-0.7c0-0.4,0.2-0.7,0.7-0.7h3.2
			c0.4,0,0.7,0.2,0.7,0.7c0,0.5-0.2,0.7-0.7,0.7h-1.6H326.1z"/>
		<path class="st4" d="M343.3,30.1c-1,0-1.6-0.3-1.8-1c-0.2-0.5-0.2-1,0.2-1.2c0.3-0.2,0.8-0.3,1.4-0.3c0.4,0,0.9,0,1.3,0
			c0.2,0,0.4,0,0.5-0.1c0.1-0.1,0.1-0.2,0.1-0.4v-5h-7c-0.8,0-1.2-0.4-1.2-1.3c0-0.8,0.4-1.2,1.2-1.2h7v-2.2c0-0.3,0.1-0.6,0.3-0.8
			c0.2-0.2,0.5-0.3,0.8-0.3h0.1c1-0.6,2-1.3,3-2.1H340c-0.8,0-1.2-0.4-1.2-1.2c0-0.8,0.4-1.2,1.2-1.2h5.2h7.1c0.5,0,0.9,0.1,1,0.4
			c0.1,0.3,0,0.7-0.3,1.2c-1.4,1.9-3.2,3.5-5.6,4.9v1.3h7c0.8,0,1.2,0.4,1.2,1.2c0,0.8-0.4,1.3-1.2,1.3h-7v5c0,0.7-0.1,1.3-0.3,1.7
			c-0.2,0.4-0.5,0.7-1,0.9C345.6,29.9,344.6,30.1,343.3,30.1z"/>
		<path class="st4" d="M359.7,20.5c-0.3-0.1-0.5-0.3-0.6-0.4c-0.1-0.2-0.1-0.4,0-0.7c0.3-0.9,0.5-2,0.5-3.5c0-0.7,0.3-0.9,0.9-0.9
			c0.5,0.1,0.8,0.3,0.8,0.8c0,0.8-0.1,1.5-0.2,2.3c-0.1,0.7-0.3,1.3-0.4,1.9C360.6,20.6,360.2,20.7,359.7,20.5z M359.7,29.2
			c-0.5-0.5-0.5-1.2,0.1-1.9c0.9-1.3,1.5-2.8,1.8-4.5c0.2-1.3,0.4-2.9,0.4-4.9v-6c0-0.7,0.4-1.1,1.1-1.1c0.7,0,1.1,0.4,1.1,1.1v6
			c0.3-0.7,0.5-1.5,0.8-2.4c0.1-0.4,0.3-0.7,0.7-0.8c0.3-0.2,0.7-0.2,1.1,0l0.4,0.2h2.6v-1.4h-2.5c-0.7,0-1-0.3-1-1c0-0.7,0.3-1,1-1
			h9.8c0.7,0,1,0.3,1,1c0,0.7-0.3,1-1,1h-2.6v1.4h2.1c0.4,0,0.7,0.1,1,0.4c0.3,0.3,0.4,0.6,0.4,1v4.1c0,0.4-0.1,0.7-0.4,1
			s-0.6,0.4-1,0.4h-3V23h3.1c0.7,0,1.1,0.4,1.1,1.1c0,0.7-0.4,1.1-1.1,1.1h-3.1v2h3.9c0.7,0,1.1,0.4,1.1,1.1s-0.4,1.1-1.1,1.1h-5.3
			H367c-0.7,0-1.1-0.4-1.1-1.1s0.4-1.1,1.1-1.1h4.2v-2h-2.9c-0.7,0-1.1-0.4-1.1-1.1c0-0.7,0.4-1.1,1.1-1.1h2.9v-1.5h-3.1
			c-0.4,0-0.7-0.1-1-0.4s-0.4-0.6-0.4-1v-3.9c-0.1,0.1-0.2,0.4-0.3,0.7c-0.2,0.5-0.4,0.8-0.5,1c-0.2,0.3-0.4,0.5-0.7,0.6
			c-0.3,0.1-0.6,0.1-1-0.1l-0.1,0c0,1.5-0.1,2.7-0.2,3.7c0.4,0.5,1.2,1.6,2.5,3.2c0.2,0.3,0.2,0.5,0.2,0.7c0,0.1-0.2,0.3-0.5,0.6
			c-0.3,0.3-0.6,0.5-0.9,0.5c-0.2,0-0.5-0.2-0.7-0.6c-0.3-0.6-0.7-1.1-1.1-1.8c-0.5,1.7-1.1,3.1-2,4.2
			C360.8,29.7,360.3,29.8,359.7,29.2z M369.2,19.7h3.1h3.1c0.3,0,0.5-0.2,0.5-0.5v-0.4h-0.1h-1.5c-0.6,0-1.1-0.1-1.3-0.3
			c-0.2-0.2-0.3-0.7-0.3-1.3v-0.5h-0.9c0,0.8-0.2,1.5-0.7,2c-0.9,0.6-1.6,0.5-2.1-0.1c0,0,0,0-0.1-0.1s0,0-0.1-0.1v0.9
			C368.7,19.6,368.9,19.7,369.2,19.7z M368.7,18.2c0.6-0.2,0.9-0.5,1.2-0.7c0.2-0.2,0.3-0.5,0.3-0.8h-1.4V18.2z M371.6,14.8h1v-0.7
			v-0.7h-1V14.8z M374.5,17.6h1c0.1,0,0.2,0,0.3,0V17c0-0.3-0.1-0.4-0.4-0.4h-1.3v0.5c0,0.2,0,0.3,0.1,0.4
			C374.3,17.5,374.4,17.6,374.5,17.6z"/>
		<path class="st4" d="M398.2,29.8c-1.9-0.5-3.6-1.3-5-2.2c-1.3,0.9-2.7,1.6-4.3,2.1c-0.8,0.3-1.4,0.1-1.8-0.5
			c-0.3-0.5-0.4-0.9-0.2-1.2c0.2-0.3,0.5-0.5,1.1-0.6c1.2-0.4,2.2-0.9,3.1-1.5c-1.3-1.3-2.3-3-3.2-5.1c-0.7,3.7-1.9,6.4-3.6,8.2
			c-0.6,0.6-1.2,0.6-1.7,0.1c-0.4-0.3-0.6-0.6-0.6-0.9c0-0.3,0.2-0.6,0.5-1c1.3-1.5,2.2-3.5,2.8-6.1c0.4-1.9,0.7-4.3,0.8-7.1h-2.1
			c-0.8,0-1.2-0.4-1.2-1.2c0-0.8,0.4-1.2,1.2-1.2h4.4h6.5c0.4,0,0.8,0.1,1,0.4c0.2,0.3,0.3,0.6,0.3,1c-0.1,1-0.3,2.5-0.7,4.4h2.4
			c1,0,1.4,0.6,1.1,1.8c-0.7,2.7-1.9,4.8-3.6,6.6c1,0.6,2.2,1,3.6,1.4c1.5,0.3,1.9,1,1.2,2C399.8,29.8,399.1,30,398.2,29.8z
			 M388.5,17.4h4.3c0.2-1.2,0.4-2.4,0.6-3.4h-2.3h-2.3C388.7,15.2,388.6,16.4,388.5,17.4z M393.3,24.3c1.3-1.2,2.3-2.7,3-4.5h-3.1
			H390C390.8,21.6,391.9,23.1,393.3,24.3z"/>
		<path class="st4" d="M406,29.6c-0.3,0-0.6-0.2-0.9-0.5c-0.3-0.3-0.5-0.6-0.5-0.9c0-0.3,0.1-0.6,0.4-1c0.8-1.2,1.4-2.8,1.7-4.7
			c0.3-1.5,0.5-3.5,0.5-5.9H406c-0.8,0-1.2-0.4-1.2-1.2s0.4-1.2,1.2-1.2h1.2c0-0.5,0-1.2,0-2.2c0-0.8,0.4-1.2,1.2-1.2
			s1.2,0.4,1.2,1.2c0,1,0,1.7,0,2.2h2.2h1.2c0.3,0,0.6,0.1,0.8,0.4c0.2,0.3,0.3,0.9,0.3,1.7c-0.1,4.3-0.2,7.3-0.3,8.9
			c-0.1,1.7-0.4,2.8-0.6,3.2c-0.2,0.3-0.5,0.6-0.7,0.8c-0.2,0.1-0.5,0.2-0.9,0.3c-0.3,0.1-0.7,0.1-1.2,0.1c-0.9,0-1.4-0.4-1.6-1
			c-0.2-0.6-0.1-0.9,0.1-1.2c0.2-0.2,0.7-0.3,1.3-0.3c0,0,0.1,0,0.1,0c0.3,0,0.5-0.1,0.7-0.4c0.2-0.3,0.3-1.1,0.4-2.5
			c0.1-1.3,0.2-3.6,0.2-6.7c0-0.4,0-0.7-0.1-0.8c-0.1-0.1-0.2-0.2-0.4-0.2h-1.6c-0.1,2.8-0.3,5.1-0.7,6.9c-0.4,2.2-1.1,4-2.1,5.5
			C406.5,29.4,406.2,29.6,406,29.6z M416.6,28.2c-0.4,0-0.7-0.1-1-0.4c-0.3-0.3-0.4-0.6-0.4-1V14.3c0-0.4,0.1-0.7,0.4-1
			c0.3-0.3,0.6-0.4,1-0.4h2.4h2.4c0.4,0,0.7,0.1,1,0.4c0.3,0.3,0.4,0.6,0.4,1v12.6c0,0.4-0.1,0.7-0.4,1c-0.3,0.3-0.6,0.4-1,0.4
			H416.6z M418.2,25.8h1.7c0.3,0,0.5-0.2,0.5-0.5v-9.5c0-0.3-0.2-0.5-0.5-0.5h-1.7c-0.3,0-0.5,0.2-0.5,0.5v4.8v4.7
			C417.7,25.6,417.8,25.8,418.2,25.8z"/>
		<path class="st4" d="M427.7,24.8c-0.1-0.1-0.2-0.4-0.2-0.8c0-0.3,0-0.6,0.1-0.8c0.1-0.2,0.3-0.3,0.7-0.3c0.8,0,1.8-0.1,2.7-0.2
			v-1.3h-2.2c-0.6,0-0.9-0.3-0.9-0.9c0-0.6,0.3-0.9,0.9-0.9h2.2v-0.6c0-0.3,0.2-0.5,0.5-0.5h1.6c-0.2-0.1-0.4-0.3-0.4-0.6
			c-0.1-0.2-0.1-0.6-0.1-1.1v-0.9h-1c-0.1,0.7-0.3,1.3-0.7,1.8c-0.3,0.5-0.9,0.9-1.6,1.2c-0.8,0.2-1.3,0.1-1.6-0.4l0,0l0,0
			c-0.3-0.4-0.1-0.7,0.6-0.9c0.8-0.3,1.2-0.8,1.3-1.6h-1.2c-0.6,0-0.9-0.3-0.9-0.9c0-0.6,0.3-0.9,0.9-0.9h0.9h1.8v-1h-1.9
			c-0.6,0-0.8-0.3-0.8-0.8s0.3-0.8,0.8-0.8h1.9v0c0-0.7,0.4-1.1,1.1-1.1c0.7,0,1.1,0.4,1.1,1.1v0h1.9c0.6,0,0.8,0.3,0.8,0.8
			s-0.3,0.8-0.8,0.8h-1.9v1h2.5c0.6,0,0.9,0.3,0.9,0.9c0,0.6-0.3,0.9-0.9,0.9h-1.4v0.9c0,0.2,0,0.3,0.1,0.3c0,0,0.1,0.1,0.2,0.1h0.5
			c0.2-0.7,0.6-0.9,1.2-0.6c0.2,0.1,0.3,0.3,0.4,0.5c0.1,0.2,0.1,0.5,0,0.8c-0.1,0.3-0.3,0.5-0.5,0.6c-0.2,0.1-0.5,0.2-0.8,0.2h-1
			c-0.4,0-0.8,0-1-0.1v1.1h2c0.6,0,0.9,0.3,0.9,0.9c0,0.6-0.3,0.9-0.9,0.9h-2v1.1c1.2-0.1,2.1-0.2,2.7-0.2c0.4,0,0.6,0.1,0.6,0.5V23
			c0.8-0.9,1.4-2,1.7-3.4c-0.3-0.2-0.5-0.4-0.8-0.6c-0.6-0.4-0.7-0.9-0.4-1.4c0.3-0.6,0.8-0.8,1.4-0.4c0,0,0,0,0.1,0
			c0,0,0,0,0.1,0.1c0.1-0.6,0.1-1.2,0.1-1.8h-0.7c-0.7,0-1.1-0.4-1.1-1.1c0-0.7,0.4-1.1,1.1-1.1h0.7c0-0.2,0-0.4,0-0.8
			c0-0.3,0-0.6,0-0.8c0-0.8,0.4-1.1,1.1-1.1c0.8,0,1.1,0.4,1.1,1.2c0,0.7,0,1.2,0,1.5h1.9c0.4,0,0.7,0.1,1,0.4
			c0.3,0.3,0.4,0.6,0.4,1v7.4c0,0.5,0,0.8,0,0.8c0,0.1,0.1,0.1,0.2,0.1h0.3c0.1,0,0.2,0,0.2-0.1c0.1-0.1,0.1-0.3,0.1-0.6
			c0-0.3,0-0.5,0-0.8c0-1,0.4-1.3,1-1c0.4,0.2,0.5,0.6,0.5,1.1c-0.1,1.1-0.1,1.8-0.2,2.1c-0.1,0.4-0.3,0.8-0.6,1.1
			c-0.3,0.2-0.6,0.3-1.1,0.3h-0.9c-0.6,0-1-0.2-1.4-0.5c-0.2-0.2-0.3-0.4-0.4-0.7c-0.1-0.3-0.1-0.9-0.1-1.6v-1.5l-0.4,0.9
			c-0.1,0.2-0.3,0.4-0.4,0.4c-0.2,0-0.3,0-0.5-0.2c-0.3-0.3-0.5-0.4-0.6-0.6c-0.4,1.3-1,2.4-1.7,3.3c-0.3,0.3-0.6,0.4-0.9,0.4
			c-0.3,0-0.6-0.2-0.9-0.5c0,0,0,0,0,0v0c-1.7,0.2-4.2,0.4-7.4,0.7c-0.3,0-0.6,0.1-0.8,0.1C428,25,427.8,25,427.7,24.8z M428.7,29.7
			c-1-0.4-1.2-1-0.5-1.8c0.3-0.4,0.6-0.9,0.9-1.4c0.3-0.7,0.9-1,1.6-0.8c0.9,0.2,1.1,0.7,0.8,1.5c0,0,0,0.1-0.1,0.2
			c-0.2,0.4-0.3,0.6-0.5,0.8c-0.3,0.4-0.5,0.8-0.8,1.2C429.7,29.9,429.2,30,428.7,29.7z M433.5,28.6c0-0.1,0-0.1,0-0.3
			c0-0.1,0-0.2,0-0.3v-0.1c0-0.3-0.1-0.6-0.1-0.7c-0.1-0.8,0.3-1.2,1-1.3c0.7-0.1,1.2,0.3,1.3,1c0.1,0.7,0.2,1.2,0.2,1.6
			c0,0.4-0.1,0.6-0.2,0.8s-0.4,0.3-0.8,0.3C433.9,29.8,433.5,29.5,433.5,28.6z M439.5,29.6c-0.4,0.1-0.8,0-1-0.1
			c-0.2-0.2-0.4-0.4-0.5-0.9c0-0.1,0-0.1-0.1-0.3c0-0.1,0-0.2-0.1-0.3c-0.1-0.2-0.1-0.5-0.2-0.7c-0.3-0.8,0-1.3,0.9-1.5
			c0.7-0.1,1.1,0.2,1.4,0.8c0.1,0.4,0.3,0.9,0.5,1.6c0.1,0.4,0.1,0.7-0.1,0.9C440.3,29.4,440,29.5,439.5,29.6z M442.1,19.7v-2.2
			v-1.7c0-0.3-0.2-0.5-0.5-0.5h-0.7c-0.1,1.3-0.2,2.4-0.3,3.1C441.2,19,441.7,19.4,442.1,19.7z M443.3,29.1
			c-0.1-0.1-0.1-0.3-0.3-0.5c-0.1-0.2-0.2-0.3-0.3-0.4c-0.2-0.3-0.4-0.6-0.5-0.8c-0.5-0.8-0.3-1.4,0.6-1.7c0.6-0.2,1.1,0,1.5,0.5
			c0.6,0.8,1,1.5,1.3,2c0.2,0.4,0.3,0.7,0.2,1s-0.4,0.4-0.9,0.6C444.2,30,443.7,29.8,443.3,29.1z"/>
		<path class="st4" d="M455.1,30c-0.8,0-1.3-0.3-1.4-0.9c-0.1-0.4-0.1-0.8,0.1-1c0.2-0.2,0.5-0.3,1-0.2c0.2,0,0.4-0.1,0.6-0.3
			c0.2-0.3,0.4-1.7,0.5-4c0-0.4,0-0.6-0.1-0.8c-0.1-0.1-0.2-0.2-0.4-0.2h-1.2c-0.3,2.7-1,4.8-2.1,6.3c-0.3,0.4-0.6,0.6-0.8,0.6
			s-0.6-0.1-0.9-0.5c-0.3-0.3-0.4-0.6-0.4-0.9c0-0.3,0.1-0.6,0.4-0.9c0.6-1,1.1-2.2,1.3-3.7c0.2-1.1,0.3-2.6,0.4-4.5H451
			c-0.7,0-1.1-0.4-1.1-1.1c0-0.7,0.4-1.1,1.1-1.1h2.4v-0.7c0-0.8,0.4-1.2,1.2-1.2c0.8,0,1.2,0.4,1.2,1.2V17h2.2
			c0.7,0,1.1,0.4,1.1,1.1c0,0.7-0.4,1.1-1.1,1.1h-1.2h-2.3c0,0.6,0,1.1-0.1,1.4h3.9v0c0.7-0.5,1.4-1.1,2.1-2
			c0.6-0.8,1.1-1.6,1.6-2.5c0.1-0.3,0.3-0.5,0.6-0.7c0.3-0.2,0.6-0.3,0.9-0.3h0.2c0.3,0,0.6,0.1,0.9,0.3c0.3,0.2,0.5,0.4,0.6,0.7
			c0.9,1.6,1.9,2.8,2.9,3.7c0.4,0.3,0.6,0.5,0.7,0.8c0.1,0.3,0,0.6-0.2,1.1c-0.2,0.4-0.5,0.7-0.7,0.7c-0.3,0-0.6-0.1-1-0.4
			c-1.4-1.2-2.5-2.7-3.2-4.4c-0.8,1.7-1.8,3.1-3.1,4.3c-0.4,0.3-0.7,0.4-1.1,0.3s-0.6-0.3-0.8-0.8c-0.1-0.1-0.1-0.3-0.3-0.5
			c0-0.1,0-0.1-0.1-0.1c0,0.1,0,0.3,0,0.6c-0.1,2.6-0.2,4.4-0.3,5.5c-0.1,1.1-0.3,1.9-0.5,2.2c-0.3,0.4-0.8,0.7-1.3,0.8
			C455.9,30,455.6,30,455.1,30z M455.8,15c-0.8,0-1.2-0.4-1.2-1.1v0h-3.4c-0.7,0-1.1-0.4-1.1-1.1c0-0.7,0.4-1.1,1.1-1.1h3.4v0
			c0-0.3,0.1-0.6,0.3-0.8c0.2-0.2,0.5-0.3,0.9-0.3c0.4,0,0.7,0.1,0.9,0.3c0.2,0.2,0.3,0.4,0.3,0.8v0h4.7v0c0-0.3,0.1-0.6,0.3-0.8
			c0.2-0.2,0.5-0.3,0.9-0.3c0.8,0,1.2,0.4,1.2,1.1v0h3.6c0.7,0,1.1,0.4,1.1,1.1c0,0.8-0.4,1.1-1.1,1.1h-1.2h-2.3v0
			c0,0.8-0.4,1.1-1.2,1.1c-0.8,0-1.2-0.4-1.2-1.1v0H457v0C457,14.7,456.6,15,455.8,15z M460.9,29.5c-0.2-0.1-0.4-0.4-0.6-0.8
			c-0.2-0.4-0.2-0.8-0.1-1c0.1-0.3,0.4-0.4,0.8-0.6c0.7-0.2,1.5-0.4,2.5-0.7c1.2-0.3,2.2-0.7,3.2-1c0.8-0.2,1.2,0,1.3,0.8
			c0.1,0.6-0.1,1.1-0.7,1.3c-2,0.7-3.8,1.4-5.6,2C461.4,29.6,461.1,29.6,460.9,29.5z M463.3,23.9c-0.1-0.1-0.3-0.3-0.5-0.6
			c-0.3-0.3-0.5-0.6-0.7-0.8c-0.5-0.6-0.5-1.1,0.1-1.6c0.5-0.4,1-0.4,1.4,0.1c0.6,0.6,1.1,1.2,1.6,1.8c0.2,0.3,0.3,0.5,0.2,0.8
			c0,0.2-0.2,0.4-0.5,0.6C464.3,24.7,463.7,24.6,463.3,23.9z"/>
	</g>
</g>
</svg>
