<?xml version="1.0" encoding="utf-8"?>
<!-- Generator: Adobe Illustrator 25.0.0, SVG Export Plug-In . SVG Version: 6.00 Build 0)  -->
<svg version="1.1" id="分離模式" xmlns="http://www.w3.org/2000/svg" xmlns:xlink="http://www.w3.org/1999/xlink" x="0px"
	 y="0px" viewBox="0 0 868.6 283" style="enable-background:new 0 0 868.6 283;" xml:space="preserve">
<style type="text/css">
	.st0{fill:#FFA105;}
	.st1{fill:#FFFFFF;}
	.st2{fill:#EAEAEA;}
	.st3{fill:#FDD23C;}
	.st4{fill:#DFE9F4;}
</style>
<g>
	<g>
		<path class="st0" d="M808.8,117.7c-0.3-6-0.7-11.9-0.8-17.9c0-2.7-0.2-5.4-0.2-8c-0.1-0.3-0.2-0.5-0.3-0.8
			c-0.2-0.6-0.2-1.4-0.2-2.1c0,0,0,0,0,0c0.1,0.5,0.1,1,0.2,1.5c-0.1-0.4-0.2-0.8-0.3-1.2c-0.1-0.3-0.1-0.7-0.1-1c0,0,0-0.1,0-0.1
			c0,0.1,0,0.1,0,0.2c0-0.1,0-0.2-0.1-0.4c0,0.1,0,0.1,0.1,0.2c0,0,0,0,0,0c-0.2-0.5-0.3-1-0.3-1.5c-0.1-0.3-0.3-0.6-0.3-1
			c0-0.2,0-0.3-0.1-0.5c0,0,0-0.1-0.1-0.1c0-0.1-0.1-0.2-0.1-0.3c0,0,0,0.1,0,0.1c-0.1-0.2-0.1-0.4-0.2-0.6
			c-0.2-0.4-0.3-0.8-0.4-1.2c0-0.1,0-0.1-0.1-0.2l0,0.1c0-0.1,0-0.2-0.1-0.3c-0.1-0.2-0.2-0.4-0.2-0.7c0-0.1,0-0.2,0-0.3
			c0-0.1,0-0.1-0.1-0.2c-0.5-1.2-0.9-2.4-0.9-3.8c0.1,0.5,0.1,1.1,0.2,1.6c0-0.3-0.2-0.7-0.3-1c-0.1-0.4-0.1-0.9-0.1-1.3
			c0,0,0,0,0,0c0,0,0,0.1,0,0.1c0-0.1,0-0.2-0.1-0.4c0,0.1,0,0.1,0.1,0.2c0,0,0-0.1,0-0.1c0,0,0-0.1,0-0.1c-0.3-0.5-0.5-1.1-0.6-1.8
			c0-0.2,0-0.5-0.1-0.8c-0.1-0.3-0.2-0.5-0.3-0.9c0-0.2,0-0.4,0-0.6c0-0.1-0.1-0.1-0.1-0.2c-0.1-0.4-0.1-0.9-0.2-1.3l0-0.1
			c0,0,0,0,0,0c0,0,0,0.1,0,0.1c0-0.1,0-0.1,0-0.1c-0.6-0.9-1-2.1-1.1-3.3c-0.1-0.1-0.1-0.3-0.2-0.4c0,0.1,0.1,0.2,0.1,0.2
			c0,0,0-0.1,0-0.1c-0.1-0.3-0.3-0.5-0.4-0.8c-0.1-0.2-0.2-0.5-0.2-0.7c-0.2-0.5-0.3-0.9-0.5-1.4c-0.3-0.8-0.6-1.6-1-2.4
			c-0.8-1.7-1.4-3.5-2-5.3c-0.2-0.3-0.5-0.7-0.7-1c-0.1-0.2-0.1-0.4-0.1-0.6c-0.2-0.3-0.5-0.7-0.7-1.1c-0.1-0.2-0.1-0.5-0.2-0.8
			c-0.3-0.5-0.6-1-0.8-1.5c-1.6-2.5-3.3-4.8-4.8-7.3c-0.1-0.2-0.1-0.4-0.3-0.5c-0.1-0.1-0.2-0.1-0.2-0.2c-0.8-1-1.5-1.9-2.3-2.9
			c-1.3-0.7-2.4-1.6-3.4-2.9c-0.6-0.8-1.3-1.7-1.9-2.5c0,0,0,0,0,0c0,0,0,0,0,0c0,0,0,0,0-0.1c0,0-0.1-0.1-0.1-0.1
			c-0.7-0.3-1.4-0.7-2.1-1.4c-0.3-0.4-0.5-0.9-0.8-1.5c-0.2-0.1-0.4-0.3-0.5-0.4c-0.2-0.1-0.5-0.2-0.7-0.4c-0.2-0.2-0.4-0.4-0.6-0.6
			c-0.2-0.1-0.4-0.1-0.6-0.3c-0.3-0.2-0.5-0.5-0.8-0.8c0,0-0.1,0-0.1,0c-0.2-0.1-0.5-0.3-0.7-0.4c-0.2-0.2-0.5-0.3-0.7-0.5
			c-0.3-0.2-0.7-0.4-1-0.7c-0.1,0-0.2,0-0.3-0.1c-0.3-0.1-0.6-0.3-0.9-0.3c0.3,0,0.5,0.1,0.8,0.1c0,0,0,0,0,0
			c-0.6-0.1-1.1-0.3-1.6-0.6c-0.2,0-0.4,0-0.6-0.1c-0.4-0.1-0.8-0.4-1.2-0.7c-0.2-0.1-0.3-0.2-0.5-0.3c-0.1,0-0.3,0-0.4-0.1
			c-0.2,0-0.3-0.2-0.4-0.3c-0.1,0-0.2-0.1-0.3-0.1c-0.4,0-0.7-0.4-1.1-0.6c-0.1,0-0.3,0-0.4,0c-0.6,0-1.1-0.1-1.7-0.4c0,0,0,0,0,0
			c-0.3-0.2-0.7-0.3-1-0.3c0,0,0,0,0,0c-0.5-0.1-1-0.2-1.5-0.5c0.1,0,0.2,0.1,0.2,0.1c-0.1,0-0.2-0.1-0.3-0.1c-0.1,0-0.1,0-0.2-0.1
			c-0.1-0.1-0.3-0.2-0.4-0.3c-0.1-0.1-0.3-0.1-0.4-0.2c-0.4-0.1-0.7-0.2-1.1-0.4c-0.7-0.1-1.4-0.3-2.1-0.4c0.3,0,0.5,0.1,0.8,0.1
			c0,0-0.1,0-0.1-0.1c-0.4-0.1-0.9-0.2-1.3-0.4c-0.1,0-0.3,0-0.4-0.1c-0.1,0-0.2-0.1-0.3-0.1c-0.3-0.1-0.5-0.1-0.7-0.2
			c-0.1,0-0.1,0-0.2,0c-0.4,0-0.7-0.2-1.1-0.3c-1.1,0-2.2,0-3.3,0c-0.7,0-1.3-0.3-1.8-0.7c0,0-0.1,0-0.1,0c-0.8,0-1.4-0.3-2.1-0.7
			c0.1,0.1,0.3,0.1,0.4,0.2c0.1,0,0.2,0,0.3,0.1c-0.1,0-0.1,0-0.2,0c0.1,0.1,0.2,0.1,0.4,0.2c-0.2-0.1-0.4-0.1-0.6-0.2
			c-0.7-0.1-1.5-0.1-2.2-0.1c-0.8,0-1.6-0.2-2.4-0.4c-42.7,0-85.3-0.5-128-0.5c-5,0.4-10.1-0.3-15.1,0c-11.8,0.4-23.6-0.3-35.3,0
			c-16.5,0.6-33-1-49.5,0c-32.7-1.1-65.5-2.4-98.1,0c-8.9,0.6-17.8-0.6-26.6,0c-7.7,0-15.4,0-23.1,0c-2.2-0.1-4.4,0.1-6.6,0
			c-8.9-0.6-17.6,1.5-26.4,0c-2.8-0.3-5.7,0.1-8.5,0c-0.3,0-0.6,0-1,0c-3.2-0.7-6.5,0.2-9.8,0c-3.9-0.4-7.8,0.5-11.8,0
			c-0.2,0-0.3,0-0.5,0c-7.8,0.1-15.7-0.3-23.5,0c-39.4,1.7-72.6,2.2-110.1,2.5c-4.1,0-8.3,0-12.4,0c-3.1,0.3-6.1,0.5-9.2,0.5
			c-0.8,0.1-1.6,0.2-2.4,0.4c-1.4,0-2.9,0-4.3,0c-16.2-0.1-32.3-0.1-48.4,1.6c-1.3,0.1-2.6,0.1-3.9,0.2c-5.2,0-10.5,0-15.7,0
			c-0.1,0-0.2,0.1-0.3,0.1c-1,0.4-1.9,0.6-2.9,0.7c0.3-0.1,0.6-0.1,0.9-0.2c-0.4,0.1-0.9,0.2-1.3,0.3c-0.7,0.1-1.3,0.2-2,0.2
			c-0.8,0.2-1.5,0.4-2.3,0.4c0.3,0,0.6-0.1,0.9-0.1c-1.3,0.4-2.7,0.5-4,0.9c0.3-0.1,0.5-0.3,0.8-0.4c-0.6,0.4-1.2,0.6-1.9,0.8
			c-0.4,0.1-0.9,0.2-1.3,0.4c0.3-0.1,0.5-0.3,0.8-0.4c-0.5,0.3-0.8,0.5-1.3,0.6c0,0,0,0-0.1,0c-0.3,0.1-0.6,0.2-0.9,0.3
			c-0.5,0.3-1.1,0.6-1.7,0.6c-0.2,0-0.3,0-0.4,0c-0.9,0.2-1.8,0.6-2.8,0.9c-0.5,0.2-1,0.3-1.4,0.4c-0.1,0-0.2,0.1-0.3,0.1
			c-0.1,0,0,0,0.1-0.1c0,0,0,0-0.1,0c-0.5,0.3-1,0.3-1.5,0.3c0,0,0,0-0.1,0l0.6-0.1c-0.3,0.1-0.6,0.1-0.9,0.3c-0.1,0,0,0,0,0
			c0,0,0,0-0.1,0c-0.3,0.2-0.6,0.4-1,0.5c-0.1,0.1-0.3,0-0.4,0c-0.1,0-0.2,0.1-0.3,0.1c-0.2,0.1-0.4,0.1-0.7,0.1
			c-0.6,0.3-1.2,0.7-1.8,1c0,0-0.1,0-0.1,0.1c0,0,0,0,0,0.1c-0.5,0.6-1,1-1.6,1.5c0.3-0.3,0.6-0.6,0.9-0.9c-0.6,0.7-1.2,1.2-2,1.6
			c-0.4,0.3-0.9,0.5-1.3,0.8c-0.8,0.5-1.6,0.9-2.4,1.3c0,0,0,0,0,0c0.1-0.1,0.2-0.1,0.3-0.2c-0.2,0.1-0.4,0.2-0.5,0.4
			c0.1-0.1,0.1-0.1,0.2-0.2c-0.1,0-0.1,0.1-0.2,0.1c-0.2,0.2-0.4,0.4-0.6,0.6c-0.1,0.1-0.3,0.2-0.4,0.3c-0.1,0.1-0.2,0.2-0.3,0.3
			c-0.5,0.6-1.1,1.1-1.7,1.6c-0.6,0.5-1.2,1.1-1.9,1.6c-0.6,0.6-1.1,1.2-1.7,1.8c-0.7,0.6-1.4,1.1-2,1.8l0.8-0.8
			c-0.6,0.6-1.1,1.2-1.7,1.7c-0.4,0.3-0.8,0.6-1.2,1l0.1-0.1c-0.4,0.4-0.8,0.7-1.3,0.9c0,0-0.1,0-0.1,0c-0.2,0.1-0.4,0.3-0.6,0.4
			c-2.7,3-5.3,6.1-7.9,9.2c-0.2,0.3-0.5,0.6-0.7,0.9c-1.7,2.2-3.3,4.5-4.7,6.9c-2,3.3-3.7,6.9-5.6,10.3c-0.2,0.4-0.5,0.7-0.7,1.1
			c0,0.1-0.1,0.3-0.1,0.4c0,0.1-0.1,0.2-0.1,0.3c-0.1,0.3-0.1,0.5-0.2,0.8c0-0.1,0-0.3,0-0.4c0,0,0,0.1,0,0.1c0,0.2,0,0.4-0.1,0.6
			c0,0,0-0.1,0-0.1c0,0.1,0,0.1,0,0.2c0,0.1,0,0.2,0,0.3c-0.1,0.2-0.1,0.4-0.2,0.6c0,0.1,0,0.2-0.1,0.3c0,0.2-0.1,0.2-0.1,0.4
			c-0.1,0.2-0.1,0.4-0.2,0.7c-0.1,0.8-0.2,1.6-0.3,2.3c0-0.5,0.1-0.9,0.1-1.4c-0.1,0.9-0.1,1.8-0.3,2.6c-0.1,0.5-0.3,1-0.4,1.6
			c-0.3,1-0.6,2.1-0.8,3.1c-0.1,1-0.2,2-0.3,3L3,90.8c-0.1,0.7-0.1,1.5-0.2,2.2c-0.1,0.3-0.1,0.6-0.2,1c-0.1,0.6-0.2,1.2-0.3,1.9
			c-0.3,1.3-0.5,2.6-0.7,3.9c0,0.3,0,0.6-0.1,1c-0.1,0.9-0.2,1.9-0.4,2.8c-0.2,1-0.3,2-0.5,3c-0.1,0.5-0.2,1-0.3,1.5
			c-0.2,21.4-0.1,42.7,0,64.1c0,5.8,0,11.5,0,17.3c0,3,0,6-0.2,9c0,0.6-0.1,1.3-0.1,1.9c0.4,2.5,0.8,5,1.2,7.4
			c0.4,2.2,0.7,4.4,1,6.7c0.2,1.2,0.4,2.3,0.6,3.4c0.1,0.6,0.2,1.1,0.4,1.7c0.2,0.9,0.3,1.8,0.4,2.7c0-0.4-0.1-0.8-0.1-1.2
			c0.2,1.5,0.6,3,0.6,4.6c0-0.4-0.1-0.8-0.1-1.2c0.6,2,1.2,4.1,1.8,6.1c0.5,1.4,1.1,2.8,1.6,4.3c0.2,0.6,0.4,1.3,0.6,1.9
			c0,0,0,0,0,0l0,0c0,0.1,0,0.1,0.1,0.2c0.4,0.8,0.8,1.7,1,2.7c0.1,0.5,0.3,1.1,0.4,1.6c1.5,3.1,3,6.1,4.5,9.2
			c0.8,0.4,1.5,1,2.1,1.8c-0.3-0.3-0.6-0.6-0.9-0.9c2.5,1.6,4.7,4.4,6.2,7.4c1.3,1.3,2.3,2.9,3.5,4.4c0.2,0.2,0.3,0.4,0.5,0.7
			c0,0,0.1,0.1,0.1,0.1c0.7,0.6,1.4,1.1,2,1.9c0.3,0.3,0.5,0.6,0.8,0.9c0.6,0.6,1.2,1.2,1.9,1.6c0.8,0.6,1.7,1.1,2.5,1.7
			c0.7,0.6,1.5,1.2,2.2,1.8c0.7,0.6,1.4,1.3,2.2,1.8c0.2,0.1,0.4,0.2,0.6,0.3c0.4,0.3,0.8,0.7,1.1,1.2c0.1,0.1,0.2,0.2,0.3,0.4
			c0.2,0.2,0.4,0.3,0.6,0.4c1,0.5,2,1,3,1.6c-0.3-0.2-0.7-0.4-1-0.5c2.7,1,5.5,2,8.1,3.5c-0.3-0.2-0.7-0.4-1-0.6
			c1.5,0.5,2.9,1.1,4.3,1.8c2,0,3.9,0,5.9-0.1c8.3-0.6,16.6,1.9,24.8,1.1c8.2-1,16.4-1.2,24.5,0c0.5,0.1,1-0.1,1.5,0
			c2.6,0.6,5.3,0.1,8,0c5.8,0,11.6-0.5,17.4,0c8.5,0.3,17-0.4,25.4,0.1c2.9,0.2,5.8-0.2,8.7,0c18.3-2.9,36.8-0.6,55.2,0
			c21.1,0.7,42.2-1.6,63.3,0c18.9,1.4,37.8-1.2,56.8-0.9c19,0.3,38,1,56.9,0c38-2,75.9-0.1,114,0c37.8,0.1,75.6,0.7,113.4-0.8
			c18.3-0.8,36.6-1.3,54.9-1.3c1,0,1.9,0,2.9,0c10.7-0.8,21.5-1.6,32.2-2.3c1.5-0.4,3-0.8,4.5-1c2.7-0.3,5.5,0,8.1,0.8
			c4.8,0,9.5,0.1,14.3,0.1c1.1,0,2.2,0,3.3,0.1c0.2,0,0.3-0.1,0.5-0.1c0.4,0,0.8,0,1.2,0c0.1-0.1,0.3-0.1,0.4-0.2
			c0.6-0.3,1.2-0.3,1.9-0.4c-0.3,0.1-0.6,0.1-0.9,0.2c0.3-0.1,0.6-0.2,0.9-0.3c0.5-0.2,1.1-0.3,1.7-0.4c-0.3,0.1-0.6,0.1-0.9,0.2
			c0.8-0.2,1.5-0.6,2.4-0.7c0.6,0,1.2,0,1.8,0c-0.6,0.2-1.2,0.4-1.8,0.6c0.8-0.5,1.6-0.5,2.4-0.7c0.8-0.6,1.7-1.1,2.5-1.8
			c0.2-0.2,0.4-0.4,0.6-0.6c1-1.1,2-1.8,3.2-2.3c0.3-0.1,0.6-0.3,1-0.4c0.9-0.4,1.9-0.9,2.8-1.4c1.7-1,3.4-2,5.1-3.1
			c1.8-1.1,3.4-2.6,4.9-4.1c-0.4,0.4-0.8,0.8-1.2,1.2c2.2-2.2,4.4-4.4,6.7-6.4c5-6.4,10-12.8,14.4-19.9c0.1-0.2,0.1-0.4,0.2-0.6
			c0.1-0.2,0.2-0.3,0.2-0.5c0.2-1,0.4-2,0.8-3.1c0.3-0.8,0.7-1.7,1.1-2.5c0.2-0.5,0.5-1.1,0.7-1.6c0,0,0-0.1,0-0.1
			c0.1-0.4,0.2-0.8,0.3-1.2c0-0.1,0-0.1,0-0.2c0.1-0.3,0.3-0.5,0.4-0.8c0-0.1,0-0.2,0-0.3c0,0.1,0,0.1,0,0.2c0-0.1,0.1-0.2,0.1-0.3
			c0.1-0.8,0.3-1.5,0.7-2.2c-0.2,0.3-0.4,0.6-0.5,1l-0.1,0.6c0-0.2,0-0.4,0.1-0.6c0,0,0,0,0,0c0-0.1,0-0.1,0-0.2
			c0.1-0.7,0.1-1.4,0.4-2.1c0,0,0,0,0,0c0,0,0,0,0,0c0-0.1,0-0.1,0-0.2c0-0.2,0-0.3,0-0.5c0.1-0.6,0.3-1.1,0.5-1.7
			c-0.3,1.1-0.2,0.5-0.1,0.3c0.2-0.6,0.4-1.3,0.6-1.9c0.1-0.6,0.2-1.2,0.4-1.7c0.3-1.6,0.6-3.1,1-4.6c0-0.4,0-0.8,0.1-1.3
			c0.1-0.4,0.2-0.8,0.3-1.2c0.1-1.3,0.3-2.7,0.4-4c0,0.4-0.1,0.8-0.1,1.3c0.1-0.8,0-1.7,0.2-2.5c0.1-0.4,0.2-0.8,0.3-1.2
			c0.1-0.4,0.1-0.8,0.2-1.1c0.1-0.6,0.1-1.1,0.2-1.7c0.3-1.8,0.4-3.7,0.8-5.5c0.1-1.3,0.2-2.6,0.3-3.9c0-9.9,0.1-19.9,0.2-29.8
			c0.2-11.7,0.4-23.3,0.7-35C808.9,123.1,808.9,120.4,808.8,117.7z"/>
	</g>
</g>
<g>
	<path class="st1" d="M307.4,259.1c-3.8,0-7.7-0.1-11.5-0.3c-11-0.7-22.3-0.4-33.2-0.2c-8.4,0.2-17.1,0.4-25.6,0.2
		c-4.3-0.1-8.7-0.3-12.9-0.5c-12.5-0.6-25.5-1.2-38,0.5c-0.2,0-0.4,0-0.5,0c-1.2-0.1-2.5,0-3.8,0c-1.4,0-2.8,0.1-4.3,0
		c-4.2-0.2-8.6-0.1-12.9-0.1c-3.5,0.1-7.1,0.1-10.7,0c0,0-0.1,0-0.1,0c-3.3-0.2-6.6-0.1-10.1-0.1c-1.9,0-3.9,0.1-5.9,0.1
		c-0.6,0-1.2,0.1-1.8,0.1c-1.9,0.1-3.9,0.3-5.9-0.1c-0.1,0-0.2,0-0.2,0c-0.3,0-0.7,0-1.1,0c-6.8-0.8-14.1-0.8-22.3,0
		c-4.3,0.4-8.4,0-12.4-0.4c-3.7-0.3-7.2-0.7-10.8-0.4c-1.7,0.1-3.3,0.1-4.9,0.1l-0.8,0c-0.4,0-0.7-0.1-1.1-0.2
		c-0.7-0.3-1.3-0.5-1.9-0.8c-0.4,0-0.8-0.1-1.2-0.3l-1-0.4c-0.1-0.1-0.2-0.1-0.3-0.2c-1.3-0.6-2.7-1-4.2-1.5c-0.4,0-0.8-0.1-1.1-0.3
		L66,254c-0.1,0-0.2-0.1-0.2-0.1c-0.4-0.2-0.9-0.4-1.5-0.6c-0.1,0-0.2-0.1-0.3-0.2c-0.3-0.1-0.5-0.3-0.8-0.5
		c-0.2-0.1-0.4-0.3-0.5-0.4c-0.2-0.2-0.3-0.2-0.4-0.3l-0.1-0.1c-0.1-0.1-0.2-0.2-0.2-0.2l-0.1-0.1c-0.1,0-0.1-0.1-0.2-0.1
		c-0.9-0.4-1.6-1-2.2-1.4l-0.4-0.3c-0.7-0.5-1.4-0.9-1.9-1.3c-0.3-0.2-0.7-0.4-1-0.6c-0.4-0.2-0.8-0.5-1.2-0.7
		c-0.8-0.5-1.5-1-2.1-1.5c0,0-0.1-0.1-0.1-0.1l-0.1-0.1c-0.3-0.2-0.5-0.5-0.8-0.7c-0.4-0.4-0.8-0.7-1.4-1.1l-0.1-0.1
		c-0.2-0.2-0.4-0.4-0.6-0.6l-0.4-0.5c-0.3-0.3-0.5-0.6-0.8-0.9c-0.7-0.9-1.4-1.6-2-2.2c-0.3-0.3-0.6-0.6-0.9-1.1
		c-0.8-1.4-1.8-2.6-2.9-3.5c-0.4-0.1-0.7-0.3-1.1-0.6l-0.9-0.7c-0.1-0.1-0.3-0.2-0.5-0.2c-0.6-0.3-1.1-0.8-1.5-1.4
		c-1.4-2.4-2.9-4.8-4.2-7.3c-0.2-0.3-0.3-0.6-0.4-0.9c-0.1-0.4-0.3-0.9-0.4-1.3c-0.1-0.3-0.3-0.7-0.5-1.1c-0.1-0.2-0.3-0.5-0.4-0.7
		l-0.1-0.1c0,0,0,0,0,0l-0.2-0.5c-0.1-0.3-0.2-0.6-0.4-0.9c-0.2-0.5-0.5-1.1-0.7-1.6c-0.3-0.6-0.5-1.2-0.8-1.7c0-0.1,0-0.1-0.1-0.2
		c-0.3-0.8-0.6-1.6-0.9-2.4c0-0.1-0.1-0.2-0.1-0.2c-0.5-0.6-0.8-1.4-0.9-2.3l-0.1-1c0-0.1,0-0.2,0-0.3c0-0.1,0-0.2-0.1-0.3
		c-0.1-0.3-0.2-0.7-0.3-1.1l-0.1-0.8c0-0.2-0.1-0.3-0.1-0.5c-0.1-0.5-0.3-1-0.4-1.5c-0.2-0.9-0.5-1.9-0.7-3
		c-0.1-0.8-0.3-1.5-0.4-2.3c-0.2-1-0.3-1.9-0.5-2.8c-0.4-1.9-0.8-3.7-1.1-5.5l-0.1-0.5c-0.1-0.5-0.1-1-0.1-1.5l0.1-0.6
		c0-0.3,0-0.6,0.1-0.9c0.2-1.9,0.2-3.8,0.2-5.8l0-14.4c0-4.5,0-8.9,0-13.4c0-12.2-0.1-24.8,0.1-37.2c0-0.4,0.1-0.8,0.1-1.2l0.1-0.2
		c0.1-0.3,0.1-0.5,0.2-0.8c0.2-0.8,0.3-1.5,0.4-2.3l0.1-0.3c0.1-0.5,0.2-0.9,0.2-1.2l0-0.7c0-0.2,0-0.4,0.1-0.6
		c0.2-1.1,0.4-2.2,0.7-3.2l0-0.2c0-0.2,0.1-0.4,0.1-0.5c0.1-0.3,0.1-0.6,0.2-0.9c0-0.2,0.1-0.3,0.1-0.5c0-0.1,0-0.3,0-0.4l0.1-0.9
		c0-0.4,0.1-0.9,0.1-1.3c0-0.2,0.1-0.5,0.1-0.7c0.2-1,0.5-1.9,0.8-2.7l0.1-0.3c0.1-0.3,0.2-0.6,0.3-0.9c0-0.1,0-0.2,0-0.3l0.1-1.1
		c0,0,0,0,0,0c0-0.3,0.1-0.5,0.1-0.8c0-0.3,0.1-0.7,0.2-1l0.2-0.5c0-0.1,0.1-0.2,0.1-0.3c0-0.1,0.1-0.2,0.1-0.3c0,0,0-0.1,0-0.1
		c0-0.2,0-0.3,0.1-0.4c0-0.2,0.1-0.4,0.1-0.5c0.1-0.2,0.2-0.5,0.3-0.7c0-0.1,0.1-0.2,0.1-0.2c0-0.1,0.1-0.3,0.1-0.4
		c0.1-0.4,0.3-0.7,0.6-1l0.2-0.3c0.1-0.1,0.2-0.2,0.3-0.4c0.6-1,1.3-2,1.9-3c1.1-1.7,2.2-3.6,3.4-5.3c0,0,0-0.1,0.1-0.1
		c1.4-1.9,3-3.9,4.7-5.7l0.7-0.7c0,0,0.1-0.1,0.1-0.1c3-3,5.3-5.3,7.5-7.4c0.2-0.2,0.4-0.3,0.6-0.5c0.2-0.2,0.5-0.3,0.7-0.4
		c0.1,0,0.1-0.1,0.2-0.1c0,0,0.1,0,0.1,0c0.3-0.1,0.4-0.2,0.5-0.2c0.1-0.1,0.1-0.1,0.2-0.2c0.2-0.2,0.4-0.3,0.6-0.4l0.3-0.2
		c0.1-0.1,0.2-0.1,0.3-0.2c0.1-0.1,0.2-0.2,0.3-0.3l0.7-0.6c0.2-0.2,0.5-0.3,0.7-0.5c0.1-0.1,0.3-0.2,0.4-0.3
		c0.3-0.3,0.6-0.5,0.9-0.8l0.6-0.5c0.1-0.1,0.1-0.1,0.2-0.1c0.7-0.5,1.3-1,1.9-1.4l0.2-0.1c0.4-0.3,0.8-0.5,1-0.7
		c0.1-0.1,0.1-0.1,0.2-0.2l0.1-0.1c0.1-0.1,0.3-0.2,0.4-0.3c0.2-0.1,0.3-0.3,0.5-0.3l0.1-0.1c0.1-0.1,0.2-0.2,0.3-0.2
		c0.2-0.1,0.4-0.3,0.6-0.4c0,0,0,0,0.1,0c0.1,0,0.1,0,0.2-0.1c0,0,0,0,0.1,0L63,57c0,0,0,0,0,0c0.1,0,0.1-0.1,0.2-0.1
		c0.6-0.2,1.1-0.5,1.6-0.7l1.2-0.6c0.3-0.1,0.5-0.3,0.7-0.4l0.6-0.5c0.2-0.1,0.3-0.2,0.5-0.3c0.3-0.3,0.6-0.5,0.9-0.6
		c0.1,0,0.1-0.1,0.2-0.1c0.6-0.2,1.1-0.5,1.6-0.7c0.2-0.1,0.4-0.2,0.6-0.2c0.2,0,0.3-0.1,0.5-0.1c0,0,0.1,0,0.1,0
		c0.2-0.1,0.3-0.1,0.5-0.1c0,0,0,0,0,0c0.1,0,0.1-0.1,0.2-0.1l0.1-0.1c0,0,0.1-0.1,0.2-0.1c0,0,0.1,0,0.1,0c0.2-0.1,0.3-0.2,0.5-0.2
		c0.1,0,0.2,0,0.2-0.1c0.2,0,0.3-0.1,0.5-0.1l0.4,0c0.1,0,0.2,0,0.3,0c0,0,0,0,0,0c0.1,0,0.2-0.1,0.3-0.1c0,0,0.1,0,0.1,0
		c0.3-0.1,0.6-0.2,0.9-0.2c0.2,0,0.3-0.1,0.5-0.1l0.5-0.2c0.7-0.2,1.5-0.4,2.3-0.6c0.1,0,0.2,0,0.3,0l0.4,0c0,0,0.2,0,0.5-0.2
		c0,0,0.1,0,0.1,0c0.4-0.2,0.9-0.3,1.3-0.4c0.1,0,0.2,0,0.2,0c0,0,0,0,0,0l0.5-0.2c0.4-0.2,0.9-0.3,1.3-0.3c0.1,0,0.2-0.1,0.3-0.1
		l0.6-0.3c0.5-0.2,1.1-0.3,1.7-0.2c0.1,0,0.1,0,0.2,0c0.1,0,0.3,0,0.4-0.1c0.2-0.1,0.4-0.1,0.6-0.2l0.8-0.1c0.1,0,0.3,0,0.4,0
		c0.1,0,0.2-0.1,0.4-0.1l0.4-0.1c0.1,0,0.2,0,0.2,0c0.3,0,0.5-0.1,0.8-0.1c0.2,0,0.5,0,0.7-0.1c0.2-0.1,0.4-0.1,0.6-0.2l0.6-0.1
		c0.6-0.1,1.2-0.2,1.7-0.4l0.2-0.1c0.3-0.1,0.6-0.1,0.8-0.1c0,0,0,0,0,0c4.8,0,9.7,0,14.5,0c1.2-0.1,2.4-0.1,3.6-0.2
		c14.5-1.3,29.1-1.3,45.2-1.3l3.8,0c0.7-0.1,1.4-0.2,2.1-0.3c0.1,0,0.2,0,0.3,0c2.7,0,5.5-0.2,8.4-0.4c0.1,0,0.1,0,0.2,0l1.4,0
		c3.4,0,6.7,0,10.1,0c34.8-0.2,65.6-0.6,102.4-1.9c4.2-0.2,8.5-0.1,12.7,0c3,0,6.2,0.1,9.3,0c0,0,0.1,0,0.1,0c0.2,0,0.5,0,0.7,0
		c1.6,0.2,3.4,0.1,5.3,0c1.8-0.1,3.6-0.2,5.5,0c1.1,0.1,2.2,0,3.5-0.1c1.8-0.1,3.7-0.2,5.7,0.1l0.1,0c0.2,0,0.4,0,0.6,0
		c0.9,0,1.9,0,2.8-0.1c1.7-0.1,3.4-0.1,5.3,0.1c0,0,0.1,0,0.1,0c4.4,0.7,8.9,0.4,13.6,0.2c3.5-0.2,7.1-0.4,10.7-0.2c1,0.1,2,0,3.1,0
		c1,0,1.9,0,3,0c7.1,0,14.2,0,21.4,0c4.2-0.3,8.5-0.1,12.6,0c4,0.1,8.1,0.2,12.1,0c29.9-1.8,60.3-0.9,89.7-0.1l1.7,0.1
		c8.5-0.4,17-0.3,25.3-0.1C539,43,546,43.2,552.8,43c5.3-0.1,10.6,0,15.8,0c5.6,0.1,11.4,0.2,17.1,0c2.3-0.1,4.6,0,6.9,0
		c2.5,0.1,4.8,0.1,7.1,0c0.3,0,0.7,0,1,0c19.4,0,39,0.1,58,0.2c19.7,0.1,40.1,0.2,60.1,0.2c0.2,0,0.4,0,0.7,0.1
		c0.6,0.1,1.1,0.2,1.6,0.2l0.5,0c0.1,0,0.3,0,0.4,0c0.7-0.2,1.4-0.2,2,0.1l0,0c0.3,0.1,0.6,0.2,0.8,0.3c0,0,0,0,0.1,0l0.1,0
		c0.5,0,1.1,0.2,1.6,0.5c0.1,0.1,0.1,0.1,0.1,0.1l3.1,0c0.3,0,0.6,0.1,0.9,0.1l0.2,0.1c0,0,0.1,0,0.1,0c0,0,0,0,0,0
		c0.2,0,0.5,0,0.7,0.1c0.1,0,0.2,0,0.3,0.1l0.4,0.1c0.1,0,0.2,0.1,0.3,0.1l0,0c0.1,0,0.2,0,0.3,0c0.2,0,0.4,0.1,0.6,0.1
		c0.2,0,0.3,0.1,0.4,0.1c0.2,0,0.4,0.1,0.5,0.1c0.2,0,0.3,0.1,0.5,0.1l0.4,0.1c0.3,0,0.5,0.1,0.7,0.2c0,0,0.1,0,0.3,0
		c0.2,0,0.5,0.1,0.7,0.2l0.3,0.1c0.1,0,0.1,0,0.2,0.1c0.1,0,0.1,0.1,0.2,0.1c0,0,0.1,0,0.1,0c0.1,0,0.1,0,0.2,0.1l0.1,0.1
		c0.1,0,0.2,0.1,0.4,0.1c0,0,0.1,0,0.1,0c0.1,0,0.1,0,0.2,0c0.4,0.1,0.8,0.2,1.2,0.3c0.1,0,0.1,0.1,0.2,0.1c0.1,0,0.2,0.1,0.6,0.1
		l0.3,0c0.3,0,0.6,0.1,1,0.2c0.3,0.1,0.5,0.2,0.7,0.3c0,0,0,0,0.1,0c0.2,0,0.4,0.1,0.6,0.2c0.1,0,0.1,0,0.2,0.1
		c0.1,0,0.1,0.1,0.2,0.1c0.3,0.1,0.6,0.2,0.9,0.3l0.1,0.1c0.1,0.1,0.2,0.1,0.3,0.2c0.2,0.1,0.3,0.2,0.3,0.2c0,0,0.1,0,0.1,0
		c0.4,0,0.8,0.2,1.1,0.3c0.1,0,0.2,0.1,0.4,0.1c0.3,0,0.6,0.1,0.9,0.3c0.1,0,0.2,0.1,0.3,0.1c0,0,0.1,0,0.1,0c0.1,0,0.1,0.1,0.2,0.1
		l1.6,0.9c0.1,0.1,0.2,0.1,0.3,0.1c0.1,0,0.1,0,0.2,0.1c0.4,0.2,0.8,0.4,1.1,0.8l0,0c0.4,0.1,0.7,0.3,1.1,0.6
		c0.1,0.1,0.1,0.1,0.2,0.2c0,0,0,0,0,0L753,53c0.2,0.1,0.3,0.1,0.5,0.2c0.1,0.1,0.3,0.2,0.4,0.3c0.6,0.4,1.1,1,1.5,1.7
		c0,0,0,0,0,0.1c0.1,0.1,0.3,0.1,0.5,0.2c0.2,0.1,0.4,0.2,0.7,0.3c0,0,0.2,0.1,0.2,0.1c0.2,0.1,0.4,0.3,0.5,0.4c0,0,0.1,0.1,0.1,0.1
		c0.6,0.6,1.2,1.2,1.7,1.9l0.2,0.2c0.5,0.6,1.2,1.1,2.1,1.5c0.4,0.2,0.8,0.4,1.1,0.8l1.9,2.1c0.1,0.1,0.2,0.2,0.3,0.3
		c0.2,0.2,0.3,0.3,0.5,0.5c0.1,0.2,0.3,0.4,0.4,0.6c0.6,0.9,1.3,1.7,2,2.6c0.7,0.9,1.5,1.9,2.2,2.9c0.1,0.1,0.1,0.2,0.2,0.2
		c0.1,0.2,0.3,0.4,0.4,0.6l0.3,0.5c0.2,0.3,0.3,0.5,0.4,0.9c0,0.1,0.1,0.1,0.1,0.2l0.1,0.1c0.2,0.3,0.4,0.6,0.6,1
		c0,0.1,0.1,0.1,0.1,0.2l0.1,0.1c0.2,0.3,0.4,0.6,0.6,1l0.1,0.3c0.5,1.2,1,2.4,1.6,3.5c0.4,0.7,0.7,1.5,1.1,2.2l0.2,0.4
		c0.1,0.3,0.2,0.5,0.3,0.8l0.1,0.2c0,0.1,0.1,0.1,0.1,0.2c0.4,0.6,0.6,1.3,0.7,2c0,0.1,0,0.1,0,0.2c0,0.1,0,0.1,0,0.2
		c0.1,0.2,0.3,0.4,0.4,0.6c0.1,0.2,0.3,0.5,0.4,0.8l0,0.1c0.1,0.3,0.2,0.7,0.3,1.1c0,0.1,0,0.2,0,0.2c0.1,0.3,0.2,0.6,0.3,1
		c0,0,0,0,0,0c0,0,0,0,0,0c0.2,0.4,0.3,0.8,0.3,1.2c0,0.1,0,0.2,0,0.3c0.1,0.2,0.2,0.5,0.3,0.7c0,0.1,0.1,0.2,0.1,0.3
		c0,0.1,0.1,0.2,0.1,0.3c0.2,0.4,0.3,0.9,0.4,1.4l0.1,0.7c0,0.1,0.1,0.3,0.2,0.5c0,0,0.1,0.1,0.1,0.1c0.2,0.4,0.4,0.8,0.5,1.2
		c0,0,0,0,0,0c0,0,0,0,0,0c0,0,0,0,0,0c0,0,0.1,0.1,0.1,0.2c0.1,0.2,0.1,0.4,0.2,0.5c0,0.1,0.1,0.1,0.1,0.2c0.1,0.2,0.2,0.4,0.3,0.6
		c0,0.1,0.1,0.2,0.1,0.3c0.1,0.3,0.3,0.7,0.3,1.1c0,0,0,0.1,0.1,0.1c0.1,0.3,0.2,0.6,0.3,1c0,0.2,0.1,0.3,0.1,0.5
		c0,0.1,0.1,0.2,0.1,0.3c0,0,0,0,0,0c0.1,0.1,0.1,0.3,0.2,0.4c0,0,0,0,0,0v0c0.2,0.4,0.3,0.9,0.3,1.3l0.1,0.7c0,0,0,0.1,0,0.1
		c0.2,0.5,0.3,1.2,0.4,1.8c0,0.6,0,1.3,0.1,1.9c0.1,1.5,0.1,3,0.1,4.5c0,3.5,0.3,7,0.5,10.7c0.1,1,0.1,2.1,0.2,3.1c0,0,0,0,0,0
		c0.1,1.2,0.1,2.5,0.2,3.7c0,0.9,0.1,1.9,0.1,2.8c0,0.1,0,0.3,0,0.4c-0.3,10-0.5,18.9-0.6,27.5c-0.1,7-0.2,14.2-0.2,21.1l0,2.3
		c0,0.2,0,0.3,0,0.5c-0.1,1-0.2,1.9-0.2,2.8c0,0.4-0.1,0.7-0.2,1.1c-0.1,0.5-0.2,1.2-0.3,1.9c-0.1,0.6-0.2,1.3-0.3,2.1
		c0,0.1,0,0.2,0,0.3c0,0.3,0,0.5-0.1,0.8c0,0.1,0,0.2,0,0.3l0,0.2c-0.1,0.4-0.1,0.7-0.2,1.1c0,0.2-0.1,0.4-0.2,0.6
		c0,0.2,0,0.5,0,0.7l-0.1,1c0,0.1,0,0.2,0,0.3c-0.1,0.6-0.1,1.1-0.2,1.6c0,0.4-0.1,0.8-0.2,1.2c0,0.1-0.1,0.2-0.1,0.3c0,0,0,0,0,0
		l0,0.3c0,0.4-0.1,0.7-0.2,1.1l-0.2,0.9c-0.2,0.9-0.5,1.7-0.6,2.5c-0.1,0.4-0.2,0.8-0.4,1.1c-0.1,0.4-0.1,0.7-0.3,1.1l-0.1,0.1
		c-0.1,0.2-0.2,0.5-0.3,0.7c0,0.1,0,0.2-0.1,0.2c0,0.1-0.1,0.3-0.2,0.6c0.1,1.1-0.1,2.2-0.6,3.2c-0.1,0.3-0.2,0.6-0.3,0.9
		c-0.1,0.3-0.2,0.7-0.4,0.9c0,0,0,0.1,0,0.1c0,0,0,0,0,0c0,0,0,0,0,0c0,0,0,0.1,0,0.1c0,0.2-0.1,0.3-0.1,0.4l0,0c0,0,0,0,0,0
		c-0.1,0.5-0.3,0.9-0.5,1.3c-0.1,0.2-0.2,0.5-0.3,0.7l-0.6,1.1c-0.2,0.4-0.4,0.8-0.6,1.2c-0.2,0.4-0.3,0.7-0.4,1.4
		c-0.1,0.4-0.2,0.8-0.4,1.2c0,0,0,0.1-0.1,0.1c0,0.1-0.1,0.3-0.2,0.5c-0.1,0.3-0.3,0.7-0.5,0.9c-4.3,5.8-9.1,11.1-13.7,16
		c-0.1,0.2-0.3,0.3-0.5,0.4c-1.8,1.3-3.6,2.8-5.2,4.2l-0.9,0.7c0,0-0.1,0-0.1,0.1l0,0c-0.1,0.1-0.2,0.2-0.4,0.3
		c-1.1,0.8-2.3,1.7-3.6,2.4c-1.7,0.9-3.4,1.7-4.9,2.5c-1,0.4-1.9,0.8-2.8,1.2c-0.3,0.1-0.6,0.2-0.9,0.4c-0.9,0.3-1.3,0.6-1.7,1
		c-0.2,0.2-0.3,0.3-0.5,0.5l-0.1,0.1c-0.1,0.1-0.2,0.2-0.3,0.2c-0.7,0.5-1.4,0.9-2,1.3c-0.2,0.1-0.5,0.3-0.7,0.4
		c-0.3,0.2-0.6,0.3-1,0.4l-0.5,0.1l-1.5,0.4c-0.5,0.2-1.1,0.1-1.6,0c-0.1,0-0.1,0-0.2,0l-0.6,0.1c-0.3,0.2-0.6,0.3-1,0.3l-0.9,0.1
		c-0.1,0-0.2,0-0.3,0c-0.1,0-0.2,0.1-0.2,0.1c-0.4,0.2-0.8,0.2-1.1,0.2l-0.2,0c-0.2,0-0.4,0-0.6,0c-0.1,0-0.2,0.1-0.3,0.1
		c-0.2,0-0.3,0-0.5,0c-0.4,0-0.8,0-1.2,0c-0.6,0-1.2,0-1.8,0c-3.7,0.1-7.4,0-10.9,0l-2.4,0c-0.2,0-0.4,0-0.7-0.1
		c-2.1-0.6-4.4-0.7-6.6-0.6c-1.1,0.1-2.3,0.3-3.8,0.7c-0.2,0-0.3,0.1-0.5,0.1c-7.3,0.4-14.7,0.9-21.8,1.3l-8.2,0.5
		c-0.1,0-0.1,0-0.2,0l-2.7,0c-15.3,0-32,0.3-51,1c-27.9,1-56.3,0.9-83.7,0.7c-7.3,0-14.5-0.1-21.8-0.1c-11.4,0-22.9-0.2-34.1-0.4
		c-23.5-0.3-47.9-0.7-71.8,0.3c-15,0.7-30.3,0.4-45,0.1c-2.7,0-5.4-0.1-8.1-0.1c-7.4-0.1-15,0.2-22.3,0.5
		C320.3,258.9,313.8,259.1,307.4,259.1z M280.1,249.7c5.4,0,10.8,0.1,16.1,0.5c10,0.6,20.2,0.2,30.1-0.2c7.4-0.3,15-0.6,22.6-0.5
		c2.7,0,5.4,0.1,8.1,0.1c14.7,0.3,29.8,0.5,44.7-0.1c24.1-1.1,48.5-0.7,72.1-0.4c11.1,0.2,22.7,0.3,34,0.3c7.3,0,14.5,0,21.8,0.1
		c27.4,0.1,55.7,0.2,83.5-0.7c19.1-0.7,35.8-1,51.2-1l2.6,0l8.1-0.5c7.1-0.4,14.4-0.9,21.6-1.3c1.2-0.3,2.8-0.6,4.4-0.8
		c2.7-0.2,5.5,0,8.1,0.6l2.1,0c3.5,0,7.2,0.1,10.8,0c0.7,0,1.3,0,2,0c0.3,0,0.5,0,0.8,0c0.2,0,0.4-0.1,0.6-0.1c0.3,0,0.5,0,0.8,0
		c0.5-0.2,1-0.3,1.5-0.3l0.3-0.1c0.5-0.2,1-0.3,1.4-0.3c0.1,0,0.2-0.1,0.3-0.1c0.5-0.2,1.2-0.4,2-0.4c0.4,0,0.9,0,1.3,0l0.1,0
		c0.1-0.1,0.2-0.1,0.3-0.2c0.4-0.2,0.8-0.4,1.1-0.6l0.1-0.1c0.1,0,0.1-0.1,0.2-0.1c1.4-1.5,2.9-2.1,4.1-2.6c0.3-0.1,0.6-0.2,0.9-0.3
		c0.8-0.3,1.7-0.7,2.5-1c1.4-0.7,2.9-1.4,4.6-2.3c1.4-0.8,2.8-1.8,4-2.8l0,0c0,0,0,0,0,0c0,0,0,0,0,0c1.6-1.3,3.2-2.7,5-4
		c4.2-4.5,8.6-9.3,12.4-14.5c0-0.1,0.1-0.2,0.1-0.3c0-0.1,0.1-0.1,0.1-0.2c0.2-0.8,0.5-1.7,1-2.7c0.2-0.5,0.5-1,0.8-1.6l0.5-1
		c0.1-0.1,0.1-0.2,0.2-0.3l0,0c0,0,0-0.1,0-0.1c0-0.1,0.1-0.3,0.1-0.4c0.2-0.7,0.4-1.2,0.6-1.5c0,0,0,0,0,0c0.1-0.5,0.2-1.3,0.4-2.1
		c0.1-0.9,0.4-1.5,0.5-1.9c0,0,0-0.1,0-0.1c0.1-0.4,0.3-0.9,0.5-1.3c0.1-0.5,0.2-1,0.4-1.4c0.2-0.9,0.4-1.8,0.7-2.6l0.1-0.3
		c0-0.3,0-0.6,0.1-1c0.1-0.5,0.2-1,0.3-1.3c0.1-0.6,0.1-1.2,0.2-1.7c0-0.1,0-0.2,0-0.3c0-0.6,0.1-1.3,0.3-2.2
		c0.1-0.3,0.2-0.6,0.3-0.9l0.1-0.2c0-0.1,0-0.2,0.1-0.3l0-0.1c0-0.1,0-0.1,0-0.2c0-0.3,0.1-0.8,0.2-1.4c0.1-0.5,0.2-1,0.2-1.5
		c0.1-0.8,0.2-1.7,0.4-2.6c0.1-0.8,0.1-1.7,0.2-2.5l0-2.1c0-6.9,0.1-14.1,0.2-21.2c0.1-8.5,0.3-17.5,0.6-27.4c0-0.9-0.1-1.8-0.1-2.7
		c0-1.1-0.1-2.3-0.1-3.4l0,0c-0.1-1-0.1-2.1-0.2-3.1c-0.2-3.7-0.5-7.5-0.5-11.3c0-1.4-0.1-2.8-0.1-4.2c0-0.3,0-0.7,0-1
		c0,0,0-0.1,0-0.1c-0.1-0.4-0.2-0.9-0.3-1.3l-0.1-0.2c-0.1-0.4-0.2-0.8-0.2-1.1c0-0.1-0.1-0.2-0.1-0.3c-0.1-0.2-0.1-0.4-0.1-0.6
		c-0.1-0.3-0.3-0.7-0.4-1.1c0,0,0-0.1,0-0.1c-0.1-0.1-0.1-0.3-0.2-0.4c-0.1-0.2-0.2-0.5-0.3-0.8c-0.1-0.2-0.2-0.4-0.3-0.7
		c-0.1-0.2-0.2-0.4-0.3-0.7c-0.3-0.6-0.5-1.2-0.7-1.8c-0.1-0.2-0.2-0.4-0.2-0.7c-0.1-0.2-0.1-0.4-0.2-0.5c-0.1-0.4-0.2-0.8-0.2-1.1
		c-0.3-0.6-0.5-1.2-0.6-1.8c0-0.2-0.1-0.3-0.1-0.4c-0.1-0.2-0.2-0.5-0.2-0.8c0-0.1,0-0.1,0-0.2c-0.1-0.3-0.1-0.5-0.2-0.7
		c-0.5-0.9-0.9-1.9-1.1-3c-0.1-0.2-0.2-0.3-0.2-0.5l-0.2-0.5c-0.1-0.2-0.2-0.4-0.3-0.7l-0.2-0.4c-0.2-0.5-0.5-1.1-0.8-1.6
		c-0.7-1.3-1.2-2.6-1.8-3.9c-0.2-0.2-0.4-0.6-0.6-1c-0.1-0.2-0.2-0.4-0.2-0.5c-0.2-0.2-0.3-0.5-0.5-0.8c-0.2-0.3-0.3-0.6-0.4-0.9
		c-0.1-0.2-0.2-0.3-0.3-0.5c-0.6-0.8-1.3-1.7-2-2.5c-0.8-1-1.6-2-2.4-3.1c-0.1-0.1-0.2-0.3-0.3-0.4l-1.6-1.7
		c-1.4-0.7-2.6-1.7-3.7-2.8l-0.2-0.2c-0.3-0.4-0.7-0.8-1-1.1c-1-0.4-1.8-0.9-2.5-1.6c-0.3-0.3-0.6-0.7-0.8-1
		c-0.1-0.1-0.2-0.1-0.3-0.2c-0.3-0.2-0.5-0.3-0.7-0.5c-0.2-0.1-0.3-0.1-0.5-0.2c-0.4-0.2-0.7-0.5-1-0.7c-0.1-0.1-0.3-0.1-0.4-0.2
		l-1.2-0.7c-0.1,0-0.2-0.1-0.3-0.1l-0.2-0.1c-0.1,0-0.2-0.1-0.2-0.1c-0.4-0.1-0.7-0.2-1-0.4c-0.2,0-0.3-0.1-0.5-0.1
		c-0.6-0.2-1.2-0.5-1.7-0.8c0,0-0.1,0-0.1,0c-0.3-0.1-0.6-0.2-0.9-0.4c-0.4-0.1-0.6-0.2-0.9-0.4c-0.8-0.1-1.4-0.2-2.1-0.5
		c0,0-0.1,0-0.1,0c-0.1,0-0.2-0.1-0.3-0.1c-0.6-0.1-1.1-0.2-1.7-0.4c-0.1,0-0.1-0.1-0.2-0.1l0,0c-0.1,0-0.3-0.1-0.5-0.2l-0.4-0.2
		c0,0,0,0,0,0c-0.3-0.1-0.6-0.1-0.9-0.3l-0.1,0c-0.5-0.1-1-0.2-1.5-0.2c-0.3,0-0.5-0.1-0.8-0.2c-0.1,0-0.3,0-0.4-0.1
		c-0.2,0-0.4-0.1-0.6-0.2c-0.1,0-0.1,0-0.2,0c-0.5,0-1-0.1-1.4-0.3l-2.7,0c-0.8,0-1.6-0.2-2.5-0.6c-0.4,0-0.7-0.1-1-0.2
		c-0.2,0-0.3-0.1-0.5-0.1l0,0c-0.4,0-0.8,0-1.2,0l-0.5,0c-0.8,0-1.7-0.1-2.5-0.3c-20,0-40.2-0.1-59.8-0.2
		c-19.3-0.1-39.2-0.2-58.8-0.2c-2.5,0.2-5.1,0.1-7.5,0c-2.3-0.1-4.4-0.1-6.5,0c-5.8,0.2-11.7,0.1-17.3,0c-5.1-0.1-10.4-0.1-15.6,0
		c-7,0.2-14.1,0.1-20.9-0.1c-8.2-0.2-16.7-0.4-25,0.1c-0.1,0-0.2,0-0.2,0l-1.8-0.1c-29.3-0.9-59.5-1.8-89.2,0.1
		c-4.2,0.3-8.5,0.1-12.6,0c-4-0.1-8.2-0.2-12.2,0c-0.1,0-0.1,0-0.2,0c-7.2,0-14.4,0-21.5,0c-0.9,0-1.8,0-2.8,0c-1.1,0-2.3,0.1-3.6,0
		c-3.3-0.2-6.8,0-10.1,0.2c-4.7,0.3-9.6,0.5-14.6-0.2c-1.4-0.1-2.9-0.1-4.5,0c-1,0-2.1,0.1-3.1,0.1l-0.2,0c-0.2,0-0.6,0-1,0
		c0,0-0.1,0-0.1,0c-1.4-0.2-3-0.1-4.6,0c-1.3,0.1-2.7,0.2-4.2,0.1c-1.6-0.1-3.2,0-4.9,0c-1.9,0.1-4,0.2-6,0c-0.1,0-0.2,0-0.3,0
		c-3.1,0-6.3,0-9.3,0c-4.1-0.1-8.3-0.1-12.4,0c-36.8,1.3-67.6,1.7-102.5,1.9c-3.4,0-6.7,0-10.1,0l-1.3,0c-2.9,0.2-5.7,0.4-8.5,0.4
		c-0.7,0.1-1.4,0.2-2.1,0.3c-0.1,0-0.2,0-0.3,0l-4,0c-13.1-0.1-29.3-0.1-44.8,1.2c0,0-0.1,0-0.1,0c-1.2,0-2.4,0.1-3.6,0.2
		c0,0-0.1,0-0.1,0c-4.7,0-9.5,0-14.2,0c-0.6,0.2-1.2,0.3-1.9,0.5c-0.1,0-0.1,0-0.2,0c-0.2,0-0.3,0.1-0.5,0.1
		c-0.2,0.1-0.5,0.1-0.7,0.1c-0.5,0.1-0.9,0.1-1.4,0.2c-0.2,0-0.3,0-0.5,0l-0.2,0C90,56.9,89.5,57,89,57c-0.5,0.1-1,0.2-1.4,0.2
		c-0.5,0.1-1,0.2-1.5,0.3c-0.4,0.1-0.8,0.3-1.2,0.4l-0.2,0c-0.2,0-0.5,0.1-0.6,0.1c-0.2,0.1-0.3,0.1-0.5,0.1
		c-0.2,0.1-0.4,0.1-0.6,0.1c-0.1,0-0.1,0-0.2,0.1c-0.7,0.3-1.5,0.7-2.5,0.7l-0.2,0c-0.5,0.1-1.1,0.3-1.6,0.4l-0.6,0.2
		c-0.3,0.1-0.5,0.1-0.8,0.2c-0.2,0-0.3,0.1-0.5,0.1c-0.1,0-0.1,0-0.2,0.1c-0.6,0.2-1.1,0.3-1.5,0.3c-0.3,0.2-0.7,0.3-1.1,0.5
		c-0.3,0.1-0.6,0.2-0.8,0.2c-0.2,0.1-0.4,0.1-0.6,0.1c-0.3,0.1-0.6,0.3-0.9,0.4c-0.4,0.3-0.7,0.6-1,0.8c-0.1,0.1-0.2,0.2-0.4,0.3
		c-0.1,0.1-0.3,0.2-0.5,0.3c-0.4,0.2-0.7,0.4-1.1,0.6l-1.2,0.6c-0.7,0.4-1.4,0.7-2.1,1c-0.1,0.1-0.2,0.1-0.3,0.2
		c-0.1,0.1-0.3,0.2-0.5,0.3l-0.1,0.1c-0.7,0.7-1.3,1.1-1.9,1.5l-0.2,0.1C62,67.7,61.6,68,61,68.5l-0.4,0.4c-0.4,0.4-0.8,0.7-1.2,1.1
		c-0.4,0.3-0.8,0.6-1.2,0.9c-0.1,0.1-0.3,0.2-0.4,0.3c-0.4,0.3-0.8,0.7-1.3,1.1l-0.4,0.3c-0.2,0.1-0.4,0.2-0.5,0.4
		c-0.1,0.1-0.2,0.2-0.3,0.2c-0.6,0.4-1.1,0.6-1.5,0.8c0,0,0,0,0,0c-2,1.9-4.2,4-6.9,6.9l-0.6,0.7c-1.5,1.6-2.9,3.3-4.1,5
		C41,88,40,89.6,38.9,91.3c-0.6,1-1.3,2.1-1.9,3.1c-0.1,0.2-0.2,0.4-0.4,0.5c0,0,0,0.1,0,0.1c0,0.2-0.1,0.5-0.2,0.8
		c0,0.2-0.1,0.3-0.2,0.5c0,0.1,0,0.1-0.1,0.2c-0.1,0.2-0.1,0.4-0.2,0.5c0,0,0,0,0,0.1l0,0.3c-0.1,0.7-0.2,1.6-0.4,2.6
		c-0.1,0.5-0.3,1-0.5,1.5l-0.1,0.3c-0.2,0.5-0.3,1-0.5,1.5c0,0.2-0.1,0.5-0.1,0.7c0,0.1,0,0.1,0,0.2c0,0.1,0,0.2,0,0.3
		c0,0.5-0.1,1.2-0.3,2c0,0.2-0.1,0.3-0.1,0.5l0,0.2c0,0.2-0.1,0.4-0.1,0.5c-0.1,0.3-0.1,0.7-0.2,1l0,0.2c-0.2,0.8-0.4,1.6-0.5,2.3
		l0,0.5c-0.1,1-0.2,1.9-0.4,2.6l-0.1,0.3c-0.2,0.8-0.3,1.6-0.5,2.5c-0.1,0.3-0.1,0.5-0.2,0.8c-0.1,12.1-0.1,24.4-0.1,36.4
		c0,4.5,0,8.9,0,13.4l0,14.4c0,2.2,0,4.5-0.2,6.8c0,0.2,0,0.5-0.1,0.7c0.3,1.7,0.6,3.3,1,4.9c0.3,1.1,0.4,2.3,0.6,3.3
		c0.1,0.7,0.2,1.4,0.4,2c0.2,0.9,0.4,1.7,0.5,2.4c0.1,0.4,0.2,0.8,0.3,1.1c0.2,0.8,0.4,1.5,0.5,2.3c0,0.2,0.1,0.5,0.1,0.7
		c0.1,0.3,0.1,0.7,0.2,1.1c0.2,0.7,0.5,1.4,0.7,2c0.2,0.7,0.5,1.4,0.7,2.1c0.2,0.5,0.4,1,0.6,1.4c0.3,0.6,0.6,1.2,0.8,1.9
		c0.2,0.4,0.3,0.8,0.4,1.1l0.1,0.3c0.5,0.9,0.9,1.9,1.2,2.9c0.1,0.3,0.2,0.5,0.2,0.8c1.1,1.9,2.2,3.9,3.3,5.8
		c0.2,0.1,0.4,0.2,0.6,0.4c2.4,1.4,4.7,3.7,6.5,6.5c0.9,0.8,1.7,1.8,2.4,2.6c0.2,0.3,0.5,0.6,0.7,0.8l0.2,0.2c0.7,0.5,1.4,1,2.1,1.7
		c0.1,0.1,0.3,0.3,0.4,0.4l0.1,0.1c0.5,0.4,0.9,0.8,1.3,1c0.3,0.2,0.6,0.4,0.9,0.5c0.5,0.3,0.9,0.5,1.4,0.8c0.6,0.4,1.4,0.9,2.2,1.5
		l0.4,0.3c0.4,0.3,0.8,0.6,1.1,0.8c0.3,0.1,0.6,0.2,0.9,0.4c0.7,0.4,1.2,1,1.6,1.3l0,0c0.5,0.2,1.1,0.4,1.7,0.7l1,0.3
		c1.8,0.6,3.7,1.2,5.5,2c1.2,0.3,2.3,0.8,3.4,1.2l0.3,0c1.5,0,3.1,0,4.6-0.1c3.9-0.3,7.8,0.1,11.5,0.5c4,0.4,7.7,0.7,11.4,0.4
		c8.5-0.9,16.2-0.9,23.4,0c0,0,0.1,0,0.3,0c0.3,0,0.7,0,1.1,0c0.1,0,0.2,0,0.3,0c1.4,0.3,3,0.2,4.7,0.1c0.7,0,1.4-0.1,2.1-0.1
		c0,0,0.1,0,0.1,0c1.9,0,3.9,0,5.8-0.1c3.4-0.1,7-0.2,10.5,0.1c3.5,0.1,7,0,10.4,0c4.3-0.1,8.8-0.1,13.2,0.1c1.2,0.1,2.5,0,3.8,0
		c1.3,0,2.7-0.1,4.1,0c12.9-1.7,26.1-1.1,38.7-0.5c4.2,0.2,8.5,0.4,12.8,0.5c8.4,0.2,17,0,25.4-0.2
		C268.4,249.8,274.2,249.7,280.1,249.7z M52.3,239.1l-0.2,0.6L52.3,239.1L52.3,239.1z M778.3,209.3l0,0.2
		C778.3,209.4,778.3,209.3,778.3,209.3z M771.2,208.7c0,0.1,0,0.2-0.1,0.4C771.2,209,771.2,208.8,771.2,208.7L771.2,208.7z
		 M778.6,207.7C778.6,207.7,778.6,207.7,778.6,207.7C778.6,207.7,778.6,207.7,778.6,207.7z M36,96.9L36,96.9C36,97,36,97,36,96.9z
		 M780.7,95.9C780.7,95.9,780.7,95.9,780.7,95.9C780.7,95.9,780.7,95.9,780.7,95.9z M780.7,95.9C780.7,95.9,780.7,95.9,780.7,95.9
		S780.7,95.9,780.7,95.9z M773,95.1C773,95.1,773,95.1,773,95.1C773,95.1,773,95.1,773,95.1z M30,92.8C29.9,92.8,29.9,92.8,30,92.8
		C29.9,92.8,29.9,92.8,30,92.8z M30,92.3C30,92.3,30,92.3,30,92.3C30,92.3,30,92.3,30,92.3z M30,92.3C30,92.3,30,92.3,30,92.3
		C30,92.3,30,92.3,30,92.3z M30,92.2C30,92.3,30,92.3,30,92.2C30,92.3,30,92.3,30,92.2z M30,92.2C30,92.2,30,92.2,30,92.2
		C30,92.2,30,92.2,30,92.2z M770.6,87.4C770.6,87.4,770.6,87.5,770.6,87.4C770.6,87.5,770.6,87.4,770.6,87.4z M765,63.6
		C765,63.6,765,63.6,765,63.6C765,63.6,765,63.6,765,63.6z M71.5,52.6c0,0-0.1,0-0.1,0C71.4,52.7,71.4,52.7,71.5,52.6z M309.5,51.7
		C309.5,51.7,309.6,51.7,309.5,51.7C309.6,51.7,309.5,51.7,309.5,51.7z M742.3,48C742.3,48,742.3,48,742.3,48
		C742.3,48,742.3,48,742.3,48z M309.6,43C309.6,43,309.7,43,309.6,43C309.7,43,309.6,43,309.6,43z M309.6,43
		C309.6,43,309.6,43,309.6,43C309.6,43,309.6,43,309.6,43z"/>
</g>
<g>
	<path class="st1" d="M179.3,200.4c-1.3-5.1,1-7.5,7-7.3c0.2,0,0.3,0,0.5,0c1.3,0,2-0.7,2-2v-26.1l-4.1,1.5
		c-4.4,1.6-7.2,0.2-8.4-4.4c-1.1-4.1,0.2-6.8,4-7.9c1-0.4,2.7-1,5-1.8c1.6-0.5,2.7-0.9,3.5-1.2v-19.5h-6.1c-4.3,0-6.4-2.1-6.4-6.4
		c0-4.3,2.1-6.4,6.4-6.4h6.1v-15.7c0-4.1,2.1-6.2,6.3-6.2c4.1,0,6.2,2.1,6.2,6.2v15.7h9.4l-0.1-0.2c-0.2-0.5-0.2-1,0.1-1.6
		c0.3-0.6,0.8-1,1.4-1.3c1.9-1,3.8-1.6,5.7-1.6c2.3-0.2,3.9,0.5,4.8,1.9c1.1,2,2.8,5.1,5,9.3l0.1,0.4v-21.2c0-4.2,2.1-6.3,6.3-6.3
		s6.3,2.1,6.3,6.3v19.1v25.3c0,12.3-1.1,22-3.4,29.3c-3,9.6-8.3,17.3-16.1,23.1c-4.2,2.7-7.7,2.7-10.4,0c-3.7-3.7-2.7-7.5,3-11.4
		c6.8-5.8,11-13.4,12.8-22.9c-0.2,0.2-0.6,0.4-1,0.8c-3,2.5-5.3,4.3-6.8,5.5c-3.8,3-6.9,2.4-9.2-1.6c-1.2-2-1.8-3.7-1.6-4.9
		c0.2-1.3,1.2-2.6,3-3.7c4.4-2.7,10-6.4,16.8-11.1l0.2,0.5v-3.6v-11.9l-3.7,2.3c-0.9,0.5-1.8,0.7-2.5,0.5c-0.7-0.2-1.3-0.7-1.6-1.5
		c-2.2-5.8-5.2-12.1-9-18.9v6.5c0,1.7-0.5,3.1-1.6,4.2c-1,1.1-2.5,1.6-4.3,1.6h-3.8v15l2.4-0.9c4.3-1.5,6.9,0,7.8,4.4
		c0.8,3.7-0.5,6.1-4,7.5c-0.7,0.2-1.7,0.6-3.1,1.1c-1.4,0.5-2.4,0.9-3.1,1.2v31c0,3.3-0.3,5.8-0.9,7.7c-0.7,1.9-1.9,3.3-3.6,4.4
		c-2.1,1.3-4.9,2.1-8.5,2.3C183.2,205.7,180.2,204,179.3,200.4z M260.9,204.6c-5.2,0-8.7-1.3-10.6-3.8c-1.8-2.6-2.7-7.5-2.7-14.8
		v-43.9v-37.6c0-4.3,2.2-6.4,6.5-6.4c4.3,0,6.4,2.1,6.4,6.4v27.6c2.8-5.4,5.1-10.5,7-15.4c0.9-2.3,2-3.8,3.4-4.3
		c1.4-0.5,3.2-0.2,5.4,0.9c4,2,4.7,5.2,2.3,9.4c-0.3,0.5-0.8,1.4-1.4,2.6c-2.6,4.7-4.6,8.2-5.8,10.3c-0.9,1.6-2.3,2.5-4.1,2.9
		c-1.8,0.3-3.6,0-5.5-1l-1.3-0.7v13.1l2-1.9c0.9-0.9,1.9-1,2.9-0.1c5.8,5,11.2,10.2,16.1,15.6c1.2,1.4,1.7,2.7,1.5,4
		c-0.2,1.1-1,2.4-2.3,3.8c-1.7,1.9-3.2,3-4.5,3.1c-1.4,0.2-2.8-0.7-4.3-2.7c-3.3-4-7.1-8.1-11.3-12.2v26.5c0,2.7,0.2,4.4,0.5,5.1
		c0.3,0.7,1.1,1,2.3,1h6.5c0.9,0,1.6-0.7,2-2.2c0.3-3.5,1-6.1,2.2-7.9c1.4-2.3,3.3-2.8,5.8-1.6c1.6,0.7,2.6,2.3,3.1,4.8
		c0.5,1.9,0.5,4.1,0.2,6.5c-0.9,4.6-2.2,7.9-4.1,9.9c-1.9,2-4.6,3-8.2,3H260.9z"/>
	<path class="st1" d="M326.8,205.8c-4.4,0-6.5-2.1-6.5-6.4v-9.9h-18.5c-4,0-6.1-2-6.1-6.1c0-4,2-6.1,6.1-6.1h18.5v-5.8h-12.6
		c-2.3,0-4.1-0.7-5.5-2.1c-1.4-1.4-2.1-3.2-2.1-5.5v-27.1c0-2.3,0.7-4.1,2.1-5.5c1.4-1.4,3.2-2.1,5.5-2.1h19.5h19.6
		c2.3,0,4.1,0.7,5.5,2.1c1.4,1.4,2.1,3.2,2.1,5.5v27.1c0,2.3-0.7,4.1-2.1,5.5c-1.4,1.4-3.2,2.1-5.5,2.1h-13.5v5.8h17.8
		c4,0,6.1,2,6.1,6.1c0,4-2,6.1-6.1,6.1h-17.8v9.9C333.3,203.6,331.1,205.8,326.8,205.8z M306.5,124.8c-2.3,0-4.1-0.7-5.5-2.1
		c-1.4-1.4-2.1-3.2-2.1-5.5v-9.8c0-2.3,0.7-4.1,2.1-5.5c1.4-1.4,3.2-2.1,5.5-2.1h5.4h6.9c1.9,0,3.3,0.5,4.4,1.6
		c1.1,1.1,1.6,2.6,1.6,4.4v11.3c0,2.3-0.7,4.1-2.1,5.5c-1.4,1.4-3.2,2.1-5.5,2.1H306.5z M310.4,116.1h1.9c1.7,0,2.6-0.9,2.6-2.6
		v-2.2c0-1.9-0.9-2.8-2.8-2.8h-0.6c-1.7,0-2.6,0.9-2.6,2.6v1.3v2.2C308.9,115.6,309.4,116.1,310.4,116.1z M311.4,145.5h9.6v-6.1
		h-4.8h-2.8c-1.3,0-2,0.7-2,2V145.5z M314.2,161.3h6.8V155h-4.8h-4.8v3.5C311.4,160.4,312.4,161.3,314.2,161.3z M336.8,124.8
		c-2.3,0-4.1-0.7-5.5-2.1c-1.4-1.4-2.1-3.2-2.1-5.5v-9.8c0-2.3,0.7-4.1,2.1-5.5c1.4-1.4,3.2-2.1,5.5-2.1h5.5h6.9
		c1.9,0,3.4,0.6,4.5,1.7c1.1,1.1,1.7,2.6,1.7,4.5v11.2c0,2.3-0.7,4.1-2.1,5.5c-1.4,1.4-3.2,2.1-5.5,2.1H336.8z M332.6,145.5h4.9h5
		v-3.4c0-1.8-0.9-2.7-2.7-2.7h-7.2V145.5z M332.6,161.3h4.9h2.9c1.4,0,2.1-0.7,2.1-2.1V155h-9.9V161.3z M340.4,116.1h1.9
		c1.8,0,2.7-0.9,2.7-2.7v-2.1c0-1.9-0.9-2.8-2.8-2.8h-0.6c-1.8,0-2.7,0.9-2.7,2.7v1.2v2.2C338.9,115.6,339.4,116.1,340.4,116.1z
		 M391.8,205.9c-6.8-0.3-12.1-5.4-16.1-15.2c-4.2,4.3-8.3,7.8-12.2,10.5c-1.9,1.2-3.5,1.7-4.9,1.6c-1.6-0.1-3.1-0.8-4.5-2.2
		c-2.1-2-3-3.8-2.6-5.5c0.3-1.6,1.8-3.1,4.5-4.7c5.8-3.8,10.9-8.4,15.4-13.8c-2.2-9.3-3.8-20.7-4.9-34.2l-3.3,0.3
		c-4.3,0.5-6.6-1.4-7.1-5.7c-0.5-4.2,1.4-6.6,5.6-7.1l3.8-0.5c-0.3-5.8-0.7-14.2-1.2-25.1c-0.2-4.7,2-7,6.5-7c4.2,0,6.4,2.2,6.5,6.6
		c0.1,7.5,0.4,15.5,0.9,23.9l18.1-2.2c4.3-0.5,6.6,1.3,7.1,5.6c0.5,4.2-1.4,6.6-5.6,7.1l-6.2,0.8l-12.5,1.5c0.7,7.9,1.5,15,2.4,21.1
		c2.7-4.7,5-9.6,6.9-14.5c1.5-4.3,4.2-5.3,8.2-3.1c3,1.6,4,4.1,2.8,7.5c-3.3,9.1-8.1,18.1-14.2,26.9c2,6.8,4.2,10.3,6.5,10.5
		c0.7,0,1.4-0.9,2-2.6c0.5-3.8,1.3-6.5,2.6-8c1.6-1.9,3.5-2,5.8-0.1c1.1,0.9,1.7,2.6,1.9,5.4c0.2,2,0,4.1-0.4,6.2
		C401.2,200.8,397.2,206,391.8,205.9z M389.2,118.1c-0.5-1.2-1.2-2.5-1.9-3.7c-1.2-2.3-2.2-4.1-2.9-5.2c-2.3-3.4-1.5-6.1,2.2-8.2
		c3.2-1.6,5.8-1,7.7,1.9c3,4.2,5.2,7.9,6.6,11c1.2,2.9,0.2,5.2-3,7C393.9,123,391,122.1,389.2,118.1z"/>
	<path class="st1" d="M459.3,197.3c-12.2,0-22-3.8-29.5-11.4c-7.9-8-11.9-19-11.9-33c0-13.8,4-24.9,12.1-33.2
		c7.6-7.9,17.4-11.9,29.3-11.9c8.5,0,15.9,2.4,22.4,7.2c1.6,1.4,2.3,2.8,2.3,4.3c-0.1,1.3-0.9,2.9-2.3,4.7
		c-3.2,3.9-6.7,4.4-10.5,1.5c-3.3-1.9-7.1-2.9-11.3-2.9c-7.3,0-13.2,2.6-17.6,7.9c-4.5,5.4-6.8,12.6-6.8,21.8c0,9.6,2.1,16.9,6.4,22
		c4.4,5.4,10.8,8,19.1,8c4.7,0,8.3-1.1,10.8-3.3v-17h-8.3c-4.7,0-7-2.4-7-7.1c0-4.7,2.3-7,7-7h8.3h8c2.3,0,4,0.7,5.4,2
		c1.3,1.3,2,3.1,2,5.4v27.5c0,2.6-0.9,4.8-2.7,6.4C477.7,194.6,469.2,197.3,459.3,197.3z"/>
	<path class="st1" d="M543.7,197.3c-11.6,0-20.9-4-27.9-12.1c-7.2-8.2-10.7-19.2-10.7-33c0-13.8,3.6-24.8,10.7-32.8
		c7-7.8,16.3-11.7,27.9-11.7c11.6,0,20.9,3.9,27.9,11.7c7.2,8.1,10.7,19,10.7,32.8c0,13.8-3.6,24.8-10.7,33
		C564.6,193.2,555.3,197.3,543.7,197.3z M543.7,182.3c6.4,0,11.5-2.7,15.3-8.2c3.8-5.4,5.7-12.8,5.7-22c0-9.3-1.9-16.5-5.7-21.8
		c-3.8-5.2-8.9-7.9-15.3-7.9c-6.5,0-11.6,2.6-15.3,7.9c-3.8,5.2-5.7,12.5-5.7,21.7s1.9,16.6,5.7,22.1
		C532.1,179.6,537.2,182.3,543.7,182.3z"/>
</g>
</svg>
