<?xml version="1.0" encoding="utf-8"?>
<!-- Generator: Adobe Illustrator 25.0.0, SVG Export Plug-In . SVG Version: 6.00 Build 0)  -->
<svg version="1.1" xmlns="http://www.w3.org/2000/svg" xmlns:xlink="http://www.w3.org/1999/xlink" x="0px" y="0px"
	 viewBox="0 0 1022.3 212" style="enable-background:new 0 0 1022.3 212;" xml:space="preserve">
<style type="text/css">
	.st0{fill:#E7DDD4;stroke:#E7DDD4;stroke-width:1.5;stroke-miterlimit:10;}
	.st1{fill:#FFFFFF;stroke:#E7DDD4;stroke-width:1.5;stroke-miterlimit:10;}
	.st2{fill:#13B6CD;}
	.st3{fill:#FFA005;}
</style>
<g id="圖層_4">
	<path class="st0" d="M1021.6,82.4l-0.9-0.1L1021.6,82.4L1021.6,82.4c0-1.4,0-2.7,0-4.1l0-3.5c0-2.8,0-5.6,0-8.4
		c-0.1-9.2-1.2-18.7-8.3-25.9c-7.3-7.4-17-8.4-25.5-8.8c-6.8-0.3-13.6-0.6-20.3-1c-5.3-0.3-10.8-0.6-16.3-0.8
		c-0.3-2.7-0.7-5.2-1.2-7.5c-2-9.1-10.3-15.5-17.4-17.3c-1.6-0.4-3.3-0.6-4.9-0.6c-10.6,0-19,8-20.5,19.5c-0.1,1.1-0.3,2.2-0.5,3.4
		l0,0.2c-0.1,0.7-0.2,1.4-0.3,2.1c-1.5,0.1-2.9,0.2-4.4,0.3c-7.8,0.5-15.9,1.1-24.1,2.1c-0.7,0.1-1.5,0.2-2.2,0.3
		c-3.2-0.5-6,0.4-9,1.2c-1,0.3-2,0.6-3,0.8c-3.1,0.7-5,0.9-8.7,0.8c-3.3-0.1-6.6-0.9-9.9-2.2c-4.4-6.2-12.2-10.3-19.5-10.3l-0.3,0
		c-8.3,0.1-16.8,0.4-25.8,0.8c-0.7-4.7-2.8-8.1-3.9-10l-0.1-0.1c-0.1-0.1-0.1-0.2-0.2-0.3c-2.3-4.4-6.3-7.5-11.2-8.7
		c-1.3-0.3-2.5-0.4-3.8-0.4c-3.5,0-6.9,1.1-9.8,3.1l-0.4,0.2c-2.4,1.4-8.2,4.7-10.6,11.8c-1.3,3.9-2.7,8-4.1,12.5
		c-1-0.9-2.1-1.6-3.2-2.2c-2.8-1.5-5.9-2.2-9.1-2.2c-6.6,0-13.5,3-17.7,7.7C716,45.6,706.8,56.2,698,66.5l-5,5.8
		c-0.4,0.5-0.8,0.9-1.2,1.5c-1.5,0.5-2.7,0.8-3.8,1c-0.4,0.1-0.8,0.2-1.3,0.2c0.1-4.9,0-9.5-0.1-13.5c-0.4-15-6.5-24.1-18.5-27.8
		c0.1-1.3,0.1-2.7-0.1-4.1c-1.1-12.3-10.4-20.8-23-21.2c-6.8-0.2-13.6-0.4-20.5-0.6c-16.7-0.5-34-1-51-1.3
		c-5.9-0.1-11.3,1.2-15.3,2.4c-7.6,2.3-13.9,9.7-14.9,17.7c-0.4,2.9-0.1,5.6,0.9,8.2c-2.8,2.1-5.1,4.6-6.9,7.6
		c-4.3,1.2-9.1,1.7-14.5,1.6c-2.6-0.1-5.2-0.3-7.7-0.5c-1.7-0.1-3.5-0.3-5.2-0.4c-3.2-3.4-6.9-5-8.3-5.5c-4.2-1.6-8.8-1.9-13-0.9
		c-3-5.1-8.5-8.2-14.5-8.2l-0.4,0c-4,0.1-7.8,1.6-10.8,4.2c-2.1-1-4.3-1.6-6.6-1.7c-4.4-0.2-8.7,1.3-12,4.2
		c-0.1,0.1-0.2,0.2-0.3,0.2l-0.1,0.1c-2.2,1.6-6.7,5-8.8,11.4c-0.6,1.8-1,3.6-1.3,5.7c-3.2,1.3-6.6,1.9-10.1,2c-0.4,0-0.8,0-1.2,0
		c-1.8-0.8-3.7-1.8-5.5-2.8c-1.2-0.6-2.4-1.3-3.6-1.9c-0.1-0.6-0.3-1.3-0.4-1.9c-2.4-9.8-12.6-15.7-21.1-15.7
		c-1.7,0-3.3,0.2-4.9,0.7c-8.2,2.2-13.4,9.3-15.6,15.1c-1.4,3.7-1.6,7.2-1.5,9.6c-0.2,0.8-0.3,1.6-0.3,2.5
		c-3.9,1.5-8.3,2.3-12.9,2.3c0,0,0,0-0.1,0c-4.3,0-7.7-0.3-11-1c-0.4-0.1-0.7-0.2-1.1-0.2c-0.2-2-0.4-3.8-0.6-5.5
		c-1-7.3-5.7-11.5-8-13.5l-0.1-0.1c-0.1-0.1-0.2-0.2-0.2-0.2c-3.3-3.6-8.1-5.7-13.1-5.5c-1.9,0.1-3.8,0.5-5.5,1.2
		c-3.3-3-7.7-4.6-12.5-4.6c-3.3,0-9.6,0.7-14.5,5.5c-4.9,4.7-9.4,9.1-13.7,13.4c-2.2-2.7-4.8-4.7-6.5-6l-0.6-0.5
		c-2.3-1.8-6.3-4-12.1-4c-1.2,0-2.2,0.1-2.9,0.2l-0.9,0c-3.1,0.1-6.1,0.2-9.3,0.3c-0.4-2-0.8-3.9-1.2-5.9c-1.6-6.7-8-17.1-19.1-18.2
		c-0.8-0.1-1.5-0.1-2.3-0.1c-2,0-19.5,0.6-20.7,21.4c-0.1,1.9-0.2,3.7-0.2,5.2c-2.8,0.3-5.6,0.8-8.2,1.4
		c-7.7,1.6-14.6,8.6-16.2,16.5c-1.5,7,1.7,15.2,7.7,19.9c0,1.1-0.1,2.1-0.1,2.9l0,0.5c-5.1,4.5-10.7,7.3-16.7,8.2
		c-6.6,1.1-14-0.4-19.3-3.9c0.2-3.8-0.4-7.3-1.7-10.6c2.4-3.5,3.8-7.6,4-11.9c0.3-5.1-1.2-10.1-4.1-14.3c1.9-3.3,2.9-7,3.1-11
		c0.4-11.9-7.4-21.3-19.4-23.6c-1.1-0.2-2.2-0.4-3.3-0.5c-3.5-6.8-8.6-10.7-15.1-11.4c-0.8-0.1-1.6-0.1-2.3-0.1
		c-7.6,0-13.3,4.3-15.4,6.1c-2.1,1.8-4,4.2-5.3,6.8c-2.8,0.3-5.5,1.1-7.8,2.5c-3.5,2-12.8,7.4-12.8,18.5c0,3.8,1.1,7.4,3.2,10.9
		c-2.7,2.6-4.5,5.5-5.5,8.8c-1.2-2.3-2.6-4.4-4.2-6.4c-4.1-5.3-11.2-8.8-17.7-8.8c-2.5,0-4.8,0.5-7.1,1.4c-6.7,2.8-10.4,8.2-12.6,12
		c-1.6,2.7-2.4,5.8-2.6,9.1c-0.5,2.3-0.5,4.7-0.1,7c0.3,1.3,0.5,2.5,0.7,3.8c0.5,2.8,1,5.6,1.7,8.4c-5.1,4.4-8.1,11.3-7.9,18
		c0.2,4.2,1.7,8.2,4.4,11.8c-4.8,4.7-7.4,10.1-7.7,16c-0.4,6.6,2,12.8,7.2,18.4c-0.7,0.5-1.3,1-2,1.5c-7.2,5.9-10.8,14-9.9,22.1
		c0.9,8.1,6,15.2,14.2,19.4c4.1,2.1,8.9,3.7,14.1,4.6c27.5,4.9,55.7,7.4,83.8,7.4c8.5,0,17.2-0.2,25.8-0.7
		c9.5-0.5,18.7-2.6,27.2-4.8c6.4-1.6,11.8-5.5,15.2-10.9c4.5,6.2,10.1,9.4,16.5,9.4c0.9,0,1.9-0.1,2.8-0.2c8.9-1.4,13.9-8.1,16-11
		c0.5-0.7,1-1.5,1.5-2.3c0.8,0,1.7,0.1,2.5,0.1l1.4,0.1c3.8,3.3,8.6,5.1,13.4,5.1c3.7,0,7.4-1.1,10.6-3.1c0.6,0.2,1.1,0.4,1.7,0.6
		c1.9,0.5,3.8,0.8,5.9,0.8c5,0,11.8-1.8,16.5-6.9c4.6,3.9,10.6,6,18,6.2c2.3,0.1,4.5,0.2,6.8,0.3l0.2,0c3.9,0.2,8,0.4,12.2,0.4l1,0
		c11.4-0.1,21-0.4,30-0.9c9.4-0.6,18-6,22-14c4.8,4.6,10.4,6.4,12,6.9c16.1,4.6,34,7.3,56.3,8.3c19.8,0.9,40.6,1.6,61.9,2.1
		c6.7,0.2,13.5-0.2,22-1.2c7.6-0.9,14.4-5.2,18.7-11.6c0.8,1.4,1.7,2.7,2.8,3.8c3.5,3.7,8.6,6.4,13.7,7.4
		c2.3,7.5,8.6,13.4,16.6,15.4c2.4,0.6,4.8,0.9,7.3,0.9c8.9,0,17.2-4,22.2-10.8l0.6-0.1c0.7-0.2,1.4-0.3,2.2-0.5c1.4,0,3,0,4.5,0.1
		c2.1,0.2,4.3,0.4,6.4,0.9c1.9,3.5,4.9,6.6,8.6,8.7c3.9,2.3,8.1,3.5,12.4,3.5c5.8,0,11.4-2.2,15.9-6.3c0.2,0.1,0.3,0.1,0.5,0.2
		c3.5,1.3,7.4,2,11.2,2c7.3,0,12.1-2.8,14.8-5.1c5.9-5.1,10.1-11.5,12.3-18.6c5-2.8,11.3-2.8,16.5-0.2c3.4,6.8,9.9,11.2,17.9,12.2
		c10.1,1.2,19.4-3.3,24.1-11.8c1-0.3,2-0.7,3-1.3c1.9-1,2.6-1.4,5.2-1.3c1.8,0.1,2.8,0.5,5.1,2c1.2,0.8,2.5,1.3,3.9,1.6
		c-0.5,4.4,0.7,8.9,3.4,12.4c0.1,0.2,0.5,0.8,0.8,1.2c1.8,2.9,6.2,9.7,15,10.9c3.2,0.4,6.8,0.2,10.3-0.8c2.6,2.6,5.5,4.4,8.9,5.4
		c1.7,0.5,3.5,0.8,5.4,0.8c7.6,0,17.6-4.8,21.2-13.7l0.1-0.1c1.9,0.4,3.8,0.6,5.9,0.6c12.5,0,21.7-8.4,22.9-21l0.2-1.9
		c0.4-4,0.8-8.6,0.7-13.4c-0.4-10.1-3.6-18.1-9.8-23.7c0.7-2.2,1.2-4.5,1.2-6.9c0.1-3.4-0.5-6.8-1.9-10c2.7-6.9,7.1-9.5,13.7-8.2
		c0.2,0,0.4,0.1,0.6,0.1l0,0c4.3,2.3,9.2,3.1,14.3,2.4c2.3-0.3,4.5-1,6.6-1.9c1.3,0.4,2.4,0.9,3.4,1.4c1.6,0.8,3,1.8,4.5,2.9
		c0.3,2,0.9,4,1.7,5.9c-4.8,4.8-6.9,10.8-5.9,16.8c1,6,4.3,11.5,10.1,16.3c1.5,1.3,3.2,2.3,5,3.1c-1.3,8.8-1.7,17.6-2,25.3
		c-0.6,12.4,7.9,22.2,20.5,23.7c0.9,0.1,1.7,0.2,2.7,0.4c2.9,0.4,6.2,0.9,9.8,0.9c3.4,0.1,7.1,0.1,10.7,0.1c4.5,0,9.2-0.1,14.3-0.2
		c12.7-0.3,22-9.7,22.2-22.3l0-2.5c0.1-7.5,0.2-15.3-0.1-23.2c-0.1-2.1-0.4-4.1-1-6c5.6-4.5,8.7-11.3,8.5-18.8
		c-0.2-7.6-3.6-14.4-9.4-18.7c0.2-1.6,0.3-3.3,0.3-4.9c0-0.9-0.1-1.9-0.3-2.8c4.4,4.2,10.2,6.5,16.6,6.5c0.9,0,1.7,0,2.6-0.1
		c13.1-1.3,22.1-11.5,22.4-25.4C1021.6,88.6,1021.6,85.5,1021.6,82.4z"/>
</g>
<g id="圖層_3">
	<path class="st1" d="M1014.7,78.9l-0.9-0.1L1014.7,78.9L1014.7,78.9c0-1.4,0-2.7,0-4.1l0-3.5c0-2.8,0-5.6,0-8.4
		c-0.1-9.2-1.2-18.7-8.3-25.9c-7.3-7.4-17-8.4-25.5-8.8c-6.8-0.3-13.6-0.6-20.3-1c-5.3-0.3-10.8-0.6-16.3-0.8
		c-0.3-2.7-0.7-5.2-1.2-7.5c-2-9.1-10.3-15.5-17.4-17.3c-1.6-0.4-3.3-0.6-4.9-0.6c-10.6,0-19,8-20.5,19.5c-0.1,1.1-0.3,2.2-0.5,3.4
		l0,0.2c-0.1,0.7-0.2,1.4-0.3,2.1c-1.5,0.1-2.9,0.2-4.4,0.3c-7.8,0.5-15.9,1.1-24.1,2.1c-0.7,0.1-1.5,0.2-2.2,0.3
		c-3.2-0.5-6,0.4-9,1.2c-1,0.3-2,0.6-3,0.8c-3.1,0.7-5,0.9-8.7,0.8c-3.3-0.1-6.6-0.9-9.9-2.2c-4.4-6.2-12.2-10.3-19.5-10.3l-0.3,0
		c-8.3,0.1-16.8,0.4-25.8,0.8c-0.7-4.7-2.8-8.1-3.9-10l-0.1-0.1c-0.1-0.1-0.1-0.2-0.2-0.3c-2.3-4.4-6.3-7.5-11.2-8.7
		c-1.3-0.3-2.5-0.4-3.8-0.4c-3.5,0-6.9,1.1-9.8,3.1l-0.4,0.2c-2.4,1.4-8.2,4.7-10.6,11.8c-1.3,3.9-2.7,8-4.1,12.5
		c-1-0.9-2.1-1.6-3.2-2.2c-2.8-1.5-5.9-2.2-9.1-2.2c-6.6,0-13.5,3-17.7,7.7C709.1,42.1,700,52.7,691.1,63l-5,5.8
		c-0.4,0.5-0.8,0.9-1.2,1.5c-1.5,0.5-2.7,0.8-3.8,1c-0.4,0.1-0.8,0.2-1.3,0.2c0.1-4.9,0-9.5-0.1-13.5c-0.4-15-6.5-24.1-18.5-27.8
		c0.1-1.3,0.1-2.7-0.1-4.1C660,14,650.8,5.5,638.2,5.1c-6.8-0.2-13.6-0.4-20.5-0.6c-16.7-0.5-34-1-51-1.3
		c-5.9-0.1-11.3,1.2-15.3,2.4c-7.6,2.3-13.9,9.7-14.9,17.7c-0.4,2.9-0.1,5.6,0.9,8.2c-2.8,2.1-5.1,4.6-6.9,7.6
		c-4.3,1.2-9.1,1.7-14.5,1.6c-2.6-0.1-5.2-0.3-7.7-0.5c-1.7-0.1-3.5-0.3-5.2-0.4c-3.2-3.4-6.9-5-8.3-5.5c-4.2-1.6-8.8-1.9-13-0.9
		c-3-5.1-8.5-8.2-14.5-8.2l-0.4,0c-4,0.1-7.8,1.6-10.8,4.2c-2.1-1-4.3-1.6-6.6-1.7c-4.4-0.2-8.7,1.3-12,4.2
		c-0.1,0.1-0.2,0.2-0.3,0.2l-0.1,0.1c-2.2,1.6-6.7,5-8.8,11.4c-0.6,1.8-1,3.6-1.3,5.7c-3.2,1.3-6.6,1.9-10.1,2c-0.4,0-0.8,0-1.2,0
		c-1.8-0.8-3.7-1.8-5.5-2.8c-1.2-0.6-2.4-1.3-3.6-1.9c-0.1-0.6-0.3-1.3-0.4-1.9C403.7,34.9,393.5,29,385,29c-1.7,0-3.3,0.2-4.9,0.7
		c-8.2,2.2-13.4,9.3-15.6,15.1c-1.4,3.7-1.6,7.2-1.5,9.6c-0.2,0.8-0.3,1.6-0.3,2.5c-3.9,1.5-8.3,2.3-12.9,2.3c0,0,0,0-0.1,0
		c-4.3,0-7.7-0.3-11-1c-0.4-0.1-0.7-0.2-1.1-0.2c-0.2-2-0.4-3.8-0.6-5.5c-1-7.3-5.7-11.5-8-13.5l-0.1-0.1c-0.1-0.1-0.2-0.2-0.2-0.2
		c-3.3-3.6-8.1-5.7-13.1-5.5c-1.9,0.1-3.8,0.5-5.5,1.2c-3.3-3-7.7-4.6-12.5-4.6c-3.3,0-9.6,0.7-14.5,5.5c-4.9,4.7-9.4,9.1-13.7,13.4
		c-2.2-2.7-4.8-4.7-6.5-6l-0.6-0.5c-2.3-1.8-6.3-4-12.1-4c-1.2,0-2.2,0.1-2.9,0.2l-0.9,0c-3.1,0.1-6.1,0.2-9.3,0.3
		c-0.4-2-0.8-3.9-1.2-5.9c-1.6-6.7-8-17.1-19.1-18.2c-0.8-0.1-1.5-0.1-2.3-0.1c-2,0-19.5,0.6-20.7,21.4c-0.1,1.9-0.2,3.7-0.2,5.2
		c-2.8,0.3-5.6,0.8-8.2,1.4c-7.7,1.6-14.6,8.6-16.2,16.5c-1.5,7,1.7,15.2,7.7,19.9c0,1.1-0.1,2.1-0.1,2.9l0,0.5
		c-5.1,4.5-10.7,7.3-16.7,8.2c-6.6,1.1-14-0.4-19.3-3.9c0.2-3.8-0.4-7.3-1.7-10.6c2.4-3.5,3.8-7.6,4-11.9c0.3-5.1-1.2-10.1-4.1-14.3
		c1.9-3.3,2.9-7,3.1-11c0.4-11.9-7.4-21.3-19.4-23.6c-1.1-0.2-2.2-0.4-3.3-0.5c-3.5-6.8-8.6-10.7-15.1-11.4
		c-0.8-0.1-1.6-0.1-2.3-0.1c-7.6,0-13.3,4.3-15.4,6.1c-2.1,1.8-4,4.2-5.3,6.8c-2.8,0.3-5.5,1.1-7.8,2.5c-3.5,2-12.8,7.4-12.8,18.5
		c0,3.8,1.1,7.4,3.2,10.9c-2.7,2.6-4.5,5.5-5.5,8.8c-1.2-2.3-2.6-4.4-4.2-6.4c-4.1-5.3-11.2-8.8-17.7-8.8c-2.5,0-4.8,0.5-7.1,1.4
		c-6.7,2.8-10.4,8.2-12.6,12c-1.6,2.7-2.4,5.8-2.6,9.1c-0.5,2.3-0.5,4.7-0.1,7c0.3,1.3,0.5,2.5,0.7,3.8c0.5,2.8,1,5.6,1.7,8.4
		c-5.1,4.4-8.1,11.3-7.9,18c0.2,4.2,1.7,8.2,4.4,11.8c-4.8,4.7-7.4,10.1-7.7,16c-0.4,6.6,2,12.8,7.2,18.4c-0.7,0.5-1.3,1-2,1.5
		C3.6,155,0,163,0.9,171.2c0.9,8.1,6,15.2,14.2,19.4c4.1,2.1,8.9,3.7,14.1,4.6c27.5,4.9,55.7,7.4,83.8,7.4c8.5,0,17.2-0.2,25.8-0.7
		c9.5-0.5,18.7-2.6,27.2-4.8c6.4-1.6,11.8-5.5,15.2-10.9c4.5,6.2,10.1,9.4,16.5,9.4c0.9,0,1.9-0.1,2.8-0.2c8.9-1.4,13.9-8.1,16-11
		c0.5-0.7,1-1.5,1.5-2.3c0.8,0,1.7,0.1,2.5,0.1l1.4,0.1c3.8,3.3,8.6,5.1,13.4,5.1c3.7,0,7.4-1.1,10.6-3.1c0.6,0.2,1.1,0.4,1.7,0.6
		c1.9,0.5,3.8,0.8,5.9,0.8c5,0,11.8-1.8,16.5-6.9c4.6,3.9,10.6,6,18,6.2c2.3,0.1,4.5,0.2,6.8,0.3l0.2,0c3.9,0.2,8,0.4,12.2,0.4l1,0
		c11.4-0.1,21-0.4,30-0.9c9.4-0.6,18-6,22-14c4.8,4.6,10.4,6.4,12,6.9c16.1,4.6,34,7.3,56.3,8.3c19.8,0.9,40.6,1.6,61.9,2.1
		c6.7,0.2,13.5-0.2,22-1.2c7.6-0.9,14.4-5.2,18.7-11.6c0.8,1.4,1.7,2.7,2.8,3.8c3.5,3.7,8.6,6.4,13.7,7.4
		c2.3,7.5,8.6,13.4,16.6,15.4c2.4,0.6,4.8,0.9,7.3,0.9c8.9,0,17.2-4,22.2-10.8l0.6-0.1c0.7-0.2,1.4-0.3,2.2-0.5c1.4,0,3,0,4.5,0.1
		c2.1,0.2,4.3,0.4,6.4,0.9c1.9,3.5,4.9,6.6,8.6,8.7c3.9,2.3,8.1,3.5,12.4,3.5c5.8,0,11.4-2.2,15.9-6.3c0.2,0.1,0.3,0.1,0.5,0.2
		c3.5,1.3,7.4,2,11.2,2c7.3,0,12.1-2.8,14.8-5.1c5.9-5.1,10.1-11.5,12.3-18.6c5-2.8,11.3-2.8,16.5-0.2c3.4,6.8,9.9,11.2,17.9,12.2
		c10.1,1.2,19.4-3.3,24.1-11.8c1-0.3,2-0.7,3-1.3c1.9-1,2.6-1.4,5.2-1.3c1.8,0.1,2.8,0.5,5.1,2c1.2,0.8,2.5,1.3,3.9,1.6
		c-0.5,4.4,0.7,8.9,3.4,12.4c0.1,0.2,0.5,0.8,0.8,1.2c1.8,2.9,6.2,9.7,15,10.9c3.2,0.4,6.8,0.2,10.3-0.8c2.6,2.6,5.5,4.4,8.9,5.4
		c1.7,0.5,3.5,0.8,5.4,0.8c7.6,0,17.6-4.8,21.2-13.7l0.1-0.1c1.9,0.4,3.8,0.6,5.9,0.6c12.5,0,21.7-8.4,22.9-21l0.2-1.9
		c0.4-4,0.8-8.6,0.7-13.4c-0.4-10.1-3.6-18.1-9.8-23.7c0.7-2.2,1.2-4.5,1.2-6.9c0.1-3.4-0.5-6.8-1.9-10c2.7-6.9,7.1-9.5,13.7-8.2
		c0.2,0,0.4,0.1,0.6,0.1l0,0c4.3,2.3,9.2,3.1,14.3,2.4c2.3-0.3,4.5-1,6.6-1.9c1.3,0.4,2.4,0.9,3.4,1.4c1.6,0.8,3,1.8,4.5,2.9
		c0.3,2,0.9,4,1.7,5.9c-4.8,4.8-6.9,10.8-5.9,16.8c1,6,4.3,11.5,10.1,16.3c1.5,1.3,3.2,2.3,5,3.1c-1.3,8.8-1.7,17.6-2,25.3
		c-0.6,12.4,7.9,22.2,20.5,23.7c0.9,0.1,1.7,0.2,2.7,0.4c2.9,0.4,6.2,0.9,9.8,0.9c3.4,0.1,7.1,0.1,10.7,0.1c4.5,0,9.2-0.1,14.3-0.2
		c12.7-0.3,22-9.7,22.2-22.3l0-2.5c0.1-7.5,0.2-15.3-0.1-23.2c-0.1-2.1-0.4-4.1-1-6c5.6-4.5,8.7-11.3,8.5-18.8
		c-0.2-7.6-3.6-14.4-9.4-18.7c0.2-1.6,0.3-3.3,0.3-4.9c0-0.9-0.1-1.9-0.3-2.8c4.4,4.2,10.2,6.5,16.6,6.5c0.9,0,1.7,0,2.6-0.1
		c13.1-1.3,22.1-11.5,22.4-25.4C1014.7,85.1,1014.7,82,1014.7,78.9z"/>
</g>
<g id="圖層_2">
	<path d="M280.6,80c-2.3,1.5-3.9,2.6-5.5,3.7c-3.2,2.3-6,1.7-8.9-0.8c-3.1-2.7-1.4-5.4,0.4-7.3c9.2-9.5,18.7-18.9,28.2-28.1
		c0.8-0.8,3.6-1,4-0.4c1,1.5,2.1,3.9,1.6,5.4c-1.2,3.3-3.2,6.4-5.1,9.4c-1.1,1.9-2.4,3.7-3.9,5.3c-3.5,3.7-1,7.2,0.7,10.3
		c0.6,1.1,3.6,0.9,5.6,1.1c1.4,0.1,2.8-0.3,4.2-0.5c9.9-1.3,8.5-0.1,10-11c0.5-3.8-0.1-7.9,0.6-11.7c0.3-1.9,2.4-3.5,3.7-5.2
		c1.4,1.6,3.8,3,4,4.8c0.8,5.7,1,11.5,1.1,17.3c0.1,3.1,1.3,4.7,4.5,4.5c1.1,0,2.2,0.3,3.2,0.5c3.4,0.6,6.1,2.4,5.9,6.1
		c-0.2,3.5-2.8,5-6.2,5.3c-1.7,0.1-3.4,0.8-5.1,0.7c-4.6-0.2-5.9,2.1-6,6.3c0,4.5,2.2,6.1,6.4,6.1c2.3,0,4.9-0.3,7,0.5
		c2,0.9,4.8,3,4.8,4.7c0,2-2,4.8-4,5.9c-2.1,1.2-5.2,0.7-7.8,1.2c-2.4,0.4-5.2,0.4-5,4.1c0.2,3.2,1.9,4.3,4.9,4.4
		c1.9,0.1,4,0,5.5,0.9c1.9,1.1,4,3,4.5,4.9c0.8,2.9-1.3,4.9-4.2,5.7c-0.5,0.1-0.9,0.1-1.4,0.3c-2.8,0.8-7.3,1-7.9,2.6
		c-1.3,3.8-1,8.2-0.8,12.4c0.1,1,2.3,2.5,3.7,2.7c3.2,0.5,6.6,0.3,9.8,0.4c1.3,0,2.5-0.1,3.8,0.1c4,0.6,8.6,5.1,8.6,8.3
		c0,3.3-3.8,7-8.6,7.3c-9.7,0.6-19.4,0.8-29.1,0.9c-6.6,0-13.1-0.5-19.7-0.6c-7.5-0.2-10.5-3.3-10-10.8c0.8-12.5,2.2-24.9,2.7-37.3
		c0.5-12.2,0.1-24.4,0.1-36.6C281.1,82.7,280.9,81.9,280.6,80z M292.2,156.3c4.8-1.2,8.4-1.8,11.7-3c1.2-0.4,2.5-2.4,2.5-3.6
		c0.1-3.9-0.2-7.8-0.9-11.6c-0.2-1.3-2.2-3.2-3.4-3.2c-2.3-0.1-6.5,0.5-6.8,1.6C293.8,142.6,293.2,148.9,292.2,156.3z M301.2,88.3
		c-6.3-0.1-7.1,0.4-7.1,4.6c0,8.3,1.3,10.4,6.2,10.5c6.6,0.1,8-1.8,8-10.3C308.3,87.3,303.8,88.9,301.2,88.3z M295,117.7
		c0.2,3.4-0.6,6.4,3.6,6.5c5.9,0,7.8-1.6,8.1-6.3c0.2-4.7-2.3-5.1-6.1-5.3C295.9,112.4,294.3,114.3,295,117.7z"/>
	<path d="M259.7,137.9c-0.1-7.2-2.4-10-9.6-10.8c-6.1-0.7-12.2-0.7-18.3-1c-5.7-0.2-6.9-1.4-7.2-7.4c-0.3-6.7-0.2-6.8,6.3-7.5
		c1.7-0.2,3.4-0.3,5.1-0.6c8.6-1.1,10.9-3.5,10.9-12.1c0-7.8-0.1-15.6-0.3-23.4c-0.1-4.2,0.4-7,5.7-7.6c2-0.2,5.1-4,5-6
		c-0.1-2.1-3.3-4.3-5.4-6c-0.9-0.7-2.7-0.3-4.1-0.2c-7.4,0.2-14.7,0.5-22.1,0.8c-1.1,0-1.9,0-2.6-0.3c-0.6,0-1.2,0.1-1.8,0.1
		c-3.6,0.1-7.3,0.4-11,0.3c-1,0.9-3.3,0.9-8.4,1.2c-4.3,0.2-8.7,0.8-13,1.7c-1.3,0.3-2.8,2.1-3.1,3.4c-0.2,1.1,1.1,3.3,2.2,3.6
		c6.6,1.9,6.6,6.8,6,12.2c-0.2,1.9-0.1,3.7-0.2,5.6c-0.3,7.3-0.7,14.7-0.7,22c-0.1,6.2,1.7,7.9,7.8,7.7c3.1-0.1,6.2-0.4,9.3-0.9
		c3.3-0.5,4.9,0.3,4.9,4.1c0,8.8-0.4,9.4-9.1,10.6c-1.5,0.2-3.1,0.6-4.6,1c-4.6,1.3-7.2,4.2-7.3,9.1c-0.3,10.6-0.8,21.2-1.1,31.8
		c0,1.7-0.2,3.7,0.6,5.1c1,1.8,3.1,4.7,4.3,4.5c1.9-0.3,3.7-2.6,5.1-4.4c0.7-1,0.5-2.7,0.5-4.1c0-8.6,0-17.2,0-25.8
		c0-3.5,0.6-6.5,5.4-6.5c4.6,0,5.5,2.5,5.3,6.3c-0.1,2-0.1,4.1,0,6.1c0.2,3.2-0.6,5.2-4.1,6.2c-1.6,0.4-3.7,1.5-4.2,3.8
		c-0.1,3,2.9,3.6,4.6,4c4.3,0.9,8.7,0.9,13.1,1.2c2.5,0.1,6.5,0.5,8.6,2c-0.5-3.3-1.2-6.3-1.7-10.1c-0.1-0.5-0.7-1.6-0.8-2.1
		c-0.1-0.4-0.1-0.8-0.2-1.2c-0.3-0.1-0.5-0.2-0.8-0.4l-1.8,0.2c-2.7-3.5-1.5-7.7-1.4-11.7c0.1-3.1,1.8-4.4,4.9-4.2
		c4.4,0.3,8.7,0.8,13.1,0.7c3.5,0,4.5,1.2,4.5,4.7c0,7,0.2,14,0.9,21c0.1,1.6,2,3.7,3.5,4.2c1.6,0.5,4.3-0.3,5.4-1.5
		c1.4-1.6,2-4.2,2.1-6.4C259.9,153.2,259.8,145.6,259.7,137.9z M207.8,100.5c-1.1,0.1-3.2-2-3.3-3.3c-0.9-8.4-1.5-16.8-1.9-25.2
		c0-0.9,1.5-2.6,2.4-2.6c9.7-0.2,19.3-0.1,28.9-0.1v29.2C224.9,99.3,216.3,100.1,207.8,100.5z"/>
	<path d="M43.1,132c10.6,9.2,15.2,19.3,6.6,32.5c2,0.5,3.6,1.2,5.2,1.3c6.5,0.6,13.1,1.4,19.7,1.5c20.7,0.2,41.3,0.3,62,0
		c6.8-0.1,13.6-1.8,20.4-2.8c5.6-0.8,9.6,1.4,10.9,6.2c1.2,4.2-1,8.8-6.1,10.1c-7.8,2-15.9,3.8-23.9,4.3
		c-35.5,1.9-70.7-0.2-105.7-6.5c-3.2-0.6-6.5-1.5-9.3-3c-6.4-3.3-6.9-8.9-1.3-13.4c1.8-1.5,3.9-2.5,6-3.7c2.8-1.6,5.7-3.2,8.6-4.8
		c3-1.6,3.1-3.6,0.7-5.9c-3.7-3.6-7.3-7.3-11-10.9c-4.8-4.9-4.6-8.6,0.8-12.9c2.2-1.7,4.7-3.1,7.1-4.6c1.3-0.8,3-1.4,3.9-2.5
		c2-2.4,3.7-5,5.4-7.5c-2.9-1.2-5.7-2.6-8.7-3.6c-1.7-0.6-3.9-0.1-5.5-0.9c-1.4-0.8-3.1-2.6-3.2-4c-0.1-1.7,1.1-4,2.4-4.9
		c6.9-4.5,21.5-1.9,26.5,4.3c5,6.3,3.7,17.7-2.9,24.3C49.3,127,46.4,129.1,43.1,132z"/>
	<path d="M577,40.9c5.5,0,11,0,16.5,0c2.7,0,4.4-1.1,4.5-4.1c0.2-3.3-2.1-3.4-4.3-3.6c-11.5-1.3-23-2.5-34.6-3.7
		c-1.1-0.1-2.3-0.3-3.1-0.9c-1.2-0.9-2.9-2.2-2.8-3.2c0.2-1.3,1.6-3.2,2.9-3.5c3.3-1,6.7-1.8,10.1-1.7c23.8,0.5,47.6,1.3,71.4,1.9
		c3.9,0.1,6.3,1.8,6.6,5.8c0.4,4.3-2,6.6-6,6.8c-7.3,0.4-14.7,0.1-22.1,0.4c-2.6,0.1-6-0.6-6.2,3.8c-0.2,3.8,2.2,4.3,5.1,4.5
		c10.9,0.7,21.9,1.3,32.8,2c0.8,0,1.6,0,2.3,0.1c9.8,0.7,12.3,3.3,12.5,13.1c0.1,5.3,0.2,10.6-0.1,15.9c-0.3,6.2-5.2,9.8-10.6,7.7
		c-1.8-0.7-3.9-2.9-4.3-4.7c-0.8-4.2-0.8-8.7-0.9-13c-0.1-3.3-1.3-5.1-5-5.3c-8.6-0.4-17.2-1.1-25.8-1.9c-4.1-0.4-5.2,1.4-5.1,5.1
		c0.1,5.9-0.1,11.9-0.4,17.8c-0.2,4.6-2.4,7-6.3,7.2c-4.2,0.2-6.8-2.1-7-6.9c-0.3-6.1-0.2-12.2-0.4-18.3c-0.2-6-1.1-7.6-6.8-8
		c-11.1-0.9-22.2-1.1-33.3-1.5c-3.2-0.1-3.5,1.9-3.4,4.3c0.4,8,0.8,15.9,1.2,23.9c0.1,3.2,0.1,6.8-4.2,7.1c-3.9,0.2-7.1-2-7.1-6
		C543.3,71.5,543,61.2,544,51c0.6-6.3,7-8.3,12.4-9.1c6.8-1,13.7-0.8,20.6-1.2C577,40.8,577,40.8,577,40.9z"/>
	<path class="st2" d="M397.6,149.3c10.8,1,21,2.4,31.3,2.7c25.4,0.8,50.7,1.1,76.1,1.6c1.7,0,3.4,0.3,5.1,0.4
		c4.2,0.1,7.9,0.8,8.2,6.2c0.3,4.8-3,9.3-8.1,9.9c-6.5,0.8-13.1,1.3-19.7,1.1c-20.5-0.5-41-1.1-61.5-2.1
		c-17.7-0.8-35.3-2.7-52.4-7.6c-2.5-0.7-6.1-3-6.4-5c-0.4-2.7,1.1-6.5,3.1-8.6c3.9-4.2,9-7.3,13-11.4c5.1-5.2,4.7-6.6-1.1-11
		c-2-1.5-4.1-3-5.7-4.8c-3.2-3.8-2.5-8.1,1.8-10.6c3.6-2.1,7.6-3.7,11.1-6c1.7-1.1,2.5-3.5,3.7-5.3c-1.8-0.9-3.5-2.3-5.4-2.5
		c-3.4-0.5-6.9,0-10.3-0.4c-1.5-0.2-3.8-1.3-4-2.3c-0.3-1.5,0.4-3.8,1.5-5c4.8-5.4,21.6-6.5,27.3-2c6.1,4.8,7.6,16.9,2.7,22.9
		c-1.8,2.2-4.2,3.8-6,5.9c-0.8,1-1.4,3.3-0.8,4.2c5.5,8.7,4.4,16.8-1.4,24.8c-0.5,0.8-1,1.6-1.4,2.4
		C398.2,147.1,398.1,147.6,397.6,149.3z"/>
	<path class="st2" d="M929.7,42c0.8,0.6,1.9,0.9,3.5,1c15.6,0.6,31.3,1.6,46.9,2.2c14.6,0.6,17.5,3.4,17.6,17.9c0,3.9,0,7.8,0,11.7
		c0,4.4,0.1,8.8,0,13.1c-0.1,5.2-2.7,8.4-7.2,8.9c-4.4,0.4-7.8-2.2-8.4-7.6c-0.8-7.1-1-14.3-1.2-21.5c-0.2-6.1-0.3-6.2-6.4-6.4
		c-31.6-1.2-63.2-2.4-94.8-3.8c-4-0.2-5.1,1.1-5.1,5c0.2,8.4-0.1,16.9-0.3,25.3c-0.1,3.5-0.8,6.7-5,7.3c-4.5,0.6-6.9-2.3-7.3-6.1
		c-0.6-5.6-0.6-11.2-0.3-16.8c0.2-5.4,1.1-10.9,1.8-16.3c0.8-6.3,3.3-9.6,9.6-10.4c10.7-1.3,21.5-1.8,32.3-2.7
		c1.6-0.1,3.1-0.1,4.7-0.2c1.1,0,2-0.2,2.7-0.5"/>
	<path d="M912.7,42.2c1.7-0.8,2.5-2.4,2.7-5c0.2-4.8,1-9.6,1.6-14.4c0.3-2.8,1.7-5.3,4.7-4.6c1.9,0.5,4.5,2.6,4.9,4.5
		c1.1,5,1.4,10.2,1.6,15.3c0.1,1.9,0.5,3.2,1.5,4"/>
	<path d="M566.4,128.5l0.5-0.5c-0.1-0.2-0.3-0.4-0.6-0.7c-1.9-1.2-4-2.2-5.7-3.7c-1.3-1.2-3.1-3.3-2.8-4.6c0.3-1.4,2.7-3,4.4-3.3
		c4.9-0.7,8.9-2.5,11.8-7.8c-2.1-0.3-3.7-0.6-5.2-0.7c-3.9-0.1-7.8,0-11.7-0.3c-1.2-0.1-2.8-0.9-3.3-1.9c-0.4-0.7,0.6-2.2,1.1-3.3
		c0.1-0.3,0.4-0.5,0.6-0.7c4.3-4.1,27.5-6.5,32.8-3.5c3.5,2.1,4.8,6.9,2.3,10.6c-2.2,3.2-4.8,6.1-7.6,8.9c-1.8,1.8-1.9,3.2-0.3,5.2
		c1.8,2.2,3.7,3.7,6,4.7"/>
	<path class="st2" d="M588.8,127c1.8,0.7,3.8,1,6.2,0.9c5.6-0.3,10,4.1,10.6,9.7c0.6,5.8-2.7,10.8-8,12.2c-4.2,1.1-6.6-1.3-5.8-5.6
		c0.3-1.5,0.2-4.4-0.2-4.4c-2.4-0.5-4.9-0.7-7.3-0.3c-0.1,0-0.2,0.1-0.2,0.2l-14.1,0.3c0.1-0.1,0.2-0.2,0.3-0.2
		c-2.4-0.3-4.3-0.6-6.2-0.8c-3.4-0.3-7,0-10.3-0.8c-1.8-0.4-4.7-1.6-4.9-3.8c0.5-2.7,3.4-3.1,5.3-3.6c3.9-1,7.9-1.3,11.9-1.9
		l0.4-0.4"/>
	<path d="M569.9,139.9c-4.4,3.7-8.4,6.7-12.1,10.1c-3.9,3.6-7.7,7.3-11.1,11.4c-1.2,1.4-1.7,5.1-0.8,6.1c1.5,1.6,4.9,3,6.7,2.3
		c3.7-1.4,7-4,10.1-6.5c2.3-1.9,4-4.5,6-6.8c1.5-1.3,1.5-0.3,1.5,1.1c-0.9,6.5,2.9,13.8-4.8,19.3c-3.8,2.7-2,7.5,2.7,8.7
		c4.9,1.2,10.4-0.4,12.7-4.8c1.8-3.6,3-7.9,3.1-12c0.2-8.2-0.6-16.5-0.9-24.8c0-1.4,0.3-3.7,0.9-4.3L569.9,139.9z"/>
	<path class="st3" d="M939.5,118.1c0.4-0.1,0.7-0.1,1.2-0.2c2.8-0.2,5.6-0.4,8.4-0.7c5.7-0.6,7.7-2.3,7.5-6.4
		c-0.2-4.2-2.9-6.4-8.1-6.5c-1.9-0.1-3.8-0.1-5.6,0c-2,0.1-3.5-0.3-4.4-1.2l-16.8,1.1c-0.8,0.6-1.9,1-3.6,1.1c-3,0.3-5.9,0.6-8.9,1
		c-2.8,0.3-6.1,0.5-6.3,4.2c-0.2,4,2.8,5.3,6.1,5.7c3.4,0.4,6.9,0.3,10.2,1.1c0.2,0,0.3,0.1,0.5,0.2"/>
	<path d="M919.7,117.6c1.3,0.6,2.8,2.3,3,3.6c0.8,5.9-0.2,6.8-6.1,7.4c-4.5,0.4-9.1,0.4-13.5,1.3c-1.8,0.4-4.7,3.1-4.5,4.3
		c0.4,2.2,2.4,4.4,4.3,6c1.1,0.9,3.3,0.9,5,0.9c8.3,0.1,15.1,0.4,23.4,0.4c0.6,0,1.6,0,2,0.1c4.2,0,8,0.1,12.2,0
		c4.4-0.1,8.8-0.2,13.1-0.5c4.7-0.3,7.2-3,7.1-7c-0.1-4-2.6-6.7-7.2-7c-5.9-0.4-11.9-0.6-17.8-0.7c-2.4-0.1-4.4-0.5-4.4-3.5
		c0-2.6,0.9-4.2,3.2-4.7"/>
	<path d="M938.4,103.2c-1.2-1-1.7-2.8-1.9-5.3c-0.4-6.3,3.7-6.2,7.6-7c7-1.6,8.9-3.3,8.3-7.4c-0.5-3.7-3.9-5.5-10.3-4.6
		c-4.3,0.6-7.1,0.5-7.8-5c-0.3-2.1-3.4-5-5.5-5.3c-3.5-0.5-4,3.1-4.4,6c-0.1,1.1-0.5,2.2-0.5,3.2c-0.1,3.1-1.8,4.6-4.8,5.5
		c-4.2,1.2-8.3,2.7-12.3,4.5c-1.3,0.6-2.9,2.6-2.6,3.7c0.3,1.3,2.2,2.9,3.6,3.1c3.1,0.4,6.2-0.1,9.3-0.2c2.5-0.1,5.5-1.4,5.7,3.1
		c0.2,3.9,0,5.9-1.2,7L938.4,103.2z"/>
	<path d="M486,80.3c2,0.2,3.9,0.5,5.9,0.6c5,0.3,7.7,2.4,7.8,6.3c0.1,4.5-2.4,6.5-6.6,6.9c-6.4,0.5-12.8,1.2-19.2,1.5
		c-2.9,0.1-3.5,1.3-3.8,4c-0.7,8.4-1.8,16.7-2.8,25.1c-0.2,1.7-0.5,3.7-1.6,4.8c-1.7,1.7-4.1,3.6-6.2,3.7c-3.3,0-4.5-2.8-4.2-6.1
		c0.8-7.4,1.7-14.9,2.2-22.3c0.6-8.2,0.4-8.3-7.8-9.1c-5-0.5-10-0.7-14.9-1.7c-1.7-0.3-4.6-3-4.4-3.8c0.6-2.1,2.6-3.8,4.3-5.4
		c0.7-0.7,2-0.7,3.1-0.9c3.2-0.4,4.5-2.1,4.5-5.4c0.1-6.7,0.3-13.4,0.7-20.1c0.2-3.3,0.3-6.6,1.2-9.7c0.5-1.7,2.8-2.8,4.3-4.2
		c1.3,1.4,3.3,2.6,3.7,4.2c1.1,5,1.5,10.2,2.1,15.3c0.6,4.6,1,9.3,1.6,14c0.2,1.3,0.7,2.5,1,3.8c0.5,0.1,1.1,0.2,1.6,0.2
		c0.6-1.8,1.6-3.6,1.9-5.5c1.2-9.1,2.1-18.3,3.5-27.4c0.4-2.5,2.1-4.7,3.2-7.1c1.3,2.6,3.6,5.1,3.8,7.8c0.6,7.6,0.3,15.3,0.3,22.9
		c0,1.1-0.3,2.3,0.1,3.3c0.7,1.7,1.8,3.1,2.7,4.7c0.4-1.6,0.8-3.2,1.2-4.8c1.8-7.2,3.3-14.5,5.6-21.6c1-3.2,4-5.5,7.9-4.1
		c3.7,1.3,3.2,4.8,2.6,7.7C490,65,488,72.2,486,80.3z"/>
	<path d="M775.5,132.2c-3.6-0.9-6.9-1.3-9.8-2.5c-1.5-0.6-3.4-3-3.2-4.3c0.3-1.9,2-4.5,3.7-5c3.7-1.1,7.7-1.6,11.5-1.6
		c13.9,0.1,27.9,0.5,41.8,0.9c5.2,0.2,8.7,3.4,8.5,7.4c-0.1,4.1-3.2,6.6-8.6,6.5c-8.9-0.1-17.8-0.7-26.7-0.8c-3.2,0-6.9,0-6.4,5.8
		c2.6,0.3,5.4,0.6,8.1,0.9c9.6,1.1,19.3,1.8,28.8,3.5c9.3,1.6,13,6.4,13.3,15.9c0.2,4.3-0.4,8.7-0.8,13.1c-0.3,3.6-2.2,5.7-6.1,5.7
		c-3.9,0-6.3-1.5-6.8-5.5c-0.4-3.3-0.9-6.5-1-9.8c-0.1-3.9-1.7-6.2-5.6-6.8c-10.8-1.6-21.6-3.4-32.5-4.7c-1.3-0.2-3.2,1.6-4.2,2.9
		c-1.5,1.9-2.4,4.4-3.8,6.4c-2.1,3-4.8,4.6-8.4,2.7c-3.7-1.9-4.7-5.1-2.7-9.1c3-6,6.3-11.9,9.4-17.8
		C774.6,134.7,775,133.4,775.5,132.2z"/>
	<path d="M713.8,84.7c-2.9,2-4.6,3.3-6.4,4.4c-3.2,1.9-6.6,2.5-9.4-0.5c-3-3.1-1.4-6.1,0.9-8.7c10.6-12.3,21.2-24.7,32-36.8
		c1.3-1.5,4.9-2.6,6.4-1.8c1.5,0.8,2.9,4.4,2.4,6.2c-1.3,4.4-3.6,8.6-5.7,12.7c-0.8,1.7-2,3.2-3.2,4.6c-1.9,2.1-3.1,4.3-3.8,6.6"/>
	<path class="st2" d="M726.9,71.4c-0.9,3.1-1,6.4-0.5,10.2c1.8,12.3,2.7,24.8,3,37.3c0.3,13.6-0.4,27.2-0.8,40.7
		c-0.1,2.3-0.5,4.7-1.1,6.9c-1.1,4.1-3.9,5.9-8.1,5.4c-4.2-0.5-5.8-3.3-5.7-7.2c0.3-14.1,0.8-28.1,1-42.2c0.2-10.3,0.1-20.6,0-30.9
		c0-1.9-0.5-3.9-1-6.9"/>
	<path class="st2" d="M817.4,85.9c-0.4,6.4-0.8,12.7-1.3,19.1c-0.3,4.4-2.7,7.2-7.1,7.1c-9.8-0.3-19.6-0.9-29.4-1.7
		c-3.5-0.3-4.9-2.7-4.6-6.3c1.1-11.6,1.9-23.3,3-34.9c0.4-4.3,3.2-7,7.3-7.2c8.1-0.3,16.3-0.3,24.4,0c4.5,0.2,6.7,3.2,7.1,9.4
		c0.3,4.8,0.1,9.6,0.1,14.5C817.1,85.9,817.2,85.9,817.4,85.9z M796.9,98.9c1.2,0,2.5,0.1,3.7,0c2.5-0.1,5.6,0.6,5.4-3.7
		c-0.2-3.8-1.9-5.3-5.7-4.9c-2.2,0.2-4.4,0-6.5,0c-4.5,0-6.1,1.6-5.7,6.2c0.3,3.8,3.5,2,5.5,2.4C794.7,99,795.8,98.9,796.9,98.9z
		 M797.1,78.5C797.1,78.5,797.1,78.5,797.1,78.5c1.7,0,3.5,0.3,5.1-0.1c1.1-0.2,2.8-1.5,2.7-2.1c-0.1-1.3-1.2-3.4-2-3.5
		c-3.9-0.4-7.8-0.4-11.7,0c-0.9,0.1-2,2.1-2.1,3.4c-0.1,0.6,1.7,1.9,2.8,2.2C793.6,78.8,795.4,78.5,797.1,78.5z"/>
	<path d="M637.5,104.5c4.6,0,8.1,0,11.6,0c3.4-0.1,6.6,0.2,8.3,3.8c1.7,3.5,0.4,6.4-1.6,9.1c-4.4,6.2-4.4,6.2,3,8.9
		c2.6,1,5.6,1.6,7.7,3.2c1.8,1.3,3.7,3.9,3.5,5.8c-0.2,1.9-2.5,4.1-4.5,5.1c-1.7,0.9-4.4,0.8-6.3,0.1c-5.1-1.8-10.2-3.9-15-6.4
		c-2.7-1.4-4.7-1.6-7.4-0.2c-4.9,2.5-9.9,4.7-14.9,6.8c-1.6,0.6-3.8,0.8-5.4,0.3c-4.6-1.3-5.5-5-1.7-7.9c3.4-2.6,7.7-4.2,11.2-6.7
		c1.5-1,3.2-3.3,3-4.7c-0.5-2.7-2.9-1.9-5.2-1.7c-2.5,0.2-6.1-0.6-7.4-2.3c-1.1-1.6-0.6-5.5,0.7-7.5c3.3-4.9,7.4-9.3,11.4-13.7
		c2.4-2.7,5.6-5.4,9.4-3.1C641.7,95.9,639.8,99.6,637.5,104.5z M637.1,112c-0.1,0.5-0.2,1-0.2,1.6c2.3,1.5,4.6,3.4,8-0.9
		C641.6,112.4,639.4,112.2,637.1,112z"/>
	<path d="M92.3,31.8c1.7-1,2.8-2.8,3.3-5.6c0.2-1.5,1.1-3.1,2.2-4.1c1.2-1.1,3.2-2.1,4.6-1.9c1,0.1,2,2.3,2.6,3.6
		c0.4,0.8,0.2,1.8,0.2,2.8c-0.1,2.1,0.4,3.4,1.5,4.1"/>
	<path class="st3" d="M107.6,45c0.5-0.2,1.1-0.2,1.9-0.2c3.3,0,6.6,0.1,9.8-0.4c3.3-0.5,5.8-2.2,6-6.1c0.1-3.9-2.3-5.7-5.6-6.4
		c-3-0.6-6.2-0.8-9.3-0.6c-1.6,0.1-2.8-0.1-3.6-0.7l-14.4,1.2c-1.7,1.1-4,1.3-6.6,1.3c-1.2,0-2.8-0.4-3.7,0.2
		c-1.7,1-4.3,2.6-4.3,3.9c0,1.8,1.9,3.8,3.5,5.2c0.9,0.8,2.7,0.7,4.1,0.9c3.6,0.3,5.6,0.5,6.7,1.3"/>
	<path d="M91.9,44.4c1.3,1,1.1,2.9,0.6,7.5c-0.3,3.5-1.8,4.5-5,4.6c-2.5,0.1-5.1,0.2-7.4,1.1C78,58.4,75,60.1,74.6,62
		c-0.8,3.5,2.7,4.6,5.5,4.9c9.3,1.2,27.9,2.9,28,2.8c3.3,0,6.6,0,9.9,0c4.8-0.1,8.2-2.7,8.3-6.4c0.2-3.8-3.3-6.9-8.2-7.1
		c-3.1-0.1-6.3-0.2-9.4-0.5c-4.1-0.5-3.4-3.8-3.5-6.5c0-2.1,0.6-3.5,2.3-4.1"/>
	<path d="M938.6,153.1c4.1,0,8.1,0.1,12.2,0c4.4-0.1,7.2,2,7.3,6.2c0.4,8.2,0.2,16.5,0.1,24.8c0,3.5-2.2,5.6-5.6,5.7
		c-8.1,0.2-16.2,0.2-24.3,0.1c-3.6-0.1-7.1-0.7-10.7-1.2c-3.6-0.5-5.9-2.6-5.7-6.2c0.4-7.9,0.7-15.9,1.9-23.7
		c0.2-1.7,3.5-3.9,5.7-4.3c6.3-1,12.7-1.2,19.1-1.7C938.6,152.9,938.6,153,938.6,153.1z M934.5,166c-1.9,0-3.8,0-5.6,0
		c-2.5,0.1-5.5-0.2-5.3,3.5c0.1,3.1,0.2,6.5,4.7,6.6c3.6,0.1,7.2,0.4,10.7,0.7c3.9,0.3,6.2-0.8,6.2-5.4c0-4.4-2-5.8-6.1-5.5
		C937.6,166.1,936.1,166,934.5,166z"/>
	<path d="M629.7,161.8c-2.7-0.8-5.3-1-7.3-2.2c-1.6-1-3.7-3.2-3.6-4.7c0.1-1.5,2.6-2.9,4.1-4.3c0.1-0.1,0.3-0.1,0.4-0.1
		c7.1,0.1,12.6-2,14.7-9.8c0.3-1,2.9-2.1,4.2-1.9c1.3,0.2,3.2,2,3.3,3.2c0.3,5.3,3.4,6.8,8.1,7.9c6,1.3,12.3,3.5,13.6,10.6
		c1.6,8.5-1.1,16.3-7.7,22c-1.8,1.6-6.3,1.1-9,0.1c-1.3-0.5-1.9-4.5-1.8-6.8c0.2-2.4,1.8-4.6,2.6-6.9c0.8-2.2,2.6-5-1.1-6.2
		c-3.2-1-6.1-0.8-7.4,3.3c-1.4,4.3-3.1,8.5-5.1,12.6c-1.1,2.4-2.7,4.6-4.5,6.6c-2.5,2.6-5.6,3.3-8.9,1.4c-3.4-2-3.6-4.9-2.1-8.1
		C624.7,172.9,627.1,167.6,629.7,161.8z"/>
	<path d="M792.7,50c-5.2,0-10.3,0.1-15.5,0c-3.3-0.1-5.3,1.3-6.3,4.4c-0.9,2.7-1.9,5.3-3,7.8c-1.4,3.1-4.2,3.7-7.1,2.7
		c-2.9-1-4.9-3.2-3.9-6.5c3.7-12.4,7.5-24.7,11.6-37c0.5-1.6,3.1-2.5,4.7-3.7c0.9,1.7,2.3,3.3,2.5,5.1c0.3,3.4,0.2,6.9-0.1,10.3
		c-0.5,4.5,1.5,5.1,5.5,4.8c12.5-0.8,24.9-1.3,37.4-1.5c2.1,0,5.2,1.8,6.1,3.6c2.3,4.7-0.5,8.6-5.7,9.2c-1.2,0.1-2.5,0.2-3.7,0.2
		c-7.5,0-15,0-22.5,0C792.7,49.6,792.7,49.8,792.7,50z"/>
	<path class="st2" d="M101.2,112.1c-4-0.7-8.7-1.3-13.2-2.3c-3.6-0.8-5.5-3.4-5.4-7.2c0.1-4.5,0.1-9,0-13.5c-0.1-5,2.4-8.2,7-9.2
		c4.8-1.1,9.8-1.8,14.8-2.1c4.3-0.2,8.7,0.5,13.1,0.9c4.2,0.4,6.7,2.6,6.4,7c-0.3,4.8-0.5,9.6-1,14.4c-0.7,6.1-4.5,9.5-10.3,10.5
		C109.1,111.3,105.5,111.6,101.2,112.1z M103,97.9C103,97.9,103,97.9,103,97.9c1.7,0.1,3.7,0.6,5.1-0.1c1.5-0.9,2.9-2.7,3.4-4.4
		c0.2-0.7-1.5-2.8-2.7-3.1c-3.3-0.9-6.7-1.2-10.1-1.7c-2.5-0.4-4.8-0.6-5.1,2.9c-0.2,3.2,0.1,6.1,4.2,6.4
		C99.6,98,101.3,97.9,103,97.9z"/>
	<path d="M109.9,141.9c3.7,0,6.1,0,8.6,0c3.2,0,4,1.8,3.5,4.7c-1.3,6.8-8.1,11.2-16.2,10.5c-5.9-0.5-9.1-4.6-8.7-12.2
		c0.3-5.4,1.4-10.8,2.5-16.2c0.7-3.3,2.6-5.8,6.5-5.4c4,0.5,3.5,3.8,3.7,6.5C110,133.9,109.9,137.8,109.9,141.9z"/>
	<path d="M135.2,145.8c-7-0.2-19.5-15.5-18.4-20.8c0.8-4,3.9-5.4,7.3-3.2c1.2,0.8,2.2,1.7,3.2,2.7c2.1,2,4,1.9,6.1-0.1
		c2.2-2.2,4.5-4.5,7.1-6c1.5-0.9,4.7-1.2,5.7-0.2c1.2,1.2,1.6,4,1.3,6c-0.2,1.7-1.7,3.3-2.9,4.7c-2.9,3.5-6.3,6.6-5.7,12.1
		C139.1,142.7,136.1,144.7,135.2,145.8z"/>
	<path d="M77,155.2c-5.7,0-8.3-3.4-6.6-8c0.7-1.9,1.8-3.6,3-5.3c3.9-5.8,7.8-11.7,12.1-17.2c1.4-1.8,4.1-2.6,6.2-3.8
		c1.3,2.3,3.9,4.9,3.6,6.9c-1.8,10.4-6.8,19.3-15,26.3C79.3,154.9,77.7,155,77,155.2z"/>
	<path class="st3" d="M485.9,107.9c0.9,0.4,2.5,0.7,3.7,1.5c4.8,3.4,9.7,6.8,14.2,10.5c3.3,2.7,3.4,7.2,0.8,10.4
		c-2.7,3.2-7.5,4.2-10.4,1.3c-4.9-4.9-9.6-10.2-13.6-15.9C477.9,111.8,480.6,107.7,485.9,107.9z"/>
	<path class="st3" d="M775.5,180c3.6-6.7,6.6-12.9,10.3-18.7c1.6-2.6,4.8-3.7,7.9-1.9c3.2,1.9,2.4,4.9,1.3,7.5
		c-2.3,5.6-4.6,11.3-7.7,16.4c-1,1.7-4.8,2.7-7.1,2.4C778.7,185.4,777.5,182.4,775.5,180z"/>
	<path class="st2" d="M31.5,67.7c0-1.4-0.5-3.1,0.1-4.1c1.1-1.9,2.6-4.1,4.4-4.9c1.2-0.5,3.9,0.9,5,2.2c4.3,5.5,6,11.9,5.5,18.8
		c-0.2,3.3-2.3,5.5-5.7,5.8c-3.2,0.3-6.1-0.9-7.1-4.1c-1.3-4.5-1.9-9.1-2.8-13.6C31.1,67.7,31.3,67.7,31.5,67.7z"/>
	<path class="st3" d="M796.3,184.5c3.4-7.1,6.3-13.7,9.8-20c0.6-1.1,4-2,5.1-1.4c1.5,0.9,3.3,3.6,2.9,5.1c-1.5,6.6-3.4,13.2-6,19.5
		c-0.7,1.7-4.5,3.6-6.2,3.1C799.9,190.2,798.5,187.2,796.3,184.5z"/>
	<path d="M439.4,131.8c-5.5,0.1-8.9-3.7-6.9-7.3c3.4-6.3,7.6-12.1,11.7-17.9c0.7-0.9,3.1-1.6,4-1.1c1.3,0.6,2.8,2.5,2.7,3.8
		c-0.1,3-0.7,6.2-1.9,9c-1.5,3.6-3.4,7-5.6,10.2C442.4,130.1,440.3,131.1,439.4,131.8z"/>
	<path d="M379.8,57.6c0.1-2.3-0.3-4.9,0.5-7c0.7-1.9,2.4-4.2,4.2-4.7c1.4-0.4,4.8,1.4,5.2,2.7c1.5,6.3,2.8,12.7,3,19.1
		c0.1,1.7-3.9,4.7-6.2,4.8c-1.8,0.1-4.9-2.7-5.7-4.8c-1.2-3.1-0.9-6.7-1.2-10.1C379.6,57.6,379.7,57.6,379.8,57.6z"/>
	<path class="st3" d="M578.7,80.8c-2.8-0.8-5.7-1.2-8.2-2.3c-1.3-0.6-2.8-2.4-2.9-3.6c-0.1-1.3,1.5-3.7,2.5-3.8
		c4.5-0.6,9.3-1.3,13.5-0.3c4.3,1,4.1,5.7-0.3,8.4C582.1,79.9,580.3,80.2,578.7,80.8z"/>
	<path class="st3" d="M626.8,78.3c1.7,0.2,3.7,0,5,0.8c1.8,1.2,3.1,3.3,4.7,4.9c-1.9,1.6-3.7,4.1-5.9,4.5c-2.5,0.5-5.7-0.2-8.1-1.4
		c-1.7-0.8-2.6-3.3-3.9-5.1c1.8-1.2,3.5-2.5,5.4-3.5c0.7-0.4,1.8-0.1,2.8-0.1C626.8,78.4,626.8,78.3,626.8,78.3z"/>
	<path class="st3" d="M577.9,67.1c-2.2-0.5-5.2-0.9-8-1.9c-1-0.4-2.3-2-2.3-3c0.1-0.9,1.7-2.4,2.7-2.5c4-0.3,8.1-0.6,12.1-0.1
		c1.7,0.2,3.3,2.2,4.9,3.5c-1.5,1.1-2.9,2.5-4.5,3.3C581.6,67,580,66.8,577.9,67.1z"/>
	<path class="st3" d="M626.5,64.8c1.4,0.3,3.1,0.3,4.3,1.1c1.3,0.9,2.8,2.5,2.8,3.8c0,1.3-1.5,3.3-2.8,3.6c-2.8,0.7-5.9,1.1-8.6,0.5
		c-1.6-0.3-3.9-2.7-4-4.2c0-1.4,2.3-3.2,4-4.2C623.2,64.7,624.9,65,626.5,64.8z"/>
	<path class="st2" d="M210,71.8c0.6,0.1,0.8,0,0.9,0.1c4.8,3.9,9.7,3.9,15.1,1.2c0.4-0.2,2.8,2,3,3.3c0.2,1.5-1.4,3.1-1.5,4.8
		c-0.2,2.2-0.2,4.8,0.7,6.7c1.2,2.6,3.3,4.7,0.6,7.5c-2.6,2.7-4.6,0.6-7.1-0.4c-1.8-0.7-4.4-0.6-6.2,0.1c-2.4,0.9-4.3,2.6-6.7,0.2
		c-2.4-2.5-1.8-5.2,0.1-7.1c3.6-3.8,2.8-6.9-0.3-10.5c-0.8-0.9-0.9-2.9-0.7-4.3C208,72.7,209.4,72.2,210,71.8z"/>
	<path class="st3" d="M235.2,147.2c-1-0.9-3-1.7-4.1-1.3c-1.1,0.4-1.9,2.2-2.3,3.6c-0.3,1.1-0.1,2.4-0.1,3.7
		c0.1,0.3,0.1,0.6,0.2,0.9c0.3,1.1,2.1,10.4,2.7,14.1c0.2,0.2,0.3,0.4,0.5,0.6c1.4,1.9,4,3,5.8,0.1
		C240.2,165.1,238.4,150.2,235.2,147.2z"/>
	<path class="st3" d="M210.1,56.5c4.4-0.1,8.8-0.3,13.2-0.6c-0.9-0.6-1.3-1.4-1.4-3c-0.4-5.4-1.1-10.8-2.4-16.1
		c-0.5-2-2.6-5.2-4.3-5.3c-4-0.4-4.3,3-4.5,5.5c-0.2,4-0.1,8.1-0.2,12.2C210.4,53.3,210.8,55.3,210.1,56.5z"/>
</g>
</svg>
