<?xml version="1.0" encoding="utf-8"?>
<!-- Generator: Adobe Illustrator 25.0.0, SVG Export Plug-In . SVG Version: 6.00 Build 0)  -->
<svg version="1.1" id="圖層_1" xmlns="http://www.w3.org/2000/svg" xmlns:xlink="http://www.w3.org/1999/xlink" x="0px" y="0px"
	 viewBox="0 0 364.3 70.5" style="enable-background:new 0 0 364.3 70.5;" xml:space="preserve">
<style type="text/css">
	.st0{fill:#E4DBD2;stroke:#E6DCD3;stroke-width:1.2;stroke-miterlimit:10;}
	.st1{fill:#FFFFFF;stroke:#E7DDD4;stroke-width:1.2;stroke-miterlimit:10;}
	.st2{fill:#13B6CD;}
</style>
<g id="圖層_4">
	<path class="st0" d="M360.6,47.5c0.2-0.8,0.2-1.6,0.2-2.4V34.6c0-1.1-0.1-2.1-0.4-3.2c1.4-1.7,2.2-3.9,2.2-6.1
		c0-1.2-0.2-2.5-0.7-3.6c1-1.6,1.5-3.4,1.5-5.3c0-5.5-4.4-10-9.9-10h-11.3c-1.9-2.3-4.7-3.6-7.7-3.6s-5.8,1.3-7.7,3.6h-12.3
		c-4,0-7.7,2.1-9.9,5.4c-0.8-4.7-4.9-8.3-9.9-8.3h-19.6c-1.5,0-3,0.3-4.3,1C269,3.5,267,3,265,3h-10.5c-5,0-9.4,3.1-11.2,7.8
		c-2-4-6.1-6.5-10.6-6.5h-14.6c-1.9,0-3.8,0.5-5.4,1.5c-1.8-1-3.8-1.5-5.9-1.5h-13.3c-4,0-7.6,2.3-9.2,6c-0.6,0-1.1-0.1-1.7-0.1
		c-0.5-0.9-1-1.6-1.7-2.3c-2.2-2.3-5.3-3.6-8.4-3.6h-6.4c-0.1,0-0.2,0-0.4,0c-2.4-1.7-5.5-2.1-8.3-1.1L157,3.4
		c-1.6-0.8-3.4-1.2-5.2-1.2h-0.1c-1.4,0-2.8,0.4-4.1,1c-2.1-1-4.5-1.1-6.6-0.4l-5.7,1.8c-4.7,1.4-8,5.3-8.9,10.1
		c-0.8,0.3-1.6,0.5-2.4,0.7c-1.9-1.7-4.3-2.7-6.8-2.7h-3.5c-0.7-5-5-8.7-10-8.7c-5.1,0-9.3,3.7-10.1,8.7h-1.4c0-1.8-0.5-3.5-1.5-5
		C89,5,86,3.4,82.8,3.4c-4.6,0-8.9,2.7-10.8,6.9l-3,6.3c-1.6-3.3-5-5.4-8.9-5.4h-6.8C53,10,52.5,8.9,51.7,8
		c-1.8-2.1-4.4-3.3-7.3-3.3c-2.9,0-5.7,1.2-7.6,3.3c-1.6-1-3.5-1.6-5.5-1.7c-1.8-2.2-4.5-3.5-7.4-3.5c-3,0-5.8,1.3-7.6,3.5
		c-4.7,0.3-8.7,3.3-10.1,7.6c-1.8,1.7-2.7,4-2.7,6.6v0.7c0,2.6,1,5,2.7,6.7c0.2,0.6,0.4,1.1,0.7,1.6c-0.8,1.6-1.3,3.5-1.3,5.3v2.4
		c0,1.3,0.2,2.5,0.6,3.7c-1.4,1.7-2.1,3.8-2.1,6.1c0,3.2,1.5,6.1,4,7.8c-1,1.6-1.6,3.5-1.6,5.4c0,2.4,0.9,4.6,2.4,6.2
		c1.7,1.8,4,2.7,6.4,2.7c0.8,0,1.7-0.1,2.5-0.3l9.4-2.5l2,0.7c2.8,1,5.9,0.5,8.3-1.3c1.6,1.3,3.6,2,5.7,2c3.3,0,6.4-1.4,8.6-3.8
		c2.2,2.4,5.3,3.8,8.7,3.8c3.1,0,6.1-1.7,7.7-4.4c0.2-0.3,0.4-0.7,0.5-1c1.2,4.3,5.2,7.6,9.8,7.6c2.8,0,5.4-1.1,7.3-3.2
		c0.8,0.2,1.7,0.3,2.5,0.3h30.3c5.6,0,10.1-4.5,10.1-10.1c0-0.4,0-0.7-0.1-1.1c1.7,1.6,4,2.4,6.4,2.4h5.3c-0.1,0.5-0.1,1-0.1,1.5
		c0,5.4,4.2,9.6,9.6,9.6h4.1c6.3,0,11.4-4.8,11.8-11.1h9.5c2,0,3.9-0.6,5.6-1.8l8.3,0.5h0.1l0,0c0.1,0.1,0.2,0.2,0.3,0.4
		c0.3,6.3,5.5,11.2,11.8,11.2h25.6c2.5,0,4.8-0.8,6.8-2.2l7.5-0.9c0.2,0.3,0.4,0.6,0.7,0.9c1.8,2.1,4.5,3.3,7.3,3.3
		c2.7,0,5.3-1,7.2-2.9c2.3,1,4.7,1.5,7.2,1.5h32.3c2.7,0,5.2-1.1,7.1-3c1.8,1.8,4.3,2.8,6.8,2.8c3,0,5.7-1.3,7.7-3.6
		c0.3,0,0.5,0,0.8,0h8.8c1.7,3.2,5,5.3,8.7,5.3s7.1-2.1,8.7-5.3h9c5.5,0,9.9-4.4,9.9-9.8C363.7,52,362.5,49.4,360.6,47.5z"/>
</g>
<g id="圖層_5">
	<path class="st1" d="M357.7,45.9c0.2-0.8,0.2-1.6,0.2-2.4V32.9c0-1.1-0.1-2.1-0.4-3.2c1.4-1.7,2.2-3.9,2.2-6.1
		c0-1.2-0.2-2.5-0.7-3.6c1-1.6,1.5-3.4,1.5-5.3c0-5.5-4.4-10-9.9-10h-11.3c-1.9-2.3-4.7-3.6-7.7-3.6s-5.8,1.3-7.7,3.6h-12.3
		c-4,0-7.7,2.1-9.9,5.4C301,5.5,296.9,2,291.9,2h-19.6c-1.5,0-3,0.3-4.3,1c-1.8-1-3.8-1.5-5.8-1.5h-10.5c-5,0-9.4,3.1-11.2,7.8
		c-2-4-6.1-6.5-10.6-6.5h-14.6c-1.9,0-3.8,0.5-5.4,1.5c-1.8-1-3.8-1.5-5.9-1.5h-13.3c-4,0-7.6,2.3-9.2,6c-0.6,0-1.1-0.1-1.7-0.1
		c-0.5-0.9-1-1.6-1.7-2.3c-2.2-2.3-5.3-3.6-8.4-3.6h-6.4c-0.1,0-0.2,0-0.4,0c-2.4-1.7-5.5-2.1-8.3-1.1L154,1.9
		c-1.6-0.8-3.4-1.2-5.2-1.2h-0.1c-1.4,0-2.8,0.4-4.1,1c-2.1-1-4.5-1.1-6.6-0.4l-5.7,1.8c-4.7,1.4-8,5.3-8.9,10.1
		c-0.8,0.3-1.6,0.5-2.4,0.7c-1.9-1.7-4.3-2.7-6.8-2.7h-3.5c-0.7-5-5-8.7-10-8.7c-5.1,0-9.3,3.7-10.1,8.7h-1.4c0-1.8-0.5-3.5-1.5-5
		C86,3.5,83,1.9,79.8,1.9c-4.6,0-8.9,2.7-10.8,6.9L66.1,15c-1.6-3.3-5-5.4-8.9-5.4h-6.8c-0.4-1.2-0.9-2.3-1.7-3.2
		C47,4.2,44.4,3,41.5,3s-5.7,1.2-7.6,3.3c-1.6-1-3.5-1.6-5.5-1.7C26.6,2.3,24,1,21,1s-5.8,1.3-7.6,3.5C8.7,4.8,4.8,7.8,3.3,12.2
		c-1.8,1.7-2.7,4-2.7,6.6v0.7c0,2.6,1,5,2.7,6.7c0.2,0.6,0.4,1.1,0.7,1.6c-0.8,1.6-1.3,3.5-1.3,5.3v2.4c0,1.3,0.2,2.5,0.6,3.7
		c-1.4,1.7-2.1,3.8-2.1,6.1c0,3.2,1.5,6.1,4,7.8c-1,1.6-1.6,3.5-1.6,5.4c0,2.4,0.9,4.6,2.4,6.2c1.7,1.8,4,2.7,6.4,2.7
		c0.8,0,1.7-0.1,2.5-0.3l9.4-2.5l2,0.7c2.8,1,5.9,0.5,8.3-1.3c1.6,1.3,3.6,2,5.7,2c3.3,0,6.4-1.4,8.6-3.8c2.2,2.4,5.3,3.8,8.7,3.8
		c3.1,0,6.1-1.7,7.7-4.4c0.2-0.3,0.4-0.7,0.5-1c1.2,4.3,5.2,7.6,9.8,7.6c2.8,0,5.4-1.1,7.3-3.2c0.8,0.2,1.7,0.3,2.5,0.3h30.3
		c5.6,0,10.1-4.5,10.1-10.1c0-0.4,0-0.7-0.1-1.1c1.7,1.6,4,2.4,6.4,2.4h5.3c-0.1,0.5-0.1,1-0.1,1.5c0,5.4,4.2,9.6,9.6,9.6h4.1
		c6.3,0,11.4-4.8,11.8-11.1h9.5c2,0,3.9-0.6,5.6-1.8l8.3,0.5h0.1l0,0c0.1,0.1,0.2,0.2,0.3,0.4c0.3,6.3,5.5,11.2,11.8,11.2H224
		c2.5,0,4.8-0.8,6.8-2.2l7.5-0.9c0.2,0.3,0.4,0.6,0.7,0.9c1.8,2.1,4.5,3.3,7.3,3.3c2.7,0,5.3-1,7.2-2.9c2.3,1,4.7,1.5,7.2,1.5H293
		c2.7,0,5.2-1.1,7.1-3c1.8,1.8,4.3,2.8,6.8,2.8c3,0,5.7-1.3,7.7-3.6c0.3,0,0.5,0,0.8,0h8.8c1.7,3.2,5,5.3,8.7,5.3s7.1-2.1,8.7-5.3h9
		c5.5,0,9.9-4.4,9.9-9.8C360.8,50.3,359.7,47.7,357.7,45.9z"/>
</g>
<g id="圖層_6_拷貝">
	<g>
		<path class="st2" d="M34.6,44.1H21.1c-0.2,0-0.4-0.1-0.5-0.3c0.1-0.2,0.1-0.5,0-0.7c0.2-0.7-0.3-1.2-1-1.2h-1
			c-0.7,0-1.3,0.3-1.8,0.7c-0.7,0.2-1.3,0.7-1.6,1.4c0,0.1,0,0.1-0.1,0.1h-4.5c-0.6,0-3,0-2.8,2.3c0.1,1.1,0.7,1.8,1.8,1.8h1H12
			c0.8,0,1.1,0.8,0.9,1.3C12,51.8,13.1,54,15,54.9l0.7,0.2c0.4,0,0.5,0.4,0.4,0.7l-2.9,0.8c-0.3,0.1-0.6,0.3-0.9,0.5h-0.1
			c-0.9,0.4-1.8,1.2-1.8,2.4c0,1,0.8,1.6,1.8,1.3l0,0c0.3,0.1,0.6,0.1,1,0L23.7,58c0.1,0,0.3,0,0.4-0.1c0.3,0,0.5,0.1,0.8,0.2l3,1
			c0.4,0.1,0.7,0.1,1,0c1,0.3,1.8-0.3,1.8-1.3c0-0.1,0-0.2,0-0.3s0-0.2,0-0.2c0-1.3-0.8-2.2-1.8-2.7l-0.8-0.3
			c-0.4-0.1-0.6-0.4-0.7-0.7l0,0l1.8-4.3c0.2-0.9,1.1-1.3,1.8-1.3h2.4h1c1.1,0,1.8-0.7,1.8-1.8c0-0.1,0-0.2,0-0.3s0-0.2,0-0.3
			C36.4,44.7,35.7,44.1,34.6,44.1z M17.8,49.9l0.2-0.4c0.3-0.9,1.1-1.3,2.1-1.3h3.3c0.8,0,1.1,0.8,0.9,1.3l-1.1,2.7
			c0,0.1-0.1,0.3-0.2,0.4c-0.2,0-0.4,0-0.6-0.1l-3.8-1.3c-0.5-0.1-0.8-0.5-0.9-1.1C17.8,50.1,17.8,50,17.8,49.9z"/>
		<path class="st2" d="M57.4,17.7H44.2c-0.5,0-1-0.5-1.2-1l0.4-2.8c0-0.3,0-0.5,0-0.7c0.1-1.2-0.6-2.1-1.8-2.1
			c-0.8,0-1.4,0.3-1.9,0.7c-1,0.3-1.7,1.1-1.8,2.1l-3.2,18.4c-0.2,1.2,0.5,2.2,1.8,2.2c0.2,0,0.4,0,0.5,0s0.3,0,0.5,0
			c1.5,0,2.4-1,2.7-2.2l0.2-0.9c0,0,0,0,0-0.1l0,0l4.6,9.8c0.1,0.2,0.1,0.4,0.1,0.5c0,0.2-0.1,0.4-0.2,0.6L38,57.3
			c-0.5,1.1,0.4,2.2,1.4,2.2c0.2,0,0.4,0,0.6,0c0.1,0,0.2,0,0.4,0c1.7,0,3-1,3.7-2.2l4-9.1c0.1-0.2,0.2-0.3,0.4-0.4
			c0.2,0.1,0.3,0.2,0.3,0.4l4.3,9.1c0.7,1.2,2,2.2,3.7,2.2c0.1,0,0.2,0,0.4,0s0.4,0,0.6,0c0.9,0,1.6-0.8,1.4-1.7
			c0.1-0.3,0-0.7-0.2-1l-7.2-15.3c-0.1-0.3-0.2-0.6-0.2-0.9c0-0.2,0.1-0.4,0.1-0.6L57,23.9c0.1-0.5,0.7-0.8,0.9-0.8
			c1.1,0,1.8-0.7,1.8-1.7v-0.6v-0.3V20C59.7,18.6,58.8,17.7,57.4,17.7z M47.5,33.1l-4.4-9.3v-0.1c0.1-0.3,0.4-0.6,0.9-0.6h6.1
			c0.8,0,1.2,0.8,1,1.4l-3.2,9C47.7,33.4,47.6,33.3,47.5,33.1z"/>
		<path class="st2" d="M96.8,47.4l-2.6-17.6c-0.2-1.4-1.5-2.5-3-2.5c-0.6,0-1.1,0.3-1.5,0.6c-1.1,0.3-1.8,1.3-1.7,2.5L90.6,48
			c0.2,1.5,1.5,2.5,3,2.5c0.2,0,0.3,0,0.4,0c0.2,0,0.4,0,0.5,0c1.3,0,2.4-1.1,2.2-2.5C96.8,47.8,96.8,47.6,96.8,47.4z"/>
		<path class="st2" d="M80,10c-1,0-1.9,0.3-2.6,0.9c-1,0.4-1.9,1.2-2.3,2.2l-9.5,20.4C65,34.7,65.9,36,67.2,36c0.2,0,0.4,0,0.6,0
			c0.1,0,0.2,0,0.4,0c1.7,0,3.3-1,4-2.6l0,0v25.8c0,1.4,1.2,2.6,2.6,2.6c0.2,0,0.3,0,0.5-0.1c0.2,0,0.3,0.1,0.5,0.1
			c1.4,0,2.5-1.2,2.5-2.6v-0.6V20.7v-0.4l3.3-7.2c0.1-0.3,0.2-0.7,0.1-1C82,11,81.2,10,80,10z"/>
		<path class="st2" d="M116,53.3h-7c-0.4,0-0.8-0.3-0.9-0.7l4.6-22.2c0.1-0.2,0-0.5,0-0.7c0.2-1.2-0.8-2.4-2.1-2.4
			c-0.8,0-1.5,0.3-2,0.8c-1.1,0.4-1.9,1.3-2.1,2.4l-4.6,22.3c0,0.2-0.1,0.4-0.2,0.5h-0.1H85.7c-0.7,0-1.3,0.3-1.7,0.7
			c-1,0.3-1.8,1.3-1.8,2.4c0,1.4,1.1,2.5,2.5,2.5h1H115h1c1.4,0,2.5-1.1,2.5-2.5c0-0.1,0-0.2,0-0.3s0-0.2,0-0.3
			C118.5,54.4,117.4,53.3,116,53.3z"/>
		<path class="st2" d="M172.7,45.6h-13.5c-0.3,0-0.5-0.1-0.6-0.4v-0.1l3.5-5c0.4-0.5,0.5-1,0.4-1.5c0.2-1.2-0.8-2.4-2.2-2.4h-17.2
			c-0.6,0-1.1,0.2-1.5,0.6c-0.9,0.2-1.5,1-1.5,2c0,1.2,0.9,2.1,2,2.1h1h11.3c0.6,0,0.9,0.6,0.6,1.1l-0.5,0.7c0,0,0,0-0.1,0.1
			c-0.1,0-1.1,0.6-1.1,0.6c-0.7,0.6-1.5,1.1-2.8,2.3v0.1h-18.1c-0.6,0-1.1,0.2-1.5,0.6c-0.9,0.2-1.5,1-1.5,2c0,1.1,0.9,2,2,2h1h16.9
			c0.7,0,1.2,0.7,1.2,1.2V56c0,0.2-0.1,0.5-0.2,0.7l0,0h-3.1c-0.6,0-1.2,0.2-1.5,0.6c-0.9,0.2-1.5,0.9-1.5,1.9c0,1.2,0.8,2,2,2h1
			h3.2h1c2.4,0,4.2-1.8,4.2-4.2v-0.6v-5.1c0-0.6,0.6-1.2,1.2-1.2h14.9h1c1.1,0,2-0.9,2-2c0-0.1,0-0.2,0-0.3s0-0.2,0-0.3
			C174.7,46.5,173.8,45.6,172.7,45.6z"/>
		<path class="st2" d="M174.3,29.7c-0.5,0-0.9-0.4-1-0.9l0.7-13.2c0-0.1,0-0.2,0-0.3V15c0.1-2.3-1.7-4.2-4-4.2h-6.4
			c-0.6,0-2.8,0.1-2.8,2.4c0,1,0.8,1.8,1.8,1.8h1h4.5c0.7,0,1.2,0.6,1.2,1.2l-0.1,0.2c0,0.2-0.1,0.4-0.2,0.6l0,0h-4.3
			c-0.5,0-2.6-0.1-2.6,2.2c0,0.9,0.7,1.7,1.7,1.7h1h3.2c0.6,0,1.2,0.6,1.1,1.2v0.4c0,0.2-0.1,0.5-0.3,0.7h-4c-0.5,0-2.8-0.1-2.7,2.2
			c0.1,1,0.8,1.7,1.7,1.7h1h2.8c0.7,0,1.2,0.6,1.2,1.2l-0.1,0.7c0,0.2-0.1,0.5-0.2,0.7l0,0h-31.4c-0.7,0-1.2-0.6-1.3-1.2v-0.1
			c-0.1-0.6,0.5-1.2,1.1-1.2h2.7h1c0.9,0,1.6-0.7,1.6-1.7c0-0.1,0-0.2,0-0.3c0-0.1,0-0.2,0-0.3c0-0.9-0.7-1.7-1.6-1.7h-4
			c-0.6,0-1.2-0.6-1.2-1.2c0-0.5,0.6-1,1.1-1h3.2h1c0.9,0,1.6-0.8,1.6-1.7c0-0.1,0-0.2,0-0.3c0-0.1,0-0.2,0-0.3
			c0-0.9-0.7-1.7-1.6-1.7H136c-0.6,0-1-0.4-1.2-0.9c0.1-0.5,0.4-0.9,1-1l4.8-1.5c1.1-0.4,1.9-1.4,1.9-2.6c0-0.1,0-0.2,0-0.2
			c0-0.1,0-0.2,0-0.3c0-0.9-0.9-1.7-1.9-1.3l-5.8,1.8c-0.6,0.2-1.1,0.5-1.6,0.8c-2,0.9-3.3,2.9-3.1,5.2l0.8,12.2
			c0,0.2,0,0.3-0.1,0.5c-0.8,0-1.6,0.3-2.1,0.8c-1.4,0.5-2.3,1.8-2.3,3.4V37c0,1.2,0.9,2.1,2.1,2.1c0.2,0,0.8,0,1,0
			c1.2,0,2.1-0.9,2.1-2.1v-0.6v-1c0-0.6,0.5-1.1,1.1-1.1h39.2c0.5,0,1.1,0.5,1.1,1.1V37c0,1.2,0.9,2.1,2.1,2.1c0.2,0,0.8,0,1,0
			c1.2,0,2.1-0.9,2.1-2.1v-0.6v-2.5v-0.6C177.9,31.3,176.3,29.7,174.3,29.7z"/>
		<path class="st2" d="M197.9,19.7L197.9,19.7c-1.1-1.5-2.7-2.4-4.6-2.4c-0.5,0-3.4,0.1-2.2,2.9c0.7,1.6,2.7,2.3,4.5,2.3h0.1
			c0.1,0,0.2,0,0.3,0c0.2,0,0.4,0,0.7,0h0.1C199.2,22.2,198.2,20,197.9,19.7z"/>
		<path class="st2" d="M222.3,20L222.3,20c-1.1-1.5-2.7-2.4-4.6-2.4c-0.5,0-3.4,0.1-2.2,2.9c0.7,1.6,2.7,2.3,4.5,2.3h0.1
			c0.1,0,0.2,0,0.3,0c0.2,0,0.4,0,0.7,0h0.1C223.6,22.6,222.5,20.4,222.3,20z"/>
		<path class="st2" d="M224.6,37.4h-10.8c-0.1,0-0.2-0.1-0.3-0.2c0.3-0.4,0.3-0.8,0.3-1.2c0.2-0.9-0.5-1.8-1.6-1.8h-1.4
			c-0.9,0-1.7,0.3-2.4,0.9c-0.6,0.3-1.2,0.7-1.6,1.2l-0.9,1.2l0,0h-6.8c-1,0-1.9,0.3-2.6,0.9c-1.6,0.6-2.7,2.1-2.7,4v14
			c0,2.4,1.9,4.3,4.3,4.3h1h24.6h1c2.4,0,4.3-1.9,4.3-4.3v-0.6V42.2v-0.6C228.8,39.3,226.9,37.4,224.6,37.4z M200.6,42.8h21.3
			c0.7,0,1.2,0.5,1.2,1.1v1.8c0,0.2-0.1,0.4-0.2,0.6l0,0h-22.3c-0.7,0-1.2-0.5-1.2-1.1V44C199.4,43.3,200,42.8,200.6,42.8z
			 M200.6,55.1c-0.7,0-1.2-0.5-1.2-1.2v-1.1c0-0.6,0.5-1.1,1.2-1.1h21.3c0.7,0,1.2,0.5,1.2,1.1v1.7c0,0.2-0.1,0.4-0.2,0.6H200.6z"/>
		<path class="st2" d="M230,10.8h-14.6c-0.7,0-3.6-0.2-3.5,3c0.1,1.4,1.1,2.5,2.5,2.5h1h11.9c0.6,0,1.1,0.5,1.1,1.1v4.3
			c0,0.3-0.1,0.6-0.3,0.9l-12.3,2.8c-0.5,0.1-0.9,0.3-1.3,0.7c-1.2,0.4-2,1.5-2,2.8c0,1.2,1.1,2.1,2.3,1.9h0.1
			c0.3,0.1,0.6,0.1,0.9,0L228,28c0.3,0.2,0.5,0.5,0.5,0.8v2.1c0,1.3,1.1,2.4,2.4,2.4c0.2,0,0.3,0,0.5-0.1c0.2,0,0.3,0.1,0.5,0.1
			c1.4,0,2.4-1.1,2.4-2.4v-0.6V15.6V15C234.3,12.7,232.4,10.8,230,10.8z"/>
		<path class="st2" d="M293.5,49.8c-0.8-1.5-2.5-2.5-4.3-2.5h-0.1c-0.5,0-1,0.2-1.3,0.6c-1.1,0.2-1.8,1.4-1.2,2.4
			c0.8,1.5,2.5,2.5,4.3,2.5h0.1c0.1,0,0.2,0,0.3,0c0.2,0,0.4,0,0.6,0h0.1c1,0,1.8-1,1.6-2C293.7,50.6,293.7,50.2,293.5,49.8z"/>
		<path class="st2" d="M275.8,47.3L275.8,47.3c-1.1,0-2.1,0.3-2.9,0.9c-1,0.4-1.8,1.1-2.3,2.1c-0.6,1.2,0.2,2.5,1.5,2.5h0.1
			c0.2,0,0.4,0,0.6,0c0.1,0,0.2,0,0.3,0h0.1c1.7,0,3.4-1,4.1-2.5c0.2-0.3,0.2-0.7,0.2-1C277.6,48.3,276.9,47.3,275.8,47.3z"/>
		<path class="st2" d="M293.5,54.9h-31.6c-0.7,0-1.1-0.5-1.1-1.1v-6.5c0-0.7,0.5-1.2,1.1-1.2h1.9h1c1.3,0,2.3-1.1,2.3-2.4
			c0-0.1,0-0.2,0-0.3s0-0.2,0-0.3c0-1.2-1-2.3-2.3-2.3H262c-0.7,0-1.1-0.5-1.1-1.2v-2.4c0-0.7,0.5-1.2,1.1-1.2h3.9h1
			c1.2,0,2.2-1,2.2-2.2c0-0.1,0-0.2,0-0.3s0-0.2,0-0.3c0-1.2-1-2.2-2.2-2.2h-19.6c-0.6,0-3.5-0.2-3.2,2.8c0.1,1.2,1,2.2,2.2,2.2h1
			h6.8c0.6,0,1.1,0.5,1.1,1.2v13.6l-2.9-3.1c-0.3-0.4-0.5-0.8-0.6-1.3c0,0,0,0,0-0.1L252,44c0-0.2,0-0.4,0-0.6
			c0.2-1.2-0.7-2.3-2-2.3c-0.7,0-3.4,0-3.8,2.9l-2.5,15.2c-0.2,1.2,0.8,2.4,2,2.4c0.2,0,0.4,0,0.5-0.1c0.1,0,0.3,0.1,0.5,0.1
			c1.4,0,2.5-1,2.8-2.4l0.7-4.6c0-0.1,0.1-0.1,0.1-0.2l2.5,2.7c1.9,2,4.6,3.1,7.3,3.1h1h31.3h1c1.3,0,2.4-1.1,2.4-2.4
			c0-0.1,0-0.2,0-0.3s0-0.2,0-0.3C295.9,56,294.8,54.9,293.5,54.9z"/>
		<path class="st2" d="M353.4,53.6c0-1.2-1-2.3-2.3-2.3h-14.4c-0.7,0-1.1-0.5-1.1-1.1v-0.1c0-0.7,0.5-1.2,1.1-1.2h8.6h1
			c2.4,0,4.3-1.9,4.3-4.3V44V34v-0.6c0-2.4-2-4.3-4.3-4.3h-9.6c-0.6,0-1.1-0.5-1.1-1.2c0-0.6,0.5-1.2,1.1-1.2h12.5h1
			c1.2,0,2.1-0.9,2.1-2.1c0-0.1,0-0.2,0-0.3c0-0.1,0-0.2,0-0.3c0-1.2-0.9-2.1-2.1-2.1H336c-0.2,0-0.4-0.2-0.4-0.4
			c0-0.9-0.7-1.6-1.6-1.6h-1.2c-0.5,0-2.6-0.3-2.5,2h-13.5c-0.6,0-3.3-0.2-3.1,2.7c0.1,1.1,1,2.1,2.1,2.1h1H329
			c0.7,0,1.2,0.5,1.2,1.2v0.5c0,0.2-0.1,0.4-0.2,0.6h-9.3c-1,0-5.7-0.3-5.3,4.8v10.6c0,2.4,2,4.3,4.3,4.3h1h8.4
			c0.7,0,1.2,0.5,1.2,1.2v0.7c0,0.2-0.1,0.4-0.2,0.6l0,0h-14.2c-0.6,0-3.4-0.3-3.2,2.9c0.1,1.2,1,2.2,2.2,2.2h1h13.3
			c0.6,0,1.1,0.5,1.1,1.1v2.1c0,1.2,0.9,2.1,2.1,2.1c0.2,0,0.8,0,1,0c1.2,0,2.2-0.9,2.2-2.1V59v-1.5c0-0.7,0.5-1.1,1.1-1.1h13.4h1
			c1.3,0,2.3-1,2.3-2.2c0-0.1,0-0.2,0-0.3C353.3,53.8,353.4,53.7,353.4,53.6z M321.6,33.9h7.4c0.7,0,1.2,0.5,1.2,1.2V36
			c0,0.2-0.1,0.4-0.2,0.6l0,0h-8.3c-0.7,0-1.1-0.5-1.1-1.1v-0.4C320.5,34.5,321,33.9,321.6,33.9z M330,44.1h-8.3
			c-0.7,0-1.1-0.5-1.1-1.1v-0.4c0-0.6,0.5-1.1,1.1-1.1h7.4c0.7,0,1.2,0.5,1.2,1.1v1C330.2,43.8,330.1,44,330,44.1L330,44.1z
			 M335.5,43v-0.4c0-0.6,0.5-1.1,1.1-1.1h7.5c0.7,0,1.2,0.5,1.2,1.1v1c0,0.2-0.1,0.4-0.2,0.6l0,0h-8.5C336,44.1,335.5,43.6,335.5,43
			z M345.3,35.1V36c0,0.2-0.1,0.4-0.2,0.6l0,0h-8.5c-0.7,0-1.1-0.5-1.1-1.1v-0.4c0-0.7,0.5-1.2,1.1-1.2h7.5
			C344.8,33.9,345.3,34.5,345.3,35.1z"/>
		<path class="st2" d="M201.7,26.3c0-0.1,0-0.2,0-0.2c0-0.1,0-0.2,0-0.3c0-1.2-1.1-2.1-2.3-1.7l-8.2,2.4c-0.4,0.1-0.8,0.3-1.1,0.6
			c-1.3,0.5-2.1,1.7-2.1,3c0,1.2,1.1,2.1,2.2,1.7l0,0c0.3,0.1,0.6,0.1,1,0l8.2-2.4C200.7,29.1,201.7,27.8,201.7,26.3z"/>
		<path class="st2" d="M313.4,18.2h36.3h1c1.2,0,2.3-1,2.3-2.3c0-0.1,0-0.2,0-0.3s0-0.2,0-0.3c0-1.3-1.1-2.4-2.3-2.4H335
			c-0.4,0-0.8-0.4-0.8-0.8v-0.5c0-1.3-1.1-2.4-2.4-2.4c-0.6,0-3.5-0.3-3.4,2.9v0.5c0,0.1,0,0.1,0,0.2h-16.6c-1,0-5.2,0-5.2,4.9V30
			l-2.4,27.4c-0.1,1.2,0.9,2.4,2.2,2.4c0.2,0,0.3,0,0.5-0.1c0.2,0,0.3,0.1,0.5,0.1c1.3,0,2.4-1.1,2.5-2.4l2.4-27.2v-0.6V19.4
			C312.2,18.8,312.8,18.2,313.4,18.2z"/>
		<path class="st2" d="M9.5,23v0.6c0,2.3,1.6,3.8,3.8,3.8h1h2.4c0.6,0,1.4,0.8,1.4,1.4c0,0.3-0.1,0.6-0.3,0.8l0,0h-3.2
			c-1,0-1.9,0.3-2.6,0.9c-1.5,0.6-2.5,2-2.5,3.8v2.4c0,2.4,1.7,4.1,4.1,4.1h1h12h1c2.4,0,4.1-1.7,4.1-4.1v-0.6v-1.8v-0.6
			c0-2.4-1.7-4.1-4.1-4.1h-3.2c-0.5,0-1.1-0.5-1.3-1.1c0.2-0.6,0.8-1.1,1.3-1.1h2.4h1c2.2,0,3.8-1.5,3.8-3.8v-0.4
			c0-0.4,0.5-0.9,0.9-0.9h0.3c1.1,0,1.8-0.7,1.8-2c0-0.1,0-0.2,0-0.3c0-0.1,0-0.2,0-0.3c0-1.1-0.7-1.8-1.8-1.8h-0.3
			c-0.4,0-0.9-0.5-0.9-0.8v-0.5c0-2.3-1.6-3.9-3.9-3.9H24c-0.4,0-0.9-0.5-0.9-0.9v-0.1V11c0-1.1-0.7-1.7-1.8-1.8
			c-2.9-0.3-3.1,1.5-3.1,2.4v0.7c0,0.1-0.1,0.3-0.1,0.4h-3.6c-1,0-1.8,0.3-2.5,0.8c-1.5,0.5-2.4,1.9-2.4,3.6v0.7v0.1
			c-0.4,0.1-2.2-0.1-2.1,2v0.7c0,1.1,0.5,1.7,1.5,1.7C9.3,22.3,9.5,22.7,9.5,23z M27.5,34.8v1.3c0,0.3-0.2,0.6-0.4,0.8
			c0,0,0,0-0.1,0h-2.7c-0.6,0-1.4-0.8-1.4-1.4v-0.7c0-0.7,0.8-1.4,1.4-1.4H26C26.7,33.4,27.5,34.2,27.5,34.8z M23.1,23
			c0.2-0.4,0.5-0.7,0.9-0.7h2.5c0.4,0,1,0.6,1,1c0,0.1-0.1,0.3-0.1,0.4H24C23.6,23.6,23.2,23.3,23.1,23z M27.5,17.5
			c0,0.1-0.1,0.3-0.1,0.4H24c-0.3,0-0.7-0.3-0.9-0.7c0.2-0.4,0.5-0.7,0.9-0.7h2.5C26.9,16.5,27.5,17.1,27.5,17.5z M13.7,23
			c0.2-0.4,0.6-0.7,0.9-0.7h2.5c0.4,0,0.9,0.6,0.9,1c0,0.1-0.1,0.3-0.1,0.4h-3.3C14.3,23.6,13.9,23.3,13.7,23z M18.1,17.5
			c0,0.1-0.1,0.3-0.1,0.4h-3.3c-0.3,0-0.7-0.3-0.9-0.7c0.2-0.4,0.6-0.7,0.9-0.7h2.5C17.5,16.5,18.1,17.1,18.1,17.5z M13.7,35.5v-0.7
			c0-0.7,0.8-1.4,1.4-1.4h1.7c0.6,0,1.4,0.7,1.4,1.4v1.3c0,0.3-0.2,0.6-0.4,0.9h-2.7C14.4,37,13.7,36.2,13.7,35.5z"/>
		<path class="st2" d="M86.3,25h1h26.1h1c1.4,0,2.5-1.2,2.5-2.6c0-0.1,0-0.2,0-0.3c0-0.1,0-0.2,0-0.3c0-1.4-1.1-2.5-2.5-2.5h-9.8
			c-0.7,0-1.2-0.5-1.2-1.1v-4.4v-0.6c0-1.4-1.1-2.6-2.5-2.6c-0.7,0-1.3,0.3-1.7,0.7c-1.1,0.3-1.8,1.3-1.8,2.5v5
			c0,0.2-0.1,0.4-0.2,0.6h-9.9c-0.7,0-1.3,0.3-1.7,0.7c-1.1,0.3-1.8,1.3-1.8,2.4C83.8,23.9,84.9,25,86.3,25z"/>
		<path class="st2" d="M147.1,17.5l4.3-1.7c0.1,0,0.1,0.1,0.2,0.1c2.2,2.7,4.6,1.7,4.6,1.7c1.4,0,1-2,0.8-2.3l-0.8-1v-0.1
			c0.1-0.2,0.2-0.3,0.4-0.4l1.1-0.5c2.3-1,1.7-3,1.7-3.1c0-0.8-0.8-1.5-1.7-1.1l-3.9,1.4c-0.3,0.1-0.8,0.1-1-0.2
			c-0.9-1.1-2-1.8-3.3-2.2c-0.9-0.2-3.4-0.1-2.1,2.7l0.9,1.1c0.2,0.3,0.2,0.6,0.1,0.9l-1,0.4c-0.3,0.1-2.9,0.6-2.8,3.1
			C144.4,17.2,145.2,18.2,147.1,17.5z"/>
		<path class="st2" d="M190,16.3h1h10.5c0.6,0,1.1,0.5,1.1,1.1v13.4c0,1.4,1.1,2.4,2.5,2.4c0.2,0,0.3,0,0.5-0.1
			c0.2,0,0.3,0.1,0.5,0.1c1.3,0,2.4-1.1,2.4-2.4v-0.6V15.6V15c0-2.4-2-4.3-4.3-4.3H191c-0.7,0-3.6,0-3.5,3
			C187.5,15.2,188.6,16.3,190,16.3z"/>
		<path class="st2" d="M250.8,29.1h1h9.5h1c2.4,0,4.3-2,4.3-4.3v-0.6v-9.7v-0.6c0-2.4-2-4.3-4.3-4.3h-10.5c-1,0-1.9,0.3-2.6,0.9
			c-1.6,0.6-2.7,2.2-2.7,4v10.3C246.5,27.1,248.4,29.1,250.8,29.1z M252.7,14.3h7.6c0.6,0,1.1,0.5,1.1,1.1v0.9
			c0,0.2-0.1,0.4-0.2,0.6h-8.6c-0.7,0-1.1-0.5-1.1-1.1v-0.4C251.5,14.8,252,14.3,252.7,14.3z M251.5,23.2v-0.3
			c0-0.7,0.5-1.2,1.1-1.2h7.6c0.6,0,1.1,0.5,1.1,1.2v0.8c0,0.2-0.1,0.4-0.2,0.6h-8.6C252,24.4,251.5,23.8,251.5,23.2z"/>
		<path class="st2" d="M271.4,15.5h1h5c0.5,0,0.9,0.5,0.7,1l-0.8,1.8c-0.1,0.1-0.2,0.3-0.3,0.4c-0.1,0-0.3,0.1-0.4,0.1h-0.4
			c-1,0-1.9,0.3-2.6,0.9c-1.6,0.6-2.7,2.2-2.7,4V41c0,2.4,2,4.3,4.3,4.3h1h11.3h1c2.4,0,4.3-1.9,4.3-4.3v-0.6V23.6V23
			c0-2.4-1.9-4.3-4.3-4.3h-4.3c-0.3,0-0.6-0.2-0.7-0.5l0,0l0.8-1.7c0.3-0.7,0.9-1,1.6-1h5.2h1c1.4,0,2.4-1.1,2.4-2.4
			c0-0.1,0-0.2,0-0.3s0-0.2,0-0.3c0-1.3-1.1-2.4-2.4-2.4h-19.6c-0.6,0-3.3,0-3.4,2.9C269.1,14.4,270.1,15.5,271.4,15.5z M287.5,33.1
			h-10.4c-0.6,0-1.1-0.5-1.1-1.1s0.5-1.1,1.1-1.1h9.4c0.7,0,1.2,0.5,1.2,1.1v0.5C287.7,32.7,287.6,32.9,287.5,33.1L287.5,33.1z
			 M276,39.4c0-0.6,0.5-1.2,1.1-1.2h9.4c0.7,0,1.2,0.5,1.2,1.2V40c0,0.2-0.1,0.4-0.2,0.6l0,0h-10.4C276.5,40.5,276,40,276,39.4z
			 M287.7,24.5V25c0,0.2-0.1,0.4-0.2,0.6l0,0h-10.4c-0.6,0-1.1-0.5-1.1-1.1s0.5-1.1,1.1-1.1h9.4C287.2,23.3,287.7,23.8,287.7,24.5z"
			/>
		<path class="st2" d="M147.3,28.2l4.3-1.7c0.1,0,0.1,0.1,0.2,0.1c2.2,2.7,4.6,1.7,4.6,1.7c1.4,0,1-2,0.8-2.3l-0.8-1v-0.1
			c0.1-0.2,0.2-0.3,0.4-0.4l1.1-0.5c2.3-1,1.7-3,1.7-3.1c0-0.8-0.8-1.5-1.7-1.1l-3.9,1.4c-0.3,0.1-0.8,0.1-1-0.2
			c-0.9-1.1-2-1.8-3.3-2.2c-0.9-0.2-3.4-0.1-2.1,2.7l0.9,1.1c0.2,0.3,0.2,0.6,0.1,0.9l-1,0.4c-0.3,0.1-2.9,0.6-2.8,3.1
			C144.6,27.8,145.4,28.8,147.3,28.2z"/>
	</g>
</g>
</svg>
