<?xml version="1.0" encoding="utf-8"?>
<!-- Generator: Adobe Illustrator 25.0.0, SVG Export Plug-In . SVG Version: 6.00 Build 0)  -->
<svg version="1.1" id="圖層_1" xmlns="http://www.w3.org/2000/svg" xmlns:xlink="http://www.w3.org/1999/xlink" x="0px" y="0px"
	 viewBox="0 0 8191.6 66.3" style="enable-background:new 0 0 8191.6 66.3;" xml:space="preserve">
<style type="text/css">
	.st0{fill:#FFFFFF;}
</style>
<path class="st0" d="M7168,0L7168,0H6144l0,0H5120l0,0H4096h-0.1H3072l0,0H2048l0,0H1024l0,0H0v34.5c42.7,0,42.7,31.7,85.3,31.7
	s42.7-31.7,85.3-31.7s42.7,31.7,85.3,31.7s42.7-31.7,85.3-31.7s42.7,31.7,85.3,31.7s42.7-31.7,85.3-31.7s42.7,31.7,85.3,31.7
	s42.7-31.7,85.3-31.7c42.7,0,42.7,31.7,85.3,31.7c42.7,0,42.7-31.7,85.3-31.7c42.7,0,42.7,31.7,85.3,31.7
	c42.7,0,42.7-31.7,85.3-31.7c42.7,0,42.7,31.7,85.3,31.7s42.7-31.7,85.3-31.7c42.7,0,42.7,31.7,85.3,31.7
	c42.7,0,42.7-31.7,85.3-31.7c42.7,0,42.7,31.7,85.3,31.7c42.7,0,42.7-31.7,85.3-31.7c42.7,0,42.7,31.7,85.3,31.7
	c42.7,0,42.7-31.7,85.3-31.7s42.7,31.7,85.3,31.7c42.7,0,42.7-31.7,85.3-31.7c42.7,0,42.7,31.7,85.3,31.7
	c42.7,0,42.7-31.7,85.3-31.7c42.7,0,42.7,31.7,85.3,31.7s42.7-31.7,85.3-31.7c42.7,0,42.7,31.7,85.3,31.7
	c42.7,0,42.7-31.7,85.3-31.7c42.7,0,42.7,31.7,85.3,31.7s42.7-31.7,85.3-31.7c42.7,0,42.7,31.7,85.3,31.7s42.7-31.7,85.3-31.7
	c42.7,0,42.7,31.7,85.3,31.7c42.7,0,42.7-31.7,85.3-31.7s42.7,31.7,85.3,31.7c42.7,0,42.7-31.7,85.3-31.7s42.7,31.7,85.3,31.7
	c42.7,0,42.7-31.7,85.3-31.7c42.7,0,42.7,31.7,85.3,31.7s42.7-31.7,85.3-31.7c42.7,0,42.7,31.7,85.3,31.7s42.7-31.7,85.3-31.7
	c42.7,0,42.7,31.7,85.3,31.7c42.7,0,42.7-31.7,85.3-31.7s42.7,31.7,85.3,31.7c42.7,0,42.7-31.7,85.3-31.7s42.7,31.7,85.3,31.7
	c42.7,0,42.7-31.7,85.3-31.7c42.7,0,42.7,31.7,85.3,31.7c42.7,0,42.7-31.7,85.3-31.7c42.7,0,42.7,31.7,85.3,31.7
	s42.7-31.7,85.3-31.7c42.7,0,42.7,31.7,85.3,31.7c42.7,0,42.7-31.7,85.3-31.7s42.7,31.7,85.3,31.7c42.7,0,42.7-31.7,85.3-31.7
	c42.7,0,42.7,31.7,85.3,31.7s42.7-31.7,85.3-31.7c42.7,0,42.7,31.7,85.3,31.7s42.7-31.7,85.3-31.7c42.7,0,42.7,31.7,85.3,31.7
	c42.7,0,42.7-31.7,85.3-31.7c42.7,0,42.7,31.7,85.3,31.7c42.7,0,42.7-31.7,85.3-31.7s42.7,31.7,85.3,31.7
	c42.7,0,42.7-31.7,85.3-31.7s42.7,31.7,85.3,31.7c42.7,0,42.7-31.7,85.3-31.7c42.7,0,42.7,31.7,85.3,31.7
	c42.7,0,42.7-31.7,85.3-31.7c42.7,0,42.7,31.7,85.3,31.7c42.7,0,42.7-31.7,85.3-31.7s42.7,31.7,85.3,31.7
	c42.7,0,42.7-31.7,85.3-31.7s42.7,31.7,85.3,31.7c42.7,0,42.7-31.7,85.3-31.7s42.7,31.7,85.3,31.7c42.7,0,42.7-31.7,85.3-31.7
	s42.7,31.7,85.3,31.7c42.7,0,42.7-31.7,85.3-31.7s42.7,31.7,85.3,31.7s42.7-31.7,85.3-31.7c42.7,0,42.7,31.7,85.3,31.7
	c42.7,0,42.7-31.7,85.3-31.7c42.7,0,42.7,31.7,85.3,31.7s42.7-31.7,85.3-31.7c42.7,0,42.7,31.7,85.3,31.7
	c42.7,0,42.7-31.7,85.3-31.7c42.7,0,42.7,31.7,85.3,31.7s42.7-31.7,85.3-31.7s42.7,31.7,85.3,31.7c42.7,0,42.7-31.7,85.3-31.7
	s42.7,31.7,85.3,31.7c42.7,0,42.7-31.7,85.3-31.7c42.7,0,42.7,31.7,85.3,31.7s42.7-31.7,85.3-31.7V0H7168z"/>
</svg>
