<?xml version="1.0" encoding="utf-8"?>
<!-- Generator: Adobe Illustrator 25.0.0, SVG Export Plug-In . SVG Version: 6.00 Build 0)  -->
<svg version="1.1" id="_xEFF5__xEED3__x5F_4" xmlns="http://www.w3.org/2000/svg" xmlns:xlink="http://www.w3.org/1999/xlink"
	 x="0px" y="0px" viewBox="0 0 265.7 205.1" style="enable-background:new 0 0 265.7 205.1;" xml:space="preserve">
<style type="text/css">
	.st0{fill:#FFFFFF;}
	.st1{fill:#FCD13E;}
</style>
<g>
	<path d="M194.2,134.5c0.4,0,0.9-0.1,1.5-0.1c0.3,0,0.7-0.1,1,0.1c0.5,0.2,0.9,0,1.3,0c1-0.1,2-0.2,3,0c0.7,0.2,1.3,0,2,0
		c0.8-0.1,1.6-0.1,2.5-0.2c0.6,0,1.2,0,1.8,0c0.1,0,0.1,0,0.2,0c1.1,0.1,2.2,0.2,3.3,0.3c0.1,0,0.3,0.1,0.4,0
		c0.8-0.5,1.6-0.5,2.5-0.2c0.1,0,0.3,0,0.4,0c1.6-0.4,3.2-0.6,4.7,0.2c0.2,0.1,0.5-0.1,0.7-0.1c0.9-0.1,1.8-0.3,2.7-0.3
		c0.5-0.1,1.1-0.1,1.6,0c0.7,0,1.3,0.2,2,0.2c2,0,4-0.1,6-0.2c0.4,0,0.9-0.1,1.3-0.2c0.4,0,0.9-0.2,1.1,0c0.9,0.5,1.6,0.1,2.5,0
		c1.1-0.1,2.3-0.2,3.5,0c1,0.1,1.3,0.9,1.2,2.1c0.9,0.5,1.9,1,2.8,1.4c0.1,0.1,0.3,0.2,0.4,0.3c0.3,0.6,0.8,0.9,1.5,1
		c0.2,0,0.4,0.2,0.5,0.3c0.6,1.2,1.8,1.5,2.9,1.9c0.1,0.1,0.3,0.1,0.4,0.2c0.8,0.7,1.5,1.4,2.3,2.1c0.2,0.2,0.5,0.2,0.6,0.3
		c1.4,1.2,3.2,1.9,4.1,3.7c0.2,0.3,0.5,0.5,0.8,0.7c1.1,0.8,2.4,1.4,2.9,2.8c0.3,0.1,0.7,0.1,1,0.2c1.7,0.6,2,1.2,2,3.1
		c0,1.7,0.2,3.4,0.4,5c0.2,2.1,0.7,4.3,0.7,6.4c0,1.2,0.3,2.4,0.2,3.6c0,0.3,0.1,0.6,0.2,0.9c0.1,0.2,0.3,0.5,0.2,0.6
		c-0.6,1.6,0.6,3.1,0.1,4.7c-0.4,1.1-0.3,2.1,0.2,3.1c0.1,0.3,0,0.6,0,0.9c-0.2,0.8-0.5,1.4-0.3,2.3c0.1,0.4-0.6,1.1-1,1.6
		c-0.2,0.3-0.6,0.6-0.8,0.9c-0.2,0.3-0.4,0.6-0.6,0.8c-0.6,0.6-1.2,1.1-1.8,1.6c-0.9,0.7-1.9,1.3-2.9,1.9c-0.1,0-0.2,0-0.2,0.1
		c-0.6,0.7-1.1,1.4-1.7,2c-0.4,0.4-0.8,0.7-1.2,1.1c-0.1,0.1-0.4,0.1-0.5,0.2c-0.9,0.9-1.8,1.9-2.8,2.8c-0.6,0.5-1.2,0.9-1.9,1.3
		c-0.2,0.1-0.4,0.3-0.5,0.4c-0.2,0.9-0.8,1-1.5,1.1s-1.4,0.4-2.1,0.6c-0.3,0.1-0.5,0.2-0.8,0.1c-1.1-0.2-2.2-0.1-3.3-0.1
		c-1.4,0-2.7,0.2-4.1,0.4c-0.4,0.1-0.8-0.1-1.2-0.1c-0.9,0-1.8,0.1-2.7,0.2c-0.4,0-0.8,0.2-1.2,0.1c-1.4-0.1-2.9-0.2-4.3-0.2
		c-0.1,0-0.2,0-0.3,0.1c-1.1,0.6-2.2,0.4-3.3,0.1c-0.4-0.1-1,0.1-1.4,0.1c-0.5,0-1.1,0.1-1.6,0.1c-0.6,0-1.2,0-1.8,0.1
		c-0.9,0.2-1.7,0.5-2.6,0.1c-0.1,0-0.2-0.1-0.2-0.1c-1.1,0.1-2.2,0.2-3.4,0.3c-1.4,0.1-2.8,0.3-4.2,0.4c-2.2,0.1-4.5-0.3-6.8,0.3
		c-0.2,0.1-0.4,0-0.7,0c-1,0-2.1-0.4-3.2,0.2c-0.4,0.2-1.1,0-1.6-0.1c-1.2-0.3-2.3-0.3-3.4,0.2c-0.4,0.2-0.9,0.2-1.2,0.1
		c-1.2-0.4-2.3,0-3.4,0c-2,0.1-4.1,0.2-6.1,0.3c-1.4,0.1-2.8,0.3-4.2,0.3c-1.6,0.1-3.3,0.3-4.8-0.1c-1.1-0.2-1.9-0.2-3,0
		c-2.1,0.3-4.2,0.3-6.3,0.6c-2.4,0.3-4.7,0-7.1,0.2c-2.6,0.2-5.2,0.4-7.8,0.6c-1,0.1-2.1-0.1-3.2-0.1c-1.3,0-2.6-0.2-3.9,0.1
		c-1.1,0.3-2.4,0.1-3.6,0.1c-0.9,0-1.8,0.1-2.8,0.2c-0.3,0-0.6,0.2-0.9,0.2c-1.8-0.2-3.6,0.6-5.3-0.4c-0.1-0.1-0.4-0.1-0.6,0
		c-1.3,0.3-2.6,0.7-3.9,0.9c-0.6,0.1-1.2-0.1-1.8-0.1c-1.4,0-2.8-0.1-4.2-0.1c-0.2,0-0.4-0.1-0.5,0c-1.4,0.6-2.8,0.5-4.3,0.5
		c-1.1,0-2.1,0.2-3.2,0.1c-1.6-0.1-3.2,0.4-4.8-0.2c-0.5-0.2-1.3,0.2-1.9,0.2c-0.7,0.1-1.4,0.1-2.1,0.1c-0.1,0-0.3-0.1-0.3-0.1
		c-1.4,0.8-2.9,0.3-4.3,0.5c-1.9,0.3-3.9,0.2-5.8,0.3c-2.9,0.2-5.7-0.2-8.6,0.4c-0.1,0-0.2,0.1-0.3,0c-1.9-0.9-3.8,0.4-5.7,0.1
		c-0.9-0.1-2,0.3-3-0.2c-1,0.7-2.1,0.2-3.2,0.3c-1.2,0-1.5,0.1-2.3-1c-0.3,0.2-0.6,0.5-0.9,0.7c-0.7,0.6-1.7,0.5-2.3-0.3
		c-0.3-0.4-0.6-0.4-1.1-0.4c-0.4,0.1-1,0-1.3-0.2c-0.5-0.4-0.9-0.4-1.5-0.4c-0.5,0-1-0.2-1.5-0.3c-0.2,0-0.4-0.1-0.6-0.2
		c-0.6-0.2-1.1-0.5-1.7-0.7c-0.5-0.2-1-0.6-1.4-0.5c-1.3,0.3-2.3-0.4-3.4-0.8c-0.5-0.2-1-0.4-1.5-0.7c-0.9-0.5-1.7-1-2.6-1.4
		c-0.3-0.1-0.6-0.3-0.9-0.2c-0.7,0.1-1.3-0.1-2-0.5s-1.4-0.8-2.2-1c-1.7-0.6-3.5-1-5.1-1.7c-1.2-0.4-2.3-1-3.4-1.5
		c-0.9-0.4-1.7-0.7-2.6-1c-0.3-0.1-0.6-0.3-1-0.4c-0.7-0.3-1.4-0.5-2.1-0.8c-0.3-0.1-0.8-0.1-1-0.3c-1.7-1.1-3.6-1.7-5.5-2.3
		c-1.6-0.5-3.3-1.1-4.8-1.8c-0.8-0.3-1.4-1-2-1.6c-0.4-0.3-0.7-0.5-1.2-0.4c-0.9,0.3-1.9,0.3-2.8-0.4c-0.3-0.3-0.8-0.5-1.2-0.5
		c-1.3,0-2.2-0.9-3.3-1.2c-1.6-0.5-2.9-1.7-4.8-1.8c-1.4-0.1-2.6-1-3.4-2.3c-0.4-0.8-0.3-1.6,0.4-2.2c1.3-1.1,2.8-2,4.3-2.8
		c1.2-0.6,2.2-1.4,3.3-2c0.7-0.4,1.5-0.5,2.3-0.8c0.3-0.1,0.6-0.4,0.9-0.6c0.2-0.1,0.2-0.4,0.4-0.5c1-0.6,2.1-1.3,3.2-1.9
		c0.9-0.5,1.9-0.7,2.6-1.3c1.2-1,2.5-1.7,4-2.1c1-0.3,1.5-1,2.2-1.6c0.4-0.3,0.9-0.7,1.4-0.7c0.7,0,1-0.3,1.5-0.8
		c0.4-0.5,1-0.7,1.6-1c0.6-0.4,1.4-0.6,1.9-1.1c0.7-0.8,1.5-1.2,2.4-1.4c0.7-0.1,1.2-0.4,1.8-0.9c0.8-0.7,1.9-1,2.8-1.5
		c0.3-0.1,0.5-0.4,0.8-0.5c1.1-0.7,2.1-1.4,3.2-2c0.4-0.2,0.7-0.5,1.1-0.7c0.4-0.2,0.9-0.4,1.3-0.7c0.3-0.1,0.6-0.2,0.8-0.4
		c1.2-0.9,2.3-2,3.9-2.3c0.7-0.1,1.3-0.8,1.9-1.2c0.8-0.5,1.6-1,2.4-1.4c0.5-0.3,1.2-0.3,1.6-0.6c1.2-0.9,2.5-1.6,4-2
		c0.7-0.2,1.3-0.8,1.9-1.2c0.2-0.1,0.5-0.2,0.7-0.2c1.9-0.1,3.8-0.1,5.6-0.2c1-0.1,2.1-0.2,3.1-0.4c1-0.1,1.9-0.2,2.9-0.3
		c0.1,0,0.2-0.1,0.2,0c1.3,0.7,2.6-0.2,3.9-0.2c1.3,0.1,2.5,0.3,3.8,0.2c0.7,0,1.5-0.3,2.2-0.5c0.4-0.1,0.7-0.4,1.1-0.4
		c1.3,0,2.5,0,3.8,0c0.5,0,1.1-0.1,1.6-0.1c1.1,0,2.1,0,3.1-0.5c0,0,0.1,0,0.2,0c1.5,0.9,2.8-0.1,4.2-0.2c0.1,0,0.2,0,0.2,0
		c1,0.4,2,0,3,0c0.4-0.7,0.7-1.5,1.1-2.3c0.1-0.2,0.2-0.5,0.4-0.6c0.9-0.7,1.2-1.9,2-2.7c1-1,1.2-2.6,2.7-3.2c0.1,0,0.2-0.2,0.3-0.3
		c0.6-1.4,1.1-2.8,1.7-4.1c0.4-0.9,1-1.8,1.3-2.7c0.4-1.6,1.6-3,1.6-4.8c0-0.4,0.4-0.9,0.6-1.3c0.1-0.2,0.2-0.5,0.1-0.7
		c-0.7-1.4-1.4-2.9-2.2-4.3c-0.4-0.7-1.1-1.3-1.4-2.1c-0.5-1.2-1.8-2.1-1.6-3.7c0-0.4-0.6-1.1-1.1-1.4c-1.2-0.8-1.5-2.2-2.4-3.2
		c0,0,0-0.1-0.1-0.2c-1-1.2-1.9-2.4-2.9-3.6c-0.1-0.1-0.3-0.2-0.3-0.3c-0.5-1.8-2.6-2.2-3.2-3.9c-1,0.2-2,0.4-2.9,0.5
		c-0.3,0.1-0.7,0.1-1,0c-1.2-0.7-2.5-0.4-3.8-0.2c-1.7,0.2-3.5,0-5.2,0c-0.4,0-0.9,0.1-1.3,0.1s-0.7,0.1-1.1,0
		c-1.8-0.5-3.6-0.3-5.3,0.1c-0.7,0.2-1.5,0.1-2.2,0.2c-0.9,0-1.9,0.1-2.8,0.1c-1.1,0-2.3-0.2-3.4-0.2c-1.5,0-2.9,0.2-4.4,0.3
		c-0.3,0-0.6,0-0.8,0s-0.5-0.2-0.7-0.1c-1.6,0.4-3.1,0-4.6-0.3c-1-0.2-1.9-0.3-2.9-0.3c-0.8,0-1.5-0.1-2.3-0.1
		c-1.7,0-3.4-0.1-5.1-0.1c-0.4,0-0.8-0.2-1.2-0.3c-0.4-0.1-0.9-0.4-1.3-0.3c-1,0.2-1.8-0.2-2.6-0.6c-0.3-0.1-0.6-0.1-0.9-0.2
		c-0.2,0-0.5,0.1-0.7,0c-1.1-0.6-2.3-1.1-3.4-1.8c-1.1-0.8-2-2-3.1-2.8c-0.3-0.2-1-0.2-1.4-0.1c-1,0.1-2,0.3-2.9,0.5
		c-0.1,0-0.3,0-0.3,0c-0.9,0.7-2,0.6-3,0.9c-0.5,0.2-1,0.7-1.5,1c-0.4,0.2-0.8,0.6-1.2,0.6c-1.2-0.1-2.3-0.4-3-1.5
		c-0.2-0.4-0.5-0.6-1-0.5c-0.3,0-0.6,0-0.9-0.2c-1.5-0.9-3.1-1.7-4.6-2.7c-1.1-0.7-0.7-1.1-0.9-2.3c-0.4-1.7,0.9-2.6,1.2-3.9
		c0-0.1,0-0.1,0,0c-1.6-0.3-3.2-0.7-4.8-1c-0.2,0-0.5,0.1-0.7,0.2c-1.1,0.5-2.1-0.2-2.1-1.4c0.1-1.1,0.1-2.3,0.2-3.4
		c0-1,1.4-2.3,2.6-2.2c0.2,0,0.5,0,0.6-0.1c0.7-0.4,1.3-0.4,2,0c0.2,0.1,0.5,0.1,0.8,0c0.6-0.1,1.2-0.3,1.8-0.3
		c1.6,0,3.1,0.1,4.7,0.1H19c1.9,1.1,4-0.1,6,0.4c1.4,0.4,2.9,0,4.3,0c1.3-0.1,2.7,0.5,3.9-0.5c0.2-0.1,0.6,0,0.8-0.1
		c0.3-0.1,0.7-0.3,0.9-0.6c0.5-0.4,0.8-1,1.4-1.3c1.2-0.6,2.4-1.2,3.7-1.1c0.2,0,0.5,0,0.7-0.2c0.7-0.6,1.6-0.7,2.3-0.4
		c1.1,0.3,2,0,3-0.3c0.5-0.1,1.2-0.1,1.7,0c1,0.1,1.9,0.3,2.9,0.4c0.6,0.1,1.3,0,1.9,0c1.4,0.2,2.8,0.4,4.3,0.7
		c0.8,0.1,1.6,0.2,2.4,0.3c1.5,0.3,2.9,0.6,4.4,0.8c0.8,0.1,1.6-0.1,2.4,0c1.3,0.1,2.7,0,3.9,0.6c0.1,0.1,0.3,0,0.5,0
		c1.1-0.6,2-0.4,2.8,0.7c0.7-0.9,1.7-1,2.7-0.9c1.4,0,2.8,0.1,4.2,0c0.6,0,1.2-0.3,1.9-0.4c1-0.1,1.9-0.3,2.9-0.3
		c1.2-0.1,2.5,0,3.8,0c0-0.4,0.1-0.8,0.1-1.1c0.1-0.9-0.1-1.2-1-0.9c-1.7,0.6-3.5,0.6-5.4,0.6c-1,0-1.9,0.2-2.9,0.3h-0.1
		c-0.5,0.1-4.4-0.5-4.9-0.8c-0.2-0.1-0.5-0.1-0.7-0.1c-1.7,0.1-3.1-0.5-4.2-1.7c-0.3-0.3-0.6-0.5-1-0.8c-1-0.7-2-1.6-2.4-2.8
		c-0.5-1.4-0.8-2.8-1.2-4.2c-0.3-1.2-0.8-2.3-1.1-3.5c-0.3-1.3-0.4-2.6-0.5-3.9c0-0.4-0.1-0.8-0.1-1.1c0-0.8-0.1-1.6,0-2.4
		c0.2-0.8-0.1-1.4-0.9-1.4c-0.6,0-1.1,0.1-1.1-0.7c0-0.1,0-0.1-0.1-0.2c-1.2-0.7-1-1.8-1-2.9c-0.1-0.9-0.3-1.9-0.6-2.8
		c-0.4-1.3-0.1-2.5,0.2-3.7c0-0.2,0.2-0.3,0.2-0.4c-0.4-0.9-0.1-1.7,0.2-2.6c0.3-0.6,0.3-1.3,0.5-2c0.3-1.1,0.6-2.3,1-3.4
		c0.1-0.4,0.4-0.6,0.6-1c0.1-0.2,0.3-0.3,0.3-0.5c-0.1-0.8,0.5-1.3,0.9-1.8s0.6-1,0.9-1.5c0.2-0.3,0.3-0.5,0.5-0.7
		c1.3-1.1,2.6-2.2,3.9-3.2c0.1-0.1,0.2-0.2,0.3-0.2c1.9-0.3,3.3-1.7,5.1-2.3c0.4-0.1,0.8-0.1,1.2-0.2c1.6-0.2,3.2-0.5,4.6-1.4
		c0.1-0.1,0.3-0.1,0.5-0.1c1.2-0.1,2.5,0,3.7-0.4c1.5-0.6,3.1-0.1,4.7-0.6c1.1-0.3,2.5-0.5,3.8,0.1c0.2,0.1,0.4,0,0.6,0
		c0.5,0,1,0,1.5,0.1s0.9,0.2,1.5,0.3c0-0.9,0.1-1.5-0.6-2c-0.2-0.1-0.3-0.4-0.3-0.6c0-1.2-0.1-2.3,0-3.5c0-0.7,0.2-1.3,0.5-1.9
		c0.3-0.8,0.6-1.6,1.1-2.2c0.6-0.8,1.4-1.4,2.2-2c0.3-0.2,0.7-0.4,1.1-0.4c0.7,0.1,1.2-0.1,1.7-0.5c0.6-0.5,1.2-0.9,2.1-0.6
		c0.1,0,0.3,0,0.4-0.1c0.8-0.7,1.6-0.5,2.5-0.4s1.7,0.1,2.6,0.2c0.3,0,0.6,0,0.8,0.1c1.7,0.5,3.4,1.3,4.7,2.6c0.9,0.9,1.8,1.9,2.4,3
		c0.5,0.9,0.7,1.9,1,2.9c0.6,1.9-0.2,3.8-0.5,5.7c-0.1,0.4-0.5,0.7-0.7,1c-0.5,0.6-1.1,1.2-1.4,1.9c-0.4,0.8-1.1,1.1-1.8,1.5
		c-0.8,0.4-1.5,0.8-2.4,1.2c0.6,0.3,1.1,0.6,1.6,0.8c1.2,0.3,1.8,1.4,2.7,2.1c0.9,0.7,1.3,1.7,1.9,2.6c0.1,0.2,0.3,0.4,0.5,0.6
		s0.5,0.4,0.6,0.6c0.6,1.4,1.2,2.8,1.7,4.2c0.1,0.4,0.2,0.8,0.4,1.1c1,1.3,1.1,2.7,0.9,4.2c-0.1,1.2,0,2.3,0,3.5
		c0,0.2,0,0.5-0.1,0.7c-0.6,1.7-1.1,3.5-1.8,5.2c-0.4,1-1.2,1.8-1.8,2.7c0,0.1-0.1,0.1-0.2,0.2c-0.6,0.8-1.3,1.6-1.9,2.4
		c-0.5,0.6-0.6,1.3-0.3,2.1c0.4,1,0.2,1.3-0.8,1.7c-0.2,0.1-0.4,0.3-0.5,0.5c-0.6,0.8-1.1,1.7-1.7,2.4c-0.7,0.8-1.5,1.6-2.2,2.4
		c-0.1,0.1-0.2,0.3-0.2,0.5c0.1,0.6,0.2,1.3,0.3,1.9c0.1,0.6,0.2,1,1,0.8c0.6-0.2,1.4,0,2,0.1c0.3,0,0.5,0,0.8,0
		c0.2,0,0.4-0.1,0.6-0.1c1.2,0.2,2.5,0.3,3.6,0.8c1.4,0.6,2.8,0.5,4.3,0.7c1.4,0.2,2.9,0.7,4.3,1c0.1,0,0.2,0.1,0.3,0.2
		c1.7,0.4,3.3,0.8,5,1.3c0.7,0.2,1.5,0.5,2,1c0.8,0.6,1.7,0.8,2.5,1.1c1.2,0.4,2.5,0.7,3,2.2c0.1,0.4,0.4,0.7,0.9,0.6
		c0.9-0.2,1.6,0.2,2.3,0.8c0.7,0.6,1.6,0.9,2.4,1.4c0.1,0.1,0.4,0.1,0.5,0.2c1.2,1.3,2.9,1.8,4.2,2.9c1.6,1.4,3.4,2.5,5,3.7
		c1.1,0.8,2.1,1.6,3.1,2.5c0.4,0.3,0.6,0.9,0.9,1.2c0.6,0.6,1.3,0.9,2.1,1.2c1.5,0.6,2.4,1.8,2.9,3.3c0.2,0.7,0.7,1.3,1.2,1.8
		c0.8,0.9,1.7,1.8,2.6,2.6c1.3,1.2,2.6,2.3,3.8,3.5c1.1,1.1,2.1,2.4,3.1,3.6c1.3,1.6,2.6,3.2,3.9,4.8c0.4,0.4,0.6,1,1,1.4
		c0.7,1,1.3,2,2,2.9c0.5,0.6,0.9,1.1,0.8,1.8c0,0.2,0.1,0.5,0.2,0.7c1.5,1.3,2.5,2.8,3.3,4.6c0.3,0.8,0.9,1.6,1.2,2.4
		c0.2,0.5,0.1,1.1,0.3,1.7c0.1,0.3,0.2,0.6,0.4,0.8c0.7,0.4,1.1,1,1.5,1.8c0.6,1.5,1.4,3,2,4.5c0.4,0.8,0.6,1.7,1,2.5
		C193.2,132.2,193.7,133.3,194.2,134.5z M133.1,149.7c-0.7,0.3-1.4,0.6-2.1,0.9c-0.6,0.2-1.1,0.5-1.7,0.8c-0.1,0.1-0.2,0.2-0.3,0.3
		c-0.5,1.5-2,2-3.1,2.9c-0.6,0.4-1.3,0.7-2.1,0.9c-0.6,0.2-1-0.1-1.3-0.7c-0.2-0.3-0.5-0.5-0.7-0.8c-0.2-0.2-0.5-0.4-0.7-0.6
		c-0.5-0.9-1.4-1.7-1.4-2.9c0-0.2-0.1-0.4-0.2-0.5c-0.7-1-1.5-1.9-2.1-3c-0.6-1-1-2-1.4-3.1s-1-1.5-2.1-1.3
		c-0.9,0.1-1.8,0.1-2.7,0.1c-0.8,0-1.9-0.3-2.4,0.1c-1.2,0.8-2.1,0.6-3.2,0.1c-0.3-0.1-0.9-0.1-1.1,0.1c-0.7,0.5-1.5,0.7-2.3,0.3
		c-0.7-0.4-1.2-0.1-1.9,0c-1.2,0.3-2.4,0.5-3.6,0.6c-1.3,0.2-2.8-0.8-4.1,0.3c-0.1,0.1-0.2,0.1-0.3,0c-0.9-0.2-1.8-0.4-2.8-0.1
		c-0.5,0.2-1.1-0.1-1.6,0.1c-2.2,0.7-4.3,0.3-6.5,0.3c-1,0-2.1,0.1-3.1,0.2l-0.1,0.1c-0.5,0.1-1,0.3-1.5,0.4
		c-1.2,0.2-2.5-0.6-3.7,0.2c-0.1,0.1-0.4-0.1-0.6-0.1c-0.7,0-1.5,0-2.2,0c-0.8,0-1.7,0-2.5,0c-0.9,0-1.8,0.1-2.7,0.1
		c0,0.1,0,0.2-0.1,0.3c0.4,0.3,0.8,0.5,1.2,0.8c1.7,1.4,3.3,2.7,5,4.1c0.4,0.4,0.7,0.8,1.1,1.3c0.2,0.2,0.3,0.4,0.5,0.6
		c1.2,1,2.2,2.3,3.6,3.2c0.3,0.2,0.4,0.5,0.6,0.8c0.1,0.2,0.3,0.4,0.5,0.4c1.4,0.3,2,1.5,2.4,2.4c0.8,1.8,1.1,3.9,1.6,5.8
		c0,0.2,0,0.4,0,0.6c0,0.7-0.1,1.3,0,2c0.2,0.9,0.5,1.9,0.6,2.8c0.1,0.7-0.1,1.4,0,2.1c0.2,1.4,0.5,2.8,0.7,4.2
		c0.2,1.5,0.3,2.9,0.5,4.4c0.1,0.8,0.3,1.6,0.5,2.4c0.2,0.9,0.2,1.8,0.4,2.7c0.2,0.7,0,1.3-0.4,1.9c-0.3,0.4-0.7,0.8-1,1.2
		c-0.5,0.7-1,1.4-1.6,2c-1,1.1-2,2.1-3,3.2c0,0,0,0.1-0.1,0.1c-0.9,1.2-1.7,2.5-2.8,3.4c-1,0.8-1.7,1.6-2.3,2.7
		c-0.3,0.5-0.7,1-1.2,1.5c0.5-0.2,1.1-0.6,1.4-0.4c1.1,0.4,2.1,0.1,3.1-0.2c0.2,0,0.4,0,0.6,0c0.4,0,0.7,0.1,1.1,0.1
		c1.2-0.1,2.3-0.5,3.4,0.1c0.2,0.1,0.5,0.1,0.7,0c1-0.7,2-0.4,3.1-0.4c2.2,0,4.5-0.2,6.7-0.3c0.7,0,1.4-0.2,2.2-0.2
		c2,0,3.9,0,5.9-0.1c0.8-0.1,1.6-0.4,2.4,0.1c0.1,0.1,0.3-0.1,0.4-0.1c0.7,0,1.4-0.1,2.1-0.1s1.4,0.2,2.1,0.1c1.5-0.2,3-0.5,4.5-0.7
		c1.7-0.2,3.5-0.2,5.3-0.3c0.3,0,0.6,0,0.8,0c1.2,0.3,2.3,0.3,3.5,0c0.2-0.1,0.4-0.1,0.7-0.1c1.1-0.1,2.2-0.2,3.3-0.3
		c0.4,0,0.9-0.2,1.2,0c1.1,0.5,2.4-0.3,3.5,0.6c0,0,0.1,0,0.2,0c1.1-0.8,2.2-0.9,3.5-0.7c0,0,0.1-0.1,0.2-0.1c0.9,0,1.9,0,2.8,0
		c0.9,0,1.8,0,2.8,0c0.6,0,1.1-0.2,1.6-0.2c1.8,0,3.7,0.4,5.5-0.1c2.4-0.7,4.9-0.3,7.4-0.5c2.9-0.2,5.9,0.1,8.7-0.5
		c0.4-0.1,0.8,0,1.3,0c1.5,0,2.9,0,4.4,0c1.4,0,2.7-0.2,4,0.3c0.2,0.1,0.5,0,0.7-0.1c0.4-0.2,0.8-0.5,1.3-0.7
		c-0.5-1-0.1-1.9,0.4-2.7c0.3-0.5,0.4-1,0.6-1.5c0.3-1.4,0.6-2.9,0.9-4.3c0.2-1,0.4-1.9,0.7-2.8c0.1-0.3,0.2-0.7,0.3-1
		c0.4-1.1,0.7-2.3,1.1-3.4c0.1-0.3,0-0.6,0-0.9c0-0.5,0-0.9,0.1-1.4c0.3-1,0.1-2.2-1-2.8c-1.5-0.8-3-1.6-4.1-3
		c-0.4-0.5-1.1-0.6-1.6-1c-0.9-0.8-1.9-1.3-2.9-1.9c-0.3-0.2-0.5-0.7-0.9-0.9c-1.3-1-2.7-2-4-3c-0.7-0.6-1.5-1-2.1-1.9
		c-0.4-0.6-1.1-1.1-1.8-1.3c-1.5-0.3-2.4-1.4-3.5-2.3c-0.7-0.6-1.3-1.5-2.2-1.9c-1-0.5-1.8,0.5-2.7,0.8c-0.2,0.1-0.3,0.2-0.4,0.2
		c-0.7,0.4-1.4,0.4-2-0.1c-0.2-0.1-0.4-0.2-0.7-0.2c-0.5-0.1-1-0.2-1.5-0.3c-1.3-0.3-2.4-1.1-3.7-1.1c-0.4,0-0.8-0.3-1.1-0.6
		c-0.6-0.5-0.9-1.2-1.9-1.1c-0.2,0-0.5-0.3-0.8-0.5c-0.4-0.3-1-0.5-1.3-0.9c-0.9-0.9-2-1.7-2.4-2.8
		C134.6,151.5,134,150.5,133.1,149.7z M245.6,195.4c0.8-0.4,1.4-0.7,2.1-1c0.1-0.1,0.2-0.2,0.3-0.4c0.2-0.9,0.9-1.3,1.6-1.8
		c1-0.7,2-1.5,3-2.3c0.1-0.1,0.2-0.2,0.3-0.3c0.4-1.3,1.6-1.9,2.5-2.5c1.1-0.6,1.3-1.8,2.5-2.3c0.6-0.3,1-1.1,1.5-1.4
		c0.9-0.6,1.4-1.6,2.6-1.8c0.3,0,0.7-0.6,0.3-1.2c-0.5-0.9-0.6-1.9-0.1-3c0.2-0.3,0.3-0.8,0.2-1.1c-1-1.8-0.1-3.8-0.8-5.6
		c0,0,0-0.1,0-0.2c0-0.7,0-1.4,0-2.1c0-0.9,0.1-1.8-0.4-2.6c-0.1-0.2,0-0.4,0-0.7c0-1.5,0-3.1-0.1-4.6c-0.1-1.6-0.3-3.2-0.4-4.8
		c0-0.4,0-1-0.6-1.1c-1-0.3-1.1-0.5-1-1.6c0-0.2-0.1-0.7-0.3-0.7c-1.4-0.4-2.2-1.4-3.1-2.4c-0.2-0.2-0.5-0.6-0.7-0.6
		c-1.8-0.4-2.7-2.1-4.2-3c-0.8-0.5-1.4-1.5-2.3-1.8c-1.1-0.4-1.6-1.5-2.5-2.1s-1.8-1.3-2.7-1.9c-0.1,0-0.2,0-0.2,0
		c-0.2-0.1-0.5-0.2-0.7-0.4c-1.1-0.7-2.3-1.3-3.4-2c-0.3-0.2-0.6-0.2-0.8-0.4c-1.1-0.6-2.3-1.1-3.6-0.3c-0.3,0.2-0.7,0.2-1,0.2
		c-2.6-0.1-5.3-0.2-7.9-0.2c-0.2,0-0.4,0.1-0.6,0.2c-0.4,0.1-0.7,0.1-1.1,0.1c-0.6,0-1.1,0-1.7,0c-0.7,0-1.5,0-2.2-0.2
		s-1.2-0.3-1.9,0.1c-0.3,0.2-0.8,0.2-1.2,0.2c-1-0.1-2-0.2-3-0.3c-0.2,0-0.4,0.1-0.7,0.1s-0.7,0.2-0.9,0.1c-0.8-0.3-1.7-0.4-2.5-0.1
		c-0.3,0.1-0.8-0.2-1.1-0.1c-1.5,0.1-3,0.3-4.4,0.5c-0.3,0-0.7-0.1-1-0.2c-0.5-0.1-1.1-0.4-1.6-0.2c-1.4,0.5-2.7,0.7-4.1,0.1
		c-0.1,0-0.3,0-0.4,0.1c-0.6,0.1-1.2,0.2-1.8,0.2c-0.7,0-1.5-0.1-2.2-0.1c-0.3,1.2-1,1.9-2.1,2.4c-0.4,0.2-0.9,0.3-1.3,0.5
		c-1.1,0.5-2.2,1.1-3.3,1.6c-1.4,0.7-2.8,1.4-4.1,2.1c-1.2,0.6-2.4,1.3-3.7,1.5c-1.2,0.2-2,0.9-2.9,1.5c-1.3,0.8-2.6,1.4-3.8,2.2
		c-0.4,0.2-0.8,0.5-1.2,0.7c0.1,0.2,0.2,0.3,0.2,0.4c0.7,0.9,1.8,1.4,1.9,2.7c0,0.1,0.2,0.1,0.3,0.2c0.5,0.5,1.1,0.9,1.6,1.5
		c0.9,1.1,1.8,2.2,3.5,1.9c0.9-0.2,1.8-0.1,2.6-0.2c1.5,0,3-0.1,4.5-0.1c1.1,0,2.1-0.1,3.2-0.2c1.4,0,2.8,0,4.1,0c0.2,0,0.4,0,0.6,0
		c1.7,0,3.4,0.4,5.1,0c0.2-0.1,0.5,0,0.7,0.1c0.3,0,0.7,0,1,0c1,0,2.1-0.2,3.1,0c0.8,0.1,1.6,0.3,2.3-0.1c0.3-0.2,0.8-0.2,1.1-0.2
		c1.9,0.2,3.8,0.3,5.8,0c1.5-0.2,3,0,4.5,0.1c0.2,0,0.4,0,0.5-0.1c0.8-0.4,1.5-0.3,2.3,0c0.2,0.1,0.5,0.1,0.8,0
		c0.5-0.1,1.1-0.3,1.6-0.3c1,0,2.1,0,3.1,0c0.9,0,1.9-0.3,2.7,0c1.6,0.4,3,0.1,4.6,0c1.3-0.1,2.7-0.3,4-0.4c1.7,0,3.5,0.1,5.2,0.1
		c1.5,0.1,2.9,0.1,4.4-0.1c1.5-0.3,3.1-0.2,4.7-0.1c0.4,0,0.8,0.3,1.2,0.4c0.3,0.1,0.5,0.3,0.7,0.4c0.9,0.3,1.1,1.2,0.3,1.7
		c-0.6,0.4-1.4,0.9-2.1,0.9c-2.4,0.2-4.7,0.2-7.1,0.3c-1.6,0-3.3-0.1-4.9-0.2c-0.6,0-1.2-0.3-1.8-0.3c-1.4,0-2.8,0.2-4.2,0.3
		c-1.2,0-2.4-0.3-3.5-0.1c-1.5,0.3-2.9,0.2-4.3,0.3c-2.2,0.3-4.4-0.6-6.5,0.1c-0.3,0.1-0.7-0.1-1.1-0.2c-0.2,0-0.4-0.1-0.6-0.1
		c-1.5,0.1-2.9,0.3-4.4,0.3c-0.5,0-1-0.3-1.5-0.3c-1.5,0.1-3,0.4-4.5,0.6c-0.3,0-0.8,0-1.1-0.2c-0.8-0.4-1.5-0.3-2.3,0
		c-0.3,0.1-0.5,0.2-0.8,0.2c-1.4,0-2.7-0.3-4.1-0.1c-0.7,0.1-1.4,0-2.2,0c-2.2,0.1-4.4,0.2-6.6,0.3c-0.7,0-1.3,0.1-2,0.1
		c-1,0-2-0.1-3-0.1c-1.8,0.1-3.6,0.2-5.7,0.3c0.3,0.4,0.6,0.6,0.8,0.9c0.3,0.3,0.7,0.6,0.9,1c0.5,1,1,1.9,2.1,2.5
		c0.7,0.4,1.2,1.3,1.8,2c0.5,0.6,1.2,1,1.3,1.7c0.4,1.2,1.4,1.5,2.2,1.9c1,0.5,2,0.8,2.6,1.8c0.2,0.3,0.4,0.6,0.7,0.8
		c1.2,0.8,2.1,1.7,1.9,3.4c1.4,0.1,1.8,1.4,2.6,2.2c0.2,0.2,0.2,0.6,0.2,0.8c0.1,1.6-0.7,2.8-1.8,3.9c-0.6,0.7-1.1,1.7-2.2,1.8
		c-0.1,0-0.1,0.2-0.2,0.3c-0.7,1-1.5,2-2.2,3c-0.1,0.1-0.1,0.3-0.2,0.4c-0.7,0.8-1.3,1.7-2.1,2.5c-0.5,0.5-1.5,0.8-1.7,1.4
		c-0.6,1.3-1.8,2-2.8,3c-0.8,0.7-1.7,1.4-2.1,2.6c0.4-0.1,0.7-0.3,1-0.3c2.3-0.1,4.6-0.2,7-0.3c1,0,1.9,0.2,2.8-0.3
		c0.4-0.2,1-0.2,1.4,0c1.2,0.4,2.3,0.3,3.5-0.1c0.8-0.3,1.7-0.4,2.5,0c0.1,0.1,0.4,0.1,0.5,0c1.1-0.1,2.1-0.2,3.2-0.3
		c1,0,2.1,0.1,3.2,0c0.8-0.1,1.6-0.4,2.4-0.4c2.2-0.1,4.5-0.1,6.7-0.2c0.2,0,0.4,0.1,0.7,0.1c0.2,0,0.5,0.1,0.7,0
		c0.9-0.5,1.8-0.3,2.8-0.1c0.5,0.1,1.1,0,1.6,0s1.1-0.1,1.6,0c0.3,0,0.7,0.3,1,0.2c1.4-0.6,2.7-0.6,4.2-0.4c1.4,0.2,2.8-0.3,4.3-0.5
		c0.4,0,0.8,0,1.2,0.1c0.5,0,1.1,0.2,1.6,0.1c1.1-0.1,2.1-0.5,3.3-0.3c0.8,0.1,1.7-0.1,2.6-0.1c0.3,0,0.6,0,0.9,0.1
		c0.2,0,0.4,0.1,0.6,0.1C243.8,194.2,244.8,194.7,245.6,195.4z M116.9,130.4c1.3,0,2.5,0.8,3.9,0.4c0.6-0.2,1.5,0.2,2.2,0.3
		c0.2,0,0.5,0.2,0.7,0.1c1.7-0.1,3.3-0.4,5,0.3c0.5,0.2,0.7,0,1-0.4c0.6-0.9,1.2-1.7,1.8-2.6c0.3-0.5,0.7-1,0.9-1.5
		c0.3-0.7,0.5-1.5,0.8-2.2s0.7-1.3,0.9-1.9c0.7-2.2,1.3-4.4,1.8-6.6c0.6-2.5,1.1-5.1,1.7-7.7c0.2-0.7,0.3-1.4,0.4-2.1
		c0.2-1.7,0.3-3.4,0.5-5.2c0.1-0.9,0.2-1.7,0.2-2.6c-0.1-1.7-0.3-3.3-0.3-5c0-1,0.1-2,0-2.9c-0.2-1.7-0.5-3.3-0.8-5
		c-0.1-1.1-0.2-2.2-0.2-3.3c0-0.3,0.5-0.8,0.7-0.8c0.3,0,0.7,0.4,1,0.7c0.2,0.2,0.1,0.6,0.2,0.9c0.6,1.9,1.2,3.9,1.7,5.8
		c0.1,0.5,0,1.2,0.1,1.7c0.4,1.7,0.8,3.5,0.7,5.3c-0.1,1-0.2,2.1-0.3,3.1c0,1.3,0.1,2.6,0,3.9c-0.1,1.4-0.5,2.8-0.6,4.1
		c-0.1,1.3,0.1,2.7-0.6,3.9c0,0,0,0.1,0.1,0.3c0.9-0.2,1.8-0.4,2.7-0.6c0.1,0,0.2-0.1,0.2-0.2c0.6-1.4,1.9-1.7,3.2-2
		c0.8-0.2,1.4-0.6,1.8-1.3c0.2-0.4,0.6-0.8,1-0.9c1-0.2,1.8-0.7,2.5-1.4c0.4-0.4,0.8-0.8,1.3-1c1.3-0.6,2.6-1.1,3.7-2.1
		c0.6-0.6,1.5-0.8,2.2-1.4c1.3-1,2.5-2.1,3.7-3.2c0.7-0.7,1.6-1,2-2.1c0.3-0.7,0.2-1.1-0.3-1.6c-0.7-0.7-1.4-1.4-2.1-2.2
		c-0.4-0.4-0.7-0.8-1.1-1.2c-0.7-0.7-1.4-1.4-2.1-2.1c-0.5-0.5-0.9-1.4-1.5-1.5c-1.9-0.5-3-2.1-4.6-3c-0.8-0.5-1.4-1.2-2.2-1.6
		c-2.4-1.2-4.2-3.3-6.7-4.4c-0.2-0.1-0.3-0.3-0.4-0.4c-0.7-0.5-1.4-1.2-2.3-1.6c-0.8-0.3-1.4-0.8-1.6-1.6c-0.2-0.6-0.5-0.7-1-0.6
		c-0.8,0.2-1.5,0-2.1-0.5c-0.5-0.4-1-0.8-1.5-1.1c-0.4-0.3-0.8-0.6-1.3-0.7c-1.2-0.2-2.3-0.6-3.4-1.2c-1.2-0.6-2.6-0.9-3.9-1.2
		c-1.4-0.4-2.9-0.7-4.3-1.1c-0.9-0.2-1.8-0.7-2.7-0.9c-1.5-0.2-3.1-0.2-4.7-0.3c-1.2-0.1-2.3-0.4-3.7-0.6c-0.1,0.8-0.2,1.5-0.2,2.3
		c0,0.9-0.1,1.8-0.6,2.5c-0.8,1.1-1.6,2.2-2.4,3.2c-0.7,1-1.7,1.6-2.9,1.9c-2,0.5-4,0.8-6,1.3c-1.8,0.5-3.3-0.1-4.6-1.4
		c-0.3,0.3-0.5,0.3-0.7,0.1c-1-0.6-2.1-1.2-2.9-2C90,73,90.1,72.9,89,73.3c-0.6,0.2-1.2,0.2-1.8,0.2c-0.6,0-1.2-0.2-1.8-0.2
		c-0.6,0-1.3,0-1.9,0c-0.4,0-0.7-0.2-1.1-0.1c-1.9,0.2-3.7,0.5-5.6,0.7c-1.2,0.1-2.6,0.5-3.5-0.7c-1.3,1.2-1.3,1.2-3,0.4
		c-0.1,0-0.2-0.1-0.3-0.1c-1.1,0.3-2.1,0.4-3.2,0.2c-1.6-0.2-3.2-0.2-4.7-0.3c-0.1,0-0.1,0-0.2,0c-1.1-0.2-2.1-0.4-3.2-0.6
		c-1.3-0.2-2.6-0.1-3.8-0.4c-2.4-0.5-4.7-0.9-7.2-1.1c-0.6,0-1.2,0-1.7-0.2c-0.8-0.2-1.5-0.3-2.2,0.1c-0.5,0.3-1.2,0.6-1.7,0.4
		c-1.3-0.4-2.1,0.6-3,1c-0.5,0.2-0.9,0.6-1.3,0.7c-1.3,0.2-2.3,0.6-2.8,1.9c0,0.1-0.2,0.1-0.2,0.2c-0.1,0.4-0.4,0.9-0.4,1.3
		c0,1,0.1,2.1,0.1,3.1c0,0.8-0.1,1.6,0,2.5c0,0.3,0.1,0.6,0.1,0.9c0.1,1.3-0.1,2.7,1.2,3.6c0.3,0.2,0.3,0.6,0.5,0.8
		c0.2,0.3,0.4,0.5,0.6,0.7c1.2,0.8,2.3,1.7,3.8,2c0.3,0.1,0.5,0.5,0.8,0.6c1.2,0.4,2.4,0.8,3.5,1.1c0.1,0,0.3-0.2,0.4-0.2
		c0.5-0.1,1-0.1,1.5-0.1c1,0.1,2,0.2,2.9,0.4c1,0.1,2,0.1,2.9,0.4c1.7,0.5,3.4,0.4,5.1,0.2c1.6-0.1,3.3-0.2,5-0.2h0.1
		c1.4,0.1,2.8,0.2,4.2,0.2c1.6,0,3.1-0.1,4.7-0.1c0.4,0,0.7,0,1.1,0c1.1,0,2.2-0.1,3.2,0c0.8,0,1.7,0.3,2.5,0.3c1.5,0,3-0.7,4.5-0.1
		h0.1c1.2-0.2,2.5-0.5,3.7-0.6c1.1-0.1,2.1,0.1,3.2,0.1c0.4,0,0.8,0,1.1,0c0.7-0.1,1.5-0.4,2.2-0.3c1.2,0.1,2.4-0.1,3.4,0.8
		c0.1,0.1,0.2,0.1,0.3,0c0.8,0,1.5,0.3,2.1,0.9c0.3,0.3,0.6,0.7,0.9,1.1c0.5,0.5,1,1,1.5,1.6c0.9,1,1.9,1.8,2.5,2.9
		c0.8,1.4,1.8,2.5,2.7,3.8c0.2,0.3,0.4,0.6,0.5,1c0.4,1,0.5,2.2,1.8,2.6c0.1,0,0.3,0.2,0.4,0.3c0.5,0.8,1,1.6,1.4,2.5
		c0.4,0.8,0.6,1.6,1,2.4c0.9,2.1,2.1,4.1,2.2,6.5c0.7,0,1.3,0,1.9,0c0.5,0,0.8-0.1,0.8-0.7c-0.1-0.8-0.1-1.6-0.1-2.5
		c0-0.2,0-0.5,0.1-0.7c0.5-0.9,0.5-1.9,0.5-2.8c0.2-2.7,0.4-5.4,0.7-8.1c0-0.2,0-0.4,0.1-0.6c0.7-1.5,0.5-3,0-4.5
		c-0.1-0.5-0.1-1-0.1-1.6c0-0.3,0.1-0.6,0-0.9c-0.1-1.1,0.2-2.3-0.3-3.4c0,0,0-0.1,0-0.2c-0.1-0.7-0.1-1.4-0.2-2
		c-0.1-0.5-0.1-1-0.2-1.5c0-0.4,0-0.8-0.1-1.2c-0.2-1.2-0.6-2.4-0.7-3.7c-0.2-1.2-0.3-2.4-0.3-3.6c0-0.6,0.2-1.1,0.9-1.2
		c0.7-0.1,1,0.4,1.2,1.1c0.4,1.6,1.3,3.1,1.3,4.8c0,0.1,0.1,0.2,0.1,0.3c0.3,1.3,0.9,2.7,0.8,4c-0.1,1.5,0.9,2.9,0.3,4.4
		c0,0.1,0.1,0.2,0.1,0.3c0.2,1.2,0.4,2.4,0.6,3.6c0,0.2-0.1,0.3-0.1,0.5c-0.5,1.6-0.7,3.2-0.2,4.9c0.1,0.3,0.1,0.6,0.1,0.9
		c-0.1,1.3-0.1,2.5-0.2,3.8c-0.1,1.2-0.2,2.4-0.3,3.7c-0.1,1.1-0.6,2.3-0.2,3.5c0.1,0.3-0.2,0.8-0.3,1.2c-0.1,0.2-0.3,0.4-0.3,0.7
		c-0.1,1.2-0.5,2.4-0.2,3.7c0.1,0.5,0,1.1-0.1,1.6C119,124.9,118.2,127.6,116.9,130.4z M62.8,201.7c0.6-0.2,1.2-0.5,1.8-0.5
		s1.3,0.1,2,0.2c0.5,0.1,0.8-0.1,1.1-0.5c0.9-1,1.7-2,2.7-2.8c0.8-0.6,1.7-1.2,2-2.2c0.1-0.3,0.4-0.4,0.6-0.7
		c1.1-1.2,2.2-2.3,3.2-3.5c1.1-1.2,2.1-2.4,3.1-3.6c0.2-0.3,0.5-0.7,0.5-1c0-1-0.1-1.9-0.1-2.9c0-0.6,0.3-1.4,0.1-1.8
		c-0.6-1-0.4-1.9-0.5-2.9c-0.1-0.8-0.4-1.5-0.5-2.3c-0.1-1.5-0.1-2.9-0.5-4.4c-0.2-0.7,0.1-1.6,0-2.3c-0.2-1.1-0.6-2.2-0.8-3.3
		c-0.2-1.3-0.3-2.5-0.2-3.8c0-0.6,0.3-1.1,0-1.7c-0.1-0.2-0.1-0.5-0.2-0.7c-0.1-0.3-0.3-0.6-0.6-0.9c-0.4-0.4-0.8-0.8-1.2-1.2
		c-0.1-0.1-0.2-0.3-0.3-0.4c-1.4-1.1-2.8-2.1-4.2-3.2c-0.2-0.1-0.3-0.3-0.4-0.4c-0.2-0.2-0.3-0.4-0.5-0.5c-1.7-0.5-2.3-2.2-3.6-3.2
		c-1.5-1.2-2.4-3-4.3-3.7c-0.2-0.1-0.4-0.3-0.6-0.5c-0.4-0.4-0.8-0.9-1.3-1.3c-0.4,0.3-0.9,0.6-1.2,0.9c-0.9,0.8-1.7,1.7-2.9,1.8
		c-0.4,0-0.8,0.4-1.2,0.6c-0.6,0.4-1.2,0.8-1.8,1.1c-0.2,0.1-0.5,0.2-0.7,0.4c-1.1,1-2.7,1.1-3.6,2.4c-0.1,0.1-0.3,0.1-0.4,0.2
		c-1.3,0.8-2.9,0.9-4,2.2c-0.2,0.2-0.5,0.2-0.8,0.3s-0.7,0.2-1,0.5c-1.1,0.9-2.4,1.5-3.7,1.9c-0.2,0.1-0.4,0.2-0.5,0.4
		c-0.9,0.6-1.6,1.4-2.6,1.8c-0.7,0.3-1.3,0.6-1.7,1.2c-0.6,0.7-1.4,1.2-2.4,1.4c-0.6,0.1-1.3,0.5-1.7,1c-0.6,0.7-1.4,1-2.3,1.1
		c-0.3,0-0.6,0.2-0.7,0.4c-0.4,0.7-1,1.2-1.8,1.3c-0.3,0-0.5,0.2-0.9,0.3c0.2,0.2,0.2,0.3,0.3,0.4c1.5,0.9,2.7,2.2,3.9,3.5
		c1.4,1.5,1.7,3.2,2,4.9c0.2,1,0.1,2,0.1,3c0,1.2,0.2,2.4-0.6,3.5c-0.1,0.2-0.1,0.5-0.2,0.7c-0.2,1.3-0.5,2.5-1.5,3.5
		c-0.3,0.3-0.5,0.8-0.8,1.4c1,0.2,1.9,0.4,2.7,0.7c0.4,0.1,0.7,0.3,1,0.5s0.5,0.4,0.8,0.5c0.7,0.2,1.4,0.4,2.1,0.6
		c0.8,0.3,1.6,0.9,2.4,1.1c2.2,0.5,4.2,1.5,6.3,2.4c0.6,0.3,1.2,0.5,1.8,0.8c1,0.4,2,0.7,3,1.1c0.6,0.2,1.1,0.6,1.6,0.9
		c0.3,0.2,0.6,0.4,0.9,0.5c0.9,0.3,1.9,0.4,2.8,0.7c0.5,0.1,1.1,0.3,1.6,0.5c0.9,0.4,2,0.8,2.8,1.5c0.6,0.5,1.1,0.8,1.8,0.9
		c0.5,0,1,0.3,1.5,0.5c0.3,0.1,0.5,0.3,0.7,0.4C62,201.4,62.4,201.5,62.8,201.7z M167.7,97.5c-0.6,0.3-1.1,0.4-1.4,0.7
		c-0.3,0.3-0.5,0.8-0.7,1.2c-0.1,0.2-0.3,0.3-0.5,0.5c-1.4,1.4-2.9,2.6-4.5,3.6c-0.8,0.5-1.4,1.1-2.1,1.6c-0.8,0.5-1.6,1-2.4,1.5
		c-0.8,0.5-1.5,1-2.3,1.4c-0.9,0.5-2,0.7-2.6,1.7c-0.2,0.3-0.7,0.4-1,0.4c-1,0-1.8,0.5-2.4,1.2c-0.8,0.8-1.6,1.5-2.9,1.5
		c-0.4,0-0.8,0.2-1.2,0.5c-0.8,0.6-1.6,1.3-2.7,1.3c-0.4,0-1,0.4-1.1,0.7c-0.5,1.6-1,3.3-1.4,5c-0.3,1.3-0.6,2.5-0.9,3.8
		c-0.1,0.2-0.3,0.4-0.4,0.6c-0.2,0.3-0.3,0.6-0.5,1c-0.3,0.8-0.6,1.6-1,2.3c-0.9,1.3-1.8,2.6-2.8,3.9c-0.6,0.8-1.3,1.6-1.9,2.3
		c-0.2,0.1-0.1,0.5,0,0.7c0.8,0.9,1.2,1.9,1.5,3c0.7,1.8,0.8,3.8,1.2,5.7c0.2,0.9,0.3,1.9,0.6,2.8c0.2,0.8,0.4,1.7,1.2,2.3
		c0.2,0.1,0.2,0.5,0.3,0.7c0.3,0.5,0.6,0.9,1.1,1.3c1,0.9,2,1.8,3,2.7c0.7,0.6,1.3,1.5,2.1,1.7c1.1,0.2,2.2,0.4,3.1,1.2
		c0.1,0.1,0.3,0,0.5,0c1,0.1,2,0.1,3,0.5c1.4,0.5,2.1,0.4,3.4-0.4c1.1-0.7,2.4-1.2,3.6-1.8c0.6-0.3,1.5-0.3,1.9-0.8
		c0.8-0.8,1.7-1.5,2.8-1.7c1.2-0.2,2.4-0.2,3-1.6c0.1-0.1,0.2-0.2,0.3-0.3c2.2-1.1,4.3-2.3,6.5-3.4c0.1-0.1,0.3-0.1,0.4-0.2
		c1.1-1,2.5-1.5,4-1.9c0.8-0.3,1.7-0.6,2.4-1.1c1.3-0.7,2.5-1.6,3.8-2.4c0.4-0.3,1-0.3,1.4-0.5c1.1-0.6,2.2-1.3,3.4-1.8
		c1.8-0.9,3.7-1.7,5.6-2.6c-0.1-0.3-0.2-0.7-0.3-1c-0.4-2.5-1.7-4.7-2.6-7c-0.7-1.8-2.4-3.2-1.7-5.1c-0.7-0.8-1.3-1.3-1.7-2
		c-0.7-1.1-1.3-2.3-1.9-3.5c-0.3-0.7-0.6-1.4-0.9-2.1c-0.4-1-0.7-2.1-1.9-2.5c-0.1-0.1-0.2-0.3-0.3-0.5c-0.2-0.4-0.4-0.9-0.7-1.3
		c-1-1.3-1.9-2.6-3-3.9c-1.9-2.3-3.9-4.5-5.8-6.8C169.1,99.5,168.4,98.5,167.7,97.5z M83.1,40.7c-0.8-1.3-0.5-2.4-0.4-3.6
		c0.1-1.1,0.4-2.1,0.3-3.2c-0.1-1.1,0.2-2.2,1-3.1c0.4-0.4,0.9-0.7,1.4-0.4c0.4,0.2,0.7,0.7,0.8,1.1c0.1,0.6,0,1.2-0.1,1.8
		c-0.1,0.8-0.6,1.5-0.5,2.3c0.1,1.6,0.6,3.3,0,5c1.4,0,2.7,0,4,0s2.6-0.6,3.9,0.1c0.1,0.1,0.5,0,0.6-0.1c0.4-1,1.1-2,1.2-3.1
		c0.2-2,1.1-3.6,2-5.2c0.3-0.5,0.8-0.6,1.4-0.4c1.1,0.3,1.6,1.2,2.1,2.1c0.9,1.9,1.8,3.9,2.7,5.8c0.9,1.7,1.8,3.3,2.7,5
		c0.1,0.1,0.1,0.3,0.2,0.4c0.1,0.9,0.6,0.8,1.3,0.6c0.6-0.1,1.2-0.1,1.8,0c0.3,0,0.6,0.1,0.9,0.3c0.5,0.3,1.1,0.6,1.6,1
		c0.2,0.1,0.3,0.4,0.4,0.4c1-0.1,1.6,0.4,2.1,1.2c0.3-0.3,0.6-0.6,0.8-0.9c0.8-1.4,1.4-2.7,2.2-4.1c0.6-1.1,1-2.1,0.9-3.4
		c0-0.3,0-0.7,0.2-0.9c0.6-1,0-2,0.2-3.1s-0.1-2.2-0.2-3.3c0-0.4-0.1-0.8-0.3-1.2c-0.6-1-1.2-2.1-2.1-2.9c-0.2-0.2-0.3-0.5-0.4-0.7
		c-0.2-0.4-0.4-0.8-0.7-1.2c-1.2-1.2-2.4-2.4-3.6-3.6c-0.3-0.3-0.7-0.5-1.1-0.7c-1-0.6-2.1-1-3.1-1.6c-0.6-0.3-1-0.9-1.6-1.3
		c-0.2-0.1-0.4-0.1-0.6-0.1c-0.8-0.2-1.5-0.5-2.3-0.7c-0.2,0-0.3-0.1-0.5-0.1c-1.6-0.4-3.2-0.7-4.8-1.1c-0.9-0.2-1.8-0.4-2.7-0.6
		c-0.9-0.2-1.8-0.7-2.6-0.7c-1.4-0.1-2.8,0-4.2,0.2c-1.4,0.2-2.8,0.7-4.2,1c-0.6,0.1-1.3,0.2-1.9,0.3c-0.5,0.1-1,0.3-1.5,0.2
		c-1.2-0.1-2.3,0.2-3.3,0.7c-1.4,0.7-2.6,1.5-4.2,1.3c-0.1,0-0.3,0-0.4,0.1c-0.7,0.9-1.8,1.2-2.7,1.9c-1.2,0.9-2.3,2.1-3.4,3.1
		c-0.4,0-0.4,0.1-0.4,0.2c-0.4,1.3-1.3,2.3-1.6,3.6c-0.2,1-0.8,1.9-1,2.9c-0.3,0.9-0.3,1.9-0.4,2.9c0,0.2-0.2,0.5-0.3,0.7
		s-0.2,0.4-0.2,0.5c0.1,1.4,0.5,2.9-0.4,4.2c-0.1,0.1,0,0.3,0,0.4c-0.2,1.3,1,2.2,1.2,3.4c2.4-0.6,4.8-1.1,7.4-1.7
		c-0.2-0.7-0.4-1.5-0.6-2.2c-0.1-0.5-0.1-1-0.1-1.6c0-0.5,0-1,0.1-1.4c0.1-0.6,0.4-1.2,0.6-1.7c0.3-0.7,0.7-1.4,0.7-2.2
		c0-1,0.5-2.1,1.5-2.3c0.8-0.2,1.4,0.3,1.3,1.2C74,32.9,74,33.6,73.3,34c-0.1,0.1-0.1,0.4-0.1,0.5c0.1,0.8,0.3,1.6,0.3,2.4
		c0,0.9-0.1,1.9-0.4,2.7S73,41,73.3,41.5c2.3-0.2,4.6-0.4,6.8-0.7C81.1,40.9,82,40.8,83.1,40.7z M108.3,63.5
		c-0.1-0.2-0.3-0.5-0.4-0.8c-0.2-0.6-0.3-1.3-0.6-1.9c-0.8-1.5-0.5-2.5,1-3.4c0.9-0.5,1.6-1.2,2.3-2c0.9-1,1.2-2.3,1.4-3.5
		c0.1-0.6,0-1.2-0.2-1.8c-0.1-0.4-0.4-0.8-0.6-1.2c-0.5-0.2-1.1-0.4-1.6-0.4c-0.7,0-1.5-0.5-2.2,0.3c-0.4,0.5-2.1,0.4-2.5-0.1
		c-0.6-0.8-1.2-1.6-1.7-2.5c-0.6-1.1-0.9-2.2-1.4-3.3c-0.7-1.8-1.7-3.4-1.9-5.3c-0.1-0.5-0.5-1-0.8-1.5c-0.4,0.9-0.8,1.7-1,2.5
		c-0.3,1.3-0.5,2.7-0.8,4.1c-0.2,0.9-1.1,1.3-2.1,1c-0.4-0.1-0.9-0.3-1.3-0.2c-1.3,0.4-2.6,0.1-4,0c-1,0-2,0.2-3,0.2s-2.1-0.1-3.1,0
		c-1,0-2.1,0.1-3.1,0.2c-3,0.4-6,0.8-9,1.2c-0.6,0.1-1.2,0.3-1.9,0.4c-0.8,0.2-1.5,0.4-2.3,0.4c-1.1,0.1-1.7,0.5-1.5,1.6
		c0.2,2,0.5,4,0.8,5.9c0.1,0.5,0.2,1.1,0.3,1.6c0.3,1.1,0.5,2.3,0.8,3.4c0.4,1.3,0.9,2.6,1.8,3.7c0.1,0.1,0.1,0.3,0.2,0.5
		c0.4,0.5,0.7,1.4,1.1,1.5c1.6,0.3,3,1.6,4.7,1.2c0.3-0.1,0.6,0.2,1,0.3c0.2,0.1,0.4,0.2,0.5,0.2c1-0.3,2,0,3,0.2
		c1.6,0.3,3.1-0.1,4.7-0.5c0.8-0.2,1.6-0.3,2.4,0.1c0.3,0.2,0.8,0.3,1.1,0.2c0.9-0.4,1.6,0.1,2.1,0.7s1,1.3,1.2,2
		c0.3,1.3,0.2,2.6,1.5,3.4c0.2,0.1,0.3,0.4,0.5,0.6c0.7,0.6,1.2,1.4,2.4,1.5c1,0,2,0.6,3,0.8c0.9,0.1,2.1,0.3,2.9-0.1
		c1.5-0.8,2.8-2,4.1-3.1c0.1-0.1,0.1-0.2,0.2-0.3c0.5-1.3,1.1-2.5,1.6-3.8c0.1-0.3,0.1-0.7,0.1-1C108.1,65.3,108.2,64.3,108.3,63.5z
		 M156,158c0.7,0.4,1.1,0.6,1.6,0.9c1.1,0.8,2.5,1.2,3.2,2.6c0.1,0.2,0.3,0.3,0.5,0.4c0.8,0.4,1.6,0.8,2.4,1.1
		c0.2,0.1,0.4,0.3,0.6,0.4c2,1.4,4.1,2.7,6,4.2c0.9,0.7,1.7,1.6,2.7,2.2c0.6,0.4,1.1,0.8,1.7,1.2c0.9,0.6,1.9,1.1,2.8,1.7
		c1.1,0.8,2.1,1.7,3.1,2.6c0.2,0.1,0.6,0.1,0.8,0c1.6-0.6,2.9-1.5,3.7-3c-0.6-1-1.3-1.9-2.1-2.8c-1.2-1.3-2.8-2.4-3.1-4.4
		c0-0.1-0.1-0.2-0.1-0.2c-1-0.7-1.9-1.4-2.6-2.6c-0.6-1.1-1.8-2-2.7-3c-0.4-0.4-0.8-0.9-1.2-1.4c-1.2-1.2-1.8-3-3.2-4.1
		c-0.8-0.6-1.2-1.6-1.9-2.5c-0.2,0.1-0.3,0.2-0.5,0.3c-1.4,0.6-2.6,1.6-4.3,1.5c-0.2,0-0.5,0.3-0.7,0.5c-0.8,1.3-2,2.2-3.5,2.3
		C157.7,156.3,157.1,157.2,156,158z M4.8,178.2c0.4,0.4,0.5,0.6,0.7,0.7c1.4,0.5,2.7,1,4.1,1.4c1.1,0.3,2.3,0.4,3.2,1.3
		c0.3,0.3,0.8,0.4,1.2,0.4c1.2,0,1.9,0.8,2.5,1.7c0.2,0.2,0.6,0.5,0.8,0.5c2.2-0.3,4.1,0.4,5.9,1.5c1.3,0.8,2.3,0.4,2.6-1.1
		c0.1-0.4,0.2-0.8,0.4-1.1c1-1.4,0.9-3,1.4-4.6c0.3-1.1,0.1-2-0.1-3c-0.1-0.4-0.2-0.8-0.3-1.2c-0.2-0.5-0.5-1-0.8-1.6
		c-0.2-0.4-0.4-0.9-0.7-1.3c-0.7-0.9-1.5-1.8-2.2-2.6c-0.4-0.4-0.8-0.8-1.1-1.1c-1.1,0.6-2.1,1-3,1.5s-1.7,1.2-2.5,1.7
		c-1.1,0.7-2.2,1.3-3.4,1.9c-0.2,0.1-0.5,0-0.7,0c-0.3,0.1-0.7,0.2-0.9,0.4c-0.7,0.9-1.6,1.5-2.7,1.8c-0.4,0.1-0.7,0.4-1.1,0.6
		c-0.4,0.2-0.8,0.5-1.1,0.7C6.4,177.3,5.6,177.7,4.8,178.2z M115.7,10.5c0.2-1.1-0.3-2.2-0.7-3.3c-0.6-1.7-1.9-2.6-3.4-3.3
		c-1.1-0.5-2.4-0.7-3.6-1c-0.5-0.1-1.1,0.2-1.6,0.3c-1.1,0.1-2.3,0-3.4,0.3c-0.6,0.2-1.2,0.1-1.4,0.9c0,0.2-0.2,0.4-0.4,0.4
		c-1.2,0.3-1.5,1.4-2.1,2.3c-0.4,0.6-0.6,1.1-0.5,1.8c0,1-0.1,1.9-0.2,2.9c0,0.2,0.1,0.4,0.3,0.6c0.7,0.8,1.4,1.6,2.1,2.4
		c0.1,0.1,0.2,0.2,0.3,0.2c1.1,0.3,2,1.3,3.4,1.1c0.1,0,0.3,0.1,0.4,0.1c1,0.6,1.8,1.4,3,1.2c0.4,0,0.8,0.3,1.1,0.2
		c1.5-0.4,3-0.6,4.3-1.7c0.9-0.7,1.5-1.2,1.9-2.4C115.5,12.5,115.7,11.6,115.7,10.5z M125,151.2c-0.3-0.7-0.6-1.3-0.9-1.9
		c-0.2-0.6-0.3-1.3-0.7-1.7c-0.7-0.7-0.6-1.5-0.8-2.3c-0.1-0.7,0.5-1.2,1.1-1c0.7,0.3,1.4,0.7,1.8,1.3c0.7,1.2,1.2,2.6,1.8,3.9
		c0.1,0.2,0.3,0.3,0.5,0.4c0.3-0.4,0.9-0.7,0.5-1.4c-0.8-1.5-1.5-3-2.2-4.5c-0.3-0.7-0.2-1.3,0.3-1.7c0.6-0.4,1.2-0.2,1.6,0.2
		c0.4,0.4,0.7,0.9,0.9,1.4c0.5,1.1,0.9,2.2,1.3,3.3c0.1,0,0.2,0.1,0.2,0.1c0.1-0.2,0.4-0.5,0.4-0.7c0-1.1-0.1-2.1-0.3-3.2
		c-0.2-1.4-0.6-2.9-0.9-4.3c0-0.2-0.1-0.3-0.2-0.4c-0.2-0.4-0.5-0.7-0.7-1.1c-0.4-1.2-1.1-2.3-2-2.7c-1.1-0.6-2.6-0.6-4-0.5
		c-1,0-1.9,0.2-2.9-0.2c-0.4-0.2-0.9-0.2-1.4-0.2c-0.9-0.1-1.8-0.1-2.6-0.2c-0.3,0-0.7-0.1-0.9,0.1c-0.6,0.5-1,1.1-1.5,1.7
		c-0.7,0.8-1.3,1.7-2,2.6c-0.5,0.5-1,1-1.5,1.4c1.5,0,3,0,4.4,0c0.8,0,1.5,0.3,1.9,1s0.9,1.3,1.3,1.9c0,0.1,0.2,0.1,0.2,0.1
		c0.4,0.3,0.8,0.5,1,0.8c0.9,1.5,1.8,3,2.7,4.5c0.3,0.5,0.5,1,0.8,1.5c0.3,0.6,0.6,1.2,1,1.8c0.2,0.3,0.3,0.6,0.5,1
		C124.4,151.7,124.7,151.4,125,151.2z M187.4,172.9c-0.3,3.3-2.7,5.5-5.9,5.5c-0.3,0-0.7,0.3-0.8,0.5c-0.4,1.1-0.6,2.2-0.9,3.2
		c0,0.1,0,0.2,0,0.3c0,1.8,0,3.5-0.5,5.3c-0.2,0.6-0.2,1.3-0.4,1.9c-0.2,1-0.4,2-0.6,3c-0.1,0.3-0.3,0.5-0.4,0.7
		c-0.5,0.9-0.8,1.8-0.5,2.9c1.3-1.2,2.5-2.3,3.6-3.5c0.7-0.7,1.3-1.5,2-2.2c0.5-0.4,1-0.7,1.3-1.3s0.7-1.1,1.2-1.5
		c1-1,2.1-2,3.1-2.9c0.2-0.2,0.4-0.3,0.6-0.5c0.7-0.5,1.3-0.9,1.4-1.9c0-0.3,0.3-0.6,0.5-0.9c0.4-0.6,0.8-1.1,1.2-1.7
		c0.1-0.1,0.1-0.4,0-0.5c-0.3-0.8-0.6-1.5-0.9-2.4c-0.8-0.1-1.5-0.9-1.9-1.8C189.1,174.1,188.2,173.6,187.4,172.9z M22.5,88.4
		c1.4-2,3.4-2.9,5.4-1.6c0.1,0.1,0.4,0.1,0.5,0c0.8-0.4,1.6-0.8,2.3-1.4c0.3-0.2,0.6-0.7,0.6-1c0.1-1,0.1-2,0.1-2.9
		c-0.1-1.4-0.6-2.8-0.3-4.3c0.1-0.3-0.7-1-1-1c-1.3,0.2-2.5-0.6-3.8-0.1c-1,0.4-2.4,0.2-3.5-0.1c-1.3-0.3-2.5-0.8-3.8-0.2
		c0,0-0.1,0-0.2,0c-1.5,0-3,0-4.5-0.1c-0.7,0-1.3-0.3-2-0.4c-0.2,0-0.4-0.1-0.6-0.1c-0.7,0-1.4,0.1-2.2,0.2c-0.1,0.2-0.2,0.7-0.3,1
		c1.8,0.3,3.5,0.7,5.2,1c0.7,0.1,1.4,0.4,2.1,0.5c1.1,0,1.6,0.5,1.2,1.5c-0.4,1.1-1.1,2.1-1.8,3.1c-0.3,0.5-0.7,1-1.1,1.4
		c0.6,0.3,1.1,0.4,1.4,0.7c0.8,0.9,1.9,1,2.9,1.4c0.5,0.2,0.9,0,1.1-0.7c-0.7-0.3-1.3-0.7-2-1c-0.6-0.3-1-1-0.6-1.5
		c0.8-1.1,1.4-2.3,2.4-3.2c0.5-0.5,1.6-1,2.2-0.8c0.9,0.3,1.7,1.2,2.6,1.7c0.3,0.2,0.7,0.4,1,0.6c0.5,0.2,0.6,0.4,0.5,0.9
		c-0.2,1.1-0.8,1.9-1.6,2.6c-0.2,0.1-0.3,0.4-0.5,0.5c-0.4,0.4-0.7,0.8-1.1,1.2c-0.5,0.5-1,0.9-1.6,1.5
		C21.8,88.1,22.2,88.3,22.5,88.4z M103.9,139.8c0.4,0.7,0.8,0.7,1.3,0.4c0.7-0.4,1.4-0.7,1.9-1.5c0.5-0.9,1.5-1.5,2.2-2.3
		c1.1-1.3,2.1-2.5,3.1-3.9c0.8-1,1.4-2.1,2-3.3c0.6-1,0.4-2.4,1.6-3.2c0.1,0,0.1-0.2,0.1-0.3c0.4-1.4,0.2-2.7,0-4.1
		c-0.7,0-1.4,0.1-2.1,0c-0.6-0.1-0.8,0.1-0.9,0.7c-0.1,0.7-0.2,1.4-0.4,2c-0.8,1.7-1.7,3.4-2.6,5.1c-0.4,0.7-0.6,1.5-1.1,2
		c-0.7,0.7-1,1.3-1.2,2.2c-0.3,1.1-1,2-1.7,3C105.4,137.8,104.6,138.8,103.9,139.8z M21.2,82c0.5,0.4,0.9,0.8,1.3,1.2
		c0.7-0.9,0.6-1.1-0.8-1.7C21.5,81.6,21.4,81.8,21.2,82z"/>
	<path class="st0" d="M133.1,149.7c0.8,0.8,1.5,1.7,2,3c0.4,1.1,1.5,1.9,2.4,2.8c0.4,0.4,0.9,0.6,1.3,0.9c0.3,0.2,0.5,0.5,0.8,0.5
		c1-0.1,1.3,0.7,1.9,1.1c0.3,0.3,0.7,0.6,1.1,0.6c1.4,0,2.5,0.8,3.7,1.1c0.5,0.1,1,0.2,1.5,0.3c0.2,0,0.5,0.1,0.7,0.2
		c0.7,0.5,1.3,0.5,2,0.1c0.1-0.1,0.3-0.2,0.4-0.2c0.9-0.3,1.7-1.3,2.7-0.8c0.8,0.4,1.4,1.3,2.2,1.9c1.1,0.9,2,2,3.5,2.3
		c0.7,0.2,1.5,0.7,1.8,1.3c0.5,0.9,1.3,1.3,2.1,1.9c1.3,1,2.7,2,4,3c0.3,0.2,0.5,0.7,0.9,0.9c1,0.6,2,1.1,2.9,1.9
		c0.5,0.4,1.2,0.6,1.6,1c1.1,1.4,2.6,2.2,4.1,3c1.1,0.6,1.3,1.8,1,2.8c-0.1,0.4-0.1,0.9-0.1,1.4c0,0.3,0.1,0.6,0,0.9
		c-0.3,1.1-0.7,2.3-1.1,3.4c-0.1,0.3-0.2,0.7-0.3,1c-0.2,0.9-0.5,1.9-0.7,2.8c-0.3,1.4-0.6,2.9-0.9,4.3c-0.1,0.5-0.3,1.1-0.6,1.5
		c-0.5,0.9-0.9,1.8-0.4,2.7c-0.5,0.3-0.8,0.5-1.3,0.7c-0.2,0.1-0.5,0.2-0.7,0.1c-1.3-0.5-2.7-0.3-4-0.3c-1.5,0-2.9,0-4.4,0
		c-0.4,0-0.9-0.1-1.3,0c-2.9,0.6-5.8,0.3-8.7,0.5c-2.5,0.2-5-0.2-7.4,0.5c-1.8,0.5-3.7,0.1-5.5,0.1c-0.6,0-1.1,0.2-1.6,0.2
		c-0.9,0-1.8,0-2.8,0c-0.9,0-1.9,0-2.8,0c-0.1,0-0.1,0.1-0.2,0.1c-1.3-0.2-2.4,0-3.5,0.7c0,0-0.1,0-0.2,0c-1-0.9-2.4-0.1-3.5-0.6
		c-0.3-0.1-0.8,0-1.2,0c-1.1,0.1-2.2,0.2-3.3,0.3c-0.2,0-0.4,0-0.7,0.1c-1.2,0.3-2.3,0.3-3.5,0c-0.3-0.1-0.6-0.1-0.8,0
		c-1.8,0.1-3.5,0.1-5.3,0.3c-1.5,0.2-3,0.5-4.5,0.7c-0.7,0.1-1.4-0.1-2.1-0.1s-1.4,0-2.1,0.1c-0.1,0-0.3,0.1-0.4,0.1
		c-0.8-0.5-1.6-0.2-2.4-0.1c-2,0.1-3.9,0.1-5.9,0.1c-0.7,0-1.4,0.1-2.2,0.2c-2.2,0.1-4.5,0.3-6.7,0.3c-1.1,0-2.1-0.3-3.1,0.4
		c-0.2,0.1-0.5,0.1-0.7,0c-1.1-0.6-2.3-0.2-3.4-0.1c-0.4,0-0.7-0.1-1.1-0.1c-0.2,0-0.4,0-0.6,0c-1,0.3-2,0.6-3.1,0.2
		c-0.3-0.1-0.9,0.2-1.4,0.4c0.4-0.5,0.8-1,1.2-1.5c0.6-1,1.3-1.9,2.3-2.7c1.1-0.9,1.9-2.2,2.8-3.4c0,0,0-0.1,0.1-0.1
		c1-1.1,2.1-2.1,3-3.2c0.6-0.6,1.1-1.3,1.6-2c0.3-0.4,0.7-0.8,1-1.2c0.5-0.6,0.6-1.1,0.4-1.9c-0.2-0.9-0.2-1.8-0.4-2.7
		c-0.1-0.8-0.4-1.6-0.5-2.4c-0.2-1.5-0.3-2.9-0.5-4.4c-0.2-1.4-0.5-2.8-0.7-4.2c-0.1-0.7,0.1-1.4,0-2.1c-0.1-0.9-0.5-1.9-0.6-2.8
		c-0.1-0.6,0-1.3,0-2c0-0.2,0.1-0.4,0-0.6c-0.5-2-0.8-4-1.6-5.8c-0.4-0.9-1.1-2.2-2.4-2.4c-0.2,0-0.3-0.2-0.5-0.4
		c-0.2-0.3-0.3-0.6-0.6-0.8c-1.4-0.8-2.4-2.1-3.6-3.2c-0.2-0.2-0.4-0.4-0.5-0.6c-0.4-0.4-0.6-0.9-1.1-1.3c-1.6-1.4-3.3-2.8-5-4.1
		c-0.4-0.3-0.8-0.6-1.2-0.8c0-0.1,0-0.2,0.1-0.3c0.9,0,1.8-0.1,2.7-0.1c0.8,0,1.7,0,2.5,0c0.7,0,1.5,0,2.2,0c0.2,0,0.4,0.1,0.6,0.1
		c1.2-0.8,2.5,0,3.7-0.2c0.5-0.1,1-0.3,1.5-0.4c0.1,0,0.1-0.1,0.1-0.1c1-0.1,2.1-0.2,3.1-0.2c2.2,0.1,4.3,0.4,6.5-0.3
		c0.5-0.2,1.1,0.1,1.6-0.1c1-0.3,1.9-0.2,2.8,0.1c0.1,0,0.3,0,0.3,0c1.3-1.1,2.7-0.1,4.1-0.3c1.2-0.2,2.4-0.4,3.6-0.6
		c0.6-0.1,1.2-0.4,1.9,0c0.7,0.4,1.5,0.3,2.3-0.3c0.3-0.2,0.8-0.3,1.1-0.1c1.1,0.5,2.1,0.7,3.2-0.1c0.6-0.4,1.6-0.1,2.4-0.1
		c0.9,0,1.8,0,2.7-0.1c1.1-0.1,1.7,0.2,2.1,1.3s0.9,2.1,1.4,3.1c0.6,1,1.4,2,2.1,3c0.1,0.2,0.2,0.4,0.2,0.5c0,1.2,0.9,2,1.4,2.9
		c0.1,0.3,0.5,0.4,0.7,0.6c0.3,0.3,0.5,0.5,0.7,0.8c0.3,0.5,0.7,0.9,1.3,0.7c0.7-0.2,1.5-0.5,2.1-0.9c1.2-0.8,2.6-1.3,3.1-2.9
		c0-0.1,0.2-0.2,0.3-0.3c0.6-0.3,1.1-0.6,1.7-0.8C131.7,150.3,132.4,150,133.1,149.7z M107.8,182.5c0.5,0.2,1.1,0.5,1.6,0.4
		c1.5-0.1,2.9-0.5,4.3-0.7c0.2,0,0.4,0,0.6,0c0.3,0,0.6,0.2,0.8,0.2c1-0.5,2-0.5,3-0.2c0.6,0.2,1.3-0.1,1.9-0.1
		c1.3,0,2.6,0.2,3.9,0.1c1.6,0,3.1-0.2,4.7-0.3c0.7,0,1.3,0.1,2,0.1c1.1,0,2.2,0,3.3-0.1c0.7,0,1.4-0.1,2.1-0.1
		c0.2,0,0.4-0.1,0.6-0.1c1.7,0.1,3.4,0.2,5.2,0.2c1.5,0,3-0.2,4.5-0.3c0.8,0,1.6-0.2,2.3,0c1.1,0.2,2,0.1,3.1-0.1
		c1-0.2,2.1,0.2,3.1,0.1c0.9,0,1.8-0.5,2.6-0.3c1.4,0.3,2.7,0.4,4.1,0.3c2.2,0,4.3,0.1,6.5,0.2c1.9,0,3.8,0,5.8,0
		c1.2,0,2.1-0.7,2.1-1.7c0-0.9-0.9-1.7-2-1.7s-2.3-0.1-3.4-0.1c-1.2,0-2.5,0.4-3.6,0.2c-1.4-0.2-2.7-0.2-4.1-0.2c-1.3,0-2.7-0.3-4,0
		c-1.2,0.3-2.3,0.4-3.4,0.1c-1.8-0.5-3.5,0.4-5.3-0.1c-0.9-0.3-1.9,0.3-2.9,0.1c-1.1-0.2-2.2-0.1-3.4-0.1c-1.6,0-3.1,0-4.7,0
		c-0.9,0-1.9,0.4-2.7,0.2c-1.5-0.5-3,0.1-4.5,0c-0.7-0.1-1.5-0.1-2.2,0c-1.2,0.1-2.3,0.3-3.5,0.2c-2.4-0.2-4.7,0.2-7,0.7
		c-0.2,0-0.4,0-0.6,0c-0.5,0-1.1,0.1-1.6,0.2c-0.4,0-0.8,0.1-1.1,0c-0.6-0.3-1.2-0.3-1.8,0c-0.2,0.1-0.4,0.1-0.6,0.1
		c-2-0.3-4.1-0.6-5.9,0.6c-0.4-0.1-0.8-0.4-1.2-0.4c-1.2,0.1-2.4,0.2-3.7,0.3c-1,0.1-2,0.3-2.9,0.5c-0.7,0.1-1.3,0.1-2,0.2
		c-1.4,0.1-2.8,0-4.2,0.2c-1.8,0.2-3.7,0.5-5.5,0.8c-0.5,0.1-1.1,0.6-1.3,1c-0.2,0.3,0,1.1,0.3,1.3c0.4,0.3,1.1,0.3,1.6,0.3
		c0.3,0,0.6-0.3,0.8-0.3c1.3-0.1,2.5-0.1,3.8-0.2c1.5-0.1,3-0.4,4.5-0.5c0.7-0.1,1.4-0.2,2.1-0.2c1,0,1.9,0,2.9,0
		C104.7,183.4,106.3,183.5,107.8,182.5z M85.7,160.2c-1.3-0.2-1.4-0.1-1.7,1.2c0,0.2-0.1,0.3-0.1,0.5c-0.2,0.8,0.2,1.4,1,1.2
		c1.1-0.2,2.1-0.5,3.3-0.4c1.6,0,3.2-0.3,4.8-0.5c0.3,0,0.5-0.1,0.8-0.1c0.9-0.1,1.8-0.4,2.7-0.4c0.9,0,1.9,0.2,2.8,0.1
		c0.6,0,1.2-0.2,1.9-0.3c1.3-0.1,2.6-0.4,3.9-0.3c1.2,0.1,2.4,0,3.7-0.2c1-0.2,2.1,0.2,3.1,0.1c1.1-0.1,2.1-0.2,3.2-0.2
		c1.3,0,2.6,0.2,3.9,0c1.8-0.3,3.6,0.5,5.3-0.5c0,0,0.1,0,0.2,0c0.8,0.1,1.6,0.3,2.4,0.3c1.6,0,3.3,0,4.9-0.2c1-0.1,2.1-0.4,3.1-0.5
		c0.1,0,0.3,0.1,0.5,0.1c0.9,0.5,1.8,0.4,2.8,0.3c0.3-0.1,0.5-0.1,0.8-0.1c0.8,0.1,1.5-0.4,1.6-1.3c0.1-0.7-0.4-1.4-1.1-1.5
		c-0.9-0.1-1.8-0.3-2.7-0.3c-1.3,0-2.5,0.4-3.8,0.1c-0.8-0.2-1.7,0-2.6,0c-2-0.1-4-0.3-6,0.4c-0.2,0.1-0.4-0.1-0.6-0.1
		c-0.4-0.1-0.8-0.2-1.2-0.2c-0.7,0-1.5,0.3-2.2,0.2c-1.8-0.3-3.5,0.5-5.2,0.1c-0.3-0.1-0.7,0.1-1.1,0.2c-0.3,0-0.7,0-1,0
		c-1,0-2.1-0.1-3.1,0.1c-0.9,0.2-1.7,0.5-2.6,0.1c-0.3-0.1-0.7-0.1-1,0c-1.3,0.7-2.6,0.2-4,0.4c-0.6,0.1-1.2,0.2-1.7,0.1
		c-1.4-0.2-2.7,0-4.1,0.4c-0.9,0.2-1.9,0.1-2.8,0.2c-0.4,0-0.8,0-1.2,0c-0.9,0.1-1.7,0.2-2.5,0.3c-0.9,0.1-1.9,0.2-2.8,0.4
		C86.6,159.9,86.2,160.1,85.7,160.2z"/>
	<path class="st0" d="M245.6,195.4c-0.8-0.8-1.8-1.3-3.1-0.5c-0.1,0.1-0.4,0-0.6-0.1c-0.3,0-0.6-0.1-0.9-0.1c-0.9,0-1.8,0.2-2.6,0.1
		c-1.2-0.2-2.2,0.2-3.3,0.3c-0.5,0.1-1.1-0.1-1.6-0.1c-0.4,0-0.8-0.1-1.2-0.1c-1.4,0.2-2.9,0.7-4.3,0.5c-1.5-0.2-2.8-0.1-4.2,0.4
		c-0.3,0.1-0.6-0.2-1-0.2c-0.5,0-1.1,0-1.6,0s-1.1,0.1-1.6,0c-0.9-0.2-1.9-0.4-2.8,0.1c-0.2,0.1-0.5,0.1-0.7,0
		c-0.2,0-0.4-0.1-0.7-0.1c-2.2,0-4.5,0.1-6.7,0.2c-0.8,0-1.6,0.3-2.4,0.4c-1,0.1-2.1,0-3.2,0c-1.1,0-2.1,0.2-3.2,0.3
		c-0.2,0-0.4,0-0.5,0c-0.8-0.5-1.7-0.3-2.5,0c-1.2,0.4-2.3,0.5-3.5,0.1c-0.4-0.1-1-0.2-1.4,0c-0.9,0.5-1.9,0.2-2.8,0.3
		c-2.3,0.1-4.6,0.2-7,0.3c-0.3,0-0.6,0.2-1,0.3c0.4-1.1,1.3-1.8,2.1-2.6c1-0.9,2.1-1.6,2.8-3c0.3-0.6,1.2-0.8,1.7-1.4
		c0.8-0.8,1.4-1.6,2.1-2.5c0.1-0.1,0.1-0.2,0.2-0.4c0.7-1,1.5-2,2.2-3c0.1-0.1,0.1-0.3,0.2-0.3c1.1-0.1,1.6-1.1,2.2-1.8
		c1-1.1,1.8-2.3,1.8-3.9c0-0.3,0-0.7-0.2-0.8c-0.8-0.8-1.2-2.1-2.6-2.2c0.2-1.7-0.7-2.6-1.9-3.4c-0.3-0.2-0.5-0.5-0.7-0.8
		c-0.6-1-1.6-1.3-2.6-1.8c-0.9-0.4-1.9-0.7-2.2-1.9c-0.2-0.6-0.9-1.1-1.3-1.7c-0.6-0.7-1-1.6-1.8-2c-1.1-0.6-1.5-1.5-2.1-2.5
		c-0.2-0.4-0.6-0.6-0.9-1c-0.3-0.3-0.5-0.6-0.8-0.9c2-0.1,3.9-0.3,5.7-0.3c1,0,2,0.1,3,0.1c0.7,0,1.3-0.1,2-0.1
		c2.2-0.1,4.4-0.1,6.6-0.3c0.7,0,1.5,0.1,2.2,0c1.4-0.2,2.8,0.1,4.1,0.1c0.3,0,0.5-0.1,0.8-0.2c0.8-0.3,1.5-0.4,2.3,0
		c0.3,0.2,0.7,0.2,1.1,0.2c1.5-0.2,3-0.4,4.5-0.6c0.5,0,1,0.3,1.5,0.3c1.5-0.1,2.9-0.2,4.4-0.3c0.2,0,0.4,0.1,0.6,0.1
		c0.4,0.1,0.7,0.3,1.1,0.2c2.2-0.6,4.3,0.2,6.5-0.1c1.4-0.2,2.9,0,4.3-0.3c1.1-0.2,2.3,0.1,3.5,0.1c1.4,0,2.8-0.2,4.2-0.3
		c0.6,0,1.2,0.2,1.8,0.3c1.6,0.1,3.2,0.2,4.9,0.2c2.4,0,4.7-0.1,7.1-0.3c0.7-0.1,1.5-0.5,2.1-0.9c0.8-0.6,0.5-1.4-0.3-1.7
		c-0.3-0.1-0.5-0.3-0.7-0.4c-0.4-0.2-0.8-0.4-1.2-0.4c-1.6,0-3.1-0.1-4.7,0.1c-1.5,0.2-2.9,0.2-4.4,0.1c-1.7-0.1-3.5-0.2-5.2-0.1
		c-1.3,0-2.7,0.3-4,0.4c-1.5,0.1-3,0.4-4.6,0c-0.9-0.2-1.8,0-2.7,0c-1,0-2.1-0.1-3.1,0c-0.5,0-1.1,0.2-1.6,0.3c-0.3,0-0.5,0-0.8,0
		c-0.8-0.3-1.5-0.4-2.3,0c-0.2,0.1-0.4,0.1-0.5,0.1c-1.5,0-3-0.3-4.5-0.1c-1.9,0.3-3.8,0.2-5.8,0c-0.4,0-0.8,0-1.1,0.2
		c-0.8,0.4-1.5,0.2-2.3,0.1c-1-0.1-2.1,0-3.1,0c-0.3,0-0.7,0-1,0s-0.5-0.1-0.7-0.1c-1.7,0.4-3.4,0-5.1,0c-0.2,0-0.4,0-0.6,0
		c-1.4,0-2.8,0-4.1,0c-1.1,0-2.1,0.1-3.2,0.2c-1.5,0.1-3,0.1-4.5,0.1c-0.9,0-1.8,0-2.6,0.2c-1.7,0.3-2.6-0.8-3.5-1.9
		c-0.5-0.5-1.1-1-1.6-1.5c-0.1-0.1-0.3-0.1-0.3-0.2c-0.2-1.2-1.2-1.8-1.9-2.7c-0.1-0.1-0.1-0.2-0.2-0.4c0.4-0.3,0.8-0.5,1.2-0.7
		c1.3-0.7,2.6-1.4,3.8-2.2c0.9-0.6,1.7-1.3,2.9-1.5c1.3-0.2,2.5-1,3.7-1.5c1.4-0.7,2.8-1.4,4.1-2.1c1.1-0.5,2.2-1.1,3.3-1.6
		c0.4-0.2,0.9-0.3,1.3-0.5c1.1-0.4,1.8-1.1,2.1-2.4c0.7,0,1.5,0.1,2.2,0.1c0.6,0,1.2-0.2,1.8-0.2c0.1,0,0.3-0.1,0.4-0.1
		c1.4,0.6,2.7,0.3,4.1-0.1c0.4-0.2,1,0.1,1.6,0.2c0.3,0.1,0.7,0.2,1,0.2c1.5-0.1,3-0.3,4.4-0.5c0.4,0,0.8,0.2,1.1,0.1
		c0.9-0.3,1.7-0.2,2.5,0.1c0.2,0.1,0.6-0.1,0.9-0.1c0.2,0,0.4-0.1,0.7-0.1c1,0.1,2,0.3,3,0.3c0.4,0,0.9,0,1.2-0.2
		c0.7-0.4,1.2-0.3,1.9-0.1s1.5,0.1,2.2,0.2c0.6,0,1.1,0,1.7,0c0.4,0,0.7-0.1,1.1-0.1c0.2,0,0.4-0.2,0.6-0.2c2.6,0.1,5.3,0.2,7.9,0.2
		c0.3,0,0.7,0,1-0.2c1.3-0.8,2.4-0.3,3.6,0.3c0.3,0.1,0.6,0.2,0.8,0.4c1.1,0.6,2.3,1.3,3.4,2c0.2,0.1,0.5,0.3,0.7,0.4
		c0.1,0,0.2,0,0.2,0c0.9,0.6,1.8,1.3,2.7,1.9c0.9,0.6,1.4,1.7,2.5,2.1c0.9,0.3,1.5,1.3,2.3,1.8c1.5,0.9,2.4,2.6,4.2,3
		c0.3,0.1,0.5,0.4,0.7,0.6c0.9,1,1.7,2.1,3.1,2.4c0.1,0,0.3,0.5,0.3,0.7c-0.1,1,0,1.3,1,1.6c0.6,0.2,0.6,0.7,0.6,1.1
		c0.2,1.6,0.3,3.2,0.4,4.8c0.1,1.5,0.1,3.1,0.1,4.6c0,0.2-0.1,0.5,0,0.7c0.4,0.8,0.4,1.7,0.4,2.6c0,0.7,0,1.4,0,2.1
		c0,0.1,0,0.1,0,0.2c0.7,1.8-0.2,3.8,0.8,5.6c0.1,0.3,0,0.8-0.2,1.1c-0.5,1-0.4,2,0.1,3c0.3,0.6,0,1.1-0.3,1.2
		c-1.2,0.2-1.7,1.2-2.6,1.8c-0.6,0.4-0.9,1.2-1.5,1.4c-1.1,0.5-1.4,1.7-2.5,2.3c-0.9,0.5-2.2,1.2-2.5,2.5c0,0.1-0.2,0.2-0.3,0.3
		c-1,0.8-2,1.5-3,2.3c-0.6,0.5-1.4,0.9-1.6,1.8c0,0.1-0.1,0.3-0.3,0.4C247.1,194.7,246.4,195,245.6,195.4z M198.6,179.3
		c-0.1,1.3,0,1.4,1.3,1.6c0.6,0.1,1.2,0,1.7-0.2c0.6-0.2,1.1-0.4,1.7-0.1c0.9,0.5,1.8,0.5,2.7,0c0.3-0.2,0.8-0.2,1.2,0
		c1.4,0.6,2.7,0.4,4-0.3c0.2-0.1,0.7-0.1,0.8,0c0.7,0.7,1.4,0.8,2.3,0.5c0.2-0.1,0.5,0.1,0.7,0.1c0.5,0,0.9,0,1.4,0.1
		c0.3,0,0.5,0,0.8,0c0.8-0.1,1.6-0.2,2.4-0.3c0.3,0,0.6,0,0.9,0c0.7,0.1,1.4,0.3,2.1,0.2c1,0,2.1-0.2,3.1-0.3
		c1.4-0.1,2.7-0.1,4.1-0.1c0.2,0,0.4-0.2,0.6-0.2c0.4,0,0.8-0.1,1.2,0c0.6,0.1,1.1,0.3,1.7,0.3c0.6,0,1.2,0,1.8-0.1
		c0.4,0,0.7-0.2,1.1-0.2c1.2,0,2.4,0,3.5-0.1h0.1c0.7,0.4,1.4,0.4,2.1-0.2c0.1-0.1,0.3-0.2,0.4-0.2c0.8,0.1,1.5,0.3,2.3,0.4
		c0.9,0.1,1.7,0.1,2.6,0.2c0.9,0,1.9,0,2.8,0.1c1.4,0.2,2.8,0.3,4-0.7c0.9-0.8,0.7-2.2-0.4-2.5c-1.1-0.3-2.2-0.5-3.3-0.3
		c-1.2,0.2-2.4,0.2-3.6,0c-0.6-0.1-1.2,0-1.7,0.1c-0.3,0-0.7,0-1,0.1c-1,0.2-1.9,0.2-2.9-0.3c-0.2-0.1-0.7,0.1-1,0.2
		c-0.2,0-0.4,0.2-0.5,0.2c-1.2-0.7-2.5,0.4-3.8-0.3c-0.5-0.3-1.3-0.1-2,0s-1.3,0.2-2,0.3c-0.3,0-0.8,0.2-1,0.1
		c-1.1-0.6-2.1-0.1-3.1,0c-0.6,0-1.1,0.1-1.7,0.1c-0.3,0-0.6-0.1-0.9-0.1c-1.1,0-2.2-0.1-3.1,0.2c-1.3,0.4-2.4,0.2-3.6-0.1
		c-0.6-0.2-1.4-0.1-2-0.1c-1,0-2.1,0-3.1,0.1c-0.3,0-0.5,0.2-0.7,0.4c-0.4,0.4-0.8,0.4-1.3,0.1c-1.1-0.6-2.3-0.8-3.5-0.3
		c-0.7,0.3-1.2,0.1-1.8-0.1c-0.6-0.2-1.3-0.3-1.8-0.1c-0.9,0.2-1.6,0.4-2.5,0C199.7,176.9,198.7,177.6,198.6,179.3z"/>
	<path class="st1" d="M116.9,130.4c1.2-2.8,2-5.5,2.5-8.3c0.1-0.5,0.2-1.1,0.1-1.6c-0.3-1.3,0.1-2.5,0.2-3.7c0-0.2,0.2-0.4,0.3-0.7
		c0.1-0.4,0.4-0.8,0.3-1.2c-0.4-1.2,0.1-2.3,0.2-3.5s0.2-2.4,0.3-3.7c0.1-1.3,0.2-2.5,0.2-3.8c0-0.3,0-0.6-0.1-0.9
		c-0.5-1.7-0.3-3.3,0.2-4.9c0-0.2,0.1-0.3,0.1-0.5c-0.2-1.2-0.4-2.4-0.6-3.6c0-0.1-0.1-0.2-0.1-0.3c0.6-1.5-0.4-2.9-0.3-4.4
		c0.1-1.3-0.5-2.6-0.8-4c0-0.1-0.1-0.2-0.1-0.3c0-1.7-0.8-3.2-1.3-4.8c-0.2-0.6-0.5-1.1-1.2-1.1c-0.6,0.1-0.9,0.6-0.9,1.2
		c0.1,1.2,0.1,2.4,0.3,3.6c0.2,1.2,0.5,2.5,0.7,3.7c0.1,0.4,0,0.8,0.1,1.2c0,0.5,0.1,1,0.2,1.5c0.1,0.7,0.1,1.4,0.2,2
		c0,0.1,0,0.1,0,0.2c0.6,1.1,0.2,2.2,0.3,3.4c0,0.3,0,0.6,0,0.9c0,0.5,0,1.1,0.1,1.6c0.5,1.5,0.7,3,0,4.5c-0.1,0.2-0.1,0.4-0.1,0.6
		c-0.2,2.7-0.5,5.4-0.7,8.1c-0.1,1,0,1.9-0.5,2.8c-0.1,0.2-0.1,0.5-0.1,0.7c0,0.8,0,1.6,0.1,2.5c0,0.6-0.2,0.7-0.8,0.7
		c-0.6,0-1.3,0-1.9,0c-0.1-2.4-1.3-4.4-2.2-6.5c-0.3-0.8-0.6-1.6-1-2.4c-0.4-0.9-0.9-1.7-1.4-2.5c-0.1-0.1-0.2-0.3-0.4-0.3
		c-1.3-0.4-1.4-1.6-1.8-2.6c-0.1-0.3-0.3-0.7-0.5-1c-0.9-1.2-2-2.4-2.7-3.8c-0.6-1.1-1.7-2-2.5-2.9c-0.5-0.5-1-1-1.5-1.6
		c-0.3-0.3-0.6-0.7-0.9-1.1c-0.6-0.6-1.2-1-2.1-0.9c-0.1,0-0.3,0-0.3,0c-1-1-2.3-0.7-3.4-0.8c-0.7-0.1-1.5,0.2-2.2,0.3
		c-0.4,0.1-0.8,0.1-1.1,0c-1.1,0-2.2-0.2-3.2-0.1c-1.2,0.1-2.5,0.4-3.7,0.6h-0.1c-1.5-0.6-3,0.1-4.5,0.1c-0.8,0-1.7-0.2-2.5-0.3
		c-1.1,0-2.2,0-3.2,0c-0.4,0-0.7-0.1-1.1,0c-1.6,0-3.1,0.1-4.7,0.1c-1.4,0-2.8-0.1-4.2-0.2h-0.1c-1.7,0.1-3.3,0.1-5,0.2
		s-3.4,0.3-5.1-0.2c-0.9-0.3-1.9-0.3-2.9-0.4s-2-0.3-2.9-0.4c-0.5,0-1,0-1.5,0.1c-0.2,0-0.3,0.2-0.4,0.2c-1.2-0.3-2.4-0.7-3.5-1.1
		c-0.3-0.1-0.5-0.5-0.8-0.6c-1.5-0.3-2.6-1.1-3.8-2c-0.3-0.2-0.4-0.5-0.6-0.7c-0.2-0.3-0.3-0.7-0.5-0.8c-1.4-0.9-1.1-2.3-1.2-3.6
		c0-0.3-0.1-0.6-0.1-0.9c0-0.8,0.1-1.6,0-2.5c0-1-0.1-2.1-0.1-3.1c0-0.4,0.2-0.9,0.4-1.3c0-0.1,0.2-0.1,0.2-0.2
		c0.4-1.3,1.5-1.7,2.8-1.9c0.5-0.1,0.9-0.5,1.3-0.7c1-0.4,1.7-1.4,3-1c0.5,0.2,1.2-0.1,1.7-0.4c0.8-0.5,1.5-0.3,2.2-0.1
		c0.6,0.1,1.2,0.1,1.7,0.2c2.4,0.2,4.8,0.6,7.2,1.1c1.2,0.3,2.6,0.2,3.8,0.4c1.1,0.1,2.1,0.4,3.2,0.6c0.1,0,0.1,0,0.2,0
		c1.6,0.1,3.2,0.1,4.7,0.3c1.1,0.1,2.2,0.1,3.2-0.2c0.1,0,0.2,0,0.3,0.1c1.7,0.8,1.8,0.8,3-0.4c0.9,1.2,2.3,0.9,3.5,0.7
		c1.9-0.2,3.8-0.5,5.6-0.7c0.3,0,0.7,0.1,1.1,0.1c0.6,0,1.3,0,1.9,0s1.2,0.2,1.8,0.2c0.6,0,1.3,0,1.8-0.2c1.1-0.4,1-0.4,1.9,0.5
		c0.8,0.8,1.9,1.3,2.9,2c0.2,0.1,0.4,0.2,0.6,0.3c1.3,1.3,2.7,1.9,4.6,1.4c2-0.5,4-0.8,6-1.3c1.1-0.3,2.1-1,2.9-1.9
		c0.8-1.1,1.5-2.2,2.4-3.2c0.6-0.8,0.7-1.6,0.6-2.5c0-0.7,0.1-1.5,0.2-2.3c1.4,0.2,2.6,0.5,3.7,0.6c1.6,0.2,3.1,0.1,4.7,0.3
		c0.9,0.1,1.8,0.6,2.7,0.9c1.4,0.4,2.9,0.7,4.3,1.1c1.3,0.4,2.7,0.6,3.9,1.2c1.1,0.6,2.2,1,3.4,1.2c0.5,0.1,0.9,0.4,1.3,0.7
		c0.5,0.3,1,0.7,1.5,1.1c0.6,0.5,1.3,0.7,2.1,0.5c0.5-0.1,0.8,0,1,0.6c0.2,0.8,0.8,1.2,1.6,1.6s1.5,1,2.3,1.6
		c0.2,0.1,0.3,0.3,0.4,0.4c2.5,1.1,4.3,3.2,6.7,4.4c0.8,0.4,1.4,1.2,2.2,1.6c1.6,1,2.7,2.6,4.6,3c0.6,0.1,1,1,1.5,1.5
		c0.7,0.7,1.4,1.4,2.1,2.1c0.4,0.4,0.7,0.8,1.1,1.2c0.7,0.7,1.4,1.5,2.1,2.2c0.5,0.5,0.5,0.8,0.3,1.6c-0.4,1.1-1.3,1.4-2,2.1
		c-1.2,1.1-2.4,2.2-3.7,3.2c-0.7,0.5-1.6,0.8-2.2,1.4c-1.1,1-2.4,1.6-3.7,2.1c-0.5,0.2-0.9,0.6-1.3,1c-0.7,0.7-1.5,1.2-2.5,1.4
		c-0.4,0.1-0.8,0.5-1,0.9c-0.4,0.7-1,1.1-1.8,1.3c-1.3,0.3-2.6,0.7-3.2,2c0,0.1-0.1,0.2-0.2,0.2c-0.9,0.2-1.8,0.4-2.7,0.6
		c0-0.1-0.1-0.2-0.1-0.3c0.7-1.2,0.5-2.6,0.6-3.9c0.1-1.4,0.5-2.8,0.6-4.1c0.1-1.3,0-2.6,0-3.9c0-1,0.2-2.1,0.3-3.1
		c0.1-1.8-0.3-3.5-0.7-5.3c-0.1-0.5,0.1-1.2-0.1-1.7c-0.5-1.9-1.1-3.9-1.7-5.8c-0.1-0.3-0.1-0.7-0.2-0.9c-0.2-0.3-0.6-0.7-1-0.7
		c-0.2,0-0.7,0.5-0.7,0.8c0,1.1,0.1,2.2,0.2,3.3c0.2,1.7,0.6,3.3,0.8,5c0.1,1-0.1,2,0,2.9c0.1,1.7,0.3,3.3,0.3,5
		c0,0.9-0.1,1.7-0.2,2.6c-0.1,1.7-0.3,3.5-0.5,5.2c-0.1,0.7-0.2,1.4-0.4,2.1c-0.6,2.6-1.1,5.1-1.7,7.7c-0.5,2.2-1.2,4.4-1.8,6.6
		c-0.2,0.7-0.6,1.3-0.9,1.9c-0.3,0.7-0.4,1.5-0.8,2.2c-0.2,0.5-0.6,1-0.9,1.5c-0.6,0.9-1.3,1.7-1.8,2.6c-0.3,0.4-0.5,0.6-1,0.4
		c-1.6-0.7-3.3-0.4-5-0.3c-0.2,0-0.5-0.1-0.7-0.1c-0.7-0.1-1.6-0.5-2.2-0.3C119.4,131.2,118.3,130.4,116.9,130.4z"/>
	<path class="st0" d="M62.8,201.7c-0.4-0.2-0.8-0.3-1.2-0.5c-0.2-0.1-0.5-0.3-0.7-0.4c-0.5-0.2-1-0.5-1.5-0.5
		c-0.8-0.1-1.2-0.4-1.8-0.9c-0.8-0.6-1.8-1-2.8-1.5c-0.5-0.2-1-0.4-1.6-0.5c-0.9-0.2-1.9-0.4-2.8-0.7c-0.3-0.1-0.6-0.3-0.9-0.5
		c-0.5-0.3-1-0.7-1.6-0.9c-1-0.4-2-0.7-3-1.1c-0.6-0.2-1.2-0.5-1.8-0.8c-2.1-0.9-4-1.9-6.3-2.4c-0.8-0.2-1.6-0.7-2.4-1.1
		c-0.7-0.3-1.4-0.4-2.1-0.6c-0.3-0.1-0.6-0.3-0.8-0.5c-0.3-0.2-0.7-0.4-1-0.5c-0.8-0.2-1.7-0.4-2.7-0.7c0.3-0.6,0.5-1.1,0.8-1.4
		c1-1,1.2-2.2,1.5-3.5c0-0.2,0.1-0.5,0.2-0.7c0.8-1.1,0.6-2.3,0.6-3.5c0-1,0-2-0.1-3c-0.3-1.8-0.7-3.5-2-4.9
		c-1.2-1.3-2.4-2.6-3.9-3.5c-0.1-0.1-0.2-0.2-0.3-0.4c0.3-0.1,0.6-0.3,0.9-0.3c0.9-0.1,1.4-0.5,1.8-1.3c0.1-0.2,0.5-0.4,0.7-0.4
		c0.9,0,1.6-0.4,2.3-1.1c0.4-0.5,1.1-0.8,1.7-1c1-0.2,1.8-0.7,2.4-1.4c0.5-0.6,1-0.9,1.7-1.2c1-0.4,1.7-1.2,2.6-1.8
		c0.2-0.1,0.3-0.3,0.5-0.4c1.4-0.4,2.6-1,3.7-1.9c0.3-0.2,0.6-0.3,1-0.5c0.3-0.1,0.6-0.1,0.8-0.3c1-1.3,2.7-1.4,4-2.2
		c0.1-0.1,0.3-0.1,0.4-0.2c0.9-1.2,2.5-1.4,3.6-2.4c0.2-0.2,0.4-0.2,0.7-0.4c0.6-0.4,1.2-0.8,1.8-1.1c0.4-0.2,0.8-0.5,1.2-0.6
		c1.3-0.1,2.1-1,2.9-1.8c0.4-0.3,0.8-0.6,1.2-0.9c0.4,0.5,0.8,0.9,1.3,1.3c0.2,0.2,0.4,0.4,0.6,0.5c1.9,0.7,2.8,2.5,4.3,3.7
		c1.3,1,1.9,2.6,3.6,3.2c0.2,0.1,0.4,0.3,0.5,0.5c0.1,0.1,0.2,0.3,0.4,0.4c1.4,1.1,2.8,2.1,4.2,3.2c0.1,0.1,0.2,0.3,0.3,0.4
		c0.4,0.4,0.8,0.8,1.2,1.2c0.2,0.3,0.4,0.6,0.6,0.9c0.1,0.2,0.1,0.5,0.2,0.7c0.3,0.6,0.1,1.1,0,1.7c-0.1,1.3,0,2.5,0.2,3.8
		c0.2,1.1,0.6,2.2,0.8,3.3c0.1,0.8-0.1,1.6,0,2.3c0.3,1.4,0.3,2.9,0.5,4.4c0.1,0.8,0.4,1.5,0.5,2.3c0.1,1-0.1,2,0.5,2.9
		c0.3,0.4-0.1,1.2-0.1,1.8c0,1,0.2,1.9,0.1,2.9c0,0.4-0.2,0.8-0.5,1c-1,1.2-2.1,2.5-3.1,3.6c-1.1,1.2-2.2,2.3-3.2,3.5
		c-0.2,0.2-0.5,0.4-0.6,0.7c-0.3,1.1-1.1,1.6-2,2.2c-1,0.8-1.8,1.8-2.7,2.8c-0.3,0.4-0.6,0.6-1.1,0.5c-0.6-0.1-1.3-0.3-2-0.2
		C64,201.2,63.4,201.5,62.8,201.7z"/>
	<path class="st1" d="M167.7,97.5c0.7,1,1.4,2,2.2,3c1.9,2.3,3.9,4.5,5.8,6.8c1,1.2,2,2.6,3,3.9c0.3,0.4,0.5,0.9,0.7,1.3
		c0.1,0.2,0.2,0.4,0.3,0.5c1.2,0.5,1.5,1.5,1.9,2.5c0.3,0.7,0.5,1.4,0.9,2.1c0.6,1.2,1.2,2.4,1.9,3.5c0.4,0.7,1.1,1.2,1.7,2
		c-0.6,1.9,1.1,3.4,1.7,5.1c0.9,2.3,2.2,4.5,2.6,7c0.1,0.3,0.2,0.7,0.3,1c-1.9,0.9-3.7,1.7-5.6,2.6c-1.1,0.6-2.2,1.2-3.4,1.8
		c-0.4,0.2-1,0.3-1.4,0.5c-1.3,0.8-2.5,1.7-3.8,2.4c-0.8,0.4-1.6,0.8-2.4,1.1c-1.4,0.5-2.8,0.9-4,1.9c-0.1,0.1-0.3,0.2-0.4,0.2
		c-2.2,1.1-4.3,2.3-6.5,3.4c-0.1,0.1-0.3,0.1-0.3,0.3c-0.6,1.3-1.8,1.3-3,1.6c-1.1,0.2-2,0.9-2.8,1.7c-0.4,0.5-1.3,0.5-1.9,0.8
		c-1.2,0.6-2.5,1-3.6,1.8c-1.3,0.9-2,1-3.4,0.4c-0.9-0.3-2-0.3-3-0.5c-0.2,0-0.4,0-0.5,0c-0.9-0.8-1.9-0.9-3.1-1.2
		c-0.8-0.2-1.4-1.1-2.1-1.7c-1-0.9-2-1.7-3-2.7c-0.4-0.4-0.7-0.9-1.1-1.3c-0.1-0.2-0.1-0.6-0.3-0.7c-0.8-0.6-1-1.5-1.2-2.3
		c-0.3-0.9-0.4-1.9-0.6-2.8c-0.4-1.9-0.5-3.8-1.2-5.7c-0.4-1.1-0.8-2.1-1.5-3c-0.2-0.2-0.2-0.6,0-0.7c0.6-0.8,1.3-1.5,1.9-2.3
		c1-1.3,1.9-2.6,2.8-3.9c0.5-0.7,0.7-1.5,1-2.3c0.1-0.3,0.3-0.7,0.5-1c0.1-0.2,0.3-0.4,0.4-0.6c0.3-1.3,0.5-2.5,0.9-3.8
		c0.4-1.7,0.9-3.3,1.4-5c0.1-0.3,0.7-0.7,1.1-0.7c1.1,0,1.9-0.7,2.7-1.3c0.3-0.2,0.8-0.5,1.2-0.5c1.3,0,2.1-0.7,2.9-1.5
		c0.7-0.7,1.4-1.2,2.4-1.2c0.4,0,0.9-0.2,1-0.4c0.6-1,1.6-1.3,2.6-1.7c0.8-0.4,1.6-1,2.3-1.4c0.8-0.5,1.6-0.9,2.4-1.5
		c0.7-0.5,1.4-1.2,2.1-1.6c1.7-1,3.2-2.2,4.5-3.6c0.2-0.2,0.4-0.3,0.5-0.5c0.3-0.4,0.4-0.9,0.7-1.2
		C166.6,97.9,167.1,97.8,167.7,97.5z M143.6,122.4c0-0.2-0.1-0.5-0.2-0.9c-0.1-0.7-0.6-1-1.2-1.1c-0.7,0-1.1,0.3-1.3,1
		c-0.1,0.5-0.2,1-0.2,1.5c0,0.9,0.6,1.9,0.1,2.9c-0.1,0.2,0,0.6,0.2,0.8c0.6,0.6,0.6,1.3,0.4,2c-0.1,0.3,0,0.6,0,0.8
		c0.2,1.9,1.2,3.6,1.2,5.5c0,0.3,0.2,0.6,0.4,0.8c0.1,0.2,0.2,0.4,0.3,0.7c0.2,0.7,0.4,1.5,0.7,2.2c0.4,0.8,1.2,1.2,1.9,0.9
		c0.8-0.2,1.3-0.9,1.2-1.9c-0.2-1.3-0.6-2.6-0.9-3.8c0-0.1-0.1-0.2-0.2-0.4c-0.2-0.4-0.4-0.9-0.6-1.3c-0.7-1.6-0.5-3.4-1.5-4.8
		c-0.1-0.2,0-0.6,0-0.9c0-0.6-0.1-1.1-0.2-1.7c0-0.3-0.2-0.5-0.1-0.8C143.4,123.6,143.5,123.1,143.6,122.4z M164,109.1
		c0.2,0.6,0.3,1.2,0.5,1.4c0.9,0.7,0.9,1.9,1.5,2.8c1,1.6,1.8,3.2,2.8,4.8c0.9,1.5,2.4,2.6,3.1,4.2c0.1,0.2,0.3,0.4,0.6,0.6
		c0.6,0.5,1.3,0.7,2.1,0.3c0.8-0.4,0.7-1.2,0.5-1.9c-0.1-0.2-0.1-0.4-0.2-0.6c-0.7-1.2-1.5-2.5-2.3-3.6c-1-1.4-2.1-2.7-3-4.1
		s-2.3-2.4-2.9-4.1c-0.2-0.6-0.9-1.2-1.7-0.9C164.5,108.2,164.3,108.7,164,109.1z M153.3,121.3c-0.1,0-0.1,0.1-0.2,0.1
		c0.1,0.3,0.2,0.6,0.2,0.9c0,1.4,1.3,2.2,1.8,3.3c0.6,1.1,1.2,2.2,1.8,3.3c0.3,0.6,0.6,1.2,0.9,1.8c0.5,0.8,1.5,0.9,2.2,0.4
		c0.8-0.5,1-1.5,0.5-2.3c-0.6-0.9-1.3-1.8-2-2.6c-0.9-1-1.4-2.1-1.6-3.5c-0.1-0.4-0.3-0.7-0.5-1.1c-0.5-0.9-1.7-1.4-1.4-2.7
		c0-0.2-0.1-0.4-0.2-0.5c-0.3-0.6-0.6-1.2-1-1.6c-0.3-0.3-0.8-0.5-1.1-0.4s-0.7,0.6-0.7,1c-0.1,0.7,0,1.4,0.1,2.1
		c0.1,0.4,0.4,0.8,0.6,1.2C152.9,120.7,153.1,121,153.3,121.3z"/>
	<path class="st0" d="M83.1,40.7c-1.1,0.1-2,0.2-3,0.3c-2.2,0.2-4.5,0.4-6.8,0.7c-0.3-0.5-0.5-1.1-0.2-1.9c0.3-0.9,0.3-1.8,0.4-2.7
		c0-0.8-0.2-1.6-0.3-2.4c0-0.2,0-0.5,0.1-0.5c0.7-0.4,0.8-1.2,0.9-1.9c0.1-0.9-0.4-1.4-1.3-1.2c-1,0.3-1.5,1.3-1.5,2.3
		c0,0.7-0.5,1.4-0.7,2.2c-0.2,0.6-0.5,1.2-0.6,1.7S70,38.2,70,38.7s0,1.1,0.1,1.6c0.2,0.8,0.4,1.5,0.6,2.2c-2.6,0.6-4.9,1.1-7.4,1.7
		c-0.2-1.2-1.4-2.1-1.2-3.4c0-0.1-0.1-0.3,0-0.4c0.9-1.3,0.5-2.8,0.4-4.2c0-0.2,0.1-0.4,0.2-0.5c0.1-0.2,0.3-0.5,0.3-0.7
		c0.1-1,0.1-1.9,0.4-2.9c0.2-1,0.8-1.9,1-2.9c0.3-1.3,1.2-2.3,1.6-3.6c0-0.1,0.1-0.2,0.1-0.3c1.1-1,2.2-2.2,3.4-3.1
		c0.9-0.7,2-1,2.7-1.9c0.1-0.1,0.3-0.1,0.4-0.1c1.6,0.2,2.9-0.7,4.2-1.3c1-0.5,2.1-0.7,3.3-0.7c0.5,0,1-0.1,1.5-0.2
		c0.6-0.1,1.3-0.2,1.9-0.3c1.4-0.3,2.8-0.8,4.2-1c1.4-0.2,2.8-0.3,4.2-0.2c0.9,0,1.8,0.5,2.6,0.7c0.9,0.2,1.8,0.4,2.7,0.6
		c1.6,0.4,3.2,0.7,4.8,1.1c0.2,0,0.3,0.1,0.5,0.1c0.8,0.2,1.5,0.5,2.3,0.7c0.2,0.1,0.5,0,0.6,0.1c0.5,0.4,1,1,1.6,1.3
		c1,0.6,2.1,1.1,3.1,1.6c0.4,0.2,0.8,0.4,1.1,0.7c1.2,1.2,2.4,2.4,3.6,3.6c0.3,0.3,0.5,0.8,0.7,1.2c0.1,0.2,0.2,0.6,0.4,0.7
		c1,0.7,1.5,1.8,2.1,2.9c0.2,0.3,0.3,0.8,0.3,1.2c0.1,1.1,0.4,2.2,0.2,3.3c-0.2,1,0.4,2.1-0.2,3.1c-0.2,0.2-0.2,0.6-0.2,0.9
		c0.1,1.3-0.3,2.3-0.9,3.4c-0.8,1.3-1.5,2.7-2.2,4.1c-0.2,0.3-0.5,0.6-0.8,0.9c-0.5-0.9-1.1-1.4-2.1-1.2c-0.1,0-0.3-0.3-0.4-0.4
		c-0.5-0.3-1-0.7-1.6-1c-0.3-0.1-0.6-0.3-0.9-0.3c-0.6,0-1.2-0.1-1.8,0c-0.7,0.2-1.2,0.2-1.3-0.6c0-0.1-0.1-0.3-0.2-0.4
		c-0.9-1.7-1.9-3.3-2.7-5c-1-1.9-1.8-3.9-2.7-5.8c-0.4-0.9-1-1.8-2.1-2.1c-0.6-0.2-1.1-0.1-1.4,0.4c-0.9,1.6-1.9,3.2-2,5.2
		c-0.1,1.1-0.7,2.1-1.2,3.1c-0.1,0.1-0.4,0.2-0.6,0.1c-1.3-0.7-2.6-0.1-3.9-0.1s-2.6,0-4,0c0.6-1.7,0.1-3.3,0-5
		c0-0.7,0.4-1.5,0.5-2.3c0.1-0.6,0.2-1.2,0.1-1.8c-0.1-0.4-0.4-0.9-0.8-1.1c-0.5-0.3-1,0-1.4,0.4c-0.8,0.9-1.1,2-1,3.1
		s-0.2,2.1-0.3,3.2C82.6,38.2,82.3,39.4,83.1,40.7z"/>
	<path class="st0" d="M108.3,63.5c-0.1,0.9-0.1,1.8-0.2,2.7c0,0.3,0,0.7-0.1,1c-0.5,1.3-1.1,2.6-1.6,3.8c0,0.1-0.1,0.2-0.2,0.3
		c-1.4,1.1-2.6,2.3-4.1,3.1c-0.7,0.4-1.9,0.2-2.9,0.1s-2-0.7-3-0.8c-1.2,0-1.6-0.9-2.4-1.5c-0.2-0.2-0.3-0.5-0.5-0.6
		c-1.3-0.8-1.3-2.2-1.5-3.4c-0.2-0.7-0.7-1.5-1.2-2s-1.2-1.1-2.1-0.7c-0.3,0.1-0.7,0-1.1-0.2c-0.8-0.4-1.6-0.3-2.4-0.1
		c-1.5,0.4-3.1,0.8-4.7,0.5c-1-0.2-2-0.5-3-0.2c-0.1,0-0.3-0.1-0.5-0.2c-0.3-0.1-0.7-0.3-1-0.3c-1.8,0.4-3.2-0.8-4.7-1.2
		c-0.5-0.1-0.8-1-1.1-1.5c-0.1-0.1-0.1-0.3-0.2-0.5c-1-1.1-1.5-2.3-1.8-3.7c-0.3-1.1-0.6-2.3-0.8-3.4c-0.1-0.5-0.2-1.1-0.3-1.6
		c-0.3-2-0.6-3.9-0.8-5.9c-0.1-1.1,0.4-1.6,1.5-1.6c0.8,0,1.5-0.3,2.3-0.4c0.6-0.1,1.2-0.3,1.9-0.4c3-0.4,6-0.8,9-1.2
		c1-0.1,2.1-0.2,3.1-0.2s2.1,0.1,3.1,0c1,0,2-0.2,3-0.2c1.3,0.1,2.6,0.4,4,0c0.4-0.1,0.9,0,1.3,0.2c0.9,0.3,1.8-0.1,2.1-1
		c0.3-1.3,0.5-2.7,0.8-4.1c0.2-0.8,0.6-1.6,1-2.5c0.3,0.5,0.7,1,0.8,1.5c0.3,1.9,1.2,3.6,1.9,5.3c0.4,1.1,0.8,2.3,1.4,3.3
		c0.5,0.9,1.1,1.7,1.7,2.5c0.4,0.5,2.1,0.6,2.5,0.1c0.7-0.9,1.5-0.4,2.2-0.3c0.5,0,1.1,0.3,1.6,0.4c0.2,0.4,0.5,0.7,0.6,1.2
		c0.2,0.6,0.3,1.3,0.2,1.8c-0.2,1.3-0.5,2.6-1.4,3.5c-0.7,0.7-1.4,1.5-2.3,2c-1.5,0.9-1.8,1.9-1,3.4c0.3,0.6,0.4,1.3,0.6,1.9
		C108,63,108.1,63.2,108.3,63.5z M79.8,61.4c0,0.1,0.1,0.2,0.1,0.3c0.7-0.4,1.4-0.8,2.1-1.2c0.2-0.1,0.3-0.2,0.5-0.2
		c0.9,0,1.5-0.5,1.9-1.3c0.3-0.5,0.7-0.9,1.1-1.2c0.6-0.6,0.9-1.6,0.6-2.4c-0.2-0.6-0.7-1-1.3-1c-0.8,0-1.7,0.6-2,1.4
		c0,0.1,0,0.2-0.1,0.2c-0.6,0.7-1.3,1.4-1.9,2c-0.1,0.1-0.2,0-0.3,0c-1.3,0.3-2.5,0.1-3.7-0.5c-0.6-0.3-1.3-0.3-1.7,0.3
		c-0.5,0.6-0.4,1.3,0.2,1.8c0.7,0.6,1.5,1.1,2.2,1.6c0.2,0.1,0.4,0.1,0.6,0.1C78.7,61.5,79.3,61.5,79.8,61.4z M92.1,50.1
		c-1,0.3-2,0.5-2.9,1c-0.4,0.2-0.5,0.9-0.6,1.5c-0.5,1.5,0.2,3.2,1.7,3.8c0.7,0.3,1.5,0.6,2.2,0s1.3-1.2,1.9-1.9
		c0.7-0.8,0.4-1.8,0.1-2.6C94,50.9,93.4,50.1,92.1,50.1z M73.8,52.5c0.2,0.3,0.2,0.7,0.5,0.9c0.8,0.6,1.6,1.2,2.4,1.7
		c0.6,0.3,1.8-0.2,2-0.8s-0.3-1.4-1.1-1.6c-0.2-0.1-0.4-0.1-0.5-0.2c-0.4-0.3-0.5-0.6-0.2-1c0.2-0.2,0.3-0.4,0.5-0.5
		c0.6-0.4,0.6-1.1,0.2-1.4c-0.4-0.3-1.3-0.6-1.6-0.3C74.9,49.8,74.3,51.1,73.8,52.5z M68.7,55.4c0,1.3,1.2,2.5,2.5,2.4
		c1,0,2.2-1.3,2.2-2.4c0-1-1.4-2.4-2.3-2.4C69.7,53,68.7,54,68.7,55.4z M83.7,48.7c0,1,0.8,1.9,1.9,1.9c1.6,0,2.4-0.5,2.5-1.9
		c0.1-0.9-1-2.1-1.8-2.1C84.8,46.6,83.7,47.4,83.7,48.7z M72.8,49c0.1-1.1-0.8-2-1.8-2c-1.1,0-2.2,0.9-2.3,1.9c-0.1,1,0.9,2.1,2,2.2
		C71.8,51.2,72.7,50.3,72.8,49z"/>
	<path class="st0" d="M156,158c1.1-0.8,1.7-1.7,3.1-1.8c1.5-0.1,2.6-1,3.5-2.3c0.1-0.2,0.4-0.5,0.7-0.5c1.7,0.1,2.9-0.9,4.3-1.5
		c0.2-0.1,0.4-0.2,0.5-0.3c0.6,0.9,1.1,1.9,1.9,2.5c1.5,1.1,2,2.9,3.2,4.1c0.4,0.4,0.8,0.9,1.2,1.4c0.9,1,2,1.8,2.7,3
		s1.6,1.9,2.6,2.6c0.1,0,0.1,0.1,0.1,0.2c0.4,1.9,2,3.1,3.1,4.4c0.8,0.9,1.5,1.8,2.1,2.8c-0.8,1.5-2.1,2.4-3.7,3
		c-0.2,0.1-0.6,0.1-0.8,0c-1.1-0.8-2-1.8-3.1-2.6c-0.9-0.7-1.9-1.1-2.8-1.7c-0.6-0.4-1.2-0.8-1.7-1.2c-1-0.6-1.8-1.5-2.7-2.2
		c-1.9-1.5-4-2.8-6-4.2c-0.2-0.1-0.4-0.3-0.6-0.4c-0.8-0.4-1.6-0.7-2.4-1.1c-0.2-0.1-0.4-0.3-0.5-0.4c-0.7-1.4-2.1-1.8-3.2-2.6
		C157.1,158.6,156.6,158.4,156,158z"/>
	<path class="st1" d="M4.8,178.2c0.9-0.5,1.6-1,2.3-1.4c0.4-0.2,0.7-0.5,1.1-0.7c0.4-0.2,0.7-0.5,1.1-0.6c1.1-0.3,1.9-0.9,2.7-1.8
		c0.2-0.2,0.6-0.3,0.9-0.4c0.2-0.1,0.5,0,0.7,0c1.1-0.6,2.3-1.2,3.4-1.9c0.9-0.5,1.7-1.2,2.5-1.7c0.9-0.5,1.9-1,3-1.5
		c0.3,0.3,0.7,0.7,1.1,1.1c0.8,0.9,1.5,1.7,2.2,2.6c0.3,0.4,0.5,0.9,0.7,1.3c0.3,0.5,0.5,1,0.8,1.6c0.2,0.4,0.2,0.8,0.3,1.2
		c0.2,1,0.5,2,0.1,3c-0.5,1.5-0.4,3.2-1.4,4.6c-0.2,0.3-0.3,0.7-0.4,1.1c-0.4,1.5-1.4,1.9-2.6,1.1c-1.8-1.1-3.7-1.8-5.9-1.5
		c-0.3,0-0.7-0.2-0.8-0.5c-0.6-0.9-1.3-1.6-2.5-1.7c-0.4,0-0.9-0.2-1.2-0.4c-0.9-0.9-2.1-1-3.2-1.3c-1.4-0.4-2.8-0.9-4.1-1.4
		C5.3,178.8,5.2,178.6,4.8,178.2z"/>
	<path class="st0" d="M115.7,10.5c0.1,1.2-0.2,2-0.5,3c-0.4,1.1-1,1.6-1.9,2.4c-1.3,1.1-2.8,1.3-4.3,1.7c-0.3,0.1-0.7-0.2-1.1-0.2
		c-1.3,0.1-2.1-0.7-3-1.2c-0.1-0.1-0.3-0.2-0.4-0.1c-1.3,0.3-2.2-0.8-3.4-1.1c-0.1,0-0.3-0.1-0.3-0.2c-0.7-0.8-1.4-1.6-2.1-2.4
		c-0.1-0.2-0.3-0.4-0.3-0.6c0-1,0.2-1.9,0.2-2.9c0-0.7,0.2-1.2,0.5-1.8c0.6-0.9,0.9-1.9,2.1-2.3c0.2,0,0.3-0.3,0.4-0.4
		c0.2-0.8,0.8-0.7,1.4-0.9c1.1-0.3,2.3-0.2,3.4-0.3c0.5-0.1,1.1-0.4,1.6-0.3c1.2,0.2,2.5,0.5,3.6,1c1.5,0.7,2.8,1.6,3.4,3.3
		C115.4,8.3,115.9,9.3,115.7,10.5z"/>
	<path class="st0" d="M125,151.2c-0.3,0.3-0.7,0.6-1.1,1c-0.2-0.4-0.3-0.7-0.5-1c-0.3-0.6-0.6-1.2-1-1.8c-0.3-0.5-0.5-1-0.8-1.5
		c-0.9-1.5-1.8-3-2.7-4.5c-0.2-0.4-0.7-0.6-1-0.8c-0.1,0-0.2-0.1-0.2-0.1c-0.4-0.6-0.9-1.3-1.3-1.9c-0.4-0.7-1.1-1-1.9-1
		c-1.5,0-2.9,0-4.4,0c0.5-0.4,1-0.9,1.5-1.4c0.7-0.8,1.3-1.7,2-2.6c0.5-0.6,1-1.2,1.5-1.7c0.2-0.2,0.6-0.1,0.9-0.1
		c0.9,0,1.8,0.1,2.6,0.2c0.5,0,1,0,1.4,0.2c1,0.4,1.9,0.3,2.9,0.2c1.3-0.1,2.8-0.1,4,0.5c0.9,0.5,1.7,1.6,2,2.7
		c0.1,0.4,0.4,0.8,0.7,1.1c0.1,0.1,0.2,0.3,0.2,0.4c0.3,1.4,0.7,2.8,0.9,4.3c0.2,1,0.2,2.1,0.3,3.2c0,0.2-0.3,0.5-0.4,0.7
		c-0.1,0-0.2-0.1-0.2-0.1c-0.4-1.1-0.8-2.2-1.3-3.3c-0.2-0.5-0.6-1-0.9-1.4c-0.4-0.5-1-0.6-1.6-0.2c-0.6,0.4-0.7,1.1-0.3,1.7
		c0.7,1.5,1.4,3,2.2,4.5c0.4,0.7-0.3,0.9-0.5,1.4c-0.2-0.1-0.4-0.2-0.5-0.4c-0.6-1.3-1.1-2.7-1.8-3.9c-0.3-0.6-1.1-1-1.8-1.3
		c-0.6-0.3-1.2,0.3-1.1,1c0.1,0.8,0.1,1.6,0.8,2.3c0.4,0.4,0.5,1.1,0.7,1.7C124.4,149.9,124.7,150.5,125,151.2z"/>
	<path class="st0" d="M187.4,172.9c0.9,0.7,1.7,1.2,2.2,2.2c0.4,0.9,1.1,1.7,1.9,1.8c0.4,0.9,0.7,1.7,0.9,2.4c0.1,0.2,0.1,0.4,0,0.5
		c-0.4,0.6-0.8,1.1-1.2,1.7c-0.2,0.3-0.5,0.6-0.5,0.9c0,1-0.7,1.4-1.4,1.9c-0.2,0.1-0.4,0.3-0.6,0.5c-1.1,1-2.1,1.9-3.1,2.9
		c-0.5,0.4-0.9,0.9-1.2,1.5s-0.8,0.9-1.3,1.3c-0.7,0.6-1.3,1.5-2,2.2c-1.1,1.1-2.3,2.2-3.6,3.5c-0.3-1.2,0-2.1,0.5-2.9
		c0.1-0.2,0.3-0.5,0.4-0.7c0.2-1,0.4-2,0.6-3c0.1-0.6,0.2-1.3,0.4-1.9c0.5-1.7,0.4-3.5,0.5-5.3c0-0.1,0-0.2,0-0.3
		c0.3-1.1,0.6-2.2,0.9-3.2c0.1-0.2,0.5-0.5,0.8-0.5C184.7,178.4,187,176.3,187.4,172.9z"/>
	<path class="st0" d="M22.5,88.4c-0.4-0.1-0.7-0.3-1.3-0.5c0.6-0.6,1.1-1,1.6-1.5c0.4-0.4,0.7-0.8,1.1-1.2c0.2-0.2,0.3-0.4,0.5-0.5
		c0.9-0.7,1.4-1.5,1.6-2.6c0.1-0.4,0-0.7-0.5-0.9c-0.4-0.1-0.7-0.3-1-0.6C23.7,80,23,79.2,22,78.9c-0.6-0.2-1.7,0.3-2.2,0.8
		c-0.9,0.9-1.6,2.1-2.4,3.2c-0.3,0.5,0,1.2,0.6,1.5c0.7,0.3,1.3,0.7,2,1c-0.2,0.7-0.6,0.9-1.1,0.7c-1-0.4-2.1-0.5-2.9-1.4
		c-0.3-0.3-0.8-0.4-1.4-0.7c0.4-0.5,0.8-0.9,1.1-1.4c0.6-1,1.3-2,1.8-3.1c0.4-1.1-0.1-1.5-1.2-1.5c-0.7,0-1.4-0.3-2.1-0.5
		c-1.7-0.3-3.4-0.6-5.2-1c0.1-0.3,0.2-0.8,0.3-1c0.8-0.1,1.5-0.1,2.2-0.2c0.2,0,0.4,0,0.6,0.1c0.7,0.1,1.3,0.4,2,0.4
		c1.5,0.1,3,0.1,4.5,0.1c0.1,0,0.1,0,0.2,0c1.3-0.6,2.5,0,3.8,0.2c1.1,0.2,2.5,0.5,3.5,0.1c1.4-0.5,2.6,0.3,3.8,0.1
		c0.3,0,1.1,0.7,1,1c-0.3,1.5,0.3,2.9,0.3,4.3c0,1,0,2-0.1,2.9c0,0.4-0.3,0.8-0.6,1c-0.7,0.5-1.5,0.9-2.3,1.4c-0.1,0.1-0.4,0-0.5,0
		C26,85.5,23.9,86.4,22.5,88.4z"/>
	<path class="st1" d="M103.9,139.8c0.7-1,1.5-2,2.2-3.1c0.6-1,1.4-1.9,1.7-3c0.2-0.9,0.6-1.6,1.2-2.2c0.5-0.5,0.7-1.3,1.1-2
		c0.9-1.7,1.8-3.4,2.6-5.1c0.3-0.6,0.4-1.3,0.4-2c0.1-0.6,0.3-0.7,0.9-0.7c0.6,0.1,1.3,0,2.1,0c0.2,1.3,0.4,2.7,0,4.1
		c0,0.1,0,0.3-0.1,0.3c-1.2,0.7-1,2.1-1.6,3.2c-0.6,1.1-1.3,2.2-2,3.3c-1,1.3-2,2.6-3.1,3.9c-0.7,0.8-1.7,1.4-2.2,2.3
		c-0.5,0.8-1.2,1.1-1.9,1.5C104.7,140.5,104.3,140.5,103.9,139.8z"/>
	<path class="st0" d="M21.2,82c0.2-0.2,0.3-0.4,0.5-0.6c1.4,0.6,1.5,0.9,0.8,1.7C22.1,82.8,21.7,82.4,21.2,82z"/>
	<path d="M107.8,182.5c-1.4,1-3.1,0.8-4.8,0.8c-1,0-1.9,0-2.9,0c-0.7,0-1.4,0.1-2.1,0.2c-1.5,0.2-3,0.4-4.5,0.5
		c-1.3,0.1-2.5,0.1-3.8,0.2c-0.3,0-0.6,0.3-0.8,0.3c-0.6,0-1.2,0-1.6-0.3c-0.3-0.2-0.5-1-0.3-1.3c0.2-0.4,0.8-0.9,1.3-1
		c1.8-0.4,3.6-0.7,5.5-0.8c1.4-0.1,2.8-0.1,4.2-0.2c0.7,0,1.3-0.1,2-0.2c1-0.1,2-0.3,2.9-0.5c1.2-0.2,2.4-0.3,3.7-0.3
		c0.4,0,0.8,0.2,1.2,0.4c1.8-1.2,3.9-0.9,5.9-0.6c0.2,0,0.5,0,0.6-0.1c0.6-0.4,1.2-0.3,1.8,0c0.3,0.1,0.7,0,1.1,0
		c0.5,0,1.1-0.1,1.6-0.2c0.2,0,0.4,0.1,0.6,0c2.3-0.5,4.6-0.8,7-0.7c1.1,0.1,2.3-0.2,3.5-0.2c0.7,0,1.5-0.1,2.2,0
		c1.5,0.2,2.9-0.5,4.5,0c0.8,0.3,1.8-0.2,2.7-0.2c1.6,0,3.1,0,4.7,0c1.1,0,2.3-0.1,3.4,0.1c1,0.2,2.1-0.4,2.9-0.1
		c1.8,0.6,3.6-0.4,5.3,0.1c1.1,0.3,2.3,0.2,3.4-0.1c1.3-0.3,2.7,0,4,0c1.4,0,2.7,0,4.1,0.2c1.2,0.2,2.4-0.2,3.6-0.2
		c1.1,0,2.3,0,3.4,0.1c1.1,0,2,0.8,2,1.7s-0.9,1.7-2.1,1.7c-1.9,0-3.8,0.1-5.8,0c-2.2,0-4.3-0.2-6.5-0.2c-1.4,0-2.8,0-4.1-0.3
		c-0.8-0.2-1.7,0.3-2.6,0.3c-1,0-2.2-0.4-3.1-0.1c-1.1,0.3-2,0.4-3.1,0.1c-0.7-0.2-1.5,0-2.3,0c-1.5,0.1-3,0.3-4.5,0.3
		c-1.7,0-3.4-0.1-5.2-0.2c-0.2,0-0.4,0.1-0.6,0.1c-0.7,0.1-1.4,0.1-2.1,0.1c-1.1,0-2.2,0.1-3.3,0.1c-0.7,0-1.3-0.1-2-0.1
		c-1.6,0.1-3.1,0.3-4.7,0.3c-1.3,0-2.6-0.1-3.9-0.1c-0.6,0-1.3,0.2-1.9,0.1c-1.1-0.3-2-0.3-3,0.2c-0.2,0.1-0.5-0.1-0.8-0.2
		c-0.2,0-0.4-0.1-0.6,0c-1.4,0.2-2.9,0.5-4.3,0.7C108.9,183,108.3,182.7,107.8,182.5z"/>
	<path d="M85.7,160.2c0.5-0.1,0.9-0.3,1.4-0.4c0.9-0.2,1.8-0.3,2.8-0.4c0.8-0.1,1.7-0.2,2.5-0.3c0.4,0,0.8,0,1.2,0
		c0.9,0,1.9,0.1,2.8-0.2c1.4-0.4,2.7-0.6,4.1-0.4c0.6,0.1,1.2,0,1.7-0.1c1.3-0.2,2.7,0.3,4-0.4c0.3-0.1,0.7-0.1,1,0
		c0.9,0.4,1.7,0,2.6-0.1c1-0.2,2-0.1,3.1-0.1c0.3,0,0.7,0,1,0c0.4,0,0.7-0.3,1.1-0.2c1.8,0.4,3.5-0.4,5.2-0.1
		c0.7,0.1,1.5-0.2,2.2-0.2c0.4,0,0.8,0.1,1.2,0.2c0.2,0,0.4,0.1,0.6,0.1c2-0.7,4-0.5,6-0.4c0.9,0.1,1.7-0.1,2.6,0
		c1.3,0.3,2.5-0.1,3.8-0.1c0.9,0,1.8,0.1,2.7,0.3c0.7,0.1,1.2,0.8,1.1,1.5c-0.1,0.9-0.8,1.4-1.6,1.3c-0.3,0-0.5,0-0.8,0.1
		c-1,0.2-1.9,0.3-2.8-0.3c-0.1-0.1-0.3-0.2-0.5-0.1c-1,0.2-2.1,0.5-3.1,0.5c-1.6,0.1-3.3,0.2-4.9,0.2c-0.8,0-1.6-0.2-2.4-0.3
		c-0.1,0-0.1,0-0.2,0c-1.7,1-3.5,0.2-5.3,0.5c-1.3,0.2-2.6,0-3.9,0c-1.1,0-2.2,0.2-3.2,0.2c-1,0.1-2.1-0.3-3.1-0.1
		c-1.2,0.2-2.4,0.3-3.7,0.2c-1.3-0.1-2.6,0.2-3.9,0.3c-0.6,0.1-1.2,0.3-1.9,0.3c-0.9,0-1.9-0.2-2.8-0.1c-0.9,0-1.8,0.3-2.7,0.4
		c-0.3,0-0.5,0.1-0.8,0.1c-1.6,0.2-3.2,0.5-4.8,0.5c-1.1,0-2.2,0.3-3.3,0.4c-0.8,0.1-1.2-0.4-1-1.2c0-0.2,0.1-0.3,0.1-0.5
		C84.3,160.1,84.4,160,85.7,160.2z"/>
	<path d="M198.6,179.3c0.1-1.7,1.2-2.4,2.8-1.7c0.9,0.4,1.6,0.3,2.5,0c0.6-0.1,1.3,0,1.8,0.1c0.6,0.2,1.1,0.4,1.8,0.1
		c1.2-0.5,2.4-0.3,3.5,0.3c0.6,0.3,0.9,0.3,1.3-0.1c0.2-0.2,0.5-0.4,0.7-0.4c1-0.1,2.1-0.1,3.1-0.1c0.7,0,1.4-0.1,2,0.1
		c1.2,0.3,2.4,0.5,3.6,0.1c1-0.3,2.1-0.2,3.1-0.2c0.3,0,0.6,0.1,0.9,0.1c0.6,0,1.1-0.1,1.7-0.1c1-0.1,2.1-0.6,3.1,0
		c0.2,0.1,0.7,0,1-0.1c0.7-0.1,1.3-0.3,2-0.3c0.7-0.1,1.5-0.2,2,0c1.3,0.7,2.6-0.5,3.8,0.3c0.1,0.1,0.4-0.1,0.5-0.2
		c0.3-0.1,0.8-0.3,1-0.2c0.9,0.5,1.9,0.6,2.9,0.3c0.3-0.1,0.7-0.1,1-0.1c0.6,0,1.2-0.1,1.7-0.1c1.2,0.2,2.4,0.2,3.6,0
		c1.1-0.2,2.2,0,3.3,0.3s1.3,1.7,0.4,2.5c-1.2,1-2.5,1-4,0.7c-0.9-0.1-1.9-0.1-2.8-0.1c-0.9,0-1.8-0.1-2.6-0.2
		c-0.8-0.1-1.5-0.3-2.3-0.4c-0.1,0-0.3,0.1-0.4,0.2c-0.7,0.5-1.4,0.6-2.1,0.2h-0.1c-1.2,0-2.4,0-3.5,0.1c-0.4,0-0.7,0.1-1.1,0.2
		c-0.6,0-1.2,0.1-1.8,0.1s-1.1-0.2-1.7-0.3c-0.4,0-0.8,0-1.2,0c-0.2,0-0.4,0.2-0.6,0.2c-1.4,0.1-2.7,0.1-4.1,0.1
		c-1,0.1-2.1,0.2-3.1,0.3c-0.7,0-1.4-0.2-2.1-0.2c-0.3,0-0.6-0.1-0.9,0c-0.8,0.1-1.6,0.2-2.4,0.3c-0.3,0-0.5,0-0.8,0
		c-0.5,0-0.9,0-1.4-0.1c-0.2,0-0.5-0.2-0.7-0.1c-0.9,0.3-1.6,0.1-2.3-0.5c-0.1-0.1-0.6-0.1-0.8,0c-1.3,0.6-2.6,0.8-4,0.3
		c-0.3-0.1-0.9-0.2-1.2,0c-0.9,0.5-1.8,0.5-2.7,0c-0.6-0.3-1.1-0.2-1.7,0.1c-0.5,0.2-1.2,0.3-1.7,0.2
		C198.6,180.7,198.5,180.6,198.6,179.3z"/>
	<path d="M143.6,122.4c-0.1,0.6-0.2,1.1-0.2,1.6c0,0.3,0.1,0.5,0.1,0.8c0.1,0.6,0.1,1.1,0.2,1.7c0,0.3-0.1,0.7,0,0.9
		c1,1.5,0.8,3.3,1.5,4.8c0.2,0.4,0.4,0.9,0.6,1.3c0.1,0.1,0.2,0.2,0.2,0.4c0.3,1.3,0.7,2.5,0.9,3.8c0.2,0.9-0.3,1.7-1.2,1.9
		c-0.8,0.2-1.6-0.1-1.9-0.9c-0.3-0.7-0.4-1.5-0.7-2.2c-0.1-0.2-0.2-0.5-0.3-0.7c-0.1-0.3-0.4-0.6-0.4-0.8c0-1.9-0.9-3.6-1.2-5.5
		c0-0.3-0.1-0.6,0-0.8c0.2-0.7,0.2-1.4-0.4-2c-0.2-0.2-0.3-0.6-0.2-0.8c0.4-1-0.1-1.9-0.1-2.9c0-0.5,0-1,0.2-1.5
		c0.2-0.6,0.6-1,1.3-1s1.1,0.4,1.2,1.1C143.5,121.9,143.6,122.2,143.6,122.4z"/>
	<path d="M164,109.1c0.3-0.4,0.5-0.9,0.9-1.1c0.8-0.3,1.5,0.3,1.7,0.9c0.5,1.7,2,2.7,2.9,4.1s2.1,2.7,3,4.1c0.8,1.2,1.5,2.4,2.3,3.6
		c0.1,0.2,0.2,0.4,0.2,0.6c0.2,0.7,0.3,1.4-0.5,1.9c-0.7,0.4-1.5,0.2-2.1-0.3c-0.2-0.2-0.4-0.4-0.6-0.6c-0.7-1.6-2.2-2.7-3.1-4.2
		c-0.9-1.6-1.8-3.3-2.8-4.8c-0.6-0.9-0.6-2-1.5-2.8C164.3,110.3,164.3,109.7,164,109.1z"/>
	<path d="M153.3,121.3c-0.2-0.3-0.4-0.5-0.5-0.8c-0.2-0.4-0.5-0.7-0.6-1.2c-0.1-0.7-0.2-1.4-0.1-2.1c0-0.4,0.4-0.9,0.7-1
		s0.9,0.2,1.1,0.4c0.4,0.5,0.7,1.1,1,1.6c0.1,0.2,0.3,0.4,0.2,0.5c-0.3,1.3,0.9,1.8,1.4,2.7c0.2,0.3,0.4,0.7,0.5,1.1
		c0.2,1.3,0.8,2.4,1.6,3.5c0.7,0.8,1.4,1.7,2,2.6c0.5,0.8,0.3,1.8-0.5,2.3c-0.7,0.5-1.7,0.3-2.2-0.4c-0.4-0.5-0.6-1.2-0.9-1.8
		c-0.6-1.1-1.3-2.2-1.8-3.3c-0.6-1.1-1.8-1.9-1.8-3.3c0-0.3-0.1-0.6-0.2-0.9C153.2,121.3,153.2,121.3,153.3,121.3z"/>
	<path d="M79.8,61.4c-0.6,0-1.2,0.1-1.7,0.1c-0.2,0-0.4,0-0.6-0.1c-0.8-0.5-1.6-1-2.2-1.6c-0.6-0.5-0.6-1.2-0.2-1.8
		c0.5-0.6,1.1-0.6,1.7-0.3c1.2,0.6,2.4,0.8,3.7,0.5c0.1,0,0.3,0,0.3,0c0.6-0.7,1.3-1.4,1.9-2c0.1-0.1,0-0.2,0.1-0.2
		c0.4-0.8,1.2-1.4,2-1.4c0.7,0,1.1,0.4,1.3,1c0.3,0.7,0,1.8-0.6,2.4c-0.4,0.4-0.8,0.8-1.1,1.2c-0.5,0.7-1,1.2-1.9,1.3
		c-0.2,0-0.3,0.2-0.5,0.2c-0.7,0.4-1.4,0.8-2.1,1.2C79.9,61.6,79.9,61.5,79.8,61.4z"/>
	<path class="st1" d="M92.1,50.1c1.3,0,1.9,0.8,2.3,1.7c0.4,0.8,0.6,1.8-0.1,2.6c-0.6,0.7-1.2,1.4-1.9,1.9c-0.7,0.6-1.5,0.3-2.2,0
		c-1.4-0.6-2.1-2.3-1.7-3.8c0.2-0.5,0.3-1.3,0.6-1.5C90.1,50.7,91.1,50.4,92.1,50.1z"/>
	<path d="M73.8,52.5c0.5-1.4,1-2.6,2.2-3.4c0.4-0.2,1.3,0,1.6,0.3c0.4,0.3,0.3,1-0.2,1.4c-0.2,0.1-0.4,0.4-0.5,0.5
		c-0.3,0.4-0.2,0.7,0.2,1c0.1,0.1,0.4,0.1,0.5,0.2c0.8,0.3,1.3,1,1.1,1.6c-0.2,0.6-1.4,1.2-2,0.8c-0.9-0.5-1.7-1.1-2.4-1.7
		C74.1,53.2,74,52.8,73.8,52.5z"/>
	<path class="st1" d="M68.7,55.4c0-1.4,1-2.4,2.4-2.4c0.9,0,2.2,1.4,2.3,2.4c0,1.1-1.1,2.4-2.2,2.4C69.9,57.8,68.8,56.7,68.7,55.4z"
		/>
	<path d="M83.7,48.7c0-1.3,1.1-2.2,2.6-2.2c0.8,0,1.9,1.2,1.8,2.1c-0.1,1.3-0.9,1.9-2.5,1.9C84.5,50.6,83.7,49.7,83.7,48.7z"/>
	<path d="M72.8,49c-0.1,1.3-1,2.2-2.1,2.1c-1.1-0.1-2.1-1.2-2-2.2s1.2-2,2.3-1.9C72.1,47,72.9,47.9,72.8,49z"/>
</g>
</svg>
