<?xml version="1.0" encoding="utf-8"?>
<!-- Generator: Adobe Illustrator 25.0.0, SVG Export Plug-In . SVG Version: 6.00 Build 0)  -->
<svg version="1.1" id="_xEFF5__xEED3__x5F_4" xmlns="http://www.w3.org/2000/svg" xmlns:xlink="http://www.w3.org/1999/xlink"
	 x="0px" y="0px" viewBox="0 0 142.1 110.2" style="enable-background:new 0 0 142.1 110.2;" xml:space="preserve">
<style type="text/css">
	.st0{fill:#FCD13E;}
	.st1{fill:#FFFFFF;}
</style>
<g>
	<path d="M26.6,36.6c-1-0.1-2.1,0-2.9-0.4c-1.3-0.6-2.8-0.9-3.4-2.5c-0.1-0.3-0.4-0.6-0.7-0.6c-1.5-0.1-2.4-1-3.5-1.8
		c-0.9-0.7-0.8-1.7,0-2.3c0.4-0.3,0.8-0.6,1.2-0.7c1.6-0.4,2.2-2.1,3.6-2.8c0.1-0.1,0.2-0.3,0.3-0.5c0.6-1.1,1.5-1.6,2.8-1.4
		c0.3,0,0.7-0.1,1-0.1c-0.3-1.9-0.4-3.7,0.2-5.5c0.2-0.6,0.2-1.3,0.1-1.9c-0.2-1.7,0.5-3.3,1.1-4.7c0.9-2.1,2.1-4.1,3.5-5.9
		c0.8-1,1.7-2.3,3.4-2.5c1.1-0.2,2-1,3-1.6c1.6-0.9,3.3-1.7,5.1-1.3c1.4,0.2,3-0.2,4.1,1.1c0.1,0.1,0.5,0,0.6,0.1
		c0.3,0.1,0.8,0.3,0.9,0.6c0.1,0.2-0.2,0.7-0.4,0.9c-0.7,1-1.6,1.9-2.3,3c-0.9,1.5-1.8,3.1-1.8,4.9c0,0.1-0.1,0.1-0.1,0.2
		c-0.2,1-0.4,2.1-0.5,3.1c-0.1,0.3,0,0.7-0.2,1c-0.8,1.3-0.5,2.5-0.1,3.8c0.1,0.3,0.1,0.7,0.1,1c0,1.1-0.1,2.1-0.2,3.3
		c1.4,0,2.7-0.3,3.8,0.1c2.3,0.7,4.3-0.2,6.4-0.6h0.1c1.4-0.1,2.7-0.1,4.1-0.2c0.6,0,1.3-0.1,1.9-0.3c2-0.7,3.9-1.4,5.9-2
		c0.6-0.2,1.5-0.1,2,0.3c0.7,0.6,0.2,1.4-0.2,2c-0.2,0.3-0.6,0.6-0.8,0.9c-0.7,1-1.4,2.1-2.2,3c-0.7,0.9-1.5,1.6-2.4,2.6
		c0.1,0.2,0.4,0.5,0.6,0.8c0.1,0.1,0.4,0.2,0.5,0.4c0.3,1,1.3,1.4,1.9,2.1c0.9,1.2,1.7,2.5,2.4,3.9c0.4,0.7-0.3,1.6-1.1,1.4
		c-1.5-0.3-3.2,0.2-4.6-0.9c-0.4-0.3-1.1-0.1-1.7-0.2c-1.6-0.3-3.1-0.7-4.7-0.8c-1.1-0.1-2.3,0.2-3.4,0.2c-1.8,0.1-3.5,0.1-5.3,0
		c-2-0.1-3.2,1-3,3c0.1,1.2-0.1,2.4-0.1,3.6c0,0.9,0.3,1.8,0.1,2.5c-0.4,1.4-0.5,2.7,0.5,3.9c-0.2,2.4,1.7,4.1,2.3,6.2
		c0.1,0.4,0.7,0.8,1.1,1c0.7,0.5,1.2,1.2,0.8,2.1c-0.4,0.9-1.2,1-2.1,0.8c-1.1-0.3-2.2-0.2-3.4,0.1c-1,0.3-2.1,0.6-3.1-0.2
		c-0.1-0.1-0.4-0.2-0.5-0.1c-1.4,0.9-2.6-0.1-3.7-0.6c-1-0.5-2.1-1-3-1.8c-1-0.9-1.7-2.1-2.6-3.2c-0.2-0.2-0.3-0.5-0.5-0.7
		c-1.3-1.2-1.8-2.7-2-4.4c0-0.4-0.2-0.8-0.2-1.2c0-2.5-0.2-4.9,0.7-7.3C26.4,38.3,26.4,37.5,26.6,36.6z"/>
	<path class="st0" d="M43.5,2.4C43.3,2.6,43.2,3,43,3.1c-1.6,1-2.4,2.4-2.8,4.2c-0.3,1.1-0.8,2.2-1.1,3.4c-0.3,1-0.4,2-0.6,3
		c-0.1,0.3-0.1,0.7,0,0.9c0.6,1.4,0.3,2.7-0.2,4c-0.1,0.3-0.2,0.5-0.1,0.8c0.4,1.9,0.7,3.7,1.2,5.5c0.1,0.4,0.8,1,1.2,0.9
		c1.6-0.1,3.1-0.3,4.6,0.2c0.1,0,0.2,0,0.3,0c2.1-0.8,4.4,0.2,6.6-0.4c1.4-0.4,2.9-0.7,4.3-1c1-0.2,2-0.4,3-0.6
		c0.1,0.1,0.1,0.2,0.2,0.3c-0.5,0.9-0.9,1.8-1.4,2.7c-0.9,1.6-0.3,4.3,1.3,5.1c0.9,0.4,1,1.1,1.3,1.9c-1-0.3-1.9-0.6-2.9-0.8
		c-0.5-0.1-1.1-0.1-1.7-0.2c-0.5-0.1-1-0.2-1.6-0.2c-2.4-0.1-4.8-0.2-7.2-0.2c-1.4,0-2.9,0.1-4.3,0.3c-1.8,0.2-3.3,2-3.5,3.8
		c-0.1,0.8-0.5,1.5-0.7,2.3c-0.3,1.7-0.6,3.5-0.7,5.2c-0.1,0.6,0,1.3,0.4,1.7c0.5,0.6,0.5,1.1,0.2,1.8c-0.4,1-0.4,2,0.5,2.7
		c0.1,0.1,0.2,0.4,0.2,0.5c0.5,1.6,1,3.3,1.5,4.9c-0.8,0-1.9,0-3.1,0c-1.1-0.6-2.4-1.1-3.6-1.9C33,53,31.6,52,30.5,50.8
		c-0.7-0.8-1-2.1-1.5-3.1c-1.1-2.3-0.7-4.8-0.5-7.2c0.1-1.4,0.4-2.7,0.5-4.1c0-0.8-0.1-1.8-0.6-2.4c-0.4-0.5-1.4-0.6-2.2-0.6
		c-1.6-0.2-2.9-0.8-3.6-2.4c-0.4-0.8-1.1-1.3-0.7-2.4c0.4-1,0.4-2.2,1.8-2.3c0.1,0,0.3-0.1,0.3-0.2c0.8-1.3,2.1-1.1,3.2-1.2
		c1-0.1,1.3-0.5,1.1-1.5c-0.1-0.7-0.1-1.5-0.1-2.2c-0.1-1.6-0.4-3.3-0.2-4.9c0.1-1.3,0.8-2.5,1.2-3.8c0.1-0.2,0.2-0.4,0.2-0.6
		c0-1.8,1.3-3.1,2.3-4.3c1.3-1.6,2.7-3.3,4.8-4c1.7-0.5,3.4-1,5.1-1.4c0.5-0.1,1-0.3,1.5-0.4C43.3,2.1,43.4,2.3,43.5,2.4z"/>
	<path d="M35.6,16.2c0.8,0.5,1.6,0.9,2.3,1.5c0.5,0.4,0.3,1.1-0.3,1.3c-0.9,0.2-1.8,0.4-2.7,0.2c-0.8-0.1-1.6-0.7-1.4-1.7
		C33.8,16.5,34.6,16.4,35.6,16.2z"/>
	<path d="M33.7,49.3c0-1,0.9-1.6,2-1.2c0.4,0.2,0.9,0.1,1.3,0.3c0.5,0.2,0.9,0.6,1.3,1c0.1,0.1,0,0.7-0.2,0.8
		c-0.5,0.2-1,0.3-1.5,0.4c-0.4,0-0.8-0.1-1.3-0.1C34.4,50.6,33.8,50.1,33.7,49.3z"/>
	<path d="M35.7,25c-0.8-0.6-1.5-0.9-2.1-1.4c-0.2-0.1-0.1-0.9,0.1-1c0.7-0.3,1.5-0.4,2.3-0.6h0.1c0.7,0.4,2,0.5,1.7,1.5
		C37.6,24.1,36.5,24.4,35.7,25z"/>
	<path d="M34.8,43.8c0.8,0.1,1.6,0.1,2.3,0.4c0.4,0.1,0.9,0.6,0.8,0.9c0,0.3-0.6,0.9-0.9,0.9c-1.1,0-2.2-0.1-3.3-0.3
		c-0.3-0.1-0.7-0.7-0.6-1c0.1-0.3,0.6-0.6,1-0.8c0.2-0.1,0.5,0,0.7,0.1C34.8,43.9,34.8,43.8,34.8,43.8z"/>
	<path d="M35.4,41.2c-0.4-0.1-0.8-0.2-1.2-0.5c-0.9-0.6-0.8-1.5,0.1-2c0.9-0.5,2.5-0.2,3.1,0.6c0.4,0.5,0.3,1.2-0.4,1.5
		C36.6,41,36,41.1,35.4,41.2z"/>
	<path d="M35.5,14.2c-0.4-0.1-0.8-0.2-1.2-0.4c-0.7-0.4-0.7-1.3,0-1.7c0.9-0.6,1.8-0.5,2.7,0c0.3,0.2,0.6,0.7,0.6,1.1
		c0,0.2-0.4,0.6-0.7,0.8C36.5,14,36,14,35.5,14.2z"/>
	<path d="M37.7,54.2c-0.6,0-1.2-0.1-1.8-0.2c-0.7-0.1-1-0.7-0.8-1.3c0.2-0.4,0.7-0.8,1.2-0.9c0.6-0.1,1.2,0.1,1.8,0.3
		c0.4,0.2,0.8,0.7,0.7,1.1c0,0.4-0.5,0.7-0.8,1C37.8,54.3,37.8,54.3,37.7,54.2z"/>
	<path d="M35.1,9.6c-0.3-0.4-0.8-0.8-0.9-1.2c-0.1-0.7,0.4-1,1.1-1c0.5,0,1.1-0.1,1.6,0c0.4,0.1,0.7,0.5,1,0.8
		c-0.3,0.3-0.5,0.9-0.9,1c-0.5,0.2-1.1,0.1-1.7,0.1C35.2,9.4,35.1,9.5,35.1,9.6z"/>
	<path d="M26.2,28.1C26,29,25.7,29.4,25,29.4c-0.8,0-1-0.5-1-1.2c0-0.6,0.3-1.3,1-1.1C25.5,27.2,25.9,27.8,26.2,28.1z"/>
</g>
<g>
	<path d="M133.3,73.4c0.1,0.7,0.2,1.5,0.2,2.3c0,1.4-0.1,2.9-0.1,4.3c0,0.8,0.1,1.6,0.1,2.3c0,1,0.2,2.1,0,3.1
		c-0.4,1.6,0.7,3.3-0.7,4.8c-0.3,0.4-0.1,1.1,0,1.7c0.2,1.5,0.8,3.1,0,4.7c-0.3,0.6,0.1,1.5,0.1,2.3c0,0.6-0.1,1.3-0.1,1.9
		c-0.1,1.2,0,2.4-0.2,3.5c-0.1,0.9-0.5,1.8-0.8,2.7c-0.1,0.2,0,0.4,0,0.7c-0.1,0.7-0.1,1.4-0.3,2c-0.3,0.8-1.2,0.7-1.9-0.3
		c-2.2,0.7-4.4,1.1-6.1,0.4c-1.5,0.1-2.6,0.2-3.7,0.3c-0.8,0.1-1.6,0.1-2.4,0.1c-1.1,0-2.2-0.1-3.3-0.1c-1.5,0-3.1,0.1-4.6,0.1
		c-0.6,0-1.2-0.2-1.8-0.2c-0.9,0-1.8,0-2.7,0c-1.9,0-3.7,0.3-5.6-0.2c-1.1-0.3-2.3,0-3.4,0c-1.8,0-3.5,0-5.3,0c-0.3,0-0.6-0.2-1-0.3
		c-0.3-0.1-0.5-0.3-0.8-0.3c-1.7,0-3.4,0-5.1,0c-1,0-2.1,0.1-3.1-0.1c-0.5-0.1-1.2-0.5-1.4-1c-0.1-0.4,0.3-1,0.5-1.5
		c0-1.2,0-2.5,0-3.7c0-1.3-0.1-2.6-0.1-3.9s0-2.5,0-3.8c0-0.6-0.3-1.3,0-1.7c0.8-1.4-0.2-2.6,0-3.9c0.1-0.6,0.2-1.2,0.3-1.8
		c0-0.2,0.1-0.3,0.1-0.5c0-1.8,0.1-3.5,0.1-5.3c0-1.1-0.2-2.3,0.1-3.2c0.6-1.5-0.1-3,0.2-4.5c0.2-1.1-1-2.1-2.1-1.5
		c-1.3,0.7-2.5,0.4-3.8,0.2c-1.3-0.2-2.5-0.1-3.8-0.2c-0.3,0-0.8-0.4-0.9-0.7c-0.1-0.5,0-1.2,0.3-1.6c1.1-1.6,1.8-3.4,2.6-5.1
		c0.3-0.6,0.9-1.1,1.3-1.7c0.7-1.1,1.3-2.3,1.9-3.4c0.4-0.8,0.8-1.6,1.4-2.4c1.6-2.2,3.4-4.1,4.4-6.7v-0.1c2-2.3,3.1-5.2,4.8-7.6
		c1.2-1.7,2-3.5,3.2-5.1c1-1.3,1.6-2.8,2.5-4.2c1.1-1.7,2.4-3.3,3.6-5c1.3-1.9,2.5-3.8,3.8-5.7c0.8-1.3,1.8-2.5,2.6-3.8
		c0.5-0.9,0.9-1.8,1.4-2.7c0.5-0.8,1-1.5,1.6-2.2c0.8-0.8,1.2-0.6,1.7,0.4s1.2,1.9,1.7,2.8c0.8,1.4,2.1,2.4,2.5,4.1
		c0.1,0.3,0.4,0.4,0.5,0.7c0.2,0.4,0.6,0.7,0.6,1.1c0,0.8,0.5,1.2,1,1.6c0.3,0.2,0.6,0.6,0.8,1c0.8,1.2,1.6,2.3,2.3,3.6
		c0.7,1.1,1.2,2.4,1.9,3.5c0.9,1.5,2,2.9,3,4.4c0.4,0.7,0.7,1.5,1,2.2c0.1,0.2,0.1,0.4,0.2,0.5c1.9,1.9,3.1,4.2,4.1,6.7
		c0.1,0.1,0.2,0.3,0.3,0.4c1.2,0.6,1.5,1.9,2.1,2.9c0.8,1.3,1.8,2.5,2.6,3.8c1,1.6,1.9,3.2,2.9,4.9c0.4,0.6,0.8,1.3,1.2,1.9
		c0.8,1.3,1.7,2.5,2.3,3.8c1,2.3,2.7,4.1,3.9,6.1c0.4,0.7,0.3,1.6-0.5,1.8c-0.9,0.2-1.9,0.1-2.9,0.1c-0.3,0-0.6-0.1-0.9-0.1
		C136.5,73.2,135,73.3,133.3,73.4z"/>
	<path class="st1" d="M129.5,107.3c-0.5-0.1-1.1-0.3-2-0.6c-0.1-0.9-0.2-2-0.3-3.1c-0.1-1.5-0.3-3.1-0.4-4.6c-0.1-1.7-0.1-3.3-0.3-5
		c-0.1-1-0.4-2-0.8-2.9c-0.6-1.3-1.9-1.6-3.1-1.6c-1.3,0-2.5,0.5-3.5,1.6c-1.8,1.8-1.8,4-1.8,6.2c0,0.3,0,0.6-0.1,0.9
		c0,0.3-0.2,0.5-0.2,0.8c0,1.9,0,3.9,0,5.8c0,0.4,0.1,0.7,0.2,1.1c0.4,1.1,0.3,1.1-0.8,1.1c-1.1,0-2.1,0.1-3.2,0.2
		c-0.1,0-0.3,0.1-0.4,0.1c-1.9-0.8-3.7-0.4-5.6-0.2c-0.6,0.1-1.2-0.1-1.8-0.2c-2-0.4-4-0.4-6,0c-0.2,0-0.5,0-0.7,0
		c-1.8-0.6-3.7-0.6-5.6-0.4c-0.6,0.1-1.3,0-1.9,0c-0.3,0-0.6-0.1-0.8,0c-1.3,0.9-2.6-0.1-3.9-0.1c-1,0-2.1,0.1-3.1,0.1
		c-0.3,0-0.5,0-0.9,0c0.1-2.4,0.2-4.8,0.3-7.1c0.1-1.9,0.2-3.8,0.4-5.7v-0.1c-0.8-1.5,0.5-3,0.2-4.5c-0.4-2.2,0.3-4.4,0.1-6.6
		c-0.1-1.2,0.4-2.6,0.1-3.7c-0.5-1.9,0.6-3.6-0.1-5.6c2,0,3.8,0.3,5.5-0.1c2.2-0.4,4.2,0.2,6.3,0.2c0.1,0,0.3,0,0.4,0
		c1.5-1,3.2-0.1,4.8-0.3c1.7-0.1,3.5,0,5.3,0s3.5-0.3,5.3-0.2c0.9,0,1.8,0.5,2.7-0.2c0.1-0.1,0.3,0.1,0.5,0.1
		c1.9,0.2,3.8,0.6,5.7-0.1c0.2-0.1,0.5,0,0.8,0.1c1,0,2,0.1,3,0.1c1.4,0,2.8,0,4.3,0c0.4,0,0.9-0.1,1.3-0.2c1.1-0.2,1.9,0.5,1.7,1.6
		c-0.5,1.9-0.2,3.8-0.2,5.7c0,1.6-0.2,3.3-0.3,5c-0.1,1.2-0.2,2.4-0.2,3.6c0,0.4,0.3,0.8,0.4,1.1c0.4,0.8,0.4,1.4,0.1,2.3
		c-0.5,1.1-0.9,2.6-0.5,3.8c0.4,1.3-0.1,2.1-0.3,3.2c-0.1,0.4-0.2,0.7-0.2,1.1c-0.1,1-0.3,2-0.3,3
		C129.3,104.5,129.5,105.9,129.5,107.3z"/>
	<path class="st0" d="M72.6,70.5c0.9-1.3,1.8-2.3,2.5-3.4s1.1-2.3,1.7-3.5c1.3,1.7,3,2.4,5,2.3s3.5-1.1,4.2-2.9
		c1.4,1,2.5,1.9,3.7,2.6c0.4,0.3,1.1,0.2,1.6,0.2c0.7-0.1,1.4-0.3,2-0.5c0.8-0.3,1.5-0.7,2.2-1.1c0.3-0.2,0.6-0.5,1-0.9
		c0.8,0.6,1.6,1,2.3,1.6c1.5,1.5,5.6,1,6.7-0.3c0.3-0.3,0.7-0.5,1.1-0.8c2,3.7,8.1,2.8,9.6,0c1.2,2,3.3,2.8,5.4,2.9
		c2.1,0,3.9-1.4,5.3-3.1c0.4,0.5,0.6,1,1,1.3c1,0.9,2.1,1.5,3.5,0.8c0.5-0.3,1.4,0,1.7-0.4c0.6-0.6,0.9-1.4,1.3-2.3
		c0.8,1.1,1.4,2.6,2.5,3.6c1.3,1.1,1,3,2.5,3.8c0,0.1-0.1,0.2-0.1,0.3c-0.4,0.1-0.8,0.2-1.2,0.2c-2.3-0.1-4.6-0.3-6.9-0.5
		c-0.2,0-0.5-0.1-0.7,0c-1.2,0.8-2.3,0.1-3.4,0c-0.9,0-1.8,0-2.7-0.1c-1.4-0.3-2.8-0.2-4.2,0.1c-0.9,0.2-1.8-0.2-2.7-0.4
		c-1.2-0.1-2.5-0.4-3.7,0.3c-0.1,0.1-0.4-0.1-0.6-0.1c-0.3-0.1-0.6-0.3-0.9-0.2c-1.4,0.5-2.7,0.1-4,0c-1.7-0.1-3.4,0-5.1,0
		c-1.2,0-2.4-0.1-3.6-0.1c-0.3,0-0.7,0.1-1,0.2c-0.5,0.1-1.1,0.4-1.5,0.2c-1.6-0.5-3.2,0-4.8,0c-2,0-4-0.2-6-0.2
		c-0.9,0-1.9,0.1-2.8,0.2c-0.7,0-1.3-0.1-2-0.1c-0.5,0-1.1,0-1.6,0.2c-0.7,0.3-1.3,0.4-2,0c-0.4-0.2-0.9-0.3-1.3-0.2
		C75.3,70.2,74.1,70.4,72.6,70.5z"/>
	<path class="st0" d="M119.9,54.6c3.6,2.2,7.2,0.5,7.8-2.1c2.1,3.2,4.1,6.4,6,9.4c-0.8,0.6-1.5,1.1-2.3,1.6c-0.6-0.4-1.3-0.9-2-1.4
		c-0.2-0.2-0.4-0.4-0.5-0.7c-0.6-1.5-1.9-1.8-3-0.7c-1,0.9-2,1.8-3,2.7c-1.1,1-2.8,0.8-3.9-0.3c-0.5-0.5-1-1-1.1-1.8
		c-0.1-0.9-1.3-1.2-2.1-0.6c-0.8,0.6-1.6,1.4-2.3,2.1c-1.6,1.5-4,0.9-4.7-1.1c-0.1-0.4-0.3-0.8-0.5-1.1c-0.5-0.8-1.4-0.9-2-0.3
		c-0.6,0.5-1.2,1.1-1.7,1.7c-1,1.1-4.2,1.6-5.2,0.7c-0.5-0.5-0.9-1.2-1.2-1.9c-0.3-0.7-0.7-1.3-1.5-1.4c-0.8-0.1-1.2,0.5-1.7,1.1
		c-0.9,1-1.9,2-3.1,2.6c-0.5,0.3-1.6-0.3-2.2-0.7c-0.6-0.5-1.1-1.2-1.6-1.9c-0.7-1-1.7-1.1-2.5-0.2c-0.2,0.2-0.4,0.4-0.4,0.6
		c-0.7,1.8-2.4,1.9-3.9,2.3c-1.3,0.3-2.2-0.3-2.9-1.3c0.9-1.3,1.7-2.6,2.6-3.9c0.8-1.3,1.5-2.6,2.3-4c2.1,2.6,3.6,4.6,7.5,1.6
		c3.7,3,7.2,2.3,10.4-1.1c0.3,0.3,0.5,0.5,0.7,0.8c0.9,1.2,2.3,1.5,3.8,1c0.9-0.3,1.9-0.5,2.9-0.8c0.6-0.2,1-0.7,1.5-1
		c1,0.7,2.1,1.4,3.1,2.1c0.3,0.2,0.6,0.4,0.8,0.3c1.1-0.4,2.4-0.1,3.5-0.9C118.1,55.4,119,55,119.9,54.6z"/>
	<path class="st0" d="M88.7,45.1c0.4,0.9,0.7,1.6,1,2.3c0.1,0.3,0.4,0.5,0.6,0.6c0.7,0.3,1.4,0.7,2.1,0.7c1.4-0.1,2.9-0.4,4-1.4
		c0.6-0.5,1-1.1,1.7-1.7c0.4,0.5,0.6,0.9,0.9,1.1c0.4,0.3,0.8,0.6,1.3,0.9c0.3,0.2,0.6,0.3,0.8,0.5c0.9,0.7,1.8,0.6,2.7-0.1
		c0.6-0.5,1.3-0.8,2-1.3c1.2,1.3,2.4,1.9,4.4,1.5c1.9-0.4,2.8-1.6,4-2.5c1.3,0.6,2.5,1.3,3.8,1.8c1.8,0.7,3.4-0.1,4.3-1.7
		c0.1-0.2,0.2-0.4,0.4-0.6c1.8,1.9,3.1,4,4.1,6.2c-0.8,0.3-1.6,0.7-2.4,1.1c-1.1,0.5-2.2,0.2-3-0.7c-1-1.2-1.8-1.1-2.7,0.2
		c-0.5,0.7-1,1.5-1.8,2.1c-0.6,0.5-1.4,0.9-2.3,0.4c-0.1-0.1-0.3-0.2-0.4-0.2c-1.9,0-2.2-1.5-2.7-2.8c-0.2-0.4-0.7-0.9-1.1-1
		s-1,0.3-1.3,0.6c-0.9,0.9-1.7,1.9-2.6,2.8c-0.5,0.6-1,0.4-1.7,0.2c-1.1-0.3-2-0.7-2.3-2c-0.1-0.5-0.9-1-1.6-1.2s-1.1,0.5-1.6,1.1
		c-0.8,1.1-1.6,2.1-2.5,3c-0.4,0.4-1.1,0.6-1.8,0.1c-0.7-0.5-1.5-0.9-2.2-1.3c-0.2-0.1-0.4-0.4-0.6-0.6c-0.6-1.3-1.9-1.3-2.9-0.3
		c-0.5,0.5-1,1-1.8,0.9c-0.7-0.1-1.1-0.3-1.5-0.9c-0.2-0.5-0.7-0.8-1-1.3c-0.1-0.3-0.2-0.9-0.1-1c1.4-0.7,1.6-2.3,2.4-3.3
		C87.9,46.7,88.2,45.9,88.7,45.1z"/>
	<path class="st0" d="M89.3,44c1.3-2.1,2.6-4.2,4-6.5c2.2,3.8,4.9,4.2,9,1.4c1.4,1.7,3.6,2.2,5.7,1.6c0.8-0.2,1.5-1.1,2.2-1.8
		c0.4-0.4,0.8-0.6,1.4-0.4c0.9,0.2,1.9,0.3,2.8,0.5c1,0.2,1.8,0,2.4-0.9c0.2-0.3,0.5-0.6,0.8-1c1.5,2.2,2.9,4.3,4.3,6.4
		c-0.8,0.4-1.6,0.7-2.3,1c-1.5,0.7-2.8,0.2-3.1-1.4c-0.2-0.9-0.6-1.5-1.5-1.6s-1.5,0.4-2,1.2c-0.7,1.3-1.6,2.3-2.9,3
		c-0.7,0.4-2.6-0.2-2.9-1c-0.1-0.2,0-0.5-0.2-0.7c-0.4-0.4-0.9-0.9-1.4-1c-0.7-0.1-1,0.5-1.2,1.2c-0.2,0.9-1.5,2-2.4,2
		s-2.2-1.1-2.3-2c-0.1-0.9-1.1-1.6-1.9-1.2c-0.7,0.3-1.3,0.8-1.8,1.3s-0.8,1-1.5,1.4c-1.5,0.9-3.1,0.6-4.2-0.8
		C90.3,44.3,89.7,44.2,89.3,44z"/>
	<path class="st0" d="M98.3,30.1c0.5,1.8,2.2,2.7,3.9,2.7c1.5,0,2.5-0.7,3.6-1.3c0.2-0.1,0.5-0.1,0.7-0.1c1,0.2,2,0.5,3,0.7
		c1.2,0.3,2.2-0.4,3.1-1c0.3-0.2,0.5-0.4,0.8-0.7c1.2,1.7,2.3,3.3,3.5,5c-1.3,1.5-3.5,1.4-4.8-0.1c-0.4-0.5-1.1-0.8-1.7-0.8
		c-0.4,0-0.9,0.7-1.1,1.2c-0.7,1.8-2.4,2.8-4,2.1c-0.7-0.3-1.2-1-1.6-1.6c-0.9-1.2-1.8-1.2-2.6,0c-1.3,1.9-2.5,2.3-4.5,1.4
		c-0.7-0.3-1.2-0.6-1.2-1.6c0-0.5-0.8-1-0.2-1.6c0.2-0.3,0.5-0.5,0.7-0.7c0.7-1,1.3-2,2-3.1C97.9,30.5,98,30.4,98.3,30.1z"/>
	<path class="st1" d="M124.8,106.9c-1.2,0.5-2.1,0.7-3.2,0.2c-0.5-0.2-1.3-0.1-1.9,0c-0.7,0.1-0.7-0.2-0.7-0.7c0-1.9,0-3.8,0.1-5.7
		c0-1.2,0.1-2.4,0.3-3.6c0.2-1.2,0.5-2.4,0.8-3.6c0.3-1.1,1.5-1.7,2.4-1.5c1.1,0.2,1.2,1,1.3,2c0.2,2.5,0.6,5,0.7,7.5
		C124.9,103.2,124.8,105,124.8,106.9z"/>
	<path class="st0" d="M102.2,24.3c0.9,1.4,2.3,1.6,3.8,1.8c1.8,0.3,2.8-0.4,3.5-1.7c0.5,0.5,1.1,0.9,1.4,1.4
		c0.4,0.8,0.8,1.7,0.8,2.5c0,0.5-0.8,1.2-1.4,1.5c-1.4,0.6-1.7,0.4-2.6-0.9c-1-1.5-1.9-1.5-3-0.1c-0.4,0.5-0.8,1-1.2,1.4
		c-0.5,0.4-1,0.7-1.7,0.3c-0.9-0.5-1.8-1-2.9-1.6C100.1,27.3,101.1,25.8,102.2,24.3z"/>
	<path class="st0" d="M102.8,23.2c1.1-1.7,2-3.2,3.1-4.9c0.8,1.2,1.7,2.2,2.2,3.4c0.2,0.5-0.5,1.4-1,2c-0.4,0.5-1,0.9-1.8,0.4
		C104.6,23.7,103.8,23.5,102.8,23.2z"/>
	<path d="M101.9,93.7c0.2-1.1,0.5-2.2,0.8-3.3c0.1-0.3,0.1-0.6,0.1-0.9c-0.1-1.6,0.3-3,1.2-4.3c0.5-0.8,1.6-1.4,2.5-1.6
		c1.3-0.3,2.7-0.3,4-0.2c1.8,0.1,2.6,1.4,3.3,2.9c1.4,2.9,0.9,6,0.7,9c-0.1,1.6-0.9,2-3,1.8c-0.5,0-1,0.1-1.6,0.1
		c-0.8,0.1-1.6,0.1-2.4,0.2s-1.7,0.2-2.5,0.2c-1.6,0-2-0.4-2.4-2C102.5,95.1,102.2,94.4,101.9,93.7z"/>
	<path d="M86.4,95.2c0.4-2.6,0.5-5.2,1.2-7.6c0.5-1.9,2-3.4,3.8-4c2.4-0.9,5.8,0.4,6.6,3.1c0.4,1.3,0.7,2.6,1,3.9
		c0.1,0.3-0.1,0.7-0.1,1s-0.1,0.7,0.1,1c0.7,1.2,0.3,2.4,0,3.6c-0.1,0.2-0.4,0.4-0.6,0.5c-0.5,0.2-1.1,0.4-1.7,0.4
		c-1,0.1-1.9,0.1-2.9,0.2c-0.8,0.1-1.5,0.1-2.3,0.2c-0.3,0-0.7,0-1,0c-0.7,0-1.4,0.1-2.1,0c-0.5-0.1-1.1-0.2-1.4-0.6
		C86.6,96.4,86.6,95.8,86.4,95.2z"/>
	<path d="M119.8,100c0.2-0.1,0.4-0.5,0.8-0.6c0.8-0.1,1.1,0.5,1.1,1.2c0,0.3-0.5,0.8-0.8,0.9C120,101.6,119.9,100.9,119.8,100z"/>
	<path class="st1" d="M111.9,92c-0.7-0.1-1.2-0.2-1.7-0.2c-1,0-1-0.9-1-1.4c0-0.6,0.4-1.2,1.3-0.9c0.4,0.1,0.9,0,1.4,0
		C111.9,90.3,111.9,91.1,111.9,92z"/>
	<path class="st1" d="M104.8,91c0.2-0.6,0.4-1.1,0.5-1.6c0.8,0.1,1.5,0.2,2.3,0.2c0.1,0.1,0.3,0.4,0.3,0.6c0,0.4,0,0.9-0.2,1.3
		c-0.1,0.2-0.7,0.1-1,0.1C106.1,91.5,105.5,91.3,104.8,91z"/>
	<path class="st1" d="M104.8,94.7c0-0.4,0-0.9,0-1.3c2-0.5,3-0.8,2.9,1.4C106.8,94.8,105.8,94.8,104.8,94.7z"/>
	<path class="st1" d="M111.6,87.9c-0.8-0.2-1.7-0.1-2.1-0.5s-0.3-1.2-0.5-1.9C110.4,85.7,111,86.1,111.6,87.9z"/>
	<path class="st1" d="M111.8,93.5c-0.1,0.6-0.1,1.3-0.4,1.4c-0.6,0.2-1.2,0.1-1.9,0.1C109.6,93.5,109.6,93.5,111.8,93.5z"/>
	<path class="st1" d="M107.4,87.7c-0.6,0-1.2,0-1.8,0c0.4-1.2,1.1-1.8,2.3-2.3C107.7,86.2,107.6,86.9,107.4,87.7z"/>
	<path class="st1" d="M93.8,95.1c-0.1-0.6-0.1-1-0.1-1.6c1-0.2,2-0.3,3-0.5c0,0.7,0.1,1.2,0.1,1.9C95.7,95,94.8,95,93.8,95.1z"/>
	<path class="st1" d="M93.9,89.5c1.9-0.8,2.5-0.4,2.4,1.7c-0.8,0-1.7,0-2.6,0C93.8,90.6,93.9,90,93.9,89.5z"/>
	<path class="st1" d="M89.3,91.8c0-0.7,0.1-1.4,0.1-2c0.8,0,1.4,0,2.2,0c-0.1,0.6,0.1,1.5-0.2,1.8C91,91.9,90.2,91.7,89.3,91.8z"/>
	<path class="st1" d="M89.2,95.6c-0.1-0.6-0.1-1.3-0.2-1.9c0.8-0.1,1.6-0.1,2.5-0.2c0,0.4,0,0.9,0,1.4C90.8,95.1,90,95.4,89.2,95.6z
		"/>
	<path class="st1" d="M95.6,87.5c-1.7,0.4-2.1,0-2-1.8C94.3,86.4,94.9,86.9,95.6,87.5z"/>
	<path class="st1" d="M92.3,85.7c-0.2,0.7-0.4,1.2-0.6,1.8c-0.4,0-0.8-0.1-1.3-0.2C90.7,86.4,91.1,85.7,92.3,85.7z"/>
</g>
<g>
	<path d="M43,102c-1,0.2-2,0.6-3.1,0.6c-2.4,0.1-4.9-0.1-7.3,0c-1.3,0-2.6-0.3-4,0c-1.7,0.4-3.5,0.1-5.2,0.1
		c-0.5,0.9-0.9,1.8-1.3,2.6c-0.7,1.4-2.7,2.5-4.3,2.5c-0.4,0-0.9,0.3-1.4,0.3c-1.6,0.2-3.5-1.1-4-2.6c-0.3-0.9-0.9-1.7-1.3-2.5
		c-0.1-0.1-0.4-0.2-0.6-0.2c-1.2,0-2.4,0.1-3.6,0c-1.9-0.1-3.8-0.3-5.8-0.6c-1-0.1-1.3-1.2-0.9-2.2c0.3-0.5,0.3-1.2,0.4-1.8
		c0.1-0.5,0-1.2,0.3-1.4c1-0.9,0.9-1.9,0.9-2.9c0-1.2,0.6-2,1.7-2.5c2.6-1.1,5.3-1.9,8-2.3c1.5-0.3,1.3-1.6,1.7-2.5
		c0.4-0.7,0.8-1.5,1.2-2.2c0.3-0.5,0.6-0.9,0.9-1.4c0.6-1.3,1.1-2.7,1.7-4v-0.1c1-0.9,1.6-2,2-3.3c0.2-0.7,1.1-0.7,1.9-0.3
		c0.6,0.3,1.2,0.3,1.9,0.4c0.5,0,1-0.1,1.5-0.1c1.2,0,2.3,0,3.5,0c1.5,0,2.9,0,4.2,0.8c0.1,0.1,0.4,0,0.6-0.1
		c1.5-0.6,2.9-0.8,4.5-0.5c1,0.2,2,0,3.1,0.1c0.9,0.1,1.8,0.3,2.7,0.4c0.6,0,1.1,0,1.7-0.1c0.7-0.1,1.3-0.3,2-0.2
		c1,0.1,1.9,0.3,2.9,0c0.9-0.3,1.6,0.4,1.9,1.2c0.8,1.7,1.5,3.4,2.3,5.2c0.1,0.3,0.3,0.6,0.3,0.9c-0.2,1.4,0.6,2.4,1.3,3.5
		c0.3,0.6,0.4,1.3,0.5,2c0.1,0.6,0.3,0.9,0.9,0.7c1.2-0.5,2.3-0.1,3.5,0.3c0.4,0.2,0.8,0.2,1.2,0.1c1.1-0.2,2-0.1,2.8,0.7
		c0.2,0.2,0.4,0.4,0.7,0.4c1,0.1,1.4,0.8,1.6,1.6c0.5,1.7,1,3.4,1.5,5.1c0.1,0.4,0.3,0.9,0.7,1.1c1.1,0.8,1.1,0.9,0.4,2.4
		c-0.4,0.9-1.2,1.3-2,0.9c-2-0.8-4.1-0.5-6.2-0.5c-1.3,0-2.7,0-4,0c-0.7,0-1.4,0.5-1.2,1.3c0.4,1.6-0.2,2.5-1.7,3.2
		c-0.5,0.2-1,0.9-1.3,1.4c-0.5,0.8-1.2,0.9-2,0.9c-0.4,0-0.9,0-1.3,0.1c-1.2,0.3-3.1-0.6-4.1-1.4C43.7,105.7,43.4,103.8,43,102z"/>
	<path class="st1" d="M32.4,78.1c1.3,0.8,3,1.1,4.8,0.8c1-0.2,2,0.1,3,0c1,0,2-0.4,3-0.3c1.9,0.1,3.9,0.4,5.8,0.6
		c0.3,0,0.6,0.2,0.9,0.3c0.3,1.4,0.5,2.8,0.8,4.2c0.1,0.3,0.1,0.6,0.3,0.8c1.2,1.1,1,2.6,1.4,3.9c0.3,0.9,0.5,1.9,1,2.7
		c0.4,0.8,1.2,1,2.1,0.9c0.4-0.1,0.8,0.1,1.2,0.1c1.1,0.2,2.1,0.3,3.2,0.5c0.4,0.1,0.9,0.1,1.3,0.2c0.8,0.2,1.7,0.4,2.8,0.6
		c0.5,1.5,1,3.3,1.6,5.3c-1.7,0.1-3.3,0.3-5,0.4c-1.2,0.1-2.4,0.4-3.6,0.4c-0.7,0-1.5-0.4-1.9-1c-1.4-2-3.3-2.6-5.5-2.7
		c-0.3,0-0.6,0-0.8,0.1c-1.2,0.6-2.3,1.3-3.5,2c-0.4,0.2-0.7,0.6-1,1c-0.5,0.9-1.3,1.2-2.4,0.9c-0.7-0.2-1.5-0.3-2.2-0.2
		c-0.9,0.2-1.6-0.1-2.4,0c-2.4,0-4.7,0.3-7.1,0.4c-0.1,0-0.3,0.1-0.4,0c-2-0.8-4-0.2-6-0.2c-1.2,0-2.1-0.1-2.6-1.4
		c-0.7-1.8-3.1-2.4-4.7-1.5c-0.9,0.5-2.1,0.7-3,1.2c-0.7,0.4-1.2,1.3-2,1.6c-0.8,0.3-1.7,0.1-2.6,0.1c-0.5,0-0.9-0.1-1.4-0.1
		c-1.2,0-2.4,0.1-3.6,0.2c-0.3,0-0.5-0.1-1-0.1c0.2-0.3,0.4-0.6,0.5-0.9c0.2-0.5,0.6-1.1,0.5-1.5C3.7,96.6,3.8,96,4,95.3
		c0.3-0.9,0.6-1.3,1.7-1.5c2-0.4,3.9-1.1,5.9-1.7c0.9-0.3,1.9-0.6,2.8-1c0.4-0.2,0.8-0.7,1.1-1.1c0.4-0.7,0.8-1.5,1.1-2.2
		c0.2-0.5,0.4-1.1,0.6-1.6c0.4-0.9,0.6-1.8,1.1-2.6c0.8-1.5,1.8-3,1.8-4.8c0-0.8,1.1-1.1,2.2-0.7c2.4,1,4.9,0.8,7.3,0.6
		C30.4,78.5,31.3,78.3,32.4,78.1z"/>
	<path class="st1" d="M46.5,102.2c0.1-1.2,1.7-3.2,2.8-3.5c0.2-0.1,0.5,0,0.7,0c1.6,0.6,2.5,1.9,3.2,3.4c0.1,0.2,0,0.5-0.1,0.7
		c-0.1,0.3-0.3,0.5-0.4,0.7c-0.2,0.5-0.3,1.2-0.6,1.4c-0.8,0.4-1.7,0.6-2.6,0.8C47.9,106,46.1,103.9,46.5,102.2z"/>
	<path class="st1" d="M14.2,102.4c0-1.3,0.6-2.1,1.4-2.9c0.7-0.6,1.2-0.5,1.8-0.1c0.3,0.2,0.5,0.5,0.8,0.6c1.9,0.5,1.8,2,1.8,3.4
		c0,0.8-2,2.2-2.7,1.9c-1-0.4-1.9-0.9-2.8-1.5C14.2,103.7,14.3,102.9,14.2,102.4z"/>
	<path d="M32.9,83.2c-0.1,0.7-0.2,1.3-0.2,2c0,1.4,0,2.8,0,4.2c0,1.2-1.1,2.3-2.3,2.3c-1.7,0.1-3.4,0.2-5.1,0.2
		c-1.9,0-3.9-0.2-5.8-0.4c-1-0.1-1.5-0.9-1.2-1.8c0.3-0.8,0.7-1.6,1.1-2.4c0.7-1.3,1.4-2.7,2.1-4c0.1-0.2,0.2-0.5,0.2-0.8
		c0.1-1,0.6-1.3,1.5-1.3c1.5,0,3-0.1,4.4-0.2c1.3,0,2.6-0.1,3.9,0C32.6,81.1,32.8,81.4,32.9,83.2z"/>
	<path d="M40.8,81.1c1.7,0.1,3.4,0.3,5,0.4c1,0.1,1.7,0.6,2,1.7c0.5,1.8,1.1,3.5,1.6,5.3c0.2,0.7,0.3,1.5,0.2,2.2
		c-0.1,0.4-0.7,1-1.2,1.1C46.6,92,44.7,92,42.9,92c-0.9,0-1.7-0.1-2.7,0.1s-2.3-0.2-3.3-0.7c-0.5-0.2-0.8-1.2-0.8-1.9
		c0-0.7,0.5-1.3,0.6-2s0-1.5,0-2.2c0-1-0.1-2,0.1-2.9c0.1-0.4,0.7-0.9,1.1-1C38.8,81.2,39.8,81.2,40.8,81.1z"/>
	<path class="st1" d="M21.5,88.9c0.3-0.7,0.8-1.5,1.1-2.3c0.3-0.8,0.6-1.7,1-2.5c0.1-0.3,0.5-0.6,0.8-0.6c1,0,1.9,0.1,2.9,0.1
		c0.9,0,1.7,0,2.6,0c0.6,1.7,0.2,3.4,0,5.1c0,0.2-0.4,0.4-0.6,0.4c-0.6,0.1-1.2,0.2-1.8,0.2c-1.3,0.1-2.5,0.2-3.8,0.2
		C23,89.5,22.4,89.2,21.5,88.9z"/>
	<path class="st1" d="M39.3,89.1c-1.3-1.8,0.3-3.5-0.4-5.4c2.3,0,4.4,0,6.6,0c0,0.4,0,1,0.1,1.5c0.1,0.6,0.3,1.2,0.5,1.8
		c0.3,0.7,0.6,1.4,1.1,2.4C44.3,89.1,41.7,89.6,39.3,89.1z"/>
</g>
</svg>
