<?xml version="1.0" encoding="utf-8"?>
<!-- Generator: Adobe Illustrator 25.0.0, SVG Export Plug-In . SVG Version: 6.00 Build 0)  -->
<svg version="1.1" id="圖層_1" xmlns="http://www.w3.org/2000/svg" xmlns:xlink="http://www.w3.org/1999/xlink" x="0px" y="0px"
	 viewBox="0 0 523.7 523.7" style="enable-background:new 0 0 523.7 523.7;" xml:space="preserve">
<style type="text/css">
	.st0{fill:#FFFFFF;}
</style>
<path class="st0" d="M14.6,14.6c19.5-19.5,51.2-19.5,70.7,0l176.8,176.8L438.9,14.6c19.9-19.2,51.5-18.6,70.7,1.2
	c18.7,19.4,18.7,50.1,0,69.5L332.8,262.1l176.8,176.8c19.2,19.9,18.6,51.5-1.2,70.7c-19.4,18.7-50.1,18.7-69.5,0L262.1,332.8
	L85.3,509.6c-19.9,19.2-51.5,18.6-70.7-1.2c-18.7-19.4-18.7-50.1,0-69.5l176.8-176.8L14.6,85.3C-4.9,65.8-4.9,34.2,14.6,14.6
	L14.6,14.6z"/>
</svg>
