<?xml version="1.0" encoding="utf-8"?>
<!-- Generator: Adobe Illustrator 25.0.0, SVG Export Plug-In . SVG Version: 6.00 Build 0)  -->
<svg version="1.1" id="_xEFF5__xEED3__x5F_4" xmlns="http://www.w3.org/2000/svg" xmlns:xlink="http://www.w3.org/1999/xlink"
	 x="0px" y="0px" viewBox="0 0 349.9 502.9" style="enable-background:new 0 0 349.9 502.9;" xml:space="preserve">
<style type="text/css">
	.st0{fill:#FFFFFF;}
	.st1{fill:#FDD23E;}
	.st2{fill:#FCD475;}
</style>
<g>
	<g>
		<path d="M60.9,434.6c-0.1-1.2,0.1-2.3,1-3.2c0.2-0.2,0.2-0.5,0.4-0.8c0.6-1.2,1.3-2.5,1.9-3.7c0.1-0.2,0.2-0.3,0.3-0.4
			c0.6-2,1.4-3.8,3-5.2c0.4-0.3,0.3-1.1,0.4-1.7c0.2-1.4,0.6-2.6,1.6-3.8c0.8-1,1.2-2.4,2.4-3.2c0.2-0.1,0.2-0.4,0.2-0.6
			c0.5-2.1,1.2-4,2.3-5.8c0.2-0.4,0.3-0.9,0.5-1.3c0.2-0.5,0.3-1.2,0.7-1.6c1.4-1.7,2.2-3.8,3.4-5.7c0.4-0.7,0.6-1.6,0.8-2.5
			c0-0.1,0-0.3,0.1-0.3c1.4-1.7,1.4-4.2,3.3-5.6c0.6-0.4,0.9-0.9,0.8-1.6c0-0.3,0.1-0.7,0.2-1c1.5-2.1,2.2-4.5,3.3-6.8
			c0.2-0.5,0.6-0.9,0.9-1.3c0.3-0.4,0.7-0.9,0.8-1.3c0.3-1.2,1-2,1.7-3c1.1-1.3,1.7-2.9,1.9-4.6c0.1-0.6,0.3-1.3,0.7-1.7
			c0.9-0.7,1.3-1.7,1.5-2.7c0.4-2.1,1.7-3.7,2.4-5.6c0.7-1.7,1.5-3.3,2.3-4.9c0.1-0.3,0.2-0.5,0.4-0.8c0.9-1.1,1.4-2.5,2-3.8
			c1.1-2.5,2.3-4.8,3.5-7.2c0.4-0.7,0.9-1.3,1.4-2c0.2-0.3,0.6-0.7,0.6-1c0.2-1.6,1-2.8,1.7-4.2c0.8-1.6,1.6-3.3,2.4-4.9
			c0.4-0.8,0.9-1.5,1.4-2.2c1.1-1.3,1.2-3,1.9-4.4c0.4-0.8,0.9-1.6,1.4-2.3c0.7-1,1.1-2.3,1.5-3.4c0.2-0.4,0.1-0.9,0.4-1.2
			c1.4-1.7,2-3.8,2.8-5.8c0.3-0.8,0.8-1.4,1.2-2.2c0.6-1.3,1.2-2.6,1.9-3.9c0.1-0.2,0.2-0.5,0.3-0.6c1.9-1.7,2.2-4.3,3.7-6.2
			c0.1-0.1,0.1-0.3,0.1-0.4c-2.1-0.9-4.1-1.8-6.2-2.7c-0.3,0.1-0.7,0.3-0.9,0.5c-1-0.5-1.8-1-2.8-1.4c-0.7-0.3-0.9-0.7-0.8-1.4
			c0.1-0.6,0.2-1.2,0.4-1.7c0.7-1.5,1.4-2.9,2.1-4.3c0.1-0.2,0.3-0.3,0.3-0.4c0.2-1.5,0.8-2.9,1.5-4.2c0.4-0.8,0.7-1.7,1.1-2.5
			c0.5-1.1,1.2-2.1,1.3-3.4c0-0.5,0.2-1.1,0.6-1.4c0.6-0.7,0.8-1.5,1.1-2.3c0.3-0.8,1-1.3,1.7-2.2c0.2-1,0.5-2.2,0.8-3.4
			c0.6-3,1.7-5.8,2.6-8.7c0.4-1.1,0.2-2.4,0.2-3.6c0-0.6,0-1.3,0.3-1.9c0.6-1.1,0.5-2.3,0.1-3.2c-1.1-2.2-0.7-4.5-0.5-6.7
			c0.1-0.9,0-1.8-0.1-2.8c0-0.9,0-1.7,0-2.6c0-1.3,0-2.5,0-3.8c0-0.1,0-0.1,0-0.2c0-1.9,0-3.8,0-5.7c0-0.5,0-1,0-1.6
			c0-1.6-0.3-3.1,0-4.7c0.2-1.3,0.1-2.7,0.3-4.1c0.1-0.9-0.4-1.9-0.5-2.9c-0.1-0.6-0.2-1.3-0.1-1.9c0.2-1.4,0.6-2.9,0.2-4.3
			c0-0.1-0.1-0.2,0-0.3c0.8-2.1-0.2-4.2-0.2-6.4c0-0.2,0-0.4,0-0.5c0.7-1.3,0.1-2.4-0.4-3.9c-1.3,2.7-2.6,5.3-3.8,7.8
			c-0.9,1.9-2.3,3.5-2.9,5.6c-0.1,0.4-0.5,0.6-0.8,0.9c-0.2,0.3-0.5,0.5-0.7,0.8c-0.8,1.5-1.4,3.2-2.3,4.7c-0.5,0.9-1.2,1.7-2,2.4
			c-0.5,0.4-0.8,0.8-0.8,1.4c0.1,0.9-0.4,1.6-1,2.3c-0.7,0.9-1.2,2-1.8,2.9c-0.1,0.2-0.2,0.5-0.4,0.6c-1.3,0.7-1.7,2.2-2.6,3.2
			c-1.5,1.6-3.3,3-5.7,3.1c-0.3,0-0.8,0-1,0.1c-1.4,1-3.1,0.7-4.7,1c-2.3,0.4-4.4,0.4-6.7-0.2c-1.1-0.3-2.2-0.4-3.1-1
			c-2.4-1.4-4.6-3.2-5.8-5.7c-0.7-1.5-1.6-3.1-1.4-5c0.1-1.1-0.1-1.9-1-2.6c-0.8-0.6-1-1.6-1-2.5c-0.1-1.5-0.3-3-0.5-4.5
			c-0.3-2.1-0.6-4.3-0.8-6.4c-0.2-2.2-0.4-4.4-0.5-6.6c-0.1-1.1,0-2.2,0.1-3.3c0-0.2,0.1-0.4,0.1-0.5c-1-3-0.6-6.1-1.3-9.2
			c-0.2-0.8-0.1-1.6-0.1-2.5c0-0.5,0-1-0.1-1.6c-0.3-1.8-0.7-3.7-1-5.5c-0.1-0.4-0.1-0.8,0-1.2c0.2-1.3,0-2.4-0.3-3.7
			c-0.5-1.8-0.3-3.8-0.4-5.7c0-0.6-0.1-1.2-0.2-1.9c-0.1-0.5-0.2-1-0.2-1.5c-0.1-1.8,0.3-3.7-0.2-5.4c-0.5-1.7-0.1-3.3-0.4-4.9
			c-0.4-1.8-0.6-3.7-0.8-5.6c0-0.3,0-0.7,0.1-1c0.3-1.3,0.5-2.6-0.2-3.9c-0.4-0.8-0.4-1.8-0.5-2.7c-0.1-1.3-0.1-2.7-0.2-4
			c0-0.2,0-0.5,0-0.7c-0.5-2.4-0.9-4.9-0.9-7.4c0-0.2,0-0.4-0.1-0.5c-1.4-1.7-1.2-3.8-1.7-5.8c-0.7-3.1-0.2-6.3-0.4-9.4
			c-0.1-1.9,1.5-3.3,3.4-3.1c0.4,0,0.8,0,1.2-0.1c0.9-0.3,1.7-0.2,2.6,0.2c1.3,0.6,2.5,0.7,3.8,0c0.6-0.3,1.5-0.5,2-0.2
			c1.1,0.5,2.2,0.6,3.5,0.6c0.7,0,1.4-0.1,2.1-0.2c1.8-0.3,3.8-0.6,5.4-0.1c1.5,0.4,2.8,0.1,4.2,0.2c1.2,0.1,2.4,0.1,3.6,0.3
			c0.4,0.1,0.9,0.4,1.1,0.8c1.1,1.6,2,3.4,2.7,5.3c0.5,1.5,1.1,2.9,1.6,4.4c0.5,1.5,1,3,1.3,4.5c0.3,1.1-0.3,2.1-1.3,2.6
			c-0.8,0.4-1.2,1-1.6,1.8c-0.7,1.6-1.4,3.2-2.3,4.7c-0.7,1.1-1.6,2-2.4,3c-0.8,1.1-2,1.3-3.3,1.3c-0.2,0.8-0.4,1.5-0.6,2.4
			c1,0.8,1.2,1.8,1.3,3c0.3,2.5,0.8,5,2,7.3c0.1,0.3,0.2,0.5,0.3,0.8c0.8,3.5,1.6,7.1,2.4,10.6c0,0.2,0.1,0.3,0.3,0.7
			c0.3-0.5,0.6-0.8,0.7-1.2c0.4-1.7,1.4-3.1,2.4-4.5c0.6-1,1.3-1.9,1.8-3c0.2-0.5,0.1-1.2,0.3-1.7c0.5-1.2,1.2-2.4,1.7-3.6
			c0.3-0.6,0.5-1.1,0.8-1.7c0.1-0.2,0.1-0.5,0.2-0.7c0.9-1.9,2-3.7,2.8-5.6c0.8-1.9,2.2-3.4,2.5-5.5c0.1-0.4,0.4-0.8,0.7-1.2
			c1.2-1.8,2.1-3.8,2.6-5.9c0.1-0.5,0.1-1.1-0.1-1.7c-0.6-2,0.3-3.4,2.3-3.7c0.3-0.1,0.8,0,1-0.2c1.3-1.2,2.8-1.1,4.3-0.8
			c1.1-1.3,2.3-2.1,4.1-2.4c1.4-0.3,2.6-1.3,3.9-1.9c2.4-1,4.8-2,7.2-3c0.6-0.3,1.2-0.7,1.8-1.1c1.3-1,2.6-1.5,4.2-0.8
			c0.9-3.3,2.5-3.2,4.1-2.1c2.3-1.5,4.5-3,6.7-4.5c0.1-0.1,0.4-0.1,0.5-0.2c1.3-2.1,3.7-2.3,5.7-3.7c0.1-0.9,0.1-2,0.2-3.1
			c-0.9-0.7-1.8-1-2.8-0.6c-0.5,0.2-1.2,0-1.7-0.1c-1.7-0.6-3.5-0.9-5.3-0.5c-0.6,0.2-1.3,0-1.9,0.1c-0.6,0.1-1.1,0.1-1.7,0.3
			c-1.6,0.6-2.9,0.3-3.5-1.3c-0.7-1.8-1.4-3.6-0.4-5.6c0.4-0.8,0.3-1.6-0.1-2.5c-0.3-0.7-0.6-1.6-0.3-2.2c0.6-1.3,0.2-2.5,0.1-3.7
			c-0.1-0.9,0-1.9,0-2.8c-0.1-2.1-0.3-4.3-0.3-6.4c0-0.6,0.2-1.1,0.3-1.7c0.1-0.6,0.4-1.3,0.2-1.9c-0.5-1.7-0.5-3.4-0.5-5.2
			c0-1.1-0.3-2.3-0.4-3.4c0-0.6,0.1-1.2,0.3-1.7c0.5-1,0.6-2,0.2-3c-0.7-1.8-0.5-3.6-0.4-5.5c0.2-2.6,1-5.1,0.6-7.8
			c0.9-2.1-0.4-4.3,0.4-6.4c0.1-0.2,0-0.4-0.1-0.7c-1,0.8-2,1.5-3,2.2c-1.4,1-2.8,2.1-4.3,2.9c-1.1,0.6-2.3,1.1-3.5,1.5
			c-1.7,0.5-3.5-1.4-3.1-3.2c0.2-1.1,0.8-2.1,1.2-3.1c0.2-0.5,0.4-1,0.6-1.6c0.2-1,0.2-2,0.5-2.9c0.8-2.5,1.8-5,2.7-7.5
			c0.1-0.4,0.2-0.8,0.3-1.2c0.3-1.8,0.6-3.5,2.3-4.5c0.3-0.2,0.3-0.7,0.4-1.1c0.1-0.6,0-1.3,0.3-1.7c1.1-1.6,1.4-3.6,1.6-5.4
			c0.3-1.8,1-3.5,1.6-5.1c0.5-1.6,1.5-3,2.4-4.5c0.2-0.4,1.2-0.8,1.5-0.6c1.4,0.8,2.8,0.2,4.2-0.1c1.1-0.2,2.1-0.7,3.2,0.1
			c0,0,0.1,0.1,0.2,0c1.4-0.5,2.7,0,4,0c2.5,0,5-0.3,7.5,0c1.7,0.2,3.4-0.1,5.1,0c2.6,0.1,5.1,0.5,7.7,0.4c1.9-0.1,3.6,0.8,5.5,0.4
			c0.7-0.1,1.5,0.2,2.2,0.5c1.3,0.5,2.7,0.5,4.1,0.5c1.6,0,3.1,0.4,4.6,0.8c2.1,0.6,4,1.6,6.1,2.1c2,0.5,4,0.7,6,1
			c0.5,0.1,1,0.2,1.5,0.3c1.2,0.3,2.5,0.6,3.7,1c1.1,0.3,2.2,0.5,3.2,0.9c0.9,0.4,1.7,0.7,2.6,0.7c0.5,0,1.1,0.7,1.3,1.2
			c0.9,1.9,0.8,3.8-0.1,5.6c-0.7,1.3-0.2,2.6-0.2,3.9c0,0.6,0.6,0.9,1.3,1c0.6,0.1,1.2,0.6,1.8,0.9c1,0.6,1.9,1.3,2.9,1.9
			c0.8,0.5,1.2,1.2,1.3,2.2c0.2,2.2-0.2,4.1-1.3,6.1c-0.7,1.2-1,2.7-1.5,4.1c-0.3,0.9-0.7,1.7-1.1,2.5c-0.5,1.2-1,2.4-1.5,3.5
			c-0.5,1.1-0.9,2.1-1.4,3.2c-0.3,0.7-0.6,1.5-1,2.2c-0.7,1.5-1.4,3.1-2.1,4.6c-0.8,1.5-1.7,3-2.5,4.6c-0.2,0.4-0.2,0.8-0.5,1.1
			c-0.7,1-0.8,2-0.4,3.1c0.7,1.8-0.1,3.4-0.7,5.1c-0.2,0.6-0.4,1.2-0.6,1.8c-0.3,0.7-0.6,1.4-1.1,2c-1.7,2.6-4.3,4-7.6,4.6
			c-0.3,1.6-0.6,3.1-0.9,4.7c-0.1,0.3,0,0.7-0.1,1c-0.5,2-1,4-1.5,5.9c-0.1,0.4-0.1,0.9-0.2,1.4c-0.1,0.5-0.1,1-0.3,1.3
			c-0.9,1.4-0.9,2.9-1,4.4c-0.1,0.8-0.2,1.6-0.5,2.4c-0.4,1.2-1,2.3-1.6,3.6c1.1,0.5,1.9,1.6,3.3,1.5c0.4,0,0.9,0.2,1.1,0.4
			c1.5,1.5,3.9,1.7,5.2,3.5c0.3,0.3,0.8,0.5,1.2,0.7c1.7,0.8,3.4,1.7,5.2,2.5c0.2,0.1,0.4,0.4,0.7,0.7c1.2-0.5,2.3-0.4,3.4,0.4
			c0.4,0.3,1,0.3,1.5,0.5c2.3,0.6,4.6,1.3,6.9,1.9c0.7,0.2,1.4,0.5,2,1c0.7,0.6,1.5,1,2.4,0.8c1.7-0.3,2.9,0.9,4.3,1.4
			c1.4,0.4,2.7,1,4.1,1.5c1.4,0.5,2.7,1.1,4.2,1c0.1,0,0.3,0,0.3,0.1c1.2,1,2.9,0.8,4.3,1.4c0.7,0.2,1.3,0.6,1.9,0.9
			c0.5,0.3,1,0.6,1.6,0.8c1.8,0.5,3.8,0.8,5.5,1.6c2,0.9,4,1.8,6.2,2.1c1.2,1.3,2.7,1.5,4.3,1.7c1.1,0.1,2.1,0.8,3.1,1.2
			c1.2,0.5,2.2,1.4,3.6,1.3c0.2,0,0.4,0.1,0.5,0.1c3.6,1.9,7.6,2.6,11.4,4c2.3,0.9,4.7,1.9,7.1,2.5c3.6,1,6.7,2.9,10.1,4.2
			c1.8,0.7,3.6,1.2,5.4,1.9c1.5,0.6,2.9,1.5,4.3,2.3c0.8,0.4,1.6,0.9,2.5,1.1c1.7,0.5,2.7,1.8,3.6,3.2c0.2,0.2,0.1,0.6,0.3,0.8
			c1.8,1.7,1.1,3.5,0.4,5.3c-0.1,0.3-0.3,0.7-0.4,1c-0.3,0.6-0.3,1.2,0,1.8c0.7,1.5,0.4,4.4-0.3,5.9c-0.4,0.9-0.5,2-0.8,3
			c-0.1,0.6-0.1,1.2-0.2,1.7c-0.6,2-1.3,4-2,6c-0.1,0.3-0.1,0.7-0.1,1c0.1,1.1-0.2,2-1.1,2.6c-0.6,0.4-0.8,1-0.6,1.7
			c0.5,2,0,3.6-1.3,4.5c-0.3,2.1-0.4,3.8-0.8,5.5c-0.4,1.8-0.4,3.8-1.6,5.3c-0.1,0.1-0.1,0.2-0.1,0.3c0.8,2.1-0.9,3.7-1.1,5.6
			c-0.2,1.5-0.8,3.1-1.2,4.6c-0.1,0.3-0.2,0.6-0.3,0.8c-0.6,0.8-1,1.6-1.1,2.7c0,0.6-0.6,1.2-1,1.9c0.3,2.4,0.2,2.3-0.9,4.7
			c-0.5,1.1-0.8,2.4-0.9,3.7c-0.2,2-0.3,3.9-1.3,5.8c-0.4,0.6-0.6,1.5-0.5,2.2c0,1.5-0.5,2.5-2,2.9c-0.1,0-0.2,0.1-0.3,0.2
			c0,0-0.1,0.1-0.2,0.3c0.1,0.3,0.2,0.7,0.4,1c0.9,2.1,1.5,4.2,1.5,6.4c0,0.3,0,0.7,0.1,1c0.5,1.9,0.8,3.8,1.4,5.7
			c0.3,1.1,0.4,2.2,1.1,3.2c0.1,0.2,0.2,0.6,0.2,0.8c-0.5,1.9,0.5,3.4,1.1,5c0.8,2.1-0.1,4.5-2.2,5.7c-1.6,0.9-3.3,1.5-5.1,1.2
			c-0.2,0-0.5,0-0.6,0.2c-1.4,1.3-3.3,1.5-4.9,2.1c-2.2,0.8-4.6,1.2-6.9,1.7c-0.4,0.1-1,0.2-1.4,0c-1.2-0.6-2.2-0.1-3.3,0.5
			c-0.5,0.3-1.4,0.4-1.8,0.1c-1.2-0.6-2.4-1.4-3.4-2.3c-0.8-0.7-0.5-1.8-0.2-2.8c0.6-1.8,0.3-3.7,0.3-5.5c0-0.1-0.2-0.3-0.3-0.4
			c-0.4-0.4-0.7-0.8-1.1-1.1c-1.5-1.2-2.4-3-4.2-4.1c-0.9-0.6-1.4-1.9-2.1-2.9c-0.6-1.1-0.4-2.4,0.6-3.2c0.4-0.3,0.9-0.6,1.5-0.9
			c-0.2-1.8,0.6-3.4,1.9-4.8c0.3-0.3,0.3-0.7,0.5-1.1c0.2-0.4,0.3-1,0.6-1.2c1.3-0.8,1.7-2.1,2.5-3.3c1-1.6,2.2-3,3.3-4.5
			c0.2-0.3,0.4-0.6,0.6-1c-0.2-0.3-0.4-0.7-0.7-1c-0.7-0.9-0.8-1.9-0.2-2.8c0.7-1.2,0.7-2.5,0.8-3.9c0.1-3.1,0.2-6.2,1.8-9
			c0.2-0.3,0.1-0.9-0.1-1.3c-0.5-0.9-0.5-1.9-0.3-2.9c0.4-2.2,0.8-4.4,1.1-6.5c0.2-1.2-0.1-2.5,0.3-3.7c0.6-2.1,0.7-4.3,1-6.5
			c0.3-2.2,0.1-4.6,0.6-6.8c0.6-2.5,0-5.3,1.5-7.7c0.1-0.2,0-0.6,0.1-0.8c0-1.3,0.1-2.6,0.1-3.9c-3-0.8-6.2-1.9-9.4-2.6
			c-2-0.5-4-1.1-6-1.8c-0.3-0.1-0.6-0.1-0.9,0c-1.4,0.1-2.7-0.2-3.8-1c-0.3-0.2-0.6-0.5-0.9-0.4c-2.4,0.4-4.5-1-6.8-1.4
			c-2.5-0.4-4.9-1.5-7.3-2.3c-0.5-0.2-1.1-0.2-1.8-0.3c0,2.4-0.3,4.5,0,6.7c0.2,1-0.3,2-0.6,3.3c0.7,1,0.6,2.2,0.2,3.6
			c-0.4,1.2-0.1,2.5-0.1,3.8c0,0.4,0.1,0.9-0.1,1.2c-0.4,0.8-0.1,1.4,0.1,2.1c0.2,0.7,0.3,1.5,0,2.2c-0.4,1.3-0.5,2.6-0.3,4
			c0.1,0.4,0,0.9,0,1.4c0,0.9,0,1.8,0,2.8c0,0.2,0.1,0.5,0,0.7c-0.5,2-0.3,4.1-0.3,6.1c0,0.3,0.1,0.7-0.1,0.9
			c-1.2,1.7-0.7,3.5-0.6,5.3c0.1,2.2-0.4,4.3-0.9,6.4c-0.1,0.4-0.1,1,0.1,1.3c1.1,1.7,0.9,3.4,0.3,5.2c-0.1,0.2-0.3,0.4-0.2,0.5
			c1,1.9-0.8,3.9,0.1,5.9c0.3,0.6,0.2,1.4,0.2,2.1c-0.1,2.3-0.3,4.7-0.4,7c0,0.5,0.1,0.9,0.1,1.4c0,0.7,0.2,1.5-0.1,2.2
			c-0.3,0.8-0.3,1.6,0.1,2.4c0.2,0.4,0.4,1,0.3,1.3c-0.5,1.8,0,3.6-0.3,5.3c0,0.2-0.1,0.5-0.1,0.7c0.6,2.2,0.2,4.2-0.4,6.3
			c-0.1,0.3-0.1,0.7,0,1c1,3.2,2.1,6.3,3.1,9.5c0.2,0.6,0.3,1.1,0.4,1.7c0.3,1.3,0.3,2.8,1.5,3.8c0.6,2.3,2.4,4.1,2.8,6.6
			c0.2,1.3,0.8,2.6,1.6,3.6c1.1,1.5,1.5,3.3,2.2,4.9c0.2,0.5,0.1,1.2,0.2,1.8c1.3,0.8,2,2,2.4,3.5c0.1,0.5,0.3,1.1,0.6,1.4
			c1.2,1.3,1.5,2.9,2,4.4c0.7,1.9,1.2,3.9,2.8,5.3c1.1,1,0.8,2.5-0.5,3.3c-0.7,0.4-1.5,0.6-2.3,0.8c-3.4,0.6-6.8,1.2-10.2,1.8
			c-1.6,0.3-3.2,0.8-4.8,1.1c-0.7,0.1-1.5,0.1-2.3,0.2c-0.1,0.3-0.3,0.7-0.3,1.1c0,1.4,0.1,2.8,0.1,4.2c0,1.3-0.2,2.7-0.2,4
			c0,0.6,0,1.2,0.1,1.7c0.7,2,1.4,4,0.5,6.1c-0.1,0.3,0.1,0.9,0.3,1.3c0.8,1.3,0.8,2.6,0.2,3.9c-0.5,1.1-0.5,2,0.2,3
			c0.6,0.9,0.6,1.8,0.3,2.9c-0.5,1.2-0.4,2.3,0,3.6c0.4,1.4,0.4,3,0.4,4.5c0.1,1.3,0,2.6,0,3.9c1.4,0,2.6-0.1,3.7-0.8
			c1-0.6,2-0.8,3.1-1c1.4-0.3,2.8-0.5,4.1-1.4c0.7-0.5,1.7-0.4,2.7-0.6c0.9-0.4,1.9-1,3-1.4c3.1-1.2,6.1-2.3,9.2-3.3
			c1.2-0.4,2.4-0.5,3.6-0.8c0.3-0.1,0.6-0.1,0.9-0.2c2.7-1.1,5.4-2.3,8.2-3.4c0.6-0.3,1.3-0.5,2-0.6c1.7-0.1,3.3-0.5,4.8-1.6
			c0.7-0.5,1.8-0.5,2.6-0.8c1.4-0.5,2.8-1.3,4.2-1.6c2.5-0.5,4.7-1.7,7-2.5c1.5-0.5,3.1-0.8,4.6-1.2c0.7-0.2,1.4-0.5,2.1-0.8
			c2-1,3.9-2,5.9-3c1.2-0.6,2.4-1,3.5-1.6c0.3-0.1,0.7-0.4,1-0.4c2.1-0.1,3.9-1.2,5.7-2c0.4-0.2,0.8-0.3,1.2-0.3
			c0.7,0,1.3-0.4,1.9-0.7c1.6-0.9,3.3-1.4,5.2-1.3c0.3,0,0.9,0.3,0.9,0.6c0.2,1,0.8,1.9,0.4,3.1c-0.3,0.9,0.2,2.1,0.4,3.2
			c0.4,2.7,0.7,5.4,1.1,8.1c0.1,0.8,0.4,1.6,0.7,2.3c1.1,2.3,1.6,4.7,1.5,7.3c0,0.4,0.2,0.9,0.3,1.3c0.2,0.6,0.6,1.2,0.6,1.8
			c0.1,1.9,0.2,3.8,0.9,5.6c0.7,2,0,4.2,1.3,6.1c0.1,0.1,0.1,0.3,0.1,0.5c-0.4,2.5,1.1,4.9,0.7,7.5c-0.1,0.6,0.4,1.3,0.5,2
			c0.1,1,0.3,2,0.2,2.9c-0.1,1.2-1.1,2-2.4,1.7c-0.6-0.1-1.3-0.2-1.8-0.6c-1.6-1.1-3.5-1.8-3.9-4c-0.1-0.4-0.6-0.7-0.9-0.9
			c-2.4-1.5-4.6-3.2-6.1-5.7c-0.4-0.7-1.3-1.2-1.9-1.7c-0.2-0.1-0.5-0.2-0.6-0.4c-0.7-0.9-1.3-2.1-2.2-2.7c-0.9-0.6-1.8-1.2-2.5-2.2
			c-0.9-1.2-2-1.5-3.3-0.8c-2.6,1.3-5.2,2.6-7.9,3.8c-1.9,0.8-3.8,1.5-5.7,2.3c-0.5,0.2-0.9,0.7-1.4,1c-0.3,0.2-0.6,0.6-1,0.7
			c-4,1.1-7.3,3.6-11.2,4.8c-0.3,0.1-0.6,0.3-0.7,0.5c-0.5,1.3-1.8,1.7-2.9,2.2c-3.2,1.6-6.4,3.2-9.5,4.7c-0.4,0.2-0.8,0.2-1.2,0.4
			c-0.3,0.1-0.8,0.1-1,0.3c-1.1,1.4-2.7,1.8-4.2,2.4c-1.9,0.7-3.3,2.1-5.2,2.9c-0.7,0.3-1.4,0.6-2.1,0.9c-1.1,0.5-2.1,1-3.2,1.5
			c-0.2,0.1-0.3,0.2-0.4,0.3c-1.4,0.3-2.6,0.8-3.7,1.9c-0.3,0.3-1.1,0.3-1.7,0.3c-0.9-0.1-1.6,0.2-2,1c-0.4,0.9-1.1,1.2-2,1.6
			c-0.9,0.3-1.6,1.1-2.5,1.5c-0.8,0.4-1.8,0.2-2.6,0.8c-1.5,1.1-3.1,2-4.7,3c-1,0.7-2.1,1-3.4,0.4c-0.6,1.6-1.8,2.3-3.3,2.6
			c-0.9,0.2-1.9,0.5-2.5,1.5c-0.3,0.4-0.8,0.7-1.3,0.9c-1.6,0.8-3.3,1.6-5,2.2c-1.2,0.5-2.1,1.6-3.5,1.5c-0.2,0-0.5,0.3-0.6,0.6
			c-0.6,0.8-1.4,1.2-2.3,1.5c-1,0.3-1.9,0.6-2.6,1.4c-0.2,0.3-0.7,0.5-1,0.6c-1.2,0.3-2.3,0.8-3.3,1.6c-0.6,0.4-1.4,0.5-2.1,0.6
			c-0.9,0.2-1.7,0.2-2.2,1.1c-0.3,0.5-1.1,0.6-1.6,0.9c-0.9,0.5-1.8,0.9-2.7,1.3c-1.6-2-2-4.3-2.7-6.4c-0.3-0.8-0.6-1.6-1-2.4
			c-0.6-1.1-1-2.3-1.5-3.5c-0.6-1.5-1.2-3-1.9-4.5c-0.2-0.5-0.3-1-0.5-1.5c-0.1-0.3,0-0.7-0.2-0.8c-1.2-1.2-1.4-2.7-1.9-4.2
			c0-0.1-0.1-0.1-0.1-0.2c-0.8-1.1,0.1-2.7-1-3.6c-1.1-0.9-1.1-2.2-1.6-3.2c-0.9-1.6-1-3.4-1.7-5.1c-0.6-1.6-1.5-3.2-2-4.8
			c-0.4-1.4-1.4-2.6-1.2-4.2c0-0.4-0.3-1-0.6-1.4c-1.3-1.6-1.7-3.6-2.1-5.5c-0.1-0.6-0.4-1.2-0.7-1.7c-0.8-1.6-1.5-3.2-1.6-5
			c0-0.5-0.1-1-0.3-1.3c-1.6-2.1-1.9-4.7-3.3-6.9c-0.2-0.3-0.2-0.8-0.3-1.2c-0.3-1-0.6-2-0.9-3.1c-2,1.3-2.9,3.3-4.2,4.9
			c-1.7,2.1-2.9,4.5-5.3,5.9c-0.3,0.2-0.4,0.7-0.6,1c-0.6,0.9-1.1,1.9-1.8,2.8c-1.6,1.9-2.9,4-4.8,5.5c-0.2,0.2-0.3,0.6-0.5,0.9
			c-0.3,0.5-0.7,1.1-1.1,1.3c-1.2,0.4-1.6,1.4-2.3,2.3c-1.1,1.6-2.2,3.2-3.3,4.7c-0.4,0.5-1,1-1.6,1.3c-0.9,0.5-1.4,1.3-1.8,2.3
			c-0.2,0.6-0.7,1.2-1.1,1.7c-0.5,0.7-1.2,1.3-1.7,1.9c-0.7,0.8-1.4,1.6-2,2.4c-1.2,1.5-2.4,3-3.6,4.5c-1,1.3-2,2.7-3.1,4
			c-0.9,1.1-2,2.1-3,3.2c-0.2,0.3-0.3,0.6-0.5,0.9c-0.5,0.7-0.9,1.6-1.6,2c-1.4,0.9-2.2,2.2-3.1,3.5c-1,1.4-2.2,2.7-3.3,4
			c-0.9,1.2-1.7,2.4-2.6,3.5c-1.4,1.9-2.6,3.9-4.6,5.3c0,0-0.1,0.1-0.1,0.1c-0.9,2.6-3.4,4-4.9,6.1c-1.3,1.8-2.1,4.1-4.3,5.2
			c-0.4,0.2-0.6,0.9-0.8,1.3c-0.3,0.5-0.6,1.2-1,1.6c-1.2,1.3-2.5,2.5-3.7,3.9c-0.9,1-1.4,2.2-2.3,3.3c-0.5,0.6-1.1,1.1-1.8,1.3
			c-0.8,0.2-1.1,0.6-1.4,1.4c-0.3,0.8-0.6,1.7-1.1,2.4c-0.5,0.7-1.2,1.2-2.1,1.9c-0.2,1.7-1.4,3-3.1,4c-0.5,0.3-0.7,1.1-1.2,1.4
			c-1.4,0.8-1.8,2-2.2,3.4c-0.2,0.5-0.6,1-1.1,1.3c-1.5,1.1-2.8,2.2-3.9,3.8c-0.6,0.9-1.3,1.6-2,2.5c-0.2,0.3-0.4,0.6-0.5,0.9
			c-0.4,1.8-1.7,2.9-3.1,3.8c-1.2,0.8-1.8,2-2.6,3.1c-0.5,0.7-0.9,1.3-1.4,2c-0.8,1.1-1.6,2.2-2.6,3.2c-1.4,1.4-2.1,3.3-3.5,4.7
			c-0.6,0.5-1.1,1-1.7,1.5c-0.4,0.3-1,0.6-1.1,1c-0.5,1.9-2.1,2.9-3.4,4.2c-0.5,0.4-0.7,0.8-0.8,1.4c-0.1,0.6-0.4,1.3-0.9,1.7
			c-1.9,1.6-3.2,3.5-4.7,5.4c-0.9,1.2-1.9,2.5-3.2,3.4c-1.1,0.8-1.8,2.1-2.8,3.1c-0.5,0.5-1.1,0.9-1.6,1.4c-0.4,0.4-0.8,0.9-1.2,1.4
			c0,0,0,0.1-0.1,0.2c-1.2,1.3-1.6,3-2.6,4.4c-1,1.5-2.2,2.8-3,4.4c-0.3,0.5-0.9,0.9-1.5,1.2c-1.2,0.7-2.3,0.6-3.1-0.5
			c-1.1-1.6-2.8-2.1-4.6-2.6c-0.2-0.1-0.4,0-0.5-0.1c-1.9-0.9-3.7-2-5.6-2.8c-2.6-1.2-4.8-3-7.6-3.9c-1.7-0.5-3-1.9-4.5-2.9
			c-0.3-0.2-0.6-0.6-0.8-0.6c-1.7,0.4-2.9-1.1-4.5-1.2c-0.5,0-1-0.4-1.4-0.7c-1.2-0.8-2.2-1.8-3.8-2c-0.9-0.2-1.7-0.9-2.5-1.5
			c-1.2-0.8-2.5-1.2-3.8-1.6c-1.1-0.3-2-1.1-2.9-1.9c-1.3-1.1-0.9-3.3,0.9-3.8c1.7-0.5,3.3-1.3,5.3-0.9c1.3,0.2,2.8-0.4,4.2-0.2
			c3,0.3,5.8-0.7,8.6-1.1c1-0.1,2.1-0.3,3.1-0.3c1.7,0,3.3-0.8,5-0.1c0.1,0.1,0.4,0,0.5,0c3-0.9,6.1-0.7,9.2-1
			c1.4-0.1,2.7-0.2,3.5-1.6c2.4-1.1,2.5-4,4.2-5.6c0,0,0.1-0.1,0.1-0.1c-0.1-1.7,0.8-3.1,1.7-4.4c0.7-1.1,1.3-2.3,2.1-3.4
			c0.4-0.5,0.5-1,0.7-1.5c1.2-2.8,1.7-5.9,3.7-8.4c1.3-1.7,2.5-3.7,2.9-5.9c0-0.1,0-0.3,0.1-0.3c1.4-1.5,1.6-3.6,2.7-5.3
			c0.4-0.5,0.8-1,1.2-1.5C60.6,434.5,60.7,434.6,60.9,434.6z"/>
		<path class="st0" d="M151.7,150.2c-0.8-1.5-1.1-3-2.3-4.1c-0.6-0.5-0.6-1.6-1.2-2.1c-1.2-1.2-2-2.6-3-3.8c-0.5-0.6-1.1-1-1.7-1.5
			c-0.8-0.7-1.8-1.3-2.3-2.4c-0.3-0.7-0.9-1.2-1.4-1.8c0.1-0.2,0.2-0.5,0.4-0.6c2.5-1.3,3.6-3.8,5.1-5.9c0.5-0.7,1.3-1.3,1.3-2.4
			c0.1-1.6-0.5-2.2-2.1-1.6c-0.5,0.2-1,0.6-1.4,1c-1.2,1.2-2.3,2.5-3.5,3.7c-0.2,0.2-0.4,0.3-0.5,0.5c-1.1,1.7-2.2,3.4-3.2,5.2
			c-0.5,0.8-0.5,1.8,0.1,2.7c0.6,0.8,1.3,1.5,1.9,2.3c0.6,0.7,1.3,1.5,1.9,2.2c0.5,0.7,0.9,1.5,1.4,2.2c0.9,1.1,1.8,2.1,2.5,3.3
			c0.8,1.2,1.8,2.3,2.8,3.3c0.7,0.6,1.6,0.8,2.7,1.3c-0.2,0.4-0.4,0.8-0.8,1.2c-1.1,1.1-2.3,2.2-3.4,3.3c-0.4,0.4-0.8,1-1,1.6
			c-0.5,1-1,1.8-2,2.3c-1.6,0.8-2,2.5-2.5,4.1c-0.2,0.7,0.3,1.4,1,1.7c0.6,0.3,0.8,0.8,1,1.3c0.5,1.3,1.1,2.6,1.7,3.8
			c0.6,1.1,1.3,2.1,1.1,3.4c0,0.3,0.1,0.7,0.3,1c1,2.1,2,4.2,3.1,6.2c0.3,0.6,0.8,1,1.2,1.5c0.9,0.9,1.3,2,1.4,3.3
			c0.1,0.7,0.4,1.5,0.7,2.1c0.6,1.1,1,2.2,1.4,3.4c0.6,1.7,1.5,3.3,2.3,4.9c0.1,0.3,0.4,0.5,0.5,0.7c0.3,2.3,1.5,4.2,2.6,6.2
			c0.7,1.3,1,2.7,1.6,4.1c1.5,3.7,2.9,7.4,5.1,10.7c0.2,0.4,0.5,0.8,0.6,1.2c0.1,0.9,0.4,1.6,1.1,2.2c0.6,0.6,1,1.3,1,2.2
			c0,0.1,0,0.3,0,0.3c1.2,2,1.7,4.3,3.4,5.9c0.4,0.4,0.9,0.8,1.2,1.2c0.6,0.8,1,1.5,0.5,2.6c-0.4,0.9-0.5,2,0.3,2.6
			c1.2,1,2.5,1.8,3.9,2.5c0.5,0.2,1.5-0.1,2.1-0.4c0.8-0.6,1.5-1.4,2-2.2c1.7-2.9,3.3-5.8,5.6-8.2c0.3-0.3,0.6-0.8,0.7-1.2
			c0.4-1.4,1.2-2.4,2.2-3.3c1.2-1,2.4-2.1,3.4-3.2c0.7-0.9,1.2-2,1.8-2.9c0.4-0.6,0.6-1.4,1.1-1.9c1.4-1.4,2.8-2.8,3-5
			c0-0.3,0.4-0.7,0.7-0.9c0.4-0.4,1-0.7,1.1-1.1c0.3-1.8,1.8-3,2.2-4.7c0.1-0.2,0.1-0.5,0.3-0.6c1.2-0.7,1.9-2,2.7-3.1
			c0.5-0.7,1-1.4,1.4-2.2c0.4-0.9,0.6-1.7,1.6-2.2c0.4-0.2,0.7-0.6,0.9-1c1.3-2.2,2.6-4.4,3.9-6.6c0.1-0.2,0.2-0.5,0.3-0.6
			c1.3-0.5,1.7-1.7,2.3-2.8c0.4-0.6,0.9-1.2,1.5-1.7c1.4-1.1,2.2-2.5,2.8-4.1c0.3-0.9,1.2-1.5,1.8-2.3c0.5-0.7,1-1.5,1.6-2.3
			c0.8-1.1,1.6-2.2,2.4-3.3c0.4-0.6,0.7-1.2,1-1.8c0.1-0.2,0.2-0.5,0.3-0.6c1.4-1.6,2.5-3.5,3.5-5.4c0.2-0.3,0.6-0.5,0.9-0.7
			c1.3-0.8,1.8-1.8,1.6-3c-0.3-1.2-1.2-2-2.6-2.2c-0.3,0-0.6-0.1-0.9-0.1c-0.2-0.4-0.5-0.8-0.7-1.2c-0.5-0.9-1.2-1.6-2.1-2
			c-0.4-0.2-0.8-0.5-1.1-0.8c-0.8-0.7-1.4-1.5-2.2-2.2c-0.4-0.4-1-0.6-1.6-1.1c0.5-0.5,0.8-1.1,1.3-1.5c1.6-1.4,3.2-2.8,4.5-4.7
			c0.8-1.2,2.1-2.1,3.2-3.2c0.7-0.7,1.2-1.4,1.8-2.1c0.3-0.3,0.6-0.7,1-0.9c0.9-0.4,1.5-1.1,2-1.9c0.5-0.9,0.9-1.7,1.7-2.4
			c0.9-0.7,0.8-1.9,0-2.8c-0.3-0.5-0.8-0.9-0.9-1.5c-0.3-1.2-1-2.1-1.9-3c-0.9-0.9-1.5-2.2-2.5-3c-0.1-0.1-0.2-0.2-0.4-0.4
			c-1.2-1-2.3-1.2-3.2-0.5c-0.9,0.7-1.1,1.9-0.3,3.2c0.6,1.1,1.5,2.1,2.3,3.1c0.1,0.2,0.4,0.3,0.5,0.5c0.6,0.9,1.3,1.9,2,2.9
			c-0.2,0.1-0.7,0.4-1.1,0.7c-0.3,0.2-0.8,0.4-1,0.7c-1.4,2.3-3.7,3.8-5.5,5.8c-2.3,2.7-5.2,4.7-7.5,7.3c-0.9,1-1.6,2.3-2.2,3.5
			c-0.5,1.2,0.2,2.6,1.4,3.3c0.7,0.5,1.3,1.1,2,1.7c0.8,0.7,1.6,1.5,2.5,2.1c1.8,1.3,3.4,2.8,5.6,3.5c0.1,0,0.2,0.2,0.4,0.5
			c-0.2,0.3-0.5,0.6-0.7,0.9c-1,1.2-2,2.3-2.7,3.6c-0.7,1.2-1.8,2.1-2.7,3.2c-1,1.3-2,2.6-3,3.9c-0.2,0.3-0.4,0.7-0.6,1.1
			c-0.7,1.3-1.1,2.6-2.4,3.5c-0.9,0.7-1.3,1.9-2,2.8c-0.7,0.9-1.4,1.9-2.1,2.8c-0.2,0.3-0.7,0.5-0.8,0.9c-0.6,2-2.5,3.2-3.5,4.9
			c-1.1,1.7-2.9,3-3.2,5.2c-0.1,0.5-0.8,1-1.3,1.4c-0.8,0.6-1.4,1.2-1.7,2.2c-0.1,0.3-0.3,0.6-0.5,0.9c-1.2,1.6-1.8,3.6-3.2,5.1
			c-0.5,0.5-0.7,1.4-1.4,1.9c-0.4,0.3-0.8,0.9-0.8,1.3c0,1.3-0.8,2.1-1.6,2.9c-0.6,0.6-1,1.4-1.3,2.2c-0.5,1.4-1,2.9-2.5,3.7
			c-0.3,0.2-0.6,0.6-0.8,0.9c-1,1.7-2,3.4-3.1,5.1c-0.5,0.8-1.1,1.8-1.8,2.3c-1.7,1.2-2.4,3.1-3.6,4.7c-0.4,0.5-0.8,1-1.3,1.5
			c-0.1-0.1-0.3-0.2-0.4-0.3c0.2-0.4,0.3-0.8,0.6-1.1c1.2-1.3,1.7-2.9,2.2-4.5c0.4-1.6,0.8-3.1,1.6-4.6c1-1.8,1.6-3.9,2.5-5.8
			c0.7-1.5,1.5-2.9,2.3-4.3c0.6-1.1,1.2-2.3,1.7-3.5c0.2-0.5,0.3-1,0.4-1.5c0-0.9,0.2-1.7,1-2.3c0.4-0.4,0.8-1.1,0.8-1.7
			c0-1.4,0.6-2.5,1.2-3.6c1.2-2,1-4.3,1.2-6.6c0.2-0.1,0.5-0.4,0.8-0.6c0.9-0.5,1.3-1.3,1.4-2.3c0-0.5,0-1,0.2-1.4
			c1-1.3,1.2-2.9,1.6-4.4c0.2-0.7,0.6-1.4,0.9-2.1c0.3-0.7,0.5-1.4,0.8-2.1c0-0.1,0-0.1,0-0.2c1.2-2.1,1.2-4.6,2.8-6.5
			c0.3-0.4,0.6-0.9,0.8-1.4c0.8-3.1,2.8-5.8,3.7-8.8c0.3-0.9,0.4-1.8,0.7-2.7c0.1-0.3,0.2-0.5,0.3-0.8c0.7-1.3,1.4-2.6,2-4
			c0.7-1.5,1.2-3.2,1.8-4.7c0.5-1.3,0.9-2.6,1-4.1c0.1-1.1,0.9-2.2,1.4-3.3c0.8-1.9,1.7-3.7,2.5-5.6c0.2-0.5,0.2-1,0.3-1.5
			c0.1-0.3,0-0.8,0.2-1c0.9-0.8,1.2-1.8,1.1-3c0-0.2,0-0.5,0.1-0.7c1.5-1.8,1.5-4.1,1.9-6.3c0.2-0.7,0.4-1.3,0.7-2
			c0.5-1.3,1.1-2.5,1.6-3.9c0.2-0.8,0.2-1.7,0.3-2.7c1,0.1,1.9,0.3,2.9,0.8c1.4,0.8,2.8,1.4,4.5,1.3c0.4,0,0.9,0.1,1.1,0.3
			c1.4,1.3,3,1.7,4.8,1.9c1.6,0.1,2.9,1.1,4.4,1.5c1.3,0.4,2.5,0.8,3.6,1.7c0.1,0.1,0.3,0.2,0.5,0.2c1.5,0,2.6,1,3.9,1.4
			c0.9,0.3,1.8,0.4,2.7,0.7c0.3,0.1,0.7,0.1,1,0.2c1.8,0.7,3.6,1.7,5.5,2.2c2.2,0.6,4.3,1.3,6.3,2.3c0.3,0.2,0.8,0.1,1.2,0.1
			c0.8-0.1,1.3,0.2,2,0.7c1.1,0.7,2.4,1.2,3.7,1.5c1.4,0.4,2.9,0.4,4.1,1.4c0.2,0.2,0.5,0.3,0.8,0.3c2.5,0.8,5,1.6,7.5,2.5
			c2.1,0.8,4.2,1.8,6.3,2.6c1,0.4,2,0.6,3,1c3.8,1.3,7.6,2.6,11.3,4.1c2.4,0.9,4.7,2.1,7,3.1c1,0.4,2.1,0.8,3.1,1.3
			c1.3,0.7,2.6,1.5,3.7,2.1c0.1,1.8,0.3,3.3,0.3,4.8c0,0.4-0.3,0.8-0.4,1.2c-0.3,0.8-0.7,1.5-0.8,2.3c-0.2,1.2-0.2,2.4-0.3,3.7
			c0,0.2-0.1,0.5,0,0.7c0.6,0.9,0,1.4-0.3,2.2c-0.5,1-0.6,2.1-0.8,3.2c-0.4,2-0.8,4-1.8,5.8c-0.3,0.6-0.3,1.4,0,2
			c0.3,0.8,0.1,1.4-0.3,2.1c-1.6,2.2-1.6,2.3-0.9,4.5c-0.7,1.6-1.3,3-1.7,4.4c-0.6,1.9-1.6,3.8-1.5,5.9c0,0.3,0,0.6-0.2,0.8
			c-0.9,0.9-0.9,2.1-1.1,3.2c-0.4,1.9-1.1,3.7-1.6,5.6c-0.1,0.4-0.4,0.9-0.4,1.3c0,1.1-0.1,2.1-0.6,3.2c-0.3,0.5,0,1.2,0,2.1
			c-1.7,0.9-1.8,2.6-2,4.4c-0.1,1.2-0.4,2.4-0.9,3.5c-1,2-1.4,4.2-1.4,6.2c-3-0.4-6-0.9-8.9-1.4c-1.5-0.3-2.9-0.7-4.4-1
			c-0.7-0.2-1-0.6-0.8-1.4c0.5-2.3,0.9-4.7,1.2-7c0.1-0.9-0.2-2-0.4-2.9c-0.2-0.8-0.1-1.3,0.4-1.9c0.5-0.6,0.8-1.5,0.9-2.2
			c0.3-2.3,0.3-4.6,0.6-6.9c0.1-0.7,0.4-1.3,0.5-2c0.1-0.9,0-1.9,0-2.8c0-0.2,0-0.5,0-0.7c0.3-2.1,0.7-4.1,1-6.2
			c0.3-2.5,0.5-5,0.8-7.5c0.1-0.6,0.3-1.1,0.4-1.7c0.1-0.9,0.2-1.8,0.1-2.6c-0.2-1-0.1-1.9,0.2-2.9c0.2-0.9,0.6-1.3,1.4-1.8
			c1.9-1.1,1.8-3.4-0.2-4.5c-0.5-0.2-1-0.4-1.5-0.6c-1.2-0.5-2.3-0.8-3.4-1.6c-1.1-0.8-2.6-1-3.9-1.4c-2.4-0.6-4.8-1.1-7.1-1.7
			c-0.6-0.1-1.3,0-1.9-0.2c-1.2-0.3-2.5-0.4-3.6-1.1c-0.5-0.4-1.3-0.5-2-0.5c-1.2,0.1-2.1-0.2-3.1-0.8c-0.7-0.4-1.5-0.5-2.3-0.7
			c-0.2,0-0.4,0-0.5-0.1c-2.3-0.7-4.5-1.5-6.8-2.2c-0.4-0.1-0.8-0.3-1.2-0.4c-1.7-0.3-3.3-0.5-5-0.7c-0.4-0.1-0.8-0.3-1.1-0.4
			c-1.5-0.6-2.6-0.4-3.3,0.6c-0.8,1.1-0.6,2.1,0.5,3.3c0.1,0.1,0.2,0.3,0.4,0.4c-0.4,2.4-0.9,4.9-1.3,7.3c-0.1,0.7,0,1.5,0.1,2.2
			c0.1,0.7,0.4,1.3-0.2,2c-0.5,0.7-0.5,1.5-0.3,2.4c0.2,0.6,0.1,1.2,0.1,1.9c0,1.3-0.1,2.7,0.1,4c0.1,0.6,0.1,1.1-0.2,1.6
			c-0.5,0.8-0.6,1.6-0.3,2.5c0.4,1.2,0.4,2.4,0.1,3.6c-0.1,0.6-0.1,1.2-0.1,1.7c-0.1,0.9-0.2,1.7-0.2,2.6c0.1,2.5-0.1,5-0.3,7.5
			c0,0.4,0.3,0.9,0.4,1.3c0.1,0.5,0.3,1,0.2,1.5c-0.1,1.5-0.5,3-0.5,4.5c0,1.5,0.2,3,0.5,4.5c0.1,0.6,0,1-0.3,1.4
			c-1.2,1.5-1.2,3.2-0.7,4.8c0.2,0.7,0.2,1.2-0.1,1.8c-0.2,0.6-0.1,1.4-0.1,2c0,0.6,0.1,1.2,0,1.8c-0.1,1.2-0.4,2.4-0.4,3.6
			c0,1.7,0.2,3.5,0.2,5.2c0,1-0.2,2-0.3,2.9c0,0.5-0.2,1.1,0,1.6c0.5,1.1,0.5,2.1,0,3.2c-0.1,0.3-0.3,0.7-0.2,1
			c0.4,1.5,0.3,3,0.3,4.5c0,0.9,0.2,1.7-0.1,2.6c-0.1,0.4-0.1,1,0.1,1.4c0.2,0.6,0.1,1-0.3,1.4c-1,1-0.9,2.2-0.5,3.5
			c0.5,1.7,1.1,3.3,1.6,5c0.6,1.8,1,3.6,1.7,5.3c0.6,1.5,1.4,2.9,2.2,4.4c0.1,0.2,0.4,0.4,0.4,0.6c-0.2,1.6,0.9,2.8,1.3,4.3
			c0.3,1.4,0.8,2.6,1.7,3.8c0.8,1.1,1.1,2.5,1.5,3.9c0.7,2.3,1.5,4.4,3.3,6.1c-0.3,1.5,0.2,2.9,1.2,4.2c0.3,0.4,0.6,0.8,0.6,1.2
			c0.2,1.7,1.2,3,2,4.5c0.4,0.9,0.8,1.8,1.2,2.8c-0.4,0.2-0.8,0.5-1.3,0.6c-1.4,0.2-2.8,0.3-4.1,0.4c-0.5,0-0.9,0.1-1.4,0.2
			c-1.5,0.4-3,1.2-4.5,1.1c-2-0.1-3.6,1.2-5.6,0.7c-0.8-0.2-1.9,0.3-2.8,0.8c-1,0.4-1.9,0.9-3,0.5c-0.3-0.1-0.6-0.1-0.9,0
			c-1.6,0.6-3.3,0.2-5,0.2c-1.9,0-3.7,0.3-5.6,0.4c-0.8,0.1-1.6,0.1-2.4,0.1c-1.3,0.1-2.7,0.2-4,0.3c-1.2,0.1-2.4,0.3-3.6,0.5
			c-1.3,0.1-2.5,0.3-3.8,0.4c-2.5,0.2-5,0.6-7.5,0.7c-2,0.1-3.9,0.6-5.9,0.1c-0.6-0.1-1.2,0.3-1.9,0.3c-0.7,0.1-1.5,0.1-2.2,0.1
			c-0.7,0-1.4-0.2-2.1-0.2c-1.1,0-1.6-0.4-1.8-1.4c-0.3-1.5-0.7-3.1-1.1-4.6c-0.1-0.5-0.1-0.9-0.1-1.4c-0.2-1.2-0.3-2.5-0.8-3.6
			c-0.5-1.1-0.6-2.1-0.7-3.2c0-0.6,0.1-1.3-0.2-1.7c-1.5-1.7-0.9-3.8-1.3-5.6c0-0.2,0-0.4,0-0.5c-0.5-1-1.3-2-1.4-3.1
			c-0.2-1.2,0-2.3-0.9-3.3c-0.3-0.3-0.3-1-0.2-1.4c0.3-1.2,0-2.3-0.3-3.4c-0.4-1.6-1.1-3-1.5-4.6c-0.4-1.5-1.3-2.9-1.1-4.5
			c0-0.2-0.2-0.6-0.4-0.8c-0.8-0.8-0.9-1.7-0.7-2.9c0.2-1.6-0.6-3.2-1.5-4.7c-0.6,0-1.2,0-1.7,0.1c-2,0.4-2.7,1.2-2.3,3.2
			c0.2,1.1,0.3,2.3,1.2,3.2c0.7,0.8,0.5,2-0.4,2.8c-0.7,0.7-1.4,1.4-2.1,2.1c-0.3,0.3-0.5,0.8-0.7,1.2c-0.3,0.8-0.6,1.6-0.8,2.5
			c-0.5,2.1-1.2,4-2.7,5.8c-0.8,0.9-0.8,2.4-1.2,3.6c-0.1,0.2,0,0.5-0.2,0.7c-1.6,1.4-1.7,3.5-2.6,5.2c-1,2.1-1.7,4.2-2.3,6.4
			c-0.6,2.2-1.9,3.9-3.1,5.7c-0.8,1.2-1.4,2.7-2.1,4.2c-1.3-0.1-2.8-0.3-4.3-0.5c-0.2,0-0.4-0.1-0.5-0.2c-0.8-1.2-2-1.3-3.3-1.2
			c-0.4,0-0.9-0.2-1.3-0.4c-0.8-0.4-1.6-0.5-2.5-0.4c-1.1,0-2.1-0.5-3.2-0.7c-2.8-0.7-5.7-1.2-8.5-2c-2.3-0.6-4.5-1.5-6.8-2.3
			c-1.6-0.6-3.2-1.2-4.8-1.8c-0.3-0.1-0.6-0.3-1-0.4c-0.1-1.2,0.1-2.3,1-3.3c0.5-0.5,0.7-1.3,1.1-2c1.1-1.7,1.8-3.5,2.3-5.4
			c1.8-1.4,1.6-3.7,2.6-5.4c0.3-0.6,0.1-1.6,0.1-2.4c0.6-1.1,1.2-2.3,1.8-3.4c1.4-2.4,2-5.1,3.2-7.6c0.4-0.9,0.5-2,0.5-3.1
			c0.1-1.3,0-2.5,0-3.8c0-0.3-0.1-0.7-0.3-1c-0.8-1.1-0.6-2.4-0.2-3.4c1-2.3,0.6-4.5,0.3-6.7c-0.1-0.5-0.2-1.1-0.1-1.6
			c0.5-1.8,0.1-3.5,0-5.2c-0.1-2,0.1-3.9,0.1-5.9c0-0.5,0.2-1,0.1-1.4c-0.4-1.6-0.2-3.3-0.1-4.9c0-0.4,0-0.8,0-1.2
			c-0.1-0.9-0.1-1.7-0.2-2.6c-0.1-0.6-0.1-1.2-0.3-1.7c-0.3-1.2-0.3-2.3,0.1-3.4c0.2-0.7,0.4-1.5,0.3-2.2c-0.3-1.5-0.5-3-0.3-4.5
			c0.1-0.3,0-0.7-0.1-1c-0.4-1-0.2-1.9,0-2.9c0.2-1.3,0-2.7-0.1-4c0-0.3-0.2-0.6-0.1-0.8c0.2-1.3,0.5-2.6,0.5-4
			c0.1-1.6-0.1-3.2-0.1-4.8c0-1.2,0.3-2.4,0.3-3.6c0-1.8-0.1-3.6-0.2-5.4c0-0.5-0.3-1-0.2-1.5c0.1-1.2,0-2.3-1.1-3.2
			c-0.2-0.1-0.3-0.4-0.3-0.6c0.2-1.3,0.1-2.6,0.6-3.7c0.6-1.3,0.6-2.5,0.2-3.7c-0.2-0.7-0.3-1.3,0-2c0.1-0.2,0.2-0.6,0.1-0.9
			c-0.3-2.6-0.6-5.2-0.8-7.8c-0.1-0.6,0-1.2-0.1-1.7c-0.1-0.6-0.2-1.3-0.5-1.8c-0.5-0.8-1.5-0.8-2,0c-0.3,0.4-0.4,1-0.5,1.5
			c-0.2,1.7-0.4,3.4-0.5,5c-0.1,0.7,0.1,1.4,0.1,2.1c0,0.3,0.1,0.6,0,0.9c-0.3,1.2-0.7,2.4,0,3.6c0.1,0.3-0.1,0.8-0.2,1.2
			c-0.3,1.3-0.3,2.4,0.3,3.7c0.5,1.2,0.5,2.6,0.7,3.9c0,0.2-0.2,0.4-0.3,0.6c-1.6,1.6-1.1,3.4-0.5,5.1c0.5,1.3,0.4,2.3-0.1,3.6
			c-0.8,1.9-2,3.5-2.8,5.4c-0.3,0.6-0.8,1.2-1.2,1.7c-0.8,1.2-1.5,2.3-2.3,3.5c-0.1,0.1-0.2,0.3-0.1,0.5c0.1,2.1-1.2,3.7-2.2,5.4
			c-0.6,1-0.9,2.1-1.4,3.2c-0.9,1.9-1.7,3.9-2.8,5.7c-0.8,1.5-1.9,2.8-2.9,4.1c-0.2,0.2-0.3,0.5-0.4,0.8c-0.2,1.4-0.6,2.7-2,3.4
			c-0.3,0.2-0.4,0.8-0.6,1.2c-0.4,1-0.8,2.1-1.7,2.8c-0.1,0.1-0.3,0.3-0.3,0.4c-0.4,2-2.4,2.5-3.7,3.6c-1.5,1.2-3.2,2-5.2,2
			c-1.1,0-2.2,0.4-3.4,0c-0.5-0.2-1.1-0.3-1.6-0.1c-1.6,0.6-3-0.1-4.4-0.7c-1.3-0.5-2-1.9-2.7-3.1c-0.9-1.6-1.6-3.3-2.5-4.9
			c-0.4-0.7-0.3-1.3-0.2-2c0.1-0.8,0.2-1.8-0.1-2.5c-0.9-2-1-4.2-1.2-6.3c-0.1-2.2-0.4-4.3-0.6-6.5c-0.1-1.2-0.2-2.3-0.2-3.5
			c-0.1-1.5,0-2.9-0.8-4.3c-0.1-0.1-0.1-0.2-0.1-0.3c0.5-3.2-0.4-6.3-0.5-9.4c-0.1-2.3-0.5-4.5-0.4-6.8c0.1-1.8-0.6-3.5-0.9-5.3
			c0-0.2-0.2-0.5-0.1-0.7c0.9-1.7-0.2-3.5,0-5.2c0-0.2,0-0.5-0.1-0.7c-0.9-2.8-0.4-5.8-1.1-8.6c-0.3-1.1-0.4-2.1-0.3-3.2
			c0-0.4-0.2-0.8-0.4-1.2c-0.1-0.3-0.2-0.7-0.2-1c0-1,0-1.9,0-3.1c0.5-0.4,1.3-0.8,2.3-0.8c0.1,0,0.2,0,0.3,0c2-0.5,4-1,5.9-1.6
			c1.8-0.6,3.7-0.9,5.3-2.2c0.5-0.4,1.4-0.3,2.2-0.5c0.4,2.9,0.6,5.7,1.1,8.4c0.6,3.2,1.4,6.4,2.7,9.4c0.2,0.4,0.3,0.8,0.5,1.1
			c0.5,0.6,0.5,1.2,0.3,1.8c-0.3,1-0.1,1.8,0.5,2.7c0.3,0.4,0.4,0.8,0.5,1.3c0.1,1.2,0.4,2.3,1.2,3.2c0.1,0.1,0.2,0.3,0.3,0.4
			c0.3,1.7,0.5,3.4,0.8,5.1c0.1,0.8,0.2,1.6,0.4,2.4c0.3,1.2,0.9,2.4,1.2,3.6c0.4,2.2,1.3,4.2,2.4,6.2c0.3,0.5,0.5,1.2,0.5,1.8
			c-0.1,2,1.3,3.6,1.4,5.6c0,0.6,1.2,1.2,1.9,1.7c0.6,0.4,1.3,0.1,1.8-0.4c1.1-1.1,1.3-2.9,0.4-4.2c-0.4-0.5-0.6-1-0.6-1.7
			c0-0.6-0.3-1.4-0.7-1.9c-0.6-0.7-0.7-1.4-0.8-2.2c-0.1-2.2-0.5-4.3-1.3-6.3c-0.5-1.2-0.7-2.5-1-3.7c-0.1-0.3,0-0.6-0.2-0.9
			c-1.2-1.5-1.6-3.5-2.3-5.2c-0.4-1.1-0.6-2.4-0.7-3.6c0-0.3,0.2-0.8,0.5-1.1c1-1.1,1.6-2.4,1.9-3.9c0.2-0.7,0.5-1.3,0.8-1.9
			c0.5-1.1,1.1-2.1,1.5-3.2c0.6-1.4,1.1-2.8,1.6-4.2c0.1-0.2,0.4-0.4,0.6-0.6c0.3-0.3,0.7-0.6,0.8-0.9c0.6-1.4,1.2-2.7,1.8-4.1
			c0.1-0.3,0.3-0.5,0.5-0.7c0.8-0.8,1.2-1.8,1.4-3c0-0.3,0.1-0.6,0.2-0.8c1.6-2.2,1.7-5,3.1-7.2c1-1.6,1.5-3.3,2-5
			c0.6-1.9,1.9-3.5,1.9-5.6c0-0.3,0.4-0.9,0.8-1c2.5-0.9,2.5-0.9,3.8-2.3c1.6,0.2,3.1-0.1,4.6-1c1.3-0.8,3.1-0.8,4.4-1.5
			c2.2-1.2,4.8-1.8,6.7-3.6c0.4-0.3,0.9-0.5,1.4-0.7c1.1-0.4,2.2-0.8,3.4-1.2c0.2,1.2,0.2,2.5,0.5,3.7c0.3,1,0.9,1.9,1.2,2.9
			c0.2,0.5,0.4,1,0.3,1.4c-0.4,2,0.1,3.8,0.7,5.6c0.2,0.8,0.5,1.5,0.3,2.4c-0.1,0.6,0.1,1.3,0.2,1.9c0.4,1.8,1.4,3.4,1.3,5.3
			c0,0.1,0,0.2,0.1,0.3c1.5,2.5,1.2,5.5,2.4,8.1c0.2,0.4,0.1,0.9,0,1.4c-0.3,1.2-0.3,2.3,0.5,3.3c0.2,0.3,0.4,0.8,0.3,1.1
			c-0.4,1.6,0.3,3,0.8,4.4c0.3,1,0.6,2.1,0.8,3.2c0.3,1.6,0.7,3.3,1,4.9c0,0.1,0,0.1,0,0.2c0.4,0.8,1,1.6,1.2,2.4
			c0.2,0.9,0,1.8,0,2.8c0,0.2,0.1,0.5,0.2,0.7c1.4,2,1.1,4.4,1.7,6.5c0.6,1.9,0.9,3.8,1.3,5.7c0.5,1.7,0.9,3.5,1.4,5.2
			c0.2,0.7,0.4,1.4,0.6,2.2c0.1,0.4,0.2,0.8,0.3,1.2c0.3,2.1,0.4,4.2,1.6,6c0.1,0.2,0.2,0.4,0.2,0.7c-0.1,1.3,0.5,2.3,1.4,3.3
			c0.3,0.4,0.5,1.1,0.3,1.6c-0.3,1.2-0.1,2.2,0.6,3.2c0.2,0.4,0.4,0.9,0.4,1.3c0.1,1.1,0.4,2,1.2,2.8c0.3,0.3,0.4,0.7,0.4,1.1
			c-0.1,1.6,0.7,2.8,1.3,4.1c0.3,0.6,0.5,1.2,0.5,1.8c0,1.3,0.2,2.4,0.9,3.5c0.3,0.4,0.4,1,0.3,1.4c-0.1,1.2-0.3,2.3-0.5,3.4
			c-0.1,0.4-0.3,0.7-0.6,1.2c-0.5-1.1-0.7-2.1-1.4-2.8c-0.7-0.8-0.8-1.6-1.1-2.5c-0.1-0.4-0.3-0.8-0.6-1c-1.1-0.8-1.6-1.8-1.7-3.1
			c0-0.3-0.2-0.7-0.4-0.9c-1-0.9-1.1-2.1-1.6-3.2c-0.9-2.2-1.9-4.4-2.9-6.6c-0.4-0.9-0.9-1.8-1.2-2.7c-0.6-1.9-1.9-3.6-2.5-5.5
			c-0.5-1.5-0.8-3.1-2-4.4c-0.7-0.8-0.7-2.2-1.2-3.2c-0.4-1-0.9-2-1.4-3c-0.3-0.7-0.8-1.3-1.1-2c-0.5-1.4-0.9-2.8-2.1-3.8
			c-0.4-0.3-0.7-0.9-0.7-1.4c-0.2-1.7-0.6-3.3-1.4-4.8c-0.4-0.7-0.6-1.4-1-2c-0.2-0.4-0.6-0.8-0.7-1.2c-0.2-1.3-0.8-2.3-1.9-3
			c-0.3-0.2-0.4-0.6-0.5-0.9c-0.8-1.9-1.5-3.9-2.3-5.8c-0.1-0.3-0.2-0.7-0.1-1c0.5-0.9,0.8-2,1.6-2.5c1.6-1.1,2.3-2.8,3.3-4.3
			c0.5-0.8,1.2-1.6,2-2.2c1-0.7,1.8-1.4,1.7-2.6C153.8,150.9,152.8,150.5,151.7,150.2z"/>
		<path class="st1" d="M243.9,305.5c-1.2,0.9-1,2.1-0.8,3.1c0.3,2,0.2,4.1,1.1,6c0.2,0.4,0,0.9-0.1,1.4c-0.4,2-0.9,4,0.3,6
			c0.2,0.3,0.1,0.9-0.1,1.3c-0.7,1.4-0.5,2.8,0.4,4c0.6,0.9,0.6,1.7,0.2,2.6c-0.5,1.1-0.5,2.1,0,3.2c0.5,1,0.5,1.9,0.4,3
			c-0.3,1.6-0.2,3.2-0.3,4.8c0,2-0.1,3.9,0,5.9c0.1,1.9,0.2,3.8,0.6,5.7c0.3,1.4,1.4,2.1,2.5,2c1.2-0.1,1.9-0.9,2.2-2.3
			c0.1-0.6,0.2-1.2,0.3-1.8c1.9-0.7,3.6-2.1,5.8-2.2c0.4,0,0.8-0.2,1.1-0.4c1.2-0.6,2.4-1.2,3.6-1.7c0.2-0.1,0.3-0.1,0.5-0.1
			c1.3,0.2,2.3-0.4,2.8-1.1c1.3-0.3,2.3-0.4,3.3-0.7c2.8-0.8,5.6-1.7,8.3-2.6c0.9-0.3,1.9-0.6,2.8-1.1c2.4-1.4,5.2-2,7.8-2.9
			c0.9-0.3,1.9-0.3,2.7-0.6c1.4-0.5,2.7-1.2,4-1.7c0.5-0.2,0.9-0.6,1.4-0.6c3.1-0.5,6-1.8,9-2.6c0.1,0,0.2-0.1,0.3-0.1
			c1.8-1.4,4.1-1.3,6.1-2c0.8-0.3,1.6-0.5,2.3-0.9c1.1-0.6,2.1-0.9,3.3-0.7c1.6,2.6,2.5,5.4,3.6,8.2c0.2,0.5,0.2,1.2,0.3,1.7
			c0.2,1,0.4,1.9,0.6,2.9c0.1,0.4,0.1,0.8,0.1,1.2c0,0.9-0.1,1.7-0.2,2.8c-2.1,0.9-4.2,1.8-6.3,2.8c-0.6,0.3-1.1,0.6-1.7,0.9
			c-1.7,1.1-3.4,2.3-5.5,2.6c-0.3,0-0.7,0.2-1,0.4c-2.6,2.1-5.7,3.4-8.6,5c-0.5,0.3-1,0.7-1.5,1c-0.3,0.2-0.8,0.5-1.1,0.4
			c-1.5-0.3-2.6,0.6-3.8,1.2c-1.3,0.7-2.6,1.5-3.9,2.2c-1.7,0.9-3.5,1.7-5.2,2.5c-0.4,0.2-0.7,0.5-1,0.7c-0.3,0.2-0.6,0.7-1,0.7
			c-1.5,0.1-2.6,0.9-3.8,1.7c-1.8,1.3-3.9,1.8-5.8,2.8c-0.7,0.3-1.3,0.8-1.9,1.1c-1,0.6-2,1.2-3,1.7c-0.2,0.1-0.5,0.1-0.6,0.3
			c-0.9,1-2.1,1.5-3.5,1.8c-0.4,0.1-0.9,0.6-1.1,1c-0.5,1-1.2,1.4-2.3,1.2c-0.9-0.2-1.5,0.3-2.3,0.7c-0.8,0.5-1.8,0.7-2.7,1.1
			c-0.8,0.4-1.1,1.4-2.2,1.7c-1.8,0.5-3.5,1.4-5.3,2.1c-1.1,0.4-1.8,1.2-2.3,2.5c-1.6-0.4-2.9,0.2-4.1,1.3c-0.7,0.7-1.6,1.2-2.7,1.1
			c-0.4,0-0.8,0.2-1.2,0.4c-1.6,0.9-3.3,1.8-4.9,2.8c-1.1,0.7-2.6,0.8-3.4,2c-0.1,0.1-0.4,0.1-0.7,0.1c-1.1-0.1-1.9,0.5-2.7,1.1
			c-0.7,0.5-1.6,0.7-2.3,1.1c-2,1.3-4.5,1.9-6.3,3.7c-0.3,0.3-0.6,0.7-1,1c-0.1,0.1-0.2,0.1-0.4,0.2c-0.1-0.1-0.5-0.1-0.5-0.3
			c-0.6-1.5-1.7-2.6-2-4.2c-0.2-1.3-0.9-2.5-1.4-3.7c-0.6-1.4-1.2-2.9-1.8-4.3c-0.2-0.6-0.6-1.1-0.9-1.7c-0.1-0.3-0.4-0.5-0.4-0.8
			c0.3-1.8-1-3.1-1.6-4.5c-0.7-1.6-1.9-2.9-1.6-4.7c-1.3-1.7-1.1-4-2.6-5.7c-0.5-0.6-0.6-1.6-0.9-2.4c-0.6-1.9-1.3-3.9-1.9-5.8
			c-0.1-0.2-0.1-0.4-0.2-0.5c-1.4-1.2-1.3-2.9-1.6-4.5c-0.1-0.3-0.1-0.6-0.2-0.8c-1.5-2.3-2.1-4.9-2.9-7.4c-0.2-0.7-0.7-1.2-1-1.8
			c-0.3-0.8-0.6-1.6-0.8-2.4c-0.3-0.9-0.6-1.9-0.8-2.8c-0.8-3.2-1.9-6.3-3.4-9.2c-0.4-0.8-0.5-1.8-0.8-2.7c-0.4-1.1-0.8-2.2-1.1-3.2
			c-0.1-0.2-0.2-0.4-0.2-0.7c-0.2-2.4-1.1-4.5-2.1-6.6c-0.6-1.3-1.3-1.7-2.4-1.3c-1,0.3-1.8,1.5-1.7,2.6c0.2,1.4,0.5,2.9,0.8,4.3
			c0.2,0.7,0.6,1.3,0.9,2c0.4,1,0.8,1.9,1,2.9c0.1,0.3-0.2,0.8-0.5,1.1c-2,2.5-4,5-6.2,7.4c-1.6,1.7-3.5,3.3-4.1,5.8
			c-0.1,0.2-0.3,0.4-0.4,0.5c-1.5,0.7-2.4,2-3.4,3.3c-1.3,1.6-2.8,3.1-3.8,5c-0.2,0.3-0.7,0.5-0.9,0.8c-0.4,0.4-0.9,0.9-1,1.4
			c-0.1,1.2-0.9,1.8-1.7,2.5c-1.4,1.4-2.8,2.8-4.1,4.3c-0.4,0.5-0.7,1.2-0.9,1.9c-0.3,1-0.9,1.7-1.8,2.1c-0.9,0.4-1.4,1-1.8,1.8
			c-0.1,0.4-0.4,0.7-0.6,1c-1,1.1-2,2.1-2.8,3.3c-1.1,1.7-2.7,3.1-4.1,4.7c-0.9,1.1-1.9,2.2-2.7,3.4c-0.9,1.2-1.7,2.4-2.5,3.5
			c-0.2,0.2-0.5,0.4-0.6,0.6c-0.6,0.7-1.5,1.4-1.8,2.3c-0.5,1.3-1.5,2.2-2.3,3.2c-1.2,1.5-2.7,2.7-3.7,4.3c-1,1.5-2.4,2.7-3.6,4
			c-1.3,1.4-2.7,2.8-3.4,4.6c-0.1,0.2-0.2,0.5-0.4,0.6c-1.5,0.8-2.1,2.3-3,3.6c-0.4,0.6-0.9,1.1-1.3,1.6c-0.4,0.5-0.9,1.1-1.3,1.6
			c-0.2,0.3-0.4,0.6-0.7,0.7c-1.1,0.5-1.8,1.5-2.3,2.6c-0.4,0.9-1,1.4-1.7,2c-0.5,0.4-0.9,0.8-1.2,1.2c-1,1.4-2,3-3.1,4.4
			c-0.8,1-1.9,1.9-2.7,2.9c-0.5,0.6-0.9,1.3-1,2c-0.1,0.8-0.4,1.2-1.1,1.6c-0.8,0.4-1.4,1-2.1,1.5c-0.2,0.1-0.4,0.3-0.5,0.5
			c-0.2,1.6-1.5,2.2-2.6,3c-0.4,0.3-0.7,0.7-0.9,1.1c-0.5,1.6-1.8,2.8-2.5,4.3c-0.3,0.5-0.9,0.9-1.4,1.2c-1.1,0.5-1.7,1.3-2.2,2.4
			c-0.6,1.3-1.5,2.5-2.4,3.7c-0.7,1-1.5,1.9-2.3,2.9c-0.2,0.2-0.4,0.5-0.6,0.6c-1.9,0.8-2.6,2.4-3.4,4.2c-0.5,1.1-1.6,1.9-2.4,2.9
			c-0.5,0.6-1.1,1.1-1.7,1.8c-0.9,1-1.9,2.1-2.6,3.2c-1,1.6-2.6,2.7-3.8,4.2c-1.1,1.2-1.1,3-2.6,4c-1.3,0.8-1.9,2.6-2.9,3.8
			c-0.3,0.3-0.7,0.5-1.1,0.8c-0.5,0.4-1.3,0.8-1.5,1.4c-0.8,1.7-2.1,2.9-3.2,4.3c-1.1,1.4-2.9,1.4-4.4,0.3c-0.6-0.5-1.4-0.8-2.1-1.2
			c-0.2-0.1-0.4-0.2-0.6-0.3c-1.9-1.6-3.9-3.2-5.9-4.9c0.1-0.2,0.1-0.6,0.2-1c0.6-1.4,1.2-2.8,1.8-4.2c0.1-0.2,0.1-0.4,0.2-0.5
			c1.7-1,1.8-3,2.8-4.5c0.2-0.3,0.4-0.6,0.5-0.9c0.4-2.7,2-4.8,3.5-7c1-1.4,1.8-3,2.3-4.7c0.7-2.1,1.5-4.3,3-6.1
			c0.1-0.1,0.2-0.2,0.2-0.3c0.4-2,1.9-3.3,2.5-5.2c0.2-0.7,0.3-1.4,0.4-2.3c0.9-0.6,1.8-1.5,1.9-2.9c1.7-2,1.9-4.8,3.6-6.8
			c0.6-0.7,0.8-1.7,0.9-2.6c0.1-0.8,0.4-1.4,1-2c1.2-1.2,2.1-2.4,2.5-4.1c0.3-1.1,1-2.2,1-3.5c0-0.3,0.4-0.7,0.7-1
			c2-2.3,3.2-5.1,4.5-7.7c1-2.1,1.9-4.4,2.8-6.5c0.2-0.5,0.6-1,1-1.4c0.7-0.6,1.1-1.3,1.2-2.3c0-0.3,0.1-0.6,0.3-0.8
			c1.3-0.9,1.4-2.4,1.6-3.8c0-0.2,0-0.6,0.1-0.7c1.8-0.9,1.4-3.1,2.7-4.4c0.4-0.4,0.6-1.1,0.9-1.7c0.3-0.6,0.6-1.1,0.9-1.7
			c0.2-0.3,0.5-0.6,0.5-0.9c0.4-1.4,0.9-2.8,1.8-3.9c0.2-0.2,0.3-0.5,0.3-0.8c0.1-2.1,1.3-3.7,2.6-5.2c0.4-0.5,0.9-1,1-1.6
			c0.2-1.7,1.1-3,2.2-4.2c0.1-0.1,0.2-0.3,0.3-0.4c0.9-1.9,1.9-3.8,2.8-5.6c0.4-0.7,0.7-1.4,1.1-2.2c0.2-0.4,0.5-0.8,0.6-1.3
			c0.5-1.5,1.2-2.9,2-4.2c0.9-1.6,1.6-3.3,2.4-5c0.8-1.6,1.9-3,1.9-4.8c0-0.2,0.2-0.5,0.3-0.6c1.6-1.5,2.1-3.6,3.1-5.5
			c0.5-1.1,1.2-2.1,1.7-3.2c0.4-0.7,0.6-1.5,0.8-2.3c0.6-1.9,1.9-3.3,2.8-4.9c0.2-0.3,0.4-0.6,0.5-0.9c0.3-1.8,1.1-3.4,2.4-4.7
			c0.2-0.2,0.3-0.4,0.4-0.6c0.5-2.2,1.8-3.9,2.9-5.7c0.4-0.7,0.6-1.5,1-2.2c0.7-1.3,1.4-2.6,2-3.9c0.1-0.2,0.2-0.3,0.2-0.5
			c0.4-2.9,2.6-5.1,3.1-8c1.2,0,2.3,0.1,3.4,0.4c2.4,0.7,4.9,1.1,7.3,1.7c1.6,0.4,3.4,0.2,4.8,1.2c0.3,0.2,0.9,0.1,1.4,0.2
			c0.6,0.1,1.2,0.1,1.7,0.4c1.2,0.7,2.3,0.8,3.3,0.3c2.5,0.8,4.6,2.2,7.2,2.4c1.8,0.1,2.6-0.5,2.8-2.3c0-0.4,0.1-0.8,0.4-1.1
			c1.1-1.5,1.8-3.2,2.1-5.1c0.3-1.8,0.8-3.6,1.8-5.2c1.5-2.5,2.7-5.1,4.1-7.7c0.6-1.1,1.2-2.2,1.3-3.6c0-0.8,0.7-1.7,1.3-2.4
			c1-1.1,1.4-2.5,1.4-3.9c0-0.7,0.3-1.3,0.7-1.9c0.6-0.9,1-2,1.5-3c0.2-0.4,0.4-0.8,0.9-1.5c0.3,0.8,0.5,1.3,0.7,1.7
			c0.2,0.7,0.3,1.3,0.4,2c0.2,1.6,0.6,3.1,2,4.2c0.2,0.2,0.2,0.8,0.2,1.1c0,0.4-0.2,0.9,0,1.2c1.6,2.1,0.2,5,1.7,7.1
			c0.3,0.4,0.3,0.9,0.6,1.3c0.4,0.6,0.3,1.1,0.3,1.8c-0.1,0.8,0,1.6,0.2,2.4c0.5,1.2,0.8,2.4,0.7,3.7c-0.1,0.6,0,1.3,0.2,1.9
			c0.9,2.1,1,4.4,1.6,6.6c0.4,1.5,0.9,3,1.4,4.5c0.4,1.4,1.6,2,3.1,1.7c0.8-0.2,1.4-0.1,2.2,0.1c0.6,0.1,1.3,0.1,1.9-0.1
			c1-0.4,1.9-0.3,2.9-0.1c0.7,0.2,1.4,0.2,2.1,0.1c2.6-0.1,5.2-0.3,7.8-0.5c0.5,0,1.1,0,1.6-0.1c1.7-0.3,3.4-0.8,5.2-0.9
			c2.3-0.1,4.5-1.2,6.9-0.5c0.5,0.1,1,0,1.6-0.1c2.1-0.3,4.2-0.6,6.2-0.8c1.5-0.1,3,0.2,4.5-0.4c1.2-0.5,2.3-0.5,3.6-0.4
			c0.5,0,1.1-0.1,1.5-0.3C241.6,304.8,242.7,304.9,243.9,305.5z"/>
		<path class="st0" d="M154.9,23.2c1.9,0,3.7-0.1,5.4,0c1.6,0.1,3.1,0.3,4.7,0.6c1.1,0.2,2,0.3,3.1,0c1.1-0.3,2.1-0.1,3.2,0.3
			c1.3,0.4,2.7,0.3,4.1,0.3c1.2,0,2.4-0.2,3.6-0.3c0.2,0,0.4,0,0.5,0.1c1.5,0.9,3.2,0.3,4.8,0.4c2.1,0.1,4.2-0.1,6.5,0.5
			c-0.5,0.8-0.8,1.5-1.3,2c-1.5,1.3-2.5,2.9-3.5,4.6c-0.7,1.2-1,2.6-1.6,3.8c-0.7,1.5,1,3.1,2.8,2.8c2.1-0.4,4.2-0.8,6.3-1.4
			c1.9-0.6,3.9-0.6,6-0.6c0,1.4,0.5,2.7-0.3,4.1c-0.4,0.7-0.2,1.7-0.1,2.6c0.1,0.7,0.2,1.3-0.2,2c-0.4,0.7-0.4,1.6-0.6,2.4
			c-0.4,2.9-0.7,5.9-1.1,8.8c-0.2,1.6,0.5,2.9,1,4.2c0.3,0.8,1.1,0.9,2,0.8c3-0.2,5.7-1.6,8.5-2.5c0.5-0.2,0.9-0.6,1.3-0.9
			c1.8-0.2,2.3,1.2,3,2.2c-0.3,1.4-0.6,2.6-0.8,3.9c-0.4,1.8-1.6,3.1-2.5,4.6c-0.3,0.4-0.7,0.8-0.9,1.3c-0.6,1.1-1.7,1.4-2.8,1.4
			c-1.7-0.1-2.9,0.8-3.3,2.4c-0.4,1.8-1,3.6-1.5,5.4c-0.5,1.9-0.9,3.8-1.4,5.8c-0.1,0.6-0.3,1.2-0.4,1.8c-0.1,0.5-0.3,1-0.3,1.5
			c0.1,1.5-0.4,2.9-0.9,4.2c-0.3,0.9-0.5,1.9-0.5,2.9c0,1.7,0.2,3.3-0.5,5c-0.3,0.8-0.2,1.7-0.3,2.8c-0.3,0.3-0.7,0.8-1.1,1.2
			c-0.5,0.5-1.1,0.8-1.6,1.2c-0.6,0.4-1.2,0.7-1.7,1.1c-0.2,0.2-0.4,0.4-0.6,0.6c-1.4,0.8-2.9,1.5-4.3,2.3c-1,0.6-1.9,1.3-2.6,2.3
			c-0.8,1.4-2.6,1.9-4,1c-1.7-1-3.3-1.9-4.9-3c-0.4-0.2-0.6-0.7-0.8-1.1c-0.4-0.8-1-1.3-1.9-1.5c-2-0.4-2.1-1.6-2.1-3.3
			c0-1.9,0.2-3.7,0.4-5.8c0.9-0.4,2.1-0.6,3.3-0.6c0.3,0,0.6,0.1,0.9,0.1c1.4,0.1,2.2-0.4,2.3-1.5c0.1-1.2-0.9-2.1-2.3-2.1
			c-1.2,0-2.3-0.1-3.5-0.2c-1.6-0.1-3.3-0.4-4.9-0.5c-0.9,0-1.8,0.6-2.7,0.5c-0.9-0.1-1.7-0.7-2.7-0.4c-1.5,0.5-2.9,0.2-4.3-0.2
			c-1.2-0.3-2.4-0.6-3.7-1c-0.2-0.4-0.6-0.9-0.7-1.6c-0.1-0.6-0.1-1.4,0.1-2c0.4-1.2,0.6-2.4,0-3.6c-0.1-0.2-0.3-0.6-0.2-0.8
			c0.7-2,0.1-4.1,0.1-6.1c0-1,0.1-2.1,0.1-3.1c0-1.6-0.2-3.1-0.6-4.6c-0.3-1.3,0.2-2.7,0.3-4.1c0.1-1.3,0.1-2.6,0.3-4
			c0.2-1.1,0.1-2.3-0.6-3.4c-0.5-0.8-0.4-1.7,0-2.5c0.8-1.7,0.6-3.5,0.6-5.3c-0.1-2.6-0.5-5.1,0-7.8c0.3-1.4,0.2-3,0.6-4.5
			c0.3-1.1,0-2.4,0-3.6c0-0.2-0.1-0.5-0.1-0.7c1-3.5,0.2-7.1,0.9-10.6C154.7,23.8,154.8,23.5,154.9,23.2z"/>
		<path class="st1" d="M218.4,13.3c0,0.9,0.1,1.6,0,2.4c-0.1,0.6-0.2,1.3-0.5,1.8c-0.5,1.1-0.4,2.1,0.3,3.1c0.3,0.4,0.4,0.8,0.7,1.2
			c0.1,0.3,0.2,0.6,0.5,0.7c1.5,0.7,2.6,1.8,3.9,2.8c0.8,0.7,1.9,1.1,2.9,1.6c-0.6,1.5-1.2,2.9-1.8,4.3c-0.6,1.3-1.4,2.5-2,3.9
			c-0.6,1.2-1,2.5-1.4,3.7c-0.7,1.9-2,3.6-2.2,5.7c-0.1,0.9-1,1.7-1.4,2.6c-1,2.4-2,4.8-3,7.2c-0.7,0-1.5,0.2-2.1,0
			c-1-0.3-1.9-0.5-2.8,0.3c-0.1,0.1-0.2,0.1-0.3,0.1c-2.2-0.5-4,1.1-6,1.4c-0.1,0-0.2,0-0.6,0c0.1-1.6,0.1-3.2,0.3-4.9
			c0.1-1.3,0.5-2.6,0.5-4c0.1-1.8-0.2-3.7,0.7-5.4c0.1-0.1,0.1-0.2,0-0.3c-0.7-2.1,0.4-4.1-0.1-6.2c-0.1-0.6,0.1-1.4,0.3-2
			c0.6-1.8-0.4-3.4-2.3-3.1c-2.1,0.3-4.2,0.4-6.2,1.6c-1.3,0.8-3,0.8-4.5,1.2c-0.1-0.1-0.2-0.2-0.3-0.4c0.9-1.6,1.7-3.3,2.6-4.9
			c0.5-0.9,1-1.8,1.8-2.5c0.4-0.3,0.6-1,0.7-1.6c0.1-0.9-0.4-1.7-1.2-1.9c-1.1-0.2-2.3-0.5-3.3-0.3c-2.5,0.6-4.7-0.5-7-0.8
			c-1.5-0.2-3-1.1-4.6-0.4c-0.2,0.1-0.5,0-0.7,0c-1.8-0.6-3.6-0.2-5.4-0.4c-1.2-0.1-2.3,0-3.4,0.3c-0.6,0.2-1.5-0.1-2.2-0.4
			c-1-0.3-2-0.4-3.1-0.3c-1.7,0.2-3.4,0.1-5,0c-1.3-0.1-2.5-0.3-3.8-0.5c-1-0.1-1.9,0.1-2.6-0.9c-0.4-0.6-1.5-0.3-1.7,0.5
			c-0.5,1.5-1,3.1-1.2,4.7c-0.3,2.6-0.5,5.2-1.2,7.9c-2.8,0.3-4.7,2.3-7.2,3.5c0-0.3,0-0.5,0-0.7c0.8-2.7,1.5-5.5,2.4-8.2
			c0.2-0.8,0.8-1.4,1.1-2.2c0.4-1.1,0.7-2.2,0.2-3.4c-0.1-0.4,0.1-0.9,0.2-1.3c0.2-0.5,0.7-0.9,0.7-1.4c0.1-2,1.4-3.5,1.9-5.3
			c0.1-0.3,0.3-0.5,0.4-0.8c0.4-0.8,0.8-1.7,1-2.5c0.5-1.8,0.9-3.7,1.4-5.7c1.5,0.2,2.9,0.6,4.4,0.7c0.6,0.1,1.3-0.3,2.2-0.5
			c0.8,0.5,1.7,0.8,2.8,0.3c0.2-0.1,0.5,0,0.7,0.1c1,0.4,2,0.4,3.1,0.4c2,0.1,3.9,0.5,5.9,0.7c1.6,0.2,3.2,0.2,4.7,0.4
			c2.7,0.3,5.3,0.8,8,0.9c2.3,0.1,4.5,1.3,6.9,0.6c0.6-0.2,1.4,0.1,2,0.4c2.2,1.2,4.6,1.1,7,1.3c0.9,0.1,1.7,0.2,2.6,0.4
			c0.2,0,0.3,0.1,0.5,0.1c2.8-0.1,5.2,1,7.7,2c0.4,0.2,0.9,0.2,1.4,0.3c1,0.3,1.9,0.5,2.8,0.8c1.1,0.3,2.2,0.7,3.3,1.1
			C217.9,13.1,218.1,13.2,218.4,13.3z"/>
		<path class="st1" d="M192.5,184.5c-1.5,2.6-1.5,2.6-0.9,5c-1.7,2.1-3,4.4-3.5,7.1c-0.1,0.7-0.6,1.2-0.8,1.9
			c-0.3,0.8-0.5,1.6-0.8,2.4c-0.1,0.4,0,0.9-0.3,1.1c-1.7,1.4-2,3.5-2.9,5.3c-0.9,1.7-1.5,3.5-2.2,5.3c-0.5,1.3-1,2.7-1.6,4
			c-0.2,0.4-0.5,0.6-1,1.2c-0.1-0.7-0.2-1.1-0.3-1.5c-0.1-1.5-0.3-3-1.2-4.3c-0.2-0.3-0.2-0.9-0.3-1.3c0-0.2,0.1-0.4,0-0.5
			c-0.8-2.2-0.9-4.6-2.4-6.4c-0.6-0.7-0.8-1.3-0.7-2.2c0.1-0.8-0.2-1.7-0.4-2.5c-0.1-0.3-0.3-0.5-0.3-0.8c0-2.3-0.9-4.3-1.5-6.4
			c-0.4-1.4-0.6-2.9-0.1-4.5c0.3-0.9,0.5-1.8,0.5-2.7c0-1.3,0.9-2.3,1.1-3.4c0.7-2.6,1.1-5.3,1.8-7.8c0.7-2.8,0.9-5.6,1.5-8.4
			c0.1-0.3,0.3-0.6,0.4-0.9c0.5-1,0.7-2,0.4-3.1c-0.2-0.9-0.2-1.7,0.4-2.5c0.1-0.1,0.2-0.2,0.2-0.3c0.2-2.2,1.5-4.2,1.1-6.6
			c-0.2-1.1,0.2-2.3,0.7-3.4c0.4-0.9,0.5-1.7,0.7-2.7c0.3-2.2,0.8-4.4,1.2-6.7c0.2-0.1,0.5-0.2,0.9-0.3c1.4-0.4,2.5,0.2,2.5,1.7
			c0,1.3,0,2.6,0.7,3.7c0.2,0.3,0.2,0.9,0,1.2c-0.9,1.4-0.3,2.9-0.1,4.3c0.3,2.1,0.6,4.3,0.9,6.4c0,0.1,0,0.1,0,0.2
			c0.3,1.7,1.1,3.4,0.7,5.2c1.2,1.5,0.6,3.4,1.6,5.1c0.6,1.1,0.4,2.8,0.3,4.1c-0.2,2.1,0.4,4,0.5,6.1c0.1,1.3,0.6,2.6,0.9,3.9
			c0.1,0.3,0.1,0.6,0,0.9C190.2,182.7,190.7,184,192.5,184.5z"/>
		<path class="st0" d="M193.1,127.5c1.4,2.1,3,1.9,4.4,1c1.3-0.8,2.8-1.5,3.4-3.1c0.1-0.3,0.3-0.6,0.5-0.7c2.1-0.9,3.4-2.5,4.9-4.1
			c0.4-0.5,1.1-0.8,1.7-1.1c1.4-0.7,2.6-1.5,3.4-3c0.2-0.4,0.6-0.8,1-1.2c0.3-0.3,0.8-0.5,1.1-0.9c1-1.4,2.4-1.8,4-2.1
			c1-0.2,1.7,0.2,2.6,0.2c0,0.4,0,0.9-0.1,1.1c-1.3,2.1-1.4,4.5-2.2,6.7c-0.5,1.4-1,2.9-1.7,4.2c-0.5,0.9-0.8,1.7-0.9,2.6
			c0,0.2,0,0.5-0.1,0.7c-0.9,1.1-1.6,2.2-1.5,3.6c-0.9,0.8-1.3,1.9-1.7,3c-0.7,2.4-1.4,4.9-2.1,7.4c-0.1,0.3-0.1,0.7-0.4,1
			c-1.6,1.7-1.8,3.9-2.6,5.9c-0.3,0.6-0.5,1.3-0.8,1.9c-0.2,0.5-0.4,1-0.5,1.5c-0.5,1.7-0.9,3.4-2,4.9c-0.8,1.1-1.2,2.4-1.6,3.7
			c-0.5,1.4-0.9,2.9-1.3,4.3c-0.1,0.3-0.3,0.5-0.4,0.8c-0.5,1.3-0.9,2.5-1.3,3.8c-0.2,0.5-0.1,1.1-0.4,1.5c-0.8,1.2-1.3,2.6-1.8,3.9
			c-0.5,1.3-1.3,2.4-2,3.8c-0.3-2.2-0.6-4.5-1-6.7c-0.2-1.3-0.7-2.5-1-3.7c-0.4-1.4-0.9-2.8-0.4-4.3c0-0.1,0.1-0.2,0-0.3
			c-0.3-1.2-0.6-2.4-0.1-3.6c0,0,0-0.1,0-0.2c-1.3-1.6-0.5-3.5-0.8-5.2c-0.3-1.7-0.6-3.4-0.9-5.2c-0.1-0.8-0.2-1.6-0.2-2.4
			c0-1.1-0.4-2-1.1-2.9c-0.3-0.3-0.3-1-0.3-1.4c-0.1-0.7,0.1-1.6-0.1-2.2c-0.4-1.3-0.1-2.4,0.3-3.5c0.3-0.7,0.5-1.4,0.7-2.1
			c0.1-0.2,0-0.5,0.2-0.7c1.5-1.5,1.6-3.4,2-5.3C192,128.7,192.5,128.3,193.1,127.5z"/>
		<path class="st0" d="M168.6,178c-0.3-0.8-0.7-1.6-0.9-2.4c-0.4-1.5-1.1-2.9-1-4.5c0-0.8-0.6-1.7-1.1-2.5c-0.4-0.6-0.7-1.1-0.4-1.8
			c0.1-0.3,0.1-0.6,0.1-0.9c-0.4-1.5-0.9-3-1.2-4.5c-0.4-1.6-1.1-3.1-1-4.8c0-0.6-0.1-1.2-0.2-1.7c-0.5-1.6-1.3-3.1-0.9-4.8
			c0-0.2-0.1-0.4-0.2-0.5c-1.5-2-1.3-4.5-1.7-6.8c-0.1-0.5-0.2-0.9-0.4-1.3c-0.1-0.3-0.4-0.5-0.3-0.8c0.4-2.8-1.2-5.3-1.2-8.1
			c-1-1.6-1.2-3.5-1.5-5.3c-0.3-1.4-0.4-2.9-1.5-4c0.1-1.2,0.2-2.4,0.4-4c0.7,0.6,1.2,0.9,1.5,1.4c0.7,1.1,1.7,1.9,2.9,2.4
			c0.3,0.1,0.6,0.3,0.8,0.6c1.1,1.8,2.5,3.2,4.6,3.7c0.4,0.1,0.8,0.7,1.1,1c1.2,1.3,2.6,1.3,3.8,0.2c1-0.9,1-0.9,1.8,0.3
			c0.5-0.3,1-0.6,1.4-0.8c0.5,0.8,1,1.6,1.4,2.4c0.2,0.3,0.3,0.6,0.3,1c-0.1,2.2,0.7,4.1,1.4,6.1c0,0.1,0,0.1,0.1,0.2
			c1.5,1.4,0.7,3,0.3,4.5c-0.3,1.2-0.7,2.3-1,3.5c-0.2,1.2-0.3,2.4-0.4,3.6c0,0.2,0.1,0.5-0.1,0.7c-1.2,1.8-1.3,3.9-1.7,6
			c-0.1,0.3-0.3,0.6-0.2,0.8c0.3,1.5-0.3,2.7-1.1,3.9c-0.3,0.4-0.4,1-0.3,1.5c0.2,1.7-0.4,3.3-0.8,5c-0.8,3.6-1.7,7.1-2.5,10.7
			C168.8,178,168.7,178,168.6,178z"/>
		<path class="st0" d="M92.4,142c-3,0.1-5.7,0.7-8.3,1.6c-1.2,0.4-2.5,0.5-3.9,0.7c-0.6-0.8-1.1-1.5-0.9-2.7c0.2-1-0.2-2.1-0.5-3.1
			c-0.3-1.2-0.7-2.4-1.1-3.7c-0.1-0.3-0.2-0.7-0.3-1c-0.5-2.3-0.9-4.7-1.4-7c0-0.2-0.1-0.4,0-0.5c0.9-2.3,0.1-4.5-0.2-6.7
			c-0.3-2.1-0.7-4.1-1.1-6.4c1.3,0.6,2.4,0.2,3.6-0.2c0.9-0.3,1.9-0.3,2.9,0.2c0.7,0.3,1.7,0.6,2.3,0.4c1.2-0.4,2.3-0.5,3.5-0.4
			c0.8,0,1.4,0.2,2.1,0.3c1.8,0.3,3.8,0.7,5.4,0.3c1.5-0.4,2.9-0.1,4.3-0.1c1.5,0,2.1,1.1,2.5,2.3c0.8,2.5,1.5,5,2.3,7.5
			c0.1,0.3,0.2,0.7,0,1c-0.9,1.7-1.9,3.4-2.9,5c-0.2,0.3-0.5,0.4-1.1,0.8c0.5-1.9-0.4-3.5,0.3-5.1c0.1-0.3,0-0.8,0-1.2
			c0.1-1.1,0.1-2.2,0.2-3.3c0.1-1.2-0.6-2.4-1.6-2.6c-1.1-0.1-2,0.8-2.2,2c-0.2,1.1-0.4,2.1-0.7,3.2c-0.1,0.5-0.3,1-0.3,1.5
			c0,0.8-0.1,1.5-0.6,2.2c-0.3,0.5-0.5,1.2-0.5,1.8c0,1.6-0.3,3.2-0.7,4.8c-0.5,2.1-1.2,4.2-1,6.4C92.7,140.7,92.5,141.3,92.4,142z"
			/>
		<path class="st0" d="M298.8,227.6c-0.9,1.6,0,3.1,0.2,4.6c0.3,2.3,1,4.5,1.2,6.7c0.1,1.9,0.8,3.6,1.1,5.4c0.2,1.2,0.8,2.4,0.8,3.7
			c0,0.3,0.1,0.6,0.4,0.8c1.1,0.8,1,2,1.2,3.1c0.3,1.5-0.4,2.6-1.8,2.9c-1.2,0.3-2.4,0.4-3.6,0.6c-1.1,0.2-2.1,0.5-3.2,0.8
			c-2.6,0.7-5.3,1.3-7.9,2c-0.7,0.2-1.3,0.9-2.2,1.5c-0.5-0.3-1.3-0.6-2-0.9c0.3-1.1,0.4-2.1,0.8-3c0.8-2,0.5-4.2,1-6.2
			c0.2-1.1,0.4-2.2,0.6-3.3c0.3-2,0.6-4,0.9-6c0.1-0.4,0-0.8,0-1.2c-0.1-1-0.6-1.6-1.6-1.9c-0.9-0.2-1.9,0-2.3,0.9
			c-0.6,1.2-1.1,2.6-1.4,3.9c-0.4,1.6-0.5,3.3-0.8,5c-0.9-0.1-1.6-0.4-1.8-1.3c-0.2-1-0.8-1.8-1.6-2.4c-0.9-0.6-0.7-1.1,0.1-1.8
			c0.6-0.5,1.2-0.9,1.6-1.6c0.8-1.2,1.1-2.7,2.3-3.6c0.2-2.4,2.2-3.8,3.2-5.6c1.1-1.9,2.4-3.7,3.6-5.6
			C291.4,225.1,295.1,225.9,298.8,227.6z"/>
		<path class="st0" d="M336.8,319.8c0.2,0.6,0.2,1,0.3,1.3c0.6,2.6,1.2,5.2,1.8,7.8c0.2,1,0.6,1.9,0.6,2.9c0,2.6,0.4,5,1.6,7.3
			c0.2,0.4,0.2,0.9,0.2,1.3c-0.1,1.4,0.1,2.7,0.8,3.9c0.2,0.3,0.3,0.6,0.3,1c0,2.1,0.7,4.1,1.1,6.1c0.4,1.8,0.3,3.6,0.9,5.4
			c0.4,1.1,0.3,2.4,0.4,3.7c-0.6,0.2-1,0.1-1.3-0.6c-0.5-0.9-1-1.9-1.7-2.6c-1.1-1.2-2.2-2.3-3.5-3.2c-1-0.7-1.9-1.6-2.5-2.6
			c-0.1-0.2-0.2-0.5-0.4-0.6c-2.2-0.9-2.9-3.4-4.9-4.6c-0.2-0.1-0.4-0.4-0.6-0.6c-1.2-1.5-2.1-3.1-3.7-4.3c-0.5-0.4-0.8-1.2-1.1-1.9
			c-0.3-1-0.5-2-0.8-3c-0.4-1.2-0.9-2.2-0.9-3.5c0-1.2-0.9-2-1.9-2.7c0.7-1.9-0.8-3.1-1.5-4.8c0.7-0.3,1.3-0.7,1.9-0.9
			c2.1-0.6,4.2-1.1,6.3-1.6c0.3-0.1,0.6-0.2,0.8-0.3c1.1-0.9,2.1-1.6,3.6-1.1c0.2,0.1,0.4-0.1,0.7-0.2
			C334.3,320.8,335.5,320.3,336.8,319.8z"/>
		<path class="st0" d="M10.1,479.9c3.5-1.3,6.8-0.9,10-0.9c1.1,0,2.2,0,3.3-0.3c1.6-0.3,3.4,0.2,5-0.8c0.1-0.1,0.4-0.1,0.5,0
			c2.6,0.5,5.1-0.5,7.6-0.4c1.3,0,2.6,0,3.8-0.2c1-0.1,2-0.5,3-0.8c1.5,1.3,3.1,2.6,4.8,3.9c0.4,0.3,0.8,0.4,1.2,0.6
			c0.3,0.1,0.7,0.1,0.8,0.3c0.9,1.3,2.3,1.9,4,2c-0.7,1.4-1.2,2.5-1.8,3.6c-0.2,0.5-0.4,1-0.6,1.4c-0.3,0.6-0.7,1.2-1.1,1.7
			c-0.9,1.5-2.3,2.6-3.7,3.7c-0.4,0.3-0.6,1-0.9,1.5c-0.7,1.4-1.5,1.6-2.8,0.9c-2-1.2-4-2.5-6.1-3.6c-1.6-0.9-3.3-1.6-4.9-2.2
			c-1.8-0.7-3.5-1.5-5.2-2.5c-1.4-0.9-3.2-1.2-4.8-1.7c-0.3-0.1-0.9,0-1-0.2c-0.8-1.4-2.3-1.7-3.4-2.6c-0.5-0.4-1-0.9-1.6-1
			C14.1,482,12.6,480.3,10.1,479.9z"/>
		<path class="st0" d="M194.8,124.6c-1.2-1.3-2.8-2.1-3.4-3.7c-0.1-0.2-0.4-0.5-0.6-0.6c-1.6-0.2-1.9-1.5-2.4-2.7
			c-0.4-0.7-0.8-1.4-1.3-2.2c1.9-0.3,3.1-1.5,4.6-2.6c1.4-1,2.4-2.6,4.1-3.1c0.1,0,0.2-0.1,0.3-0.2c0.8-1.7,2.5-2.4,3.7-3.6
			c0.6-0.6,1.2-1,1.9-1.6c1.7,1.1,3.2,2.2,4.7,3.2c0.4,0.3,0.8,0.5,1.2,0.6c1.5,0.4,2.3,1.7,3.5,2.5c-0.8,1.1-1.6,1.9-2.8,2.2
			c-1.6,0.4-2.6,1.5-3.5,2.8c-0.4,0.6-0.8,1.2-1.3,1.6c-1.1,0.9-2.3,1.6-3.3,2.5c-1.2,1.1-2.2,2.5-3.8,3.2
			C195.7,123.2,195.3,124,194.8,124.6z"/>
		<path class="st0" d="M169.6,124.8c-1-0.1-1.5-0.6-2-1.3c-0.8-1.4-2.3-2.1-3.7-2.8c-0.4-0.2-0.8-0.2-1.1-0.5
			c-1.1-1.2-2.2-2.4-3.2-3.6c-0.8-0.9-1.6-1.9-2.5-2.9c1.7-1.4,3.2-2.6,4.8-3.8c1.4-1.1,2.8-2.2,4.3-3.4c0.2,0.4,0.5,1,0.7,1.5
			c0.3,1,0.9,1.7,2,1.7c0.8,0,1,0.5,1.4,1.1c0.4,0.6,0.9,1.4,1.5,1.5c1.7,0.4,2.6,1.7,3.7,2.7c0.4,0.4,0.9,0.7,1.4,1
			c1.2,0.8,1.3,1.6,0.1,2.5c-2.1,1.6-4.1,3.2-6.1,4.9C170.4,123.8,170,124.3,169.6,124.8z"/>
		<path class="st1" d="M176.4,125.2c2.7-1.4,4.9-3.2,6.1-5.8c1.2,0.8,2.3,1.5,3.4,2.2c0.3,0.2,0.7,0.4,0.7,0.7
			c0.1,1.4,0.9,2.2,1.9,2.9c-0.5,2.9-2.5,5.3-2.2,8.4c-2.7,0.8-2.8,0.7-5.2,0.3c-0.7-0.1-0.9-0.6-1.2-1.1c-0.4-0.8-0.9-1.6-1.4-2.4
			c-0.2-0.3-0.4-0.6-0.3-0.9C178.5,127.7,177.5,126.6,176.4,125.2z"/>
		<path d="M177.9,242c1.7,0,2.7,0.8,3,2.3c0.1,0.6,0.2,1.2,0.2,1.7c0.1,1.2-1.2,3.3-2.4,3.6c-1.5,0.4-4-1.2-4-2.8
			c0-1.3,0.4-2.6,0.9-3.9C176,242.1,177.1,241.9,177.9,242z"/>
		<path d="M170.1,66.6c0.8,0.5,1.5,1,2.3,1.4c0.8,0.5,1.5,1.1,1.3,2.1c-0.1,0.6-0.5,1.3-1,1.7c-0.7,0.5-1.6,0.5-2.3-0.1
			c-1.5-1.3-2.9-2.5-4.2-3.9c-1-1-1.1-2.7-0.4-3.9c0.5-0.8,1.3-1.5,2-2.2c0.3-0.4,0.7-0.7,1.1-1.1c2.1-2.4,4.2-4.7,6.4-7.1
			c0.1-0.1,0.2-0.3,0.4-0.4c0.6-0.5,1.2-0.7,1.9-0.2c0.7,0.5,0.7,1.2,0.4,1.9c-1,2.1-1.8,4.2-3.6,5.7c-0.2,0.2-0.4,0.4-0.6,0.7
			C172.5,62.9,171.4,64.6,170.1,66.6z"/>
		<path d="M176.1,83.6c-0.4,0-1.1,0.1-1.9,0.2c-1.3,0.2-2.4-0.3-3.3-1.3c-0.3-0.4-0.7-0.7-1.2-0.9c-1.9-0.8-3.1-3-2.6-5
			c0.4-1.4,1.3-1.9,2.5-1.2c0.9,0.5,1.8,1.3,2.5,2.1c0.5,0.5,0.8,1,1.5,0.9c0.1,0,0.2,0,0.3,0.1c3,1.6,4.8-0.5,6.9-2.1
			c0.2-0.1,0.3-0.4,0.4-0.5c0.8-0.7,1.7-0.8,2.6-0.3c0.9,0.6,1.1,1.7,0.7,2.6c-0.9,2-2.3,3.5-4.1,4.7
			C179.3,83.7,177.9,83.8,176.1,83.6z"/>
		<path d="M162.7,50.5c1.7,0,3.5,1.8,3.5,3.5c0,1.4-1.9,3.2-3.4,3.2c-1.6,0-3.1-1.6-3.2-3.5C159.5,52.1,161.1,50.6,162.7,50.5z"/>
		<path d="M187,55.6c0.2-1.1,0.4-2.3,1.7-3c1.5-0.8,2.7-0.7,3.9,0.5c0.3,0.3,0.6,0.9,0.5,1.2c-0.3,1.1-0.6,2.3-1.2,3.2
			c-0.7,1.2-2,1.3-3.4,0.7C187.4,57.8,186.9,56.9,187,55.6z"/>
	</g>
	<path class="st2" d="M165.2,61.2c-0.1,1.7-2.3,2.9-4.9,2.8c-2.6-0.1-4.7-1.6-4.6-3.3c0.1-1.7,2.3-2.9,4.9-2.8
		C163.2,58.1,165.3,59.5,165.2,61.2z"/>
	<path class="st2" d="M196.4,63.2c-0.1,1.7-2.6,2.9-5.7,2.7c-3.1-0.2-5.5-1.6-5.4-3.3c0.1-1.7,2.6-2.9,5.7-2.7
		C194.1,60.1,196.5,61.6,196.4,63.2z"/>
</g>
</svg>
