<?xml version="1.0" encoding="utf-8"?>
<!-- Generator: Adobe Illustrator 25.0.0, SVG Export Plug-In . SVG Version: 6.00 Build 0)  -->
<svg version="1.1" id="_xEFF5__xEED3__x5F_4" xmlns="http://www.w3.org/2000/svg" xmlns:xlink="http://www.w3.org/1999/xlink"
	 x="0px" y="0px" viewBox="0 0 105.9 150.3" style="enable-background:new 0 0 105.9 150.3;" xml:space="preserve">
<style type="text/css">
	.st0{fill:#FFFFFF;}
	.st1{fill:#FDD23E;}
</style>
<path d="M105.1,135.6c-0.2-0.1-0.3-0.4-0.4-0.6c-0.3-1-1.1-1.7-1.7-2.4c-0.5-0.6-1.1-0.9-1.2-1.9c-0.1-0.8-0.8-1.5-1.2-2.3
	c-0.6-1.1-1.4-2.1-2.1-3.1c-0.2-0.2-0.4-0.5-0.6-0.6c-0.4-0.2-0.5-0.4-0.6-0.8c-0.3-0.7-0.8-1.4-1.1-2.1c-0.4-0.8-0.6-1.7-1.5-2.2
	c0,0,0-0.1,0-0.1c-0.1-0.8-0.6-1.2-1.2-1.6c-0.1-0.1-0.3-0.3-0.3-0.5c0.2-1.7-1.1-2.7-1.9-4c-0.4-0.6-0.9-1.1-1.1-1.8
	c-0.2-0.8-0.7-1.3-1.2-1.9c-0.5-0.7-1-1.5-1.4-2.3c-0.5-1-0.9-2-1.3-3c-0.4-0.8-0.8-1.5-1.3-2.3c-0.4-0.7-0.8-1.3-1.2-2
	c-0.1-0.1-0.1-0.2-0.1-0.3c-0.4-0.9-0.4-2.1-1.5-2.7c-0.1-0.1-0.1-0.3-0.1-0.5c-0.1-0.5-0.1-1-0.3-1.5c-0.3-0.8-0.9-1.6-1.1-2.4
	c-0.4-1.4-1.6-2.4-1.6-4c0-0.1-0.1-0.3-0.2-0.4c-0.4-0.9-0.9-1.8-1.3-2.7c-0.1-0.2-0.1-0.6-0.1-0.8c0.1-1.2,0.5-2.4,0.3-3.5
	c-0.2-1-0.4-2-0.5-3c0-0.1-0.1-0.3,0-0.4c0.4-1.2,0.6-2.5,0-3.7c0-0.1,0-0.3,0-0.4c0-0.7-0.1-1.3-0.1-2c-0.1-0.6-0.2-1.2-0.3-1.8
	c-0.2-0.9-0.1-2-0.7-2.8c-0.2-0.3-0.1-0.8-0.2-1.2c-0.1-0.6-0.2-1.2-0.3-1.7c-0.1-0.4-0.3-0.7-0.4-1c-0.2-1.2-0.4-2.4-0.6-3.7
	c-0.2-0.9-0.1-1,0.8-1c0.4,0,0.8,0.1,1.2,0.2c0.6,0,1.2,0.1,1.7-0.1c1-0.4,2-0.2,3-0.2c0.7,0,0.8,0.4,0.8,1c0,0.4,0.1,0.9,0.3,1.2
	c0.5,0.7,0.7,1.4,0.6,2.2c-0.1,0.5-0.1,1,0,1.5c0.2,1.1,0.8,2.1,0.6,3.3c-0.1,0.4,0.2,0.9,0.3,1.3c0.2,0.8,0.3,1.7,0.7,2.4
	c0.2,0.4,0.7,0.5,1.2,0.7c0.2,0.1,0.4,0,0.6,0c-0.4,0.6-0.8,1-1.1,1.6c-0.3,0.5-0.4,1.2-0.6,1.7c-0.3,0.8-0.4,1.6,0.3,2.1
	c0.8,0.6,1.7,1.1,2.5,1.5c0.4,0.2,0.8,0.3,0.7,0.8c-0.2,0.6-0.4,1.2-0.1,1.9c0.4,0.7,1.1,0.7,1.8,0.7c1,0,2,0.1,2.9,0
	c1.3-0.1,2.6-0.4,3.9-0.5c1,0,1.7-0.2,1.9-1.2c0-0.1,0.1-0.2,0.2-0.3c0.7-0.5,0.7-1.2,0.6-2c0-0.3-0.1-0.6,0.1-0.8
	c0.4-1,1-2,0.9-3.1c0-0.1,0.1-0.3,0.2-0.4c0.6-0.8,0.5-1.5-0.3-2c-0.9-0.6-1.8-1.3-2.7-1.9c0.1-0.3,0.3-0.6,0.5-0.9
	c0.3-0.7,0-1.3-0.1-2c-0.2-1.8-0.3-3.6-1-5.3c-0.1-0.1,0-0.3,0-0.5c-0.1-1.2-0.2-2.4-0.3-3.6c0-0.2-0.2-0.4-0.2-0.5
	c-0.1-0.5-0.2-1-0.3-1.5c0-0.2,0-0.4,0-0.6c-0.2-1.7-1-3.3-0.9-5.1c0-0.1,0-0.1-0.1-0.2c-0.2-0.8-0.5-1.5-0.5-2.3
	c-0.1-1.4-1.1-2.4-1.5-3.7c0-0.1-0.1-0.1-0.1-0.1c-0.5-0.6-1-1.2-1.5-1.8c-0.3-0.3-0.7-0.5-1-0.6c-0.3-0.1-0.6-0.2-0.9-0.3
	c-0.4-0.1-0.9-0.1-1.3-0.2c-0.2,0-0.4,0.1-0.5,0c-0.9-0.1-1.8-0.2-2.8-0.4c-0.3,0-0.7-0.1-1-0.2c-0.5-0.2-1.1-0.5-1.6-0.5
	c-0.8-0.1-1.6,0.1-2.4,0.1c-0.2,0-0.3,0-0.5-0.1c-0.7-0.1-1.4-0.3-2.1-0.4c-0.6-0.1-1.2-0.2-1.8-0.3c-1.1-0.1-2.1-0.2-3.2-0.3
	c0,0,0,0-0.1,0c-0.7,0.5-1.3,0.1-1.9-0.1c-0.4-0.1-0.8-0.2-1.2-0.2c-1.3,0-2.6,0-4,0c-1.1,0-2.2,0-3.3,0c-0.1,0-0.2,0-0.3-0.1
	c-1-0.5-1.9-1.2-3.1-1c-0.2,0-0.4-0.1-0.5-0.3c-0.1-0.1,0.1-0.4,0.2-0.5c0.9-0.9,1.9-1.7,2.8-2.6c0.7-0.7,1.5-1.4,1.7-2.5
	c0-0.2,0.2-0.3,0.4-0.4c1-0.6,1.1-1.7,1.5-2.6c0.1-0.3,0.1-0.6,0.3-0.9c0.7-1,1.2-2.1,0.7-3.3c0-0.1,0-0.3,0.1-0.4
	c0.8-0.6,0.8-1.4,0.7-2.3c0-0.2,0-0.5,0-0.7c-0.1-1-0.2-1.9-0.3-2.9c-0.1-0.5-0.4-1.1-0.3-1.5c0.3-0.7,0.3-1.3-0.1-1.9
	c-0.1-0.1,0-0.3,0-0.5c0-0.3,0.1-0.7-0.1-0.8c-0.7-0.9-0.7-2.1-1.3-2.9c-0.9-1.4-1.5-3-2.9-4.1c-1-0.7-1.6-1.9-2.7-2.6
	c-1.2-0.8-2.4-1.8-4-2c-0.1,0-0.2-0.2-0.4-0.3c-0.3-0.2-0.6-0.4-0.9-0.5c-1.6-0.3-3.2-0.5-4.8-0.7C48.4,0,47.8,0,47.2,0
	c-0.9,0.1-1.9,0.3-2.8,0.5c-0.9,0.2-1.9-0.2-2.6,0.8c-0.1,0.1-0.3,0-0.4,0c-1.2,0.1-2.2,0.6-3.1,1.3c-0.3,0.2-0.7,0.4-1.1,0.4
	C36.1,3,35,2.7,33.9,2.5c-0.2,0-0.4,0-0.6,0c-1.1,0.1-2.1,0.2-3.2,0.4c-0.7,0.1-1.5,0.4-2.2,0.7c-0.4,0.1-0.7,0.4-1,0.6
	c-1.1,0.7-2.6,0.9-3.2,2.4c0,0.1-0.2,0.1-0.3,0.2c-0.4,0.3-0.8,0.6-1.2,1c-0.5,0.5-0.9,1.2-1.4,1.6c-0.6,0.5-1,1.1-0.9,1.9
	c0,0.5-0.1,0.8-0.5,1.1c-0.3,0.2-0.3,0.7-0.5,1c-0.1,0.2,0,0.4,0,0.5c-0.2,0.9-0.4,1.8-0.6,2.7c-0.1,0.4-0.2,0.8-0.4,1.1
	c-0.3,0.5-0.4,1-0.1,1.6c0.1,0.2,0,0.4,0,0.6c0,0.3-0.2,0.5-0.1,0.8c0.2,1.1,0.5,2.1,0.8,3.2c0.1,0.2,0.3,0.4,0.2,0.6
	c-0.2,0.8,0.2,1.4,0.4,2.1c0.3,1.1,1.4,1.6,1.6,2.8c0,0.1,0.1,0.1,0.2,0.2c0.7,0.7,1.1,1.6,1,2.6c0,0.6,0.2,1.2,0.4,1.7
	c0.2,0.6,0.5,1.3,0.8,1.9c0.4,0.7,0.7,1.6,1.2,2.2c0.7,0.8,1.6,1.5,2.4,2.2c0.8,0.7,1.6,1.5,2.9,1.3c0.1,0,0.3,0.1,0.4,0.2
	c0.6,0.6,1.3,0.7,2,0.5c0.3-0.1,0.7-0.1,1-0.1c1.3,0.2,2.5,0.6,3.7-0.2c0,0,0.1,0,0.2,0.1c-1.6,1-2.9,2.3-4,3.7
	c-1.1-0.1-1.9,0-2.8,0.7c-1,0.8-1.9,1.4-3.2,1.6c-0.8,0.1-1.5,0.7-2.4,0.9c-1.1,0.3-2.1,0.8-3.1,1.2c-0.6,0.2-1.2,0.3-1.6,1
	c-0.1,0.1-0.2,0.1-0.4,0.1c-0.6,0.2-1.2,0.3-1.8,0.5c-0.4,0.1-0.8,0.3-1.1,0.5c-0.3-0.6-0.8-1.1-0.9-1.6c-0.2-1-0.4-1.9-0.9-2.9
	c-0.7-1.4-1.8-2-3.5-1.3c0.1-0.7,0-1.4,0.2-2c0.2-0.9,0.7-1.7,0.8-2.6c0.1-0.7,0.4-0.8,1-0.9c0.2,0,0.4,0,0.7-0.1
	c1.2-0.2,1.9-1.7,1.2-2.7c-0.2-0.4-0.3-0.8-0.5-1.3c-0.3-0.9,0-1.9-0.6-2.8c-0.5-0.8-0.7-1.8-0.5-2.9c0.1-0.6-0.3-1.1-0.8-1.2
	c-0.9,0-1.9,0.1-2.8,0.1c-0.8,0-1.6,0.1-2.3,0.1c-1.1-0.1-2.3,0.7-2.4,1.9c0,0.2,0,0.3,0,0.5c-0.8,0.2-1.2,0.7-1.4,1.4
	c-0.2,0.5-0.3,1.2-0.7,1.5c-0.6,0.4-0.9,0.8-1.2,1.3c-0.6,1-1.2,2-1.7,3.1C0,40.3,0,40.6,0,40.7c0.7,1.8,1.3,3.6,2,5.4
	c0.1,0.4,0.3,0.6,0.1,1c-0.1,0.3,0,0.6,0.1,0.9c0.2,0.6,0.5,1.2,0.7,1.8c-1,0.8-1.2,1.6-0.7,3c0.4,1,0.6,2.1,0.9,3.1
	c0,0.1,0,0.1,0,0.2c-0.3,1.2,0.4,2.2,0.9,3.1c0.6,1,0.7,2.1,0.9,3.1c0.3,1.1,0.4,2.2,1.2,3.1c0.3,0.3,0.4,0.7,0.6,1
	c0.4,0.8,0.6,1.7,1.5,2.1c0.6,0.3,1.2,0.9,2,0.8c0.1,0,0.3,0.2,0.4,0.2c0.6,0.3,1.2,0.6,1.8,0.9c0.4,0.2,0.9,0.1,1.3,0.2
	c0.2,0,0.5,0,0.7,0c0.7-0.1,1.4-0.3,2-0.5c1-0.3,1.9-0.7,2.9-1.1c0.6-0.2,1.1-0.3,1.7-0.4c1.2-0.2,2.2-0.9,3.4-1
	c0.8-0.1,1.7-0.4,2.6-0.5c0.9-0.1,1.8-0.5,2.6-1.2c0.4-0.4,1-0.3,1.1,0.1c0.2,0.7,0.3,1.5,0.4,2.2c0.1,1.2,0,2.4,0.1,3.5
	c0.1,1,0,2,0.5,3c0.3,0.5,0,1.4,0,2.1c0,0.3-0.2,0.6-0.3,1c-0.3,1,0.3,1.8,0.4,2.8c0.1,0.6,0.4,1.3,0.2,1.7c-0.3,0.9-1,1.6-0.7,2.6
	c0,0.1-0.1,0.3-0.1,0.4c-0.1,0.4-0.1,0.9-0.2,1.3c0,0.5,0,1-0.1,1.5c-0.1,0.3-0.3,0.5-0.5,0.7c-0.7,0.5-1.4,1-2.1,1.5
	c-0.4,0.3-0.7,0.8-1.1,1c-2.1,1-3.9,2.5-5.7,3.9c-0.7,0.6-1.3,1.2-2,1.7c-0.7,0.4-1,1-1.3,1.7c-0.1,0.2-0.3,0.4-0.5,0.5
	c-0.9,0.4-1.7,1.8-1.7,2.8c0,0.7-0.1,1.3-0.2,2c0,0.2-0.1,0.4,0,0.6c0.3,0.9,0.5,1.7,0.8,2.6c0.1,0.2,0.4,0.5,0.3,0.7
	c-0.1,1.5,0.9,2.5,1.4,3.8c0.1,0.3,0.4,0.4,0.5,0.7c0.3,0.4,0.6,0.7,0.8,1.1c0.3,0.7,0.5,1.5,0.8,2.3c0.2,0.8,0.6,1.4,1.3,1.9
	c0.1,0.1,0.2,0.2,0.2,0.3c0.1,1.5,1.1,2.7,1.7,4c0.5,1,1.2,1.9,1.7,2.9c0.4,0.7,0.6,1.6,1.5,2.1c0.1,0.1,0.1,0.3,0.2,0.4
	c0.6,1,1.1,1.9,1.7,2.9c0.2,0.3,0.4,0.6,0.6,0.9c0.5,0.7,0.1,2,1.8,2c-0.4,0.7-0.7,1.2-1,1.7c-0.5,0.6-1,1.1-1.6,1.6
	c-0.5,0.5-1,1.1-1.6,1.5c-1.4,1-1.6,1.9-0.6,3.3c0.1,0.1,0.1,0.1,0.2,0.2c0.4,0.4,0.9,0.8,1.1,1.4c0.1,0.1,0.1,0.2,0.2,0.3l1.5,0
	c0,0,0,0,0,0c0.6,0,1.1,0,1.7,0.1c0.2-0.1,0.4-0.1,0.6-0.2c0.9-0.3,1.8-0.7,2.7-1.1c0.8-0.4,1.5-1.2,2.5-0.9c0.1,0,0.2,0,0.3,0
	c0.7-0.2,1.4-0.5,2.1-0.8c0.5-0.2,1-0.6,1.5-0.8c0.9-0.3,1.8-0.6,2.7-0.9c0.6-0.2,1-0.6,1.6-0.9c0.4-0.2,0.8-0.4,1.2-0.5
	c0.7-0.1,1.3-0.6,1.3-1.2c0-0.9,0-1.8-0.3-2.6c-0.4-1.3-1.1-2.6-1.7-3.9c0.1-0.4,0.3-0.8,0.5-1.3c0.1-0.3,0.2-0.6,0.1-0.9
	c-0.1-0.6-0.4-1.1-0.6-1.6c-0.6-1.3-0.5-2.9-1.6-4c-0.1-0.1,0-0.2-0.1-0.3c-0.6-1.3-1.2-2.7-1.7-4c-0.1-0.2-0.1-0.4-0.1-0.6
	c0-0.6-0.2-1-0.6-1.4c-0.2-0.2-0.3-0.5-0.4-0.7c-0.4-1.2-0.7-2.4-1.1-3.5c-0.3-0.8-0.6-1.5-0.9-2.4c0.6-0.2,1.1-0.4,1.6-0.6
	c0.3-0.1,0.6-0.3,0.9-0.4c0.3-0.2,0.6-0.3,0.9-0.5c0.2-0.1,0.3-0.1,0.5-0.2c0.5-0.2,0.9-0.5,1.4-0.7c0.9-0.4,1.8-0.8,2.7-1.2
	c0.3-0.2,0.6-0.5,0.9-0.6c1.2-0.2,1.8-1.5,2.9-1.7c0,0,0,0,0,0c0.2-0.1,0.4-0.2,0.6-0.2c1.1,0,2.2-0.4,2.9-1.1
	c0.8-0.8,1.7-1.1,2.9-1.1c0.3,0.6,0.6,1.3,1,2c0.1,0.2,0.4,0.4,0.5,0.6c0.3,0.3,0.7,0.7,0.7,1.1c0.3,1.5,1.7,2.3,2.2,3.7
	c0,0.1,0.1,0.2,0.2,0.2c0.6,0.2,0.7,0.7,0.8,1.2c0.2,1,1.1,1.6,1.6,2.5c0,0.1,0.1,0.1,0.2,0.1c0.6,0.7,1.3,1.3,1.9,2.1
	c1.1,1.6,2.1,3.3,3.3,5c0.7,1.1,1.6,2.1,2.3,3.1c0.5,0.6,0.8,1.3,1.4,1.7c1.2,0.8,1.7,2.1,2.6,3.1c0.3,0.3,0.6,0.5,0.9,0.8
	c0.2,0.2,0.4,0.4,0.5,0.6c0.4,0.5,0.7,1,1.1,1.4c0.5,0.5,1.3,0.8,1.5,1.7c0.1,0.3,0.5,0.5,0.8,0.7c0.1,0.1,0.4,0.2,0.5,0.3
	c0.4,0.6,1.2,0.9,1.4,1.7c0,0.1,0.2,0.2,0.3,0.3c0.3,0.3,0.6,0.6,0.9,0.9c0.6,0.7,1,1.5,1.9,1.9c0.1,0,0.2,0.2,0.3,0.3
	c0.3,0.4,0.7,0.8,1,1.2c0.2,0.3,0.6,0.6,0.6,1c0.1,0.8,0.6,1.2,1.4,1.3c-0.1,0.7-0.1,1.3-0.4,1.8c-0.5,0.9-0.9,2-1.8,2.7
	c-0.2,0.1-0.2,0.3-0.3,0.5c-0.2,0.3-0.4,0.7-0.7,1c-0.3,0.3-0.3,0.6,0,0.9c0.4,0.5,0.8,1,1.2,1.5c0.4,0.5,0.7,1,1.2,1.2
	c0.3,0.1,0.8-0.2,1.2-0.4c0.1,0,0.2,0,0.3-0.1c0.9-0.4,2-0.5,2.7-1.4c0.1-0.1,0.2-0.1,0.3-0.1c1-0.6,2-1.2,3.1-1.8
	c0,0,0.1-0.1,0.1-0.1c0.5-0.4,0.9-0.8,1.4-1.2c0.5-0.4,1.1-0.6,1.6-1c0.6-0.4,1-1,1.6-1.4c0.2-0.2,0.5-0.5,0.8-0.6
	c0.9-0.2,1.6-0.7,2-1.5c0.3-0.6,0.7-0.9,1.2-1.1c0.6-0.2,1.1-0.7,1.1-1.3C105.7,137.4,106.3,136.3,105.1,135.6z M98.5,73.6
	c-0.1,0.2-0.2,0.4-0.2,0.5c-0.4,0.7-0.6,1.5-0.5,2.4c0.1,0.7,0,1.4-0.5,2c-0.1,0.2-0.2,0.4-0.3,0.8c-0.2-0.9-0.3-1.7-0.5-2.4
	c-0.1-0.2-0.3-0.5-0.5-0.5c-0.2,0-0.6,0.1-0.7,0.3c-0.3,0.5-0.6,1.1-0.8,1.7c-0.1,0.3-0.2,0.7-0.2,1c0.1,0.6-0.1,0.7-0.6,0.6
	c0-0.7,0-1.4,0-2.2c0-0.7-0.3-1.2-0.9-1.3c-0.5-0.1-0.9,0.4-1.1,1c-0.2,0.9-0.5,1.8-0.7,2.9c-0.1-0.2-0.4-0.5-0.3-0.5
	c0.4-0.7,0.3-1.4,0-2.2c-0.1-0.3,0.1-0.8,0.1-1.2c0-0.5,0.1-1.1-0.6-1.3c-0.7-0.1-1,0.4-1.1,1c-0.1,0.4-0.2,0.8-0.3,1.2
	c-0.7-0.5-1.4-1-2.1-1.6c1.2-1,1.6-2.5,1.9-3.9c1.1,0.1,2.1-0.2,3-1c0.6,0.5,1.3,0.4,2,0.2c0.3-0.1,0.8,0,1.2,0.2
	C96,72,97.3,72.8,98.5,73.6z M59.4,40.4c-0.1,0.5-0.3,1-0.8,1.3c-0.3,0.2-0.6,0.6-0.8,0.9c-0.4,0.7-0.7,1.4-1.1,2.2
	c0,0.1-0.1,0.2-0.1,0.3c0.1,1-0.7,1.7-1,2.6c-0.1,0.5-0.5,0.8-0.8,1.3c-0.3,0.5-0.6,0.9-1,1.4c-0.2-0.2-0.4-0.4-0.6-0.6
	c-0.6-0.6-1.2-1.2-1.9-1.7c-0.7-0.4-0.7-1-0.2-1.7c0.8-1.2,1.6-2.4,2.3-3.5c0.4-0.7,0.9-1.3,1.2-2c0.4-0.7,0.7-1.5,1-2.3
	c0.1-0.1,0.2-0.2,0.2-0.3c0.1,0.2,0.1,0.4,0.2,0.5c0.1,0.2,0.4,0.4,0.5,0.4C57.7,39.1,58.4,40.1,59.4,40.4z M21.8,21
	c-0.5,1.2-0.6,2.5-0.9,3.7c-0.5-0.2-0.6-0.7-0.6-1.3c-0.1-1.1-0.3-2.3-0.4-3.4c0-0.1,0-0.3,0.1-0.4c0-0.4,0.1-0.8,0.1-1.2
	c0-0.4,0.1-0.9,0.2-1.3c0.2-0.7,0.4-1.5,0.7-2.2c0.1-0.2,0.2-0.4,0.2-0.5c0.1-0.3,0.3-0.7,0.2-1c-0.1-0.5,0.1-0.7,0.4-1.1
	c0.5-0.5,0.8-1.2,1.3-1.8c0.2-0.3,0.5-0.5,0.8-0.8c0.1-0.1,0.4-0.2,0.5-0.4c1-1.5,2.7-2.1,3.8-3.3c0.1-0.1,0.1-0.2,0.2-0.2
	C29.8,5.7,31,4.6,32.5,5c0.6,0.2,1.3-0.1,1.9-0.1c0.5,0,1.2,0,1.6,0.3c0.8,0.6,1.4,0.1,2.1,0c0.8-0.2,1.6-0.6,2.4-1
	c0.3-0.1,0.6-0.2,0.9-0.4c0.5-0.3,1-0.6,1.7-0.5c0.5,0.1,1.1-0.4,1.6-0.4c0.8-0.1,1.7,0,2.5-0.1c0.4,0,0.9-0.1,1.3-0.1
	c1.4,0,2.7,0.4,4.1,0.6c2.1,0.3,3.6,1.5,5,2.9c0.6,0.5,1.2,1,1.8,1.5c0.3,0.3,0.4,0.7,0.7,1c0.4,0.6,0.8,1.1,1.2,1.7
	c0.3,0.5,0.4,1.1,0.8,1.5c0.5,0.6,0.9,1.2,1,2c0,0.4,0.3,0.8,0.5,1.1c0.6,1,0.2,2.1,0.2,3.2c0,0.9,0.1,1.7,0.1,2.6
	c0,0.2,0,0.4,0,0.5c-0.2,1.2-0.3,1.2,0.3,2.3c-0.9,0.8-1.1,1.8-1.2,2.8c0,0.3-0.3,0.6-0.4,0.9c-0.4,0.8-0.8,1.6-1.2,2.4
	c-0.1,0.1-0.1,0.3-0.2,0.4c-0.7,0.8-1.4,1.5-2.1,2.3c-1.2,1.1-2.2,2.4-3.7,3.1c-0.3-0.5-0.5-0.9-0.8-1.4c-0.1-0.1-0.1-0.4,0-0.5
	c0.4-0.5,0.9-0.9,1.3-1.3c0.5-0.4,0.9-0.9,1.4-1.3c0.2-0.3,0.4-0.6,0.6-0.9c1-1.5,1.6-2.9,1.2-4.8c-0.3-1.4-1.1-2.3-1.9-3.2
	c-0.3-0.4-1.1-0.4-1.6-0.5c-0.4-0.1-0.8,0.1-1.1,0.1c-1.1-0.1-2,0.3-2.6,1.3c0,0-0.1,0.1-0.2,0.2c-0.2-1-0.4-2-0.6-3
	c-0.1-0.7-1.1-1.5-2-1.4c-0.9,0.1-1.5-0.5-2.2-1c-0.3-0.2-0.7-0.4-1-0.6c-0.6-0.4-1.3-0.8-1.9-1.2c-0.6-0.4-1.1-0.9-1.7-1.4
	c-0.1-0.1-0.3-0.3-0.4-0.5c-0.4-0.8-0.9-1.4-1.7-1.7c-0.2-0.1-0.3-0.2-0.4-0.4c-0.4-0.7-0.8-0.8-1.5-0.3c-1,0.6-1,1.7-1,2.6
	c-0.1,1.5,0.2,3,0.3,4.4c0,0.3,0.2,0.7,0.3,1c0.1,0.4,0.3,0.8,0.3,1.3c-1-0.3-2-0.3-2.8-1.1c-0.5-0.5-1.2-0.8-1.8-1.2
	c-0.2-0.1-0.3-0.4-0.5-0.5c-0.2-0.2-0.4-0.6-0.7-0.7c-1.3-0.5-1.8-1.5-2-2.8c-0.1-0.6-0.6-1.2-1-1.8c-0.2-0.3-0.6-0.2-0.9,0.1
	c-0.2,0.2-0.5,0.3-0.7,0.4c-0.5,0.3-1,0.5-1.5,0.8C24.1,16.1,22.8,18.5,21.8,21z M35.7,39.9c-0.8-0.1-1.6-0.1-2.4-0.1
	c-0.5,0-1-0.2-1.5-0.2c-1.2,0.1-2.1-0.7-3-1.2c-0.7-0.4-1.3-0.7-2-1.1c-0.1-0.1-0.2-0.1-0.3-0.2c-0.6-0.8-1.2-1.7-1.7-2.5
	c-0.2-0.3-0.2-0.6-0.3-0.9c-0.1-0.5-0.1-1.1-0.3-1.5c-0.4-0.8-0.5-1.7-0.6-2.5c0,0,0-0.1,0-0.1c-0.7-0.7-0.4-1.7-0.4-2.5
	c0-1-0.2-2.1,0.5-3c0.2-0.2,0.2-0.5,0.3-0.7c0.3-1,0.6-2,0.9-3c0.3-1.4,1.4-2.4,2.2-3.5c0.3-0.4,0.9-0.7,1.4-1.1
	c0.5,0.6,0.9,1.2,1.4,1.8c0.2,0.3,0.5,0.6,0.7,0.9c0.1,0.2,0.1,0.4,0.2,0.5c0.2,0.4,0.3,0.8,0.6,1c0.6,0.6,1.4,1.1,2,1.6
	c0.1,0.1,0.3,0.2,0.4,0.3c1.6,0.5,3.1,1.4,4.9,1.4c0.4,0,0.8,0.2,1.1,0.3c0.6,0.3,1.6,0.3,1.9-0.1c0.3-0.6,0.5-1.2,0.1-1.8
	c-0.4-0.7-0.8-1.3-1.3-1.9c0-0.1-0.1-0.1-0.1-0.2c-0.2-1-0.5-1.9-0.7-2.9c-0.1-0.3,0-0.6,0-0.9c0.1,0,0.2-0.1,0.2-0.1
	c0.2,0.2,0.5,0.5,0.7,0.7c0.3,0.3,0.5,0.8,0.9,1c1.1,0.8,2.1,1.7,3.3,2.4c0.6,0.4,1.3,0.5,1.9,0.7c1.2,0.3,1.9,1,2.1,2.3
	c0.1,0.3,0.2,0.7,0.3,1c0.1,0.3,0.2,0.6,0.1,0.9c-0.1,0.9,0.3,1.7,1.1,1.9c0.8,0.2,1.5-0.2,1.8-1.1c0.2-0.5,0.4-0.9,1.1-0.9
	c0.2,0,0.5-0.1,0.7-0.2c0.7-0.5,1.5-0.3,2,0.2c0.4,0.5,0.7,1.1,0.8,1.8c0.2,0.8-0.1,1.5-0.7,2.1c-0.8,0.9-1.5,1.9-2.3,2.9
	c-0.1,0.1-0.1,0.1-0.2,0.2c-1.2,0.5-1.2,1.5-1.2,2.6c0,0.7,0.1,1.4,0.5,2.1c0.3,0.6-0.1,1.6,0.2,2.2c0.3,0.7,0,1.2-0.3,1.7
	c-0.5,0.8-1.1,1.5-1.7,2.3c-0.7,0.9-1.2,1.8-1.9,2.7c-0.4,0.5-1,0.9-1.2,1.6c0,0-0.6,0-0.6-0.1c-0.3-0.5-0.7-0.8-1.3-0.9
	c-0.1,0-0.2-0.1-0.2-0.1c-0.6-0.4-1.1-0.8-1.7-1.2c-0.5-0.4-0.9-0.8-1.4-1.2c-0.6-0.5-1.3-0.9-1.7-1.4c-0.3-0.3-0.4-0.9-0.4-1.4
	c0-0.6-0.3-0.7-0.8-0.7c-0.9,0.1-1.8,0.2-2.7,0.3C36.5,40.1,36.1,39.9,35.7,39.9z M36.5,45.8c0.5-0.5,0.9-1,1.3-1.5
	c0.3-0.4,0.6-0.6,1.1-0.1c0.6,0.6,1.3,1.1,2.1,1.5c1,0.6,2.1,1.1,3.1,1.6c0.2,0.1,0.4,0.1,0.5,0.3c0.3,0.6,0.9,0.9,1.7,0.9
	c-0.9,1.3-1.7,2.5-2.5,3.5c-0.8-0.4-1.6-0.8-2.3-1.3c-0.7-0.5-1.2-1.2-1.9-1.7c-0.3-0.2-0.6-0.4-1-0.6c-0.5-0.2-1-0.4-1.2-1.1
	c-0.1-0.2-0.5-0.4-0.7-0.5C36.2,46.5,36.1,46.2,36.5,45.8z M3.8,44.7c-0.1-0.2-0.1-0.5-0.2-0.8c-0.3-0.9-0.5-1.8-0.8-2.6
	c-0.2-0.5-0.3-0.8,0.1-1.2c0.9-0.9,1.5-2,1.7-3.3c0.1-0.4,0.6-0.8,1-1.1c0.6-0.5,1-1.1,0.8-1.9c0.5-0.4,0.8-0.7,1.2-1
	c0.1-0.1,0.1-0.2,0.2-0.2c1,0.1,2.1,0.1,3.1,0.2c0,0.1,0,0.2,0,0.3c-0.2,0-0.4,0.1-0.6,0.1c-0.4,0-0.7-0.1-1.1,0
	c-0.7,0-1.2,0.5-1.1,1.2c0.1,0.6,0.7,1,1.3,0.9c0.6-0.1,1.3-0.3,2-0.4c0.2,0.7-0.2,0.7-0.7,0.8c-0.4,0-0.9,0-1.3,0.2
	c-0.2,0.1-0.5,0.5-0.5,0.7c0,0.2,0.3,0.5,0.5,0.6c0.2,0.1,0.6,0.1,0.8,0.1c0.5-0.1,1.1-0.2,1.8-0.3c0.1,0.8,0.2,1.5,0.2,2.2
	c-0.1,0-0.2,0.1-0.2,0.1c-0.2-0.1-0.4-0.2-0.5-0.3c-0.6-1.1-1.4-1.2-2.2-0.2c-0.5,0.6-0.5,1.3-0.2,1.9c0.4,0.9,0.4,1.7-0.2,2.5
	c-0.7,1-0.6,2-0.2,3.1c0.3,1.1,0.2,1.5-0.8,1.6c-0.9,0.1-1.7,0.4-2.6,0.6c-0.2-0.4-0.3-0.9-0.5-1.4C5,47,5,46.8,4.9,46.8
	C4.2,46.3,4.2,45.4,3.8,44.7z M32.1,63.5c-0.6-0.4-2.1-0.2-2.6,0.2c-0.2,0.2-0.6,0.3-0.9,0.3c-1.2,0-2.3,0.3-3.3,1.1
	c-0.1,0.1-0.3,0.1-0.5,0.1c-0.3,0-0.7-0.1-0.9,0c-1.2,0.8-2.7,0.5-4,1c-0.5,0.2-1.1,0.5-1.6,0.7c-0.4,0.1-0.8,0.2-1.1,0.3
	c-0.7,0.2-1.3,0.3-2,0.6c-0.8,0.3-1.4,0.5-2.1-0.1c-0.5-0.5-1.3-0.4-2-0.2c-0.5,0.2-0.8,0-1-0.5c-0.2-0.4-0.4-0.8-0.7-1.1
	c-0.8-0.9-1.2-2-1.5-3.1c-0.1-0.2-0.1-0.4-0.2-0.6c-0.4-0.9-0.8-1.7-1.1-2.6C6.3,58.8,6.2,57.9,6,57c-0.1-0.5-0.4-0.9-0.5-1.3
	c-0.1-0.2-0.1-0.4-0.2-0.6c-0.2-0.7-0.4-1.3-0.6-2c-0.1-0.2-0.2-0.4-0.2-0.5c-0.2-0.9-0.2-0.9,0.7-1c1.4-0.2,2.7-0.6,3.9-1.5
	c0.1-0.1,0.2-0.2,0.3-0.2c1-0.3,2.1-0.6,3-0.8c0.4,0.8,0.9,1.7,1.3,2.6c0.1,0.1,0.1,0.3,0.2,0.4c0.4,0.9,0.9,1.8,1.4,2.6
	c0.2,0.4,0.7,0.5,1.2,0.3c0.8-0.3,1.6-0.6,2.3-0.9c0.4-0.2,0.7-0.5,1-0.6c0.5-0.2,1.1-0.1,1.6-0.3c0.8-0.3,1.6-0.7,2.4-1.1
	c0.5-0.2,1-0.4,1.4-0.6c1-0.6,2-0.9,3.1-1.2c0.3-0.1,0.5-0.5,0.8-0.6c0.3-0.2,0.6-0.3,0.9-0.3c1.3,0,2.3-0.4,3.2-1.3
	c0.2-0.2,0.4-0.5,0.6-0.9c0.1,0,0.3,0,0.3,0.1c0.5,0.5,1,1,1.5,1.5c0.1,0.1,0.3,0.3,0.4,0.3c0.7,0.1,0.9,0.6,1.2,1.1
	c0.8,1,1.7,1.9,3,2.4c0.1,0.1,0.2,0.2,0.4,0.3c0.4,0.3,0.7,0.7,1.1,1c0.7,0.5,1.5,0.8,2.2,1.3c0.7,0.4,1.2,0.3,1.7-0.3
	c1-1.1,1.6-2.5,2.2-3.8c0.2-0.4,0.2-0.9,0.5-1.3c0.4-0.6,0.8-0.6,1.3-0.1c0.1,0.1,0.2,0.2,0.3,0.3c0.6,1,1.6,1.5,2.6,2
	c0.2,0.1,0.4,0.4,0.6,0.6c0.4,0.6,0.8,0.9,1.5,0.8c0.6-0.1,1.1-0.4,1.3-1c0-0.1,0-0.3,0.1-0.3c1.5-1,1.4-2.9,2.3-4.2
	c0.7-1,1.5-2.1,1.7-3.4c0-0.1,0.2-0.2,0.2-0.3c0.4-0.5,0.6-1.1,0.4-1.7c-0.2-1,0.8-2,1.9-1.9c1.3,0.2,2.5,0.1,3.8,0.2
	c0.5,0,1,0.2,1.5,0.3c1.1,0.3,2.3,0.3,3.4,0.1c0.2-0.1,0.5,0.1,0.8,0.1c0.2,0.1,0.4,0.2,0.5,0.3c1.2,0.1,2.4,0.1,3.5,0.2
	c0.4,0,0.8,0.1,1.2,0.2c0.7,0,1.5,0,2.2,0.1c0.2,0,0.4,0,0.6,0.1c0.8,0.2,1.5,0.4,2.3,0.6c0.3,0.1,0.6,0.2,0.9,0.1
	c1.3-0.4,2.4,0.1,3.6,0.4c0.8,0.2,1.7,0.2,2.5,0.2c0.6,0,1.8,0.8,2,1.4c0.2,0.4,0.4,0.7,0.6,1c0.1,0.2,0.2,0.3,0.2,0.5
	c0.2,0.9,0.2,1.8,0.4,2.6c0.2,0.9,0.5,1.7,0.7,2.6c0.1,0.7,0.1,1.4,0.2,2c0.2,1.1,0.5,2.1,0.7,3.2c0.1,0.3,0,0.7,0,1.1
	c0,0.2-0.1,0.5-0.1,0.7c0.3,1.2,0.6,2.4,0.8,3.5c0,0.2,0.1,0.4,0.1,0.6c0.1,1.4,0.2,2.8,0.3,4.2c0,0.5,0.2,0.9,0.3,1.4
	c-1,0.2-2,0.3-3,0.5c-0.1,0-0.3,0-0.4,0.1c-0.8,0.9-1.8,0.3-2.7,0.4c-0.2,0-0.3,0-0.5,0.1c-0.7,0.5-1.5,0.2-2.3,0.1
	c-0.1-0.5-0.2-1.1-0.4-1.7c0-0.1,0-0.2-0.1-0.3c-0.7-0.8-0.4-1.9-0.7-2.8c-0.2-0.6-0.4-1.2-0.6-1.8c-0.2-0.6-0.5-1.3-0.4-2
	c0.2-1.1-0.4-1.9-0.8-2.8c0-0.1-0.2-0.1-0.2-0.2c0-0.8-0.4-1.1-1.2-1.4c-0.7-0.2-1.2-0.2-1.9,0c-0.7,0.2-1.4,0.4-2.2,0.1
	c-0.7-0.2-1.5-0.2-2.2-0.1c-1.2,0.1-2.4,0.2-3.6,0.4c-0.6,0.1-0.9,0.5-0.9,1.2c0,1.4,0.4,2.7,0.7,4.1c0.1,0.7,0.4,1.3,0.7,1.9
	c0,0.1,0.1,0.2,0.1,0.3c-0.3,1.1,0.1,2.1,0.4,3.2c0.3,0.9,0.2,1.9,0.3,2.9c0.1,0.9,0.2,1.8,0.3,2.6c0.1,0.5,0.2,0.9,0.3,1.4
	c0,0.1,0.1,0.2,0.1,0.3c-0.4,0.8,0,1.6,0.1,2.3c0,0.1,0,0.2,0,0.3c0.6,0.8,0.3,1.8,0.5,2.6c0.1,0.2,0,0.5-0.1,0.6
	c-0.5,0.7-0.5,1.4-0.3,2.2c0.2,0.7,0,1.3-0.5,1.8c-0.1,0.1-0.2,0.2-0.3,0.2c-1.2,0.2-1.9,1.1-2.8,1.8c-0.8,0.6-1.4,1.6-2.6,1.4
	c0,0,0,0-0.1,0c-0.4,0.3-0.8,0.7-1.3,1c-0.5,0.2-1,0.3-1.5,0.4c-0.3,0.1-0.5,0.3-0.7,0.4c-1,0.3-2.1,0.7-3.1,1
	c-0.2,0.1-0.4,0.2-0.6,0.4c-0.6,0.5-1.2,0.5-1.9,0.1c-0.9-0.5-1.5-1.1-1.7-2.1c-0.1-0.6-0.6-1.1-0.9-1.6c-0.5-0.9-1-1.8-1.6-2.7
	c-0.5-0.7-1-1.4-1.6-2c-0.2-0.2-0.7-0.3-0.9-0.2c-0.3,0.1-0.5,0.5-0.7,0.8c-0.2,0.3-0.3,0.6-0.4,0.9c-0.2,0.4-0.4,0.7-0.5,1.1
	c-0.3,1.4-0.6,2.8-0.9,4.3c-0.1,0.3-0.3,0.5-0.4,0.7c-0.3,0.4-0.5,0.9-0.8,1.3c0,0.1,0,0.2,0,0.3c-0.7-0.1-1.3-0.2-2-0.3
	c-0.2,0-0.4,0-0.7,0c-0.5-0.1-1-0.2-1.5-0.3c-0.7-0.1-1.4-0.3-2.1-0.4c-0.5-0.1-1-0.2-1.5-0.4c-1-0.2-1.9-0.4-2.9-0.6
	c-0.2,0-0.4,0-0.5-0.1c-0.5-0.7-1.4-0.7-2.1-1c-0.3-0.1-0.6-0.2-0.8-0.4c-0.4-0.2-0.7-0.4-1.1-0.6c-0.4-0.2-0.5-0.3-0.4-0.8
	c0.3-0.9,0.4-1.8,0.5-2.7c0-0.2,0-0.4-0.1-0.6c-0.7-1-0.3-2-0.1-3c0.2-0.9,0.7-1.8,0.4-2.7c0-0.1,0-0.3-0.1-0.4
	c-0.6-0.8-0.2-1.7-0.5-2.5c0-0.1,0-0.2,0-0.3c0.6-1.2,0.4-2.5,0-3.7c-0.1-0.2,0-0.4,0-0.7c0-0.3,0-0.7-0.1-1
	c-0.1-0.7-0.2-1.4-0.3-2.1c-0.1-0.6-0.2-1.3-0.4-1.9c-0.2-0.5-0.4-1.1-0.7-1.6C32.3,63.7,32.2,63.6,32.1,63.5z M44.6,133.3
	c0.1,0.4,0.3,0.8,0.4,1.2c0,0.1,0,0.4-0.1,0.4c-0.2,0.1-0.5,0.2-0.8,0.3c-0.6,0.2-1.2,0.2-1.8,0.5c-0.9,0.4-1.7,1-2.5,1.4
	c-0.5,0.2-1.1,0.3-1.6,0.4c-0.7,0.3-1.4,0.6-2,0.9c-0.1,0-0.2,0.1-0.3,0.2c-0.6,1-1.6,0.9-2.5,1.1c-0.9,0.2-1.7,0.5-2.6,0.8
	c-0.6,0.2-1.2,0.5-1.8,0.7c0,0-0.1-0.1-0.1-0.1c-0.6-1.4-0.6-1.3,0.6-2.2c1-0.7,1.7-1.7,2.3-2.7c0.3-0.4,0.6-0.9,0.9-1.3
	c0.2-0.2,0.4-0.5,0.5-0.7c0.4-0.9,0.8-1.1,1.9-1.2c0.9-0.1,1.8-0.5,2.6-0.8c0.1,0,0.3-0.2,0.4-0.2c1,0.1,1.9-0.3,2.8-0.7
	c0.4-0.2,0.9-0.3,1.4-0.5c0.3-0.1,0.7-0.2,0.9-0.2c0.4,0.5,0.7,1,1,1.4C44.3,132.4,44.4,132.8,44.6,133.3z M87.5,135.5
	c-0.4-0.4-0.7-0.9-1.1-1.3c-0.3-0.3-0.7-0.6-1-1c-0.3-0.3-0.5-0.6-0.7-0.8c-0.1-0.1-0.1-0.3-0.2-0.3c-0.6-0.3-1-0.7-1.3-1.3
	c-0.2-0.3-0.4-0.6-0.7-1c-0.2-0.2-0.4-0.6-0.6-0.7c-0.9-0.2-1-1-1.4-1.5c-0.4-0.5-0.9-0.9-1.3-1.3c-0.2-0.2-0.3-0.4-0.4-0.6
	c-0.3-0.4-0.5-0.8-0.8-1.1c-0.8-1-2-1.7-2.5-3c-0.3-0.6-0.9-1.1-1.3-1.7c-0.8-1.1-1.6-2.1-2.4-3.2c-1.2-1.6-2.3-3.3-3.9-4.7
	c-0.7-0.6-1-1.5-1.5-2.3c0-0.1,0-0.2-0.1-0.2c-0.7-0.6-0.9-1.7-1.8-2.1c-0.3-0.2-0.5-0.6-0.7-1c-0.1-0.1,0-0.2-0.1-0.3
	c-1-1-1.1-2.6-2.3-3.5c-0.3-0.2-0.4-0.6-0.6-0.9c-0.3-0.5-0.6-1-1-1.5c-0.1-0.1-0.1-0.3-0.2-0.4c-0.5-0.8-1-1.7-1.7-2.5
	c-0.5-0.6-2.2-0.3-2.7,0.4c-0.5,0.6-1.1,0.7-1.8,0.8c-1.3,0.2-2.4,0.7-3.1,1.8c0,0.1-0.1,0.1-0.1,0.2c-0.7,0.3-1.3,0.5-2,0.8
	c-0.3,0.1-0.6,0-0.8,0.2c-1.1,0.6-2.3,1.4-3.4,2c-0.8,0.4-1.6,0.8-2.4,1.2c-0.2,0.1-0.4,0.2-0.5,0.4c-0.1,0.1-0.2,0.3-0.3,0.3
	c-0.9-0.2-1.4,0.6-2.1,1c-0.4,0.2-0.8,0.4-1.4,0.2c-0.6-0.3-1.1-0.1-1.5,0.4c-0.4,0.5-0.4,1.1-0.2,1.7c0.6,1.5,1.2,2.9,1.8,4.4
	c0.1,0.3,0.3,0.6,0.5,0.8c0.6,0.8,1.1,1.7,1.1,2.8c0,0.2,0,0.5,0.1,0.6c0.9,0.8,0.7,2.1,1.4,3.1c0.4,0.6,0.8,1.4,1.1,2.1
	c0,0.1,0.1,0.1,0.1,0.2c0,1.6,1.4,2.6,2,3.9c0.1,0.2,0.2,0.4,0.3,0.7c-1.5,0.7-2.8,1.4-4.2,1.9c-1.5,0.5-3,1-4.6,1.2
	c-1,0.1-1.9,0.5-2.8,0.8c-0.8,0.2-1.5-0.3-1.7-1.1c-0.3-1.3-0.8-2.4-1.7-3.4c-0.1-0.1-0.2-0.2-0.2-0.3c-0.4-0.8-0.6-1.6-1.1-2.3
	c-0.7-1-1.3-2-1.8-3.1c-0.2-0.5-0.5-1-0.8-1.5c-0.1-0.2-0.1-0.3-0.2-0.5c-0.7-0.9-1.4-1.9-1.5-3.1c0-0.3-0.3-0.6-0.5-0.8
	c-0.5-0.7-1-1.3-1.4-2c-0.2-0.4-0.2-0.8-0.3-1.2c0-0.2,0-0.4-0.1-0.6c-0.6-1.2-1.2-2.3-1.7-3.5c-0.1-0.2-0.2-0.4-0.2-0.6
	c-0.3-1-0.5-2.1-0.7-3.1c0-0.2-0.1-0.5,0-0.7c0.2-0.5,0.6-1,0.8-1.6c0.1-0.3,0.3-0.6,0.2-0.9c-0.1-0.5,0.1-0.7,0.5-0.9
	c0.4-0.2,0.9-0.4,1.3-0.7c0.2-0.1,0.4-0.2,0.5-0.4c0.4-1,1.3-1.5,2.1-2.1c0.5-0.4,1.1-0.5,1.6-0.8c0.9-0.6,1.8-1.3,2.8-1.9
	c0.6-0.4,1.3-0.8,2-1.2c0.3-0.2,0.6-0.4,1-0.7c0.7-0.5,1.4-1.1,2.1-1.4c0.4-0.2,1.1,0.2,1.6,0.5c0.8,0.4,1.4,1.1,2.4,0.9
	c0.2,0,0.5,0.3,0.7,0.4c1.1,0.3,2,1,3.2,0.9c0.6,0,1.2,0.4,1.8,0.5c0.9,0.1,1.8,0,2.6,0.3c1.2,0.3,2.4,0.2,3.6,0.4
	c0.6,0.1,1.2,0.4,1.6-0.1c0.4-0.4,0.5-1,0.8-1.5c0.4-0.7,0.5-1.3,0.3-2.1c-0.1-0.3,0.2-0.8,0.3-1.1c0.3-0.7,0.6-1.5,1-2.2
	c0.1-0.1,0.1-0.3,0.3-0.5c0.3,0.3,0.5,0.6,0.7,0.9c0.5,0.7,1,1.5,1.5,2.2c0.1,0.2,0.3,0.4,0.5,0.6c0.8,0.5,1.4,1.3,1.4,2.3
	c0,0.6,0.4,1,0.9,1.1c1,0.2,2,0.4,2.9-0.4c0.1-0.1,0.2-0.1,0.2-0.1c0.9,0.3,1.7-0.3,2.5-0.5c0.5-0.1,0.9-0.4,1.4-0.6
	c0.6-0.2,1.4-0.3,1.9-0.7c0.7-0.5,1.6-0.6,2.2-1.1c0.8-0.6,1.7-1.2,2.6-1.7c0.2-0.2,0.5-0.4,0.7-0.4c1.1-0.4,2-1,2.8-2.2
	c0.2,0.8,0.4,1.4,0.4,2.1c0.1,0.9,0.3,1.7,0.8,2.4c0.3,0.4,0.3,0.9,0.5,1.4c0.2,0.6,0.4,1.2,0.7,1.8c0.3,0.9,0.6,1.7,1,2.6
	c0.2,0.5,0.6,0.8,0.9,1.3c0.1,0.2,0.3,0.3,0.3,0.5c-0.2,1.2,0.7,1.9,1.1,2.7c0.1,0.1,0.2,0.2,0.2,0.3c0.3,0.7,0.6,1.4,0.9,2.1
	c0.3,0.7,0.7,1.3,1,2c0.5,1.3,1.2,2.5,2.2,3.5c0.5,0.6,0.8,1.5,1.2,2.2c0.4,0.7,0.8,1.3,1.1,1.9c0.3,0.6,0.7,1.2,1,1.7
	c0.7,1.3,0.9,2.9,2.4,3.7c0.1,0.1,0.2,0.3,0.2,0.5c0.1,0.7,0.1,1.5,0.8,2c0,0,0.1,0.1,0.1,0.1c0,1.1,0.9,1.7,1.4,2.5
	c0.4,0.6,1,1.2,1.5,1.8c0.2,0.2,0.3,0.5,0.4,0.7c0.2,0.3,0.2,0.7,0.5,1c0.7,1,1.4,2,2.2,3c0.2,0.3,0.6,0.5,0.8,0.7
	c-0.3,0.4-0.6,0.8-0.9,1.2c-0.1,0.1-0.3,0.2-0.5,0.3c-0.4,0.2-0.9,0.2-1.2,0.5c-0.9,0.6-1.8,1.2-2.6,1.8c-1,0.8-2.1,1.5-3.1,2.3
	c-0.2,0.2-0.4,0.4-0.5,0.7c-0.2,0.4-0.4,0.5-0.8,0.1C89,136.7,88.2,136.2,87.5,135.5z M103,137.1c-0.4,0.6-0.9,1.1-1.4,1.6
	c-0.6,0.6-1.3,1.2-2,1.8c-0.2,0.2-0.4,0.4-0.6,0.5c-1.1,0.4-1.9,1.4-2.8,2.1c-0.5,0.4-1.1,0.6-1.6,1c-1,0.7-1.9,1.5-2.9,2.2
	c-0.7,0.5-1.5,0.8-2.3,1.1c-0.2,0.1-0.4-0.1-0.7-0.2c0.6-0.9,1.2-1.7,1.6-2.6c0.6-1.1,1.2-2.2,1.2-3.5c0-0.6-0.1-1.3-0.1-1.8
	c1.3-0.4,2.6-0.8,3.4-2c0.3-0.4,1-0.6,1.5-1c0.8-0.5,1.6-1.1,2.3-1.7c0.2-0.2,0.4-0.4,0.5-0.6c0.4-0.8,1.2-0.9,1.7-0.1
	c0.7,0.9,1.1,2,2.1,2.7C103.1,136.6,103.1,137,103,137.1z"/>
<path class="st0" d="M32.4,63.9c0.2,0.5,0.5,1,0.7,1.6c0.2,0.6,0.3,1.3,0.4,1.9c0.1,0.7,0.2,1.4,0.3,2.1c0,0.3,0,0.7,0.1,1
	c0,0.2-0.1,0.4,0,0.7c0.3,1.3,0.6,2.5,0,3.7c0,0.1-0.1,0.2,0,0.3c0.3,0.8-0.1,1.7,0.5,2.5c0.1,0.1,0,0.3,0.1,0.4
	c0.4,1-0.2,1.8-0.4,2.7c-0.2,1-0.5,2,0.1,3c0.1,0.2,0.1,0.4,0.1,0.6c-0.2,0.9-0.3,1.8-0.5,2.7c-0.1,0.5,0,0.6,0.4,0.8
	c0.4,0.2,0.7,0.4,1.1,0.6c0.3,0.1,0.5,0.3,0.8,0.4c0.7,0.2,1.6,0.3,2.1,1c0.1,0.1,0.3,0.1,0.5,0.1c1,0.2,1.9,0.4,2.9,0.6
	c0.5,0.1,1,0.3,1.5,0.4c0.7,0.1,1.4,0.3,2.1,0.4c0.5,0.1,1,0.2,1.5,0.3c0.2,0,0.4,0,0.7,0c0.7,0.1,1.3,0.2,2,0.3c0-0.1,0-0.2,0-0.3
	c0.3-0.4,0.5-0.9,0.8-1.3c0.1-0.2,0.3-0.5,0.4-0.7c0.3-1.4,0.6-2.8,0.9-4.3c0.1-0.4,0.3-0.7,0.5-1.1c0.1-0.3,0.2-0.6,0.4-0.9
	c0.2-0.3,0.4-0.7,0.7-0.8c0.3-0.1,0.7,0,0.9,0.2c0.6,0.6,1.1,1.3,1.6,2c0.6,0.9,1.1,1.8,1.6,2.7c0.3,0.5,0.7,1,0.9,1.6
	c0.3,1,0.9,1.6,1.7,2.1c0.6,0.4,1.3,0.4,1.9-0.1c0.2-0.2,0.4-0.3,0.6-0.4c1-0.4,2.1-0.7,3.1-1c0.3-0.1,0.5-0.3,0.7-0.4
	c0.5-0.2,1.1-0.2,1.5-0.4c0.5-0.2,0.9-0.7,1.3-1c0,0,0,0,0.1,0c1.2,0.2,1.9-0.8,2.6-1.4c0.9-0.7,1.6-1.6,2.8-1.8
	c0.1,0,0.2-0.1,0.3-0.2c0.5-0.5,0.7-1.1,0.5-1.8c-0.2-0.8-0.2-1.5,0.3-2.2c0.1-0.1,0.2-0.4,0.1-0.6c-0.2-0.9,0.1-1.9-0.5-2.6
	c0-0.1,0-0.2,0-0.3c-0.1-0.8-0.5-1.5-0.1-2.3c0-0.1-0.1-0.2-0.1-0.3c-0.1-0.5-0.3-0.9-0.3-1.4c-0.1-0.9-0.2-1.7-0.3-2.6
	c-0.1-1,0-2-0.3-2.9c-0.3-1-0.7-2-0.4-3.2c0-0.1-0.1-0.2-0.1-0.3c-0.2-0.6-0.5-1.3-0.7-1.9c-0.2-1.4-0.7-2.7-0.7-4.1
	c0-0.7,0.3-1.2,0.9-1.2c1.2-0.1,2.4-0.3,3.6-0.4c0.7,0,1.5-0.1,2.2,0.1c0.8,0.3,1.5,0.1,2.2-0.1c0.7-0.2,1.2-0.2,1.9,0
	c0.8,0.2,1.2,0.6,1.2,1.4c0,0.1,0.1,0.1,0.2,0.2c0.4,0.9,0.9,1.7,0.8,2.8c-0.1,0.6,0.2,1.3,0.4,2c0.2,0.6,0.4,1.2,0.6,1.8
	c0.3,0.9,0,2,0.7,2.8c0.1,0.1,0.1,0.2,0.1,0.3c0.1,0.6,0.2,1.2,0.4,1.7c0.8,0.1,1.6,0.4,2.3-0.1c0.1-0.1,0.3,0,0.5-0.1
	c0.9-0.1,1.9,0.5,2.7-0.4c0.1-0.1,0.3-0.1,0.4-0.1c1-0.2,1.9-0.3,3-0.5c-0.1-0.5-0.3-1-0.3-1.4c-0.1-1.4-0.2-2.8-0.3-4.2
	c0-0.2-0.1-0.4-0.1-0.6c-0.3-1.2-0.6-2.3-0.8-3.5c0-0.2,0-0.4,0.1-0.7c0-0.4,0-0.7,0-1.1c-0.2-1.1-0.5-2.1-0.7-3.2
	c-0.1-0.7-0.1-1.4-0.2-2c-0.2-0.9-0.5-1.7-0.7-2.6c-0.2-0.9-0.3-1.7-0.4-2.6c0-0.2-0.1-0.4-0.2-0.5c-0.2-0.3-0.4-0.6-0.6-1
	c-0.3-0.6-1.4-1.3-2-1.4c-0.8,0-1.7,0-2.5-0.2c-1.2-0.3-2.3-0.8-3.6-0.4c-0.3,0.1-0.6,0-0.9-0.1c-0.8-0.2-1.5-0.4-2.3-0.6
	c-0.2-0.1-0.4-0.1-0.6-0.1c-0.7,0-1.5,0-2.2-0.1c-0.4,0-0.8-0.1-1.2-0.2c-1.2-0.1-2.4-0.1-3.5-0.2c-0.2,0-0.3-0.2-0.5-0.3
	c-0.3-0.1-0.5-0.2-0.8-0.1c-1.2,0.3-2.3,0.3-3.4-0.1c-0.5-0.1-1-0.3-1.5-0.3c-1.3-0.1-2.5-0.1-3.8-0.2c-1-0.1-2.1,0.8-1.9,1.9
	c0.2,0.7,0,1.2-0.4,1.7c-0.1,0.1-0.2,0.2-0.2,0.3c-0.2,1.3-1,2.4-1.7,3.4c-0.9,1.4-0.8,3.2-2.3,4.2c-0.1,0-0.1,0.2-0.1,0.3
	c-0.2,0.6-0.6,1-1.3,1c-0.7,0.1-1.1-0.2-1.5-0.8c-0.1-0.2-0.4-0.4-0.6-0.6c-0.9-0.6-2-1.1-2.6-2c-0.1-0.1-0.2-0.2-0.3-0.3
	c-0.5-0.5-0.9-0.5-1.3,0.1c-0.3,0.4-0.3,0.9-0.5,1.3c-0.6,1.3-1.3,2.7-2.2,3.8c-0.5,0.6-1,0.7-1.7,0.3c-0.7-0.4-1.5-0.8-2.2-1.3
	c-0.4-0.3-0.7-0.6-1.1-1c-0.1-0.1-0.2-0.3-0.4-0.3c-1.3-0.5-2.2-1.3-3-2.4c-0.3-0.5-0.6-1-1.2-1.1c-0.1,0-0.3-0.2-0.4-0.3
	c-0.5-0.5-1-1-1.5-1.5c-0.1-0.1-0.2-0.1-0.3-0.1c-0.2,0.3-0.3,0.6-0.6,0.9c-0.9,0.9-2,1.3-3.2,1.3c-0.3,0-0.6,0.2-0.9,0.3
	c-0.3,0.2-0.5,0.5-0.8,0.6C27,50.7,26,51,25,51.5c-0.4,0.3-1,0.4-1.4,0.6c-0.8,0.4-1.6,0.8-2.4,1.1c-0.5,0.2-1.1,0.2-1.6,0.3
	c-0.4,0.1-0.7,0.4-1,0.6c-0.8,0.3-1.5,0.6-2.3,0.9c-0.5,0.2-0.9,0.1-1.2-0.3c-0.5-0.9-0.9-1.8-1.4-2.6c-0.1-0.1-0.1-0.3-0.2-0.4
	c-0.5-0.9-0.9-1.8-1.3-2.6c-0.9,0.2-1.9,0.5-3,0.8c-0.1,0-0.2,0.1-0.3,0.2c-1.1,0.9-2.5,1.2-3.9,1.5c-0.9,0.2-0.9,0.2-0.7,1
	c0.1,0.2,0.2,0.4,0.2,0.5c0.2,0.7,0.4,1.3,0.6,2c0.1,0.2,0.1,0.4,0.2,0.6C5.6,56.1,5.9,56.6,6,57c0.2,0.9,0.3,1.8,0.5,2.6
	c0.3,0.9,0.7,1.8,1.1,2.6c0.1,0.2,0.1,0.4,0.2,0.6c0.3,1.1,0.7,2.2,1.5,3.1c0.3,0.3,0.5,0.7,0.7,1.1c0.2,0.4,0.5,0.6,1,0.5
	c0.7-0.2,1.4-0.3,2,0.2c0.7,0.7,1.4,0.5,2.1,0.1c0.6-0.3,1.3-0.4,2-0.6c0.4-0.1,0.8-0.2,1.1-0.3c0.6-0.2,1.1-0.5,1.6-0.7
	c1.3-0.5,2.8-0.3,4-1c0.2-0.1,0.6,0,0.9,0c0.2,0,0.4,0,0.5-0.1c0.9-0.8,2.1-1,3.3-1.1c0.3,0,0.6-0.1,0.9-0.3c0.5-0.4,2-0.5,2.6-0.2
	C32.2,63.6,32.3,63.7,32.4,63.9z M52.4,76c0.7,0,1.1,0.4,1.1,0.9c0,0.6-0.8,1.3-1.4,1.3c-0.6,0-1.1-0.6-1-1.2
	C51,76.5,51.6,76,52.4,76z M51.8,65.3c0,0.5-0.5,1.2-0.8,1.2c-0.5,0-1.2-0.7-1.2-1.3c0-0.6,0.4-1.1,1-1.1
	C51.3,64.1,51.8,64.6,51.8,65.3z M49.4,54.6c0.6,0,1.1,0.5,1.1,1c0,0.4-0.7,1.1-1.2,1.2c-0.5,0-0.8-0.4-0.8-1.2
	C48.6,55,48.9,54.6,49.4,54.6z"/>
<path class="st1" d="M90.5,137.3c0.2-0.2,0.3-0.5,0.5-0.7c1-0.8,2-1.6,3.1-2.3c0.9-0.6,1.7-1.3,2.6-1.8c0.4-0.2,0.8-0.3,1.2-0.5
	c0.2-0.1,0.4-0.1,0.5-0.3c0.3-0.4,0.6-0.8,0.9-1.2c-0.2-0.2-0.6-0.4-0.8-0.7c-0.7-1-1.5-2-2.2-3c-0.2-0.3-0.3-0.7-0.5-1
	c-0.1-0.3-0.2-0.5-0.4-0.7c-0.5-0.6-1.1-1.1-1.5-1.8c-0.5-0.8-1.4-1.4-1.4-2.5c0,0-0.1-0.1-0.1-0.1c-0.7-0.5-0.7-1.2-0.8-2
	c0-0.2-0.1-0.4-0.2-0.5c-1.5-0.8-1.8-2.4-2.4-3.7c-0.3-0.6-0.7-1.2-1-1.7c-0.4-0.6-0.8-1.3-1.1-1.9c-0.4-0.7-0.6-1.6-1.2-2.2
	c-0.9-1.1-1.6-2.2-2.2-3.5c-0.3-0.7-0.7-1.3-1-2c-0.3-0.7-0.6-1.4-0.9-2.1c-0.1-0.1-0.1-0.2-0.2-0.3c-0.5-0.9-1.4-1.6-1.1-2.7
	c0-0.1-0.2-0.3-0.3-0.5c-0.3-0.4-0.7-0.8-0.9-1.3c-0.4-0.8-0.7-1.7-1-2.6c-0.2-0.6-0.5-1.2-0.7-1.8c-0.2-0.5-0.2-1-0.5-1.4
	c-0.6-0.7-0.8-1.5-0.8-2.4c-0.1-0.6-0.3-1.3-0.4-2.1c-0.8,1.1-1.7,1.8-2.8,2.2c-0.3,0.1-0.5,0.3-0.7,0.4c-0.9,0.6-1.7,1.1-2.6,1.7
	c-0.6,0.4-1.5,0.6-2.2,1.1c-0.5,0.4-1.3,0.4-1.9,0.7c-0.5,0.2-0.9,0.5-1.4,0.6c-0.8,0.2-1.6,0.7-2.5,0.5c-0.1,0-0.2,0-0.2,0.1
	c-0.9,0.8-1.9,0.5-2.9,0.4c-0.5-0.1-0.9-0.5-0.9-1.1c-0.1-1-0.6-1.7-1.4-2.3c-0.2-0.1-0.4-0.3-0.5-0.6c-0.5-0.7-1-1.5-1.5-2.2
	c-0.2-0.3-0.4-0.6-0.7-0.9c-0.1,0.2-0.2,0.4-0.3,0.5c-0.3,0.7-0.7,1.5-1,2.2c-0.2,0.4-0.4,0.8-0.3,1.1c0.2,0.8,0.1,1.4-0.3,2.1
	c-0.3,0.5-0.4,1.1-0.8,1.5c-0.4,0.5-1.1,0.1-1.6,0.1c-1.2-0.2-2.4-0.1-3.6-0.4c-0.8-0.2-1.7-0.1-2.6-0.3c-0.6-0.1-1.2-0.6-1.8-0.5
	c-1.2,0.1-2.1-0.6-3.2-0.9c-0.3-0.1-0.5-0.4-0.7-0.4c-1,0.2-1.7-0.5-2.4-0.9c-0.5-0.3-1.2-0.7-1.6-0.5c-0.8,0.3-1.4,0.9-2.1,1.4
	c-0.3,0.2-0.6,0.5-1,0.7c-0.7,0.4-1.3,0.8-2,1.2c-0.9,0.6-1.8,1.3-2.8,1.9c-0.5,0.3-1.2,0.5-1.6,0.8c-0.8,0.6-1.7,1.1-2.1,2.1
	c-0.1,0.2-0.3,0.3-0.5,0.4c-0.4,0.2-0.9,0.5-1.3,0.7c-0.4,0.2-0.6,0.4-0.5,0.9c0.1,0.3-0.1,0.6-0.2,0.9c-0.3,0.5-0.6,1-0.8,1.6
	c-0.1,0.2-0.1,0.5,0,0.7c0.2,1,0.5,2.1,0.7,3.1c0.1,0.2,0.1,0.4,0.2,0.6c0.6,1.2,1.2,2.3,1.7,3.5c0.1,0.2,0.1,0.4,0.1,0.6
	c0.1,0.4,0.1,0.9,0.3,1.2c0.4,0.7,0.9,1.3,1.4,2c0.2,0.3,0.5,0.5,0.5,0.8c0.1,1.2,0.8,2.2,1.5,3.1c0.1,0.1,0.1,0.3,0.2,0.5
	c0.3,0.5,0.6,1,0.8,1.5c0.5,1.1,1,2.2,1.8,3.1c0.5,0.7,0.7,1.5,1.1,2.3c0.1,0.1,0.1,0.2,0.2,0.3c0.9,1,1.4,2.1,1.7,3.4
	c0.2,0.8,1,1.3,1.7,1.1c0.9-0.3,1.9-0.6,2.8-0.8c1.6-0.2,3.1-0.7,4.6-1.2c1.4-0.4,2.8-1.2,4.2-1.9c-0.1-0.3-0.2-0.5-0.3-0.7
	c-0.6-1.3-2-2.3-2-3.9c0-0.1-0.1-0.1-0.1-0.2c-0.4-0.7-0.7-1.4-1.1-2.1c-0.7-1-0.5-2.3-1.4-3.1c-0.1-0.1-0.1-0.4-0.1-0.6
	c0-1.1-0.5-1.9-1.1-2.8c-0.2-0.2-0.4-0.5-0.5-0.8c-0.6-1.4-1.2-2.9-1.8-4.4c-0.2-0.6-0.3-1.2,0.2-1.7c0.4-0.5,1-0.6,1.5-0.4
	c0.5,0.3,1,0.1,1.4-0.2c0.7-0.4,1.2-1.1,2.1-1c0.1,0,0.2-0.2,0.3-0.3c0.2-0.1,0.4-0.3,0.5-0.4c0.8-0.4,1.6-0.8,2.4-1.2
	c1.1-0.6,2.3-1.4,3.4-2c0.2-0.1,0.6-0.1,0.8-0.2c0.7-0.2,1.3-0.5,2-0.8c0,0,0.1-0.1,0.1-0.2c0.8-1.1,1.9-1.6,3.1-1.8
	c0.7-0.1,1.3-0.2,1.8-0.8c0.6-0.7,2.2-1,2.7-0.4c0.7,0.7,1.1,1.6,1.7,2.5c0.1,0.1,0.1,0.3,0.2,0.4c0.3,0.5,0.6,1,1,1.5
	c0.2,0.3,0.3,0.7,0.6,0.9c1.2,0.9,1.3,2.5,2.3,3.5c0.1,0.1,0,0.2,0.1,0.3c0.2,0.3,0.4,0.8,0.7,1c0.9,0.5,1.1,1.5,1.8,2.1
	c0.1,0,0.1,0.2,0.1,0.2c0.5,0.8,0.8,1.7,1.5,2.3c1.5,1.4,2.6,3.1,3.9,4.7c0.8,1,1.6,2.1,2.4,3.2c0.4,0.6,1,1,1.3,1.7
	c0.5,1.3,1.7,2,2.5,3c0.3,0.3,0.5,0.7,0.8,1.1c0.1,0.2,0.3,0.4,0.4,0.6c0.4,0.4,0.9,0.9,1.3,1.3c0.4,0.5,0.6,1.3,1.4,1.5
	c0.2,0.1,0.4,0.4,0.6,0.7c0.2,0.3,0.5,0.6,0.7,1c0.3,0.5,0.7,1,1.3,1.3c0.1,0,0.2,0.2,0.2,0.3c0.2,0.3,0.5,0.6,0.7,0.8
	c0.3,0.3,0.7,0.6,1,1c0.4,0.4,0.7,0.9,1.1,1.3c0.7,0.7,1.5,1.2,2.2,1.9C90.1,137.8,90.3,137.7,90.5,137.3z"/>
<path class="st1" d="M26.4,14.5c0.5-0.3,1-0.5,1.5-0.8c0.2-0.1,0.5-0.3,0.7-0.4c0.3-0.3,0.7-0.4,0.9-0.1c0.4,0.5,0.9,1.1,1,1.8
	c0.2,1.3,0.7,2.3,2,2.8c0.3,0.1,0.5,0.5,0.7,0.7c0.2,0.2,0.3,0.4,0.5,0.5c0.6,0.4,1.3,0.7,1.8,1.2c0.8,0.7,1.8,0.7,2.8,1.1
	c0-0.5-0.2-0.9-0.3-1.3c-0.1-0.3-0.3-0.7-0.3-1c-0.1-1.5-0.4-3-0.3-4.4c0-0.9,0-2,1-2.6c0.7-0.4,1.1-0.4,1.5,0.3
	c0.1,0.2,0.2,0.3,0.4,0.4c0.8,0.4,1.3,1,1.7,1.7c0.1,0.2,0.2,0.3,0.4,0.5c0.5,0.5,1.1,1,1.7,1.4c0.6,0.4,1.3,0.8,1.9,1.2
	c0.3,0.2,0.7,0.3,1,0.6c0.6,0.5,1.2,1,2.2,1c0.9-0.1,1.9,0.8,2,1.4c0.2,1,0.4,2,0.6,3c0.1-0.1,0.2-0.1,0.2-0.2
	c0.6-1,1.4-1.4,2.6-1.3c0.4,0,0.8-0.1,1.1-0.1c0.6,0.1,1.3,0.1,1.6,0.5c0.8,0.9,1.6,1.9,1.9,3.2c0.4,1.9-0.2,3.4-1.2,4.8
	c-0.2,0.3-0.4,0.6-0.6,0.9c-0.4,0.5-0.9,0.9-1.4,1.3c-0.4,0.4-0.9,0.8-1.3,1.3c-0.1,0.1,0,0.3,0,0.5c0.2,0.5,0.5,0.9,0.8,1.4
	c1.5-0.7,2.6-2,3.7-3.1c0.7-0.7,1.4-1.5,2.1-2.3c0.1-0.1,0.1-0.3,0.2-0.4c0.4-0.8,0.8-1.6,1.2-2.4c0.1-0.3,0.4-0.6,0.4-0.9
	c0.1-1.1,0.3-2.1,1.2-2.8c-0.5-1.1-0.5-1.1-0.3-2.3c0-0.2,0-0.4,0-0.5c0-0.9-0.1-1.7-0.1-2.6c-0.1-1.1,0.3-2.2-0.2-3.2
	c-0.2-0.4-0.5-0.7-0.5-1.1c0-0.9-0.4-1.4-1-2c-0.4-0.4-0.5-1-0.8-1.5c-0.4-0.6-0.8-1.2-1.2-1.7c-0.2-0.3-0.4-0.8-0.7-1
	c-0.5-0.5-1.2-1-1.8-1.5c-1.4-1.4-2.9-2.5-5-2.9c-1.4-0.2-2.7-0.6-4.1-0.6c-0.4,0-0.9,0.1-1.3,0.1c-0.8,0-1.7,0-2.5,0.1
	c-0.6,0.1-1.1,0.5-1.6,0.4c-0.7-0.1-1.2,0.2-1.7,0.5c-0.3,0.1-0.6,0.2-0.9,0.4c-0.8,0.3-1.6,0.7-2.4,1c-0.7,0.2-1.3,0.7-2.1,0
	c-0.4-0.3-1-0.3-1.6-0.3c-0.6,0-1.3,0.2-1.9,0.1c-1.5-0.4-2.7,0.7-4.1,0.8c-0.1,0-0.1,0.1-0.2,0.2c-1.1,1.3-2.9,1.8-3.8,3.3
	c-0.1,0.2-0.3,0.2-0.5,0.4c-0.3,0.2-0.6,0.5-0.8,0.8c-0.4,0.6-0.8,1.3-1.3,1.8c-0.3,0.3-0.5,0.5-0.4,1.1c0.1,0.3-0.1,0.7-0.2,1
	c-0.1,0.2-0.2,0.4-0.2,0.5c-0.2,0.7-0.5,1.5-0.7,2.2c-0.1,0.4-0.1,0.8-0.2,1.3c0,0.4-0.1,0.8-0.1,1.2c0,0.1-0.1,0.3-0.1,0.4
	c0.1,1.1,0.3,2.3,0.4,3.4c0,0.6,0.1,1.1,0.6,1.3c0.3-1.2,0.4-2.5,0.9-3.7C22.8,18.5,24.1,16.1,26.4,14.5z"/>
<path class="st0" d="M39.5,39.8c0.4,0,0.7,0.1,0.8,0.7c0,0.5,0.1,1.1,0.4,1.4c0.5,0.6,1.2,1,1.7,1.4c0.5,0.4,0.9,0.8,1.4,1.2
	c0.6,0.4,1.1,0.8,1.7,1.2c0.1,0,0.2,0.1,0.2,0.1c0.6,0.1,1,0.4,1.3,0.9c0.1,0.1,0.6,0.1,0.6,0.1c0.2-0.7,0.7-1.1,1.2-1.6
	c0.7-0.8,1.3-1.8,1.9-2.7c0.6-0.8,1.2-1.5,1.7-2.3c0.3-0.5,0.5-1,0.3-1.7c-0.2-0.7,0.2-1.6-0.2-2.2c-0.4-0.7-0.5-1.4-0.5-2.1
	c0-1,0-2.1,1.2-2.6c0.1,0,0.2-0.1,0.2-0.2c0.8-1,1.5-2,2.3-2.9c0.5-0.6,0.8-1.3,0.7-2.1c-0.1-0.6-0.4-1.3-0.8-1.8
	c-0.5-0.6-1.2-0.8-2-0.2c-0.2,0.1-0.5,0.2-0.7,0.2c-0.6,0-0.9,0.3-1.1,0.9c-0.3,0.9-1,1.3-1.8,1.1c-0.8-0.2-1.2-1-1.1-1.9
	c0-0.3-0.1-0.6-0.1-0.9c-0.1-0.3-0.2-0.7-0.3-1c-0.2-1.2-0.9-1.9-2.1-2.3c-0.7-0.2-1.4-0.3-1.9-0.7c-1.1-0.7-2.2-1.6-3.3-2.4
	c-0.3-0.3-0.6-0.7-0.9-1c-0.2-0.2-0.4-0.5-0.7-0.7c-0.1,0-0.2,0.1-0.2,0.1c0,0.3-0.1,0.6,0,0.9c0.2,1,0.5,1.9,0.7,2.9
	c0,0.1,0.1,0.1,0.1,0.2c0.4,0.6,0.9,1.3,1.3,1.9c0.4,0.6,0.2,1.3-0.1,1.8c-0.2,0.4-1.2,0.4-1.9,0.1c-0.3-0.2-0.7-0.3-1.1-0.3
	c-1.7-0.1-3.3-0.9-4.9-1.4c-0.2-0.1-0.3-0.2-0.4-0.3c-0.7-0.5-1.4-1-2-1.6c-0.3-0.3-0.4-0.7-0.6-1c-0.1-0.2-0.1-0.4-0.2-0.5
	c-0.2-0.3-0.4-0.6-0.7-0.9c-0.4-0.6-0.9-1.2-1.4-1.8c-0.6,0.4-1.1,0.7-1.4,1.1c-0.8,1.1-1.8,2.1-2.2,3.5c-0.2,1-0.6,2-0.9,3
	c-0.1,0.3-0.1,0.5-0.3,0.7c-0.7,0.9-0.4,2-0.5,3c0,0.8-0.3,1.7,0.4,2.5c0,0,0,0,0,0.1c0.1,0.9,0.2,1.7,0.6,2.5
	c0.2,0.4,0.2,1,0.3,1.5c0.1,0.3,0.1,0.7,0.3,0.9c0.5,0.9,1.1,1.7,1.7,2.5c0.1,0.1,0.2,0.2,0.3,0.2c0.7,0.4,1.3,0.7,2,1.1
	c1,0.5,1.8,1.2,3,1.2c0.5,0,1,0.1,1.5,0.2c0.8,0.1,1.6,0.1,2.4,0.1c0.4,0,0.8,0.2,1.2,0.1C37.8,40,38.6,39.9,39.5,39.8z M40.8,29.2
	c0.9,0,2.1,0.6,2.1,2c0.2,0.8-0.9,1.9-1.9,2c-1.1,0.1-2.3-1-2.3-2C38.7,30.2,39.7,29.2,40.8,29.2z M38.9,26.5c0.7,0,1.3,0.6,1.3,1.3
	c0,0.6-0.7,1.4-1.3,1.4c-0.8,0-1.4-0.5-1.4-1.4C37.5,27.2,38.1,26.5,38.9,26.5z M31.3,28.2c0.2-0.2,0.7-0.2,1-0.2
	c0.2,0,0.3,0.3,0.5,0.5c-0.8,1,0,1.4,0.5,1.9c0.1,0.2,0.1,0.7-0.1,0.8c-0.6,0.5-1.6,0.4-2.1-0.2C29.9,29.8,30.2,29.3,31.3,28.2z
	 M26.9,27c1,0,1.5,0.6,1.5,1.6c0,0.7-0.7,1.2-1.4,1.2c-0.7,0-1.5-0.8-1.5-1.4C25.4,27.7,26.2,26.9,26.9,27z M27,34.1
	c-1.1,0-2-0.9-2-2c0-1,0.7-1.7,1.8-1.7c1.2,0,2.1,0.8,2.1,2C29,33,27.8,34.1,27,34.1z M36.1,35.5c-0.7,0.5-1.6,0.6-2.2,0.9
	c-1.4-0.3-2.7-0.5-3.6-1.5c-0.6-0.6-0.7-1.4-0.2-1.9c0.4-0.4,1.2-0.3,1.8,0.1c0.5,0.4,1,1,1.8,0.9c0.7-0.1,1.4-0.6,1.7-1.3
	c0.2-0.7,0.8-1.1,1.5-0.9c0.7,0.2,1.1,1,0.8,1.6C37.2,34.3,36.7,35.1,36.1,35.5z"/>
<path class="st0" d="M4.9,46.8C5,46.8,5,47,5,47.1c0.2,0.5,0.3,1,0.5,1.4c0.9-0.2,1.7-0.5,2.6-0.6c1-0.1,1.2-0.6,0.8-1.6
	c-0.3-1.1-0.5-2.1,0.2-3.1c0.6-0.8,0.6-1.6,0.2-2.5c-0.3-0.6-0.4-1.3,0.2-1.9c0.8-0.9,1.7-0.8,2.2,0.2c0.1,0.2,0.3,0.2,0.5,0.3
	c0.1,0,0.2-0.1,0.2-0.1c-0.1-0.7-0.2-1.4-0.2-2.2c-0.7,0.1-1.3,0.2-1.8,0.3c-0.3,0-0.6,0-0.8-0.1c-0.2-0.1-0.5-0.4-0.5-0.6
	c0-0.3,0.3-0.6,0.5-0.7c0.4-0.2,0.9-0.1,1.3-0.2c0.4,0,0.8,0,0.7-0.8c-0.7,0.1-1.3,0.3-2,0.4c-0.7,0.1-1.3-0.3-1.3-0.9
	c-0.1-0.7,0.4-1.2,1.1-1.2c0.4,0,0.7,0.1,1.1,0c0.2,0,0.4-0.1,0.6-0.1c0-0.1,0-0.2,0-0.3C10,32.8,9,32.7,8,32.7
	c-0.1,0-0.1,0.1-0.2,0.2c-0.4,0.3-0.8,0.6-1.2,1c0.2,0.7-0.2,1.3-0.8,1.9c-0.4,0.3-1,0.7-1,1.1c-0.2,1.3-0.9,2.4-1.7,3.3
	c-0.5,0.5-0.3,0.8-0.1,1.2c0.3,0.8,0.6,1.7,0.8,2.6c0.1,0.3,0.1,0.5,0.2,0.8C4.2,45.4,4.2,46.3,4.9,46.8z"/>
<path class="st0" d="M100.8,133.8c-0.5-0.8-1.3-0.7-1.7,0.1c-0.1,0.2-0.3,0.5-0.5,0.6c-0.8,0.6-1.5,1.1-2.3,1.7
	c-0.5,0.3-1.2,0.5-1.5,1c-0.8,1.2-2.1,1.6-3.4,2c0,0.6,0.1,1.2,0.1,1.8c0,1.3-0.6,2.4-1.2,3.5c-0.4,0.9-1,1.7-1.6,2.6
	c0.3,0.1,0.6,0.3,0.7,0.2c0.8-0.3,1.6-0.7,2.3-1.1c1-0.7,1.9-1.5,2.9-2.2c0.5-0.4,1.1-0.6,1.6-1c0.9-0.7,1.6-1.7,2.8-2.1
	c0.2-0.1,0.4-0.3,0.6-0.5c0.7-0.6,1.4-1.2,2-1.8c0.5-0.5,1-1.1,1.4-1.6c0.1-0.1,0-0.5-0.1-0.6C101.9,135.8,101.4,134.8,100.8,133.8z
	"/>
<path class="st0" d="M42.3,130.7c-0.5,0.1-0.9,0.3-1.4,0.5c-0.9,0.4-1.7,0.8-2.8,0.7c-0.1,0-0.2,0.2-0.4,0.2
	c-0.9,0.3-1.7,0.7-2.6,0.8c-1.1,0.1-1.5,0.3-1.9,1.2c-0.1,0.3-0.3,0.5-0.5,0.7c-0.3,0.4-0.6,0.8-0.9,1.3c-0.6,1-1.3,2-2.3,2.7
	c-1.2,0.9-1.2,0.9-0.6,2.2c0,0.1,0.1,0.1,0.1,0.1c0.6-0.3,1.2-0.5,1.8-0.7c0.8-0.3,1.7-0.6,2.6-0.8c0.9-0.2,1.9-0.2,2.5-1.1
	c0.1-0.1,0.2-0.1,0.3-0.2c0.7-0.3,1.3-0.6,2-0.9c0.5-0.2,1.1-0.2,1.6-0.4c0.9-0.4,1.7-1,2.5-1.4c0.5-0.2,1.2-0.3,1.8-0.5
	c0.3-0.1,0.6-0.1,0.8-0.3c0.1-0.1,0.2-0.3,0.1-0.4c-0.1-0.4-0.3-0.8-0.4-1.2c-0.2-0.5-0.2-0.9-0.5-1.4c-0.2-0.5-0.6-0.9-1-1.4
	C42.9,130.5,42.6,130.6,42.3,130.7z"/>
<path class="st0" d="M93.6,71c-0.7,0.2-1.4,0.3-2-0.2c-0.9,0.8-1.9,1.1-3,1c-0.3,1.5-0.7,2.9-1.9,3.9c0.7,0.5,1.4,1,2.1,1.6
	c0.1-0.4,0.2-0.8,0.3-1.2c0.2-0.6,0.4-1.1,1.1-1c0.7,0.1,0.5,0.8,0.6,1.3c0,0.4-0.2,0.8-0.1,1.2c0.2,0.8,0.3,1.5,0,2.2
	c0,0.1,0.2,0.3,0.3,0.5c0.3-1.1,0.5-2,0.7-2.9c0.2-0.7,0.6-1.1,1.1-1c0.5,0.1,0.9,0.6,0.9,1.3c0,0.7,0,1.4,0,2.2
	c0.5,0.1,0.7,0,0.6-0.6c0-0.3,0.1-0.7,0.2-1c0.2-0.6,0.5-1.1,0.8-1.7c0.1-0.2,0.5-0.3,0.7-0.3c0.2,0,0.4,0.3,0.5,0.5
	c0.2,0.8,0.3,1.6,0.5,2.4c0.1-0.4,0.2-0.6,0.3-0.8c0.5-0.6,0.5-1.3,0.5-2c-0.1-0.9,0.1-1.6,0.5-2.4c0.1-0.1,0.1-0.3,0.2-0.5
	c-1.3-0.8-2.5-1.6-3.8-2.4C94.5,71,94,70.9,93.6,71z"/>
<path class="st0" d="M56.5,39.2c-0.2,0-0.4-0.2-0.5-0.4c-0.1-0.1-0.1-0.3-0.2-0.5c-0.1,0.1-0.2,0.2-0.2,0.3c-0.3,0.8-0.6,1.5-1,2.3
	c-0.4,0.7-0.8,1.3-1.2,2c-0.8,1.2-1.6,2.4-2.3,3.5c-0.5,0.7-0.5,1.3,0.2,1.7c0.7,0.4,1.3,1.1,1.9,1.7c0.2,0.2,0.4,0.4,0.6,0.6
	c0.3-0.5,0.7-0.9,1-1.4c0.3-0.4,0.7-0.8,0.8-1.3c0.3-0.9,1.1-1.6,1-2.6c0-0.1,0.1-0.2,0.1-0.3c0.4-0.7,0.7-1.5,1.1-2.2
	c0.2-0.4,0.5-0.7,0.8-0.9c0.5-0.3,0.8-0.8,0.8-1.3C58.4,40.1,57.7,39.1,56.5,39.2z"/>
<path class="st0" d="M36.8,46.8c0.3,0.1,0.7,0.3,0.7,0.5c0.2,0.6,0.7,0.8,1.2,1.1c0.3,0.2,0.7,0.3,1,0.6c0.6,0.6,1.2,1.2,1.9,1.7
	c0.7,0.5,1.5,0.9,2.3,1.3c0.7-1.1,1.6-2.3,2.5-3.5c-0.7-0.1-1.3-0.3-1.7-0.9c-0.1-0.1-0.3-0.2-0.5-0.3c-1-0.5-2.1-1-3.1-1.6
	c-0.7-0.4-1.4-0.9-2.1-1.5c-0.5-0.4-0.8-0.2-1.1,0.1c-0.4,0.5-0.9,1-1.3,1.5C36.1,46.2,36.2,46.5,36.8,46.8z"/>
<path d="M51,77.1c0,0.6,0.5,1.2,1,1.2c0.6,0,1.4-0.7,1.4-1.3c0-0.6-0.4-0.9-1.1-0.9C51.6,76,51,76.5,51,77.1z"/>
<path d="M49.8,65.1c0,0.6,0.6,1.4,1.2,1.3c0.4,0,0.9-0.7,0.8-1.2c0-0.6-0.5-1.2-1-1.2C50.2,64.1,49.8,64.5,49.8,65.1z"/>
<path d="M49.4,56.8c0.5,0,1.2-0.7,1.2-1.2c0-0.5-0.6-1-1.1-1c-0.5,0-0.9,0.4-0.9,1C48.6,56.3,48.9,56.8,49.4,56.8z"/>
<path d="M36.7,32c-0.6-0.2-1.3,0.2-1.5,0.9c-0.2,0.7-0.9,1.2-1.7,1.3c-0.8,0.1-1.2-0.5-1.8-0.9c-0.6-0.5-1.4-0.6-1.8-0.1
	c-0.5,0.5-0.3,1.3,0.2,1.9c0.9,1,2.2,1.1,3.6,1.5c0.7-0.2,1.6-0.4,2.2-0.9c0.6-0.5,1.1-1.3,1.5-2C37.9,32.9,37.4,32.2,36.7,32z"/>
<path class="st1" d="M38.7,31.2c0,1.1,1.2,2.1,2.3,2c0.9,0,2.1-1.2,1.9-2c0.1-1.4-1.1-2-2.1-2C39.7,29.2,38.7,30.2,38.7,31.2z"/>
<path class="st1" d="M26.9,30.4c-1.1,0-1.8,0.7-1.8,1.7c0,1.1,0.8,2,2,2c0.7,0,1.9-1.1,1.9-1.7C29,31.2,28.1,30.4,26.9,30.4z"/>
<path d="M33.1,31.4c0.2-0.2,0.2-0.7,0.1-0.8c-0.5-0.6-1.3-1-0.5-1.9c-0.2-0.2-0.3-0.5-0.5-0.5c-0.3,0-0.8,0-1,0.2
	c-1.1,1-1.4,1.6-0.2,2.9C31.5,31.8,32.6,31.9,33.1,31.4z"/>
<path d="M26.9,29.7c0.7,0,1.4-0.5,1.4-1.2c0-0.9-0.5-1.5-1.5-1.6c-0.6,0-1.4,0.7-1.5,1.4C25.4,28.9,26.2,29.7,26.9,29.7z"/>
<path d="M38.9,29.3c0.6,0,1.3-0.7,1.3-1.4c0-0.7-0.7-1.4-1.3-1.3c-0.8,0-1.4,0.6-1.4,1.3C37.5,28.7,38.1,29.3,38.9,29.3z"/>
</svg>
