<?xml version="1.0" encoding="utf-8"?>
<!-- Generator: Adobe Illustrator 25.0.0, SVG Export Plug-In . SVG Version: 6.00 Build 0)  -->
<svg version="1.1" id="圖層_1" xmlns="http://www.w3.org/2000/svg" xmlns:xlink="http://www.w3.org/1999/xlink" x="0px" y="0px"
	 viewBox="0 0 206 182.7" style="enable-background:new 0 0 206 182.7;" xml:space="preserve">
<style type="text/css">
	.st0{fill:#FDD23E;}
	.st1{fill:#FFFFFF;}
	.st2{opacity:0;enable-background:new    ;}
	.st3{font-family:'MingLiU';}
	.st4{font-size:13.0982px;}
</style>
<g id="_xEFF5__xEED3__x5F_3">
	<g>
		<path d="M42.9,30.3c-0.6-1.2-1-2.6-0.9-4.2c0.1-1.1-0.4-2.5,0.4-3.7c0.1-0.2,0.1-0.4,0.1-0.5c0.4-1.6,0.7-3.1,1.2-4.7
			c0.6-2.3,2.7-3.7,4.3-5.3c0.7-0.8,1.7-1.4,2.6-1.9c1.5-0.9,2.8-1.8,4.2-2.7c1.5-1.1,3.5-1,4.9-2.2h0.1c1.7-0.2,3.2-1.8,5.1-1.4
			c0,0,0.2-0.1,0.3-0.1c2-0.6,3.9-1.3,5.9-2c0.3-0.1,0.5,0,0.8,0c0.1,0,0.4,0.1,0.5,0c1.4-0.3,2.7-0.8,4.1-1.1C78,0.3,79.5,0.1,81,0
			c0.3,0,0.5,0.1,0.8,0.1c1,0.2,1.8,0.4,2.6,0.3c1.4-0.1,2.7,0,4.1,0.3c0.5,0,1,0,1.4-0.1c1.4-0.1,2.5,0.2,3.7,0.7
			c0.6,0.3,1.3,0.5,2,0.8c0.4,0.2,0.6,0.2,0.9,0.3c1,0.5,2.1,0.9,3,1.6c0.8,0.7,1.5,1.5,2.3,2.3c0.5,0.7,1.1,1.4,1.6,1.9
			c0.6,0.5,1,1.1,1.5,1.6c0.2,0.2,0.2,0.4,0.3,0.7c0.8,1.1,1.6,2.5,2.4,3.7c0,0.1,0,0.3,0.1,0.4c0.8,1.7,1.8,3.6,2.3,5.5
			c0.2,1,0.4,2.1,0.9,3c0.1,0.2,0,0.4,0,0.7s0,0.6,0.1,0.7c0.4,1.1,0.4,2.3,0.1,3.4c-0.1,0.3-0.1,0.5,0,0.8c0.4,0.8,0.9,1.7,1.2,2.6
			c0.1,0.1,0,0.8-0.3,0.9c-0.6,0.4-1.2,0.6-2,0.9c0.7,1.5,1.4,3.3,1.9,4.9c0.2,0.7,0.4,1.2,0.5,1.9c0.2,0.7,0.2,1.5,0.5,2.3
			c0.7,1.9,1.3,3.7,0.8,5.7c0,0.1,0.1,0.3,0.1,0.4c0.2,0.6,0.4,1,0.3,1.5c-0.2,1.1-0.4,2.3-0.7,3.4s-0.6,2.6-1.4,3.4
			c-0.8,1-1.7,2.3-3.1,2.6c-0.1,0-0.3,0.3-0.4,0.4c-1,0.6-1.7,1.6-2.6,2c-1.6,0.7-3.2,1.1-4.6,2.3c-0.3,0.2-0.7,0.2-1.1,0.3
			c-0.6,0.1-1.5,0.1-2,0.9c-0.2,0.1-0.6,0.3-0.9,0.4c-1.2,0.3-2.6,0.5-3.8,0.8c-1.5,0.4-2.9,0.6-4.3,0.9c-0.2,0.2-0.6,0.4-0.9,0.7
			c-0.2,0.2-0.2,0.5-0.1,0.7s0.4,0.3,0.5,0.3c2.7-0.2,4.7,1.2,6.9,2.4c1.7,0.9,3.5,2.3,5.5,3.1c1.7,0.7,2.8,2.5,4.7,3
			c0.2,0,0.2,0.2,0.3,0.3c0.6,0.6,1.2,1.4,2,1.8c1.2,0.8,2.3,1.9,3.1,3.1c0.4,0.7,0.8,1.1,1.2,1.6c1,1.1,1.8,2.2,2.6,3.4
			c0.1,0.1,0.1,0.6,0.1,0.9c0,0.5,0.1,0.6,0.5,0.9c0.4,0.4,0.9,0.8,1.2,1.2c0.1,0.3,0.4,0.5,0.5,0.8c0.3,0.6,0.8,1,1.1,1.5
			c0.4,0.6,0.5,1.1,0.9,1.5c0.7,0.8,1.6,1.5,2.3,2.3c0.9,1.2,1.4,2.6,2.8,3.4c0.4,0.1,0.4,0.5,0.7,0.8c0.3,0.4,0.8,0.9,1.2,1.2
			c0.3,0.1,0.5,0.3,0.8,0.4c0.8,0.4,1.5,0.9,2.3,1.2c1,0.4,2.1,0.6,3,0.9c1.1,0.2,2.1,0.6,3,0.9c0.2,0,0.6,0,0.9-0.1
			c1.7-0.9,3.2-2.2,5.1-2.7c1.5-0.5,2-1.4,2.3-2.8c0.2-0.8,0.6-1.5,0.7-2.3c0.2-0.8,0.4-1.5,0.5-2.3c0.1-0.7,0.4-1.4-0.4-1.9
			c-0.8-0.7-0.8-2.1,0.1-2.6c0.8-0.4,1.6-0.6,2.4-0.9c0.2,0,0.4,0,0.5-0.1c1-1.4,2.6-1.5,3.8-2.3c1.4-1,3-1.5,4.6-2.2
			c0.8-0.4,1.5-0.6,2.3-0.9c0.3-0.1,0.4-0.3,0.7-0.4c1-0.7,2-1.5,3.2-1.9c0.7-0.3,1.3-0.4,1.8-0.8c0.6-0.4,1.3-0.9,2-1.2
			c0.6-0.4,1.3-0.4,1.8-0.7c1.1-0.6,2.2-1.5,3.4-2c1.4-0.6,2.7-1.2,4.1-2c2.3-1.5,4.8-2.4,7.2-3.5c0.7-0.4,1.6-0.5,2.3-1.2
			c0.1,0,0.3,0,0.4-0.1c0.6-0.3,1.3-0.7,1.8-0.8c0.3-0.2,0.8-0.2,1.2-0.3c0.3-0.2,0.6-0.2,0.7-0.3c1.1-1.4,2.7-1.5,4.1-2.3
			c1.4-0.7,3-1,4.2-1.9c1-0.6,1.9-1.1,3-1.4c1.1-0.4,2.2-1,3.1-1.8c0.4-0.4,0.9-0.8,1.6-0.5c0.7,0.2,1.1,1.1,1.2,1.4
			c-0.3,0.6-0.3,1.2-0.3,2c0,1.3,0,2.5-0.3,3.7c-0.3,1.3-0.8,2.5-1.1,3.7c-0.2,0.6-0.5,1.3-0.5,1.8c-0.1,1.2-0.1,2.6-0.8,3.8
			c-0.4,0.7-0.5,1.5-0.4,2.3c0.2,0.4,0,0.9-0.1,1.2c-0.3,1.2-0.8,2.3-1.1,3.4c-0.1,0-0.1,0.2-0.1,0.3c0,0.8,0,1.6-0.1,2.4
			c0,1.1-0.2,2.1-0.5,3c-0.1,0.2-0.1,0.4-0.1,0.5c-0.2,1.5-0.3,3.1-0.7,4.6c-0.2,0.8-0.5,1.6-0.5,2.4c-0.1,1-0.3,1.8-0.4,2.6
			c-0.2,0.8-0.2,1.5-0.3,2.3c-0.3,1.9-0.5,3.8-0.8,5.7c-0.1,0.6-0.4,1-0.5,1.4c0,0.4-0.2,0.8-0.3,1.2c-0.3,2.2-0.5,4.3-0.8,6.5v0.1
			c-0.4,1.3-1.1,2.8-0.8,4.3c0,0.2,0,0.8-0.3,0.9c-0.4,0.5-0.4,0.9-0.3,1.4c0.1,0.8,0,1.7-0.7,2.2c-0.2,0.1-0.3,0.5-0.3,0.8
			c-0.1,1.3-0.1,2.7-0.4,3.9c-0.3,1.1-0.8,2.2-1.1,3.1c0.8,0.8,0.7,1.5-0.1,2c-0.5,0.2-1,0.6-1.4,0.9c-1,0.7-1.8,1.4-2.6,1.9
			c-0.3,0.2-0.5,0.2-0.8,0.3c-1,0.6-2.2,0.7-3,1.5c-0.5,0.5-1.2,0.9-1.9,1.2c-0.5,0.4-1.2,0.6-1.9,0.9c-0.4,0.3-0.8,0.5-1.2,0.8
			c-1,0.4-2.1,1.2-3,1.2c-1.6,0-2.3,1.1-3.2,1.8c-1,0.7-1.8,1.5-3,1.6c-0.7,0-1.4,0.2-1.9,0.9c-0.5,0.6-1.5,1-2.3,1.4
			c-1,0.4-1.8,0.8-2.6,1.2c-1.3,0.8-2.5,1.5-3.9,2.3c-0.6,0.3-1.3,0.5-2,0.8c-0.6,0.2-1,0.6-1.5,0.9c-1,0.6-2.1,0.6-2.6,1.8
			c0,0.2-0.2,0.3-0.3,0.3c-1.3,0.4-2.6,0.9-3.5,1.8c-0.5,0.6-1.3,0.9-2,1.4c-0.3,0.2-0.4,0.4-0.7,0.5c-1.7,0.9-3.3,1.9-4.9,2.8
			c-0.4,0.3-0.9,0.5-1.2,0.8c-0.6,0.6-1.2,0.8-2,0.7c-0.3,0-0.7,0.2-0.8,0.3c-0.8,0.9-1.9,1.6-3.1,0.5c-1,1.6-2.6,1.5-3.8,1.2
			c-1.2-0.2-2.1-0.8-3.5-0.9c-0.9-0.2-1.9-0.6-3.1-0.7c-1.4-0.1-2.8-0.8-4.2-1.2c-1.2-0.3-2.6-0.8-3.8-1.1c-1.5-0.4-3.1-0.7-4.5-1.6
			c-0.1-0.1-0.4-0.1-0.5-0.1c-0.5,0-1,0-1.4-0.1c-0.7-0.1-1.2-0.4-1.9-0.5c-2-0.4-4-0.3-5.8-1.5c-0.2-0.1-0.4-0.1-0.5-0.1
			c-0.8-0.2-1.4-0.2-2.2-0.3c-1.5-0.3-2.9-1.2-4.5-1.2c-0.1,0-0.4-0.2-0.5-0.3c-0.8-0.9-2.2-0.7-3.1-0.8c-1.1-0.2-2.2-0.9-3.4-0.5
			h-0.1c-1.4-0.4-2.7-0.9-4.1-1.2c-1.2-0.4-2.6-0.5-3.8-0.8c-0.6-0.1-1.3-0.4-2-0.5c-0.2,0-0.6-0.2-0.9-0.3c-0.6-0.1-1.3-0.2-2-0.5
			c-0.6-0.2-1-0.4-1.4-0.5c-0.7-0.2-1.4-0.2-1.9-0.3s-1.1-0.4-1.6-0.5c-1.7-0.4-3.6-0.8-5.4-1.2c-0.5-0.2-1.1-0.7-1.2-1.1
			c-0.3-0.8-0.7-0.7-1.2-0.4c-1.2,0.8-2.4,1.6-3.8,2.3c-1.2,0.6-2.6,1.1-3.5,2c-0.1,0.2-0.4,0.2-0.5,0.3c-0.8,0.6-1.9,0.7-2.6,1.5
			c-0.2,0.2-0.4,0.2-0.7,0.3c-0.6,0.3-1,0.5-1.5,0.8c-0.6,0.3-1.3,0.5-2,0.8c-0.3,0.1-0.6,0.3-0.7,0.4c-1.1,1.1-2.5,1.3-3.7,1.6
			c-0.9,0.1-1.3,0.4-1.8,0.9c-1.1,1.2-2.3,2.1-3.8,2.4c-1.1,0.2-1.9,0.9-2.7,1.6c-1.2,0.9-2.6,1.5-3.8,2.3c-0.1,0.1-0.3,0-0.4,0.1
			c-0.4,0.2-0.8,0.4-1.1,0.5c-1.2,0.7-2.1,1.7-3.5,1.8c-0.2,0-0.6,0.2-0.9,0.5c-0.6,0.4-0.9,1.1-1.4,1.2c-1.4,0.5-2.6,1-3.7,1.9
			c-1,0.8-2.2,1.3-3.4,2c-0.5,0.2-1.1,0.4-1.6,0.5s-1,0.2-1.4,0.5c-0.7,0.4-1.5,1-2.3,1.5c-0.1,0-0.4,0.1-0.5,0.1
			c-1-0.2-1.6,0.4-2.4,0.9c-0.8,0.4-1.5,0.8-1.9,1.6c-0.2,0.3-0.4,0.3-0.7,0.4c-1.1,0.6-2.2,0.9-3.1,1.8c-0.3,0.2-0.7,0.4-1.1,0.5
			c-0.8,0.1-1.6-0.1-2-0.8c-0.4-0.6-0.3-1.5,0.4-2c0.3-0.3,0.8-0.4,1.2-0.7c0.6-0.4,1.3-0.7,1.8-0.9s1.1-0.8,1.6-0.9
			c1.1,0,1.8-0.5,2.7-0.8c1.1-0.4,1.8-0.9,1.9-1.8c-0.2-0.8-0.4-1.4-0.5-2.2c-0.2-1.2-0.4-2.3-0.7-3.5c0-0.6-0.2-1.3-0.3-2
			c0-0.4,0-0.9-0.1-1.2c-0.5-1.6-1-3.1-1.4-4.7c-0.1-0.6,0-1.3-0.1-2c0-0.1,0-0.4-0.1-0.5c-0.3-0.8-0.7-1.5-0.8-2.3
			c-0.3-1.6-0.4-3.1-0.7-4.7c0-0.4,0-0.8-0.1-1.2c-0.3-0.8-0.7-1.8-0.8-2.7c-0.2-1.6-0.1-3.1-0.5-4.7s-0.3-3.4-0.4-5
			c0-1.8,0-3.6,0.1-5.5c0-0.3,0.1-0.4,0.1-0.7c0-0.7,0-1.4,0.1-1.9c0.2-0.5,0.2-1.2,0.3-1.9c0.2-0.1,0.3-0.4,0.3-0.5
			c0-2.1,0.9-3.7,1.6-5.5c0.3-0.8,1.1-1.6,1.5-2.4c0.7-1,1.1-2.1,1.6-3.2c0.2-0.2,0.4-0.4,0.5-0.5c1.1-0.8,2.1-1.6,3-2.4
			c1.1-1,1.8-2.5,3.4-2.6c0.2,0,0.2-0.2,0.3-0.3c1.3-1.2,2.4-2.7,4.3-3.4c0.2,0,0.2,0,0.3-0.1c1.2-1.2,2.7-1.9,4.3-2.6
			c0.4-0.1,0.8-0.4,1.2-0.5c1.1-0.5,2.2-1.1,3.4-1.6c1.4-0.7,2.7-1.1,4.1-1.6c0.3-0.1,0.5-0.2,0.8-0.1c1.2,0.5,2.1,0.3,2.8-0.9
			c0.3-0.5,0.7-0.9,0.7-1.4c0.2-0.9,0.4-1.7,1.1-2.4c0.4-0.3,0.6-0.8,0.9-1.2c0.6-1,1.3-2.1,1.8-3.2c0.3-0.5,0.5-1.1,0.8-1.6
			c0.3-0.4,0.5-0.9,0.8-1.2c1.2-0.8,1.3-2.6,2.7-3.1v-0.1c0.3-1.5,1.8-2.2,2.6-3.4c0.6-0.9,1-2,2.2-2.3c0-0.1,0.1-0.3,0.1-0.4
			c0.2-0.8,0.8-1.3,1.6-1.6c0.1-0.1,0.4-0.4,0.5-0.5c0.9-1,1.5-2.3,3.1-2.2c0.1-0.4,0.2-0.8,0.5-1.1c1.4-0.9,2.9-1.6,4.5-1.6
			c0.8,0,1.3-0.2,1.2-0.9c0-0.7-0.2-1.2-0.3-1.9c-0.1-0.4-0.4-0.8-0.9-0.9c-0.3,0-0.5-0.4-0.8-0.5c-0.6-0.4-1.3-0.6-2-0.9
			c-0.5-0.1-1-0.3-1.4-0.4c-0.7-0.2-1.4-1-1.9-0.9c-1.5,0.2-2.6-1-3.8-1.4c-0.6-0.3-1.3-0.8-2-1.2c-0.9-0.5-1.8-1.1-2.3-2
			c0-0.2-0.2-0.4-0.5-0.5c-1.5-0.4-2.3-1.9-3.4-2.8c-1.1-0.8-2.2-1.9-2.3-3.4c0,0-0.2-0.2-0.3-0.3c-0.7-1-1.4-1.7-1.9-2.6
			c-0.4-0.8-0.8-1.8-0.9-2.7c-0.4-1.2-0.6-2.6-0.7-3.8c0-1-0.2-2.1-0.1-3c0.3-0.9,0.8-1.9,1.2-2.8c0.1-0.2,0-0.4,0.1-0.5
			c0.1-0.3,0.3-0.8,0.4-1.1c0.4-0.6,0.8-1.3,1.2-2c0.3-0.4,0.5-0.6,0.8-0.9c1.1-1.1,2.2-2.1,3.1-3C43.3,31.6,43.1,31.4,42.9,30.3z
			 M86,75.2c-0.1,0-0.3,0.2-0.4,0.3c-0.7,1.2-2.2,2.1-3.4,2.6c-1.2,0.4-2.3,0.9-3.5,1.6c-0.7,0.3-1.7,0-2.6,0c-0.3,0-0.7-0.1-0.8,0
			c-0.5,0.4-1.2,0.2-1.9,0.1c-1.5-0.4-3-0.6-4.5-1.1c-1-0.3-1.8-1-2.6-1.4c-0.6-0.3-1-0.5-1.5-0.8c-0.8-0.5-1.7-1.1-2.6-1.6
			c-1.5,1-2.5,2.7-4.7,3c-0.3,1.4-1.7,1.8-2.6,2.6c-0.8,1-1.7,1.8-2.4,2.6c-1,0.9-1.8,1.9-2.6,2.8c-0.2,0.2-0.4,0.4-0.5,0.7
			c-0.5,0.6-1,1.3-1.4,1.8l-0.1,0.1c0,1.5-1.7,2.1-2,3.5c0,0.4-0.5,0.8-0.8,1.1c-0.3,0.4-0.8,0.8-1.1,1.2c-0.4,0.7-0.8,1.4-1.2,1.9
			c-0.7,1-1.1,1.9-1.4,3c-0.3,0.8-1.2,1.5-1.5,2.3c-0.2,0.8-0.1,1.8-0.5,2.6c-0.4,0.8-0.9,1.4-0.8,2.2c0.1,0,0,0.1,0,0.1
			c-1,0.8-0.7,2.2-1.4,3.1c-0.4,0.4-0.4,1.1-0.5,1.6c-0.4,1.2-0.1,2.6-0.9,3.8c-0.1,0.1-0.2,0.4-0.1,0.5c0.5,1.2-0.1,2.2-0.4,3.4
			c0,0.3-0.1,0.5-0.1,0.8c0,0.8,0.2,1.5-0.1,2.2c-0.6,1.4-0.4,2.7-0.5,4.1c0,1.2-0.2,2.3-0.3,3.5c0,0.6,0.1,1.3,0.1,2
			c0,0.1,0.1,0.3,0.1,0.4c-0.1,1.4-0.1,2.8,0.4,4.2c0.1,0.1-0.2,0.6-0.3,0.9c-0.2,0.6-0.1,1.1,0.3,1.4c0.5,0.4,0.8,0.9,0.8,1.6
			c0,0.2,0.3,0.6,0.4,0.9c0.7,1.2,1.1,2.3,1.6,3.5c0.1,0.7,0.5,1.2,0.9,1.6c1.1,1.1,1.9,2.5,3.1,3.4c0.9,0.8,2,0.8,2.8,1.6
			c0.3,0.1,0.8,0.1,1.2,0.1c1.4,0.1,2.7,0.3,4.1,0.4c1.1,0,1.5,0.5,1.6,1.9c0.6-0.4,1.2-0.9,2-1.2c1.3-0.4,2.3-1.2,3.5-2
			c0.9-0.7,2.1-1.1,3.2-1.6c0.5-0.3,1-0.5,1.4-0.8c0.3-0.1,0.4-0.4,0.7-0.4c1.7-0.1,2.9-1.2,4.1-2c0.8-0.6,1.8-1.3,2.7-1.8
			c0.1,0,0.3-0.1,0.4-0.1c1.2,0.2,1.9-0.9,2.8-1.4c0.5-0.3,0.7-1,0.8-1.5c0.2-1.4,0.5-2.5,1.4-3.4c0.3-0.3,0.6-0.8,0.7-1.2
			c0.4-1.2,0.8-2.4,2.2-2.7c0.1,0,0.3-0.2,0.4-0.3c1-1,1.8-2.1,3.4-2.2c-0.1-0.2-0.1-0.2-0.1-0.3c-0.6,0-1.3-0.1-2-0.1
			c-1.6,0.1-3.1,0.3-4.7,0.4c-1.5,0.3-3,0.5-4.5,0.8c-1.5,0.5-2.8,1-4.2,1.4c-1.2,0.3-2.5,0.7-3.9,0.8c-0.6,0.1-1.1-0.4-1.4-1.1
			s0-1.4,0.5-1.8c0.3-0.4,0.8-0.6,1.2-0.7c1.4-0.4,2.7-0.6,4.1-0.9c0.3-0.1,0.8-0.3,1.1-0.4c0.3-0.2,0.5-0.4,0.8-0.3
			c1,0.3,1.8-0.4,2.6-0.5c1.2-0.2,2.4-0.4,3.5-0.5c1.1-0.1,2.5-0.4,3.7-0.4c1.6,0,3.2-0.4,4.7,0.5c0.3,0.1,0.5,0.1,0.8,0.1
			c1.5,0.1,1.9,0.6,1.6,2.4c0.7-0.1,1.1-0.3,1.6-0.4c1-0.1,1.8-0.2,2.6-0.1c1.5,0,2.8,0.3,4.2,0.3c0.5,0,1-0.4,1.4-0.7
			c0.5-0.2,1.1-0.6,1.6-0.9c0.4-0.3,0.8-0.7,1.2-0.8c0.8-0.4,1.6-0.5,2.4-0.8c1-0.2,1.9-0.5,2.4-1.6c0.2-0.2,0.4-0.4,0.7-0.5
			c1.4-0.6,2.8-1.3,4.2-2c0.2-0.2,0.5-0.4,0.5-0.7c0-0.5,0-1.1-0.1-1.6c-0.2-0.8-0.6-1.6-0.7-2.4c-0.2-0.6-0.2-1.3-0.3-2
			c-0.4-2.2-1-4.2-0.9-6.4c0-0.6-0.4-1.3-0.5-2c-0.3-0.9-0.5-1.9-0.8-2.8c0,0,0,0,0-0.1c0.2-1.4-0.4-2.5-0.7-3.7
			c-0.1-0.5,0-1.2-0.1-1.9c-0.3-1.1-0.5-2.2-0.8-3.4c-0.1-0.7,0.3-1.4,0.8-1.5c0.6-0.2,1.3,0.2,1.4,0.9c0.5,1.5,0.9,3.1,1.4,4.6
			c0,0.2,0.1,0.2,0.1,0.3c0,2.1,1,3.9,1.4,5.9c0.1,0.5,0,1.1,0.1,1.6c0.1,1.5,0.6,2.9,0.9,4.3c0.2,1,0.4,2.1,0.5,3.2s0.4,2,0.5,3.1
			c0,0.4,0.1,0.8,0.1,1.2c0,0.6,0.2,0.8,0.9,0.5c1.2-0.7,2.3-1.4,3.5-1.9c0.5-0.2,1-0.2,1.4-0.5c1-0.6,2.1-1.3,3-2
			c0.5-0.4,1.4-0.5,1.9-0.9c0.4-0.5,1.1-0.9,1.2-1.4c0.5-0.9,0.5-1.8,1.4-2.3c0,0,0.1,0,0.1-0.1c0.4-1.6,1.8-2,3-2.8
			c0.3-0.3,0.5-0.5,0.8-0.8c-0.2-0.3-0.4-0.6-0.7-0.7c-0.9-0.8-1.8-1.4-2.7-2.2c-0.4-0.3-0.8-0.5-1.2-0.8c-0.2-0.1-0.6-0.2-0.7-0.5
			c-0.8-1.5-2.2-2.3-3.1-3.4c-0.7-1-1.6-1.8-1.9-3c-0.1-0.4-0.9-0.8-1.2-1.2s-0.8-1-1.1-1.5c-0.2-0.4-0.4-0.6-0.5-0.9
			c-0.3-0.5-0.6-1.1-0.7-1.6c0-0.4,0-0.7-0.5-0.8c-0.3,0-0.7-0.2-0.8-0.5c-0.7-1.1-1.2-2.2-1.9-3.1c-0.4-0.6-0.8-1-1.2-1.4
			c-1-1-1.9-2.1-3-3c-1.3-1.1-2.5-2.2-3.7-3.1c-0.9-0.7-2.2-0.8-3.1-1.6c-1.6-1.2-3.4-1.8-5.3-2.6c-0.9-0.3-1.9-1-2.8-1.4
			s-2.1-0.8-3.2-1.2C87.5,73.7,86.8,74.2,86,75.2z M202.2,67.1c-0.8,0.5-1.6,1.1-2.4,1.6c-0.8,0.5-1.6,0.8-2.4,1.2
			c-1.1,0.5-2,1.2-3.1,1.6c-1.5,0.5-2.7,1.7-4.5,1.6c-0.1,0-0.4,0.2-0.5,0.3c-0.4,0.3-0.6,0.8-0.9,0.8c-0.8,0-1.3,0.6-2,0.9
			c-1.1,0.5-1.8,1-2.7,1.4c-1.1,0.7-2.2,1.1-3.4,1.6c-1.3,0.6-2.5,1.5-3.7,1.8c-1.5,0.4-2.7,1.3-4.1,2c-1.3,0.7-2.5,1.1-3.7,1.6
			c-0.5,0.1-0.9,0.6-1.4,0.9c-1,0.6-2.1,1-3,1.4c-0.1,0.2-0.3,0.2-0.4,0.3c-1,1.3-2.6,1.6-4.1,2c-0.3,0.1-0.4,0.3-0.7,0.4
			c-0.7,0.4-1.4,0.8-1.9,1.2c-0.5,0.3-1,0.5-1.4,0.8c-0.2,0.1-0.6,0.4-0.9,0.5c-1.2,0.5-2.3,0.9-3.5,1.4c-0.2,0.1-0.4,0.3-0.5,0.4
			c-0.7,0.6-1.4,1-2.3,0.9c-0.6-0.2-0.9,0.2-0.9,0.9s-0.2,1.2-0.3,1.9c0,0.7,0,1.4-0.1,1.9c-0.6,1.3-0.6,2.8-0.7,4.3
			c-0.1,0,0,0.2-0.1,0.3c-1.1,1.5-0.6,3.4-1.4,4.9c-0.1,0.3-0.1,0.8-0.1,1.2c0,0.3,0,0.4,0,0.7c-0.2,1.7-0.4,3.3-0.9,4.9
			c-0.4,1.2-0.7,2.2-0.4,3.4c0.2,0.5-0.4,1.2-0.5,1.9c-0.4,1.5-0.5,2.8-0.8,4.2c-0.2,1.2-0.6,2.6-0.9,3.8c-0.1,0.6,0.1,1,0,1.5
			c-0.3,1.7-0.3,3.4-1.2,4.9c0,0.1,0,0.4,0.1,0.5c0.8,1,0.5,2.2,0,3c-0.4,0.8-0.4,1.6-0.5,2.4c-0.1,1.7-0.1,3.3-0.8,4.9
			c-0.5,1.1-0.5,2.3-0.8,3.5c-0.1,0.8-0.4,1.8-0.5,2.6c-0.1,0.4,0,1.1-0.1,1.6c0,0.4,0,0.9-0.3,1.2c-0.7,0.6-0.5,1.2-0.4,2
			c0,0.4,0,0.8-0.1,1.2c-0.2,0.8-0.5,1.5-0.5,2.3c0,1.3-0.3,2.5-0.8,3.7c-0.4,0.8-0.6,1.8-0.7,2.6c0,0,0,0.2,0.1,0.3
			c0.3-0.2,0.5-0.4,0.8-0.5c1.1-0.4,2.2-0.4,2.7-1.6c0-0.2,0.2-0.3,0.5-0.3c1.5-0.1,2.5-1.4,3.7-1.9c1.3-0.7,2.7-1.4,3.9-2.2
			c0.6-0.3,1.3-0.8,2-1.1c0,0,0-0.1,0.1-0.1c1.3,0,2-1.1,2.8-1.9c0.1-0.2,0.4-0.3,0.5-0.3c1.2,0.1,1.9-0.9,2.8-1.4
			c0.5-0.3,1-0.5,1.4-0.8c0.7-0.5,1.4-1,1.9-1.4c1.4-0.9,2.6-1.8,4.1-2.3c0.8-0.2,1.5-1,2.3-1.4c0.8-0.4,1.5-1,2.3-1.1
			c0.8,0,1.4-0.4,1.9-0.9c0.9-0.9,2-1.2,3.2-1.6c1.2-0.4,2.4-0.6,3.2-1.8c0.7-0.9,2.1-1.3,3-1.8c0.8-0.4,1.6-0.5,2.4-0.9
			c0.5-0.3,1.1-0.8,1.6-1.1c0.1-0.2,0.4-0.3,0.5-0.3c1.5-0.1,2.6-1.1,3.7-1.9c0.2-0.2,0.4-0.3,0.5-0.3c1.4-0.1,2.1-1.1,2.6-2
			c0.2-0.6,0.1-1.4,0.1-2.2c0-2,0.5-3.9,1.4-5.8c0.1-0.1,0.2-0.4,0.1-0.5c-0.4-1.1-0.1-1.8,0.4-2.6c0.1-0.2,0.1-0.6,0.1-0.9
			c0-0.4,0-0.9,0.1-1.2c0.8-1.4,0.7-2.7,0.8-4.1c0.1-0.6,0.3-1.3,0.4-2c0.1-1.1,0.4-2,0.5-3.1c0-0.3,0-0.5,0.1-0.8
			c0.4-0.8,0.5-1.6,0.1-2.4c-0.1-0.2-0.1-0.6,0-0.9c0.3-2,0.7-4.2,1.1-6.2c0.4-1.7,0.8-3.3,1.2-5.1c0-0.2,0.1-0.2,0.1-0.3
			c-0.5-1.5,0.4-2.9,0.4-4.3c0-0.5,0.3-1.1,0.4-1.6c0.1-0.2,0.1-0.4,0.1-0.5c-0.1-1.1,0.4-2.2,0.7-3.4c0.3-1,0.6-2.1,0.7-3
			c0.2-1.5-0.2-3.2,0.9-4.6c0.4-0.4,0.3-1.3,0.3-1.8c-0.2-1.4,0.4-2.5,0.9-3.7c0.2-0.3,0.2-0.5,0.3-0.8c0.2-1,0.2-2.1,0.5-3.2
			s0.8-2.2,1.2-3.4c0-0.3,0.2-0.4,0.3-0.8C202.3,66.3,202,66.4,202.2,67.1z M109.2,29.6c0.4-0.6,0.7-1.2-0.1-2
			c-0.2-0.2-0.3-0.4-0.3-0.7c-0.3-1.3-0.8-2.8-0.7-4.3c0,0,0-0.2-0.1-0.3c-0.7-1.4-1.2-2.8-1.9-4.2c-0.1-0.7-0.6-1.2-0.9-1.9
			c-0.2-0.1-0.3-0.3-0.3-0.4c-0.3-1.5-1.4-2.5-1.9-3.7c-0.1-0.2-0.4-0.4-0.5-0.5c-0.4-0.6-0.6-1-0.9-1.5c-0.2-0.5-0.5-1.1-0.9-1.4
			c-1.4-1.1-2.7-2.2-4.1-3.1c-0.8-0.6-1.9-1.1-2.8-1.4c-0.8-0.2-1.9,0-2.7-0.3c-1.7-0.4-3.3-0.4-4.9-0.5c-1.1-0.1-2.1-0.3-3,0
			c-0.5,0.2-1.4-0.2-1.9,0.1c-1.1,0.4-2.2,0.4-3.4,0.3c-0.5,0-1.1,0.2-1.6,0.3c-0.9,0.2-1.9,0.2-2.8,0.3c-0.2,0-0.4,0.2-0.5,0.3
			c-0.3,0.1-0.5,0.3-0.8,0.4c-1.9,0.6-3.9,1-5.8,1.4c0,0-0.2,0-0.3,0.1C64.8,8,63,7.7,61.6,8.8c-0.1,0-0.3,0.1-0.4,0.1
			c-1.7,0-3.1,1.4-4.7,1.8c-1.5,0.4-3,1-4.1,1.9c-1.4,1.2-3.3,2.3-4.1,4.2c-0.6,0.8-1.3,1.8-1.8,2.7c-0.7,1.2-1.4,2.6-1.1,4.2
			c0,0.6-0.2,1-0.1,1.5c0.2,1.8,0.6,3.5,0.9,5.3c0,0.2,0.3,0.4,0.4,0.5c0.7,0.6,0.7,1.5,0,2c-0.4,0.3-0.8,0.7-1.2,0.8
			c-1.3,0.6-2.2,1.6-2.7,3c-0.2,0.4-0.4,0.6-0.7,0.9c-0.2,0.3-0.4,0.4-0.5,0.7c-0.6,1.3-1.3,2.5-1.4,3.7c-0.2,1.2-0.5,2.6-0.5,3.8
			c0,0.8,0.2,1.6,0.9,2.3c0.4,0.3,0.5,1,0.8,1.5c0.6,1,1,2.1,1.4,3c0.2,0.1,0.2,0.3,0.3,0.4c0.7,0.8,1.5,1.5,2.3,2.3
			c0.8,1.1,1.8,2.3,2.7,3.4c0.1,0.1,0.3,0.3,0.4,0.4c1.3,0.8,2.5,1.5,3.9,2.3c0.8,0.4,1.6,0.8,2.4,1.2c0.3,0.1,0.6,0.3,0.7,0.4
			c0.7,1.1,1.7,1.1,2.6,1.4c0.4,0.2,0.8,0.6,1.2,0.7c0.5,0.3,1.1,0.7,1.6,0.8c0.4,0.1,0.8-0.2,0.9-0.7c0.4-1.1,0.7-2.2,1.9-2.7
			c0.8-0.3,0.7-1.5-0.1-1.9c-1.5-0.6-2.3-1.8-3.1-3.2c-1-1.6-1.5-3.1-1.4-5c0.1-0.2,0-0.4,0.1-0.5c0.8-1.3,1.1-2.9,2.7-3.7
			c0.4-0.3,0.9-0.5,1.2-0.8c0.9-0.9,2.3-0.9,3.5-0.9c0.8,0,1.8,0.2,2.6,0.3c0.7,0,1.3,0.4,1.8,0.5c0.4,0.2,0.6,0.2,0.9,0.3
			c0.2-1.4,0.2-2.5,0.5-3.7c0.5-1.9,1.1-3.9,2.7-5.3c0.5-0.4,1.2-0.6,1.9-0.9c0.8-0.3,1.6-0.5,2.4-0.8c0.1-0.1,0.4-0.4,0.5-0.5
			c0.4-0.5,1-0.8,1.8-0.8c0.3,0,0.5-0.2,0.8-0.3c0.5-0.3,1.1-0.5,1.6-0.8c0.8-0.4,1.9-0.1,2.6-0.9c0.6-0.6,0.6-1.2,0.3-2
			c-0.6-1.2-1-2.8-1.5-4.2c-0.1,0,0-0.2-0.1-0.3c-0.8-1.1-0.5-2.5-0.5-3.7c0-0.4,0.3-0.8,0.4-0.9c0.3,0,0.8,0.1,1.1,0.4
			c2,2,2.4,4.7,3.2,7.3c0,0.1,0,0.3,0,0.4c0,1.7,0.7,2.1,2.3,1.6c1.1-0.5,2.5-0.5,3.7-0.8c1-0.2,2.1-0.4,3-0.5
			c0.4,0,0.7-0.3,0.7-0.8s0.4-0.9,0.5-1.4c0.1-0.3,0.2-0.5,0.1-0.8c-0.3-0.7-0.8-1.2-1.1-1.9c-0.2-0.1-0.3-0.4-0.3-0.5
			c0-1.4-0.5-2.5-0.9-3.7c-0.1-0.3-0.3-0.5-0.4-0.8c0-0.6-0.2-1-0.1-1.5c0-0.2,0.6-0.5,0.9-0.5c0.5,0,0.9,0.4,1.2,0.9
			c0.4,0.8,0.8,1.8,1.2,2.7c0,0.2,0.2,0.2,0.3,0.3c0.4,0.5,0.8,0.9,0.9,1.4c0.2,0.9,0.4,1.9,0.5,2.8c0,0.3,0.2,0.5,0.3,0.8
			c0.5,0.8,0.6,1.5,0.1,2.3C104.4,30.3,106.4,30.3,109.2,29.6z M14.8,173.3c0.4-0.3,0.8-0.5,1.2-0.8c1.2-0.7,2.4-1.5,3.8-1.9
			c1.2-0.4,2.3-1.1,3.2-1.9c0.5-0.4,1.2-0.4,1.9-0.5c0.2-0.1,0.6-0.2,0.9-0.5c0.8-1.1,2.3-1.3,3.4-2c0.4-0.3,0.6-0.4,0.9-0.7
			c0.1-0.1,0.2-0.4,0.5-0.5c1.5-0.5,2.6-1.8,4.2-1.9c0.7-0.1,1.4-0.7,1.9-1.2c1.2-1.1,2.6-1.7,4.2-2c0.7,0,1.5,0,1.6-0.9
			c0,0,0-0.1,0.1-0.1c1.2-0.5,2-1.8,3.4-1.9c0.1,0,0.3,0,0.4-0.1c1-0.8,1.8-1.5,2.6-2c-1.1,0.2-2.3,0.2-3.5-0.3
			c-1.4-0.7-3.2-0.5-4.1-1.9c0,0-0.4,0-0.5-0.1c-0.4-0.1-0.6-0.1-0.9-0.4c-1.1-0.9-2.1-1.9-3-2.8c-0.4-0.4-0.8-1.1-1.1-1.6
			c-0.8-1.7-2.3-3.1-2.6-5.1c-0.2-0.8-0.6-1.4-0.7-2.2c0-0.5,0-1,0.1-1.4c0.1-0.7,0.1-1-0.4-1.5c-0.4-0.3-0.7-1-0.8-1.5
			c-0.3-0.9-0.3-2-0.4-3.1c0-0.6,0.1-1,0.1-1.5c0-0.7,0.2-1.1,0.1-1.6c-0.4-2.1-0.1-4.2,0.4-6.2c0.2-0.7,0-1.4,0.1-1.9
			c0.1-0.8,0.3-1.8,0.4-2.6c0-0.8,0-1.5,0.1-2.3c0.2-0.7,0.4-1.2,0.7-1.9c0.2-0.2,0.3-0.4,0.3-0.5c-0.2-1.6,0.5-3.2,1.2-4.6
			c0.2-0.4,0.2-0.8,0.3-1.2c0.1-0.7,0.3-1.1,0.4-1.6c0,0,0.1,0,0.1-0.1c-0.1-1,0.1-2,0.8-2.8c0,0.1-0.2,0-0.3,0.1
			c-1.6,1.3-3.7,1.5-5.5,2.7c-0.8,0.4-1.6,0.5-2.4,0.9c-1.5,0.8-3,1.9-4.5,2.8c-1.4,0.8-2.8,1.8-4.2,2.7c-1,0.6-2.1,0.9-2.6,2
			c-0.4,0.6-1.5,0.9-2,1.4c-1,0.8-1.8,1.8-2.6,2.6c-0.2,0.2-0.2,0.6-0.5,0.7c-0.9,0.4-1.5,1.4-2,2.3c-0.4,0.7-0.5,1.5-0.8,2.3
			c-0.5,1.6-0.9,3.4-1.4,5c-0.1,0.2,0,0.4,0,0.5c0,0.3,0.1,0.7,0,0.8c-0.6,1.3-0.5,2.7-0.5,4.1c0,0.8,0.1,1.8,0.1,2.7
			c0,1.6-0.2,3.5,0.1,5.1s-0.3,3.1,0.4,4.7c0.4,1.1,0.3,2.6,0.4,3.8c0,0.3,0,0.4,0.1,0.7c0.6,2.2,1.2,4.2,1.5,6.4
			c0.3,2.1,1.2,4.3,1.5,6.6c0,0.3,0,0.4,0.1,0.7c0.1,0.9,0.4,1.8,0.5,2.7c0.3,1.3,0.5,2.9,0.8,4.3c0,0.8,0.4,1.4,0.5,2.2
			c0,0,0.2,0.1,0.3,0.1C13.5,174.3,13.9,173.9,14.8,173.3z M137.3,126.8c0.5,1.3,0,2.6-1.4,3.1c-0.2,0-0.4,0.2-0.5,0.3
			c-0.3,0-0.5,0.3-0.8,0.3c-1.1-0.3-2.2-0.3-3.1-0.8c-1.5-0.8-2.8-1.9-4.3-2.7c-1.4-0.7-2.3-1.8-3-3c0-0.3-0.4-0.3-0.5-0.4
			c-0.2-0.1-0.4-0.2-0.5-0.5c-0.6-1.6-1-3.1-1.5-4.7c0,0-0.2-0.1-0.3,0c-1.3,0.6-2.5,1-3.7,1.5c-0.8,0.4-1.5,1.1-2.3,1.6
			c-0.5,0.2-1.1,0.6-1.6,0.9c-1.1,0.5-2.1,0.9-3,1.4s-1.8,1.1-2.7,1.6c-1.3,0.7-2.5,1.4-3.7,2.2c-0.3,0.1-0.5,0.2-0.8,0.1
			c-0.8-0.1-1.5,0.4-2,0.8c-1.1,1-2,2.2-3.4,2.6c-0.2,0-0.4,0.2-0.7,0.5c0.7,0.5,1.1,0.9,1.6,1.2c1.2,0.5,1.8,1.8,2.6,2.7
			c0.8,1.1,1.5,2.2,2.2,3.4c0.6,1.1,1.5,2,2,3.1c0.5,0.9-0.1,2.1-0.9,2.8c-0.6,0.5-1,1.2-1.4,1.9c-0.1,0.3-0.3,0.7-0.4,0.8
			c-1.6,1-3,2.7-5.3,2.2c-0.1,0-0.4,0-0.5,0.1c-1.3,0.4-2.5,0.4-3.7-0.1c-0.7-0.2-1.4-0.4-2.2-0.5c-0.4-0.1-0.9-0.2-1.2-0.5
			c-1-0.9-1.8-0.9-3-0.4c-0.6,0.2-1.3,0.4-2,0.5c-1.3,0.2-2.5,0.6-3.7,0.5c-1.7-0.3-3.3-0.9-4.7-2.3c-0.8-0.9-1.7-2-3.1-2.3
			c-0.6-0.3-1.6,0.1-2,0.5c-0.4,0.5-0.9,0.9-1.6,1.2c-1.4,0.6-2.7,1.3-4.1,2c0.9,0.9,2.2,0.6,3.1,0.9c1.6,0.4,3.3,0.4,4.7,1.2
			c1.1,0.5,2.2,0.6,3.1,0.9c1.3,0.4,2.5,0.5,3.7,0.8c1.9,0.5,3.9,1.1,5.8,1.6c0.5,0.1,1.1,0,1.6,0.1c0.6,0.3,1.3,0.5,2,0.8
			c0.2,0,0.2,0.1,0.3,0.1c1.5,0,2.6,0.7,3.8,1.2c0.1,0.1,0.4,0.1,0.5,0.1c0.6,0.2,1.3,0.2,2,0.3c1.2,0.3,2.3,0.5,3.5,0.8
			c1,0.3,1.8,0.5,2.6,0.8c0.1,0,0.3,0.1,0.4,0.1c2-0.2,3.8,0.9,5.7,1.4c0.7,0.1,1.4,0.3,1.9,0.4c0.6,0.2,1.3,0.4,1.8,0.7
			c0,0,0.2,0.1,0.3,0.1c1.7-0.3,3.1,0.4,4.7,0.9c1.2,0.4,2.6,0.7,3.8,1.1c1.6,0.6,3.4,1.3,5,1.8c0.5,0.2,1,0.2,1.4,0.3
			c0.7,0.1,1.2,0.4,1.9,0.5c1,0.2,1.8,0.3,2.6,0.3c0,0,0.4-0.6,0.3-0.9c-0.1-0.7,0-1.2,0.3-1.9c0.2-0.5,0.2-1.2,0.3-1.9
			c0.3-1.7,0.7-3.3,0.7-4.9c-0.1-1.2,0.3-2.4,0.4-3.8c0-1.8,0.8-3.6,1.2-5.5c0.2-1.1,0.4-2.5,0.5-3.7c0.1-1.3,0.6-2.5,0.9-3.7
			c0.3-0.8,0.7-1.6,0.4-2.7c-0.3-0.8-0.1-1.9,0.8-2.7c0-0.2,0.1-0.6,0.1-0.7c-0.2-2.1,0.2-4.2,0.7-6.2c0.1-0.1,0-0.8-0.3-0.9
			c-0.6-0.4-1.3-0.8-1.8-1.1c-0.3,0-0.5,0-0.8-0.1C136.3,125.6,136.4,125.9,137.3,126.8z M70,49.7c-0.4-0.1-0.6,0-0.9-0.1
			c-1.7-1.1-3.3-0.3-4.9,0.1c-0.6,0.3-1.1,1.2-1.4,1.9c-0.3,0.8-0.3,1.8-0.4,2.6c-0.3,1.1,0.1,1.8,0.9,2.3c0.6,0.6,1.3,1.3,2,1.8
			c0.3,0.2,0.5,0.4,0.8,0.5c0.8,0.4,1.1,1,1.2,1.8c0,1.4,0,2.6-1.4,3.4c-0.2,0.2-0.3,0.2-0.3,0.3c-0.3,0.6-0.4,1.2-0.7,1.8
			s-0.8,1-1.2,1.5c1.5,1.4,0.9,3.3,1.2,4.9c0.1,0.2,0.1,0.6,0.4,0.9c0.7,0.5,1.4,1.1,2.3,1.2c0.8,0.2,1.5,0.8,2.3,1.1
			c0.4,0.2,0.8,0.4,1.2,0.5c0.8,0.2,1.8,0.2,2.6,0.3c0.2,0,0.2-0.1,0.3,0c1,0.7,1.8,0.2,2.6-0.1c0.6-0.2,1.3,0,2-0.1
			c0.3,0,0.5-0.2,0.8-0.3c0.6-0.2,1-0.6,1.4-0.9c1.2-1,2.3-2.1,3.4-3c0.2-0.2,0.2-0.4,0.3-0.7c0.3-0.8,0.5-1.8,0.8-2.7
			c0.1-0.5,0.1-1,0.1-1.4c0.1-1.1,0.5-1.8,1.6-1.9c2.3-0.4,4.6-0.7,6.9-1.2c0.6-0.1,1.3-0.5,2-0.8c0.4-0.2,0.9-0.4,1.2-0.3
			c0.8,0.3,1.3-0.1,2-0.5c0.3-0.2,0.8-0.5,1.2-0.5c1.3,0,2.3-1.2,3.2-1.9c0.5-0.3,1-0.5,1.4-0.8c0.7-0.7,1.8-0.8,2.6-1.6
			c1.4-1.4,2.1-3,3-4.5c0.4-0.7,0.2-1.8,0.3-2.6c0-0.5,0-1,0.1-1.4c0-0.2,0-0.4,0-0.5c-0.6-2.2-1-4.2-1.5-6.4c0-0.3-0.2-0.8-0.3-1.1
			c-0.3-0.8-0.4-1.4-0.7-2.2c0-0.4-0.2-0.8-0.3-1.2c-0.4-1.4-0.8-2.7-1.2-4.1c0-0.2-0.2-0.5-0.5-0.5c-0.8,0-1.4,0-2.2,0.1
			c-0.2,0-0.4,0.1-0.5,0.1c-1.7-0.4-3.3,0.6-5.1,0.5c-1-0.1-2.1,0.4-3.2,0.7c-0.9,0.3-2,0.3-2.8,0.7c-1.2,0.4-2.6,0.8-3.8,1.2
			c-0.3,0.2-0.6,0.3-0.7,0.3c-1.2-0.2-2.1,0.8-3.2,1.2C84,38.5,83,39,82.1,39.3c-1.2,0.4-2.2,1.3-3.1,1.8c-0.4,0.1-0.6,0.4-0.9,0.4
			c-1.2,0.1-1.7,1-2,1.9c-0.5,0.9-0.5,2.1-0.8,3.2c-0.2,0.6-0.2,1.3-0.5,2c-0.1,0.4-0.5,0.6-0.8,0.9c-0.1,0-0.3,0-0.4,0.1
			c-0.6,0.5-1,0.9-1.5,1.4C71.4,50,70.7,50,70,49.7z M92.4,144.1c-0.4-0.6-0.9-1.2-1.2-2c-0.3-0.5,0.3-0.8,0.8-0.9
			c0.8-0.1,2.3,0.6,2.7,1.4c0,0.2,0.2,0.4,0.3,0.5c1.1,0.8,2.2,1.8,3.1,2.6c0.2,0.2,0.4,0.4,0.5,0.5c0.3,0.6,0.9,0.6,1.4,0.3
			c-0.2-0.2-0.2-0.4-0.3-0.5c-0.9-0.8-1.4-1.6-1.8-2.7c-0.1-0.3-0.6-0.5-0.9-0.8c-0.5-0.6-0.9-1-0.8-1.8c0.1-0.6,0.7-0.8,1.2-0.9
			c0.7-0.1,1.2,0.3,1.6,0.8c0.6,0.7,1.3,1.2,1.8,1.9c0.3,0.2,0.5,0.6,0.8,0.9c0.5,0.4,0.6,1.1,1.4,0.3c-0.3-0.4-0.5-0.8-0.8-1.2
			c-1-1.5-1.7-3.1-2.6-4.6c-0.4-0.7-1-1.1-1.5-1.6c-0.9-1.1-2-1.5-3.2-1.9s-2.6-0.7-3.8-1.2c-1.5-0.8-3.1-0.6-4.6-0.7
			c-1-0.2-2.1,0.2-3,0.5c-1.2,0.5-2.3,0.9-3.5,1.4c-0.3,0.1-0.5,0.5-0.8,0.8c-0.5,0.4-1,1.1-1.4,1.6c-0.2,0.4-0.4,0.8-0.5,1.2
			c-0.3,0.8-0.5,1.8-0.8,2.7c-0.2,0.2-0.3,0.4-0.3,0.7c-0.2,0.7,0.1,1.3,0.9,1.6c0.1,0,0.3,0.2,0.4,0.3c1.2,1.6,3.1,2.2,5,2.3
			c0.3,0,0.5,0.1,0.8,0.1c0.5,0,1.2,0,1.6-0.3c1.2-0.7,2.4-0.9,3.8-0.8c0.2,0,0.2,0,0.3,0.1c1.2,1.5,3.2,1,4.6,1.8
			c0.1,0.1,0.5,0.1,0.8,0.1c0-0.2,0-0.2,0.1-0.3C93.8,145.4,92.9,144.5,92.4,144.1z M133.6,125c-0.7-1.1-1-2.3-2.2-3
			c-0.6-0.4-0.6-1.1-0.3-1.6c0.4-0.7,0.9-1,1.6-0.7c0.8,0.3,1.5,0.7,2,1.2c0.6,0.6,1.2,1.1,2,1.1c0.3,0,0.4,0.2,0.7,0.3
			c0.5,0.3,0.9,0.5,1.4,0.8c0.5-0.8,0-1.2-0.3-1.6c-0.6-0.5-1.1-1.1-1.5-1.6c-0.2-0.5-0.6-1-0.1-1.4c0.6-0.3,1.3-0.4,1.8-0.3
			s0.9,0.5,1.4,0.8c0-0.4,0.2-0.8,0.1-1.2c-0.1-0.8,0.2-1.5,0.7-2c0.2-0.1,0.3-0.6,0.3-0.9c0-0.5,0-1.2,0-2c-0.5-0.5-1.2-1.2-1.9-2
			c-0.1-0.2-0.4-0.2-0.5-0.3c-0.8-0.3-1.8-0.7-2.7-0.8c-1.2-0.2-2.3-0.4-3.5-0.5h-0.1c-1.7-0.8-2.9,0.4-4.1,0.8
			c-0.7,0.2-1.2,0.9-1.6,1.4c-1.1,1.4-2,2.7-2.3,4.5c0,0.4-0.2,1.1-0.3,1.6c-0.3,0.9,0.5,1.5,0.8,2.3c0.4,1.2,1.1,2.1,1.6,3.2
			c0.6,0.8,1.1,1.5,2.2,1.6c0.7,0.1,1.4,0.5,1.9,0.8c1,0.5,2,1.2,3.2,1.9C134.1,126.7,134.3,125.9,133.6,125z M142.8,105.9
			c-0.2,0-0.2,0-0.3-0.1c-1.1,0.5-1.9,1.1-3.1,1.9c0.8,0.6,1.6,1.3,2.4,2C142.1,108.4,142.5,107.1,142.8,105.9z"/>
		<path class="st0" d="M91,73c0.9,0.5,1.9,1,2.8,1.4c1.9,0.7,3.7,1.4,5.3,2.6c0.9,0.7,2.2,0.9,3.1,1.6c1.4,0.9,2.5,2,3.7,3.1
			c1,1,2.1,2.1,3,3c0.4,0.5,0.9,0.9,1.2,1.4c0.7,1.1,1.2,2.2,1.9,3.1c0.1,0.2,0.5,0.4,0.8,0.5c0.4,0,0.4,0.4,0.5,0.8
			c0.2,0.7,0.4,1.1,0.7,1.6c0.1,0.4,0.4,0.6,0.5,0.9c0.3,0.6,0.7,1,1.1,1.5c0.4,0.4,1.1,0.7,1.2,1.2c0.3,1.4,1.1,2.2,1.9,3
			c1.1,1.1,2.3,2,3.1,3.4c0.2,0.2,0.4,0.4,0.7,0.5c0.4,0.3,0.9,0.5,1.2,0.8c0.9,0.8,1.8,1.4,2.7,2.2c0.2,0.3,0.4,0.4,0.7,0.7
			c-0.3,0.3-0.5,0.7-0.8,0.8c-1.2,0.8-2.7,1.2-3,2.8c0,0,0,0.1-0.1,0.1c-1.1,0.4-1.1,1.4-1.4,2.3c-0.1,0.6-0.7,1.1-1.2,1.4
			c-0.5,0.4-1.4,0.6-1.9,0.9c-1,0.6-2.1,1.3-3,2c-0.5,0.2-1,0.2-1.4,0.5c-1.2,0.7-2.3,1.4-3.5,1.9c-0.6,0.4-0.9,0.3-0.9-0.5
			c0-0.4,0-0.8-0.1-1.2c-0.1-1.1-0.4-2-0.5-3.1c-0.2-1-0.2-2.1-0.5-3.2c-0.1-1.5-0.6-2.9-0.9-4.3c-0.1-0.5,0-1.1-0.1-1.6
			c-0.5-2-1.5-3.9-1.4-5.9c0-0.2-0.1-0.2-0.1-0.3c-0.5-1.5-1-3.1-1.4-4.6c-0.2-0.6-0.9-1-1.4-0.9s-0.9,0.8-0.8,1.5
			c0.3,1.1,0.7,2.2,0.8,3.4c0.1,0.7,0,1.4,0.1,1.9c0.4,1.4,1.1,2.3,0.7,3.7c0,0,0,0,0,0.1c0.3,0.9,0.5,1.9,0.8,2.8
			c0.2,0.6,0.5,1.3,0.5,2c0,2.2,0.4,4.4,0.9,6.4c0.2,0.6,0.2,1.3,0.3,2c0.2,0.8,0.6,1.6,0.7,2.4c0.2,0.5,0.2,1.1,0.1,1.6
			c0,0.3-0.2,0.6-0.5,0.7c-1.4,0.6-2.8,1.3-4.2,2c-0.3,0.1-0.6,0.2-0.7,0.5c-0.5,1.1-1.5,1.3-2.4,1.6c-0.8,0.3-1.6,0.5-2.4,0.8
			c-0.4,0.3-0.8,0.5-1.2,0.8c-0.5,0.2-1.1,0.6-1.6,0.9s-1,0.7-1.4,0.7c-1.5,0-2.8-0.2-4.2-0.3c-1,0-1.8,0-2.6,0.1
			c-0.5,0.1-1.1,0.3-1.6,0.4c0.3-1.7-0.1-2.3-1.6-2.4c-0.3,0-0.5,0-0.8-0.1c-1.5-0.8-3.1-0.4-4.7-0.5c-1.1,0-2.5,0.3-3.7,0.4
			s-2.3,0.2-3.5,0.5c-0.8,0.2-1.7,0.8-2.6,0.5c-0.3,0-0.5,0.2-0.8,0.3c-0.3,0.1-0.8,0.3-1.1,0.4c-1.4,0.4-2.7,0.6-4.1,0.9
			c-0.4,0.2-0.8,0.4-1.2,0.7c-0.6,0.4-0.8,1.1-0.5,1.8c0.2,0.7,0.6,1.2,1.4,1.1c1.3-0.1,2.5-0.5,3.9-0.8c1.5-0.5,2.8-1.1,4.2-1.4
			c1.5-0.4,3-0.7,4.5-0.8c1.6-0.1,3.1-0.3,4.7-0.4c0.6,0,1.3,0,2,0.1c0.1,0.2,0.1,0.2,0.1,0.3c-1.5,0.2-2.5,1.3-3.4,2.2
			c-0.1,0.2-0.3,0.3-0.4,0.3c-1.4,0.4-1.8,1.5-2.2,2.7c-0.2,0.4-0.4,0.9-0.7,1.2c-1,1-1.3,2.2-1.4,3.4c-0.1,0.6-0.4,1.2-0.8,1.5
			c-0.8,0.5-1.6,1.5-2.8,1.4c-0.1,0-0.3,0-0.4,0.1c-0.8,0.6-1.8,1.3-2.7,1.8c-1.4,0.8-2.5,1.7-4.1,2c-0.3,0.1-0.4,0.3-0.7,0.4
			c-0.5,0.3-0.9,0.5-1.4,0.8c-1,0.5-2.3,0.9-3.2,1.6c-1.1,0.8-2.1,1.6-3.5,2c-0.6,0.3-1.2,0.8-2,1.2c0-1.4-0.5-1.8-1.6-1.9
			c-1.4-0.1-2.7-0.3-4.1-0.4c-0.4,0-0.9,0.2-1.2-0.1c-0.8-0.7-1.9-0.8-2.8-1.6c-1.2-1-2.2-2.2-3.1-3.4c-0.4-0.5-0.6-1.1-0.9-1.6
			c-0.7-1.1-1.1-2.3-1.6-3.5c-0.1-0.2-0.4-0.6-0.4-0.9c0-0.7-0.3-1.2-0.8-1.6c-0.6-0.5-0.6-0.9-0.3-1.4c0.2-0.1,0.4-0.6,0.3-0.9
			c-0.4-1.4-0.5-2.8-0.4-4.2c0-0.1-0.1-0.3-0.1-0.4c0-0.6-0.1-1.3-0.1-2c0-1.2,0.2-2.3,0.3-3.5c0.1-1.4,0-2.7,0.5-4.1
			c0.2-0.7,0-1.4,0.1-2.2c0-0.3,0-0.5,0.1-0.8c0.3-1.1,0.9-2.2,0.4-3.4c0-0.1,0-0.4,0.1-0.5c0.8-1.1,0.6-2.6,0.9-3.8
			c0.2-0.5,0.2-1.2,0.5-1.6c0.7-1.1,0.6-2.3,1.4-3.1c0,0,0,0,0-0.1c-0.1-1,0.5-1.5,0.8-2.2c0.2-0.7,0.2-1.8,0.5-2.6s1.2-1.5,1.5-2.3
			c0.5-1.1,0.7-2.1,1.4-3c0.4-0.7,0.8-1.4,1.2-1.9c0.3-0.4,0.8-0.8,1.1-1.2c0.3-0.3,0.7-0.7,0.8-1.1c0.4-1.5,1.9-2,2-3.5
			c0,0,0.1,0,0.1-0.1c0.5-0.6,1-1.3,1.4-1.8c0.2-0.2,0.4-0.4,0.5-0.7c1-0.9,1.8-1.9,2.6-2.8c0.6-1,1.6-1.8,2.4-2.6
			c1-0.8,2.3-1.2,2.6-2.6c2.3-0.3,3.3-2.1,4.7-3c1,0.5,1.8,1.1,2.6,1.6c0.6,0.3,1,0.5,1.5,0.8c0.8,0.5,1.7,1.1,2.6,1.4
			c1.5,0.4,3,0.7,4.5,1.1c0.7,0.2,1.2,0.2,1.9-0.1c0.3-0.1,0.5,0,0.8,0c0.8,0.1,1.9,0.3,2.6,0c1.2-0.7,2.3-1,3.5-1.6
			s2.6-1.2,3.4-2.6c0.1-0.2,0.3-0.3,0.4-0.3c0.9-0.1,1.7-0.8,2-2C89,72.9,90.2,73.3,91,73z"/>
		<path class="st1" d="M202,66.2c-0.4,1.1-0.9,2.2-1.2,3.4c-0.4,0.9-0.4,2.1-0.5,3.2c0,0.3-0.2,0.5-0.3,0.8c-0.4,1.1-1,2.3-0.9,3.7
			c0,0.6,0,1.4-0.3,1.8c-1,1.5-0.6,3.1-0.9,4.6c-0.2,1.1-0.4,2.1-0.7,3c-0.4,1.1-1,2.2-0.7,3.4c0,0.2-0.1,0.4-0.1,0.5
			c-0.1,0.5-0.4,1.1-0.4,1.6c-0.1,1.5-1.1,2.8-0.4,4.3c0,0.2-0.1,0.2-0.1,0.3c-0.4,1.7-0.9,3.3-1.2,5.1c-0.4,2-0.8,4.2-1.1,6.2
			c-0.1,0.4-0.1,0.6,0,0.9c0.4,0.8,0.2,1.6-0.1,2.4c0,0.3,0,0.5-0.1,0.8c-0.1,1.1-0.4,2-0.5,3.1c-0.1,0.6-0.3,1.3-0.4,2
			c-0.1,1.4,0,2.9-0.8,4.1c-0.2,0.3-0.1,0.8-0.1,1.2c0,0.2,0,0.6-0.1,0.9c-0.5,1-0.7,1.7-0.4,2.6c0,0.1,0,0.4-0.1,0.5
			c-0.9,1.9-1.3,3.8-1.4,5.8c0,0.8,0.2,1.7-0.1,2.2c-0.6,0.9-1.2,1.9-2.6,2c-0.2,0-0.4,0.2-0.5,0.3c-1.1,1-2.2,1.8-3.7,1.9
			c-0.2,0.2-0.4,0.2-0.5,0.3c-0.5,0.3-1.1,0.8-1.6,1.1c-0.8,0.4-1.6,0.5-2.4,0.9c-1.1,0.6-2.5,1-3,1.8c-0.8,1.3-2.1,1.4-3.2,1.8
			c-1.2,0.4-2.4,0.7-3.2,1.6c-0.5,0.5-1.1,0.8-1.9,0.9c-0.8,0.2-1.5,0.7-2.3,1.1c-0.8,0.5-1.5,1.1-2.3,1.4c-1.5,0.7-2.9,1.4-4.1,2.3
			c-0.7,0.5-1.4,1-1.9,1.4c-0.5,0.4-0.9,0.5-1.4,0.8c-0.9,0.5-1.6,1.5-2.8,1.4c-0.1,0-0.4,0.2-0.5,0.3c-0.8,1-1.4,1.9-2.8,1.9
			c0,0,0,0.1-0.1,0.1c-0.6,0.3-1.3,0.8-2,1.1c-1.3,0.8-2.5,1.5-3.9,2.2c-1.3,0.7-2.2,1.8-3.7,1.9c-0.1,0-0.4,0.2-0.5,0.3
			c-0.5,1.2-1.8,1.3-2.7,1.6c-0.3,0-0.5,0.4-0.8,0.5c0,0-0.1-0.2-0.1-0.3c0.2-1,0.3-1.8,0.7-2.6c0.7-1.1,0.7-2.5,0.8-3.7
			c0-0.8,0.4-1.5,0.5-2.3c0.1-0.4,0.2-0.9,0.1-1.2c-0.1-0.8-0.1-1.3,0.4-2c0.3-0.3,0.2-0.8,0.3-1.2c0-0.5,0-1.1,0.1-1.6
			c0.1-0.8,0.4-1.8,0.5-2.6c0.3-1.2,0.4-2.4,0.8-3.5c0.7-1.5,0.7-3.3,0.8-4.9c0-0.8,0-1.6,0.5-2.4c0.5-1,0.8-2.1,0-3
			c-0.1-0.1-0.2-0.4-0.1-0.5c0.9-1.5,0.9-3.3,1.2-4.9c0.1-0.6-0.1-1,0-1.5c0.2-1.2,0.6-2.6,0.9-3.8c0.4-1.5,0.5-2.8,0.8-4.2
			c0-0.7,0.6-1.4,0.5-1.9c-0.3-1.2,0-2.2,0.4-3.4c0.5-1.5,0.6-3.3,0.9-4.9c0-0.3,0-0.4,0-0.7c0-0.4,0-0.9,0.1-1.2
			c0.9-1.5,0.3-3.5,1.4-4.9c0.1,0,0.1-0.2,0.1-0.3c0.2-1.3,0.2-2.9,0.7-4.3c0.2-0.7,0-1.4,0.1-1.9c0.2-0.7,0.3-1.3,0.3-1.9
			s0.1-1,0.9-0.9c0.9,0,1.8-0.2,2.3-0.9c0.2-0.1,0.4-0.3,0.5-0.4c1.2-0.5,2.3-0.9,3.5-1.4c0.2-0.1,0.6-0.4,0.9-0.5
			c0.5-0.3,1-0.5,1.4-0.8c0.7-0.4,1.4-0.8,1.9-1.2c0.2-0.1,0.4-0.3,0.7-0.4c1.5-0.2,3.2-0.6,4.1-2c0.1-0.2,0.3-0.2,0.4-0.3
			c1-0.6,2.1-0.9,3-1.4c0.5-0.2,0.9-0.6,1.4-0.9c1.3-0.7,2.5-1.1,3.7-1.6c1.4-0.8,2.6-1.6,4.1-2c1.4-0.4,2.5-1.3,3.7-1.8
			c1.1-0.5,2.3-1.1,3.4-1.6c0.9-0.6,1.8-1.1,2.7-1.4c0.6-0.1,1.2-0.8,2-0.9c0.4-0.1,0.6-0.5,0.9-0.8c0.1,0,0.4-0.3,0.5-0.3
			c1.8,0.3,3-1.1,4.5-1.6c1.1-0.4,2.2-1.1,3.1-1.6c0.8-0.4,1.6-0.8,2.4-1.2s1.6-1.1,2.4-1.6c0.2,0,0.5-0.2,0.9-0.3
			C202.5,66.5,202.4,66.7,202,66.2z"/>
		<path class="st1" d="M101.9,28.7c-0.2-0.3-0.2-0.5-0.3-0.8c-0.2-0.9-0.2-1.9-0.5-2.8c-0.1-0.6-0.6-1-0.9-1.4c0,0-0.2-0.2-0.3-0.3
			c-0.4-0.8-0.8-1.8-1.2-2.7c-0.3-0.6-0.7-0.9-1.2-0.9c-0.4,0.1-0.9,0.2-0.9,0.5c-0.2,0.6,0,1,0.1,1.5c0.1,0.3,0.3,0.5,0.4,0.8
			c0.4,1.3,0.9,2.3,0.9,3.7c0,0.1,0.2,0.4,0.3,0.5c0.3,0.7,0.8,1.2,1.1,1.9c0,0.3,0,0.5-0.1,0.8c-0.2,0.5-0.5,0.9-0.5,1.4
			s-0.3,0.7-0.7,0.8c-1,0.2-2.1,0.4-3,0.5c-1.1,0.3-2.5,0.4-3.7,0.8c-1.8,0.6-2.4,0.2-2.3-1.6c0-0.1,0-0.3,0-0.4
			c-0.6-2.6-1.2-5.3-3.2-7.3c-0.3-0.3-0.8-0.5-1.1-0.4c-0.3,0-0.4,0.6-0.4,0.9c0,1.4-0.3,2.6,0.5,3.7c0.1,0,0.1,0.2,0.1,0.3
			c0.6,1.4,1,2.8,1.5,4.2c0.2,0.8,0.2,1.3-0.3,2c-0.7,0.8-1.8,0.5-2.6,0.9c-0.5,0.3-1.1,0.5-1.6,0.8c-0.3,0.2-0.5,0.3-0.8,0.3
			c-0.9,0-1.3,0.3-1.8,0.8c-0.1,0.2-0.2,0.4-0.5,0.5c-0.8,0.3-1.6,0.5-2.4,0.8c-0.7,0.1-1.4,0.5-1.9,0.9c-1.6,1.4-2.2,3.4-2.7,5.3
			c-0.2,1.1-0.4,2.5-0.5,3.7c-0.2,0-0.6-0.2-0.9-0.3c-0.6-0.1-1.3-0.4-1.8-0.5c-0.8-0.2-1.8-0.3-2.6-0.3c-1.2,0-2.6,0-3.5,0.9
			c-0.3,0.3-0.8,0.5-1.2,0.8c-1.5,0.7-1.9,2.5-2.7,3.7c-0.1,0.1-0.1,0.4-0.1,0.5c-0.1,1.9,0.5,3.5,1.4,5c0.8,1.2,1.7,2.5,3.1,3.2
			c0.8,0.4,0.9,1.5,0.1,1.9c-1.2,0.5-1.6,1.6-1.9,2.7c-0.1,0.6-0.5,0.8-0.9,0.7c-0.5-0.1-1.1-0.5-1.6-0.8c-0.4-0.3-0.8-0.6-1.2-0.7
			c-1-0.5-2.1-0.5-2.6-1.4c-0.2-0.3-0.4-0.3-0.7-0.4c-0.8-0.4-1.6-0.8-2.4-1.2c-1.3-0.8-2.5-1.5-3.9-2.3c-0.1-0.1-0.3-0.3-0.4-0.4
			c-0.8-1.2-1.8-2.3-2.7-3.4c-0.7-0.8-1.5-1.5-2.3-2.3c-0.2-0.1-0.2-0.3-0.3-0.4c-0.5-1-1-2.1-1.4-3c-0.3-0.6-0.4-1.1-0.8-1.5
			c-0.6-0.7-0.9-1.5-0.9-2.3c0-1.2,0.4-2.6,0.5-3.8c0.3-1.4,0.9-2.5,1.4-3.7c0.2-0.3,0.4-0.4,0.5-0.7c0.3-0.2,0.6-0.6,0.7-0.9
			c0.4-1.4,1.3-2.5,2.7-3c0.4-0.1,0.9-0.5,1.2-0.8c0.7-0.6,0.7-1.5,0-2c-0.1-0.2-0.4-0.4-0.4-0.5c-0.4-1.8-0.6-3.5-0.9-5.3
			c0-0.6,0.2-1,0.1-1.5c-0.1-1.5,0.4-2.8,1.1-4.2c0.6-0.8,1.4-1.8,1.8-2.7c0.9-1.9,2.6-2.8,4.1-4.2c1.1-1.1,2.7-1.6,4.1-1.9
			c1.7-0.4,2.9-1.8,4.7-1.8c0.1,0,0.3,0,0.4-0.1c1.4-1,3.4-0.8,4.5-2.2c0-0.1,0.2-0.1,0.3-0.1c1.9-0.5,3.9-1,5.8-1.4
			c0.3-0.1,0.5-0.3,0.8-0.4c0.2-0.2,0.4-0.3,0.5-0.3C74,4.9,75,4.9,75.9,4.8c0.7-0.2,1.1-0.4,1.6-0.3c1.1,0.1,2.2,0.1,3.4-0.3
			c0.5-0.2,1.4,0,1.9-0.1c1.1-0.3,2.1-0.1,3,0c1.7,0.1,3.3,0,4.9,0.5c0.8,0.2,1.9,0,2.7,0.3c0.9,0.3,2,0.9,2.8,1.4
			c1.5,0.9,2.9,2,4.1,3.1c0.4,0.3,0.6,0.9,0.9,1.4c0.2,0.6,0.6,1,0.9,1.5c0.2,0.2,0.4,0.2,0.5,0.5c0.5,1.4,1.8,2.3,1.9,3.7
			c0,0.1,0.2,0.3,0.3,0.4c0.2,0.7,0.6,1.2,0.9,1.9c0.7,1.4,1.4,2.8,1.9,4.2c0.1,0,0.1,0.2,0.1,0.3c-0.1,1.5,0.4,2.9,0.7,4.3
			c0,0.3,0.2,0.6,0.3,0.7c0.8,0.6,0.5,1.3,0.1,2c-2.2,0-4.4,0-6.4,0C102.8,29.5,102.8,28.8,101.9,28.7z"/>
		<path class="st1" d="M12.3,174.7c-0.1-0.8-0.4-1.4-0.5-2.2c-0.3-1.3-0.5-2.9-0.8-4.3c-0.1-0.9-0.4-1.8-0.5-2.7
			c0-0.3-0.1-0.4-0.1-0.7c-0.3-2.1-1.1-4.3-1.5-6.6c-0.3-2.2-1-4.2-1.5-6.4c0-0.3-0.1-0.4-0.1-0.7c-0.1-1.2,0.1-2.7-0.4-3.8
			c-0.7-1.6-0.1-3.1-0.4-4.7c-0.2-1.6-0.1-3.3-0.1-5.1c0-0.8-0.1-1.8-0.1-2.7c0-1.4-0.2-2.7,0.5-4.1c0.1-0.3,0-0.6,0-0.8
			s-0.1-0.4,0-0.5c0.5-1.6,0.9-3.4,1.4-5c0.3-0.8,0.4-1.6,0.8-2.3c0.4-0.9,1.1-1.8,2-2.3c0.2-0.2,0.4-0.6,0.5-0.7
			c1-1,1.7-1.8,2.6-2.6c0.6-0.5,1.7-0.7,2-1.4c0.7-1.1,1.8-1.3,2.6-2c1.2-0.9,2.8-1.8,4.2-2.7c1.5-0.9,3-1.9,4.5-2.8
			c0.8-0.4,1.6-0.4,2.4-0.9c1.7-1.1,3.9-1.3,5.5-2.7c0-0.1,0.2-0.1,0.3-0.1c-0.7,0.8-1.1,1.7-0.8,2.8c0,0-0.1,0-0.1,0.1
			c-0.1,0.5-0.3,1.1-0.4,1.6c-0.2,0.4-0.2,0.9-0.3,1.2c-0.7,1.5-1.3,3-1.2,4.6c0,0.2-0.2,0.4-0.3,0.5c-0.3,0.5-0.6,1.2-0.7,1.9
			c0,0.8,0,1.5-0.1,2.3c-0.1,0.8-0.3,1.7-0.4,2.6c-0.1,0.7,0,1.4-0.1,1.9c-0.5,2-0.7,4.2-0.4,6.2c0.2,0.5-0.1,1.1-0.1,1.6
			c-0.1,0.6-0.2,1-0.1,1.5c0.1,1.1,0.1,2,0.4,3.1c0.1,0.6,0.4,1.2,0.8,1.5c0.5,0.6,0.5,1,0.4,1.5s-0.2,1-0.1,1.4
			c0.2,0.8,0.6,1.4,0.7,2.2c0.3,2,1.8,3.3,2.6,5.1c0.3,0.5,0.7,1.1,1.1,1.6c1,0.9,2.1,1.9,3,2.8c0.2,0.1,0.6,0.3,0.9,0.4
			c0.2,0,0.4,0,0.5,0.1c1.1,1.5,2.7,1.2,4.1,1.9c1.2,0.6,2.4,0.6,3.5,0.3c-0.8,0.6-1.8,1.3-2.6,2c-0.1,0.1-0.3,0.1-0.4,0.1
			c-1.5,0-2.2,1.4-3.4,1.9c0,0-0.1,0-0.1,0.1c-0.2,0.8-0.8,0.8-1.6,0.9c-1.5,0.2-3,0.9-4.2,2c-0.5,0.5-1.2,1.1-1.9,1.2
			c-1.6,0.1-2.7,1.4-4.2,1.9c-0.2,0-0.2,0.4-0.5,0.5c-0.2,0.3-0.6,0.6-0.9,0.7c-1.2,0.6-2.6,0.8-3.4,2c-0.1,0.2-0.6,0.4-0.9,0.5
			c-0.7,0.2-1.5,0.1-1.9,0.5c-0.9,0.8-2,1.5-3.2,1.9c-1.4,0.5-2.6,1.2-3.8,1.9c-0.4,0.3-0.9,0.5-1.2,0.8c-0.4,0.3-0.8,0.8-1.2,1.1
			C13.1,174.6,13,174.6,12.3,174.7z"/>
		<path class="st1" d="M136.2,124.3c0.6,0.3,1.3,0.7,1.8,1.1c0.2,0.1,0.4,0.6,0.3,0.9c-0.6,2.1-1,4.2-0.7,6.2c0.2,0.3,0,0.6-0.1,0.7
			c-0.9,0.7-1.1,1.8-0.8,2.7c0.3,1.1-0.1,1.8-0.4,2.7c-0.2,1.3-0.6,2.5-0.9,3.7c-0.2,1.1-0.2,2.5-0.5,3.7c-0.4,1.8-1.1,3.6-1.2,5.5
			c0,1.2-0.4,2.6-0.4,3.8c0.1,1.8-0.4,3.3-0.7,4.9c0,0.7,0,1.4-0.3,1.9c-0.3,0.7-0.4,1.2-0.3,1.9c0.1,0.4-0.2,0.9-0.3,0.9
			c-1,0-1.8-0.2-2.6-0.3c-0.7,0-1.4-0.4-1.9-0.5c-0.5-0.2-1-0.2-1.4-0.3c-1.6-0.6-3.4-1.3-5-1.8c-1.2-0.4-2.6-0.7-3.8-1.1
			c-1.6-0.4-3.1-1.2-4.7-0.9c0,0-0.2,0-0.3-0.1c-0.6-0.2-1.3-0.6-1.8-0.7c-0.7-0.1-1.4-0.3-1.9-0.4c-1.9-0.6-3.7-1.7-5.7-1.4
			c-0.1,0-0.3,0-0.4-0.1c-1-0.3-1.8-0.5-2.6-0.8c-1.2-0.3-2.3-0.5-3.5-0.8c-0.6-0.2-1.3-0.2-2-0.3c-0.1,0-0.4,0-0.5-0.1
			c-1.2-0.7-2.4-1.3-3.8-1.2c-0.2,0-0.2-0.1-0.3-0.1c-0.6-0.3-1.2-0.7-2-0.8c-0.5-0.1-1.1,0-1.6-0.1c-1.9-0.5-3.9-1.1-5.8-1.6
			c-1.3-0.3-2.5-0.4-3.7-0.8c-1.1-0.4-2-0.4-3.1-0.9c-1.5-0.7-3.1-0.8-4.7-1.2c-1.1-0.4-2.2,0-3.1-0.9c1.4-0.6,2.7-1.3,4.1-2
			c0.7-0.3,1.1-0.7,1.6-1.2c0.4-0.4,1.5-0.6,2-0.5c1.2,0.3,2.2,1.4,3.1,2.3c1.3,1.4,2.9,2,4.7,2.3c1.3,0.2,2.5-0.2,3.7-0.5
			c0.6-0.1,1.5-0.2,2-0.5c1.2-0.5,2.1-0.5,3,0.4c0.3,0.2,0.8,0.4,1.2,0.5c0.7,0.2,1.5,0.2,2.2,0.5c1.3,0.6,2.5,0.6,3.7,0.1
			c0.1,0,0.4-0.1,0.5-0.1c2.3,0.5,3.7-1.3,5.3-2.2c0.3-0.3,0.3-0.5,0.4-0.8c0.5-0.7,0.9-1.4,1.4-1.9c0.8-0.6,1.3-1.9,0.9-2.8
			c-0.6-1.1-1.5-2-2-3.1c-0.6-1.2-1.4-2.3-2.2-3.4c-0.7-0.9-1.4-2-2.6-2.7c-0.5-0.4-1.1-0.8-1.6-1.2c0.4-0.2,0.6-0.4,0.7-0.5
			c1.4-0.6,2.3-1.8,3.4-2.6c0.6-0.5,1.2-0.9,2-0.8c0.3,0.2,0.5,0,0.8-0.1c1.3-0.7,2.5-1.4,3.7-2.2c0.9-0.7,1.8-1.1,2.7-1.6
			c1.1-0.5,2.1-0.9,3-1.4c0.7-0.2,1.1-0.6,1.6-0.9c0.8-0.5,1.5-1.2,2.3-1.6c1.3-0.6,2.5-1,3.7-1.5c0.2,0,0.4,0,0.3,0
			c0.6,1.6,1,3.2,1.5,4.7c0.1,0.2,0.4,0.4,0.5,0.5c0.1,0.1,0.4,0.3,0.5,0.4c0.7,1.4,1.6,2.3,3,3c1.5,0.8,2.8,1.9,4.3,2.7
			c0.9,0.5,2.2,0.7,3.1,0.8c0.3,0.1,0.5-0.2,0.8-0.3c0.2,0,0.4-0.2,0.5-0.3c1.5-0.4,2.1-1.7,1.4-3.1c-0.2-0.4-0.4-0.7-0.7-1.2
			C136.3,125.1,136.6,125.1,136.2,124.3z"/>
		<path class="st1" d="M73.7,49.6c0.1,0,0.3,0,0.4-0.1c0.3-0.4,0.7-0.6,0.8-0.9c0.2-0.6,0.4-1.2,0.5-2c0.3-1,0.5-2.1,0.8-3.2
			c0.2-1,0.8-1.8,2-1.9c0.4,0,0.6-0.3,0.9-0.4c1.1-0.6,1.9-1.5,3.1-1.8c0.9-0.3,1.9-0.9,2.8-1.2c1-0.4,1.8-1.3,3.2-1.2
			c0.3,0,0.4-0.2,0.7-0.3c1.2-0.4,2.6-0.9,3.8-1.2c0.9-0.2,1.9-0.4,2.8-0.5c1-0.2,2.1-0.7,3.2-0.7c1.7,0,3.3-0.9,5.1-0.5
			c0.2,0,0.4-0.1,0.5-0.1c0.8,0,1.4-0.1,2.2-0.1c0.1,0,0.4,0.2,0.5,0.5c0.4,1.4,0.8,2.7,1.2,4.1c0,0.4,0.2,0.8,0.3,1.2
			c0.3,0.8,0.4,1.4,0.7,2.2c0,0.3,0.2,0.8,0.3,1.1c0.6,2.2,1,4.2,1.5,6.4c0.1,0.1,0,0.4,0,0.5c0,0.5,0,1-0.1,1.4
			c-0.2,1,0.1,1.9-0.3,2.6c-1,1.5-1.6,3.3-3,4.5c-0.7,0.7-1.8,0.9-2.6,1.6c-0.5,0.3-1,0.5-1.4,0.8c-0.9,0.8-1.7,1.9-3.2,1.9
			c-0.4,0-0.8,0.2-1.2,0.5c-0.6,0.4-1.2,0.8-2,0.5c-0.4,0-0.8,0.2-1.2,0.3c-0.6,0.3-1.3,0.7-2,0.8c-2.3,0.4-4.6,0.8-6.9,1.2
			c-1.1,0.3-1.6,0.8-1.6,1.9c0,0.5,0,1-0.1,1.4c-0.3,0.9-0.5,1.8-0.8,2.7c-0.2,0.2-0.2,0.6-0.3,0.7c-1.1,1-2.3,2.1-3.4,3
			c-0.5,0.2-0.9,0.6-1.4,0.9c-0.3,0.2-0.5,0.3-0.8,0.3c-0.6,0.1-1.3,0-2,0.1c-1,0.2-1.7,0.8-2.6,0.1c-0.2,0-0.2,0-0.3,0
			c-0.8-0.2-1.8-0.2-2.6-0.3c-0.4-0.1-0.8-0.4-1.2-0.5c-0.7-0.4-1.5-1-2.3-1.1c-1.1-0.1-1.6-0.7-2.3-1.2c-0.3-0.1-0.3-0.6-0.4-0.9
			c-0.3-1.8,0.3-3.5-1.2-4.9c0.4-0.6,0.9-1,1.2-1.5c0.4-0.6,0.4-1.3,0.7-1.8c0.2-0.2,0.2-0.2,0.3-0.3c1.4-0.8,1.5-2,1.4-3.4
			c0-0.9-0.4-1.5-1.2-1.8c-0.3-0.1-0.5-0.4-0.8-0.5c-0.6-0.6-1.2-1.3-2-1.8c-0.8-0.5-1-1.4-0.9-2.3c0.1-1,0.1-1.8,0.4-2.6
			c0.3-0.8,0.9-1.8,1.4-1.9c1.5-0.4,3.3-1.2,4.9-0.1c0.2,0.2,0.6,0,0.9,0.1c0.6,0.2,1.5,0.2,2,1.1C72.5,50.4,73,49.9,73.7,49.6z
			 M97.2,57.7c1.4,0,2.5-0.1,3.4-1.2c0,0,0-0.1,0.1-0.1c1.6-0.4,1.6-1.8,1.9-3c0.3-0.9,0.3-1.5-0.5-1.8c-0.7-0.4-1.1,0-1.6,0.8
			c-0.8,1.5-2.2,2.2-3.8,2.3c-0.7,0-1.5-0.5-2.2-0.8c-1-0.5-1.8-0.5-2.2,0.3c-0.4,0.8-0.1,1.5,0.8,2c0.6,0.4,1.3,0.8,2,1.2
			c0-0.2,0.1-0.2,0.1-0.3C95.9,57.2,96.5,57.3,97.2,57.7z M84.1,54.8c0.8,1.9,3.3,2.3,4.9,1.1c0.3-0.3,0.7-0.5,0.8-0.8
			c0.3-0.4,0.5-1,0.4-1.5c-0.2-1.2-2.2-2.8-3.4-2.8C85.2,50.8,83.4,53.4,84.1,54.8z M108.1,49.7c0.8-1.5,0.3-3.7-1.6-4.1
			c-0.7-0.1-1.7,0.3-2.2,0.7c-1.4,0.9-1.6,2.5-0.5,3.9c0.3,0.1,0.5,0.3,0.8,0.4c0.6,0,1.3,0,1.8,0.1
			C107.4,50.6,107.9,50.3,108.1,49.7z M98.6,44.5c-0.8-0.7-1.6-1.1-2.7-0.8c-0.3,0.2-0.7,0.4-0.8,0.7s0.3,0.5,0.4,0.8
			c0.6,0.7,1.1,1.1,0.3,1.9c-0.6,0.6-0.4,1.5,0.1,2c0.6,0.6,1.2,0.7,2,0.3c1.1-0.7,1.9-1.5,1.9-3C99.9,45.7,99.2,45.2,98.6,44.5z
			 M103.5,44.6c1.2,0,2.6-1.1,2.6-2c0-0.9-1.1-2.3-1.9-2.3c-1.1,0-2.3,1-2.3,1.9C101.9,43.4,102.8,44.5,103.5,44.6z M87.1,49.4
			c0.8,0,2-1.1,2-1.9c0-0.9-1.2-2.3-2-2.3c-1.3,0-2.2,1.1-2.2,2.3C84.9,48.5,85.7,49.2,87.1,49.4z"/>
		<path class="st1" d="M94.3,146.2c-0.3,0-0.5,0-0.8-0.1c-1.5-0.9-3.4-0.3-4.6-1.8c0-0.1-0.2-0.1-0.3-0.1c-1.4-0.3-2.6,0-3.8,0.8
			c-0.4,0.2-1.1,0.2-1.6,0.3c-0.3,0-0.5-0.1-0.8-0.1c-1.9-0.1-3.8-0.7-5-2.3c-0.1-0.2-0.3-0.2-0.4-0.3c-0.8-0.2-1-0.8-0.9-1.6
			c0.2-0.2,0.2-0.4,0.3-0.7c0.3-0.8,0.5-1.8,0.8-2.7c0.1-0.4,0.2-0.9,0.5-1.2c0.5-0.5,0.9-1.1,1.4-1.6c0.3-0.3,0.5-0.7,0.8-0.8
			c1.1-0.6,2.3-1.1,3.5-1.4c1-0.2,2.1-0.6,3-0.5c1.6,0.2,3.1-0.1,4.6,0.7c1.1,0.7,2.6,0.8,3.8,1.2c1.2,0.5,2.3,1,3.2,1.9
			c0.6,0.7,1.2,1.1,1.5,1.6c1,1.5,1.8,3.1,2.6,4.6c0.3,0.4,0.5,0.8,0.8,1.2c-0.9,0.6-1.1,0-1.4-0.3c-0.3-0.1-0.5-0.6-0.8-0.9
			c-0.6-0.7-1.3-1.2-1.8-1.9c-0.4-0.5-0.8-0.9-1.6-0.8c-0.7,0.1-1.1,0.2-1.2,0.9c-0.1,0.9,0.3,1.4,0.8,1.8c0.4,0.3,0.8,0.5,0.9,0.8
			c0.4,0.9,1,1.9,1.8,2.7c0.2,0.2,0.2,0.4,0.3,0.5c-0.6,0.4-1.1,0.4-1.4-0.3c-0.2-0.2-0.4-0.4-0.5-0.5c-1.1-0.8-2.2-1.8-3.1-2.6
			c-0.2-0.2-0.2-0.4-0.3-0.5c-0.4-0.7-1.9-1.5-2.7-1.4c-0.5,0-1.1,0.4-0.8,0.9c0.3,0.6,0.7,1.3,1.2,2c0.7,1,1.4,1.8,2.2,2.6
			C94.5,146.3,94.4,146.4,94.3,146.2z"/>
		<path class="st1" d="M130.9,125.7c-0.7-0.4-1.2-0.7-1.9-0.8c-1.3,0-1.8-0.8-2.2-1.6c-0.7-1-1.2-2-1.6-3.2
			c-0.3-0.7-1.1-1.4-0.8-2.3c0.2-0.4,0.2-1.1,0.3-1.6c0.3-1.8,1.2-3.1,2.3-4.5c0.5-0.6,1.1-1.3,1.6-1.4c1.4-0.4,2.6-1.7,4.1-0.8h0.1
			c1.2,0.2,2.3,0.2,3.5,0.5c0.9,0.3,1.8,0.5,2.7,0.8c0.2,0,0.4,0.2,0.5,0.3c0.7,0.6,1.4,1.5,1.9,2c0,0.6,0.1,1.3,0,2
			c0,0.4,0,0.8-0.3,0.9c-0.6,0.5-0.8,1.2-0.7,2c0,0.3,0,0.7-0.1,1.2c-0.6-0.4-1-0.8-1.4-0.8c-0.6,0-1.4,0-1.8,0.3
			c-0.7,0.5-0.2,1,0.1,1.4c0.4,0.7,1,1.1,1.5,1.6c0.4,0.4,0.8,0.8,0.3,1.6c-0.5-0.3-0.9-0.5-1.4-0.8c-0.2-0.2-0.4-0.3-0.7-0.3
			c-0.8,0-1.5-0.6-2-1.1c-0.6-0.4-1.3-0.9-2-1.2c-0.7-0.2-1.3,0.2-1.6,0.7c-0.2,0.7-0.2,1.3,0.3,1.6c1.1,0.7,1.5,2.1,2.2,3
			c0.4,0.8,0.4,1.7,0.1,2.2C132.8,126.6,131.7,125.9,130.9,125.7z"/>
		<path d="M95,57.1c-0.6-0.4-1.3-0.8-2-1.2c-0.9-0.5-1.2-1.2-0.8-2c0.4-0.6,1.3-0.8,2.2-0.3c0.7,0.4,1.5,0.9,2.2,0.8
			c1.5-0.3,3-0.9,3.8-2.3c0.5-0.8,1.1-1.1,1.6-0.8c0.6,0.4,0.6,1,0.5,1.8c-0.3,1.4-0.4,2.7-1.9,3c0,0-0.1,0-0.1,0.1
			c-0.8,1.1-2.2,1.3-3.4,1.2c-0.5,0-1.2-0.2-1.9-0.3C95.2,57.2,95.2,57.3,95,57.1z"/>
		<path class="st0" d="M90.2,53.7c0.1,0.6-0.1,1-0.4,1.5c-0.1,0.4-0.5,0.5-0.8,0.8c-1.7,1.2-4,0.7-4.9-1.1c-0.8-1.5,0.9-4.1,2.7-4.1
			C88.2,51,90.2,52.5,90.2,53.7z"/>
		<path class="st0" d="M104.8,50.4c-0.3-0.1-0.7-0.1-0.8-0.4c-1.1-1.3-0.9-3,0.5-3.9c0.7-0.4,1.5-0.8,2.2-0.7
			c1.7,0.4,2.3,2.5,1.6,4.1c-0.4,0.8-1.1,1.1-1.9,1.2C105.9,50.6,105.3,50.6,104.8,50.4z"/>
		<path d="M97.9,49.4c-0.6,0.5-1.5,0.2-2-0.3s-0.6-1.5-0.1-2c0.6-1,0.2-1.4-0.3-1.9c-0.1-0.3-0.5-0.7-0.4-0.8
			c0.1-0.4,0.5-0.6,0.8-0.7c1.1-0.4,1.9,0.1,2.7,0.8c0.7,0.5,1.3,1.1,1.2,1.9C99.8,47.9,99.1,48.8,97.9,49.4z"/>
		<path d="M104.5,40.3c0.7,0,1.9,1.4,1.9,2.3s-1.5,2-2.6,2s-1.9-1-1.9-2.4C101.8,41.2,103,40.3,104.5,40.3z"/>
		<path d="M86.9,45.1c0.8,0,2,1.4,2,2.3c0,1-1.1,1.9-2,1.9c-1.2,0-2-0.7-2-1.8C84.9,46.1,86,45.2,86.9,45.1z"/>
	</g>
	<text transform="matrix(-1 0 0 1 187.7071 115.1727)" class="st2 st3 st4">novape</text>
</g>
</svg>
