<?xml version="1.0" encoding="utf-8"?>
<!-- Generator: Adobe Illustrator 25.0.0, SVG Export Plug-In . SVG Version: 6.00 Build 0)  -->
<svg version="1.1" xmlns="http://www.w3.org/2000/svg" xmlns:xlink="http://www.w3.org/1999/xlink" x="0px" y="0px"
	 viewBox="0 0 720 56.4" style="enable-background:new 0 0 720 56.4;" xml:space="preserve">
<style type="text/css">
	.st0{fill:#ACE0DC;}
	.st1{fill:#FFFFFF;}
	.st2{fill:#D7D7D7;}
	.st3{fill:#D4D4D4;}
	.st4{fill:#F3EDE7;}
</style>
<g id="圖層_2">
	<g id="圖層_2_1_">
		<rect y="-15.6" class="st0" width="720" height="72"/>
	</g>
</g>
<g id="圖層_5">
</g>
<g id="圖層_1">
	<g id="圖層_1_1_">
	</g>
</g>
<g id="圖層_3_1_">
</g>
<g id="圖層_4">
	<g>
		<g id="圖層_3">
			<g>
				<path class="st1" d="M674.9,54.3H52.7c-24.4,0-44.2-19.8-44.2-44.2v-418.6c0-24.4,19.8-44.2,44.2-44.2H675
					c24.4,0,44.2,19.8,44.2,44.2V10.2C719.1,34.6,699.3,54.3,674.9,54.3z"/>
				<path class="st2" d="M674.9,55.1H52.7c-24.8,0-45-20.2-45-45v-418.6c0-24.8,20.2-45,45-45H675c24.8,0,45,20.2,45,45V10.2
					C719.9,35,699.7,55.1,674.9,55.1z M52.7-451.9c-23.9,0-43.4,19.5-43.4,43.4V10.1c0,23.9,19.5,43.4,43.4,43.4h622.1
					c23.9,0,43.4-19.4,43.5-43.3v-418.7c0-23.9-19.5-43.4-43.4-43.4C674.9-451.9,52.7-451.9,52.7-451.9z"/>
			</g>
			<g>
				<path class="st1" d="M674.3,50.8H45.6C23,50.8,4.7,32.5,4.7,9.9v-425.1c0-22.6,18.3-40.9,40.9-40.9h628.6
					c22.6,0,40.9,18.3,40.9,40.9V9.9C715.3,32.5,696.9,50.8,674.3,50.8z"/>
				<path class="st2" d="M674.3,51.6H45.6c-23,0-41.7-18.7-41.7-41.7v-425.1c0-23,18.7-41.7,41.7-41.7h628.6
					c23,0,41.7,18.7,41.7,41.7V9.9c0,11.1-4.2,21.5-12.1,29.4C696,47.2,685.5,51.6,674.3,51.6z M45.6-455.3
					c-22.1,0-40.1,18-40.1,40.1V9.9C5.5,32,23.5,50,45.6,50h628.6c10.8,0,20.9-4.2,28.5-11.8c7.5-7.6,11.7-17.6,11.6-28.3v-425.1
					c0-22.1-18-40.1-40.1-40.1C674.2-455.3,45.6-455.3,45.6-455.3z"/>
			</g>
			<g>
				<path class="st1" d="M673.2,47.1H39C17.9,47.1,0.8,30,0.8,8.9v-430.6c0-21.1,17.1-38.2,38.2-38.2h634.1
					c21.1,0,38.2,17.1,38.2,38.2V8.8C711.4,30,694.3,47.1,673.2,47.1z"/>
				<path class="st2" d="M673.2,47.9H39c-21.5,0-39-17.5-39-39v-430.6c0-21.5,17.5-39,39-39h634c21.5,0,39,17.5,39,39V8.8
					c0,10.5-4,20.3-11.3,27.7C693.4,43.8,683.6,47.9,673.2,47.9z M39-459.1c-20.6,0-37.4,16.8-37.4,37.4V8.9
					c0,20.6,16.8,37.4,37.4,37.4h634.2c10,0,19.4-3.9,26.5-11c7-7.1,10.9-16.5,10.9-26.5v-430.5c0-20.6-16.8-37.4-37.4-37.4H39z"/>
			</g>
		</g>
		<g id="圖層_2_2_">
			<g>
				<g>
					<ellipse class="st3" cx="60.7" cy="-443.8" rx="8.3" ry="6.5"/>
					<path class="st4" d="M60.8-440.1L60.8-440.1c-2.4,0-4.3-2-4.3-4.3v-24.1c0-2.4,2-4.3,4.3-4.3l0,0c2.4,0,4.3,2,4.3,4.3v24.1
						C65.1-442.1,63.2-440.1,60.8-440.1z"/>
				</g>
				<g>
					<ellipse class="st3" cx="114.5" cy="-443.8" rx="8.3" ry="6.5"/>
					<path class="st4" d="M114.6-440.1L114.6-440.1c-2.4,0-4.3-2-4.3-4.3v-24.1c0-2.4,2-4.3,4.3-4.3l0,0c2.4,0,4.3,2,4.3,4.3v24.1
						C118.9-442.1,117-440.1,114.6-440.1z"/>
				</g>
				<g>
					<ellipse class="st3" cx="170.2" cy="-443.8" rx="8.3" ry="6.5"/>
					<path class="st4" d="M170.3-440.1L170.3-440.1c-2.4,0-4.3-2-4.3-4.3v-24.1c0-2.4,2-4.3,4.3-4.3l0,0c2.4,0,4.3,2,4.3,4.3v24.1
						C174.6-442.1,172.7-440.1,170.3-440.1z"/>
				</g>
				<g>
					<ellipse class="st3" cx="224" cy="-443.8" rx="8.3" ry="6.5"/>
					<path class="st4" d="M224.1-440.1L224.1-440.1c-2.4,0-4.3-2-4.3-4.3v-24.1c0-2.4,2-4.3,4.3-4.3l0,0c2.4,0,4.3,2,4.3,4.3v24.1
						C228.5-442.1,226.5-440.1,224.1-440.1z"/>
				</g>
				<g>
					<ellipse class="st3" cx="276.9" cy="-443.8" rx="8.3" ry="6.5"/>
					<path class="st4" d="M276.9-440.1L276.9-440.1c-2.4,0-4.3-2-4.3-4.3v-24.1c0-2.4,2-4.3,4.3-4.3l0,0c2.4,0,4.3,2,4.3,4.3v24.1
						C281.3-442.1,279.4-440.1,276.9-440.1z"/>
				</g>
				<g>
					<ellipse class="st3" cx="330.7" cy="-443.8" rx="8.3" ry="6.5"/>
					<path class="st4" d="M330.7-440.1L330.7-440.1c-2.4,0-4.3-2-4.3-4.3v-24.1c0-2.4,2-4.3,4.3-4.3l0,0c2.4,0,4.3,2,4.3,4.3v24.1
						C335.1-442.1,333.2-440.1,330.7-440.1z"/>
				</g>
				<g>
					<ellipse class="st3" cx="386.4" cy="-443.8" rx="8.3" ry="6.5"/>
					<path class="st4" d="M386.5-440.1L386.5-440.1c-2.4,0-4.3-2-4.3-4.3v-24.1c0-2.4,2-4.3,4.3-4.3l0,0c2.4,0,4.3,2,4.3,4.3v24.1
						C390.8-442.1,388.8-440.1,386.5-440.1z"/>
				</g>
				<g>
					<ellipse class="st3" cx="440.2" cy="-443.8" rx="8.3" ry="6.5"/>
					<path class="st4" d="M440.3-440.1L440.3-440.1c-2.4,0-4.3-2-4.3-4.3v-24.1c0-2.4,2-4.3,4.3-4.3l0,0c2.4,0,4.3,2,4.3,4.3v24.1
						C444.6-442.1,442.6-440.1,440.3-440.1z"/>
				</g>
				<g>
					<ellipse class="st3" cx="492.7" cy="-443.8" rx="8.3" ry="6.5"/>
					<path class="st4" d="M492.8-440.1L492.8-440.1c-2.4,0-4.3-2-4.3-4.3v-24.1c0-2.4,2-4.3,4.3-4.3l0,0c2.4,0,4.3,2,4.3,4.3v24.1
						C497.1-442.1,495.1-440.1,492.8-440.1z"/>
				</g>
				<g>
					<ellipse class="st3" cx="546.5" cy="-443.8" rx="8.3" ry="6.5"/>
					<path class="st4" d="M546.5-440.1L546.5-440.1c-2.4,0-4.3-2-4.3-4.3v-24.1c0-2.4,2-4.3,4.3-4.3l0,0c2.4,0,4.3,2,4.3,4.3v24.1
						C550.9-442.1,549-440.1,546.5-440.1z"/>
				</g>
				<g>
					<ellipse class="st3" cx="602.2" cy="-443.8" rx="8.3" ry="6.5"/>
					<path class="st4" d="M602.2-440.1L602.2-440.1c-2.4,0-4.3-2-4.3-4.3v-24.1c0-2.4,2-4.3,4.3-4.3l0,0c2.4,0,4.3,2,4.3,4.3v24.1
						C606.6-442.1,604.7-440.1,602.2-440.1z"/>
				</g>
				<g>
					<ellipse class="st3" cx="656.1" cy="-443.8" rx="8.3" ry="6.5"/>
					<path class="st4" d="M656.1-440.1L656.1-440.1c-2.4,0-4.3-2-4.3-4.3v-24.1c0-2.4,2-4.3,4.3-4.3l0,0c2.4,0,4.3,2,4.3,4.3v24.1
						C660.4-442.1,658.5-440.1,656.1-440.1z"/>
				</g>
			</g>
		</g>
	</g>
</g>
</svg>
