<?xml version="1.0" encoding="utf-8"?>
<!-- Generator: Adobe Illustrator 25.0.0, SVG Export Plug-In . SVG Version: 6.00 Build 0)  -->
<svg version="1.1" xmlns="http://www.w3.org/2000/svg" xmlns:xlink="http://www.w3.org/1999/xlink" x="0px" y="0px"
	 viewBox="0 0 1308 72" style="enable-background:new 0 0 1308 72;" xml:space="preserve">
<style type="text/css">
	.st0{fill:#ACE0DC;}
	.st1{fill:#FFFFFF;}
	.st2{fill:#D7D7D7;}
</style>
<g id="喇뒨쏛_2">
	<rect class="st0" width="1308" height="72"/>
</g>
<g id="喇뒨쏛_1">
	<g id="喇뒨쏛_1_1_">
	</g>
	<g id="喇뒨쏛_3">
		<g>
			<path class="st1" d="M1262.9,71.2H52.7C28.3,71.2,8.5,51.4,8.5,27v-418.6c0-24.4,19.8-44.2,44.2-44.2H1263
				c24.4,0,44.2,19.8,44.2,44.2V27.1C1307.1,51.5,1287.3,71.2,1262.9,71.2z"/>
			<path class="st2" d="M1262.9,72H52.7c-24.8,0-45-20.2-45-45v-418.6c0-24.8,20.2-45,45-45H1263c24.8,0,45,20.2,45,45V27.1
				C1307.9,51.8,1287.7,72,1262.9,72z M52.7-435c-23.9,0-43.4,19.5-43.4,43.4V27c0,23.9,19.5,43.4,43.4,43.4h1210.1
				c23.9,0,43.4-19.4,43.5-43.3v-418.7c0-23.9-19.5-43.4-43.4-43.4H52.7z"/>
		</g>
		<g>
			<path class="st1" d="M1262.3,67.7H45.6C23,67.7,4.7,49.4,4.7,26.8v-425.1c0-22.6,18.3-40.9,40.9-40.9h1216.6
				c22.6,0,40.9,18.3,40.9,40.9V26.8C1303.3,49.4,1284.9,67.7,1262.3,67.7z"/>
			<path class="st2" d="M1262.3,68.5H45.6c-23,0-41.7-18.7-41.7-41.7v-425.1c0-23,18.7-41.7,41.7-41.7h1216.6
				c23,0,41.7,18.7,41.7,41.7V26.8c0,11.1-4.2,21.5-12.1,29.4C1284,64.1,1273.5,68.5,1262.3,68.5z M45.6-438.4
				c-22.1,0-40.1,18-40.1,40.1V26.8c0,22.1,18,40.1,40.1,40.1h1216.6c10.8,0,20.9-4.2,28.5-11.8c7.5-7.6,11.7-17.6,11.6-28.3v-425.1
				c0-22.1-18-40.1-40.1-40.1H45.6z"/>
		</g>
		<g>
			<path class="st1" d="M1261.2,64H39C17.9,64,0.8,46.9,0.8,25.8v-430.6C0.8-425.9,17.9-443,39-443h1222.1
				c21.1,0,38.2,17.1,38.2,38.2V25.7C1299.4,46.9,1282.3,64,1261.2,64z"/>
			<path class="st2" d="M1261.2,64.8H39c-21.5,0-39-17.5-39-39v-430.6c0-21.5,17.5-39,39-39h1222c21.5,0,39,17.5,39,39V25.7
				c0,10.5-4,20.3-11.3,27.7C1281.4,60.7,1271.6,64.8,1261.2,64.8z M39-442.2c-20.6,0-37.4,16.8-37.4,37.4V25.8
				c0,20.6,16.8,37.4,37.4,37.4h1222.2c10,0,19.4-3.9,26.5-11c7-7.1,10.9-16.5,10.9-26.5v-430.5c0-20.6-16.8-37.4-37.4-37.4H39z"/>
		</g>
	</g>
</g>
</svg>
