<?xml version="1.0" encoding="utf-8"?>
<!-- Generator: Adobe Illustrator 25.0.0, SVG Export Plug-In . SVG Version: 6.00 Build 0)  -->
<svg version="1.1" id="圖層_1" xmlns="http://www.w3.org/2000/svg" xmlns:xlink="http://www.w3.org/1999/xlink" x="0px" y="0px"
	 viewBox="0 0 720 72" style="enable-background:new 0 0 720 72;" xml:space="preserve">
<style type="text/css">
	.st0{fill:#FFFFFF;}
	.st1{fill:#D7D7D7;}
	.st2{fill:#D4D4D4;}
	.st3{fill:#F3EDE7;}
</style>
<g id="圖層_5">
</g>
<g id="圖層_1_2_">
	<g id="圖層_1_1_">
	</g>
</g>
<g id="圖層_3_1_">
</g>
<g id="圖層_4">
	<g>
		<g id="圖層_3">
			<g>
				<path class="st0" d="M674.9,299.1H52.7c-24.4,0-44.2-19.8-44.2-44.2v-418.6c0-24.4,19.8-44.2,44.2-44.2H675
					c24.4,0,44.2,19.8,44.2,44.2V255C719.1,279.4,699.3,299.1,674.9,299.1z"/>
				<path class="st1" d="M674.9,299.9H52.7c-24.8,0-45-20.2-45-45v-418.6c0-24.8,20.2-45,45-45H675c24.8,0,45,20.2,45,45V255
					C719.9,279.8,699.7,299.9,674.9,299.9z M52.7-207.1c-23.9,0-43.4,19.5-43.4,43.4v418.6c0,23.9,19.5,43.4,43.4,43.4h622.1
					c23.9,0,43.4-19.4,43.5-43.3v-418.7c0-23.9-19.5-43.4-43.4-43.4C674.9-207.1,52.7-207.1,52.7-207.1z"/>
			</g>
			<g>
				<path class="st0" d="M674.3,295.6H45.6c-22.6,0-40.9-18.3-40.9-40.9v-425.1c0-22.6,18.3-40.9,40.9-40.9h628.6
					c22.6,0,40.9,18.3,40.9,40.9v425.1C715.3,277.3,696.9,295.6,674.3,295.6z"/>
				<path class="st1" d="M674.3,296.4H45.6c-23,0-41.7-18.7-41.7-41.7v-425.1c0-23,18.7-41.7,41.7-41.7h628.6
					c23,0,41.7,18.7,41.7,41.7v425.1c0,11.1-4.2,21.5-12.1,29.4C696,292,685.5,296.4,674.3,296.4z M45.6-210.5
					c-22.1,0-40.1,18-40.1,40.1v425.1c0,22.1,18,40.1,40.1,40.1h628.6c10.8,0,20.9-4.2,28.5-11.8c7.5-7.6,11.7-17.6,11.6-28.3
					v-425.1c0-22.1-18-40.1-40.1-40.1C674.2-210.5,45.6-210.5,45.6-210.5z"/>
			</g>
			<g>
				<path class="st0" d="M673.2,291.9H39c-21.1,0-38.2-17.1-38.2-38.2v-430.6c0-21.1,17.1-38.2,38.2-38.2h634.1
					c21.1,0,38.2,17.1,38.2,38.2v430.5C711.4,274.8,694.3,291.9,673.2,291.9z"/>
				<path class="st1" d="M673.2,292.7H39c-21.5,0-39-17.5-39-39v-430.6c0-21.5,17.5-39,39-39h634c21.5,0,39,17.5,39,39v430.5
					c0,10.5-4,20.3-11.3,27.7C693.4,288.6,683.6,292.7,673.2,292.7z M39-214.3c-20.6,0-37.4,16.8-37.4,37.4v430.6
					c0,20.6,16.8,37.4,37.4,37.4h634.2c10,0,19.4-3.9,26.5-11c7-7.1,10.9-16.5,10.9-26.5v-430.5c0-20.6-16.8-37.4-37.4-37.4
					C673.2-214.3,39-214.3,39-214.3z"/>
			</g>
		</g>
		<g id="圖層_2_3_">
			<g>
				<g>
					<ellipse class="st2" cx="60.7" cy="-198.9" rx="8.3" ry="6.5"/>
					<path class="st3" d="M60.8-195.2L60.8-195.2c-2.4,0-4.3-2-4.3-4.3v-24.1c0-2.4,2-4.3,4.3-4.3l0,0c2.4,0,4.3,2,4.3,4.3v24.1
						C65.1-197.2,63.2-195.2,60.8-195.2z"/>
				</g>
				<g>
					<ellipse class="st2" cx="114.5" cy="-198.9" rx="8.3" ry="6.5"/>
					<path class="st3" d="M114.6-195.2L114.6-195.2c-2.4,0-4.3-2-4.3-4.3v-24.1c0-2.4,2-4.3,4.3-4.3l0,0c2.4,0,4.3,2,4.3,4.3v24.1
						C118.9-197.2,117-195.2,114.6-195.2z"/>
				</g>
				<g>
					<ellipse class="st2" cx="170.2" cy="-198.9" rx="8.3" ry="6.5"/>
					<path class="st3" d="M170.3-195.2L170.3-195.2c-2.4,0-4.3-2-4.3-4.3v-24.1c0-2.4,2-4.3,4.3-4.3l0,0c2.4,0,4.3,2,4.3,4.3v24.1
						C174.6-197.2,172.7-195.2,170.3-195.2z"/>
				</g>
				<g>
					<ellipse class="st2" cx="224" cy="-198.9" rx="8.3" ry="6.5"/>
					<path class="st3" d="M224.1-195.2L224.1-195.2c-2.4,0-4.3-2-4.3-4.3v-24.1c0-2.4,2-4.3,4.3-4.3l0,0c2.4,0,4.3,2,4.3,4.3v24.1
						C228.5-197.2,226.5-195.2,224.1-195.2z"/>
				</g>
				<g>
					<ellipse class="st2" cx="276.9" cy="-198.9" rx="8.3" ry="6.5"/>
					<path class="st3" d="M276.9-195.2L276.9-195.2c-2.4,0-4.3-2-4.3-4.3v-24.1c0-2.4,2-4.3,4.3-4.3l0,0c2.4,0,4.3,2,4.3,4.3v24.1
						C281.3-197.2,279.4-195.2,276.9-195.2z"/>
				</g>
				<g>
					<ellipse class="st2" cx="330.7" cy="-198.9" rx="8.3" ry="6.5"/>
					<path class="st3" d="M330.7-195.2L330.7-195.2c-2.4,0-4.3-2-4.3-4.3v-24.1c0-2.4,2-4.3,4.3-4.3l0,0c2.4,0,4.3,2,4.3,4.3v24.1
						C335.1-197.2,333.2-195.2,330.7-195.2z"/>
				</g>
				<g>
					<ellipse class="st2" cx="386.4" cy="-198.9" rx="8.3" ry="6.5"/>
					<path class="st3" d="M386.5-195.2L386.5-195.2c-2.4,0-4.3-2-4.3-4.3v-24.1c0-2.4,2-4.3,4.3-4.3l0,0c2.4,0,4.3,2,4.3,4.3v24.1
						C390.8-197.2,388.8-195.2,386.5-195.2z"/>
				</g>
				<g>
					<ellipse class="st2" cx="440.2" cy="-198.9" rx="8.3" ry="6.5"/>
					<path class="st3" d="M440.3-195.2L440.3-195.2c-2.4,0-4.3-2-4.3-4.3v-24.1c0-2.4,2-4.3,4.3-4.3l0,0c2.4,0,4.3,2,4.3,4.3v24.1
						C444.6-197.2,442.6-195.2,440.3-195.2z"/>
				</g>
				<g>
					<ellipse class="st2" cx="492.7" cy="-198.9" rx="8.3" ry="6.5"/>
					<path class="st3" d="M492.8-195.2L492.8-195.2c-2.4,0-4.3-2-4.3-4.3v-24.1c0-2.4,2-4.3,4.3-4.3l0,0c2.4,0,4.3,2,4.3,4.3v24.1
						C497.1-197.2,495.1-195.2,492.8-195.2z"/>
				</g>
				<g>
					<ellipse class="st2" cx="546.5" cy="-198.9" rx="8.3" ry="6.5"/>
					<path class="st3" d="M546.5-195.2L546.5-195.2c-2.4,0-4.3-2-4.3-4.3v-24.1c0-2.4,2-4.3,4.3-4.3l0,0c2.4,0,4.3,2,4.3,4.3v24.1
						C550.9-197.2,549-195.2,546.5-195.2z"/>
				</g>
				<g>
					<ellipse class="st2" cx="602.2" cy="-198.9" rx="8.3" ry="6.5"/>
					<path class="st3" d="M602.2-195.2L602.2-195.2c-2.4,0-4.3-2-4.3-4.3v-24.1c0-2.4,2-4.3,4.3-4.3l0,0c2.4,0,4.3,2,4.3,4.3v24.1
						C606.6-197.2,604.7-195.2,602.2-195.2z"/>
				</g>
				<g>
					<ellipse class="st2" cx="656.1" cy="-198.9" rx="8.3" ry="6.5"/>
					<path class="st3" d="M656.1-195.2L656.1-195.2c-2.4,0-4.3-2-4.3-4.3v-24.1c0-2.4,2-4.3,4.3-4.3l0,0c2.4,0,4.3,2,4.3,4.3v24.1
						C660.4-197.2,658.5-195.2,656.1-195.2z"/>
				</g>
			</g>
		</g>
	</g>
</g>
</svg>
