<?xml version="1.0" encoding="utf-8"?>
<!-- Generator: Adobe Illustrator 25.0.0, SVG Export Plug-In . SVG Version: 6.00 Build 0)  -->
<svg version="1.1" xmlns="http://www.w3.org/2000/svg" xmlns:xlink="http://www.w3.org/1999/xlink" x="0px" y="0px"
	 viewBox="0 0 1308 72" style="enable-background:new 0 0 1308 72;" xml:space="preserve">
<style type="text/css">
	.st0{fill:#ACE0DC;}
	.st1{fill:#FFFFFF;}
	.st2{fill:#D7D7D7;}
	.st3{fill:#D4D4D4;}
	.st4{fill:#F3EDE7;}
</style>
<g id="圖層_2">
	<rect class="st0" width="1308" height="72"/>
</g>
<g id="圖層_1">
	<g id="圖層_1_1_">
	</g>
	<g id="圖層_3">
		<g>
			<path class="st1" d="M1262.9,326.6H52.7c-24.4,0-44.2-19.8-44.2-44.2v-418.6c0-24.4,19.8-44.2,44.2-44.2H1263
				c24.4,0,44.2,19.8,44.2,44.2v418.7C1307.1,306.9,1287.3,326.6,1262.9,326.6z"/>
			<path class="st2" d="M1262.9,327.4H52.7c-24.8,0-45-20.2-45-45v-418.6c0-24.8,20.2-45,45-45H1263c24.8,0,45,20.2,45,45v418.7
				C1307.9,307.2,1287.7,327.4,1262.9,327.4z M52.7-179.6c-23.9,0-43.4,19.5-43.4,43.4v418.6c0,23.9,19.5,43.4,43.4,43.4h1210.1
				c23.9,0,43.4-19.4,43.5-43.3v-418.7c0-23.9-19.5-43.4-43.4-43.4H52.7z"/>
		</g>
		<g>
			<path class="st1" d="M1262.3,323.1H45.6c-22.6,0-40.9-18.3-40.9-40.9v-425.1c0-22.6,18.3-40.9,40.9-40.9h1216.6
				c22.6,0,40.9,18.3,40.9,40.9v425.1C1303.3,304.8,1284.9,323.1,1262.3,323.1z"/>
			<path class="st2" d="M1262.3,323.9H45.6c-23,0-41.7-18.7-41.7-41.7v-425.1c0-23,18.7-41.7,41.7-41.7h1216.6
				c23,0,41.7,18.7,41.7,41.7v425.1c0,11.1-4.2,21.5-12.1,29.4C1284,319.5,1273.5,323.9,1262.3,323.9z M45.6-183
				c-22.1,0-40.1,18-40.1,40.1v425.1c0,22.1,18,40.1,40.1,40.1h1216.6c10.8,0,20.9-4.2,28.5-11.8c7.5-7.6,11.7-17.6,11.6-28.3
				v-425.1c0-22.1-18-40.1-40.1-40.1H45.6z"/>
		</g>
		<g>
			<path class="st1" d="M1261.2,319.4H39c-21.1,0-38.2-17.1-38.2-38.2v-430.6c0-21.1,17.1-38.2,38.2-38.2h1222.1
				c21.1,0,38.2,17.1,38.2,38.2V281C1299.4,302.3,1282.3,319.4,1261.2,319.4z"/>
			<path class="st2" d="M1261.2,320.2H39c-21.5,0-39-17.5-39-39v-430.6c0-21.5,17.5-39,39-39h1222c21.5,0,39,17.5,39,39V281
				c0,10.5-4,20.3-11.3,27.7C1281.4,316.1,1271.6,320.2,1261.2,320.2z M39-186.8c-20.6,0-37.4,16.8-37.4,37.4v430.6
				c0,20.6,16.8,37.4,37.4,37.4h1222.2c10,0,19.4-3.9,26.5-11c7-7.1,10.9-16.5,10.9-26.5v-430.5c0-20.6-16.8-37.4-37.4-37.4H39z"/>
		</g>
	</g>
	<g id="圖層_2_1_">
		<g>
			<g>
				<ellipse class="st3" cx="106.1" cy="-173.5" rx="8.8" ry="6.9"/>
				<path class="st4" d="M106.2-169.6L106.2-169.6c-2.5,0-4.6-2.1-4.6-4.6v-25.6c0-2.5,2.1-4.6,4.6-4.6l0,0c2.5,0,4.6,2.1,4.6,4.6
					v25.6C110.8-171.7,108.7-169.6,106.2-169.6z"/>
			</g>
			<g>
				<ellipse class="st3" cx="163.3" cy="-173.5" rx="8.8" ry="6.9"/>
				<path class="st4" d="M163.4-169.6L163.4-169.6c-2.5,0-4.6-2.1-4.6-4.6v-25.6c0-2.5,2.1-4.6,4.6-4.6l0,0c2.5,0,4.6,2.1,4.6,4.6
					v25.6C168-171.7,165.9-169.6,163.4-169.6z"/>
			</g>
			<g>
				<ellipse class="st3" cx="222.5" cy="-173.5" rx="8.8" ry="6.9"/>
				<path class="st4" d="M222.6-169.6L222.6-169.6c-2.5,0-4.6-2.1-4.6-4.6v-25.6c0-2.5,2.1-4.6,4.6-4.6l0,0c2.5,0,4.6,2.1,4.6,4.6
					v25.6C227.2-171.7,225.1-169.6,222.6-169.6z"/>
			</g>
			<g>
				<ellipse class="st3" cx="279.7" cy="-173.5" rx="8.8" ry="6.9"/>
				<path class="st4" d="M279.8-169.6L279.8-169.6c-2.5,0-4.6-2.1-4.6-4.6v-25.6c0-2.5,2.1-4.6,4.6-4.6l0,0c2.5,0,4.6,2.1,4.6,4.6
					v25.6C284.4-171.7,282.3-169.6,279.8-169.6z"/>
			</g>
			<g>
				<ellipse class="st3" cx="335.9" cy="-173.5" rx="8.8" ry="6.9"/>
				<path class="st4" d="M335.9-169.6L335.9-169.6c-2.5,0-4.6-2.1-4.6-4.6v-25.6c0-2.5,2.1-4.6,4.6-4.6l0,0c2.5,0,4.6,2.1,4.6,4.6
					v25.6C340.5-171.7,338.5-169.6,335.9-169.6z"/>
			</g>
			<g>
				<ellipse class="st3" cx="393" cy="-173.5" rx="8.8" ry="6.9"/>
				<path class="st4" d="M393.1-169.6L393.1-169.6c-2.5,0-4.6-2.1-4.6-4.6v-25.6c0-2.5,2.1-4.6,4.6-4.6l0,0c2.5,0,4.6,2.1,4.6,4.6
					v25.6C397.7-171.7,395.6-169.6,393.1-169.6z"/>
			</g>
			<g>
				<ellipse class="st3" cx="452.2" cy="-173.5" rx="8.8" ry="6.9"/>
				<path class="st4" d="M452.3-169.6L452.3-169.6c-2.5,0-4.6-2.1-4.6-4.6v-25.6c0-2.5,2.1-4.6,4.6-4.6l0,0c2.5,0,4.6,2.1,4.6,4.6
					v25.6C456.9-171.7,454.8-169.6,452.3-169.6z"/>
			</g>
			<g>
				<ellipse class="st3" cx="509.4" cy="-173.5" rx="8.8" ry="6.9"/>
				<path class="st4" d="M509.5-169.6L509.5-169.6c-2.5,0-4.6-2.1-4.6-4.6v-25.6c0-2.5,2.1-4.6,4.6-4.6l0,0c2.5,0,4.6,2.1,4.6,4.6
					v25.6C514.1-171.7,512-169.6,509.5-169.6z"/>
			</g>
		</g>
		<g>
			<g>
				<ellipse class="st3" cx="569.2" cy="-173.5" rx="8.8" ry="6.9"/>
				<path class="st4" d="M569.3-169.6L569.3-169.6c-2.5,0-4.6-2.1-4.6-4.6v-25.6c0-2.5,2.1-4.6,4.6-4.6l0,0c2.5,0,4.6,2.1,4.6,4.6
					v25.6C573.9-171.7,571.9-169.6,569.3-169.6z"/>
			</g>
			<g>
				<ellipse class="st3" cx="626.4" cy="-173.5" rx="8.8" ry="6.9"/>
				<path class="st4" d="M626.5-169.6L626.5-169.6c-2.5,0-4.6-2.1-4.6-4.6v-25.6c0-2.5,2.1-4.6,4.6-4.6l0,0c2.5,0,4.6,2.1,4.6,4.6
					v25.6C631.1-171.7,629-169.6,626.5-169.6z"/>
			</g>
			<g>
				<ellipse class="st3" cx="685.6" cy="-173.5" rx="8.8" ry="6.9"/>
				<path class="st4" d="M685.7-169.6L685.7-169.6c-2.5,0-4.6-2.1-4.6-4.6v-25.6c0-2.5,2.1-4.6,4.6-4.6l0,0c2.5,0,4.6,2.1,4.6,4.6
					v25.6C690.3-171.7,688.2-169.6,685.7-169.6z"/>
			</g>
			<g>
				<ellipse class="st3" cx="742.8" cy="-173.5" rx="8.8" ry="6.9"/>
				<path class="st4" d="M742.9-169.6L742.9-169.6c-2.5,0-4.6-2.1-4.6-4.6v-25.6c0-2.5,2.1-4.6,4.6-4.6l0,0c2.5,0,4.6,2.1,4.6,4.6
					v25.6C747.5-171.7,745.4-169.6,742.9-169.6z"/>
			</g>
			<g>
				<ellipse class="st3" cx="799" cy="-173.5" rx="8.8" ry="6.9"/>
				<path class="st4" d="M799-169.6L799-169.6c-2.5,0-4.6-2.1-4.6-4.6v-25.6c0-2.5,2.1-4.6,4.6-4.6l0,0c2.5,0,4.6,2.1,4.6,4.6v25.6
					C803.6-171.7,801.6-169.6,799-169.6z"/>
			</g>
			<g>
				<ellipse class="st3" cx="856.1" cy="-173.5" rx="8.8" ry="6.9"/>
				<path class="st4" d="M856.2-169.6L856.2-169.6c-2.5,0-4.6-2.1-4.6-4.6v-25.6c0-2.5,2.1-4.6,4.6-4.6l0,0c2.5,0,4.6,2.1,4.6,4.6
					v25.6C860.8-171.7,858.8-169.6,856.2-169.6z"/>
			</g>
			<g>
				<ellipse class="st3" cx="915.3" cy="-173.5" rx="8.8" ry="6.9"/>
				<path class="st4" d="M915.4-169.6L915.4-169.6c-2.5,0-4.6-2.1-4.6-4.6v-25.6c0-2.5,2.1-4.6,4.6-4.6l0,0c2.5,0,4.6,2.1,4.6,4.6
					v25.6C920-171.7,917.9-169.6,915.4-169.6z"/>
			</g>
			<g>
				<ellipse class="st3" cx="972.5" cy="-173.5" rx="8.8" ry="6.9"/>
				<path class="st4" d="M972.6-169.6L972.6-169.6c-2.5,0-4.6-2.1-4.6-4.6v-25.6c0-2.5,2.1-4.6,4.6-4.6l0,0c2.5,0,4.6,2.1,4.6,4.6
					v25.6C977.2-171.7,975.1-169.6,972.6-169.6z"/>
			</g>
			<g>
				<ellipse class="st3" cx="1028.3" cy="-173.5" rx="8.8" ry="6.9"/>
				<path class="st4" d="M1028.4-169.6L1028.4-169.6c-2.5,0-4.6-2.1-4.6-4.6v-25.6c0-2.5,2.1-4.6,4.6-4.6l0,0c2.5,0,4.6,2.1,4.6,4.6
					v25.6C1033-171.7,1030.9-169.6,1028.4-169.6z"/>
			</g>
			<g>
				<ellipse class="st3" cx="1085.5" cy="-173.5" rx="8.8" ry="6.9"/>
				<path class="st4" d="M1085.5-169.6L1085.5-169.6c-2.5,0-4.6-2.1-4.6-4.6v-25.6c0-2.5,2.1-4.6,4.6-4.6l0,0c2.5,0,4.6,2.1,4.6,4.6
					v25.6C1090.2-171.7,1088.1-169.6,1085.5-169.6z"/>
			</g>
			<g>
				<ellipse class="st3" cx="1144.7" cy="-173.5" rx="8.8" ry="6.9"/>
				<path class="st4" d="M1144.7-169.6L1144.7-169.6c-2.5,0-4.6-2.1-4.6-4.6v-25.6c0-2.5,2.1-4.6,4.6-4.6l0,0c2.5,0,4.6,2.1,4.6,4.6
					v25.6C1149.3-171.7,1147.3-169.6,1144.7-169.6z"/>
			</g>
			<g>
				<ellipse class="st3" cx="1201.9" cy="-173.5" rx="8.8" ry="6.9"/>
				<path class="st4" d="M1201.9-169.6L1201.9-169.6c-2.5,0-4.6-2.1-4.6-4.6v-25.6c0-2.5,2.1-4.6,4.6-4.6l0,0c2.5,0,4.6,2.1,4.6,4.6
					v25.6C1206.5-171.7,1204.5-169.6,1201.9-169.6z"/>
			</g>
		</g>
	</g>
</g>
</svg>
