<?xml version="1.0" encoding="utf-8"?>
<!-- Generator: Adobe Illustrator 25.0.0, SVG Export Plug-In . SVG Version: 6.00 Build 0)  -->
<svg version="1.1" xmlns="http://www.w3.org/2000/svg" xmlns:xlink="http://www.w3.org/1999/xlink" x="0px" y="0px"
	 viewBox="0 0 1308 72" style="enable-background:new 0 0 1308 72;" xml:space="preserve">
<style type="text/css">
	.st0{fill:#ACE0DC;}
	.st1{fill:#FFFFFF;}
	.st2{fill:#D7D7D7;}
	.st3{fill:#D4D4D4;}
	.st4{fill:#F3EDE7;}
</style>
<g id="圖層_2">
	<rect class="st0" width="1308" height="72"/>
</g>
<g id="圖層_1">
	<g id="圖層_1_1_">
	</g>
	<g id="圖層_3">
		<g>
			<path class="st1" d="M1262.9,531.9H52.7c-24.4,0-44.2-19.8-44.2-44.2V69.1c0-24.4,19.8-44.2,44.2-44.2H1263
				c24.4,0,44.2,19.8,44.2,44.2v418.7C1307.1,512.2,1287.3,531.9,1262.9,531.9z"/>
			<path class="st2" d="M1262.9,532.7H52.7c-24.8,0-45-20.2-45-45V69.1c0-24.8,20.2-45,45-45H1263c24.8,0,45,20.2,45,45v418.7
				C1307.9,512.6,1287.7,532.7,1262.9,532.7z M52.7,25.7c-23.9,0-43.4,19.5-43.4,43.4v418.6c0,23.9,19.5,43.4,43.4,43.4h1210.1
				c23.9,0,43.4-19.4,43.5-43.3V69.1c0-23.9-19.5-43.4-43.4-43.4H52.7z"/>
		</g>
		<g>
			<path class="st1" d="M1262.3,528.4H45.6c-22.6,0-40.9-18.3-40.9-40.9V62.4c0-22.6,18.3-40.9,40.9-40.9h1216.6
				c22.6,0,40.9,18.3,40.9,40.9v425.1C1303.3,510.1,1284.9,528.4,1262.3,528.4z"/>
			<path class="st2" d="M1262.3,529.2H45.6c-23,0-41.7-18.7-41.7-41.7V62.4c0-23,18.7-41.7,41.7-41.7h1216.6
				c23,0,41.7,18.7,41.7,41.7v425.1c0,11.1-4.2,21.5-12.1,29.4C1284,524.8,1273.5,529.2,1262.3,529.2z M45.6,22.3
				c-22.1,0-40.1,18-40.1,40.1v425.1c0,22.1,18,40.1,40.1,40.1h1216.6c10.8,0,20.9-4.2,28.5-11.8c7.5-7.6,11.7-17.6,11.6-28.3V62.4
				c0-22.1-18-40.1-40.1-40.1H45.6z"/>
		</g>
		<g>
			<path class="st1" d="M1261.2,524.7H39c-21.1,0-38.2-17.1-38.2-38.2V55.9c0-21.1,17.1-38.2,38.2-38.2h1222.1
				c21.1,0,38.2,17.1,38.2,38.2v430.5C1299.4,507.6,1282.3,524.7,1261.2,524.7z"/>
			<path class="st2" d="M1261.2,525.5H39c-21.5,0-39-17.5-39-39V55.9c0-21.5,17.5-39,39-39h1222c21.5,0,39,17.5,39,39v430.5
				c0,10.5-4,20.3-11.3,27.7C1281.4,521.4,1271.6,525.5,1261.2,525.5z M39,18.5c-20.6,0-37.4,16.8-37.4,37.4v430.6
				c0,20.6,16.8,37.4,37.4,37.4h1222.2c10,0,19.4-3.9,26.5-11c7-7.1,10.9-16.5,10.9-26.5V55.9c0-20.6-16.8-37.4-37.4-37.4H39z"/>
		</g>
	</g>
	<g id="圖層_2_1_">
		<g>
			<g>
				<ellipse class="st3" cx="106.1" cy="31.8" rx="8.8" ry="6.9"/>
				<path class="st4" d="M106.2,35.7L106.2,35.7c-2.5,0-4.6-2.1-4.6-4.6V5.5c0-2.5,2.1-4.6,4.6-4.6l0,0c2.5,0,4.6,2.1,4.6,4.6v25.6
					C110.8,33.6,108.7,35.7,106.2,35.7z"/>
			</g>
			<g>
				<ellipse class="st3" cx="163.3" cy="31.8" rx="8.8" ry="6.9"/>
				<path class="st4" d="M163.4,35.7L163.4,35.7c-2.5,0-4.6-2.1-4.6-4.6V5.5c0-2.5,2.1-4.6,4.6-4.6l0,0c2.5,0,4.6,2.1,4.6,4.6v25.6
					C168,33.6,165.9,35.7,163.4,35.7z"/>
			</g>
			<g>
				<ellipse class="st3" cx="222.5" cy="31.8" rx="8.8" ry="6.9"/>
				<path class="st4" d="M222.6,35.7L222.6,35.7c-2.5,0-4.6-2.1-4.6-4.6V5.5c0-2.5,2.1-4.6,4.6-4.6l0,0c2.5,0,4.6,2.1,4.6,4.6v25.6
					C227.2,33.6,225.1,35.7,222.6,35.7z"/>
			</g>
			<g>
				<ellipse class="st3" cx="279.7" cy="31.8" rx="8.8" ry="6.9"/>
				<path class="st4" d="M279.8,35.7L279.8,35.7c-2.5,0-4.6-2.1-4.6-4.6V5.5c0-2.5,2.1-4.6,4.6-4.6l0,0c2.5,0,4.6,2.1,4.6,4.6v25.6
					C284.4,33.6,282.3,35.7,279.8,35.7z"/>
			</g>
			<g>
				<ellipse class="st3" cx="335.9" cy="31.8" rx="8.8" ry="6.9"/>
				<path class="st4" d="M335.9,35.7L335.9,35.7c-2.5,0-4.6-2.1-4.6-4.6V5.5c0-2.5,2.1-4.6,4.6-4.6l0,0c2.5,0,4.6,2.1,4.6,4.6v25.6
					C340.5,33.6,338.5,35.7,335.9,35.7z"/>
			</g>
			<g>
				<ellipse class="st3" cx="393" cy="31.8" rx="8.8" ry="6.9"/>
				<path class="st4" d="M393.1,35.7L393.1,35.7c-2.5,0-4.6-2.1-4.6-4.6V5.5c0-2.5,2.1-4.6,4.6-4.6l0,0c2.5,0,4.6,2.1,4.6,4.6v25.6
					C397.7,33.6,395.6,35.7,393.1,35.7z"/>
			</g>
			<g>
				<ellipse class="st3" cx="452.2" cy="31.8" rx="8.8" ry="6.9"/>
				<path class="st4" d="M452.3,35.7L452.3,35.7c-2.5,0-4.6-2.1-4.6-4.6V5.5c0-2.5,2.1-4.6,4.6-4.6l0,0c2.5,0,4.6,2.1,4.6,4.6v25.6
					C456.9,33.6,454.8,35.7,452.3,35.7z"/>
			</g>
			<g>
				<ellipse class="st3" cx="509.4" cy="31.8" rx="8.8" ry="6.9"/>
				<path class="st4" d="M509.5,35.7L509.5,35.7c-2.5,0-4.6-2.1-4.6-4.6V5.5c0-2.5,2.1-4.6,4.6-4.6l0,0c2.5,0,4.6,2.1,4.6,4.6v25.6
					C514.1,33.6,512,35.7,509.5,35.7z"/>
			</g>
		</g>
		<g>
			<g>
				<ellipse class="st3" cx="569.2" cy="31.8" rx="8.8" ry="6.9"/>
				<path class="st4" d="M569.3,35.7L569.3,35.7c-2.5,0-4.6-2.1-4.6-4.6V5.5c0-2.5,2.1-4.6,4.6-4.6l0,0c2.5,0,4.6,2.1,4.6,4.6v25.6
					C573.9,33.6,571.9,35.7,569.3,35.7z"/>
			</g>
			<g>
				<ellipse class="st3" cx="626.4" cy="31.8" rx="8.8" ry="6.9"/>
				<path class="st4" d="M626.5,35.7L626.5,35.7c-2.5,0-4.6-2.1-4.6-4.6V5.5c0-2.5,2.1-4.6,4.6-4.6l0,0c2.5,0,4.6,2.1,4.6,4.6v25.6
					C631.1,33.6,629,35.7,626.5,35.7z"/>
			</g>
			<g>
				<ellipse class="st3" cx="685.6" cy="31.8" rx="8.8" ry="6.9"/>
				<path class="st4" d="M685.7,35.7L685.7,35.7c-2.5,0-4.6-2.1-4.6-4.6V5.5c0-2.5,2.1-4.6,4.6-4.6l0,0c2.5,0,4.6,2.1,4.6,4.6v25.6
					C690.3,33.6,688.2,35.7,685.7,35.7z"/>
			</g>
			<g>
				<ellipse class="st3" cx="742.8" cy="31.8" rx="8.8" ry="6.9"/>
				<path class="st4" d="M742.9,35.7L742.9,35.7c-2.5,0-4.6-2.1-4.6-4.6V5.5c0-2.5,2.1-4.6,4.6-4.6l0,0c2.5,0,4.6,2.1,4.6,4.6v25.6
					C747.5,33.6,745.4,35.7,742.9,35.7z"/>
			</g>
			<g>
				<ellipse class="st3" cx="799" cy="31.8" rx="8.8" ry="6.9"/>
				<path class="st4" d="M799,35.7L799,35.7c-2.5,0-4.6-2.1-4.6-4.6V5.5c0-2.5,2.1-4.6,4.6-4.6l0,0c2.5,0,4.6,2.1,4.6,4.6v25.6
					C803.6,33.6,801.6,35.7,799,35.7z"/>
			</g>
			<g>
				<ellipse class="st3" cx="856.1" cy="31.8" rx="8.8" ry="6.9"/>
				<path class="st4" d="M856.2,35.7L856.2,35.7c-2.5,0-4.6-2.1-4.6-4.6V5.5c0-2.5,2.1-4.6,4.6-4.6l0,0c2.5,0,4.6,2.1,4.6,4.6v25.6
					C860.8,33.6,858.8,35.7,856.2,35.7z"/>
			</g>
			<g>
				<ellipse class="st3" cx="915.3" cy="31.8" rx="8.8" ry="6.9"/>
				<path class="st4" d="M915.4,35.7L915.4,35.7c-2.5,0-4.6-2.1-4.6-4.6V5.5c0-2.5,2.1-4.6,4.6-4.6l0,0c2.5,0,4.6,2.1,4.6,4.6v25.6
					C920,33.6,917.9,35.7,915.4,35.7z"/>
			</g>
			<g>
				<ellipse class="st3" cx="972.5" cy="31.8" rx="8.8" ry="6.9"/>
				<path class="st4" d="M972.6,35.7L972.6,35.7c-2.5,0-4.6-2.1-4.6-4.6V5.5c0-2.5,2.1-4.6,4.6-4.6l0,0c2.5,0,4.6,2.1,4.6,4.6v25.6
					C977.2,33.6,975.1,35.7,972.6,35.7z"/>
			</g>
			<g>
				<ellipse class="st3" cx="1028.3" cy="31.8" rx="8.8" ry="6.9"/>
				<path class="st4" d="M1028.4,35.7L1028.4,35.7c-2.5,0-4.6-2.1-4.6-4.6V5.5c0-2.5,2.1-4.6,4.6-4.6l0,0c2.5,0,4.6,2.1,4.6,4.6
					v25.6C1033,33.6,1030.9,35.7,1028.4,35.7z"/>
			</g>
			<g>
				<ellipse class="st3" cx="1085.5" cy="31.8" rx="8.8" ry="6.9"/>
				<path class="st4" d="M1085.5,35.7L1085.5,35.7c-2.5,0-4.6-2.1-4.6-4.6V5.5c0-2.5,2.1-4.6,4.6-4.6l0,0c2.5,0,4.6,2.1,4.6,4.6
					v25.6C1090.2,33.6,1088.1,35.7,1085.5,35.7z"/>
			</g>
			<g>
				<ellipse class="st3" cx="1144.7" cy="31.8" rx="8.8" ry="6.9"/>
				<path class="st4" d="M1144.7,35.7L1144.7,35.7c-2.5,0-4.6-2.1-4.6-4.6V5.5c0-2.5,2.1-4.6,4.6-4.6l0,0c2.5,0,4.6,2.1,4.6,4.6
					v25.6C1149.3,33.6,1147.3,35.7,1144.7,35.7z"/>
			</g>
			<g>
				<ellipse class="st3" cx="1201.9" cy="31.8" rx="8.8" ry="6.9"/>
				<path class="st4" d="M1201.9,35.7L1201.9,35.7c-2.5,0-4.6-2.1-4.6-4.6V5.5c0-2.5,2.1-4.6,4.6-4.6l0,0c2.5,0,4.6,2.1,4.6,4.6
					v25.6C1206.5,33.6,1204.5,35.7,1201.9,35.7z"/>
			</g>
		</g>
	</g>
</g>
</svg>
