<?xml version="1.0" encoding="utf-8"?>
<!-- Generator: Adobe Illustrator 25.0.0, SVG Export Plug-In . SVG Version: 6.00 Build 0)  -->
<svg version="1.1" xmlns="http://www.w3.org/2000/svg" xmlns:xlink="http://www.w3.org/1999/xlink" x="0px" y="0px"
	 viewBox="0 0 720 72" style="enable-background:new 0 0 720 72;" xml:space="preserve">
<style type="text/css">
	.st0{fill:#ACE0DC;}
	.st1{fill:#FFFFFF;}
	.st2{fill:#D7D7D7;}
	.st3{fill:#D4D4D4;}
	.st4{fill:#F3EDE7;}
</style>
<g id="圖層_2">
	<g id="圖層_2_1_">
		<rect class="st0" width="720" height="72"/>
	</g>
</g>
<g id="圖層_5">
</g>
<g id="圖層_1">
	<g id="圖層_1_1_">
	</g>
</g>
<g id="圖層_3_1_">
</g>
<g id="圖層_4">
	<g>
		<g id="圖層_3">
			<g>
				<path class="st1" d="M674.9,529.4H52.7c-24.4,0-44.2-19.8-44.2-44.2V66.6c0-24.4,19.8-44.2,44.2-44.2H675
					c24.4,0,44.2,19.8,44.2,44.2v418.7C719.1,509.7,699.3,529.4,674.9,529.4z"/>
				<path class="st2" d="M674.9,530.2H52.7c-24.8,0-45-20.2-45-45V66.6c0-24.8,20.2-45,45-45H675c24.8,0,45,20.2,45,45v418.7
					C719.9,510.1,699.7,530.2,674.9,530.2z M52.7,23.2c-23.9,0-43.4,19.5-43.4,43.4v418.6c0,23.9,19.5,43.4,43.4,43.4h622.1
					c23.9,0,43.4-19.4,43.5-43.3V66.6c0-23.9-19.5-43.4-43.4-43.4C674.9,23.2,52.7,23.2,52.7,23.2z"/>
			</g>
			<g>
				<path class="st1" d="M674.3,525.9H45.6C23,525.9,4.7,507.6,4.7,485V59.9C4.7,37.3,23,19,45.6,19h628.6
					c22.6,0,40.9,18.3,40.9,40.9V485C715.3,507.6,696.9,525.9,674.3,525.9z"/>
				<path class="st2" d="M674.3,526.7H45.6c-23,0-41.7-18.7-41.7-41.7V59.9c0-23,18.7-41.7,41.7-41.7h628.6
					c23,0,41.7,18.7,41.7,41.7V485c0,11.1-4.2,21.5-12.1,29.4C696,522.3,685.5,526.7,674.3,526.7z M45.6,19.8
					c-22.1,0-40.1,18-40.1,40.1V485c0,22.1,18,40.1,40.1,40.1h628.6c10.8,0,20.9-4.2,28.5-11.8c7.5-7.6,11.7-17.6,11.6-28.3V59.9
					c0-22.1-18-40.1-40.1-40.1C674.2,19.8,45.6,19.8,45.6,19.8z"/>
			</g>
			<g>
				<path class="st1" d="M673.2,522.2H39c-21.1,0-38.2-17.1-38.2-38.2V53.4c0-21.1,17.1-38.2,38.2-38.2h634.1
					c21.1,0,38.2,17.1,38.2,38.2v430.5C711.4,505.1,694.3,522.2,673.2,522.2z"/>
				<path class="st2" d="M673.2,523H39c-21.5,0-39-17.5-39-39V53.4c0-21.5,17.5-39,39-39h634c21.5,0,39,17.5,39,39v430.5
					c0,10.5-4,20.3-11.3,27.7C693.4,518.9,683.6,523,673.2,523z M39,16C18.4,16,1.6,32.8,1.6,53.4V484c0,20.6,16.8,37.4,37.4,37.4
					h634.2c10,0,19.4-3.9,26.5-11c7-7.1,10.9-16.5,10.9-26.5V53.4c0-20.6-16.8-37.4-37.4-37.4H39z"/>
			</g>
		</g>
		<g id="圖層_2_2_">
			<g>
				<g>
					<ellipse class="st3" cx="60.7" cy="31.3" rx="8.3" ry="6.5"/>
					<path class="st4" d="M60.8,35L60.8,35c-2.4,0-4.3-2-4.3-4.3V6.5c0-2.4,2-4.3,4.3-4.3l0,0c2.4,0,4.3,2,4.3,4.3v24.1
						C65.1,33,63.2,35,60.8,35z"/>
				</g>
				<g>
					<ellipse class="st3" cx="114.5" cy="31.3" rx="8.3" ry="6.5"/>
					<path class="st4" d="M114.6,35L114.6,35c-2.4,0-4.3-2-4.3-4.3V6.5c0-2.4,2-4.3,4.3-4.3l0,0c2.4,0,4.3,2,4.3,4.3v24.1
						C118.9,33,117,35,114.6,35z"/>
				</g>
				<g>
					<ellipse class="st3" cx="170.2" cy="31.3" rx="8.3" ry="6.5"/>
					<path class="st4" d="M170.3,35L170.3,35c-2.4,0-4.3-2-4.3-4.3V6.5c0-2.4,2-4.3,4.3-4.3l0,0c2.4,0,4.3,2,4.3,4.3v24.1
						C174.6,33,172.7,35,170.3,35z"/>
				</g>
				<g>
					<ellipse class="st3" cx="224" cy="31.3" rx="8.3" ry="6.5"/>
					<path class="st4" d="M224.1,35L224.1,35c-2.4,0-4.3-2-4.3-4.3V6.5c0-2.4,2-4.3,4.3-4.3l0,0c2.4,0,4.3,2,4.3,4.3v24.1
						C228.5,33,226.5,35,224.1,35z"/>
				</g>
				<g>
					<ellipse class="st3" cx="276.9" cy="31.3" rx="8.3" ry="6.5"/>
					<path class="st4" d="M276.9,35L276.9,35c-2.4,0-4.3-2-4.3-4.3V6.5c0-2.4,2-4.3,4.3-4.3l0,0c2.4,0,4.3,2,4.3,4.3v24.1
						C281.3,33,279.4,35,276.9,35z"/>
				</g>
				<g>
					<ellipse class="st3" cx="330.7" cy="31.3" rx="8.3" ry="6.5"/>
					<path class="st4" d="M330.7,35L330.7,35c-2.4,0-4.3-2-4.3-4.3V6.5c0-2.4,2-4.3,4.3-4.3l0,0c2.4,0,4.3,2,4.3,4.3v24.1
						C335.1,33,333.2,35,330.7,35z"/>
				</g>
				<g>
					<ellipse class="st3" cx="386.4" cy="31.3" rx="8.3" ry="6.5"/>
					<path class="st4" d="M386.5,35L386.5,35c-2.4,0-4.3-2-4.3-4.3V6.5c0-2.4,2-4.3,4.3-4.3l0,0c2.4,0,4.3,2,4.3,4.3v24.1
						C390.8,33,388.8,35,386.5,35z"/>
				</g>
				<g>
					<ellipse class="st3" cx="440.2" cy="31.3" rx="8.3" ry="6.5"/>
					<path class="st4" d="M440.3,35L440.3,35c-2.4,0-4.3-2-4.3-4.3V6.5c0-2.4,2-4.3,4.3-4.3l0,0c2.4,0,4.3,2,4.3,4.3v24.1
						C444.6,33,442.6,35,440.3,35z"/>
				</g>
				<g>
					<ellipse class="st3" cx="492.7" cy="31.3" rx="8.3" ry="6.5"/>
					<path class="st4" d="M492.8,35L492.8,35c-2.4,0-4.3-2-4.3-4.3V6.5c0-2.4,2-4.3,4.3-4.3l0,0c2.4,0,4.3,2,4.3,4.3v24.1
						C497.1,33,495.1,35,492.8,35z"/>
				</g>
				<g>
					<ellipse class="st3" cx="546.5" cy="31.3" rx="8.3" ry="6.5"/>
					<path class="st4" d="M546.5,35L546.5,35c-2.4,0-4.3-2-4.3-4.3V6.5c0-2.4,2-4.3,4.3-4.3l0,0c2.4,0,4.3,2,4.3,4.3v24.1
						C550.9,33,549,35,546.5,35z"/>
				</g>
				<g>
					<ellipse class="st3" cx="602.2" cy="31.3" rx="8.3" ry="6.5"/>
					<path class="st4" d="M602.2,35L602.2,35c-2.4,0-4.3-2-4.3-4.3V6.5c0-2.4,2-4.3,4.3-4.3l0,0c2.4,0,4.3,2,4.3,4.3v24.1
						C606.6,33,604.7,35,602.2,35z"/>
				</g>
				<g>
					<ellipse class="st3" cx="656.1" cy="31.3" rx="8.3" ry="6.5"/>
					<path class="st4" d="M656.1,35L656.1,35c-2.4,0-4.3-2-4.3-4.3V6.5c0-2.4,2-4.3,4.3-4.3l0,0c2.4,0,4.3,2,4.3,4.3v24.1
						C660.4,33,658.5,35,656.1,35z"/>
				</g>
			</g>
		</g>
	</g>
</g>
</svg>
