<?xml version="1.0" encoding="utf-8"?>
<!-- Generator: Adobe Illustrator 25.0.0, SVG Export Plug-In . SVG Version: 6.00 Build 0)  -->
<svg version="1.1" id="圖層_1" xmlns="http://www.w3.org/2000/svg" xmlns:xlink="http://www.w3.org/1999/xlink" x="0px" y="0px"
	 viewBox="0 0 433.2 92.2" style="enable-background:new 0 0 433.2 92.2;" xml:space="preserve">
<style type="text/css">
	.st0{fill:#F77378;}
	.st1{fill:none;stroke:#FFFFFF;stroke-width:2;stroke-linecap:round;stroke-linejoin:round;stroke-dasharray:1.9935,4.9839;}
	.st2{fill:#FEFFFE;}
</style>
<path class="st0" d="M403.9,92.2H29.4C13.1,92.2,0,79.1,0,62.8V29.4C0,13.1,13.1,0,29.4,0h374.5c16.2,0,29.4,13.1,29.4,29.4v33.5
	C433.2,79.1,420.1,92.2,403.9,92.2z"/>
<g>
	<path class="st1" d="M401.2,86.9H32.5C17.7,86.9,5.8,75,5.8,60.2V31.4c0-14.7,11.9-26.7,26.7-26.7h368.8
		c14.7,0,26.7,11.9,26.7,26.7v28.9C427.9,75,416,86.9,401.2,86.9z"/>
</g>
<g>
	<path class="st2" d="M93.6,33c-1.5,0-2.3-0.8-2.3-2.3c0-1.5,0.8-2.3,2.3-2.3h14.5v-1.1c0-1.8,0.9-2.7,2.8-2.7
		c1.8,0,2.7,0.9,2.7,2.7v1.1h15.1c1.5,0,2.3,0.8,2.3,2.3c0,1.6-0.8,2.3-2.3,2.3h-17.6H93.6z M95.8,67.4c-1.8,0-2.7-0.9-2.7-2.6v-15
		c0-0.9,0.3-1.6,0.8-2.2c0.6-0.6,1.3-0.8,2.2-0.8h15.2h15.2c0.9,0,1.6,0.3,2.2,0.8c0.6,0.5,0.8,1.3,0.8,2.2v11.9
		c0,1.3-0.2,2.3-0.5,3c-0.4,0.8-1,1.4-1.8,1.8c-0.9,0.5-2.3,0.7-4,0.8c-1.1,0-1.9-0.2-2.6-0.7c-0.7-0.5-1.1-1.1-1.3-1.9
		c0-0.1-0.1-0.3-0.2-0.5c-0.1-0.2-0.2-0.4-0.2-0.5h-13.4c-0.9,0-1.6-0.3-2.2-0.8s-0.8-1.3-0.8-2.2v-4.3c0-0.9,0.3-1.6,0.8-2.2
		c0.6-0.6,1.3-0.8,2.2-0.8h11.4c0.9,0,1.6,0.3,2.2,0.8c0.6,0.5,0.8,1.3,0.8,2.2v5.9c1.7,0.1,2.9,0.1,3.4,0c0.3,0,0.6-0.1,0.7-0.2
		c0.1-0.1,0.2-0.3,0.2-0.6v-9.1c0-0.7-0.4-1.1-1.1-1.1H99.6c-0.7,0-1.1,0.4-1.1,1.1v12.4C98.5,66.5,97.6,67.4,95.8,67.4z
		 M101.8,44.8c-0.9,0-1.6-0.3-2.2-0.8s-0.8-1.3-0.8-2.2v-4.1c0-0.9,0.3-1.6,0.8-2.2s1.3-0.8,2.2-0.8h18.8c0.9,0,1.6,0.3,2.2,0.8
		s0.8,1.3,0.8,2.2v4.1c0,0.9-0.3,1.6-0.8,2.2s-1.3,0.8-2.2,0.8h-9.4H101.8z M105.1,41.2h6h6c0.7,0,1.1-0.4,1.1-1.1v-0.6
		c0-0.7-0.4-1.1-1.1-1.1h-11.9c-0.7,0-1.1,0.4-1.1,1.1v0.6C104,40.8,104.3,41.2,105.1,41.2z M108.3,60h2.8h3.9v-1.9
		c0-0.7-0.4-1.1-1.1-1.1h-5.6c-0.7,0-1.1,0.4-1.1,1.1v0.8C107.2,59.6,107.6,60,108.3,60z"/>
	<path class="st2" d="M155.8,67.4c-1.9,0-2.8-0.9-2.8-2.8V53.1h-12.7c-0.9,0-1.6-0.3-2.2-0.8s-0.8-1.3-0.8-2.2V35.5
		c0-0.9,0.3-1.6,0.8-2.2s1.3-0.8,2.2-0.8H153v-5.1c0-1.9,0.9-2.8,2.8-2.8c1.9,0,2.8,0.9,2.8,2.8v5.1h8h5c0.9,0,1.6,0.3,2.2,0.8
		s0.8,1.3,0.8,2.2v14.6c0,0.9-0.3,1.6-0.8,2.2s-1.3,0.8-2.2,0.8h-13v11.5C158.7,66.5,157.7,67.4,155.8,67.4z M143.9,47.7h9.1v-9.9
		h-5.1h-4c-0.7,0-1.1,0.4-1.1,1.1v7.7C142.8,47.4,143.1,47.7,143.9,47.7z M158.7,47.7h9.2c0.7,0,1.1-0.4,1.1-1.1V39
		c0-0.7-0.4-1.1-1.1-1.1h-4h-5.1V47.7z"/>
	<path class="st2" d="M195.7,50.7c-1.5,0-3.2-0.7-5-2c-0.1-0.1-0.2-0.1-0.3-0.2c-0.8-0.6-1.4-1-1.8-1.2c-0.6-0.4-1.3-0.5-1.9-0.5
		c-0.7,0-1.4,0.3-2.1,0.8c-0.5,0.7-1.1,1.1-1.7,1.2c-0.7,0.2-1.3,0-1.9-0.4c-0.5-0.4-0.8-0.9-0.7-1.7c0-0.6,0.3-1.3,0.7-1.8
		c1.8-2,3.7-2.9,5.8-2.9c1,0,2,0.2,3,0.7c0.6,0.3,1.4,0.8,2.4,1.6c0.8,0.6,1.4,1,1.7,1.2c0.6,0.3,1.3,0.5,1.8,0.5
		c0.7,0,1.4-0.3,2.1-0.8c1.2-1.4,2.4-1.7,3.6-0.8c0.5,0.4,0.8,0.9,0.7,1.6c0,0.6-0.3,1.2-0.7,1.8C199.7,49.7,197.8,50.7,195.7,50.7z
		"/>
	<path class="st2" d="M208,62.9c-0.4,0.2-1,0-1.7-0.6c-0.9-0.7-1.2-1.7-0.8-2.9c0.7-2.7,1.1-6.2,1.1-10.5v-3.5c0-1.3,0.7-1.9,2-1.9
		c1.3,0,1.9,0.6,1.9,1.9v3.6c0,3.1-0.1,5.6-0.4,7.5c-0.2,1.6-0.5,3.2-1,4.8C208.8,62.3,208.5,62.8,208,62.9z M215.1,67.4
		c-1.7,0-2.5-0.8-2.5-2.5V41.3h-4.4c-1.6,0-2.4-0.8-2.4-2.4c0-1.6,0.8-2.4,2.4-2.4h6.8h6.8c1.6,0,2.4,0.8,2.4,2.4
		c0,1.6-0.8,2.4-2.4,2.4h-4.3v23.7C217.6,66.6,216.8,67.4,215.1,67.4z M209.7,32.2c-1.6,0-2.4-0.8-2.4-2.4c0-1.6,0.8-2.4,2.4-2.4
		h5.5h5.5c1.6,0,2.4,0.8,2.4,2.4c0,1.6-0.8,2.4-2.4,2.4H209.7z M221.7,60.6c-1.3,0-1.9-0.6-1.9-1.9V45.5c0-1.3,0.6-1.9,1.9-1.9
		c1.3,0,1.9,0.6,1.9,1.9v6.6v6.6C223.6,59.9,222.9,60.6,221.7,60.6z M226.5,66.3c-1.8,0-2.7-0.9-2.7-2.7c0-1.8,0.9-2.7,2.7-2.7h6.3
		V44.6h-5c-1.7,0-2.6-0.9-2.6-2.7c0-1.7,0.9-2.6,2.6-2.6h5V28.2c0-1.8,0.9-2.8,2.8-2.8s2.8,0.9,2.8,2.8v11.1h5.2
		c1.7,0,2.6,0.9,2.6,2.6c0,1.8-0.9,2.7-2.6,2.7h-5.2V61h6.6c1.8,0,2.7,0.9,2.7,2.7c0,1.8-0.9,2.7-2.7,2.7h-9.3H226.5z"/>
	<path class="st2" d="M258.4,50.3c-0.9,0-1.6-0.3-2.2-0.8c-0.6-0.6-0.8-1.3-0.8-2.2v-9c-0.1,0-0.2,0.1-0.4,0.2
		c-0.2,0.1-0.3,0.1-0.4,0.2c-1.4,0.5-2.5,0.2-3.3-1c-1.1-1.7-0.5-2.9,1.7-3.6c2.8-1,5.5-2.3,8-3.9c2.5-1.5,4.6-3,6.2-4.6
		c0.6-0.6,1.5-1,2.6-1h1.9c1,0,1.9,0.3,2.6,1c4.1,3.5,9,6.3,14.9,8.2c1.2,0.3,1.9,0.8,2.1,1.4s0.1,1.4-0.6,2.4
		c-0.8,1.2-1.9,1.5-3.4,1c0,0-0.1-0.1-0.2-0.1c-0.1,0-0.1,0-0.2,0v9c0,0.9-0.3,1.6-0.8,2.2c-0.5,0.5-1.3,0.8-2.2,0.8h-12.8H258.4z
		 M256.6,37.8h14.6h14.6c-2.2-0.9-4.4-2-6.6-3.2v0.9c0,0.4-0.2,0.6-0.6,0.6h-13.7c-0.5,0-0.9-0.1-1.2-0.4c-0.3-0.3-0.4-0.7-0.4-1.2
		v-0.1C261.1,35.7,258.8,36.8,256.6,37.8z M261,66.2c-0.9,0-1.6-0.3-2.2-0.8c-0.6-0.6-0.8-1.3-0.8-2.2v-8.4c0-0.9,0.3-1.6,0.8-2.2
		c0.5-0.6,1.3-0.8,2.2-0.8h10.4h10.4c0.9,0,1.6,0.3,2.2,0.8c0.6,0.6,0.8,1.3,0.8,2.2v8.4c0,0.9-0.3,1.6-0.8,2.2
		c-0.5,0.6-1.3,0.8-2.2,0.8H261z M261,47h2.1c-0.1-0.6-0.3-1.4-0.6-2.4c-0.1-0.3-0.3-0.8-0.5-1.4c-0.1-0.3-0.1-0.6,0-0.8
		c0.1-0.2,0.3-0.4,0.7-0.5l2.4-0.7h-5.1v4.7C259.9,46.6,260.3,47,261,47z M263.3,57.1h7.9h7.9v-1.1c0-0.5-0.2-0.7-0.7-0.7h-14
		c-0.7,0-1.1,0.4-1.1,1.1V57.1z M264.1,62.6H278c0.7,0,1.1-0.4,1.1-1.1v-0.7h-7.9h-7.9v1.1C263.3,62.3,263.6,62.6,264.1,62.6z
		 M264.2,47h4.6v-5.8h-3.5c0.5,0.9,0.9,1.7,1.1,2.5c0.1,0.2,0.2,0.5,0.3,1c0.1,0.2,0.1,0.3,0.1,0.4c0.2,0.7-0.1,1.1-0.8,1.3
		L264.2,47z M266.1,32.6h4.9h3.9c0.7,0,0.7-0.2,0.1-0.6c-1.4-0.9-2.7-2-4-3.2C269.6,30.1,268,31.4,266.1,32.6z M273.2,47h4.2
		l-1.5-0.4c-0.8-0.2-1-0.7-0.7-1.4c0.2-0.5,0.4-0.9,0.6-1.4c0.4-1.2,0.7-2.1,0.8-2.6h-3.3V47z M278.4,47h2.8c0.7,0,1.1-0.4,1.1-1.1
		v-4.7h-4.9l1.9,0.5c0.5,0.2,0.8,0.4,1,0.7c0.2,0.3,0.1,0.7-0.1,1.2c-0.2,0.3-0.4,0.7-0.6,1.1C279.2,45.6,278.8,46.3,278.4,47z"/>
	<path class="st2" d="M297.8,63.3c-0.4,0.2-1,0.1-1.8-0.3c-0.7-0.3-1.2-0.7-1.4-1.2c-0.2-0.5-0.1-1.1,0.2-1.8c0.6-1.7,1-3.7,1.3-6.1
		c0.2-1.7,1.1-2.4,2.6-2.1c1.4,0.2,2,1.1,1.8,2.5c-0.2,1.7-0.5,3.1-0.7,4.3c-0.4,1.5-0.7,2.6-0.9,3.3
		C298.7,62.7,298.3,63.1,297.8,63.3z M304.1,67.4c-1.6,0-2.4-0.8-2.4-2.4V49l-4.4,0.3c-1.6,0.1-2.4-0.6-2.6-2.2
		c-0.1-1.7,0.6-2.5,2.2-2.5l0.9,0c0.8-1.1,1.5-2,2.1-2.8c-0.9-1.3-2.2-2.9-4-4.9c-0.5-0.5-0.7-1.1-0.6-1.8c0.1-0.6,0.3-1.3,0.7-1.9
		c0.3-0.4,0.6-0.7,1-0.8c0.4-0.1,0.8,0,1.1,0.3c0.9-1.7,1.7-3.6,2.5-5.7c0.3-0.8,0.6-1.3,1.1-1.5c0.5-0.2,1.1-0.2,1.9,0.1
		c1.7,0.6,2.1,1.7,1.1,3.4c-1.4,2.8-2.7,5.1-3.8,6.7c0.5,0.5,1,1.2,1.6,1.9c1-1.6,2.1-3.4,3.2-5.5c0.7-1.3,1.7-1.6,3.2-1.1
		c1.6,0.7,2,1.8,1,3.3c-2.5,3.9-4.9,7.2-7.2,10.2l4.6-0.2c-0.2-0.6-0.4-1-0.6-1.2c-0.7-1.3-0.3-2.2,1.1-2.8c1.2-0.5,2.1-0.2,2.7,0.9
		c1.3,2.4,2.2,4.6,2.8,6.5c0.2,0.6,0.1,1.1-0.1,1.4c-0.2,0.3-0.6,0.6-1.2,0.9c-1.5,0.7-2.5,0.3-2.8-1.3c0,0,0-0.1,0-0.1l-2.6,0.2V58
		v7C306.4,66.7,305.6,67.4,304.1,67.4z M308.7,58.8c-0.1-0.3-0.2-0.8-0.4-1.4c-0.1-0.2-0.1-0.3-0.1-0.4c-0.4-1.2-0.7-2-0.9-2.6
		c-0.5-1.3-0.1-2.2,1.4-2.7c1.2-0.4,2.1,0,2.6,1.1c0.6,1.6,1.2,3.3,1.7,5.1c0.2,0.7,0.2,1.2-0.1,1.6c-0.2,0.4-0.7,0.7-1.4,0.9
		C310,61,309.1,60.5,308.7,58.8z M313.1,66.2c-1.6,0-2.4-0.8-2.4-2.4c0-1.7,0.8-2.5,2.4-2.5h1.7V29.8c0-0.9,0.3-1.6,0.8-2.2
		c0.5-0.6,1.3-0.8,2.2-0.8h13.4c0.9,0,1.6,0.3,2.2,0.8c0.6,0.6,0.8,1.3,0.8,2.2v31.4h0.6c1.6,0,2.4,0.8,2.4,2.5
		c0,1.6-0.8,2.4-2.4,2.4h-10.9H313.1z M320.1,38.1h4.3h4.4v-5.3c0-0.7-0.4-1.1-1.1-1.1h-6.5c-0.7,0-1.1,0.4-1.1,1.1V38.1z
		 M320.1,49.6h4.3h4.4V43h-8.7V49.6z M320.1,61.3h8.7v-6.8h-4.4h-4.3V61.3z"/>
</g>
</svg>
