<?xml version="1.0" encoding="utf-8"?>
<!-- Generator: Adobe Illustrator 25.0.0, SVG Export Plug-In . SVG Version: 6.00 Build 0)  -->
<svg version="1.1" id="圖層_1" xmlns="http://www.w3.org/2000/svg" xmlns:xlink="http://www.w3.org/1999/xlink" x="0px" y="0px"
	 viewBox="0 0 480.5 37.3" style="enable-background:new 0 0 480.5 37.3;" xml:space="preserve">
<style type="text/css">
	.st0{fill:#F77378;}
	.st1{fill:#FFFFFF;}
</style>
<g>
	<g>
		<path class="st0" d="M2.6,34.1c-0.8,0-1.4-0.2-1.9-0.7C0.2,33,0,32.4,0,31.6v-0.1c0-1,0.5-2,1.6-3C5.3,25,8,22.2,9.8,19.9
			c2-2.7,3-5,3-6.9c0-1.4-0.4-2.4-1.1-3.2C11,9,10.1,8.6,8.8,8.6c-1,0-2,0.3-3,0.9c-1.5,1.3-2.9,1.3-4.2,0c-0.7-0.7-1-1.3-0.9-2
			c0.1-0.7,0.4-1.3,1.1-2c2.3-1.8,4.9-2.7,8-2.7c3,0,5.4,0.9,7.3,2.6c1.9,1.8,2.8,4.1,2.8,7c0,4.3-3.1,9.6-9.2,15.8
			c2-0.3,3.7-0.4,5-0.4h2.6c2.1,0,3.1,1,3.1,3.1c0,2.1-1,3.1-3.1,3.1h-7.5H2.6z"/>
		<path class="st0" d="M37.1,34.7c-3.3,0-5.9-1.4-7.8-4.1c-2-2.8-3-6.8-3-12s1-9.1,3-11.8c1.9-2.6,4.5-3.9,7.8-3.9
			c3.3,0,5.9,1.3,7.9,4c2,2.7,3,6.7,3,11.8s-1,9.1-3,12C43.1,33.4,40.5,34.7,37.1,34.7z M37.1,29c1.3,0,2.2-0.7,2.8-2.1
			c0.8-1.7,1.2-4.5,1.2-8.3s-0.4-6.6-1.2-8.2c-0.6-1.3-1.6-1.9-2.8-1.9s-2.2,0.6-2.8,1.9c-0.8,1.6-1.2,4.3-1.2,8.2
			c0,3.9,0.4,6.7,1.2,8.3C35,28.3,35.9,29,37.1,29z"/>
		<path class="st0" d="M55.2,34.1c-0.8,0-1.4-0.2-1.9-0.7c-0.5-0.5-0.7-1.1-0.7-1.9v-0.1c0-1,0.5-2,1.6-3c3.7-3.4,6.4-6.3,8.2-8.6
			c2-2.7,3-5,3-6.9c0-1.4-0.4-2.4-1.1-3.2c-0.7-0.8-1.7-1.1-2.9-1.1c-1,0-2,0.3-3,0.9c-1.5,1.3-2.9,1.3-4.2,0c-0.7-0.7-1-1.3-0.9-2
			c0.1-0.7,0.4-1.3,1.1-2c2.3-1.8,4.9-2.7,8-2.7c3,0,5.4,0.9,7.3,2.6c1.9,1.8,2.8,4.1,2.8,7c0,4.3-3.1,9.6-9.2,15.8
			c2-0.3,3.7-0.4,5-0.4h2.6c2.1,0,3.1,1,3.1,3.1c0,2.1-1,3.1-3.1,3.1h-7.5H55.2z"/>
		<path class="st0" d="M89,34.7c-3.5,0-6.5-0.9-8.9-2.8c-0.6-0.5-1-1.1-1-1.7c0-0.5,0.2-1.2,0.7-1.9c1.2-1.7,2.7-1.9,4.4-0.6
			c1.3,0.7,2.5,1,3.8,1c1.5,0,2.7-0.4,3.5-1.2c0.9-0.8,1.3-2,1.3-3.6c0-1.5-0.4-2.7-1.2-3.5c-0.8-0.8-1.9-1.2-3.3-1.2
			c-0.9,0-1.7,0.1-2.4,0.4c-1.2,0.7-2.4,0.7-3.5,0l-0.1-0.1c-1-0.7-1.5-1.6-1.4-2.8l0.6-10.8c0.1-0.8,0.3-1.4,0.8-1.9
			c0.5-0.5,1.1-0.7,1.9-0.7h6h5.6c2,0,3,1,3,3c0,2-1,3-3,3h-7.9l-0.5,5.2c1-0.4,2.1-0.6,3.2-0.6c2.8,0,5,0.8,6.7,2.3
			c1.9,1.7,2.8,4.2,2.8,7.3c0,3.3-1.1,6-3.3,8C94.7,33.8,92.1,34.7,89,34.7z"/>
		<path class="st0" d="M110.8,34.7c-1.3,0-2.3-0.4-3.1-1.3s-1.2-2-1.2-3.2s0.4-2.4,1.2-3.2c0.8-0.9,1.9-1.3,3.1-1.3
			c1.2,0,2.3,0.4,3.1,1.3c0.8,0.9,1.3,2,1.3,3.2c0,1.3-0.4,2.4-1.2,3.3S112.1,34.7,110.8,34.7z"/>
		<path class="st0" d="M133.5,34.1c-2.4,0-3.7-1.2-3.7-3.7V11.3l-2.7,1.1c-1.5,0.7-2.8,0.2-3.7-1.2c-1-1.7-0.7-3,1-3.9l7.3-3.9h2.8
			c0.8,0,1.4,0.2,1.9,0.7c0.5,0.5,0.7,1.1,0.7,1.9v12.8v11.7C137.2,32.9,136,34.1,133.5,34.1z"/>
		<path class="st0" d="M158.2,34.7c-3.3,0-5.9-1.4-7.8-4.1c-2-2.8-3-6.8-3-12s1-9.1,3-11.8c1.9-2.6,4.5-3.9,7.8-3.9
			c3.3,0,5.9,1.3,7.9,4c2,2.7,3,6.7,3,11.8s-1,9.1-3,12C164.1,33.4,161.5,34.7,158.2,34.7z M158.2,29c1.3,0,2.2-0.7,2.8-2.1
			c0.8-1.7,1.2-4.5,1.2-8.3s-0.4-6.6-1.2-8.2c-0.6-1.3-1.6-1.9-2.8-1.9s-2.2,0.6-2.8,1.9c-0.8,1.6-1.2,4.3-1.2,8.2
			c0,3.9,0.4,6.7,1.2,8.3C156,28.3,156.9,29,158.2,29z"/>
		<path class="st0" d="M179.2,34.7c-1.3,0-2.3-0.4-3.1-1.3s-1.2-2-1.2-3.2s0.4-2.4,1.2-3.2c0.8-0.9,1.9-1.3,3.1-1.3
			c1.2,0,2.3,0.4,3.1,1.3c0.8,0.9,1.3,2,1.3,3.2c0,1.3-0.4,2.4-1.2,3.3S180.5,34.7,179.2,34.7z"/>
		<path class="st0" d="M201.9,34.1c-2.4,0-3.7-1.2-3.7-3.7V11.3l-2.7,1.1c-1.5,0.7-2.8,0.2-3.7-1.2c-1-1.7-0.7-3,1-3.9l7.3-3.9h2.8
			c0.8,0,1.4,0.2,1.9,0.7c0.5,0.5,0.7,1.1,0.7,1.9v12.8v11.7C205.5,32.9,204.3,34.1,201.9,34.1z"/>
		<path class="st0" d="M227.3,34.7c-3.2,0-5.8-1.2-7.9-3.6c-2.4-2.8-3.6-6.8-3.6-12c0-5.2,1.2-9.3,3.7-12.2c2.3-2.6,5.1-3.9,8.5-3.9
			c2.6,0,5,0.7,7,2.1c0.7,0.6,1,1.2,1,1.8c0,0.6-0.4,1.2-1,1.9c-1.3,1.5-2.9,1.7-4.5,0.6c-0.7-0.3-1.4-0.5-2.1-0.5
			c-3.7,0-5.7,3-6,8.9c0.7-0.9,1.7-1.6,2.8-2.2c1.1-0.5,2.1-0.8,3-0.8c2.7,0,4.8,0.8,6.4,2.3c1.7,1.7,2.6,4.1,2.6,7.3
			c0,3.2-1,5.7-3,7.6C232.6,33.8,230.2,34.7,227.3,34.7z M227.2,29.2c1,0,1.9-0.4,2.5-1.2c0.7-0.9,1-2.1,1-3.8c0-3-1.2-4.5-3.7-4.5
			c-1.8,0-3.2,0.9-4.3,2.8c0.3,2.4,0.9,4.1,1.7,5.2C225.2,28.8,226.1,29.2,227.2,29.2z"/>
		<path class="st0" d="M300.3,24.8c-1.7,0-2.6-0.9-2.6-2.6c0-1.7,0.9-2.6,2.6-2.6h6.6c1.7,0,2.6,0.9,2.6,2.6c0,1.7-0.9,2.6-2.6,2.6
			h-3.3H300.3z"/>
		<path class="st0" d="M326.9,34.1c-2.4,0-3.7-1.2-3.7-3.7V11.3l-2.7,1.1c-1.5,0.7-2.8,0.2-3.7-1.2c-1-1.7-0.7-3,1-3.9l7.3-3.9h2.8
			c0.8,0,1.4,0.2,1.9,0.7c0.5,0.5,0.7,1.1,0.7,1.9v12.8v11.7C330.6,32.9,329.4,34.1,326.9,34.1z"/>
		<path class="st0" d="M353.3,34.1c-2.4,0-3.7-1.2-3.7-3.7V11.3l-2.7,1.1c-1.5,0.7-2.8,0.2-3.7-1.2c-1-1.7-0.7-3,1-3.9l7.3-3.9h2.8
			c0.8,0,1.4,0.2,1.9,0.7c0.5,0.5,0.7,1.1,0.7,1.9v12.8v11.7C356.9,32.9,355.7,34.1,353.3,34.1z"/>
		<path class="st0" d="M372.6,34.7c-1.3,0-2.3-0.4-3.1-1.3s-1.2-2-1.2-3.2s0.4-2.4,1.2-3.2c0.8-0.9,1.9-1.3,3.1-1.3
			c1.2,0,2.3,0.4,3.1,1.3c0.8,0.9,1.3,2,1.3,3.2c0,1.3-0.4,2.4-1.2,3.3S373.9,34.7,372.6,34.7z"/>
		<path class="st0" d="M395.3,34.1c-2.4,0-3.7-1.2-3.7-3.7V11.3l-2.7,1.1c-1.5,0.7-2.8,0.2-3.7-1.2c-1-1.7-0.7-3,1-3.9l7.3-3.9h2.8
			c0.8,0,1.4,0.2,1.9,0.7c0.5,0.5,0.7,1.1,0.7,1.9v12.8v11.7C399,32.9,397.7,34.1,395.3,34.1z"/>
		<path class="st0" d="M420.8,34.7c-3.2,0-5.8-1.2-7.9-3.6c-2.4-2.8-3.6-6.8-3.6-12c0-5.2,1.2-9.3,3.7-12.2c2.3-2.6,5.1-3.9,8.5-3.9
			c2.6,0,5,0.7,7,2.1c0.7,0.6,1,1.2,1,1.8c0,0.6-0.4,1.2-1,1.9c-1.3,1.5-2.9,1.7-4.5,0.6c-0.7-0.3-1.4-0.5-2.1-0.5
			c-3.7,0-5.7,3-6,8.9c0.7-0.9,1.7-1.6,2.8-2.2c1.1-0.5,2.1-0.8,3-0.8c2.7,0,4.8,0.8,6.4,2.3c1.7,1.7,2.6,4.1,2.6,7.3
			c0,3.2-1,5.7-3,7.6C426,33.8,423.6,34.7,420.8,34.7z M420.6,29.2c1,0,1.9-0.4,2.5-1.2c0.7-0.9,1-2.1,1-3.8c0-3-1.2-4.5-3.7-4.5
			c-1.8,0-3.2,0.9-4.3,2.8c0.3,2.4,0.9,4.1,1.7,5.2C418.6,28.8,419.5,29.2,420.6,29.2z"/>
	</g>
</g>
<g>
	<g>
		<path class="st0" d="M245.1,19.3c-0.1-5.8,1.5-10.9,6.2-14.8c5.8-5,14.1-5.3,21.3-3.7c6.5,1.3,13,5.6,14.8,12.3
			c2,8.7-1.6,17.6-9.8,21.4c-5.6,2.6-12,3.3-18.1,2.4C250.3,35.6,245.3,28.3,245.1,19.3z"/>
	</g>
</g>
<g>
	<g>
		<path class="st1" d="M258,28.1c-0.5,0-0.8-0.1-1.1-0.4s-0.4-0.7-0.4-1.1V11c0-0.5,0.1-0.8,0.4-1.1s0.7-0.4,1.1-0.4h8.7h8.7
			c0.5,0,0.8,0.1,1.1,0.4s0.4,0.7,0.4,1.1v15.5c0,0.5-0.1,0.8-0.4,1.1s-0.7,0.4-1.1,0.4H258z M259.9,24.7h6.7h6.7v-3.6
			c-0.1,0.1-0.3,0.2-0.4,0.3c-0.4,0.2-0.9,0.3-1.5,0.3h-1.5c-0.8,0-1.5-0.2-2-0.7c-0.2-0.3-0.4-0.6-0.5-0.9
			c-0.1-0.4-0.2-1.1-0.2-1.9v-5.3h-1.5c-0.1,2.1-0.3,3.7-0.6,5c-0.4,1.6-1.1,3-2,4c-0.4,0.4-0.8,0.5-1.2,0.5c-0.4,0-0.7-0.3-1-0.7
			c-0.3-0.4-0.6-0.7-1-1.1V24.7z M259.9,20.2c0.9-0.8,1.6-1.8,1.9-3.2c0.3-1,0.4-2.4,0.5-4.2h-2.4v3.7V20.2z M270.8,18.8h0.3
			c0.1,0,0.2,0,0.3-0.1c0.1-0.1,0.1-0.2,0.2-0.5c0-0.2,0.1-0.4,0.1-0.8c0-0.7,0.2-0.8,0.6-0.6c0.2,0.2,0.6,0.3,1,0.6v-4.6h-2.8v2.6
			v2.6c0,0.3,0,0.5,0,0.6C270.6,18.7,270.7,18.8,270.8,18.8z"/>
	</g>
</g>
<g>
	<g>
		<path class="st0" d="M437.7,19.3c-0.1-5.8,1.5-10.9,6.2-14.8c5.8-5,14.1-5.3,21.3-3.7c6.5,1.3,13,5.6,14.8,12.3
			c2,8.7-1.6,17.6-9.8,21.4c-5.6,2.6-12,3.3-18.1,2.4C442.9,35.6,437.9,28.3,437.7,19.3z"/>
	</g>
</g>
<g>
	<g>
		<path class="st1" d="M452.2,28.4c-0.5,0-0.8-0.1-1.1-0.4c-0.3-0.3-0.4-0.7-0.4-1.1V10.3c0-0.5,0.1-0.8,0.4-1.1s0.7-0.4,1.1-0.4
			h7.1h7.1c0.5,0,0.8,0.1,1.1,0.4c0.3,0.3,0.4,0.7,0.4,1.1v16.6c0,0.5-0.1,0.8-0.4,1.1c-0.3,0.3-0.7,0.4-1.1,0.4H452.2z M454.2,16.7
			h5h5v-4.4h-9.9V16.7z M454.2,24.9h9.9v-4.7h-5h-5V24.9z"/>
	</g>
</g>
</svg>
