<?xml version="1.0" encoding="utf-8"?>
<!-- Generator: Adobe Illustrator 25.0.0, SVG Export Plug-In . SVG Version: 6.00 Build 0)  -->
<svg version="1.1" id="圖層_1" xmlns="http://www.w3.org/2000/svg" xmlns:xlink="http://www.w3.org/1999/xlink" x="0px" y="0px"
	 viewBox="0 0 433.2 92.2" style="enable-background:new 0 0 433.2 92.2;" xml:space="preserve">
<style type="text/css">
	.st0{fill:#58B66A;}
	.st1{fill:none;stroke:#FFFFFF;stroke-width:2;stroke-linecap:round;stroke-linejoin:round;stroke-dasharray:1.9935,4.9839;}
	.st2{fill:#FEFFFE;}
</style>
<path class="st0" d="M403.9,92.2H29.4C13.1,92.2,0,79.1,0,62.8V29.4C0,13.1,13.1,0,29.4,0h374.5c16.2,0,29.4,13.1,29.4,29.4v33.5
	C433.2,79.1,420.1,92.2,403.9,92.2z"/>
<g>
	<path class="st1" d="M401.2,86.9H32.5C17.7,86.9,5.8,75,5.8,60.2V31.4c0-14.7,11.9-26.7,26.7-26.7h368.8
		c14.7,0,26.7,11.9,26.7,26.7v28.9C427.9,75,416,86.9,401.2,86.9z"/>
</g>
<g>
	<path class="st2" d="M90.1,64.4c-0.9,0-1.6-0.3-2.2-0.8s-0.8-1.3-0.8-2.2V28.2c0-0.9,0.3-1.6,0.8-2.2c0.6-0.6,1.3-0.8,2.2-0.8h16.4
		h16.4c0.9,0,1.6,0.3,2.2,0.8c0.6,0.5,0.8,1.3,0.8,2.2v33.2c0,0.9-0.3,1.6-0.8,2.2s-1.3,0.8-2.2,0.8H90.1z M113.7,57.9
		c-1.3-0.5-2.4-1.5-3.4-3c-1,1-2,1.9-3,2.7c-0.6,0.4-1.1,0.5-1.7,0.4c-0.6-0.1-1.1-0.5-1.6-1c-0.4-0.4-0.6-0.9-0.6-1.3
		c0-0.4,0.2-0.8,0.7-1.1c-2.3,0.4-5.1,0.8-8.3,1.2c-0.7,0.1-1.2,0-1.5-0.2c-0.3-0.3-0.5-0.8-0.6-1.5c-0.1-0.7,0-1.2,0.2-1.6
		c0.2-0.3,0.6-0.5,1.3-0.6c2.4-0.3,5.4-0.6,8.8-1.1c0.7-0.1,1.3,0,1.7,0.3c0.4,0.3,0.6,0.8,0.7,1.5v0.1c0.6-0.6,1.4-1.3,2.3-2.3
		c-0.9-2.9-1.5-6.9-2-12H95.9c-1.3,0-1.9-0.6-1.9-1.9s0.6-1.9,1.9-1.9h10.4c0-0.2-0.1-0.5-0.1-0.8c0-0.4,0-0.6,0-0.8
		c-0.1-1.5,0.6-2.3,2.2-2.3c1.4,0,2.2,0.7,2.2,2.2c0,0.4,0,0.9,0.1,1.6v0.1h3.8c0.8,0,0.9-0.2,0.3-0.6c-0.2-0.2-0.6-0.5-1.1-0.8
		c-0.2-0.1-0.3-0.2-0.3-0.2c-0.9-0.5-0.9-1.1-0.2-1.8l1.1-1.1H93.4c-0.7,0-1.1,0.4-1.1,1.1v27.1c0,0.7,0.4,1.1,1.1,1.1h13h13
		c0.7,0,1.1-0.4,1.1-1.1V31.3c0-0.7-0.4-1.1-1.1-1.1h-4.5c1,0.5,1.8,1,2.3,1.4c0.5,0.4,0.7,0.8,0.7,1.4c0,0.5-0.2,1-0.7,1.5
		l-0.3,0.3h0.2c1.3,0,1.9,0.6,1.9,1.9s-0.6,1.9-1.9,1.9H111c0.2,2.8,0.5,5.2,0.9,7c0.6-1.2,1.1-2.5,1.5-3.8c0.4-1.3,1.2-1.8,2.6-1.5
		c1.4,0.3,1.9,1.1,1.5,2.6c-1,3-2.4,5.8-4.1,8.3c0.6,1.4,1.3,2.2,2.1,2.4c0.1,0,0.3-0.1,0.4-0.4c0.2-1.1,0.5-1.9,1-2.3
		c0.5-0.5,1.1-0.4,1.9,0.1c0.4,0.3,0.6,0.8,0.7,1.7c0.1,0.6,0,1.3-0.1,2C118.2,58,116.3,59.1,113.7,57.9z M98.1,49.3
		c-0.9,0-1.6-0.3-2.2-0.8s-0.8-1.3-0.8-2.2v-2.8c0-0.9,0.3-1.6,0.8-2.2s1.3-0.8,2.2-0.8h2.1h2.7c0.7,0,1.3,0.2,1.7,0.6
		c0.4,0.4,0.6,1,0.6,1.7v3.3c0,0.9-0.3,1.6-0.8,2.2s-1.3,0.8-2.2,0.8H98.1z M99.7,46.4h0.4h0.9c0.4,0,0.6-0.2,0.6-0.6v-1.2
		c0-0.7-0.4-1.1-1.1-1.1h-0.8c-0.7,0-1.1,0.4-1.1,1.1v0.7C98.6,46,98.9,46.4,99.7,46.4z"/>
	<path class="st2" d="M134.8,55.1c-0.6,0.2-1.3,0-2.2-0.5c-1-0.6-1.6-1.1-1.8-1.8c-0.2-0.6,0-1.4,0.7-2.4c1.9-3.5,3.4-7.8,4.5-13.1
		c0.4-2,1.6-2.8,3.6-2.4c2.1,0.4,2.9,1.6,2.4,3.6c-0.7,2.8-1.4,5.4-2.3,7.8c-1,2.8-2.1,5.2-3.3,7.3C136,54.4,135.4,54.9,134.8,55.1z
		 M141.1,63.9c-0.8-2.3,0.3-3.4,3.5-3.3c0.5,0,1.1,0,1.8,0c0.4,0,0.6,0,0.7,0c0.9,0,1.4-0.4,1.4-1.2V41.7V26.9c0-1.9,1-2.9,2.9-2.9
		c1.9,0,2.9,1,2.9,2.9v32.5c0,1.7-0.2,2.9-0.6,3.8s-1.1,1.5-2.1,1.9c-1.4,0.6-3.5,0.9-6.3,1C143.1,66.1,141.7,65.4,141.1,63.9z
		 M167.9,55.7c-0.7-0.3-1.1-1-1.4-2.1c-0.6-2-1.3-4.3-2.3-6.9c-1-2.5-2.2-5.2-3.6-8.2c-0.9-1.8-0.4-3,1.5-3.8
		c1.6-0.6,2.8-0.2,3.7,1.3c3.2,6,5.5,11.3,6.7,16c0.2,0.9,0.2,1.6-0.2,2.1c-0.3,0.5-0.9,0.9-1.8,1.2C169.4,55.9,168.5,56,167.9,55.7
		z"/>
	<path class="st2" d="M196.5,50c-1.7-1.9-3.5-3.8-5.4-5.5c-1.6-1.4-1.6-2.9,0.2-4.4c1.4-1.3,2.8-1.3,4.2-0.1c1.1,0.9,2.2,2,3.3,3.2
		c0.2,0.2,0.4,0.4,0.7,0.7c0.9,1,1.6,1.7,2.1,2.2c0.7,0.8,1,1.5,0.9,2.2c-0.1,0.7-0.6,1.4-1.4,2.1C199.4,51.7,197.9,51.6,196.5,50z"
		/>
	<path class="st2" d="M224.3,64.4c-0.9,0-1.6-0.3-2.2-0.8s-0.8-1.3-0.8-2.2V28.2c0-0.9,0.3-1.6,0.8-2.2c0.6-0.6,1.3-0.8,2.2-0.8
		h16.4H257c0.9,0,1.6,0.3,2.2,0.8c0.6,0.5,0.8,1.3,0.8,2.2v33.2c0,0.9-0.3,1.6-0.8,2.2s-1.3,0.8-2.2,0.8H224.3z M247.8,57.9
		c-1.3-0.5-2.4-1.5-3.4-3c-1,1-2,1.9-3,2.7c-0.6,0.4-1.1,0.5-1.7,0.4c-0.6-0.1-1.1-0.5-1.6-1c-0.4-0.4-0.6-0.9-0.6-1.3
		c0-0.4,0.2-0.8,0.7-1.1c-2.3,0.4-5.1,0.8-8.3,1.2c-0.7,0.1-1.2,0-1.5-0.2c-0.3-0.3-0.5-0.8-0.6-1.5c-0.1-0.7,0-1.2,0.2-1.6
		c0.2-0.3,0.6-0.5,1.3-0.6c2.4-0.3,5.4-0.6,8.8-1.1c0.7-0.1,1.3,0,1.7,0.3c0.4,0.3,0.6,0.8,0.7,1.5v0.1c0.6-0.6,1.4-1.3,2.3-2.3
		c-0.9-2.9-1.5-6.9-2-12H230c-1.3,0-1.9-0.6-1.9-1.9s0.6-1.9,1.9-1.9h10.4c0-0.2-0.1-0.5-0.1-0.8c0-0.4,0-0.6,0-0.8
		c-0.1-1.5,0.6-2.3,2.2-2.3c1.4,0,2.2,0.7,2.2,2.2c0,0.4,0,0.9,0.1,1.6v0.1h3.8c0.8,0,0.9-0.2,0.3-0.6c-0.2-0.2-0.6-0.5-1.1-0.8
		c-0.2-0.1-0.3-0.2-0.3-0.2c-0.9-0.5-0.9-1.1-0.2-1.8l1.1-1.1h-20.8c-0.7,0-1.1,0.4-1.1,1.1v27.1c0,0.7,0.4,1.1,1.1,1.1h13h13
		c0.7,0,1.1-0.4,1.1-1.1V31.3c0-0.7-0.4-1.1-1.1-1.1H249c1,0.5,1.8,1,2.3,1.4c0.5,0.4,0.7,0.8,0.7,1.4c0,0.5-0.2,1-0.7,1.5l-0.3,0.3
		h0.2c1.3,0,1.9,0.6,1.9,1.9s-0.6,1.9-1.9,1.9h-6.2c0.2,2.8,0.5,5.2,0.9,7c0.6-1.2,1.1-2.5,1.5-3.8c0.4-1.3,1.2-1.8,2.6-1.5
		c1.4,0.3,1.9,1.1,1.5,2.6c-1,3-2.4,5.8-4.1,8.3c0.6,1.4,1.3,2.2,2.1,2.4c0.1,0,0.3-0.1,0.4-0.4c0.2-1.1,0.5-1.9,1-2.3
		c0.5-0.5,1.1-0.4,1.9,0.1c0.4,0.3,0.6,0.8,0.7,1.7c0.1,0.6,0,1.3-0.1,2C252.3,58,250.5,59.1,247.8,57.9z M232.2,49.3
		c-0.9,0-1.6-0.3-2.2-0.8s-0.8-1.3-0.8-2.2v-2.8c0-0.9,0.3-1.6,0.8-2.2s1.3-0.8,2.2-0.8h2.1h2.7c0.7,0,1.3,0.2,1.7,0.6
		c0.4,0.4,0.6,1,0.6,1.7v3.3c0,0.9-0.3,1.6-0.8,2.2s-1.3,0.8-2.2,0.8H232.2z M233.8,46.4h0.4h0.9c0.4,0,0.6-0.2,0.6-0.6v-1.2
		c0-0.7-0.4-1.1-1.1-1.1h-0.8c-0.7,0-1.1,0.4-1.1,1.1v0.7C232.7,46,233.1,46.4,233.8,46.4z"/>
	<path class="st2" d="M285.3,66.2c-1.9,0-2.8-0.9-2.8-2.8V51.8h-12.7c-0.9,0-1.6-0.3-2.2-0.8s-0.8-1.3-0.8-2.2V34.2
		c0-0.9,0.3-1.6,0.8-2.2s1.3-0.8,2.2-0.8h12.7v-5.1c0-1.9,0.9-2.8,2.8-2.8c1.9,0,2.8,0.9,2.8,2.8v5.1h8h5c0.9,0,1.6,0.3,2.2,0.8
		c0.5,0.6,0.8,1.3,0.8,2.2v14.6c0,0.9-0.3,1.6-0.8,2.2c-0.6,0.6-1.3,0.8-2.2,0.8h-13v11.5C288.1,65.2,287.2,66.2,285.3,66.2z
		 M273.3,46.5h9.1v-9.9h-5.1h-4c-0.7,0-1.1,0.4-1.1,1.1v7.7C272.2,46.1,272.6,46.5,273.3,46.5z M288.1,46.5h9.2
		c0.7,0,1.1-0.4,1.1-1.1v-7.7c0-0.7-0.4-1.1-1.1-1.1h-4h-5.1V46.5z"/>
	<path class="st2" d="M312,62c-0.4,0.2-1,0.1-1.8-0.3c-0.7-0.3-1.2-0.7-1.4-1.2c-0.2-0.5-0.1-1.1,0.2-1.8c0.5-1.7,1-3.7,1.3-6.1
		c0.2-1.7,1.1-2.4,2.6-2.1c1.4,0.2,2,1.1,1.8,2.5c-0.2,1.7-0.5,3.1-0.7,4.3c-0.4,1.5-0.7,2.6-0.9,3.3C312.9,61.4,312.5,61.9,312,62z
		 M318.3,66.2c-1.6,0-2.4-0.8-2.4-2.4V47.7l-4.4,0.3c-1.6,0.1-2.4-0.6-2.6-2.2c-0.1-1.7,0.6-2.5,2.2-2.5l0.9,0
		c0.8-1.1,1.5-2,2.1-2.8c-0.9-1.3-2.2-2.9-4-4.9c-0.5-0.5-0.7-1.1-0.6-1.8c0.1-0.6,0.3-1.3,0.7-1.9c0.3-0.4,0.6-0.7,1-0.8
		c0.4-0.1,0.8,0,1.1,0.3c0.9-1.7,1.7-3.6,2.5-5.7c0.3-0.8,0.6-1.3,1.1-1.5c0.5-0.2,1.1-0.2,1.9,0.1c1.7,0.6,2.1,1.7,1.1,3.4
		c-1.4,2.8-2.7,5.1-3.8,6.7c0.5,0.5,1,1.2,1.6,1.9c1-1.6,2.1-3.4,3.2-5.5c0.7-1.3,1.7-1.6,3.2-1.1c1.6,0.7,2,1.8,1,3.3
		c-2.5,3.9-4.9,7.2-7.2,10.2l4.6-0.2c-0.2-0.6-0.4-1-0.6-1.2c-0.7-1.3-0.3-2.2,1.1-2.8c1.2-0.5,2.1-0.2,2.7,0.9
		c1.3,2.4,2.2,4.6,2.8,6.5c0.2,0.6,0.1,1.1-0.1,1.4c-0.2,0.3-0.6,0.6-1.2,0.9c-1.5,0.7-2.5,0.3-2.8-1.3c0,0,0-0.1,0-0.1l-2.6,0.2
		v9.4v7C320.6,65.4,319.8,66.2,318.3,66.2z M322.9,57.6c-0.1-0.3-0.2-0.8-0.4-1.4c-0.1-0.2-0.1-0.3-0.1-0.4c-0.4-1.2-0.7-2-0.9-2.6
		c-0.5-1.3-0.1-2.2,1.4-2.7c1.2-0.4,2.1,0,2.6,1.1c0.6,1.6,1.2,3.3,1.7,5.1c0.2,0.7,0.2,1.2-0.1,1.6c-0.2,0.4-0.7,0.7-1.4,0.9
		C324.2,59.8,323.3,59.2,322.9,57.6z M327.3,64.9c-1.6,0-2.4-0.8-2.4-2.4c0-1.7,0.8-2.5,2.4-2.5h1.7V28.6c0-0.9,0.3-1.6,0.8-2.2
		c0.5-0.6,1.3-0.8,2.2-0.8h13.4c0.9,0,1.6,0.3,2.2,0.8c0.6,0.6,0.8,1.3,0.8,2.2V60h0.6c1.6,0,2.4,0.8,2.4,2.5c0,1.6-0.8,2.4-2.4,2.4
		h-10.9H327.3z M334.3,36.9h4.3h4.4v-5.3c0-0.7-0.4-1.1-1.1-1.1h-6.5c-0.7,0-1.1,0.4-1.1,1.1V36.9z M334.3,48.3h4.3h4.4v-6.6h-8.7
		V48.3z M334.3,60h8.7v-6.8h-4.4h-4.3V60z"/>
</g>
</svg>
