<?xml version="1.0" encoding="utf-8"?>
<!-- Generator: Adobe Illustrator 25.0.0, SVG Export Plug-In . SVG Version: 6.00 Build 0)  -->
<svg version="1.1" id="_xEFF5__xEED3__x5F_4" xmlns="http://www.w3.org/2000/svg" xmlns:xlink="http://www.w3.org/1999/xlink"
	 x="0px" y="0px" viewBox="0 0 226.5 262.1" style="enable-background:new 0 0 226.5 262.1;" xml:space="preserve">
<style type="text/css">
	.st0{fill:#FDD23E;}
	.st1{fill:#FFFFFF;}
</style>
<g>
	<path d="M120.5,174.6c-0.6,0.8-1.1,1.5-1.7,2.1c-0.4,0.4-0.9,0.8-1.4,0.8c-1,0.1-1.6,0.5-2.3,1.3c-0.5,0.7-1.3,1.1-2,1.6
		c-2.5,1.4-4.9,2.8-7.4,4.1c-1,0.5-2.1,0.8-3.2,1.1c-0.6,0.2-1.1,0.2-1.6,0.8c-1.2,1.6-3,2.6-4.8,3.3c-2.7,1.1-4.8,2.9-7.2,4.4
		c-0.8,0.5-1.7,0.8-2.5,1.2c-0.9,0.5-1.6,1.1-2.5,1.4c-1.5,0.6-2.4,1.9-3.8,2.6c-1.2,0.6-2.4,1.1-3.1,2.3c-0.2,0.4-0.7,0.5-1.2,0.7
		c-1.3,0.7-2.2,1.6-2.6,3c-0.3,1.1-1.2,1.9-1.5,3.1c-1,4.3-3,8.2-4.6,12.3c-1.2,3-2.4,6.1-3.6,9.2c-0.4,1.1-0.9,2.3-1.5,3.3
		c-0.7,1.1-1.1,2.3-1.3,3.6c0,0.3-0.3,0.6-0.5,0.9c-0.2,0.5-0.5,1-0.7,1.5c-0.1,0.2,0,0.4-0.1,0.5c-1.3,1.3-1.2,3.2-2,4.7
		c-0.7,1.2-1,2.7-1.5,4c-0.4,1.2-0.9,2.1-1.9,2.3c-1.1,3.2-2,6.3-3.2,9.2c-0.8,2.1-1.1,2.1-3.3,1.7c-1.4-0.3-2.7-0.6-4-1
		c-1.3-0.4-2.5-1-3.4-2.3c-1.2,0.8-2.3,0.4-3.4-0.2c-0.9-0.5-2.1-0.7-3.1-0.9c-1.4-0.2-2.6-1.4-4.1-1.1c-0.2,0-0.4-0.1-0.5-0.2
		c-1.7-1.7-4.2-1.5-6.3-2.3c-1.5-0.6-1.5-0.5-1.5-2.2c0-0.8,0-1.6,0.1-2.4c0.1-1,0.9-1.8,2.1-2.1c2.5-0.6,5-1.2,7.6-1.3
		c1.6-0.1,3.3-0.4,5.1-0.7c-0.8-1.2-0.5-2.2,0.1-3.4c0.5-0.9,0.4-2.1,0.5-3.2c0-0.2,0-0.4,0-0.5c0.8-3,0.7-6.2,1.8-9.1
		c0.4-1.2,0.4-2.5,0.6-3.7c0.5-2.5,1.2-5,1.7-7.6c0.4-2,0.8-4,1.1-5.9c0.1-0.5,0.2-0.9,0.4-1.3c0.9-1.7,1.3-3.4,1.3-5.3
		c0-0.7,0.3-1.4,0.5-2.2c0.4-1.4,1.4-2.7,1-4.3c-0.1-0.3,0.1-0.9,0.3-1.1c1.4-1.6,1-3.6,1.5-5.4c0.2-0.8,0.4-1.6,0.6-2.3
		c0.1-0.4,0.4-0.9,0.4-1.3c-0.2-1.8,0.9-2.9,2-4.1c0.6-0.7,1.2-1.4,1.9-2.1c0.3-0.3,0.5-0.7,0.8-0.9c1.8-0.7,2.7-2.2,3.7-3.6
		c1-1.4,2.2-2.4,3.7-3.2c0.3-0.2,0.8-0.4,0.9-0.7c0.8-1.8,2.4-2.4,3.9-3.2c0.2-0.1,0.6-0.2,0.7-0.5c1.3-2.2,3.4-3.6,5.2-5.2
		c2.1-1.8,4.3-3.3,6.5-5c1-0.8,2-1.7,3.1-2.4c1.4-0.8,2.5-2,3.9-3.2c-0.4-0.3-0.8-0.6-1.2-0.9c-0.9-0.7-1.3-1.4-0.9-2.4
		c1.7-3.2,1.6-6.7,2.5-10.1c0.6-2.3,0.3-4.7,0.8-7c0.4-2.1,0-4.4,0.9-6.5c0.4-0.9-0.1-2.1-0.1-3.2c0-1.1,0-2.2,0-3.3
		c0-1,0-1.9-0.1-2.9c0-0.6-0.2-1.3-0.1-1.9c0.2-1.8,0.3-3.5,0-5.3c0-0.1,0-0.1,0-0.2c1-1.9-0.1-3.8,0-5.8c0-0.7,0.3-1.5,0.3-2.2
		c0-2-0.3-4,0-6c0.1-0.7-0.4-1.3-1.3-1.6c-2.5-0.7-4.7-2.2-6.8-3.8c-0.3-0.2-0.7-0.6-1-0.6c-2.2-0.2-4-1.4-5.8-2.5
		c-0.2-0.1-0.5-0.3-0.8-0.3c-1.3,0.1-2.3-0.6-3.3-1.3c-0.4-0.3-0.9-0.4-1.4-0.6c-2.1-0.9-4.2-1.6-6.1-2.9c-0.8-0.6-1.9-0.8-2.9-1.1
		c-0.5-0.2-1.1-0.3-1.6-0.6c-1-0.7-2-1.3-3.2-1.6c-0.9-0.2-1.7-1-2.6-1.4c-1.8-0.7-3.6-1.3-5-2.6c-0.2-0.2-0.5-0.3-0.8-0.4
		c-1.1-0.4-2.2-0.7-3.3-1.1c-1.7-0.6-3.4-1.2-5-1.9c-0.6-0.3-1.2-0.7-1.8-1c-0.3-0.2-0.6-0.5-0.9-0.5c-1.8,0.1-3.1-1.2-4.7-1.6
		c-0.4-0.1-0.9-0.4-1.2-0.7c-0.6-0.7-1.3-0.8-2.1-1c-1-0.2-1.9-0.8-2.6-1.1c-1.4,0.4-2.6,0.8-3.8,1c-0.6,0.1-1.3-0.1-1.8-0.4
		c-1.5-1.1-3.1-1.1-4.8-0.9c-0.5,0.1-0.9,0.2-1.4,0.3c-1.3,0.2-1.9,0-2.6-1.2c-0.2-0.3-0.3-0.6-0.5-0.9c-1-1.1-1.6-2.3-0.7-3.6
		c-0.8-1.4-1.6-2.6-2.2-3.8c-0.9-1.7-0.4-2.7,1.4-3.3c0.4-0.1,0.8-0.3,1.1-0.5c0.4-0.2,0.7-0.4,1.1-0.7c-0.3-0.7-0.8-1.1-1.6-1.2
		c-0.9,0-1.7-0.2-2.4-1c-0.2-0.3-0.7-0.3-1.1-0.5c-0.8-0.6-1.6-1.1-2.3-1.8c-0.5-0.5-0.6-1.3-0.2-2c0.6-1.2,1.2-2.4,1.8-3.5
		c0.4-0.7,1-0.9,1.8-0.6c1.6,0.7,3.2,1.3,4.8,2.1c2.2,1,4.4,1.8,6.4,3c3,1.6,6.1,2.7,9.3,3.9c0.8,0.3,1.5,0.6,2.3,0.1
		c0.3-0.1,0.9,0,1.1,0.2c0.6,0.7,1.3,0.7,2.1,0.7c2.8,0,5.6,0.6,8.4,1.1c2.3,0.4,4.7,0.6,7,1c2.3,0.4,4.6,1,6.9,1.5
		c0.5,0.1,1,0.1,1.5,0.2c1.3,0.1,2.7,0.1,3.9,0.9c0.5,0.3,1.2,0.3,1.9,0.4c1.1,0.1,2.3-0.2,3.3,0.8c0.1,0.1,0.4,0.1,0.7,0.1
		c0.7,0.1,1.6,0,2.2,0.3c2.4,1.2,5.1,1,7.6,1.7c2.1,0.6,4.3,1.2,6.5,1.7c0.8,0.2,1.6,0.1,2.4,0.2c0.8,0.1,1.6,0.3,2.4,0.5
		c1.7,0.4,3.6,0.3,5.2,1.3c0.7,0.4,1.8,0.2,2.7,0.2c0.9,0,1.8,0.4,2.7,0.6c2.8,0.6,5.7,1,8.5,1.5c0.1,0,0.3-0.1,0.6-0.2
		c-0.5-0.3-0.8-0.6-1.1-0.7c-1.7-0.7-3.3-1.4-5-1.9c-3-0.9-5.6-2.4-8.2-4c-2.8-1.8-4.7-4.4-5.3-7.8c-0.2-1.3,0-2.6,2-2.5
		c2.3,0.1,4.2-1.1,5.8-2.8c-0.7-0.8-1.5-0.7-2.3-0.7c-1.2-0.1-2.4-0.2-3.6-0.2c-0.8-0.1-1.4-0.4-1.7-1.1c-0.5-1.5-1.6-2.5-2.5-3.7
		c-0.5-0.7-1.4-1.3-1.3-2.4c0.2-1.5,0.9-2.6,2.3-3.2c0.9-0.4,1.9-0.8,2.9-1.1c0.8-0.2,1.2-0.6,1.3-1.5c0.2-1.6,0.4-3.2,0.7-4.8
		c0.2-0.9,0.5-1.8,0.9-2.6c0.4-0.9,0.5-1.8-0.1-2.6c-0.2-0.3-0.4-0.8-0.4-1.1c0.1-1.1,0.5-2.3,0.4-3.4c-0.1-1.1-0.3-2.1,0.2-3.2
		c0.2-0.5,0.2-1,0.3-1.5c0.3-2.3,1.2-4.3,2.9-6c0.3-0.3,0.5-0.7,0.8-1.1c0.3-0.4,0.7-0.7,1.1-1.1c0.2-0.1,0.5-0.2,0.6-0.3
		C97,2,100,1.9,103.1,1.6c2.6-0.2,4.7,0.7,7,1.9c0.4-0.3,0.8-0.6,1.3-0.9c0.5-0.3,1.1-0.6,1.7-0.9c1-0.4,1.9-0.8,2.9-1.1
		c0.2-0.1,0.3-0.2,0.5-0.2c1.8,0,3.6-0.7,5.5-0.3c1.2,0.3,2.5,0.4,3.7,0.7c3.1,0.7,5.6,2.4,7.8,4.5c1.1,1.1,2,2.4,3,3.6
		c0.6,0.8,1.1,1.6,1.7,2.5c0.7-1,1.1-2,0.7-3.3c-0.2-0.8-0.3-1.6,0.5-2.2c0.9-0.6,1.5-0.5,2.7,0.2c2.1,1.1,3,3.2,3.4,5.2
		c0.2,1.5,0.2,3,0.5,4.6c0.1,0.5-0.2,1.1-0.4,1.8c0.9,0.2,1.8,0.4,2.6,0.4c1.8,0.2,2.8,1.5,4.1,2.3c1.7,1.1,2.3,2.8,2.8,4.6
		c0.2,0.7,0,1.7-0.3,2.5c-0.4,0.9-1.8,0.8-2.1-0.2c-0.4-1.1-1.2-1.2-2-1.2c-1.1-0.1-2.2,0-3.5,0c0.3,0.4,0.4,0.7,0.6,0.9
		c1,1,1.9,2,2.2,3.4c0.1,0.5,0.6,1,1,1.4c0.7,1,1.3,1.9,1.1,3.2c0,0.2,0,0.5,0.1,0.7c1.4,2.9,0.6,5.6-1,8.2
		c-0.5,0.7-0.9,1.5-1.4,2.2c-1,1.5-1.6,3.2-3.4,4.1c-0.1,0.1-0.3,0.2-0.3,0.4c-1.3,2.3-3.4,3.5-5.5,4.8c-1.1,0.7-2,1.7-3,2.6
		c-1,0.9-2.2,1.2-3.5,1.1c-1.1-0.1-1.7,0.4-2.5,1c-1.6,1.2-2.7,3-4.6,3.8c-0.8,0.3-1.4,1.1-2.1,1.7c-0.1,0.6,0.1,0.9,0.7,1
		c1.5,0.1,3,0.2,4.5,0.3c0.2,0,0.4-0.1,0.5,0c1.2,1,2.6,0.5,4,0.5c0.1,0,0.2,0,0.3,0c2.1,0.7,4.4,0.5,6.4,1.7
		c0.1,0.1,0.3,0.3,0.5,0.2c2.6-0.4,4.9,0.8,7.4,1.3c1.2,0.3,2.5,0.4,3.8,0.5c0.3,0,0.6,0,0.9,0.1c3,0.7,6,1.5,9.1,2.2
		c1.9,0.4,3.9,0.7,5.8,1.2c2,0.5,4,1.1,6,1.7c0.3,0.1,0.5,0.3,0.8,0.3c1.9,0,3.7,0.5,5.5,1.2c1.6,0.6,3.4,0.9,5.1,1.4
		c0.3,0.1,0.7,0.2,1,0.3c1.5,0.5,2.8,1.5,4.4,1.8c1.4,0.3,2,1.5,2.1,3c0.1,1.7,0.4,3.3,0.7,5c0.4,2.3,0.8,4.6,0.5,6.9
		c-0.1,0.7,0,1.5,0.1,2.2c0.2,1.5,0.4,3.1,0.5,4.6c0.3,3.3,0.6,6.6,0.9,9.8c0,0.4-0.2,0.9-0.2,1.4c0,0.6-0.1,1.2,0.1,1.7
		c0.9,2.3,0.7,4-0.8,5.8c0.9,1.4,1.9,2.8,2.8,4.3c0.1,0.1,0.2,0.2,0.2,0.3c1.8,2.1,1.7,3.9-0.5,5.5c-1.3,0.9-2.4,2.3-4.2,2.7
		c-0.2,0-0.4,0.4-0.6,0.6c-0.9,1.9-2.7,2.5-4.4,3.3c-0.5,0.2-1.3,0-1.8-0.3c-1.3-0.8-2.4-1.8-3.6-2.7c-0.3-0.2-0.8-0.4-1.2-0.5
		c-0.6-0.1-1.2-0.1-1.8-0.3c-1.6-0.6-1.8-0.9-1.4-2.6c0.2-0.8,0.1-1.5-0.5-2.3c-1.7-2.2-1.6-3.8,0.1-5.9c0.3-0.4,0.6-0.7,0.9-1.2
		c-1.6-1.3-1.8-3.1-1.8-5c0-0.6-0.2-1.1-0.3-1.7c-0.5-2.1-1-4.2-0.7-6.3c0.1-0.7,0.1-1.4-0.2-2.1c-0.4-1.2-0.8-2.4-0.4-3.7
		c0.1-0.2-0.1-0.4-0.2-0.6c-0.3-0.8-0.7-1.6-1-2.4c-3.1-1.3-6.7-1.5-10.1-2c-1.3-0.2-2.6-0.6-3.9-1c-1.1-0.3-2-1-3.3-0.4
		c-0.4,0.2-1-0.1-1.7-0.2c0.1,0.8,0.2,1.6,0.3,2.3c0.3,1.6,0.5,3.2-0.1,4.8c-0.1,0.3,0,0.7,0.1,1c0,0.4,0.2,0.8,0.1,1.2
		c-0.4,1.9,0.2,3.7,0.3,5.6c0.1,2.8,0.6,5.5,0.6,8.3c0,1.8,0.6,3.5-0.1,5.3c-0.3,0.9,0.2,2,0.2,3c0.1,1.4,0.1,2.9,0.2,4.3
		c0.1,1.1,0.3,2.3,0.4,3.4c0.1,1.7,0,3.3,0.1,5c0.1,1.8,0.2,3.7,0.3,5.5c0.2,4.5,0.3,9-0.1,13.6c-0.1,1.3-1,1.9-2.3,1.8
		c-0.6-0.1-1.1-0.2-1.9-0.4c0.2,0.6,0.3,1,0.5,1.3c0.4,0.6,0.9,1.2,1.4,1.8c1.6,2,3.2,3.9,4.8,5.9c1,1.2,1.8,2.5,2.7,3.8
		c0.3,0.4,0.5,0.8,0.8,1.1c2.4,3.3,4.9,6.4,7.1,9.8c1,1.5,2.1,2,3.8,2.3c1.9,0.3,3.6,1,5.4,1.6c1.8,0.6,3.5,1.2,5.3,1.8
		c2.1,0.7,4.1,1.5,6.2,2.3c3.1,1.1,6.2,2.2,9.3,3.3c0.4,0.1,0.8,0.3,1.1,0.5c2.5,1.3,5,2.5,7.8,3c2.1,0.4,3.9,1.6,5.6,2.8
		c0.8,0.5,1.9,0.6,2.9,0.8c0.6,0.1,1.3,0.1,1.9,0.3c1.5,0.6,2.9,1.2,4.3,1.9c1.3,0.6,1.9,1.8,1.6,3.3c0,0.2-0.2,0.4-0.1,0.5
		c0.8,2.4-1.1,4.4-1,6.7c-1.5,2.6-1.7,5.7-2.7,8.5c-0.9,2.7-2,5.3-2.8,8c-0.3,1-0.7,2.1-1.2,3.1c-1,2.1-3.9,2.5-5.5,0.9
		c-0.2-0.2-0.4-0.5-0.4-0.7c0.2-2-1.3-3.7-1.2-5.7c0.1-1-0.4-2.1-0.7-3.1c-0.3-1.3-0.7-2.7-1-4c-0.2-0.8-0.5-1.3-1.3-1.5
		c-2.1-0.7-4.1-1.6-6.4-1.3c-1.2,0.1-2.4-0.1-3.5-0.8c-0.6-0.4-1.3-0.6-2.1-0.3c-0.5,0.2-1.1,0-1.7-0.1c-4.4-0.8-8.8-1.6-13.2-2.5
		c-1.2-0.2-2.4-0.5-3.6-0.8c-0.3-0.1-0.7-0.1-1-0.1c-1.8,0-3.5-0.2-5.2-0.9c-0.8-0.3-1.8-0.1-2.7-0.2c-1.8-0.1-3.5-0.4-5.2-1.2
		c-0.3-0.1-0.7-0.2-1-0.2c-2.8,0.2-5.4-0.7-8.1-1.1c-1.3-0.2-2.6-0.6-3.9-0.9c-2.1-0.5-3.5-1.9-4.4-3.9c-0.5-1-0.9-2.2-2.2-2.6
		c-0.3-0.1-0.5-0.4-0.6-0.6c-2.1-3.2-5.1-5.8-6.8-9.4c0-0.1-0.1-0.2-0.2-0.3c-2.1-1.3-3.2-3.6-4.6-5.5c-1.4-1.8-2.8-3.5-4.2-5.2
		c-0.6-0.7-0.8-1.7-1.5-2.5c-1.3-1.3-2.3-2.9-3.4-4.3C122.3,176.7,121.5,175.8,120.5,174.6z"/>
	<path class="st0" d="M105.4,156.3c-2.1-0.2-3.8-1.9-5.8-0.5c-1.2-0.9-2.1-1.9-3.7-1.5c-0.1,0-0.2,0-0.3-0.1
		c-2.7-1.5-5.8-1.6-8.8-2.2c-1.1-0.2-1.3-0.4-0.9-1.5c0.3-0.8,0.5-1.5,0.7-2.3c0.4-1.3,0.8-2.7,1.1-4c0.3-1.6,0.4-3.3,0.7-5
		c0.1-0.7,0.5-1.3,0.6-2c0.2-1,0.3-2.1,0.3-3.1c0.1-1.6,0.4-3.1,0.2-4.7c-0.2-1.3-0.3-2.5-0.2-3.7c0-0.3,0-0.7,0.1-1
		c0.2-1.2,0.6-2.4,0.1-3.7c-0.2-0.6,0-1.5,0-2.2c0-2,0.1-3.9,0.1-5.9c0-1.4,0.3-2.9-0.4-4.3c-0.1-0.3,0.1-0.7,0.2-1
		c0.4-1.6,0.5-3.2,0-4.8c-0.1-0.5-0.1-1-0.1-1.5c0.1-1.2,0.2-2.4-0.4-3.6c-0.1-0.3-0.2-0.7-0.2-1c0-1.9-0.4-3.5-2.5-4.3
		c-0.4-0.1-0.8-0.5-1.1-0.8c-0.9-1-2.1-1.6-3.5-1.8c-0.4-0.1-0.9-0.3-1.3-0.3c-1.4-0.2-2.4-1.1-3.5-1.8c-1.2-0.7-2.5-1.1-3.8-1.6
		c-0.5-0.2-1-0.5-1.5-0.8c-0.4-0.3-0.8-0.7-1.3-0.9c-2.6-0.8-4.9-2.4-7.4-3.5c-1.2-0.5-2.6-0.6-3.6-1.5c-1.6-1.5-4-1.5-5.7-2.9
		c-0.7-0.6-1.8-0.6-2.7-1.1c-1.7-0.9-3.3-1.8-5.3-2.1c-0.3,0-0.7-0.2-0.9-0.4c-1.3-1.1-3-1.5-4.5-2.2c-1.2-0.5-2.3-1.1-3.4-1.6
		c-0.6-0.3-1.3-0.4-2-0.5c-0.3-0.1-0.7,0-0.8-0.2c-1.2-1.3-3-1.3-4.4-2c-0.5-0.2-1-0.4-1.5-0.4c-1.2,0.1-2-0.4-2.7-1.5
		c0.9-3.3,1.9-6.7,2.9-10.2c1.5,0.3,2.9,0.6,4.3,0.9c1.7,0.3,3.4,0.7,5.1,1c0.6,0.1,1.2,0.4,1.8,0.5c2.4,0.4,4.9,0.7,7.4,1.1
		c2.6,0.4,5.2,0.6,7.6,1.6c0.4,0.1,0.8,0.4,1.2,0.3c1.8-0.2,3.3,0.3,4.8,1.1c0.1,0,0.1,0,0.2,0c2.2-0.4,4.1,1.4,6.4,0.9
		c0.2-0.1,0.5,0.1,0.8,0.2c2.1,0.8,4.2,1.2,6.4,1.5c2.2,0.3,4.4,1,6.6,1.5c2.7,0.7,5.3,1.8,8.2,1.4c0.3,0,0.6,0.2,1,0.3
		c1.4,0.4,2.8,1.2,4.3,1c0.1,0,0.2,0,0.3,0c1.9,0.4,3.7,0.8,5.6,1.2c0.4,0.1,0.8,0.4,1.4,0.7c0,1.7,0,3.4,0,5.1
		c0,0.6,0.2,1.1,0.3,1.7c0.3,1.3,0.6,2.6,1,3.8c0.3,0.9,0.7,1.8,1.7,2.1c0.9,0.3,1.7-0.3,2.3-0.9c0.9-0.9,1.7-2,2.9-2.7
		c0.8-0.5,1.2-1.5,1.9-2.2c0.5-0.6,1-1.1,1.5-1.7c0.7,0.8,1.3,1.4,1.2,2.4c0,0.3,0.2,0.6,0.4,0.9c0.9,1.8,2,3.6,2.4,5.6
		c0.2,1.2,1.7,1.6,2.7,0.8c1.6-1.4,3.3-2.8,4.8-4.3c1.9-1.9,3.7-3.8,5.5-5.7c0.5-0.6,1-1.3,1.4-2c0.8-1.2,1.7-1.4,3.2-1.4
		c2.1,0,4,1.2,6.1,0.7c0.1,0,0.3,0,0.3,0c2.1,1.5,4.6,1.3,6.9,1.8c1.2,0.3,2.3,0.7,3.5,1c3.5,0.8,7,1.5,10.5,2.2
		c1.9,0.4,3.8,1,5.7,1.4c2,0.4,4.1,0.8,6.1,1.2c1.1,0.2,2.1,0.6,3.1,0.9c3.3,1,6.6,1.9,9.9,2.8c0.5,0.1,1.1,0.1,1.9,0.1
		c0.1,0.1,0.3,0.5,0.6,0.7c0.7,0.7,0.8,1.4,0.6,2.4c-0.2,0.7-0.3,1.7,0.1,2.2c1.1,1.4,0.9,3.1,1.1,4.6c0.2,1.2,0.3,2.4,0.4,3.6
		c0.1,1.1,0,2.2,0,3.3c0,0.9,0.2,1.7,0.2,2.6c0.3,3.6,0.5,7.3,0.7,10.9c0,0.4,0.3,0.8,0.4,1.1c0.1,0.5,0.1,1,0,1.5
		c-0.1,0.7-0.3,1.3-0.5,2.2c-0.7,0.5-1.8,0.8-2.8,0.6c-2.8-0.5-5.5,0.1-8.5,0.3c-0.2-1.3-0.6-2.6-0.8-3.9c-0.3-2.2-0.4-4.4-1.3-6.5
		c-0.4-0.9-0.3-2-0.4-3c0-0.2,0.1-0.4,0-0.5c-0.9-1.3-0.8-2.8-0.7-4.3c0-0.6-0.1-1.2-0.1-1.9c0.1-0.9-0.3-1.6-1-1.8
		c-1.3-0.4-2.5-1-4-0.9c-1.5,0-3.1-0.4-4.6-0.7c-2.9-0.7-5.8-1.8-8.8-1.3c-0.2,0-0.5,0-0.6-0.2c-0.9-1-2.1-0.7-3.3-0.7
		c-0.6,0-1.2,0-1.9,0c-1,0-1.7,0.6-1.6,1.6c0.1,2.2,0,4.5,0.4,6.7c0.4,2.1-0.1,4.4,0.8,6.4c0,0.1,0.1,0.3,0,0.3
		c-0.9,1.6,0,3.3-0.1,4.9c-0.1,1.7,0.1,3.4,0.1,5c0.1,1.4,0.1,2.9,0.2,4.3c0,0.9,0.1,1.8,0.4,2.7c0.3,1,0.1,2.1,0.1,3.2
		c0,1.3,0.1,2.6,0.1,4c0,0.9,0,1.8,0,2.8c0.1,2,0.2,4,0.3,6.1c0.1,1.6,0,3.2,0.1,4.9c0.1,3.6,0.3,7.2,0.4,10.8c0,0.6,0,1.2-0.1,2
		c-1-0.1-1.8-0.3-2.5-0.3c-2.9,0-5.8,0.2-8.6,0.2c-1.9,0-3.8-0.4-5.7-0.4c-1.1,0-2.3,0.1-3.4,0.3c-1.9,0.3-3.7-0.7-5.6-0.6
		c-1.6,0.1-3.2-0.1-4.8-0.2c-0.5,0-1,0.3-1.5,0.3c-0.9,0.1-1.7,0.1-2.6,0c-0.7-0.1-1.1-0.5-1.4-1.3c-0.4-1.2-0.9-2.3-1.1-3.6
		c-0.1-0.8-0.8-1.5-1.1-2.3c-0.3-0.7-0.5-1.4-0.6-2.2c-0.1-1.6-1.1-2.8-1.9-4c-0.7-1.2-1.6-1.1-2.5,0c-0.8,1-1.8,1.8-1.9,3.2
		c-1.3,1-0.9,2.9-2.1,4c-0.2,0.1-0.3,0.4-0.3,0.6C107,154.6,106.2,155.4,105.4,156.3z"/>
	<path class="st1" d="M53.4,247.7c-0.8-0.2-1.6-0.1-2.1-0.5c-2.2-1.6-5-1.4-7.2-2.9c-0.2-0.1-0.4-0.2-0.7-0.2
		c-1.6,0.1-2.8-0.7-4.2-1.6c0.2-1.1,0.6-2.2,0.7-3.4c0.4-3.2,1.6-6.2,1.8-9.5c0.1-0.9,0.7-1.9,0.8-2.8c0.2-2.8,1.3-5.5,1.7-8.3
		c0.2-1.8,0.9-3.5,1.4-5.3c0.2-0.8,0.1-1.6,0.3-2.4c0.3-1.4,0.7-2.9,1.1-4.3c0.2-0.9,0.5-1.7,0.7-2.6c0.4-1.4,0-2.9,1.1-4.1
		c0.3-0.4,0.2-1.2,0.3-1.8c0.2-0.8,0.2-1.7,0.5-2.5c0.8-2.3,1.9-4.6,2.1-7.1c0.1-1,0.5-1.9,1.3-2.6c1.1-0.9,2-1.8,2.8-3
		c0.6-0.9,1.7-1.6,2.6-2.2c1.4-0.9,2.5-2.1,3.4-3.4c0.2-0.3,0.4-0.8,0.8-0.9c1.9-0.6,2.8-2.1,3.8-3.6c0.2-0.2,0.4-0.5,0.6-0.6
		c2.8-1.2,5-3.2,7.4-5.1c1.8-1.4,3.3-3.1,5.2-4.4c1.5-1.1,2.9-2.2,4.2-3.6c0.4-0.4,1.1-0.5,1.6-0.9c0.9-0.7,1.7-1.4,2.9-2.4
		c1,0.3,2.5,0.8,4,1.2c0.5,0.1,1,0.3,1.5,0.3c0.8-0.1,1.4,0.2,2.1,0.4c0.9,0.3,2,0.2,3.3,0.3c0.8,1.1,2.3,1.4,3.8,1.5
		c1,0.1,2.1,0.2,3.1,0.3c0.7,0.1,1.4,0,1.7-0.6c1-1.9,2.5-3.6,2.9-5.8c0-0.2,0.1-0.4,0.3-0.6c0.5-0.7,1-1.4,1.5-2.2
		c0.5,0.6,0.9,1.3,0.9,2.2c0,1.3,0.3,2.5,1,3.6c0.2,0.3,0.2,0.8,0.3,1.1c0.2,0.7,0.3,1.3,0.7,1.9c0.9,1.8,2.3,2.6,4.4,2.1
		c0.6-0.1,1.3-0.1,1.9,0.1c2.5,1,5,0.4,7.5,0.8c0.7,0.1,1.6,0.1,2.2-0.1c1.2-0.4,2.4-0.1,3.6,0.1c2.4,0.5,4.7,0.6,7.1,0.3
		c0.9-0.1,1.9,0,2.8,0c0.9,0,1.9,0.2,2.8,0.1c1.6-0.3,2.5,0.2,3.5,1.6c1.3,1.9,2.6,3.9,4.4,5.5c0.8,0.8,1.3,1.9,1.9,2.9
		c1.1,1.4,2.2,2.8,3.3,4.2c0.2,0.3,0.5,0.7,0.7,1c1.8,2.7,3.5,5.4,5.4,8.1c1,1.4,2.2,2.7,3.4,3.9c0.3,0.3,0.6,0.5,1,0.6
		c1,0.4,2.1,0.7,3.1,1.1c3,0.9,6.1,1.8,9.1,2.8c3.1,1,6.2,2.2,9.2,3.5c3,1.3,6.2,2.2,9.3,3.3c2.1,0.7,4.1,1.5,6.2,2.3
		c1.2,0.5,2.5,1,3.8,1.6c0.2,0.5,0.3,1-0.1,1.6c-0.6,0.8-0.9,1.9-1.2,2.8c-0.5,1.6-0.9,3.3-1.5,4.9c-0.4,1-0.9,2-1.4,3
		c-0.2,0.3-0.7,0.5-1,0.5c-1.9-0.2-3.8,0.2-5.6-0.7c-0.2-0.1-0.3-0.2-0.5-0.1c-2.8,0.7-5.2-1.2-7.9-1.5c-3.5-0.4-7-1.2-10.5-1.7
		c-1.2-0.2-2.5-0.3-3.8-0.5c-0.3,0-0.6-0.1-0.8-0.2c-1.7-0.7-3.5-0.9-5.4-0.8c-1,0.1-2-0.5-3-0.8c-1.6-0.4-3.3-0.6-5-0.3
		c-0.8,0.1-1.6-0.2-2.4-0.4c-2-0.5-4.1-1-6.1-1.4c-1.6-0.4-3.3-0.7-4.6-1c-0.9-1-1.6-1.8-2.3-2.6c-0.7-0.8-1.7-1.4-1.8-2.7
		c0-0.3-0.3-0.6-0.5-0.9c-2.6-2.8-4.4-6.2-7.4-8.7c-0.2-0.2-0.3-0.6-0.4-0.9c-0.1-0.3-0.2-0.7-0.4-0.9c-1.1-1.3-2.2-2.6-3.2-3.9
		c-0.9-1.1-1.7-2.3-2.7-3.4c-1-1.1-1.6-2.5-3-3.3c-0.8-0.5-1.5-1.5-1.9-2.4c-0.7-1.7-2.2-2.8-3.2-4.3c-0.7-1.1-1.6-2.1-3-2.6
		c-1-0.3-1.8-0.2-2.6,0.6c-1.1,1.1-2.6,1.9-3.6,3.3c-0.1,0.2-0.6,0.3-0.9,0.4c-1.2,0.2-2.3,0.6-3.4,1.3c-2.4,1.4-4.9,2.7-7.3,4.1
		c-0.9,0.5-1.7,1.3-2.5,2.1c-0.5,0.5-0.9,0.8-1.6,0.8c-1.9,0.2-3.7,1.2-5.2,2.3c-2.2,1.7-4.9,2.6-7.2,4.1c-0.9,0.6-1.8,1.3-2.7,1.9
		c-0.8,0.5-1.7,1-2.5,1.5c-1.3,0.8-2.6,1.5-3.8,2.3c-1.2,0.9-2.1,2.1-3.7,2.4c-1.5,1.7-3.9,2.6-4.6,5c-0.1,0.3-0.4,0.7-0.3,1
		c0.2,1-0.3,1.7-0.7,2.4c-2.1,3.9-3.4,8.1-5.1,12.1c-1.2,3-2.6,6-3.9,9c-0.5,1.3-0.9,2.7-1.4,4.1c-0.3,0.9-0.7,1.7-1.1,2.5
		c-0.1,0.3-0.4,0.6-0.4,0.9c0,1-0.6,1.7-0.8,2.6c-0.3,1.2-0.7,2.4-1.2,3.5C54.3,243.9,54,245.7,53.4,247.7z"/>
	<path class="st1" d="M101.7,20.8c-1.5-1.4-0.7-3.1-1.2-4.6c-0.1-0.2,0.1-0.6,0.2-0.8c0.8-1,0.7-2.2,0.7-3.3c0-0.3-0.2-0.9-0.4-1
		c-0.4-0.1-1,0-1.3,0.2c-0.8,0.9-1.8,1.7-1.8,2.8c-1.3,0.7-2.5,1.1-3.5,1.9c-0.9,0.7-1.7,1.7-2.5,2.6c-0.1-0.1-0.2-0.1-0.3-0.2
		c0-0.3,0-0.6,0.1-0.9c0.1-0.4,0.4-0.9,0.4-1.3c0-2.9,2-5,2.9-7.5c1.1-0.5,1.5-1.7,2.7-2.1c1.1-0.4,1.9-1.4,3.2-1.7
		c2.6-0.7,5.1-0.8,7.5,0.7c2.1,1.4,4,0.4,5.8-0.5c1-0.5,1.8-1,2.9-0.8c0.3,0,0.6,0,0.9-0.1c3-1,5.7-0.3,8.4,0.9
		c2,0.8,3.7,1.9,5.1,3.5c1,1.1,1.8,2.4,2.6,3.6c0.8,1.3,1.7,2.2,3.2,2.3c0,0.4,0,0.7,0.1,1.1c0.4,1.2,1.6,1.6,2.4,0.7
		c0.7-0.7,1.6-1.4,1.6-2.6c0-0.4,0.3-0.9,0.4-1.4c0.9,0.9,1.2,1.8,0.5,2.9c-0.2,0.3-0.3,0.8-0.2,1.2c0.2,0.8-0.1,1.3-0.4,2
		c-0.6,1-0.5,1.8,0.1,2.4c0.7,0.6,1.5,0.9,2.4,0.4c0.9-0.5,1.8-0.4,2.6,0c0.8,0.4,1.6,0.8,2.8,1.4c-1.3,0.2-2.2,0.3-3.1,0.5
		c-1.5,0.3-3.1,2.2-2.9,3.7c0.1,0.6,0.6,1.2,1.1,1.7c1.1,1.3,2.2,2.5,3.3,3.8c0.2,0.2,0.2,0.6,0.4,1c0.2,0.7,0.3,1.4,0.7,2
		c1.1,1.5,0.7,3,0.4,4.6c-0.5,2.6-1.8,4.9-3.8,6.7c-0.4,0.4-0.7,0.9-1.1,1.3c-0.6,0.7-1.2,1.3-1.9,2c-0.6,0.6-1.4,0.9-1.8,1.6
		c-1.3,2.2-3.3,3.3-5.4,4.4c-0.5,0.2-0.9,0.5-1.5,0.8c-1.1-1.1-2.3-2.2-3.4-3.4c-0.5-0.5-0.3-1.2,0.4-1.6c1.6-0.7,2.1-2,2.2-3.6
		c0-0.1,0-0.3,0-0.3c1.2-2-0.2-3.5-0.9-5.2c-0.5-1.2-1.8-1.3-2.8-1.6c-1-0.3-2.1-0.3-3.1-0.4c-0.4,0-0.8,0.3-1.2,0.5
		c-0.2,0.1-0.5,0.5-0.7,0.5c-1.5-0.1-2.4,1-3.5,1.9c-0.6-0.3-1.1-0.6-1.7-0.9c0-0.4-0.1-0.7,0-1c0.3-1,0.7-1.9,1.1-2.9
		c0.6-1.9,0.2-3-1.3-4.3c-2.1-1.8-4.2-3.6-6.1-5.7c-1-1.1-1.6-2.6-2.4-4c-0.5-0.8-0.9-1.6-1.3-2.5c-0.2-0.5-0.3-1-0.3-1.5
		c-0.1-1.2-0.2-2.4-0.4-3.6c-0.2-1.1-1-1.4-2-0.9c-1.6,0.9-3,2.1-3.8,3.8C102.6,20,102.1,20.4,101.7,20.8z"/>
	<path class="st1" d="M128.5,49.8c-1.6,0.2-1.9,1.6-2.4,2.8c-0.3,0.7,0.1,1.1,0.5,1.6c1.1,1.3,2.2,2.5,3.3,3.7
		c-1.5,1-3.2,2.4-5.1,3.6c-1,0.6-2.1,1-2.6,2.2c-0.2,0.5-0.4,1-0.5,1.6c-0.1,0.3-0.1,0.7-0.2,1c-0.1,1.8-1.3,2.6-2.8,3
		c-0.6,0.2-1.2,0.4-1.7,0.8c-1.7,1.2-2.9,1.2-4.6,0.3c-1.1-0.7-2.3-1.4-3.5-1.9c-0.9-0.4-1.1-0.9-1.1-1.7c0-0.9,0.5-1.9-0.3-2.7
		c-1.1-0.9-2.2-1.7-3.4-2.3c-0.9-0.5-2-0.4-3-0.8c-1.2-0.4-2.3-1-3.4-1.5c-0.7-0.3-1.4-0.7-2.2-1c-2.5-0.9-4.8-2-6.1-4.6
		c-0.3-0.6-0.5-1.2-0.7-1.8c0.5-0.2,0.9-0.3,1.3-0.4c2.4-0.6,4.1-2.1,5.3-4.2c1.2-1.9,0.4-3.2-1.7-3.7c-1.3-0.3-2.7-0.5-4.1-0.8
		c-1-0.2-1.8-0.5-2-1.6c-0.1-0.4-0.5-0.7-0.9-0.9c-1-0.5-1.7-1.4-2.4-2.5c0.6-0.4,1.1-0.9,1.7-1.1c1.1-0.5,2.2-0.9,3.3-1.4
		c0.8-0.4,1.2-1,1.3-1.9c0.3-2.3,0.6-4.6,1-6.8c0-0.1,0.1-0.2,0.1-0.3c0.9-1.9,1.3-4.1,2.7-5.7c0.3-0.3,0.4-0.8,0.6-1.2
		c0.5-0.9,1-1.7,2.3-2c0.1,1,0.3,2,0.3,2.9c0,1.8,1.8,5,3.2,5.7c1.1,0.6,1.7,0.4,2.3-0.7c0.6-1.2,1.1-2.4,1.7-3.6
		c0.3-0.6,0.8-1.2,1.1-1.8c0.1,0,0.3,0.1,0.4,0.1c0.1,0.9,0.2,1.9,0.4,2.8c0.1,0.5,0.1,1,0.2,1.5c0.5,1.6,1.3,3.1,2.5,4.3
		c0.4,0.4,0.7,0.8,1,1.2c1,2,2.8,3.2,4.3,4.7c0.4,0.4,0.9,0.7,1.4,0.9c0.8,0.3,1.1,0.9,0.8,1.7c-0.4,1.2-0.8,2.4-1.3,3.6
		c-0.8,1.9-0.6,2.9,1.3,4c0.8,0.5,1.8,0.8,2.6,1.2c0.2,0.1,0.5,0.3,0.7,0.5c0.9,0.9,1,0.9,1.9,0c0.8-0.8,1.6-1.7,2.5-2.3
		c1.2-0.8,2.6-0.7,3.9-0.3c1.1,0.3,1.5,2,0.9,3.3c-0.2,0.5-0.5,0.9-0.7,1.4C128.8,48.8,128.7,49.3,128.5,49.8z"/>
	<path class="st0" d="M216,234.9c-0.7,0-0.9-0.3-0.7-0.8c0.4-1,0.1-1.9-0.2-2.9c-0.5-1.7-0.8-3.4-1.3-5.1c-0.6-1.9-1-4-1.9-5.7
		c-1-1.9-0.5-3.5,0.3-5.2c0.4-0.8,0.6-1.8,1-2.6c0.7-1.3,0.4-2.9,1.6-4.1c0.4-0.4,0.4-1.2,0.7-2c0.9,0.4,1.7,0.7,2.5,1.1
		c0.5,0.2,1.1,0.6,1.6,0.6c1.6,0,2.7,1,3.8,2.3c-0.5,1.5-1,3.1-1.6,4.7c-0.1,0.2-0.2,0.3-0.2,0.5c-0.1,3.1-1.7,5.7-2.4,8.6
		c-0.7,2.5-0.8,5.3-2,7.7C216.8,232.9,216.5,233.8,216,234.9z"/>
	<path class="st0" d="M24.2,250.6c0.5-0.3,0.8-0.7,1.1-0.6c2.4,0.2,4.5-0.6,6.8-1.1c1.4-0.3,2.8-0.5,4.2-0.8
		c0.8-0.2,1.6-0.3,2.4-0.6c0.6-0.2,1.1-0.6,1.4-0.9c3.6,1.2,7.1,2.5,10.7,3.7c-0.4,2.8-2,5.4-3,8.2c-2.3-1-4.4-2.1-7-1.5
		c-0.6-1.2-1.7-1.6-3.1-1.7c-1-0.1-1.9-0.6-2.9-0.9c-2.3-0.6-4.4-1.8-6.9-1.9C26.5,252.4,25.5,251.2,24.2,250.6z"/>
	<path class="st1" d="M24.2,54.6c0.5,1.6-0.7,2.9-1.1,4.4c-0.2,0.8-0.5,1.7-0.6,2.5c-0.4,2.2-2.8,3.6-4.9,2.7
		c-1.8-0.8-3.5-1-5.4-0.5c-0.7,0.2-1.5,0.5-2.1-0.7c1-0.3,2-0.5,3-0.8c1.4-0.4,2.8-0.7,4.1-1.2c2.2-0.8,2-2.2,0.8-4
		c-0.4-0.6-0.8-1-1-1.8c-0.3-1.1-1.2-1.4-2.2-0.7c-0.6,0.4-1.1,0.5-1.7,0.6c-0.8,0.1-1.7,0.5-2.4,0.9c-0.7,0.4-0.8,1.2-0.4,2
		c0.3,0.6,0.6,1.1,0.9,1.7c-1.7,0.5-1.9,0.4-2.6-0.8c-0.5-0.8-0.9-1.7-1.4-2.7c0.8-0.2,1.3-0.4,1.8-0.6c0.6-0.3,1.2-0.5,1.6-0.9
		c0.5-0.5,0.9-0.8,1.6-0.9c1.1-0.3,1.4-1.2,0.6-2.1c-0.5-0.5-1.1-1-1.7-1.1c-1.6-0.4-3.2-0.9-4.5-2c-0.3-0.2-0.7-0.3-1.1-0.4
		c-0.6-0.2-1.3-0.4-2.1-0.7c0.3-0.6,0.5-1.1,0.7-1.8c3.1,2.3,6.5,3.3,9.9,4.7C17.3,51.7,20.7,53.1,24.2,54.6z"/>
	<path class="st1" d="M187.1,129.7c-0.1,0.6-0.2,1.1-0.4,1.7c-0.3,1.1,0,1.9,0.8,2.2c0.9,0.4,1.8,0,2.2-1.1c0.4-1.1,1-2.1,1.2-3.2
		c0.5-2.6-0.7-4.2-3.3-4.4c-0.8-0.1-1.3,0.3-1.7,1c-0.9,1.6-1.9,3.2-2.9,4.8c-0.2,0.3-0.5,0.7-0.8,0.7c-0.6,0-0.6-0.5-0.7-1
		c-0.1-0.5-0.3-1-0.6-1.4c-1-1.9-0.5-3.3,1.3-4.4c1-0.6,2-1.2,3-1.7c0.3-0.2,0.6-0.2,1-0.3c1.1-0.1,2.2-0.1,3.2-0.3
		c1.1-0.2,1.9-0.2,2.6,1c0.8,1.4,1.8,2.6,2.7,4c0.3,0.5,0.5,1,0.9,1.7c-0.7,0.6-1.3,1.2-2,1.7c-0.7,0.6-1.7,1-1.9,2.1
		c0,0.2-0.3,0.3-0.5,0.4c-0.7,0.5-1.4,0.9-1.9,1.4c-0.5,0.4-0.9,0.5-1.4,0.3c-1-0.5-2.1-1-3.1-1.5c0.7-1.2,1.4-2.5,2.1-3.8
		C186.9,129.6,187,129.7,187.1,129.7z"/>
	<path class="st1" d="M116.1,74.7c0.7-1.1,1.5-1.3,2.3-1.6c1.3-0.5,2.5-1.3,3.8-2c0.2-0.1,0.4-0.4,0.7-0.5c1.1-0.7,2.2-1.3,3.7-0.7
		c1,0.4,2.2,0.4,3.4,0.6c0.1,0,0.1,0.1,0.3,0.3c-4,2.5-6.8,6.3-10.6,9.3C117.9,78.6,117.8,76.1,116.1,74.7z"/>
	<path class="st1" d="M103.7,70.1c1.5-0.3,2.4,0.1,3.2,0.8c0.9,0.8,2,1.5,3.2,2.3c-0.2,1.2-1.6,1.5-2.3,2.4
		c-0.7,0.9-1.5,1.8-2.6,2.6c-0.2-1.4-0.3-2.7-0.5-4.1C104.5,72.9,104.1,71.6,103.7,70.1z"/>
	<path class="st1" d="M14.5,57.7c0.2,0.2,0.3,0.4,0.3,0.5c-0.1,0.2-0.3,0.4-0.5,0.5c-0.1-0.1-0.2-0.3-0.2-0.4
		C14.2,58.1,14.4,57.9,14.5,57.7z"/>
	<path d="M112.3,139.1c-1.7,0-2.3-0.7-1.9-2c0.1-0.3,0.3-0.6,0.4-1c0.2-0.8,0.4-1.5,1.4-1.5c0.7,0,1.8,0.8,2.1,1.6
		c0.3,0.8,0.2,1.6-0.5,2.2C113.2,138.8,112.6,139,112.3,139.1z"/>
	<path d="M113,120.4c0,1.4-0.5,2.1-1.5,2.1c-0.9,0-2-0.9-2-1.6c0-1.1,0.9-2.4,1.9-2.3C112.4,118.6,113.1,119.3,113,120.4z"/>
	<path d="M113.4,87c0,1.5-0.5,2.1-1.7,2c-1.1,0-1.9-0.7-1.9-1.6c0-1,1-2,2-1.9C112.9,85.5,113.4,86,113.4,87z"/>
	<path d="M109.7,103.2c0-1.1,0.7-2,1.5-2c1,0,2,1.1,2,2.2c0,0.9-0.6,1.6-1.5,1.6C110.6,105.1,109.7,104.3,109.7,103.2z"/>
	<path class="st0" d="M98.8,41.7c-1.3-0.2-3.3-1.6-3.6-2.7c-0.2-0.8,0.6-2.1,1.6-2.5c1.4-0.5,3.9,0,4.9,1.4c0.7,1.1,0.6,2.1-0.5,2.8
		C100.4,41.2,99.6,41.4,98.8,41.7z"/>
	<path d="M97.3,33.1c0,1.2-0.9,2.1-2.1,2.2c-1.1,0.1-2.2-1.1-2.2-2.3c0-1.1,1-2,2.2-2C96.3,30.9,97.3,31.9,97.3,33.1z"/>
</g>
</svg>
