<?xml version="1.0" encoding="utf-8"?>
<!-- Generator: Adobe Illustrator 25.0.0, SVG Export Plug-In . SVG Version: 6.00 Build 0)  -->
<svg version="1.1" id="_xEFF5__xEED3__x5F_7" xmlns="http://www.w3.org/2000/svg" xmlns:xlink="http://www.w3.org/1999/xlink"
	 x="0px" y="0px" viewBox="0 0 157.7 202.9" style="enable-background:new 0 0 157.7 202.9;" xml:space="preserve">
<style type="text/css">
	.st0{fill:#FFFFFF;}
	.st1{fill:#FDD23E;}
</style>
<g>
	<path d="M27.7,124.2c-1-0.2-1.8-0.4-2.6-0.6c-0.3-0.1-0.5-0.1-0.8-0.1c-1.3,0-2.1-0.7-2.3-2c-0.1-0.8-0.3-1.5-0.5-2.3
		c-0.1-0.9-0.2-1.8-0.3-2.7c-0.1-0.5-0.2-1-0.2-1.6c0-1.5,0.2-2.9,0.2-4.4c0-2,0.9-3.9,0.4-6c-0.1-0.3-0.2-0.7-0.4-0.8
		c-1-0.6-2-1.1-3-1.6c-0.9-0.5-1.7-1-2.5-1.6c-1-0.7-1.9-1.5-2.7-2.2c-0.7-0.7-1.4-1.4-2.1-2.2c-0.7-0.8-1.6-1.6-2.1-2.5
		c-0.9-1.4-1.6-2.9-2.3-4.4c-0.1-0.2-0.1-0.4-0.2-0.5c-1.4-1-1.5-2.7-2.1-4c-0.8-1.8-1.5-3.6-2.2-5.4c-0.2-0.6-0.4-1.3-0.5-2
		c-0.5-1.9-0.9-3.9-1.3-5.9c-0.1-0.5,0.2-1.1,0-1.6c-0.5-1.5-0.2-3,0.1-4.5c0.3-1.9,0.2-3.9,1.4-5.7c0.3-0.4,0.4-1,0.6-1.5
		c0.5-1,0.8-2.2,1.6-3c1-1.1,2.2-2.1,3.5-2.7c1.1-0.4,2-0.9,3-1.6c0.9-0.7,2.3-1,3.4-0.9c2.1,0.1,4.1,0.5,6.2,0.9
		c0.6,0.1,1.2,0.7,1.7,1.1c1.2,0.9,2.4,1.8,3.6,2.7c0.5,0.4,1,0.6,1.4,1c0.6,0.7,1.2,1.4,1.7,2.2c0.5,0.6,1,1.2,1.5,1.8
		c0.3,0.4,0.6,0.8,0.8,1.2c0.5,1,1,2.1,1.5,3.2c0.9,2.1,1.8,4.2,2.6,6.3c1,2.7,2,5.5,3,8.3c0.2,0.4,0.2,0.9,0.2,1.4
		c0.2,1.2,0.4,2.5,0.6,3.8c0.2,1.6,0.8,3.1,0.1,4.7c-0.2,0.4-0.2,1-0.1,1.4c0.6,1.6-0.4,2.6-1.1,3.7c-0.5,1-1.2,1.9-1.7,2.9
		c-0.6,1.1-0.3,1.4,1.2,1.4c1.2,0,2.6,0,3.7,0.4c0.9,0.4,1.6,1.5,2.3,2.4c0.3,0.5,0.4,1.1,0.5,1.7c0.3,1,0.6,2.1,1,3.1
		c0,0.1,0.1,0.2,0,0.3c-0.4,1.3,0.1,2.5,0.7,3.6c0,0.1,0,0.2,0.1,0.3c0.2,1-1.1,1.9,0.1,3.1c0.7,0.7,0.6,2.1,1,3.1
		c0.2,0.6,0.6,1.2,0.9,1.8c0.6,1.1,1.3,2.2,2,3.1c0.4,0.5,1,0.7,1.9,1.2c0.3-1.3,0.5-2.4,0.8-3.4c0.1-0.4,0.2-0.8,0.3-1.3
		c0.7-1.9,1.4-3.8,2.1-5.7c0.2-0.6,0.5-1.1,0.8-1.6c0.7-1.2,1.4-2.4,1.4-3.9c0-0.5,0.3-1,0.6-1.4c1-1.4,1.7-2.8,2.2-4.4
		c0.6-1.7,1-3.7,2.9-4.7c0.1-0.1,0.3-0.3,0.3-0.5c-0.3-2.1,1.1-3.7,2.3-5c0.8-0.9,1.8-1.6,2.5-2.5c0.6-0.8,1.4-1.4,2.3-2.2
		c-1.1,0.3-2.1,0.6-3,0.7c-1.3,0.2-2.6,0.2-3.9,0.3c-0.5,0-1,0.3-1.5,0.3c-1.7-0.1-3.3-0.2-5-0.4c-1-0.1-2-0.4-3-0.4
		c-2.2,0-3.8-1.3-5.4-2.5c-1.7-1.3-2.8-3-3.7-4.8c-0.3-0.6-0.4-1.3-0.2-1.9c0.2-0.7,0-1.1-0.6-1.4c-1-0.5-1.4-1.2-1.3-2.3
		c0-0.2,0-0.5-0.1-0.6c-1.5-1.7-1.3-3.9-2-5.9c-0.1-0.2,0-0.5,0-0.8c0-0.6-0.1-1.2-0.1-1.8c-2.2,0.4-3.4-0.3-4.3-2.6
		c-0.3-0.8-0.8-1.6-1.2-2.4c-0.1-0.2-0.2-0.4-0.3-0.5c-0.3-2.5-1.6-4.7-2.1-7.1c-0.2-0.7,0-1.5-0.1-2.2c-0.1-1.1-0.3-2.3-0.5-3.4
		c0-0.2-0.1-0.5,0-0.7c0.6-1.2,0-2.5,0.1-3.7c0-0.5,0.1-1.3,0.4-1.6c0.8-0.7,1-1.5,1-2.4c-0.1-1.9,1.1-3.3,1.9-4.8
		c1.1-2,2.7-3.6,4.5-5c0.4-0.3,0.7-0.6,1.1-0.7c1.8-0.4,2.7-1.7,3.8-2.9c0.3-0.3,0.7-0.4,1-0.6c0.6-0.3,1.3-0.5,1.8-0.9
		c1.3-1.2,2.8-1.9,4.6-2.1c0.8-0.1,1.5-0.8,2.3-1.1c1.1-0.4,2.3-0.7,3.4-1c0.6-0.2,1.2-0.3,1.8-0.5c0.3-0.1,0.6-0.3,0.9-0.3
		c2.2,0.3,4.2-0.7,6.3-0.8c2.5-0.1,5-0.5,7.6-0.8c0.3,0,0.7-0.2,1,0c1.5,0.8,3,0.2,4.5,0.4c1.5,0.2,3.1,0,4.7,0
		c-0.1-0.6-0.1-1.2-0.3-1.8c-0.5-1.4,0.2-2.8,0.2-4.1c0-0.4,0.1-0.8,0.1-1.2c0.1-0.5,0-1.1,0.3-1.5c0.8-1.3,1.8-2.4,2.7-3.7
		c0.3-0.3,0.5-0.7,0.7-1.1C88.7,2,90,1.9,91,1.5c1-0.4,2-0.6,3.1-0.9c3-0.9,5.8-0.7,8.4,1.3c0.8,0.6,1.4,1.4,2.2,2.1
		c0.2,0.2,0.7,0.2,1,0.1c1.9-0.9,3.9-0.9,5.8-0.1c0.1,0,0.2,0.1,0.4,0.1c2.4,0.3,4.2,1.6,5.8,3.4c1.1,1.2,1.8,2.6,2.1,4
		c0.4,1.9,1.3,3.9,0.4,6c-0.2,0.4,0.5,1.1,0.8,1.6c0.4,0.7,0.8,1.3,1.2,2c0.7,1.4,1.4,2.7,2.1,4.1c0.9,2,1.7,4,0.6,6.2
		c-0.5,1-0.6,2.3-1.3,3.1c-0.9,1.1-1.6,2.6-3.2,2.9c-0.1,0-0.2,0.2-0.3,0.4c-1.1,1.7-2.6,2.9-4.6,3.3c-0.8,0.2-1.5,0.6-2.3,0.7
		c-0.9,0.1-1.9,0-3.1,0c-0.2,1.5-0.2,3-0.5,4.5c-0.1,0.8-0.6,1.6-0.9,2.4c-0.2,0.6-0.3,1.2-0.4,1.8c-0.2,0.8-0.2,1.5-0.4,2.3
		c-0.3,1.1-0.8,2.1-1.1,3.2c-0.1,0.3-0.1,0.5-0.2,0.8c-1,1.7-2,3.4-3,5c-0.5,0.8-1.2,1.5-1.7,2.3c-0.3,0.5-0.5,1.1-0.6,1.7
		c-0.1,0.9-0.5,1.6-1.3,1.9c-0.8,0.3-0.8,0.7-0.7,1.3c0.3,1.1,0.5,2.2,0.9,3.3c0.3,0.8,1,0.7,1.7,0.6c0.7-0.1,1.4-0.3,2.1-0.2
		c1.3,0.1,2.6,0.5,4,0c0.5-0.2,1.2,0.3,1.8,0.5c0.3,0.1,0.6,0.2,0.9,0.2c0.7-0.1,1.4-0.4,2.1-0.3c1.7,0.1,3.4,0.5,5.2,0.7
		c0.4-0.7,1.2-0.4,1.8,0c0.4,0.3,0.8,0.8,0.8,1.3c0.1,0.8,0.4,1.1,1.1,1.4c1.7,0.6,3,1.5,4,3.1c0.2,0.2,0.5,0.5,0.8,0.5
		c1.7,0.1,2.8,1.3,3.9,2.3c1.4,1.4,2.7,2.7,4.3,3.9c1.3,1,2.4,2.2,3.5,3.5c0.6,0.6,0.8,1.6,1.3,2.2c0.8,1.1,1.7,2,2.6,3.1
		c0.5,0.6,0.9,1.4,1.3,2.1c0.2,0.2,0.3,0.5,0.4,0.8c1.1,1.6,2.4,3.2,3.2,5c0.6,1.4,1.3,2.7,2.1,4c0.4,0.7,0.5,1.5,0.8,2.3
		c0.5,1.4,1.1,2.9,1.6,4.3c0,0.1,0.1,0.2,0.1,0.3c-0.1,1.8,1.2,3.2,1.6,4.9c0.6,2.2,1.4,4.3,2.1,6.5c0.3,0.9,0.4,1.8,0.6,2.7
		c0.2,1,0.7,2,0.7,2.9c0,1.5,0.3,2.8,0.6,4.2c0.3,1.2,0.4,2.3,0.7,3.5c0,0.1,0.1,0.1,0,0.2c-0.4,2,0.7,4.2-0.3,6.2
		c-0.1,0.2,0,0.4,0,0.6c0.8,2,0.6,4,0,6c-0.1,0.3-0.1,0.7-0.2,1.1c0,0.2,0.1,0.5,0,0.7c-0.9,1.8-0.8,4-2,5.7c-0.7,1-0.9,2.4-2.1,3.1
		c-0.1,0-0.1,0.2-0.1,0.3c0.3,1.1-0.4,2-0.8,2.9c-0.4,1-1.1,1.5-2,1.8c-0.2,0.1-0.6,0.1-0.6,0.2c-0.6,1.5-2.1,2.2-3.2,3.3
		c-1.3,1.2-2.8,2.3-4.3,3.3c-1,0.6-2.2,0.9-3.3,1.3c-0.2,0.1-0.4,0.1-0.5,0.2c-1.3,1.5-3,2-4.8,2.4c-2.6,0.7-5.2,1.6-7.9,2
		c-2,0.3-4.1,0.5-6.2-0.3c-0.6-0.2-1.3-0.1-2-0.3c-1.8-0.5-3.6-1-5.3-1.6c-1.1-0.4-2.1-1.2-3.4-2c-0.1,0.5-0.3,0.9-0.2,1.3
		c0.1,0.9,0.2,1.7,0.4,2.8c1.1,0.7,1.2,1.3,0.1,2.5c0.3,0.7,0.8,1.4,1,2.2c0.2,0.8,0.2,1.6,0.3,2.4c0.1,0.6,0,1.3,0.3,1.7
		c0.9,1.1,1,2.3,0.8,3.4c-0.2,1.2,0.1,2.2,0.4,3.4c0.2,0.8,0.2,1.6,0.1,2.4c-0.3,1.3-1.6,1.9-2.9,1.5c-0.4-0.1-0.8-0.1-1.2-0.3
		c-1.4-0.5-2.6,0.4-4,0.5c-2.8,0.3-5.6,0.8-8.3,1.1c-0.6,0.1-1.2-0.1-1.8-0.2c-0.4,0-0.8,0-1.1,0c-0.5,0.1-1,0.3-1.6,0.3
		c-1,0-1.9,0-2.9,0.3c-1,0.3-2.3,0.2-3.3-0.1c-1.8-0.6-3.4-0.1-5,0.5c-1.4,0.5-2.7,0.7-4.1,0.7c-2.6,0.2-5.2,0.4-7.8,0.5
		c-0.7,0-1.5-0.1-2.2-0.1c-1.3,0-2.5,0.2-3.8,0.1c-1.1-0.1-2.3-0.5-3.4-0.9c-0.2-0.1-0.2-0.5-0.3-0.8c-0.2-0.7-0.1-1.5-0.5-2
		c-0.7-1-0.8-2-0.6-3.1c0.1-0.8,0.3-1.6,0.5-2.5c1.5-1.1,3.3-1.6,4.8-3c1.5-1.4,3.6-2.1,5.3-3.3c1-0.7,2.3-1.4,2.3-3
		c0-0.1,0.1-0.3,0.2-0.4c0.8-0.5,0.8-1.3,0.8-2.1c0-1.7-0.1-3.4-0.2-5c0-0.4-0.1-0.7-0.2-1.1c-0.7-1.8-1-3.6-0.6-5.5
		c0.1-0.3-0.2-0.6-0.3-0.9c-0.2-0.4-0.6-0.8-0.7-1.3c-0.2-1.2-0.1-2.4-0.3-3.6c0-0.4-0.2-0.8-0.5-1c-0.1-0.1-0.7,0.1-0.9,0.3
		c-0.9,0.7-1.7,0.6-2.5-0.3c-0.6-0.7-1-1.5-0.9-2.6c0.1-0.8-0.4-1.6-0.5-2.4c-0.2-1.2-0.4-2.4-0.6-3.7c-0.3,0.1-0.4,0.2-0.6,0.3
		c-1.3,1.1-2.6,2.1-3.9,3.2c-0.3,0.2-0.7,0.3-1,0.4c-0.6,0.2-1.2,0.3-1.7,0.6c-2.9,1.8-5.9,2-9,0.8c-0.5-0.2-1.2-0.7-1.3-1.2
		c-0.4-1.2-1.3-1.8-2.2-2.3c-2-1.2-2.4-3.2-3.4-5c-0.3-0.6-0.5-1.3-0.8-1.9c-0.8-1.9-1.5-3.8-2.3-5.6c-0.5-1.2-1.3-2.4-1.8-3.6
		c-0.2-0.6-0.1-1.3-0.2-1.9c-0.1-0.4-0.1-0.8-0.3-1.2c-0.5-1.5-1.2-2.9-1.5-4.4c-0.4-2-0.6-4-0.8-5.9C30.3,126,28.2,126,27.7,124.2z
		 M66,96c-1.1,0.3-1.5,0.9-1.5,2.1c0,0.8-0.5,1.6-0.8,2.3c-0.6,1.2-1.1,2.4-1.8,3.6c-1,1.5-0.5,3.7-2.3,4.8
		c-0.1,0.1-0.1,0.3-0.1,0.4c-0.9,1.7-0.7,3.8-1.9,5.5c-1.3,1.9-0.8,4.6-2.4,6.4c-0.1,0.1-0.1,0.3-0.1,0.4c-0.2,1.3-0.6,2.6-2.2,2.7
		c-0.1,2.2-1.3,3.4-2.8,2.6c-0.9-0.4-1.8-1.2-2.1-2c-0.3-1-1-1.7-1.4-2.6c-0.4-0.8-1.1-0.8-1.8-0.4c-2,1.2-4,2.3-6,3.4
		c-0.3,0.1-0.6,0.1-0.9,0.2c-0.3,0.1-0.6,0.2-0.9,0.4c-0.6,0.3-1.1,0.6-1.6,0.9c-0.3,0.2-0.6,0.6-0.6,0.8c0.2,1.2,0.5,2.4,0.8,3.6
		c0.1,0.6,0.1,1.2,0.5,1.6c0.9,1.2,1,2.5,1,3.9c0,0.3,0.1,0.8,0.4,1c0.8,0.8,0.9,1.9,1.1,3c0.1,0.9,0.3,1.9,0.6,2.8
		c0.5,1.3,1.5,2.5,1.8,3.8c0.5,1.6,1.6,2.8,2.5,4.1c0.5,0.8,1.3,1.5,1.7,2.4c0.5,1.2,1.1,1.9,2.5,2.5c2.3,0.9,4.5,0.2,6.7-0.1
		c0.2,0,0.3-0.1,0.4-0.2c1.2-0.9,2.4-2,3.7-2.6c1.3-0.7,2.1-1.7,3.1-2.7c0.2-0.2,0.2-0.5,0.1-0.8c-0.2-1.2-0.5-2.4-0.8-3.6
		c-0.4-1.5-0.1-2.9,0-4.4c0.1-0.8-0.4-1.7-0.1-2.4c0.7-1.8,0.2-3.7,0.5-5.6c0.4-2.1,1.3-3.9,2.6-5.6c0.4-0.5,1-1,1.5-1.5
		c0.5-0.4,1-0.7,1.4-1.2c0.6-0.9,1.4-1.4,2.4-1.7c0.3-0.1,0.6-0.2,0.7-0.4c0.9-1.3,2.2-1.6,3.5-1.5c1,0,1.9,0.2,2.8-0.2
		c0.4-0.2,1.1,0.1,1.6,0.2c1.4,0.4,2.9,1,4.3,1.1c1,0.1,1.9,0.4,2.7,0.9c0.9,0.6,1.8,1.3,2.7,1.9c0.3-0.4,0.6-0.9,1-1.2
		c1.1-0.8,2.2-1.9,3.4-2.2c1.2-0.3,2.2-0.9,3.1-1.5c2.1-1.2,4.5-0.9,6.7-1.5c0.1,0,0.3,0.1,0.5,0.1c1.1,0.3,2.3,0.6,3.4,0.8
		c1.3,0.3,2.7,0.6,4,1c0.1,0,0.1,0,0.2,0.1c0.8,1.2,2.1,1.4,3.4,1.4c0.4,0,0.8,0,1.3,0c0.7,0,1.4,0,2.1,0.1c1,0.2,2.1,0.4,3.1,0.6
		c0.1,0,0.2-0.1,0.4-0.1c0.9-0.3,1.8-0.5,2.7-0.9c0.6-0.3,1.5-0.7,1.7-1.2c0.6-1.7,0.9-3.6,2-5.1c0.1-0.1,0-0.3,0-0.5
		c0-1-0.1-2-0.1-3c-0.1-2.2,1.1-4.3,0.5-6.5c-0.1-0.4,0-0.9,0.1-1.3c0.2-1.2,0.4-2.4,0.8-3.5c0.1-0.4,0.6-0.6,0.9-1
		c0.3,0.3,0.8,0.7,0.9,1c0.2,2.3,1,4.5,0.4,6.8c-0.1,0.4,0.1,0.8,0.1,1.2c0.2,2.3,0.4,4.6-0.7,6.7c-0.1,0.2-0.2,0.4-0.1,0.6
		c0.8,1.6-0.1,3-0.4,4.5c-0.1,0.5-0.5,1-0.8,1.5c-0.6,0.8-1.3,1.5-2.1,2.2c-1.2,1-2.3,2.1-4,2.1c-1.4,0-2.8-0.6-4.3-0.1
		c-0.4,0.1-0.8,0.1-1.2,0.2c0.1,0.5,0.3,0.9,0.4,1.4c0.2,0.5,0.6,0.9,0.7,1.3c0.1,1-0.1,2,0.6,2.9c0.1,0.2,0.1,0.6,0,0.8
		c-0.4,0.8-0.2,1.6,0.2,2.3c0.1,0.3,0.2,0.6,0.2,0.9c-0.1,1.2-0.3,2.4-0.5,3.6c-0.2,1.4-0.6,2.7-0.8,3.8c1,0.6,1.9,1.1,2.7,1.6
		c0.1,0.1,0.3,0.1,0.5,0.1c1.7,0,3.5,0,5.2,0c2,0,4,0,5.9-0.1c0.6,0,1.4,0,1.9-0.3c0.8-0.4,1.5-0.8,2.4-0.6c0.2,0,0.5-0.4,0.7-0.6
		c0.6-0.5,1.1-1.3,1.7-1.5c1.4-0.5,1.7-1.7,2-2.7c0.9-2.5,1.6-5.2,2.3-7.8c0.1-0.2,0.1-0.4,0.3-0.5c0.6-0.6,0.7-1.2,0.6-2.1
		c-0.1-0.6,0.1-1.3,0.3-1.9c0.2-0.7,1.5-1.8,1.9-1.6c0.6,0.4,1.3,1.1,1.4,1.7c0.1,0.9-0.1,1.9-0.5,2.7c-0.2,0.5-0.3,0.8-0.1,1.3
		c0.1,0.2,0.2,0.5,0.1,0.8c-0.6,2.3-1,4.8-1.9,7c-0.7,1.6-2.1,2.9-3.1,4.3c-0.1,0.2-0.2,0.3-0.3,0.5c-0.4,2-1.2,2.6-3.2,3
		c-0.5,0.1-0.9,0.5-1.4,0.7c-0.6,0.3-1.3,0.5-1.9,0.7c-1.3,0.3-2.6,0.5-3.9,0.8c0,0.2,0,0.3-0.1,0.5c1.3,0.8,2.5,1.6,3.8,2.4
		c0.7,0.4,1.6,0.7,2.2,1.3c1.5,1.4,2.7,3.1,5,3.4c0.1,0,0.2,0.1,0.4,0.2c1.4,0.8,2.8,1.7,4.2,2.4c0.5,0.3,1.1,0.4,1.6,0.7
		c0.5,0.3,0.9,0.6,1.3,0.9c0.1-0.6,0.2-1.1,0.4-1.7c0.6-1.5,1.2-3,1.8-4.5c0-0.1,0.1-0.2,0.2-0.3c0.4-1.2,0.9-2.4,1.2-3.7
		c0.2-1.2,0.1-2.5,0.3-3.8c0.1-0.6,0.4-1.1,0.5-1.7c0.1-0.3,0.1-0.6,0-0.8c-0.3-1.2-0.9-2.3-0.5-3.6c0.1-0.2-0.1-0.5-0.2-0.8
		c-0.1-0.6-0.2-1.2-0.2-1.9c0-0.3,0.1-0.6,0-0.8c-0.7-1.9-0.1-4.1-1.3-6c-0.1-0.2-0.1-0.6-0.1-0.9c-0.1-0.8-0.3-1.6-0.5-2.4
		c-0.2-1-0.4-2-0.6-2.9c-0.3-1.1-0.6-2.2-0.9-3.3c-0.4-1.2-1.2-2.4-1.3-3.7c0-1.2-0.6-2.1-1.1-3c-0.1-0.2-0.2-0.5-0.3-0.8
		c-0.2-0.9-0.4-1.8-0.7-2.6c-0.5-1.2-1.3-2.4-1.7-3.6c-0.5-1.6-1-3-2-4.4c-0.6-0.9-0.9-2-1.4-3c-0.4-0.8-0.8-1.5-1.3-2.2
		c-0.4-0.7-1-1.2-1.4-1.9c-0.7-1.1-1.3-2.3-2.1-3.3c-0.8-1-1.8-1.7-2.7-2.7c-0.9-1-1.6-2.2-2.5-3.2c-0.7-0.8-1.5-1.4-2.3-2.1
		c-1.3-1.2-2.7-2.4-4-3.6c-0.1-0.1-0.2-0.3-0.4-0.3c-1.4-0.7-2.8-1.4-4.2-2.1c-1.4-0.8-1.4-0.8-2.3,0.5c-0.4,0.5-0.8,1-1.2,1.6
		c-0.6,0.9-1.2,1.7-1.8,2.6c-0.1,0.2-0.4,0.3-0.6,0.6c-1.1,1.5-2.2,2.9-3.4,4.4c-0.2,0.3-0.6,0.4-0.9,0.6c-0.4,0.3-0.9,0.5-1.3,0.9
		c-0.8,1-1.5,2.1-2.3,3.1c-0.1,0.2-0.2,0.3-0.4,0.5c-1,1-2,2-3,2.9c-0.6,0.6-1.3,1.2-1.9,1.8c-1.3,1-2.7,2-4,3.1
		c-0.1,0.1-0.2,0.3-0.3,0.4c-0.9,1.6-3.1,1.1-4.1,2.6c-0.2,0.3-0.9,0.3-1.3,0.5c0,0-0.1,0-0.1,0c-1,0.1-1.9,0.1-2.9,0.2
		c-0.3,0-0.7,0.1-0.9,0.3c-1.7,1.2-2.1,1.2-3.5,0c-0.7,0.2-1.4,0.6-1.9,0.5c-1.5-0.4-3-0.7-4.6-0.8c-0.2,0-0.3-0.1-0.5-0.2
		c-1.1-0.5-2.2-1.2-3.3-1.6c-2.3-0.9-3.7-2.8-5.3-4.5C67.6,98.7,66.9,97.3,66,96z M63.4,50.9c0.5-0.1,0.7-0.1,1-0.1
		c1.1-0.1,2.3-0.1,3.4-0.3c1.2-0.3,2.2-0.8,3.4-1.2c0.6-0.2,0.8-0.4,0.8-1.1c0.1-1.6,0.3-3.1,0.5-4.7c0.1-0.8,0.3-1.6-0.3-2.4
		c-0.2-0.3-0.2-0.8-0.2-1.3c0-0.8,0.2-1.5,0.2-2.3c0-1,0.7-1.8,1.5-1.5c1,0.5,2,0.8,3,1.3c0.2,0.1,0.3,0.5,0.5,0.7
		c0.1,0.2,0.2,0.5,0.4,0.7c0.9,1.2,1.7,2.3,2.6,3.5c0.3,0.5,0.4,1.1,0.8,1.5c1.3,1.1,2.1,2.5,3,3.9c0.6,1.1,1.5,1.3,2.4,0.3
		c0.2-0.3,0.5-0.5,0.9-0.7c2.2-1.1,4.3-0.4,6.4,0.4c0.4,0.2,0.7,0.7,1,1c0.2,0.2,0.3,0.5,0.4,0.7c2.2,1.8,2.4,4.1,1.9,6.6
		c-0.4,1.8-0.8,3.7-1.3,5.5c-0.2,0.7,0.1,1.2,0.7,1.3c0.6,0.1,1.4,0.6,1.9-0.3c0.4-0.7,0.8-1.5,1.3-2.2c1.4-2.1,2.5-4.4,3.5-6.8
		c0.3-0.8,0.6-1.6,0.9-2.3c0.3-0.7,0.7-1.3,1-2c0.2-0.5,0.4-1.1,0.5-1.6c0.1-0.8,0-1.7,0.3-2.2c0.6-0.9,0.4-1.8,0.4-2.7
		c0-0.3-0.1-0.7,0-1c0.4-1.1,0-2.2-0.4-3.2c-0.4-1.1-0.8-2.3-1-3.5c-0.1-1.2-0.6-2-1.7-2.5c-0.5-0.3-0.9-0.7-1.2-1.1
		c-0.8-1-1.3-2.3-2.5-2.9c-0.2-0.1-0.4-0.5-0.6-0.7c-0.3-0.3-0.6-0.5-0.9-0.8c-0.6-0.5-1.1-1-1.7-1.5c-0.2-0.2-0.4-0.4-0.7-0.6
		c-0.8-0.6-1.7-1.2-2.5-1.8c-0.5-0.4-0.9-0.5-1.5-0.6c-0.8-0.1-1.7-0.4-2.5-0.7c-1-0.4-1.7-1.3-3-1.3c-1.2,0-2.4-0.2-3.7-0.3
		c-0.9-0.1-1.9-0.4-2.8-0.3c-1.4,0-2.8-0.5-4.1,0.2c-0.2,0.1-0.5,0-0.7,0c-2.6-0.4-5.2-0.1-7.7,0.4c-1.9,0.4-4,0-5.9,1
		c-0.2,0.1-0.4,0-0.6,0c-0.6,0.1-1.2,0.2-1.9,0.3c-1.1,0.3-2.2,0.7-3.3,0.8c-1.8,0.1-3.2,1.1-4.7,1.8c-1.3,0.6-2.6,1.6-3.8,2.5
		c-0.8,0.6-1.4,1.3-2.2,1.8c-2.4,1.7-4.7,3.4-6.2,6.1c-0.7,1.3-1.4,2.6-2.2,3.8c-0.4,0.6-0.8,1.1-0.5,1.9c0.1,0.4-0.1,0.9-0.2,1.4
		c-0.3,1-0.9,1.9-0.3,3c0.1,0.3,0,0.7,0,1c0,0.4,0,0.9,0.1,1.3c0.5,1.7,1,3.3,1.5,5c0.3,1.1,0.4,2.2,0.7,3.3c0.3,1,0.8,2,1.2,3.1
		c0.2,0.5,0.4,1.1,0.5,1.5c1.8-0.8,3.4-1.7,5.2-2.2c1.3-0.4,2.1-1,2.9-1.7c-0.2-1-0.4-1.9-0.7-2.7c-0.2-0.7-0.6-1.4-0.8-2.1
		c-0.1-0.3,0.2-0.9,0-1.1c-1.2-1.5-0.6-3.3-1-4.9c-0.2-0.9,0.4-1.7,1.3-1.9c0.9-0.1,1.7,0.4,1.9,1.4c0.1,0.4,0.1,0.9,0.3,1.2
		c1,1.4,0.4,3.4,1.6,4.8c0,0,0,0.1,0,0.1c0.3,1.2,0.7,2.3,1,3.5c0.7-0.1,1.1,0,1.5-0.1c1.2-0.2,2.4-0.5,3.5-0.8
		c1.1-0.3,2-1.2,3.2-0.6c0.2,0.1,0.5-0.1,0.7-0.3c0.4-0.4,0.7-0.8,1.1-1.2c-1.8-1.1-2-2.9-2.4-4.7c-0.3-1.2-0.4-2.4-0.7-3.6
		c-0.2-0.9-0.3-1.9,0.4-2.6c0.3-0.3,1.1-0.5,1.5-0.4c1,0.3,1.2,1.2,1.4,2.1c0.3,1.1,0.8,2.1,1.2,3.2C63.1,47.2,64.5,48.8,63.4,50.9z
		 M75.3,41.4c-0.1,0-0.2,0.1-0.3,0.1c0,0.3-0.1,0.7,0,1c0.3,1.4,0.5,2.9,0.9,4.3c0.2,0.9,0.6,1.7,0.9,2.5c0.3,0.7,0.1,1.2-0.4,1.7
		c-0.3,0.3-0.5,0.5-0.8,0.8c-0.6,0.8-1.3,1-2.2,0.6c-0.3-0.1-0.6-0.1-1-0.1c-1.1,0.2-2.2,0.4-3.3,0.6c-1,0.2-2.1,0.5-3.1,0.8
		c-1.4,0.4-2.8,1.3-4.2,1.3c-1.2,0-2.3-0.2-3.2,0.8c-0.1,0.1-0.4,0.1-0.6,0.1c-1.5-0.1-2.9,0.4-3.9,1.2c-1.2,0.9-2.4,1-3.7,1.2
		c-0.2,0-0.4,0.2-0.5,0.2c-0.7,0.3-1.5,0.7-2.2,1c-0.5,0.2-1,0.3-1.5,0.6c-0.9,0.5-1.5,1.4-2.7,1.5c-0.5,0.1-0.9,0.5-0.7,1.3
		c0.2,0.9,0.6,1.7,0.8,2.5c0.6,1.9,1.9,3.7,1.7,5.8c0,0.1,0.1,0.3,0.2,0.4c0.7,0.8,0.8,1.6,0.5,2.6c-0.2,0.5-0.1,0.9,0.5,1.2
		c0.5,0.3,0.9,0.9,1.3,1.3c0.9,1,1.7,2.2,2.7,3c1.1,0.8,2.4,1.4,3.6,1.9c0.8,0.3,1.7,0.5,2.6,0.5c1.7,0.1,3.5,0.1,5.2,0.1
		c0.2,0,0.3,0,0.5,0c1.3-0.2,2.5-0.4,3.8-0.5c0.9-0.1,1.8,0.2,2.6-0.1c1.3-0.6,2.7-0.7,4.1-1c1.7-0.3,2.8,0.6,2.7,2.3
		c0,0.3,0,0.6,0.1,0.9c0.5,1.1,1.1,2.2,1.7,3.3c0.1,0.1,0.1,0.3,0.1,0.4c0.3,0.9,0.7,1.2,1.7,1c0.4-0.1,0.7-0.2,1-0.4
		c1.3-0.6,2.9-0.3,4-1.5c0.2-0.3,0.9-0.1,1.3-0.2c1.7-0.6,3.4-1.5,5.2-1.9c2.1-0.4,2.7-1.8,3.2-3.6c0.3-1.2,0.9-2.4,1.3-3.6
		c0.3-0.8,0.9-1.7,0.8-2.4c-0.1-1.9-0.6-3.7-0.9-5.5c-0.1-0.9,0-1.8,0-2.7c0.1-0.2-0.1-0.3-0.2-0.4c-1.3-0.3-2.6-0.6-3.9-0.8
		c-1.8-0.3-2.8-1.7-2-3c0.7-1.1,1.4-2.1,2.3-3.1c2.4-2.5,2-6.7-0.9-8.6c-0.8-0.5-3.1-0.2-3.7,0.5c-1.5,1.7-2.7,1.7-4.2,0.3
		c-0.1-0.1-0.2-0.2-0.3-0.3c-0.9-1-1.8-1.8-2.5-2.9c-1-1.5-1.6-3.3-2.7-4.7C76.4,43.3,75.9,42.3,75.3,41.4z M109.3,163.1
		c-0.8,1.4-0.6,2.9-0.3,4.4c0.1,0.6,0.1,1.2-0.2,1.7c-0.5,1.1-0.5,2.6,0.3,3.5c0.2,0.3,0.6,0.5,0.9,0.6c1.4,0.4,2.9,0.8,4.4,1.1
		c2.7,0.5,5.4,1,8.1,1.5c0.4,0.1,0.8,0.1,1.2,0.1c3.3-0.6,6.7-0.7,9.7-2.4c1.5-0.8,3.2-0.9,4.6-2c1.3-1,2.9-1.8,4.2-2.8
		c1.7-1.4,3.3-2.9,4.9-4.4c-0.6-0.4-1.2-0.8-1.8-1.1c-0.9-0.5-1.7-1.4-2.8-1.4c-0.3,0-0.6-0.3-1-0.5c-1.7-0.8-2.4-2.7-4.4-3.3
		c-1-0.3-1.8-1.3-2.8-1.9c-1.6-1-3.2-1.9-4.8-2.8c-1.8-1-3-2.9-5.1-3.4c-0.8-0.2-1.6-0.7-2.4-0.9c-1.3-0.3-2.5-1-4-0.9
		c-0.4,0-0.8-0.6-1.1-0.9c-0.2-0.2-0.3-0.5-0.5-0.7c-0.9,0.5-1.9,0.7-2.6-0.1c-0.5-0.7-0.6-1.6-0.9-2.5c-1,0.6-2.3,0.2-3.5,0
		c-0.3-0.1-0.6-0.1-0.8,0c-1.4,0.8-2.8,0.4-4.1-0.2c-0.2-0.1-0.5-0.3-0.7-0.3c-1.6-0.5-2.9-1.4-4-2.6c-0.5-0.5-0.9-0.7-1.6-0.2
		c-1.4,1.1-2.9,2.2-4.8,2.2c-1.5,0-3-0.5-3.4-1.6c-0.5-1.4-1.1-2.7-1.7-4.1c0,0-0.1,0-0.1,0c0,0.9,0.1,1.8,0.1,2.6
		c0.1,1,0.1,2,0.4,2.9c0.7,2.4,1.2,4.7,1,7.2c0,0.2,0.2,0.5,0.2,0.7c0.3,1.5,0.5,2.9,0.7,4.4c0.1,0.7-0.1,1.4,0.1,2
		c0.2,0.8,0.8,1.4,1.2,2.2c1.1-0.2,2.4-0.5,3.7-0.5c1.9,0,3.9-0.7,5.6,0.8c0.9-1,1.8-1.3,3-0.6c0.1,0.1,0.4,0.1,0.5,0
		c0.9-0.8,1.8-0.6,2.9-0.4c0.6,0.1,1.3,0,1.9,0c0.7,0,1-0.4,1.1-1.2c0-0.6,0.3-1.2,0.5-1.8c0.1-0.2,0.2-0.5,0.2-0.7
		c0.2-1.2,0.4-2.5,0.7-3.7c0.2-0.9,1-1.4,1.9-1.3c0.9,0.1,1.3,0.9,1.4,1.8c0,0.2,0.1,0.5,0,0.7c-0.2,1.8-0.4,3.6-0.7,5.3
		c0,0.2-0.2,0.4-0.3,0.6c-0.1,0.4-0.3,0.8-0.2,1.1c0.1,1.5-0.5,2.8-1.2,4c-0.4,0.7-1.1,0.9-1.8,0.6
		C110.4,163.9,109.9,163.5,109.3,163.1z M86.7,159.3c0.7-1.4,0.7-2.8-0.3-4.1c-0.2-0.2-0.3-0.6-0.3-1c-0.1-1.1-0.1-2.2-0.2-3.4
		c0-0.2-0.1-0.3-0.1-0.5c-0.4-2-0.9-4.1-1.1-6.1c-0.2-2.3,0.1-4.6-0.3-6.8c-0.2-1.2-0.3-2.3-0.2-3.4c0.1-2-0.2-4,1.2-5.7
		c-1-1.5-2.6-2.2-4.2-2.5c-1.3-0.2-2.7,0-4.1,0.1c-0.2,0-0.4,0-0.5-0.1c-0.8-0.5-1.7-0.3-2.5,0c-0.2,0.1-0.5,0.1-0.8,0.1
		c-1.5-0.1-2.9-0.2-3.9,1.2c-0.1,0.1-0.3,0.1-0.4,0.2c-0.3,0.3-0.5,0.6-0.7,1c-0.2,0.3-0.3,0.7-0.5,1.1c-0.7,1.4-1.6,2.7-2.1,4.1
		c-0.6,1.9-1.6,3.8-0.8,5.9c0.1,0.2-0.1,0.4,0,0.6c0,0.7-0.1,1.4,0.1,2c0.7,1.5,0.6,3.1,0.7,4.6c0,0.4,0.3,0.9,0.4,1.3
		c0.1,0.6,0.2,1.1,0.2,1.7c0,0.3-0.1,0.6-0.1,0.8c0.2,1.4,0.6,2.8,0.8,4.1c0.3,1.6,0.5,3.2,0.7,4.9c0,0.3,0.2,0.5,0.2,0.6
		c2.6-0.1,5-0.2,7.4-0.4c0.7,0,1.4-0.3,2.1-0.3c1.5-0.1,3.1-0.2,4.6-0.2C83.5,159.3,85.1,159.3,86.7,159.3z M102.1,4.9
		c-0.2-0.2-0.4-0.3-0.6-0.4c-1.3-0.5-2.6-1.1-4-1.4c-1.9-0.5-3.8-0.5-5.4,1.1c-0.4,0.5-0.8,1.1-1.4,1.3c-1.5,0.7-2,2-2.4,3.4
		c-0.2,0.5-0.4,1-0.7,1.4c-0.2,0.3-0.4,0.6-0.5,1c-0.4,1.3,0,2.5,0.7,3.6c0.9,1.4,1.6,2.9,3.3,3.5c0.5,0.2,0.9,0.6,1.3,1
		c0.4,0.3,0.8,0.9,1.2,0.9c2.2,0.1,3.5,1.8,5.3,2.7c1.3,0.7,2.2,2.3,3.2,3.4c0.2,0.2,0.3,0.5,0.5,0.7c1.2,1.1,2.4,2.2,3.6,3.3
		c0.7,0.7,0.9,1.7,1.5,2.4c0.9,1.1,1.1,2.4,1.5,3.6c0.2,0.8,0.6,1.1,1.3,1.1c1.3,0,2.6,0.1,3.8-0.7c1-0.7,2.2-1.1,3.2-1.6
		c0.2-0.1,0.4-0.3,0.5-0.5c0.3-0.4,0.6-0.8,0.9-1.2c0.6-1.1,1.6-2.1,1.8-3.2c0.5-3.2,0.5-6.4-2.1-8.9c-0.5-0.5-0.8-0.3-1.1,0.2
		c-0.3,0.5-0.5,1-0.9,1.4c-0.5,0.5-1.2,0.9-1.6,1.4c-2.5,2.8-6.3,2.1-8.3-0.7c-0.3-0.5-0.5-1.4-0.3-1.9c0.5-1.2,1.2-2.2,1.8-3.3
		c0.7-1.2,2-1.7,3.3-1.9c1.6-0.1,3.2,0,4.8,0c0.9-2.8,0.7-5.6-1.2-7.7c-2.3-2.5-5.4-3-8.7-2c0.3,1.1,0.6,2.1,0.8,3.2
		c0.3,1.3-0.1,2.6-0.9,3.6c-0.9,1.1-1.9,2.3-3.5,2.2c-0.3,0-0.5,0.3-0.8,0.4c-1.5,0.8-2.6,0.8-3.4-0.1c-0.3-0.3-0.6-0.5-0.9-0.8
		c-1.7-1.7-1.6-5.3,0.1-6.9C99.3,7.4,100.6,6.2,102.1,4.9z M32.5,73.1c0.4-1.6-0.2-2.6-0.9-3.5c-0.6-0.8-1.3-1.5-1.6-2.3
		c-0.7-2.1-2-3.8-3.1-5.6c-0.6-0.9-1.3-1.7-1.8-2.6c-0.7-1.4-2-2.1-3.2-2.8c-1.1-0.7-2.3-1.1-3.5-1.6c-1.9-0.9-3.9-1.3-6.1-0.6
		c-0.4,0.1-0.9,0-1.3,0.1c-0.4,0.1-0.8,0.1-1.1,0.3C9,55,8.2,55.8,7.6,57.1c-0.8,1.9-2,3.7-3.1,5.5c-0.5,0.9-1.3,1.7-0.7,2.9
		c0.2,0.4-0.1,1-0.1,1.6c0,0.4-0.3,0.9-0.2,1.3c0.4,1.8,0.1,3.6,0.5,5.4c0.3,1.3,0.4,2.7,1,4C6,79.4,6.7,81.2,7.4,83
		c0.5,1.2,1.1,2.5,1.4,3.8c0.4,1.3,1.2,2.2,2,3.2c0.4,0.5,0.9,1.1,1.2,1.6c0.5,0.7,0.8,1.5,1.3,2.1c0.8,0.9,1.8,1.6,2.6,2.5
		c1.5,1.7,3.2,2.5,5.5,2.7c1.2,0.1,2.6,0.1,3.6,0.5c1.5,0.6,2.1-0.2,3-0.9c0.2-0.2,0.4-0.4,0.7-0.6c1.4-0.9,2.7-1.8,4.1-2.7
		c0.2-0.1,0.4-0.4,0.5-0.6c0.5-1.8,0.9-3.6,1.4-5.4c0.2-1.1,0.5-2.2,0.6-3.2c0.1-1,0.1-2,0.2-3c0-0.4,0-0.7-0.1-1.1
		c-0.6-1.7-1.2-3.5-1.8-5.2c-0.2-0.4-0.2-0.9-0.4-1.4C33,74.4,32.7,73.6,32.5,73.1z M90.1,129.4c0.5-0.2,0.7-0.2,0.7-0.3
		c0.5-1.5,1.8-2.1,3.1-2.9c0.9-0.6,1.9-0.5,2.5,0.3c0.6,0.8,0.6,1.9-0.1,2.4c-0.8,0.6-1.7,1.1-2.6,1.7c-1.5,0.9-2.6,2-2.4,4
		c1.3-1.6,2.8-3,4.8-3.6c0.8-0.2,1.6-0.1,2,0.6c0.5,0.7,0.4,1.5-0.2,2.2c-0.5,0.6-1.2,1.1-1.8,1.5c-1,0.7-2,1.4-3,2.2
		c0.3,0.4,0.6,0.7,0.7,1c0.4,0.7,1,0.4,1.1,0c0.4-1.1,1.2-1.5,2.1-2c1.6-1,3.3-0.8,4.5,0.8c1.2,1.7,2.8,2.6,4.9,2.7
		c0.7,0,1.4,0.4,2.1,0.6c0.3,0.1,0.7,0.2,1,0.1c1.1-0.3,2.1-0.7,3.2-1c1.1-0.3,2.7-1.6,2.5-2.4c-0.5-1.6,1.1-3.1,0-4.6
		c-0.1-0.1,0.1-0.5,0.1-0.7c0-0.3,0-0.6-0.1-0.9c-0.7-1.3-0.7-3-1.8-4.1c-0.2-0.2-0.3-0.5-0.4-0.6c-0.6-0.3-1.1-0.6-1.7-0.9
		c-0.5-0.3-1-0.5-1.5-0.7c-0.6-0.3-1.3-0.6-1.9-0.9c-0.2-0.1-0.4-0.3-0.6-0.4c-2.3-0.2-4.7-0.4-7-0.6c-0.2,0-0.4,0.2-0.6,0.2
		c-0.3,0.1-0.7,0.3-1.1,0.3c-1.8,0.1-3.7-0.1-5.2,1.4c-0.9,1-2,1.8-2.9,2.7C90.1,128.1,90.2,128.7,90.1,129.4z M101.2,161.7
		c-0.6,0.4-1.1,0.9-1.6,1c-1.3,0.2-2.6,0.2-3.9,0.2c-1.3,0-2.7-0.3-4-0.4c-1.4-0.1-1.7,0.4-1.4,1.7c0.2,0.6,0.5,1.3,0.6,1.9
		c0.1,1.6,0.1,3.2,0.2,4.8c0,1.4-0.3,2.8,0.5,4.1c0.2,0.4,0.1,1,0.1,1.6c0,0.3-0.2,0.6-0.1,0.9c0.2,1.8,0.5,3.5,0.8,5.5
		c0.5,0.2,1.3,0.9,2,0.8c2.2-0.2,4.6-0.1,6.6-1.3c0.8-0.4,1.6-0.7,2.5-0.9c1.1-0.3,1.7-1,1.3-2.1c-0.3-0.8-0.2-1.6,0.2-2.3
		c0.1-0.2,0.2-0.5,0.2-0.7c-0.8-1.9-0.1-3.7,0.5-5.6c0.1-0.4,0.2-1,0-1.3c-0.5-0.8-0.4-1.5-0.1-2.4c0.6-1.5,0.7-3,0.2-4.5
		c-0.1-0.5-1.2-0.9-1.6-0.6C103,162.8,102,162.5,101.2,161.7z M71.6,163.6c0.5,1.4,1.3,2.6,1.2,3.8c-0.2,1.5,0.4,2.7,0.9,4
		c0.4,1.2,0.3,2.6,0.4,3.8c0,0.4,0.1,0.8,0.1,1.2c0.4,2,0.7,3.9,1.1,5.9c0.1,0.6,1.5,1.5,2,1.4c0.8-0.2,1.6-0.2,2.4-0.3
		c0.3,0,0.6,0.1,0.9,0c1.5-0.5,2.9-1,4.3-1.5c0.9-0.3,1.7-0.6,2.9-1c0-1.3-0.1-2.9-0.1-4.5c0-0.7,0.1-1.4,0.2-2.1
		c0-0.3,0.2-0.7,0.2-1c-0.3-1.7-0.6-3.4-0.8-5.1c-0.1-1.2,0.1-2.4,0.1-3.6c0-0.7,0-1.4-0.1-2.1c-0.9,0.1-1.5,0.3-2.2,0.3
		c-1.4,0.1-2.7,0.2-4.1,0.3c-1.4,0.1-2.9,0.1-4.3,0.2c-0.1,0-0.1,0-0.2,0C74.8,163.4,73.2,163.5,71.6,163.6z M89.6,102.2
		c0.1,0,0.2,0.1,0.3,0.1c1.2-1,3.1-0.6,3.9-2.2c0.1-0.2,0.5-0.2,0.8-0.4c0.5-0.3,1-0.6,1.4-1c0.4-0.3,0.7-0.6,1.1-0.9
		c0.3-0.3,0.8-0.4,1.1-0.8c1.4-1.5,2.9-3.1,4.3-4.6c0.4-0.4,0.8-1,1.3-1.3c1.7-1,3.1-2.2,3.8-4.2c0.1-0.4,0.5-0.6,0.7-0.9
		c0.3-0.3,0.7-0.7,1-1c1.2-1.5,2.5-3.1,3.7-4.6c0.1-0.1,0.2-0.2,0.4-0.4c0.8-0.8,1.6-1.5,2.7-2.5c-1.4-0.1-2.5-0.3-3.7-0.3
		c-1.5-0.1-3-1.3-4.6-0.3c-0.3,0.2-0.9-0.2-1.3-0.3c-0.4-0.1-0.9-0.1-1.3-0.1c-1.2,0-2.4,0-3.6,0.1c-0.7,0-1.4,0.1-2.1,0.3
		c-0.3,0.1-0.3,0.7-0.5,1.1c-0.5,1.4-0.9,2.8-1.5,4.1c-0.7,1.3-1.1,2.5-1.2,4c0,0.4-0.3,0.9-0.6,1.3c-1,1-1.3,2.3-1.8,3.6
		c-0.4,1.2-0.7,2.4-1.1,3.6c-0.3,0.7-0.8,1.2-1.1,1.9c-0.6,1.3-1.1,2.5-1.6,3.8C89.8,101,89.8,101.6,89.6,102.2z M105.5,184.5
		c-0.1,0-0.3,0.1-0.4,0.3c-0.6,0.9-1.5,1.4-2.6,1.6c-0.9,0.2-1.9,0.3-2.7,0.7c-2.6,1.2-5,0.9-7.5-0.2c-1.3-0.6-1.5-0.5-2.4,0.5
		c-0.4,0.5-0.9,0.9-1.4,1.3c-1.9,1.4-3.8,2.9-5.8,4.2c-0.8,0.5-1.7,0.7-2.5,1.1c0.3,1,0.6,2.1,0.9,3.3c0.7,0.4,2.1,0.5,3.2,0.4
		c1.2-0.1,2.4-0.3,3.5,0c0.8,0.2,1.5,0.2,2.3,0.1c0.7-0.1,1.3,0,2,0c0.3,0,0.5,0,0.8-0.1c1.8-0.9,3.6-1.3,5.6-1.2c0.2,0,0.5,0,0.7,0
		c1.1-0.2,2.2-0.4,3.4-0.5c1-0.1,1.9,0,2.9,0c1.7,0.1,2.6-1.1,2-2.6c-0.4-1.2-0.9-2.4-0.3-3.7c0.1-0.3,0-0.7-0.1-1.1
		C106.6,187,106.1,185.8,105.5,184.5z M85.2,186.5c0-0.1-0.1-0.1-0.1-0.2c-1,0.2-2,0.4-3,0.6c-0.8,0.1-1.7,0.1-2.5,0.2
		c-1,0.1-2,0.2-2.7-0.6c-0.1-0.1-0.4-0.1-0.6-0.1c-1,0-1.9,0.1-3,0.1c-0.2,0.2-0.5,0.7-0.9,1c-1.9,1.2-2.8,3.4-4.9,4.6
		c-1.6,0.8-2.6,2.7-4.6,3c-0.3,0-0.5,0.4-0.7,0.5c-1.2,0.8-1.2,2.1-1.4,3.5c5.5,0.1,10.9-0.4,16.5-1.2c-0.9-1.7-0.2-3.2,0.3-4.7
		c0.1-0.2,0.2-0.5,0.3-0.5c1-0.2,1-1.2,1.5-1.8c0.3-0.3,0.4-0.8,0.8-0.9c1.4-0.6,2.6-1.6,3.8-2.5C84.4,187.1,84.8,186.8,85.2,186.5z
		 M81.9,103c0.1-0.1,0.1-0.2,0.2-0.4c-0.9-1-0.7-2.5-1.7-3.6c-1.8-2.1-3.2-4.5-4.6-6.9c-0.7-1.1-0.9-2.4-1.5-3.6
		c-0.8-1.7-1.3-1.4-2.4-0.8c-0.3,0.2-0.5,0.4-0.8,0.7c-0.7,0.7-1.4,1.4-2.2,2.1c-1,0.8-1.3,2.4-0.5,3.4c1.1,1.3,2.3,2.6,3.4,4
		c1.3,1.6,3,2.3,4.8,3.2c1.2,0.6,2.5,1.1,3.8,1.6C80.9,102.7,81.4,102.8,81.9,103z M34.5,122.7c0.9-0.1,1.6,0.1,2.1-0.2
		c1.1-0.6,2.2-1.5,3.2-2.3c0.8-0.6,1.5-1.1,2.2-1.7c0.2-0.2,0.4-0.6,0.3-0.7c-0.9-1.8-0.5-3.6-0.1-5c-0.4-1.2-0.9-2.1-1-3
		c-0.1-0.8,0-1.5-0.7-2.1c-0.3-0.3-0.4-0.7-0.5-1.1c-0.4-1.4-0.8-2.8-1.1-4.2c-0.1-0.5-0.4-0.6-0.9-0.6c-1.3-0.1-2.6-0.3-3.9-0.4
		c-0.6-0.1-1.2,0-1.7,0c0,0.1,0,0.3,0,0.4c0.5,0.1,1,0.2,1.5,0.3c1.4,0.2,2.6,0.6,3.1,2.2c0.3,1.1,0.8,2.2,1,3.3
		c0.3,1.2,0.7,2.5,0.6,3.6c-0.1,1.6-0.5,3.1-0.2,4.7c0,0.2-0.1,0.5-0.1,0.8c-0.1,0.5-0.2,1.1-0.1,1.7c0.1,1.4-0.7,2.9-1.9,3
		C35.5,121.2,35.1,121.8,34.5,122.7z M86,100.6c0.2-0.5,0.5-0.9,0.7-1.4c0.2-0.5,0.4-1.1,0.6-1.6c0.4-1,0.9-1.9,1.1-2.9
		c0.3-1.5,0.7-2.9,1.7-4.1c0.3-0.3,0.4-0.9,0.6-1.4c-0.3,0.1-0.4,0.1-0.5,0.1c-1.6,0.5-3.2,1-4.8,1.4c-0.4,0.1-0.9,0-1.3,0
		c-0.2,0-0.5-0.2-0.7-0.1c-0.9,0.4-1.8,0.9-2.8,1.3c0.8,1.6,1.6,3.2,2.4,4.9c0.3,0.5,0.3,1.2,0.7,1.6C84.4,99.3,85.2,99.8,86,100.6z
		 M25.4,114.1c3.2-0.2,6.3-0.3,9.4-0.5c0.4-1.7,0.4-1.7-0.1-2.3c-3.3,0.2-6.5,0.5-9.7-0.8C25.2,111.8,25.3,112.9,25.4,114.1z
		 M35,108.2c0.1-1.8,0-2.1-1.7-2.3c-1-0.1-2,0-2.7-0.8c-0.1-0.1-0.4,0-0.6,0c-1.1,0-2.2,0-3.3,0c-0.5,0-1.2,0.1-1.5,0.4
		c-0.3,0.4-0.4,1-0.4,1.6c0,0.1,0.6,0.4,0.9,0.4c1.3,0.1,2.7,0,4,0.1C31.4,107.8,33.1,108,35,108.2z M34.4,117.9c-2.9,0-5.7,0-8.6,0
		c0,0.7,0,1.1,0,1.6c0.1,1.2,0.5,1.5,1.6,1.2c1.2-0.3,2.4-0.6,3.5-1c1.1-0.3,2.1-0.7,3.1-1c0,0.1,0.1,0.2,0.1,0.3
		C34.3,118.6,34.3,118.2,34.4,117.9z M103.6,8.1c-0.7,0.5-1.5,1-2.2,1.5c-0.9,0.8-1.3,2-1.4,3.2c0,0.2,0.3,0.4,0.5,0.5
		c1,0.5,1.6-0.1,2.3-0.7C104.2,11.6,104.6,9.9,103.6,8.1z M115.2,19.9c-1.5-0.7-2.8-0.6-4.1,0.3c-0.6,0.5-1.1,1.9-0.7,2.5
		c0.1,0.2,0.7,0.5,0.7,0.4c1-0.8,2.6-0.7,3.2-2.1C114.6,20.7,114.9,20.3,115.2,19.9z"/>
	<path class="st0" d="M66,96c0.9,1.3,1.6,2.7,2.7,3.8c1.6,1.6,3,3.6,5.3,4.5c1.2,0.4,2.2,1.1,3.3,1.6c0.2,0.1,0.3,0.2,0.5,0.2
		c1.6,0.1,3.1,0.4,4.6,0.8c0.5,0.1,1.2-0.3,1.9-0.5c1.5,1.2,1.8,1.2,3.5,0c0.3-0.2,0.6-0.3,0.9-0.3c1-0.1,1.9-0.2,2.9-0.2
		c0,0,0.1,0,0.1,0c0.4-0.1,1.1-0.2,1.3-0.5c0.9-1.6,3.2-1,4.1-2.6c0.1-0.1,0.2-0.3,0.3-0.4c1.3-1,2.7-2,4-3.1
		c0.7-0.5,1.3-1.2,1.9-1.8c1-1,2-1.9,3-2.9c0.1-0.1,0.3-0.3,0.4-0.5c0.8-1.1,1.5-2.1,2.3-3.1c0.3-0.4,0.8-0.6,1.3-0.9
		c0.3-0.2,0.7-0.3,0.9-0.6c1.1-1.4,2.2-2.9,3.4-4.4c0.2-0.2,0.4-0.3,0.6-0.6c0.6-0.9,1.2-1.7,1.8-2.6c0.4-0.5,0.8-1,1.2-1.6
		c0.9-1.2,0.9-1.2,2.3-0.5c1.4,0.7,2.8,1.4,4.2,2.1c0.1,0.1,0.2,0.2,0.4,0.3c1.3,1.2,2.7,2.4,4,3.6c0.8,0.7,1.6,1.3,2.3,2.1
		c0.9,1,1.6,2.2,2.5,3.2c0.8,0.9,1.9,1.7,2.7,2.7c0.8,1,1.4,2.2,2.1,3.3c0.4,0.7,1,1.2,1.4,1.9c0.5,0.7,0.9,1.4,1.3,2.2
		c0.5,1,0.7,2.1,1.4,3c1,1.4,1.6,2.8,2,4.4c0.4,1.3,1.2,2.4,1.7,3.6c0.3,0.8,0.5,1.7,0.7,2.6c0.1,0.3,0.2,0.5,0.3,0.8
		c0.5,1,1,1.8,1.1,3c0,1.2,0.9,2.4,1.3,3.7c0.4,1.1,0.7,2.2,0.9,3.3c0.2,1,0.4,2,0.6,2.9c0.2,0.8,0.3,1.6,0.5,2.4
		c0.1,0.3,0,0.7,0.1,0.9c1.2,1.8,0.6,4,1.3,6c0.1,0.2,0,0.5,0,0.8c0.1,0.6,0.1,1.2,0.2,1.9c0,0.3,0.2,0.5,0.2,0.8
		c-0.4,1.3,0.2,2.4,0.5,3.6c0.1,0.3,0,0.6,0,0.8c-0.2,0.6-0.5,1.1-0.5,1.7c-0.1,1.3,0,2.6-0.3,3.8c-0.2,1.2-0.8,2.4-1.2,3.7
		c0,0.1-0.1,0.2-0.2,0.3c-0.6,1.5-1.2,3-1.8,4.5c-0.2,0.5-0.3,1.1-0.4,1.7c-0.4-0.3-0.8-0.7-1.3-0.9c-0.5-0.3-1.1-0.4-1.6-0.7
		c-1.4-0.8-2.8-1.6-4.2-2.4c-0.1-0.1-0.2-0.2-0.4-0.2c-2.3-0.3-3.5-2-5-3.4c-0.6-0.6-1.5-0.8-2.2-1.3c-1.3-0.8-2.5-1.6-3.8-2.4
		c0-0.2,0-0.3,0.1-0.5c1.3-0.3,2.6-0.5,3.9-0.8c0.7-0.2,1.3-0.4,1.9-0.7c0.5-0.2,0.9-0.6,1.4-0.7c2-0.4,2.7-1,3.2-3
		c0-0.2,0.1-0.4,0.3-0.5c1.1-1.4,2.5-2.7,3.1-4.3c0.9-2.2,1.3-4.6,1.9-7c0.1-0.2,0-0.6-0.1-0.8c-0.2-0.5-0.1-0.8,0.1-1.3
		c0.3-0.9,0.6-1.8,0.5-2.7c-0.1-0.6-0.8-1.3-1.4-1.7c-0.4-0.3-1.7,0.9-1.9,1.6c-0.2,0.6-0.4,1.3-0.3,1.9c0.2,0.8,0,1.5-0.6,2.1
		c-0.1,0.1-0.2,0.4-0.3,0.5c-0.8,2.6-1.4,5.2-2.3,7.8c-0.4,1-0.7,2.3-2,2.7c-0.7,0.2-1.2,1-1.7,1.5c-0.2,0.2-0.5,0.6-0.7,0.6
		c-0.9-0.2-1.6,0.2-2.4,0.6c-0.5,0.3-1.2,0.3-1.9,0.3c-2,0-4,0-5.9,0.1c-1.7,0-3.5,0-5.2,0c-0.2,0-0.3,0-0.5-0.1
		c-0.9-0.5-1.7-1-2.7-1.6c0.2-1,0.5-2.4,0.8-3.8c0.2-1.2,0.3-2.4,0.5-3.6c0-0.3-0.1-0.6-0.2-0.9c-0.4-0.8-0.6-1.5-0.2-2.3
		c0.1-0.2,0.1-0.6,0-0.8c-0.6-0.9-0.5-1.9-0.6-2.9c-0.1-0.5-0.5-0.9-0.7-1.3c-0.2-0.4-0.3-0.9-0.4-1.4c0.4-0.1,0.8-0.1,1.2-0.2
		c1.4-0.5,2.9,0.1,4.3,0.1c1.7,0,2.9-1,4-2.1c0.7-0.7,1.4-1.4,2.1-2.2c0.4-0.4,0.7-0.9,0.8-1.5c0.4-1.5,1.2-2.9,0.4-4.5
		c-0.1-0.1,0-0.4,0.1-0.6c1.1-2.1,0.9-4.4,0.7-6.7c0-0.4-0.2-0.8-0.1-1.2c0.7-2.3-0.2-4.5-0.4-6.8c0-0.4-0.6-0.7-0.9-1
		c-0.3,0.3-0.8,0.6-0.9,1c-0.3,1.2-0.5,2.3-0.8,3.5c-0.1,0.4-0.2,0.9-0.1,1.3c0.5,2.2-0.6,4.3-0.5,6.5c0,1,0.1,2,0.1,3
		c0,0.2,0,0.4,0,0.5c-1.2,1.5-1.4,3.4-2,5.1c-0.2,0.5-1.1,0.9-1.7,1.2c-0.8,0.4-1.8,0.6-2.7,0.9c-0.1,0-0.3,0.2-0.4,0.1
		c-1-0.2-2.1-0.4-3.1-0.6c-0.7-0.1-1.4-0.1-2.1-0.1c-0.4,0-0.8,0-1.3,0c-1.3,0-2.6-0.1-3.4-1.4c0,0-0.1-0.1-0.2-0.1
		c-1.3-0.3-2.7-0.6-4-1c-1.1-0.3-2.3-0.6-3.4-0.8c-0.2,0-0.3-0.1-0.5-0.1c-2.2,0.6-4.6,0.3-6.7,1.5c-0.9,0.5-1.9,1.2-3.1,1.5
		c-1.2,0.3-2.3,1.4-3.4,2.2c-0.4,0.3-0.7,0.8-1,1.2c-0.9-0.6-1.8-1.3-2.7-1.9c-0.8-0.6-1.7-0.8-2.7-0.9c-1.5-0.2-2.9-0.8-4.3-1.1
		c-0.5-0.1-1.1-0.4-1.6-0.2c-1,0.4-1.9,0.2-2.8,0.2c-1.4-0.1-2.7,0.3-3.5,1.5c-0.1,0.2-0.5,0.3-0.7,0.4c-1,0.3-1.8,0.8-2.4,1.7
		c-0.3,0.5-0.9,0.8-1.4,1.2c-0.5,0.5-1.1,0.9-1.5,1.5c-1.3,1.6-2.2,3.4-2.6,5.6c-0.3,1.8,0.2,3.7-0.5,5.6c-0.3,0.7,0.2,1.6,0.1,2.4
		c-0.1,1.5-0.4,2.9,0,4.4c0.3,1.2,0.6,2.4,0.8,3.6c0,0.3,0,0.6-0.1,0.8c-1,1-1.8,2-3.1,2.7c-1.3,0.7-2.5,1.7-3.7,2.6
		c-0.1,0.1-0.3,0.2-0.4,0.2c-2.2,0.3-4.3,1-6.7,0.1c-1.4-0.5-2-1.3-2.5-2.5c-0.4-0.9-1.2-1.5-1.7-2.4c-0.9-1.3-2-2.5-2.5-4.1
		c-0.4-1.3-1.3-2.5-1.8-3.8c-0.4-0.9-0.5-1.8-0.6-2.8c-0.2-1.1-0.3-2.1-1.1-3c-0.2-0.2-0.3-0.6-0.4-1c-0.1-1.4-0.2-2.7-1-3.9
		c-0.3-0.4-0.3-1.1-0.5-1.6c-0.3-1.2-0.6-2.4-0.8-3.6c0-0.2,0.3-0.6,0.6-0.8c0.5-0.4,1.1-0.6,1.6-0.9c0.3-0.1,0.6-0.3,0.9-0.4
		c0.3-0.1,0.6-0.1,0.9-0.2c2-1.1,4-2.3,6-3.4c0.7-0.4,1.4-0.3,1.8,0.4c0.4,0.9,1.1,1.6,1.4,2.6c0.3,0.8,1.3,1.6,2.1,2
		c1.5,0.7,2.7-0.4,2.8-2.6c1.6-0.1,1.9-1.3,2.2-2.7c0-0.1,0-0.3,0.1-0.4c1.6-1.8,1.2-4.5,2.4-6.4c1.2-1.7,1-3.7,1.9-5.5
		c0.1-0.1,0-0.3,0.1-0.4c1.8-1.1,1.3-3.3,2.3-4.8c0.7-1.1,1.2-2.4,1.8-3.6c0.3-0.7,0.8-1.5,0.8-2.3C64.6,96.9,64.9,96.3,66,96z"/>
	<path class="st1" d="M63.4,50.9c1.1-2.2-0.3-3.7-0.9-5.3c-0.4-1.1-0.9-2.1-1.2-3.2c-0.3-0.9-0.4-1.9-1.4-2.1
		c-0.5-0.1-1.2,0-1.5,0.4c-0.7,0.7-0.6,1.6-0.4,2.6c0.3,1.2,0.4,2.4,0.7,3.6c0.4,1.7,0.6,3.6,2.4,4.7c-0.4,0.4-0.7,0.8-1.1,1.2
		c-0.2,0.2-0.5,0.3-0.7,0.3c-1.3-0.6-2.2,0.3-3.2,0.6c-1.1,0.4-2.3,0.6-3.5,0.8c-0.4,0.1-0.9,0.1-1.5,0.1c-0.3-1.1-0.7-2.3-1-3.5
		c0,0,0-0.1,0-0.1c-1.2-1.4-0.6-3.3-1.6-4.8c-0.2-0.3-0.2-0.8-0.3-1.2c-0.2-1-0.9-1.6-1.9-1.4c-0.9,0.1-1.5,0.9-1.3,1.9
		c0.4,1.6-0.2,3.4,1,4.9c0.2,0.2-0.1,0.7,0,1.1c0.2,0.7,0.6,1.4,0.8,2.1c0.3,0.9,0.4,1.7,0.7,2.7c-0.8,0.7-1.7,1.3-2.9,1.7
		c-1.8,0.5-3.5,1.5-5.2,2.2c-0.1-0.4-0.3-0.9-0.5-1.5c-0.4-1-0.9-2-1.2-3.1c-0.3-1.1-0.4-2.2-0.7-3.3c-0.5-1.7-1-3.3-1.5-5
		c-0.1-0.4-0.1-0.9-0.1-1.3c0-0.3,0.2-0.7,0-1c-0.6-1.1,0-2,0.3-3c0.1-0.4,0.3-1,0.2-1.4c-0.3-0.8,0.1-1.3,0.5-1.9
		c0.8-1.2,1.5-2.5,2.2-3.8c1.4-2.7,3.7-4.4,6.2-6.1c0.8-0.5,1.4-1.3,2.2-1.8c1.2-0.9,2.4-1.8,3.8-2.5c1.5-0.7,2.9-1.7,4.7-1.8
		c1.1-0.1,2.2-0.5,3.3-0.8c0.6-0.1,1.2-0.2,1.9-0.3c0.2,0,0.4,0,0.6,0c1.8-1.1,3.9-0.6,5.9-1c2.5-0.5,5.1-0.8,7.7-0.4
		c0.2,0,0.5,0.1,0.7,0c1.3-0.7,2.8-0.2,4.1-0.2c0.9,0,1.9,0.2,2.8,0.3c1.2,0.1,2.4,0.3,3.7,0.3c1.2,0,2,0.9,3,1.3
		c0.8,0.3,1.6,0.7,2.5,0.7c0.6,0,1,0.2,1.5,0.6c0.8,0.7,1.7,1.2,2.5,1.8c0.2,0.2,0.4,0.4,0.7,0.6c0.6,0.5,1.1,1,1.7,1.5
		c0.3,0.3,0.6,0.5,0.9,0.8c0.2,0.2,0.3,0.6,0.6,0.7c1.2,0.7,1.6,2,2.5,2.9c0.4,0.4,0.8,0.9,1.2,1.1c1,0.5,1.6,1.3,1.7,2.5
		c0.1,1.2,0.6,2.3,1,3.5c0.3,1.1,0.8,2.1,0.4,3.2c-0.1,0.3,0,0.7,0,1c0,0.9,0.1,1.8-0.4,2.7c-0.4,0.6-0.2,1.5-0.3,2.2
		c-0.1,0.5-0.3,1.1-0.5,1.6c-0.3,0.7-0.7,1.3-1,2c-0.3,0.8-0.6,1.6-0.9,2.3c-1,2.3-2.1,4.7-3.5,6.8c-0.5,0.7-0.8,1.4-1.3,2.2
		c-0.5,0.9-1.3,0.4-1.9,0.3c-0.6-0.1-0.9-0.6-0.7-1.3c0.5-1.8,0.9-3.6,1.3-5.5c0.5-2.5,0.3-4.9-1.9-6.6c-0.2-0.2-0.3-0.5-0.4-0.7
		c-0.3-0.4-0.6-0.8-1-1c-2.1-0.9-4.2-1.5-6.4-0.4c-0.3,0.2-0.6,0.4-0.9,0.7c-0.9,0.9-1.8,0.8-2.4-0.3c-0.8-1.4-1.7-2.8-3-3.9
		c-0.4-0.3-0.5-1-0.8-1.5c-0.8-1.2-1.7-2.3-2.6-3.5c-0.2-0.2-0.2-0.5-0.4-0.7c-0.1-0.3-0.2-0.6-0.5-0.7c-0.9-0.5-2-0.8-3-1.3
		c-0.7-0.4-1.4,0.5-1.5,1.5c0,0.8-0.2,1.5-0.2,2.3c0,0.4-0.1,1,0.2,1.3c0.6,0.8,0.4,1.6,0.3,2.4c-0.2,1.6-0.4,3.1-0.5,4.7
		c0,0.6-0.2,0.9-0.8,1.1c-1.1,0.4-2.2,0.9-3.4,1.2c-1.1,0.2-2.3,0.2-3.4,0.3C64.1,50.8,63.8,50.8,63.4,50.9z"/>
	<path class="st0" d="M75.3,41.4c0.6,0.9,1.1,1.9,1.8,2.8c1.1,1.4,1.7,3.2,2.7,4.7c0.7,1.1,1.7,1.9,2.5,2.9c0.1,0.1,0.2,0.2,0.3,0.3
		c1.5,1.5,2.7,1.4,4.2-0.3c0.6-0.7,2.9-1,3.7-0.5c2.9,1.9,3.3,6,0.9,8.6c-0.9,0.9-1.6,2-2.3,3.1c-0.8,1.3,0.2,2.8,2,3
		c1.3,0.2,2.6,0.5,3.9,0.8c0.2,0,0.3,0.2,0.2,0.4c0,0.9-0.1,1.8,0,2.7c0.2,1.9,0.7,3.7,0.9,5.5c0.1,0.8-0.5,1.6-0.8,2.4
		c-0.4,1.2-1,2.3-1.3,3.6c-0.5,1.8-1.1,3.2-3.2,3.6c-1.8,0.4-3.5,1.2-5.2,1.9c-0.4,0.1-1,0-1.3,0.2c-1.1,1.2-2.7,0.9-4,1.5
		c-0.3,0.2-0.7,0.3-1,0.4c-1,0.2-1.4-0.1-1.7-1c0-0.1-0.1-0.3-0.1-0.4c-0.6-1.1-1.2-2.2-1.7-3.3c-0.1-0.3-0.2-0.6-0.1-0.9
		c0.1-1.7-1-2.6-2.7-2.3c-1.4,0.2-2.7,0.4-4.1,1c-0.7,0.3-1.7,0-2.6,0.1c-1.3,0.1-2.5,0.3-3.8,0.5c-0.2,0-0.3,0-0.5,0
		c-1.7,0-3.5,0-5.2-0.1c-0.9-0.1-1.8-0.2-2.6-0.5c-1.3-0.5-2.6-1.1-3.6-1.9c-1.1-0.8-1.8-2-2.7-3c-0.4-0.5-0.8-1.1-1.3-1.3
		c-0.6-0.3-0.7-0.7-0.5-1.2c0.4-1,0.2-1.8-0.5-2.6c-0.1-0.1-0.2-0.3-0.2-0.4c0.2-2.2-1.1-3.9-1.7-5.8c-0.2-0.8-0.6-1.6-0.8-2.5
		c-0.2-0.8,0.2-1.2,0.7-1.3c1.2-0.1,1.8-1,2.7-1.5c0.4-0.3,1-0.4,1.5-0.6c0.8-0.3,1.5-0.6,2.2-1c0.2-0.1,0.3-0.2,0.5-0.2
		c1.3-0.2,2.5-0.3,3.7-1.2c1-0.8,2.5-1.3,3.9-1.2c0.2,0,0.5,0,0.6-0.1c0.9-1,2-0.8,3.2-0.8c1.4-0.1,2.8-0.9,4.2-1.3
		c1-0.3,2.1-0.6,3.1-0.8c1.1-0.2,2.2-0.5,3.3-0.6c0.3-0.1,0.7,0,1,0.1c0.9,0.3,1.6,0.2,2.2-0.6c0.2-0.3,0.5-0.5,0.8-0.8
		c0.5-0.5,0.7-1,0.4-1.7c-0.4-0.8-0.7-1.6-0.9-2.5c-0.4-1.4-0.6-2.9-0.9-4.3c-0.1-0.3,0-0.7,0-1C75.1,41.5,75.2,41.4,75.3,41.4z
		 M77.1,67.1c-0.1-1.4-1.2-2.8-2.3-3.2c-1.9-0.5-3.6-0.2-5,1.1c-0.8,0.6-1.6,1.3-1.6,2.5c0,2.2,1.7,4.1,4.4,3.9
		c1.1-0.1,1.9-0.7,2.8-1.2C76.5,69.5,77.2,68.6,77.1,67.1z M61.5,77.9c0.7-0.3,1.7-0.6,2.3-1.2c1-1,1.9-2.2,2.8-3.4
		c0.1-0.1,0-0.3,0.1-0.5c0-0.5,0.1-1,0.1-1.6c0.1-0.8-0.2-1.5-0.9-1.6c-0.5-0.1-1.3,0.1-1.7,0.5c-0.6,0.7-0.9,1.6-1.3,2.4
		c-0.3,0.7-2.8,1.9-3.5,1.7c-0.1,0-0.2-0.1-0.3-0.2c-0.8-0.5-1.5-1-2.4-1.3c-0.4-0.2-1.1-0.2-1.4,0.1c-0.3,0.2-0.7,1-0.6,1.2
		c0.5,1,1.1,2.2,2,2.6C58.2,77.4,59.8,77.5,61.5,77.9z M51.5,70c-2.1-0.1-3.6,1.1-3.7,2.9c-0.1,1.3,1.3,2.9,2.5,3
		c1.4,0.1,3.2-1.6,3.2-3C53.6,71.4,52.6,70,51.5,70z M57.5,70.1c0.9,0,1.7,0,1.9-1c0.2-1.1-0.6-1.4-1.5-1.6
		c-0.9-0.2-1.1-0.9-0.7-1.6c0.2-0.4,0.4-0.9,0.6-1.4c0.1-0.2,0-0.5-0.1-0.6c-0.6-0.5-1.9-0.3-2.5,0.3c-0.8,0.9-1.2,2.1-1.4,3.3
		c0,0.4,0.1,1.1,0.5,1.3C55.2,69.4,56.2,70.2,57.5,70.1z M69.1,61.5c0-1.6-0.9-2.6-2.5-2.7c-1.5,0-2.9,1.2-2.9,2.8
		c0,1.2,1.3,2.4,2.6,2.4C68,64,69.1,63,69.1,61.5z M51.3,66c0-1.6-0.9-2.7-2.1-2.7c-1.7,0-2.9,1.1-2.9,2.8c0,1.2,1.1,2.3,2.2,2.3
		C50.1,68.4,51.3,67.3,51.3,66z"/>
	<path class="st1" d="M109.3,163.1c0.6,0.4,1,0.8,1.6,1c0.7,0.3,1.4,0,1.8-0.6c0.7-1.2,1.4-2.5,1.2-4c0-0.4,0.1-0.8,0.2-1.1
		c0.1-0.2,0.2-0.4,0.3-0.6c0.2-1.8,0.5-3.5,0.7-5.3c0-0.2,0-0.5,0-0.7c-0.1-0.9-0.5-1.7-1.4-1.8c-0.9-0.1-1.7,0.4-1.9,1.3
		c-0.3,1.2-0.5,2.5-0.7,3.7c0,0.3-0.1,0.5-0.2,0.7c-0.2,0.6-0.4,1.2-0.5,1.8c0,0.8-0.3,1.1-1.1,1.2c-0.6,0-1.3,0.2-1.9,0
		c-1-0.2-2-0.4-2.9,0.4c-0.1,0.1-0.4,0.1-0.5,0c-1.2-0.7-2.1-0.4-3,0.6c-1.7-1.6-3.7-0.8-5.6-0.8c-1.3,0-2.6,0.3-3.7,0.5
		c-0.4-0.8-1-1.5-1.2-2.2c-0.2-0.6,0-1.3-0.1-2c-0.2-1.5-0.5-2.9-0.7-4.4c0-0.3-0.2-0.5-0.2-0.7c0.1-2.5-0.3-4.9-1-7.2
		c-0.3-0.9-0.3-1.9-0.4-2.9c-0.1-0.9-0.1-1.7-0.1-2.6c-0.1,0,0.1,0,0.1,0c0.6,1.4,1.2,2.7,1.7,4.1c0.4,1.1,1.9,1.6,3.4,1.6
		c1.9,0,3.4-1.1,4.8-2.2c0.7-0.5,1.1-0.4,1.6,0.2c1.1,1.2,2.4,2.1,4,2.6c0.3,0.1,0.5,0.2,0.7,0.3c1.3,0.7,2.7,1.1,4.1,0.2
		c0.2-0.1,0.6-0.1,0.8,0c1.3,0.3,2.5,0.6,3.5,0c0.3,0.9,0.4,1.8,0.9,2.5c0.6,0.8,1.6,0.7,2.6,0.1c0.2,0.3,0.3,0.5,0.5,0.7
		c0.4,0.3,0.8,0.9,1.1,0.9c1.4-0.1,2.6,0.6,4,0.9c0.8,0.2,1.6,0.7,2.4,0.9c2.2,0.5,3.3,2.4,5.1,3.4c1.6,0.9,3.2,1.8,4.8,2.8
		c1,0.6,1.8,1.6,2.8,1.9c1.9,0.6,2.7,2.5,4.4,3.3c0.3,0.2,0.7,0.5,1,0.5c1.2,0,1.9,0.9,2.8,1.4c0.6,0.3,1.2,0.8,1.8,1.1
		c-1.6,1.4-3.1,3-4.9,4.4c-1.3,1-2.9,1.7-4.2,2.8c-1.4,1.1-3.2,1.1-4.6,2c-3,1.7-6.4,1.8-9.7,2.4c-0.4,0.1-0.8,0-1.2-0.1
		c-2.7-0.5-5.4-0.9-8.1-1.5c-1.5-0.3-2.9-0.7-4.4-1.1c-0.3-0.1-0.7-0.3-0.9-0.6c-0.8-0.9-0.8-2.4-0.3-3.5c0.2-0.5,0.3-1.2,0.2-1.7
		C108.7,166,108.5,164.5,109.3,163.1z"/>
	<path class="st1" d="M86.7,159.3c-1.6,0-3.2,0-4.9,0c-1.5,0-3.1,0.1-4.6,0.2c-0.7,0-1.4,0.3-2.1,0.3c-2.4,0.1-4.9,0.2-7.4,0.4
		c0-0.1-0.2-0.3-0.2-0.6c-0.2-1.6-0.4-3.2-0.7-4.9c-0.2-1.4-0.5-2.8-0.8-4.1c0-0.3,0.1-0.6,0.1-0.8c0-0.6-0.1-1.1-0.2-1.7
		c-0.1-0.4-0.4-0.9-0.4-1.3c-0.1-1.6,0-3.1-0.7-4.6c-0.3-0.6-0.1-1.3-0.1-2c0-0.2,0.1-0.4,0-0.6c-0.7-2.1,0.2-4,0.8-5.9
		c0.5-1.4,1.4-2.7,2.1-4.1c0.2-0.4,0.3-0.7,0.5-1.1c0.2-0.4,0.5-0.7,0.7-1c0.1-0.1,0.3-0.1,0.4-0.2c1-1.4,2.5-1.2,3.9-1.2
		c0.3,0,0.6,0,0.8-0.1c0.8-0.4,1.6-0.5,2.5,0c0.1,0.1,0.3,0.1,0.5,0.1c1.4,0,2.8-0.3,4.1-0.1c1.6,0.3,3.2,0.9,4.2,2.5
		c-1.3,1.7-1.1,3.7-1.2,5.7c-0.1,1.2,0,2.3,0.2,3.4c0.4,2.2,0.1,4.6,0.3,6.8c0.2,2.1,0.7,4.1,1.1,6.1c0,0.2,0.1,0.3,0.1,0.5
		c0.1,1.1,0.1,2.2,0.2,3.4c0,0.3,0.1,0.7,0.3,1C87.4,156.5,87.4,157.9,86.7,159.3z"/>
	<path class="st1" d="M102.1,4.9c-1.5,1.3-2.8,2.5-4.2,3.7c-1.8,1.6-1.9,5.3-0.1,6.9c0.3,0.3,0.6,0.5,0.9,0.8c0.9,0.9,2,0.9,3.4,0.1
		c0.3-0.1,0.5-0.4,0.8-0.4c1.7,0,2.7-1.1,3.5-2.2c0.8-1,1.2-2.2,0.9-3.6c-0.2-1.1-0.5-2.1-0.8-3.2c3.3-1,6.5-0.5,8.7,2
		c1.9,2.1,2.1,4.9,1.2,7.7c-1.6,0-3.2-0.1-4.8,0c-1.3,0.1-2.6,0.6-3.3,1.9c-0.6,1.1-1.4,2.2-1.8,3.3c-0.2,0.5-0.1,1.4,0.3,1.9
		c2,2.7,5.8,3.5,8.3,0.7c0.5-0.5,1.1-0.9,1.6-1.4c0.4-0.4,0.6-0.9,0.9-1.4c0.3-0.5,0.6-0.7,1.1-0.2c2.6,2.5,2.6,5.7,2.1,8.9
		c-0.2,1.1-1.2,2.2-1.8,3.2c-0.3,0.4-0.6,0.8-0.9,1.2c-0.2,0.2-0.3,0.4-0.5,0.5c-1.1,0.6-2.2,1-3.2,1.6c-1.2,0.8-2.5,0.7-3.8,0.7
		c-0.7,0-1.1-0.4-1.3-1.1c-0.3-1.2-0.6-2.5-1.5-3.6c-0.6-0.7-0.8-1.7-1.5-2.4c-1.2-1.1-2.4-2.2-3.6-3.3c-0.2-0.2-0.3-0.5-0.5-0.7
		c-1.1-1.2-1.9-2.8-3.2-3.4c-1.8-0.9-3.1-2.6-5.3-2.7c-0.4,0-0.8-0.6-1.2-0.9c-0.4-0.3-0.8-0.8-1.3-1c-1.7-0.6-2.5-2.1-3.3-3.5
		c-0.7-1.1-1.1-2.3-0.7-3.6c0.1-0.3,0.3-0.6,0.5-1c0.2-0.5,0.5-0.9,0.7-1.4c0.5-1.4,0.9-2.7,2.4-3.4c0.5-0.2,0.9-0.8,1.4-1.3
		c1.5-1.6,3.4-1.6,5.4-1.1c1.4,0.3,2.7,0.9,4,1.4C101.7,4.6,101.9,4.8,102.1,4.9z"/>
	<path class="st1" d="M32.5,73.1c0.2,0.5,0.5,1.4,0.8,2.2c0.1,0.4,0.2,0.9,0.4,1.4c0.6,1.7,1.2,3.5,1.8,5.2c0.1,0.3,0.1,0.7,0.1,1.1
		c0,1,0,2-0.2,3c-0.1,1.1-0.4,2.2-0.6,3.2c-0.4,1.8-0.9,3.6-1.4,5.4c-0.1,0.2-0.3,0.4-0.5,0.6c-1.3,0.9-2.7,1.8-4.1,2.7
		c-0.2,0.2-0.4,0.4-0.7,0.6c-0.9,0.7-1.5,1.5-3,0.9c-1-0.4-2.4-0.4-3.6-0.5c-2.3-0.2-4-1-5.5-2.7c-0.8-0.9-1.8-1.6-2.6-2.5
		c-0.5-0.6-0.9-1.4-1.3-2.1c-0.4-0.6-0.8-1.1-1.2-1.6c-0.8-1-1.6-1.9-2-3.2c-0.4-1.3-0.9-2.5-1.4-3.8c-0.7-1.8-1.4-3.6-2.3-5.3
		c-0.6-1.3-0.7-2.6-1-4c-0.4-1.8-0.1-3.6-0.5-5.4c-0.1-0.4,0.1-0.8,0.2-1.3c0.1-0.5,0.3-1.2,0.1-1.6c-0.6-1.2,0.2-2,0.7-2.9
		c1-1.8,2.2-3.6,3.1-5.5c0.5-1.3,1.4-2,2.5-2.7c0.3-0.2,0.7-0.2,1.1-0.3c0.4-0.1,0.9,0,1.3-0.1c2.1-0.7,4.1-0.2,6.1,0.6
		c1.2,0.5,2.4,0.9,3.5,1.6c1.2,0.8,2.4,1.5,3.2,2.8c0.5,0.9,1.2,1.7,1.8,2.6c1.1,1.8,2.4,3.5,3.1,5.6c0.3,0.9,1,1.6,1.6,2.3
		C32.3,70.5,32.9,71.4,32.5,73.1z M7.6,77c-0.2,1.3,0.1,2.1,0.8,2.7c0.2,0.2,0.3,0.4,0.5,0.7c0.7,1.5,1.4,3,2.1,4.4
		c0.5,0.9,1.2,1.8,1.5,2.8c0.9,2.5,2.9,4.2,4.7,6.1c0.2,0.2,0.7,0.3,1,0.4c0.3,0.1,0.7,0.2,0.9,0.3c0.8,0.5,1.6,1,2.5,1.5
		c0.9,0.4,2-0.6,2.8,0.4c0,0.1,0.3-0.1,0.5-0.1c1.4-0.7,2.9-1.1,3.9-2.5c1-1.4,1.6-3,1.6-4.6c0-1.6-0.5-3.2-0.4-4.8
		c0.1-2.6-1.2-4.8-1.6-7.3c-0.3-1.5-0.8-3.1-1.5-4.4c-0.9-1.5-1.4-3.1-2.1-4.7c-0.5-1.3-1.6-2.3-2.3-3.5c-0.2-0.3-0.2-0.6-0.4-0.9
		c-0.9-1.2-1.6-2.7-2.7-3.5c-1.3-0.9-3.2-1.1-4.5-2.2c-0.2-0.2-0.6-0.2-0.9-0.2c-1.4,0.2-2.8,0.1-4,0.7c-0.2,0.1-0.5,0.2-0.6,0.4
		c-0.5,0.9-1,1.9-1.6,2.8c-1.1,1.6-1.4,3.4-1.4,5.3c0,2.1,0.2,4.1,0.4,6.2c0.1,0.9,0.3,1.8,0.6,2.7C7.2,76.2,7.5,76.7,7.6,77z"/>
	<path class="st0" d="M90.1,129.4c0.1-0.7,0-1.3,0.3-1.6c0.9-1,2-1.8,2.9-2.7c1.5-1.5,3.3-1.2,5.2-1.4c0.4,0,0.7-0.2,1.1-0.3
		c0.2-0.1,0.4-0.2,0.6-0.2c2.3,0.2,4.7,0.4,7,0.6c0.2,0,0.4,0.3,0.6,0.4c0.6,0.3,1.3,0.6,1.9,0.9c0.5,0.2,1,0.5,1.5,0.7
		c0.6,0.3,1.2,0.6,1.7,0.9c0.2,0.1,0.3,0.4,0.4,0.6c1,1.2,1,2.8,1.8,4.1c0.1,0.2,0.1,0.6,0.1,0.9c0,0.2-0.2,0.5-0.1,0.7
		c1.1,1.5-0.4,3.1,0,4.6c0.2,0.8-1.4,2.2-2.5,2.4c-1.1,0.3-2.2,0.7-3.2,1c-0.3,0.1-0.7,0-1-0.1c-0.7-0.2-1.4-0.6-2.1-0.6
		c-2.1-0.1-3.7-1.1-4.9-2.7c-1.1-1.6-2.9-1.8-4.5-0.8c-0.9,0.5-1.7,1-2.1,2c-0.1,0.4-0.7,0.6-1.1,0c-0.2-0.3-0.5-0.6-0.7-1
		c1-0.7,2-1.4,3-2.2c0.6-0.5,1.3-1,1.8-1.5c0.6-0.6,0.7-1.4,0.2-2.2c-0.5-0.8-1.2-0.9-2-0.6c-2,0.6-3.4,1.9-4.8,3.6
		c-0.2-2,0.9-3.2,2.4-4c0.9-0.5,1.8-1.1,2.6-1.7c0.7-0.5,0.8-1.6,0.1-2.4c-0.6-0.8-1.6-0.9-2.5-0.3c-1.2,0.8-2.5,1.4-3.1,2.9
		C90.8,129.2,90.6,129.2,90.1,129.4z"/>
	<path class="st0" d="M101.2,161.7c0.9,0.9,1.8,1.1,3,0.3c0.4-0.3,1.4,0.1,1.6,0.6c0.4,1.5,0.3,3.1-0.2,4.5
		c-0.3,0.9-0.4,1.6,0.1,2.4c0.2,0.3,0.1,0.9,0,1.3c-0.6,1.8-1.3,3.6-0.5,5.6c0.1,0.2,0,0.5-0.2,0.7c-0.5,0.7-0.5,1.5-0.2,2.3
		c0.4,1.1-0.2,1.8-1.3,2.1c-0.9,0.2-1.7,0.5-2.5,0.9c-2.1,1.2-4.4,1.1-6.6,1.3c-0.7,0.1-1.5-0.6-2-0.8c-0.3-2-0.6-3.7-0.8-5.5
		c0-0.3,0.1-0.6,0.1-0.9c0-0.5,0.1-1.2-0.1-1.6c-0.8-1.3-0.5-2.7-0.5-4.1c0-1.6,0-3.2-0.2-4.8c0-0.7-0.4-1.3-0.6-1.9
		c-0.3-1.3,0-1.8,1.4-1.7c1.3,0.1,2.7,0.3,4,0.4c1.3,0,2.6,0,3.9-0.2C100.1,162.5,100.6,162,101.2,161.7z"/>
	<path class="st0" d="M71.6,163.6c1.6-0.1,3.3-0.2,4.9-0.3c0.1,0,0.1,0,0.2,0c1.4-0.1,2.9-0.1,4.3-0.2c1.4-0.1,2.7-0.2,4.1-0.3
		c0.7-0.1,1.3-0.2,2.2-0.3c0,0.7,0.1,1.4,0.1,2.1c0,1.2-0.2,2.4-0.1,3.6c0.2,1.7,0.6,3.4,0.8,5.1c0,0.3-0.1,0.6-0.2,1
		c-0.1,0.7-0.2,1.4-0.2,2.1c0,1.6,0.1,3.2,0.1,4.5c-1.2,0.4-2,0.7-2.9,1c-1.4,0.5-2.9,1-4.3,1.5c-0.3,0.1-0.6,0-0.9,0
		c-0.8,0.1-1.6,0.1-2.4,0.3c-0.5,0.1-1.9-0.8-2-1.4c-0.3-2-0.7-3.9-1.1-5.9c-0.1-0.4-0.1-0.8-0.1-1.2c-0.1-1.3,0-2.6-0.4-3.8
		c-0.4-1.3-1-2.5-0.9-4C72.8,166.2,72,165,71.6,163.6z"/>
	<path class="st0" d="M89.6,102.2c0.1-0.6,0.2-1.2,0.4-1.8c0.5-1.3,1-2.6,1.6-3.8c0.3-0.7,0.8-1.2,1.1-1.9c0.4-1.2,0.7-2.4,1.1-3.6
		c0.4-1.3,0.8-2.6,1.8-3.6c0.3-0.3,0.6-0.8,0.6-1.3c0.1-1.4,0.6-2.7,1.2-4c0.7-1.3,1-2.7,1.5-4.1c0.1-0.4,0.2-1,0.5-1.1
		c0.6-0.2,1.4-0.3,2.1-0.3c1.2-0.1,2.4-0.1,3.6-0.1c0.4,0,0.9,0,1.3,0.1c0.5,0.1,1.1,0.5,1.3,0.3c1.6-1,3.1,0.2,4.6,0.3
		c1.1,0.1,2.3,0.2,3.7,0.3c-1,1-1.9,1.7-2.7,2.5c-0.1,0.1-0.3,0.2-0.4,0.4c-1.2,1.5-2.4,3.1-3.7,4.6c-0.3,0.4-0.7,0.7-1,1
		c-0.3,0.3-0.6,0.6-0.7,0.9c-0.6,2-2.1,3.1-3.8,4.2c-0.5,0.3-0.8,0.9-1.3,1.3c-1.4,1.5-2.8,3.1-4.3,4.6c-0.3,0.3-0.7,0.5-1.1,0.8
		c-0.4,0.3-0.7,0.6-1.1,0.9c-0.5,0.3-0.9,0.7-1.4,1c-0.3,0.2-0.7,0.2-0.8,0.4c-0.9,1.6-2.8,1.3-3.9,2.2
		C89.8,102.3,89.7,102.2,89.6,102.2z"/>
	<path class="st0" d="M105.5,184.5c0.6,1.3,1.1,2.6,1.6,3.8c0.1,0.3,0.2,0.8,0.1,1.1c-0.6,1.3-0.1,2.5,0.3,3.7
		c0.5,1.6-0.4,2.8-2,2.6c-1-0.1-1.9-0.1-2.9,0c-1.1,0.1-2.2,0.3-3.4,0.5c-0.2,0-0.5,0-0.7,0c-2-0.1-3.9,0.4-5.6,1.2
		c-0.2,0.1-0.5,0.1-0.8,0.1c-0.7,0-1.3-0.1-2,0c-0.8,0.1-1.5,0.1-2.3-0.1c-1.1-0.3-2.3-0.1-3.5,0c-1.2,0.1-2.5,0-3.2-0.4
		c-0.4-1.2-0.7-2.3-0.9-3.3c0.8-0.3,1.7-0.6,2.5-1.1c2-1.3,3.9-2.8,5.8-4.2c0.5-0.4,1-0.8,1.4-1.3c0.9-1,1.1-1.1,2.4-0.5
		c2.5,1.1,4.9,1.4,7.5,0.2c0.8-0.4,1.8-0.5,2.7-0.7c1.1-0.2,2-0.6,2.6-1.6C105.3,184.6,105.5,184.5,105.5,184.5z"/>
	<path class="st0" d="M85.2,186.5c-0.4,0.3-0.8,0.6-1.2,1c-1.2,0.9-2.4,1.8-3.8,2.5c-0.3,0.2-0.5,0.6-0.8,0.9
		c-0.5,0.6-0.5,1.6-1.5,1.8c-0.1,0-0.2,0.3-0.3,0.5c-0.5,1.5-1.2,2.9-0.3,4.7c-5.6,0.8-11,1.3-16.5,1.2c0.2-1.4,0.2-2.7,1.4-3.5
		c0.2-0.2,0.5-0.5,0.7-0.5c2-0.3,3-2.2,4.6-3c2.1-1.1,3-3.3,4.9-4.6c0.4-0.3,0.7-0.7,0.9-1c1.1-0.1,2-0.1,3-0.1c0.2,0,0.5,0,0.6,0.1
		c0.8,0.9,1.8,0.7,2.7,0.6c0.8-0.1,1.7,0,2.5-0.2c1-0.1,2-0.4,3-0.6C85.1,186.4,85.2,186.4,85.2,186.5z"/>
	<path class="st0" d="M81.9,103c-0.5-0.1-1-0.3-1.5-0.5c-1.3-0.5-2.6-1-3.8-1.6c-1.7-0.8-3.5-1.6-4.8-3.2c-1.1-1.4-2.2-2.6-3.4-4
		c-0.8-0.9-0.5-2.6,0.5-3.4c0.8-0.6,1.5-1.4,2.2-2.1c0.2-0.2,0.5-0.5,0.8-0.7c1-0.7,1.5-1,2.4,0.8c0.6,1.2,0.8,2.5,1.5,3.6
		c1.4,2.4,2.9,4.8,4.6,6.9c1,1.2,0.8,2.6,1.7,3.6C82.1,102.8,82,102.9,81.9,103z"/>
	<path class="st0" d="M34.5,122.7c0.6-0.9,0.9-1.5,1.9-1.6c1.2-0.1,2.1-1.7,1.9-3c-0.1-0.5,0.1-1.1,0.1-1.7c0-0.3,0.2-0.5,0.1-0.8
		c-0.3-1.6,0-3.2,0.2-4.7c0.1-1.2-0.3-2.4-0.6-3.6c-0.3-1.1-0.7-2.2-1-3.3c-0.4-1.6-1.7-2-3.1-2.2c-0.5-0.1-1-0.2-1.5-0.3
		c0-0.1,0-0.3,0-0.4c0.6,0,1.2,0,1.7,0c1.3,0.1,2.6,0.3,3.9,0.4c0.5,0,0.8,0.1,0.9,0.6c0.4,1.4,0.7,2.8,1.1,4.2
		c0.1,0.4,0.2,0.8,0.5,1.1c0.6,0.6,0.5,1.4,0.7,2.1c0.1,0.9,0.6,1.8,1,3c-0.4,1.4-0.8,3.2,0.1,5c0.1,0.2-0.1,0.6-0.3,0.7
		c-0.7,0.6-1.5,1.2-2.2,1.7c-1.1,0.8-2.1,1.6-3.2,2.3C36.2,122.8,35.4,122.6,34.5,122.7z"/>
	<path class="st0" d="M86,100.6c-0.9-0.8-1.6-1.4-2.1-2.1c-0.4-0.4-0.4-1.1-0.7-1.6c-0.8-1.7-1.6-3.3-2.4-4.9
		c0.9-0.4,1.8-0.9,2.8-1.3c0.2-0.1,0.4,0.1,0.7,0.1c0.4,0,0.9,0.1,1.3,0c1.6-0.4,3.2-1,4.8-1.4c0.1,0,0.2,0,0.5-0.1
		c-0.2,0.5-0.3,1.1-0.6,1.4c-1,1.2-1.5,2.6-1.7,4.1c-0.2,1-0.7,1.9-1.1,2.9c-0.2,0.5-0.4,1.1-0.6,1.6C86.5,99.7,86.3,100.2,86,100.6
		z"/>
	<path class="st0" d="M25.4,114.1c-0.1-1.2-0.3-2.3-0.4-3.6c3.2,1.3,6.4,1,9.7,0.8c0.5,0.6,0.5,0.6,0.1,2.3
		C31.7,113.7,28.7,113.9,25.4,114.1z"/>
	<path class="st0" d="M35,108.2c-1.8-0.2-3.5-0.5-5.3-0.6c-1.3-0.1-2.7,0-4-0.1c-0.3,0-0.9-0.3-0.9-0.4c0-0.5,0.1-1.2,0.4-1.6
		c0.3-0.3,1-0.4,1.5-0.4c1.1-0.1,2.2,0,3.3,0c0.2,0,0.5-0.1,0.6,0c0.7,0.8,1.7,0.7,2.7,0.8C34.9,106.1,35.1,106.4,35,108.2z"/>
	<path class="st0" d="M34.4,117.9c-0.1,0.4-0.1,0.7-0.2,1.1c0-0.1-0.1-0.2-0.1-0.3c-1,0.3-2.1,0.7-3.1,1c-1.2,0.4-2.3,0.7-3.5,1
		c-1.1,0.3-1.6-0.1-1.6-1.2c0-0.5,0-0.9,0-1.6C28.7,117.9,31.5,117.9,34.4,117.9z"/>
	<path class="st1" d="M103.6,8.1c0.9,1.8,0.5,3.5-0.8,4.6c-0.7,0.6-1.3,1.2-2.3,0.7c-0.2-0.1-0.5-0.3-0.5-0.5
		c0.1-1.2,0.4-2.4,1.4-3.2C102.1,9,102.9,8.6,103.6,8.1z"/>
	<path class="st1" d="M115.2,19.9c-0.3,0.4-0.6,0.8-0.8,1.2c-0.7,1.3-2.2,1.3-3.2,2.1c-0.1,0.1-0.6-0.2-0.7-0.4
		c-0.3-0.7,0.1-2.1,0.7-2.5C112.4,19.3,113.7,19.2,115.2,19.9z"/>
	<path class="st1" d="M77.1,67.1c0.1,1.4-0.5,2.4-1.8,3.2c-0.9,0.6-1.7,1.2-2.8,1.2c-2.7,0.2-4.4-1.7-4.4-3.9c0-1.2,0.9-1.9,1.6-2.5
		c1.4-1.2,3.2-1.6,5-1.1C75.9,64.3,77,65.8,77.1,67.1z"/>
	<path d="M61.5,77.9c-1.7-0.4-3.4-0.5-4.7-1.2c-0.9-0.4-1.4-1.7-2-2.6c-0.1-0.3,0.2-1,0.6-1.2c0.3-0.2,1-0.2,1.4-0.1
		c0.8,0.3,1.6,0.9,2.4,1.3c0.1,0.1,0.2,0.1,0.3,0.2c0.7,0.3,3.2-1,3.5-1.7c0.4-0.8,0.8-1.7,1.3-2.4c0.3-0.4,1.1-0.6,1.7-0.5
		c0.7,0.1,1,0.8,0.9,1.6c-0.1,0.5-0.1,1-0.1,1.6c0,0.2,0,0.4-0.1,0.5c-0.9,1.1-1.7,2.4-2.8,3.4C63.2,77.3,62.2,77.6,61.5,77.9z"/>
	<path class="st1" d="M51.5,70c1.1,0,2.1,1.4,2.1,2.9c0,1.4-1.8,3-3.2,3c-1.2-0.1-2.6-1.7-2.5-3C47.9,71.1,49.4,69.9,51.5,70z"/>
	<path d="M57.5,70.1c-1.3,0.1-2.2-0.7-3.2-1.3c-0.3-0.2-0.5-0.9-0.5-1.3c0.1-1.2,0.6-2.3,1.4-3.3c0.5-0.6,1.9-0.8,2.5-0.3
		c0.1,0.1,0.2,0.4,0.1,0.6c-0.1,0.5-0.3,0.9-0.6,1.4c-0.4,0.8-0.2,1.4,0.7,1.6c0.9,0.2,1.7,0.5,1.5,1.6
		C59.2,70.1,58.3,70.1,57.5,70.1z"/>
	<path d="M69.1,61.5c0,1.5-1.1,2.5-2.8,2.5c-1.3,0-2.7-1.2-2.6-2.4c0.1-1.6,1.4-2.9,2.9-2.8C68.2,58.8,69.1,59.9,69.1,61.5z"/>
	<path d="M51.3,66c0,1.2-1.2,2.3-2.7,2.4c-1.2,0-2.2-1-2.2-2.3c0-1.7,1.2-2.8,2.9-2.8C50.4,63.3,51.3,64.4,51.3,66z"/>
	<path d="M7.6,77c-0.1-0.3-0.3-0.8-0.5-1.3c-0.2-0.9-0.5-1.8-0.6-2.7c-0.2-2.1-0.4-4.1-0.4-6.2c0-1.8,0.3-3.7,1.4-5.3
		c0.6-0.9,1-1.9,1.6-2.8c0.1-0.2,0.4-0.3,0.6-0.4c1.3-0.6,2.7-0.5,4-0.7c0.3,0,0.7,0,0.9,0.2c1.3,1.1,3.2,1.2,4.5,2.2
		c1.2,0.8,1.8,2.3,2.7,3.5c0.2,0.3,0.2,0.6,0.4,0.9c0.8,1.2,1.8,2.2,2.3,3.5c0.7,1.6,1.2,3.2,2.1,4.7c0.8,1.3,1.3,2.9,1.5,4.4
		c0.4,2.5,1.8,4.7,1.6,7.3c-0.1,1.6,0.5,3.2,0.4,4.8c0,1.7-0.5,3.2-1.6,4.6c-1,1.4-2.5,1.8-3.9,2.5c-0.1,0.1-0.4,0.2-0.5,0.1
		c-0.8-1-1.9,0.1-2.8-0.4c-0.9-0.4-1.7-1-2.5-1.5c-0.3-0.2-0.6-0.2-0.9-0.3c-0.3-0.1-0.8-0.2-1-0.4c-1.7-1.9-3.7-3.6-4.7-6.1
		c-0.4-1-1.1-1.8-1.5-2.8c-0.7-1.5-1.4-3-2.1-4.4c-0.1-0.2-0.3-0.5-0.5-0.7C7.7,79.1,7.4,78.3,7.6,77z M14.4,61.5
		c-0.1,0.8,0,1.6-0.3,2.1c-0.7,1.2-0.1,2.3,0.1,3.3c0.6,2.6,1.5,5.2,2.3,7.8c0.7,2.2,1.7,4.3,2.9,6.2c0.3,0.5,0.7,1.2,0.7,1.7
		c0,1,0.5,1.6,1.4,2c1,0.4,1.5,1.2,1.7,2.2c0,0.2,0.1,0.5,0.3,0.6c0.8,0.5,1.6,0.9,2.6,1.4c-0.3-1.6,0.5-3.1-0.2-4.8
		c-0.8-1.9-0.7-4-1.7-5.8c-0.6-1.2-1.2-2.5-1.5-3.9c-0.5-1.7-1-3.4-1.9-5c-0.5-1-0.8-2.1-1.2-3.2c-0.1-0.2-0.2-0.4-0.4-0.6
		c-1-1.1-2-2.2-3-3.3C15.8,61.8,15.3,61,14.4,61.5z M12.3,60.6c-0.7-0.5-1.2-0.4-1.7,0.2c-1.1,1.4-1.7,3.1-1.9,4.9
		c-0.1,0.6,0,1.2-0.1,1.8c-0.3,1.5,0.8,2.9,0,4.4c-0.1,0.1,0,0.3,0.1,0.4c1,1.3,0.9,3.1,2.2,4.2c0.1,0.1,0.1,0.3,0.2,0.5
		c0.6,1.4,1.1,2.8,1.8,4.1c0.9,1.8,2,3.6,2.9,5.5c0.7,1.5,1.5,3,2.9,3.9c1.5,1,3.2,1.8,4.8,2.7c0.1-0.1,0.3-0.3,0.4-0.4
		c-0.4-0.2-0.8-0.3-1.3-0.5c1-0.1-0.5-1.3-1-2.5c-0.2-0.3-0.5-0.7-0.9-0.8c-1-0.5-1.7-1.2-1.7-2.4c-0.1-1-0.4-1.8-1.4-2.3
		c-0.4-0.2-0.7-0.5-0.9-0.9c-1.5-2.8-3.4-5.5-4.1-8.6c-0.2-0.7-0.4-1.5-0.6-2.2c-0.3-1.3-0.7-2.6-0.8-3.9c-0.1-1.8,0.2-3.6,0.2-5.3
		C11.4,62.4,12,61.5,12.3,60.6z"/>
	<path class="st0" d="M12.3,60.6c-0.3,0.9-0.9,1.7-0.9,2.6c0,1.8-0.4,3.6-0.2,5.3c0.1,1.3,0.5,2.6,0.8,3.9c0.2,0.7,0.4,1.5,0.6,2.2
		c0.8,3.2,2.7,5.8,4.1,8.6c0.2,0.4,0.5,0.7,0.9,0.9c1,0.5,1.3,1.3,1.4,2.3c0.1,1.2,0.7,1.9,1.7,2.4c0.3,0.2,0.7,0.5,0.9,0.8
		c0.6,1.2,2,2.4,1,2.5c0.5,0.2,0.9,0.3,1.3,0.5c-0.1,0.1-0.3,0.3-0.4,0.4c-1.6-0.9-3.3-1.7-4.8-2.7c-1.4-0.9-2.2-2.4-2.9-3.9
		c-0.9-1.9-2-3.6-2.9-5.5c-0.7-1.3-1.2-2.7-1.8-4.1c-0.1-0.2-0.1-0.4-0.2-0.5c-1.3-1.1-1.2-2.9-2.2-4.2c-0.1-0.1-0.2-0.3-0.1-0.4
		c0.8-1.5-0.3-2.9,0-4.4c0.1-0.6,0-1.2,0.1-1.8c0.2-1.8,0.8-3.5,1.9-4.9C11.2,60.2,11.6,60.1,12.3,60.6z"/>
</g>
</svg>
