<?xml version="1.0" encoding="utf-8"?>
<!-- Generator: Adobe Illustrator 25.0.0, SVG Export Plug-In . SVG Version: 6.00 Build 0)  -->
<svg version="1.1" id="_xEFF5__xEED3__x5F_7" xmlns="http://www.w3.org/2000/svg" xmlns:xlink="http://www.w3.org/1999/xlink"
	 x="0px" y="0px" viewBox="0 0 108.6 166.8" style="enable-background:new 0 0 108.6 166.8;" xml:space="preserve">
<style type="text/css">
	.st0{fill:#FDD23E;}
	.st1{fill:#FFFFFF;}
</style>
<g>
	<g>
		<path d="M15.3,148.9c-0.6,0.4-1,0.8-1.5,1.1c-1.2,0.7-1.9,1.9-2.5,3.1c-0.3,0.6-0.7,1-1.1,1.6c-0.8,1.1-0.4,2.1,0.8,2.7
			c0.6,0.3,1.2,0.8,1.7,1.3c0.7,0.6,1.5,1.2,2.2,1.8c0.9,0.8,1.8,1.6,2.7,2.3c1.6,1.3,3.5,2.3,5.4,3.2c0.1,0.1,0.2,0.1,0.3,0.2
			c0.8,0.8,2.2,0.9,3,0.2c1-0.9,1-2.4,0.3-3.4c-0.9-1.2-1.7-2.5-2.1-4c-0.2-0.9-0.7-1.7-1-2.5c-0.2-0.4-0.3-0.8-0.6-1.4
			c0.5,0.1,0.8,0.2,1.1,0.3c0.7,0.2,1.5-0.3,1.4-0.9c-0.2-1.2,0.7-1.7,1.3-2.4c0.2-0.2,0.5-0.4,0.7-0.5c1.5-1.1,2.8-2.2,3.9-3.7
			c0.3-0.4,0.8-0.6,1.2-0.9c1.7-1.4,3.3-3,4.7-4.8c0.1-0.1,0.1-0.2,0.2-0.3c1.9-0.9,2.9-2.8,4.3-4.3c1.1-1.3,2.5-2.5,3.4-4
			c0.4-0.7,0.9-1.3,1.2-2.1c0.3-0.8,0.9-1.4,1.3-2.1c0.6-1,1.3-1.9,1.3-3.2c0-0.3,0.2-0.7,0.4-0.9c0.8-0.9,1-2,1.4-3
			c0.3-1,0.8-1.9,1.2-2.9c0.1-0.2,0.3-0.4,0.2-0.6c-0.4-1.6,0.9-2.6,1.3-4c0.2-0.6,0.3-1.3,0.4-1.9c0-0.1,0-0.3,0.1-0.4
			c0.5-0.5,0.8-1.1,0.7-1.9c0-0.2,0.2-0.4,0.5-0.8c0.9,1.5,1.8,2.7,2.4,4.1c0.5,1.1,1.2,2,1.9,2.9c0.2,0.2,0.3,0.4,0.4,0.7
			c0.3,0.8,0.6,1.6,1,2.3c0.5,0.9,1.2,1.6,1.4,2.7c0.1,0.6,0.6,1.1,1,1.7c0.5,0.8,1.2,1.4,1.7,2.2c0.5,0.8,0.9,1.7,1.4,2.5
			c0.9,1.4,1.1,3.1,2.5,4.1c0.1,0.1,0.1,0.4,0.2,0.5c0.1,0.2,0.1,0.6,0.3,0.7c1.2,0.7,1.4,2,1.9,3.1c0.9,1.7,2.3,3.3,3.5,4.9
			c0.1,0.1,0.3,0.2,0.3,0.3c-0.2,1.3,0.8,2.1,1.2,3.1c0.3,0.9,1,1.6,1.4,2.6c0.5,1.2,1.3,2.4,2.1,3.5c0.7,1.1,1.1,2.3,2.1,3.2
			c0.6,0.5,0.9,1.4,1.4,1.9c0.4,0.4,1,0.5,1.6,0.7c0.4,0.1,0.8,0,1.2,0c1.3,0.1,1.3,0.1,1.5,1.4c0.2,1.6,0.6,3,1.5,4.4
			c0.3,0.5,0.6,1.1,0.8,1.7c0.3,0.7,0.8,1,1.5,0.9c0.6-0.1,1.1-0.3,1.7-0.4c0.1,0,0.3-0.1,0.4-0.1c1.3,0.2,2.6,0.1,3.9-0.4
			c0.6-0.2,1.3-0.1,1.9-0.2c0.7-0.2,1.4-0.5,2.1-0.7c0.4-0.1,0.8-0.1,1.2-0.2c1-0.3,2-0.6,3-0.9c0.6-0.2,1.2-0.5,1.8-0.8
			c1-0.5,1.7-3,1.1-3.9c-0.1-0.1-0.2-0.3-0.3-0.4c-1-0.3-2-0.6-2.9-0.9c-0.3-0.1-0.5-0.1-0.8-0.2c-0.3-0.1-0.5-0.3-0.8-0.3
			c-1.9,0.2-3.7-1-5.6-0.9c-0.8,0-1.7-0.4-2.6-0.6c1-0.8,0.8-1.7,0.5-2.7c-0.6-1.6-1.1-3.2-1.6-4.8c-0.1-0.2-0.2-0.4-0.3-0.6
			c-0.3-0.8-0.6-1.6-1-2.4c-0.3-0.7-0.6-1.4-0.9-2.2c-0.1-0.1-0.2-0.3-0.2-0.4c-0.4-1.3-0.7-2.5-1.2-3.8c-0.8-2.1-1.6-4.1-2.4-6.1
			c-0.2-0.5-0.3-1.1-0.5-1.6c-0.4-0.9-0.9-1.7-1.2-2.6c-0.3-0.7-0.5-1.4-0.8-2.1c-0.5-1.2-1.1-2.4-1.5-3.6c-0.4-1-0.7-2-1-2.9
			c-0.4-1.1-0.8-2.1-1.2-3.2c-0.3-0.8-0.5-1.6-0.8-2.3c-0.2-0.4-0.5-0.8-0.8-1.3c-0.1-0.1-0.3-0.3-0.2-0.4c0.4-1.3-0.5-2.3-1-3.4
			c-0.1-0.2-0.1-0.4-0.2-0.6c-0.3-0.5-0.5-1.1-0.8-1.6c-0.2-0.3-0.5-0.6-0.6-0.9c-0.3-1-0.6-2-0.9-2.9c-0.2-0.4-0.5-0.8-0.7-1.2
			c-0.2-0.6-0.5-1.2-0.5-1.8c0.1-0.3,0.8-0.7,1.2-0.8c1.2-0.3,1.7-1,1.3-2.2c-0.1-0.3-0.3-0.5-0.3-0.8c0.1-1.2-0.4-2.1-1.2-3
			c0.5-0.7,0.6-1.4,0.2-2.3c-0.2-0.5-0.1-1.1-0.2-1.6c-0.1-1-0.4-1.9-0.9-2.9c-0.3-0.6-0.2-1.3-0.2-2c0-0.2,0.1-0.4,0-0.5
			c-0.7-1-0.5-2.1-0.8-3.2c-0.3-1.1-0.5-2.3-0.7-3.4c-0.3-1.3-0.8-2.5-1.2-3.8c-0.1-0.3-0.1-0.6-0.2-0.9c0.1,0,0.1-0.1,0.2-0.1
			c0.2,0.2,0.4,0.3,0.6,0.5c0.3,0.3,0.7,0.6,1,0.8c0.5,0.4,1.1,0.6,1.6,1c1.1,0.8,3,0.5,3.9-0.5c0.3-0.3,0.8-0.5,1.3-0.7
			c0.1-0.1,0.3-0.1,0.3-0.2c0.5-0.5,0.8-1.3,1.4-1.6c0.7-0.4,1-1,1.5-1.6c0.6-0.7,1.4-1.2,2-1.9c0.6-0.6,1.2-1.3,1.8-2
			c0.2-0.2,0.3-0.3,0.5-0.5c0.2-0.2,0.5-0.4,0.6-0.7c0.3-1.2,1.3-1.8,2.1-2.6c0.6-0.7,1.2-1.4,1.7-2.2c0.5-0.7,1.2-1.1,1.3-2
			c0.1-0.5,0.8-0.9,1.2-1.4c0.7-1,1.4-2.1,2.1-3c0.4-0.5,1-0.6,1.3-1.3c0.4-0.8,0.4-1.3-0.2-1.9c-0.1-0.1-0.1-0.2-0.3-0.5
			c0.7,0.2,1.2,0.2,1.7,0.4c1.1,0.5,2.3,0.4,3.1-0.5c0.4-0.5,0.8-0.6,1.5-0.7c0.8-0.1,1.8-0.3,2.4-0.8c0.5-0.4,0.7-1.4,0.7-2.1
			c0-1.3-0.2-2.6-0.5-3.9c-0.2-0.8-0.7-1.5-1.1-2.3c-0.1-0.1-0.3-0.3-0.2-0.4c0.3-1.7-1.1-2.3-2.1-3.1c-0.3-0.2-1,0-1.6,0
			c-0.2-0.9-0.3-2-0.6-3.1c-0.2-0.7-0.5-1.3-0.7-2c-0.3-0.9-0.5-1.7-0.7-2.8c0.4,0.1,0.8,0,1.1,0.2c1.7,1,4.5,0.7,5.3-2
			c0.2-0.9,0.4-1.7-0.4-2.5c0.6-0.3,1.2-0.4,1.6-0.7c0.4-0.2,0.8-0.5,0.9-0.9c0.3-1.4,0.4-2.8-0.6-4.1c-0.8-1-1.7-1.7-2.7-1.9
			c0.2-1,0.4-1.9,0.5-2.8c0-0.1,0-0.2,0.1-0.3c0.8-1,0.4-2.1-0.2-2.8c-0.7-0.8-1.7-1.6-3-1.2c-0.6,0.2-0.8,0-0.9-0.6
			c-0.2-1.1-1.9-2.6-2.9-2.8c-0.4,0-0.9,0.1-1.3,0.3c-0.3,0.1-0.5,0.3-0.8,0.4c-0.8,0.3-1.3,0.7-1.7,1.6c-0.4,0.9-1,1.6-1.6,2.6
			c-0.2-0.2-0.3-0.4-0.4-0.5c-0.2-0.2-0.4-0.6-0.6-0.5c-0.9,0-1.2-0.7-1.8-1.2c-0.4-0.3-0.9-0.5-1.3-0.5c-1.6,0.2-3,0.8-3.5,2.6
			c-0.3,1-0.4,2-0.2,3c0,0.3-0.3,0.7-0.6,0.9c-1.1,0.8-1.6,2-1.2,3.3c0.4,1.4,1.3,2.5,2.8,2.8c0.7,0.1,1.4,0.3,2.3,0.5
			c-0.4,0.5-0.6,1-1,1.3c-1.3,0.9-1.4,2.3-1.3,3.6c0.1,1.4,2.1,2.8,3.5,2.5c0.5-0.1,0.8,0,1,0.4c0.7,1.2,1.8,1.5,3.1,1.6
			c0.9,0.1,2.6-0.9,3-1.8c0.1-0.1,0.1-0.2,0.3-0.4c0.5,1,1.2,1.8,1.5,2.8c0.3,0.7,0.3,1.5,0.3,2.3c0,0.4-0.3,0.9-0.6,1.3
			c-1.3,1.5-2.5,2.9-3.9,4.3c-0.8,0.8-1.8,1.4-2,2.5c-0.2,0.7-0.2,1.5-0.2,2.2c0.1,0.9,0,1.3-0.9,1.4c-1.3,0.2-2,1-2.6,1.9
			c-0.7,1-1.5,1.6-2.5,2.2c-0.9,0.6-1.8,1.6-2.6,2.4c-0.8,0.9-1.4,1.7-2.4,2.3c-1.2,0.7-2.1,1.9-3.1,2.9c-0.3,0.2-0.6,0.4-0.9,0.5
			c-0.7-1.1-1.3-2.1-2-3c-1-1.2-2-2.5-3.1-3.5c-1.2-1-1.9-2.4-2.9-3.5c-0.3-0.3-0.6-0.7-0.9-1c-1.3-1.2-2.8-2.3-4-3.7
			c-0.6-0.6-1-1.2-1.8-1.3c-0.2,0-0.3-0.3-0.4-0.5c-0.1-0.2-0.2-0.5-0.4-0.5c-0.9-0.1-1.1-1-1.8-1.4c-0.7-0.4-0.6-1.1-0.5-1.8
			c0-0.9,0-1.9,0.1-2.8c0.1-0.6,0.3-1.2,0.5-1.7c1.2,0.2,2.3,0.4,3.4,0.6c0.2,0,0.5,0,0.6-0.1c0.7-0.4,1.3-0.3,2-0.1
			c0.3,0.1,0.6,0,1-0.1c0.5-0.1,1.1-0.3,1.6-0.4c1.1-0.2,1.5-0.9,1.4-2c-0.1-0.9,0-1.8,0.1-2.7c0-0.6,0.1-1.2,0.3-1.8
			c0-0.2,0.1-0.4,0.2-0.5c0.6-0.4,1.3-0.8,1.9-1.3c1.5-1,1.3-2-0.1-3.1c-1.1-0.8-2-1.6-2.2-3c0-0.1-0.1-0.2-0.1-0.2
			c0.5-1.1-0.2-2.1-0.2-3.2c0-0.6,0.2-1.1,0.8-1.5c0.9-0.6,1.9-1.2,1.6-2.6c-0.1-0.3,0.3-0.7,0.6-1c0.8-0.9,0.8-1.9,0.3-2.9
			c-0.1-0.2-0.2-0.4-0.1-0.6c0.4-1.3-0.3-2.2-1.2-2.9c-0.4-0.3-0.8-0.7-1.2-1.1c-0.5-0.5-1-1-1.9-1c-0.4,0-1-0.2-1.2-0.5
			c-0.8-1.3-2.1-1.2-3.1-0.8c-0.9,0.3-1.5,0.1-2.2,0c-0.5-0.1-1.1,0-1.6,0c-0.3,0-0.5,0.1-0.8,0.1c-1.8-0.1-3.5-0.3-5.3-0.2
			c-1,0-2.1-0.4-3.1,0.3c-0.2,0.1-0.5,0.1-0.7,0.1c-2.5-0.3-4.9,0.3-7.3,0.6c-0.4,0.1-0.8,0.3-1.1,0.5c-1,0.9-1.9,1.8-3,2.7
			c-1,0.8-1.9,1.7-2.5,2.8c-0.3,0.5-0.9,0.9-1.1,1.5c-0.5,1.2-0.9,2.4-1.3,3.6c-0.1,0.3,0,0.6,0,1c0,0.2,0.1,0.5,0,0.6
			c-0.8,1.8-0.3,3.6,0.2,5.4c0.4,1.3,0.8,2.5,1.3,3.8c-0.5-0.2-1.1-0.5-1.7-0.5c-1.4,0-2.8,0-4.1,0.4c-0.5,0.1-1,0.8-1.7,1
			c-0.4,0.1-0.9,0.1-1.2,0.3c-0.8,0.7-1.6,1.4-2.3,2.2c-0.3,0.4-0.4,1.1-0.4,1.6c0,1.5-0.6,3.1,0.4,4.5c0.1,0.2,0.1,0.5,0.2,0.7
			c0.3,1.1,0.7,2.2,0.7,3.3c0,0.9-0.3,1.8-0.5,2.7c0,0.1-0.1,0.2-0.2,0.2c-0.8,0.4-1.7,0.7-2.5,1.1c-0.2,0.1-0.4,0.4-0.4,0.6
			c0,0.2,0.3,0.4,0.5,0.5c0.3,0.1,0.7,0.2,1.1,0.2c0.8,0,1.6,0.2,2.3,0c1-0.4,1.9-0.6,3-0.5c0.1,0,0.2,0,0.3-0.1
			c1.3-0.9,3-1.1,4.2-2.4c1.1-1.2,1.5-2.5,1.4-4.1c-0.1-1.3,0-2.6-0.6-3.8c-0.1-0.2,0.1-0.6,0.2-0.9c0.3-0.6,0.5-1.2,0.9-1.6
			c0.3-0.4,0.9-0.7,1.3-1.1c0.5-0.5,1.1-0.1,1.6-0.2c1.2-0.1,1.7,0.6,2.4,1.3c0.7,0.8,1.9,1.2,2.8,1.8c1.3,1,2.6,2,3.9,3
			c0.7,0.6,0.4,1.7-0.1,2.4c-0.7,0.9-1.6,1.1-2.5,1.4c-0.2,0-0.3,0.1-0.4,0.2c-0.6,0.6-1.1,1.4-2.1,1.4c-0.1,0-0.3,0.2-0.4,0.4
			c-0.5,1.1-1.4,1.9-2.2,2.7c-0.7,0.7-1.1,1.6-1.7,2.4c-0.2,0.3-0.5,0.5-0.7,0.8c-0.8,1.1-1.5,2.2-2.3,3.3c-0.9,1.2-1.9,2.5-2.8,3.7
			c-0.3,0.4-0.6,0.9-0.9,1.4c-1.4,2.1-2.8,4.2-4.2,6.3c-0.3,0.5-0.5,1.1-0.9,1.5c-1,1.4-1.8,2.8-3,4.1c-2,2.1-3.1,4.8-4.9,7.1
			c-1,1.2-1.7,2.7-2.6,4c-0.2,0.4-0.6,0.6-0.8,1c-0.9,1.4-1.7,2.7-2.6,4.1c-0.2,0.3-0.3,0.6-0.5,0.8c-0.4,0.6-0.8,1.2-1.2,1.8
			c-0.4,0.6-0.9,1.3-1.3,1.9c-0.5,0.8-1.1,1.5-1.6,2.3c-0.8,1.1-0.6,1.8,1,2.4c-0.7,0.8-1.4,1.6-2,2.4c-0.3,0.4-0.7,0.8-1,1.2
			c-0.1,0.1-0.2,0.3-0.3,0.4c-1.3,0.5-1.9,1.7-2.8,2.7c-0.1,0.1-0.4,0.2-0.6,0.3c-0.7,0.4-1.5,0.9-2.2,1.4C0,99.1-0.1,99.6,0,99.7
			c0.5,0.6,1,1.1,1.5,1.6c0.1,0.1,0.3,0.2,0.4,0.2c1.7-0.1,3.3,0.6,5,0c1.3-0.5,2.5-1,3.7-1.6c0.4-0.2,0.6-0.8,0.9-1.3
			c0.1,0.1,0.2,0.2,0.4,0.3c0,0.2,0,0.4,0.1,0.5c0.5,1.2,1,2.4,1.7,3.6c0.3,0.6,1,0.6,1.6,0.2c0.5-0.4,1-0.7,1.6-1
			c0.7-0.3,1-0.8,0.9-1.5c0-0.4-0.1-0.7-0.2-1.1c-0.1-0.8-0.1-1.5,0.2-2.2c0.3-0.7,0.4-1.6,0.3-2.3c-0.1-1.3,0-1.7,1.1-2.3
			c0.5-0.3,1-0.7,1.3-1.2c0.8-1.6,2.7-2.2,3.4-4c0.3-0.7,1.2-1.1,1.8-1.7c0.2-0.2,0.5-0.5,0.5-0.7c0.1-1.2,0.8-1.7,1.8-2.3
			c0.5-0.2,0.7-0.9,1.1-1.4c0.5-0.7,1.1-1.4,1.6-2c0.2-0.2,0.4-0.4,0.8-0.7c-0.1,0.6-0.1,1-0.2,1.4c-0.4,1.9-0.8,3.7-1.2,5.6
			c-0.2,0.7-0.4,1.5-0.6,2.2c-0.2,0.9-0.3,1.7-0.5,2.6c0,0.2-0.1,0.5-0.2,0.7c-0.1,0.2-0.2,0.4-0.3,0.6c-0.3,1.5-0.6,3-1,4.5
			c-0.1,0.6-0.4,1.3-0.5,1.9c-0.3,1.2-0.6,2.4-0.7,3.6c-0.1,0.8,0.7,1.3,1.7,1.2c1.1-0.1,2.3,0,3.4,0c-0.2,1.7-0.5,3.2-0.6,4.7
			c-0.1,1.8-0.1,3.6-0.1,5.4c0,2.6-0.1,5.1-0.1,7.7c0,1.6,0.1,3.2,0.1,4.8c0,0.2-0.1,0.6-0.3,0.7c-0.7,0.5-1.2,1-1.3,1.9
			c0,0.1-0.1,0.3-0.2,0.4c-1.9,1.6-3.1,3.8-4.7,5.6c-1,1.2-1.7,2.5-2.6,3.8c-0.1,0.1-0.3,0.2-0.4,0.4c-0.7,0.7-1.4,1.5-2,2.3
			c-0.8,1-1.6,2.1-2.4,3.1c-0.5,0.7-1.1,1.4-1.6,2.1c-0.1,0.2-0.3,0.4-0.4,0.5C13.7,147.2,13.8,148.1,15.3,148.9z"/>
		<path class="st0" d="M51.2,84.8c-0.3,0.9-0.5,1.8-0.8,2.6c0,0.2-0.1,0.3-0.1,0.5c-0.1,1.6-0.1,3.2-0.2,4.8c0,0.1,0,0.2,0,0.2
			c-0.6,0.9-0.3,2-0.5,2.9c-0.1,0.5-0.2,1-0.5,1.4c-0.5,0.9-0.7,1.8-0.5,2.8c0.2,1.2-0.6,2.3-1.7,2.5c-1.2,0.2-2.4,0.6-3.7,0.7
			c-1.7,0.1-3.4,0-5.1-0.1c-0.2,0-0.5,0-0.7,0c-1.3,0-2.6,0.1-3.9,0.1c-0.1,0-0.2,0-0.3,0c0,1.2,0,2.4,0,3.5c0.1,1.5,0.3,3,0.3,4.4
			c0,1.7-0.2,3.3-0.2,5c0,0.8,0.2,1.6,0.2,2.4c0,1.5-0.1,3.1,0,4.6c0,0.6,0.1,1.2,0.2,1.7c0.1,1.1-0.2,1.7-1.3,2.1
			c-0.2,0.1-0.3,0.3-0.4,0.4c-0.2,0.4-0.4,1-0.7,1.2c-1.2,0.6-1.3,1.9-2.1,2.8c-1,1.1-1.6,2.5-2.5,3.7c-1,1.3-2.2,2.6-3.2,3.9
			c-0.1,0.1-0.2,0.2-0.2,0.3c-0.7,2-2.3,3.2-3.6,4.8c-0.9,1.1-1.8,2.2-2.7,3.3c0.6,1.3,1.9,2,3,2.8c0.6,0.5,1.2,0.9,1.8,1.5
			c0.9,0.8,1.1,0.8,1.9-0.1c0.7-0.7,1.6-1.3,2.3-1.9c1.3-1.1,2.7-2.3,3.9-3.4c0.5-0.5,0.9-1.1,1.4-1.6c1.3-1.1,2.3-2.5,3.9-3.3
			c0.5-0.3,0.9-1,1.3-1.5c0.2-0.3,0.5-0.5,0.7-0.8c0.6-0.6,1.3-1.3,1.9-1.9c0.6-0.6,1.3-1.1,1.9-1.7c0.1-0.1,0.4-0.2,0.4-0.4
			c0.5-1.1,1.6-1.6,2.3-2.5c0.2-0.3,0.4-0.7,0.5-1.1c0.2-0.7,0.3-1.4,0.5-2c0.1-0.5,0.3-1,0.5-1.5c0.5-0.9,1-1.9,1.5-2.8
			c0.2-0.3,0.3-0.6,0.4-1c0.3-1,0.6-2,1-2.9c0.3-1,0.7-2,1.1-2.9c0.1-0.2,0.1-0.6,0.2-0.7c1.4-1,1.1-2.8,1.8-4
			c0.3-0.5,0.6-1,0.8-1.5c0-0.1,0.1-0.1,0.1-0.2c0.4-1.6,0.8-3.2,1.3-4.8c0.1-0.4,0.5-0.8,0.9-0.8c0.3-0.1,0.8,0.3,1.1,0.5
			c0.5,0.5,0.9,1.2,1.4,1.8c0.3,0.5,0.7,0.9,1,1.4c0.8,1.2,1.5,2.3,2.2,3.6c0.4,0.7,0.5,1.5,0.8,2.2c0.1,0.2,0.3,0.5,0.4,0.7
			c0.5,0.7,1.1,1.4,1.5,2.1c0.4,0.9,0.7,1.8,1.5,2.5c0.5,0.4,0.7,1,1,1.6c0.9,1.5,1.7,3.1,2.6,4.6c0.5,0.8,1.1,1.5,1.6,2.3
			c0.1,0.1,0.2,0.2,0.2,0.3c0.6,1.3,1.2,2.7,1.9,4c0.2,0.4,0.5,0.7,0.8,1c0.3,0.3,0.7,0.5,0.9,0.8c0.9,1.8,1.8,3.6,2.7,5.3
			c0.1,0.1,0.1,0.3,0.2,0.4c1.4,0.5,1.5,1.9,2.1,2.9c0.4,0.7,0.7,1.5,1.2,2.2c1.2,1.9,2.2,3.9,3.2,6c0.5,0.9,0.8,1.9,1.3,2.7
			c0.1,0.2,0.6,0.4,0.9,0.3c1-0.3,2-0.9,3.1-1.1c1.2-0.2,2.4-0.6,3.5-1.1c0.6-0.3,1.3-0.5,1.9-0.8c-0.5-1.2-1-2.3-1.4-3.5
			c-0.2-0.6-0.5-1.3-0.5-2c0-0.9-0.4-1.6-0.9-2.4c-0.4-0.7-0.6-1.4-0.8-2.2c-0.1-0.2-0.1-0.4-0.1-0.5c-0.5-1.1-1.1-2.3-1.6-3.4
			c-0.6-1.3-1.1-2.7-1.6-4.1c-0.5-1.3-1.1-2.5-1.5-3.8c-0.3-0.8-0.4-1.7-0.7-2.4c-0.3-0.7-0.8-1.4-1-2.1c-0.4-1.2-0.8-2.5-1.2-3.7
			c-0.2-0.6-0.6-1.1-0.8-1.7c-0.6-1.6-1-3.2-1.6-4.8c-0.3-0.7-0.7-1.4-0.9-2.1c-0.1-0.4-0.1-0.9-0.2-1.4c0-0.2,0-0.4-0.1-0.5
			c-1.1-0.8-1.1-2-1.5-3.1c-0.1-0.3-0.4-0.5-0.5-0.8c-0.2-0.5-0.2-1-0.3-1.5c-0.1-0.4-0.3-0.8-0.5-1.3c-0.6-1.3-1.7-2.3-1.8-3.8
			c-0.1-1.4-0.9-2-2.3-1.7c-1.8,0.4-2.8-0.3-2.9-2.2c0-0.7-0.1-1.4-0.2-2.2c0-0.1,0-0.2-0.1-0.3c-1.1-0.9-1-2.4-1.6-3.6
			c-0.4-0.9-0.8-1.7-1.2-2.6c-0.1-0.3-0.2-0.5-0.3-0.8c-0.4-1.1-0.8-2.2-1.3-3.3c-0.1-0.1-0.5-0.3-0.6-0.2c-0.7,0.5-1.4,0.4-2.1,0.3
			c-0.6-0.1-1.2,0.1-1.9,0.2c-0.5,0-1,0.1-1.5-0.1c-0.7-0.3-1.4-0.2-2.2-0.2c-0.9,0-1.9-0.1-2.8-0.2C52.4,84.9,51.7,84.8,51.2,84.8z
			"/>
		<path class="st1" d="M10.4,88.7c0.7,0.4,1.2,0.7,1.7,1c0.1,0.1,0.3,0.2,0.4,0.2c1.6,0.6,3.2,1.1,4.6,1.6c0.8-0.8,1.5-1.5,2.2-2.3
			c0.3-0.4,0.6-0.8,0.9-1.1c0.2-0.2,0.3-0.6,0.5-0.7c1.3-0.9,2-2.3,2.9-3.5c0.2-0.3,0.5-0.7,0.9-0.7c1-0.2,1.3-0.8,1.6-1.6
			c0.1-0.4,0.6-0.8,0.9-1.1c0.3-0.4,0.7-0.7,1-1.1c0.8-0.9,1.6-1.9,2.3-2.8c0.9-1.1,1.6-2.4,2.6-3.5c0.8-0.9,1.4-2.1,2.1-3.1
			c0.6-0.9,1.3-1.8,1.9-2.7c0.5-0.7,1-1.4,1.5-2.1c0.4-0.6,0.7-1.2,1.1-1.8c0.3-0.4,0.6-0.8,1-1.2c0.9-0.9,1.8-1.9,2.3-3.1
			c0.2-0.3,0.6-0.5,1-0.7c0.1,0,0.5,0.2,0.5,0.4c0,0.4,0.1,0.9-0.1,1.2c-0.6,1.2-1.3,2.4-2,3.6c-0.4,0.7-0.8,1.3-1.2,2
			c-0.9,1.3-1.7,2.7-2.6,4c-0.8,1.1-1.6,2.2-2.4,3.3c-0.1,0.1-0.1,0.2-0.2,0.3c-0.7,1.3-1.5,2.6-2.2,3.9c-0.1,0.2-0.2,0.4-0.2,0.6
			c-0.1,1.1,0,2.3-0.2,3.4c-0.3,1.7-0.7,3.3-1,5c-0.1,0.7-0.2,1.5-0.3,2.3c-0.2,0.9-0.4,1.8-0.6,2.6c-0.1,0.6-0.1,1.2-0.2,1.8
			c-0.3,1.6-0.7,3.2-1.1,4.9c-0.2,1.2-0.4,2.4-0.7,3.7c0.5,0,1,0,1.5,0c1.3,0,2.6,0,3.9-0.1c1.2,0,2.5-0.1,3.7-0.1
			c0.8,0,1.5-0.1,2.3-0.1c1,0,2,0.1,3,0c0.6,0,1.2-0.3,1.7-0.5c0.1,0,0.2-0.1,0.2-0.2c0.1-1.3,1-2.5,0.4-4c-0.3-0.6,0.2-1.6,0.4-2.4
			c0.1-0.3,0.1-0.7,0.1-1c0-0.4,0-0.8,0.1-1.1c0.1-0.8,0.2-1.6,0.4-2.4c0.4-1.5,0.5-3,0.7-4.5c0.2-1.5,0.8-3,1-4.6
			c0.2-1.3,0.1-2.6,0.3-3.8c0.1-0.7,0.3-1.5,0.6-2.1c0.4-0.7,0.5-1.3,0.1-2.1c-0.2-0.4-0.1-1.2,0.1-1.7c0.2-0.5,0.5-1,0.1-1.6
			c-0.1-0.2-0.2-0.5-0.1-0.8c0.1-1.4,0.2-2.9,0.3-4.3c0-0.4,0-0.8,0-1.2c0.1-1.5,0.1-3,0.2-4.5c0-0.5,0-1-0.2-1.5
			c-0.3-0.9-0.6-1.7-0.2-2.6c0.1-0.2,0.1-0.4,0-0.5c-0.4-1.1-1-2.2-0.4-3.5c0-0.1,0-0.2,0-0.2c-0.9-2.1-1.8-4.2-2.8-6.2
			c-0.6-1.1-1.3-2.2-2-3.3c-0.5-0.8-2.2-0.4-2.7,0.5c-0.6,1.2-1.2,2.5-2,3.6c-0.8,1.2-1.9,2.3-2.7,3.5c-0.6,0.8-1.1,1.7-1.7,2.6
			c-0.2,0.3-0.4,0.6-0.6,1c-0.4,0.6-0.7,1.2-1.1,1.8c-0.3,0.5-0.6,0.9-0.9,1.4c-1.3,2.1-2.6,4.2-4,6.2c-0.4,0.6-0.9,1-1.3,1.6
			c-0.9,1.3-1.9,2.6-2.8,3.9c-0.9,1.4-1.7,2.9-2.6,4.4c-1,1.5-2.1,2.9-3.1,4.3c-0.8,1.2-1.6,2.4-2.4,3.5c-0.9,1.3-1.9,2.5-2.8,3.7
			c-0.1,0.1-0.2,0.2-0.2,0.2c-0.6,1.2-1.3,2.3-1.9,3.5c-0.4,0.7-0.9,1.3-1.4,1.9C10.7,88.4,10.5,88.6,10.4,88.7z"/>
		<path class="st1" d="M96.5,51.4c-1.6-1.4-3.1-2.7-4.6-4c-1.2,1-2.3,1.9-3.5,2.8c-0.1,0.1-0.2,0.3-0.3,0.4C88.1,50.8,88.1,51,88,51
			c-1.3,0.8-1.9,2.1-3.1,3c-0.6,0.4-1.1,1-1.6,1.6c-1.1,1.1-2,2.5-3.6,3.2c-0.4,0.2-0.7,0.4-1,0.7c-0.6,0.5-1.1,0.5-1.7,0.1
			c-2.2-1.4-3.6-3.5-5-5.6c-0.3-0.4-0.7-0.7-1-1.1c-1.3-2-3.2-3.5-4.7-5.5c-0.6-0.8-1.5-1.4-2.3-2.1c-0.5-0.4-1-0.8-1.4-1.3
			c-0.2-0.2-0.3-0.6-0.5-0.8c-0.2-0.3-0.4-0.5-0.6-0.7c-0.1-0.1-0.5-0.1-0.5,0c-0.1,0.2-0.1,0.4,0,0.6c0.7,1.3,1.1,2.8,1.4,4.3
			c0.2,1.2,0.7,2.4,1,3.6c0.3,1.1,0.4,2.3,0.6,3.5c0.2,0.9,0.3,1.8,0.5,2.7c0.1,0.6,0.1,1.2,0.2,1.8c0.2,1.4,0.4,2.8,0.6,4.2
			c0.1,0.5,0.1,1,0.1,1.6c0.1,1.2,0.3,2.3,0.5,3.5c0.2,1.6,0.3,3.2,0.4,4.8c0,0.1,0,0.2,0,0.2c-0.5,1.8,0,3.5,0,5.3
			c0,0.6,0.1,1.3,0.2,1.9c0.2,1.1,0.3,2.1-0.5,3.1c-0.1,0.1-0.1,0.3-0.1,0.5c0.4,1.3,0.4,2.7,1.4,3.7c0.2,0.2,0.3,0.5,0.4,0.8
			c0.7,1.6,1.4,3.2,2.1,4.7c0.1,0.1,0.2,0.2,0.2,0.4c-0.1,1.2,0.4,2.2,1,3.1c0.3,0.4,0.4,0.9,0.6,1.4c1.1-0.3,2.1-0.6,3.1-0.9
			c0.4-0.1,0.6-0.4,0.3-0.8c-0.5-0.9-0.4-1.8-0.2-2.8c0.1-0.2-0.1-0.5-0.2-0.7c-0.2-0.4-0.5-0.7-0.6-1.1c-0.3-1-0.4-2-0.6-3
			c-0.1-0.4-0.1-0.9-0.1-1.3c0.1-1,0.2-1.9-0.5-2.7c-0.1-0.1-0.2-0.3-0.2-0.4c0.2-1.1-0.3-2.1-0.5-3.2c-0.2-1-0.5-2-0.8-3
			c-0.4-1.4-0.7-2.8-1.1-4.2c-0.4-1.7-0.8-3.3-1.1-5c-0.1-0.6-0.1-1.3-0.3-2c-0.5-1.9-1.1-3.8-1.6-5.8c-0.2-0.8-0.3-1.7-0.5-2.5
			c-0.1-0.3-0.3-0.6-0.3-0.9c-0.1-0.4-0.1-0.9,0-1.3c0-0.1,0.5-0.3,0.6-0.2c0.3,0.3,0.7,0.6,0.9,1c0.4,0.9,0.8,1.9,1.1,2.9
			c0.3,1,0.6,2,0.9,3.1c0.4,1.9,0.8,3.9,1.3,5.8c0.1,0.3,0.3,0.6,0.5,0.7c1.3,1,2.7,1.9,4.1,2.9c0.6,0.4,2.5,0.7,3.1,0.3
			c0.1-0.1,0.2-0.2,0.3-0.4c0.2-0.3,0.3-0.8,0.5-0.9c1.2-0.7,1.7-2.2,3.1-2.9c0.4-0.2,0.7-0.7,1-1.1c0.7-0.8,1.3-1.8,2.1-2.5
			c0.8-0.6,1-1.7,2.2-2.1c0.4-0.1,0.7-1,1-1.5c0.5-0.7,1-1.6,1.6-2.2c0.7-0.7,1.1-1.7,2.2-2.2c0.5-0.2,0.7-1,1.1-1.6
			C94.7,54.1,95.6,52.8,96.5,51.4z"/>
		<path class="st1" d="M48.1,31.4c0-1.2,0-2.1,0-3.1c0-0.9-0.6-1.2-1.3-1.6c-0.6-0.3-1.2-0.9-1.6-1.4c-0.4-0.5-0.4-1.3-0.7-1.9
			c-0.7-1.5,1.5-3.2,2.8-2.8c0.1,0,0.1,0.1,0.2,0c1.1-0.4,1.9,0.1,2.6,0.9c0.1,0,0.2-0.1,0.3-0.1c-0.1-0.9-0.3-1.7-0.4-2.6
			c0-0.2-0.2-0.5-0.1-0.7c0.1-0.5,0-0.8-0.3-1.2c-0.4-0.6,0.1-1,0.5-1.3c0.8-0.7,1.8-1.3,2.5-2.1c0.6-0.6,1.1-1.4,1.6-2.2
			c0.2-0.2,0.2-0.6,0.5-0.7c0.7-0.4,0.8-1.1,1-1.7c0.2-0.5,0.4-1.1,0.7-1.6c0.4-0.7,1.1-0.7,1.5,0c0.7,1.1,1,2.3,0.7,3.6
			c0,0.1-0.1,0.3,0,0.4c0.1,0.7,0.2,1.4,0.4,2.2c0,0,0.2,0.1,0.3,0c2-0.6,4.1-0.4,6.1-0.3c0.9,0,1.9,0.2,2.8-0.1
			c0.7-0.2,1.2-1,1.8-1.6c0.3-0.2,0.5-0.6,0.8-0.7c0.6-0.2,0.5-0.6,0.5-1.1c0-0.8,0.1-1.5,0.1-2.3c0-0.2,0-0.5-0.1-0.7
			c-0.2-0.5-0.6-1-0.7-1.5C70.5,4.5,70,4,69.2,3.6c-0.7-0.4-1.3-0.9-2-1.3c-0.1-0.1-0.4-0.1-0.5-0.1c-1,0.3-1.9,0.2-2.8-0.1
			c-0.4-0.1-1,0.2-1.5,0.3c-0.6,0.1-1.2,0.1-1.7,0.1c-0.1,0-0.1,0-0.2,0c-1.9,0-3.7,0.1-5.6,0.1c-1.1,0-2.2,0.3-3.3,0
			c-0.9-0.2-1.9,0-2.8,0.1c-1.9,0.2-3.8,0.5-5.6,0.8c-0.3,0-0.5,0.2-0.7,0.3c-1.1,1-2.1,2.1-3.1,3.2c-0.2,0.2-0.4,0.2-0.5,0.4
			c-0.3,0.4-0.7,0.8-0.9,1.3c-0.2,0.4-0.3,0.9-0.4,1.3c-0.2,0.7-0.5,1.5-0.8,2.2c-0.2,0.5-0.3,0.9-0.5,1.4c-0.1,0.1-0.1,0.3-0.1,0.5
			c0.2,1.5,0.3,3,0.7,4.5c0.2,1,0.7,1.8,1,2.8c0.5,1.7,1.7,2.9,2.8,4.2c0.3,0.4,1,0.6,1.4,0.9c0.7,0.5,1.3,1.1,2,1.6
			c0.6,0.4,1.2,0.8,1.7,1.2c0.6,0.5,1.1,1,1.7,1.5C47.6,31,47.8,31.1,48.1,31.4z"/>
		<path class="st1" d="M56.9,10c-0.9,3.1-3.2,5-5.3,6.7c0.1,0.9,0.1,1.5,0.1,2.1c0.1,0.5,0.2,1,0.2,1.5c0.1,0.6,0.2,1.3,0.1,2
			c0,0.3-0.4,0.7-0.7,0.8c-0.6,0.2-1.2,0.3-1.6-0.4c-0.6-0.9-1.9-1.2-2.6-0.7c-0.5,0.3-0.7,1.5-0.4,2c0.6,0.9,1.2,1.7,2.4,2
			c0.3,0,0.6,0.5,0.6,0.7c0.3,2.2,0.7,4.4,0.5,6.6c-0.1,0.8,0.4,1.5-0.1,2.3c-0.3,0.6-0.6,1.2-0.9,1.7c-0.1,0.2-0.3,0.4-0.4,0.4
			c-1.3,0.1-1.6,1.4-2.5,2.2c0.4,0.4,0.9,0.8,1.2,1.3c0.6,0.7,1,1.6,1.6,2.3c0.2,0.2,0.5,0.4,0.8,0.5c0.6,0.2,1.3,0.4,2,0.5
			c0.3,0.1,0.7,0,1,0c1.1,0,2.2,0,3.3,0c1.1,0,2.1,0,3.5,0c-0.2-0.8-0.5-1.5-0.7-2.2c-0.1-0.4-0.1-0.8-0.2-1.1
			c-0.3-0.8-0.6-1.5-1.1-2.2c-0.5-0.6-0.5-1.6-0.5-2.5c0-0.7,0.2-1.4,0.3-2.1c0-0.2,0-0.4,0-0.6c0.2-0.8,0.2-1.6,0.5-2.4
			c0.3-0.7,0.9-0.5,1.5-0.5c0.4,0,0.8-0.1,1.2-0.1c1.2,0,2.3,0,3.5,0c0.3,0,0.6,0.1,0.9,0.1c0.6-0.1,1.1-0.1,1.7-0.3
			c0.3-0.1,0.7-0.3,0.8-0.5c0.2-1,0.3-2,0.5-3.1c-0.3,0.1-0.5,0.2-0.7,0.3c-0.5,0-1.2,0.2-1.5-0.1c-0.9-0.7-1.8-1.5-2.6-2.3
			c-0.4-0.4-0.3-0.9,0.1-1.2c0.4-0.3,0.9-0.3,1.3,0.1c0.1,0.1,0.2,0.2,0.2,0.3c0.6,1.3,1.7,1,2.7,1c0.2,0,0.4-0.1,0.5-0.2
			c0.8-0.7,1.6-1.5,2.4-2.2c-0.4-0.4-0.9-0.8-1.4-1.2c-1-0.8-1-1.8-0.8-3c0.2-1.1,0.3-2.3,0.3-3.5c0-0.1-0.5-0.4-0.7-0.4
			c-2.2,0.1-4.5,0.2-6.7,0.2c-0.6,0-1.3-0.2-1.9-0.3c-0.5,0-0.9,0-1.4,0.1c-1,0.2-1.3-0.2-1.3-1.1c0-0.9-0.2-1.7,0.4-2.5
			c0.1-0.2-0.1-0.7-0.2-1.1C57,10.1,57,10.1,56.9,10z"/>
		<path class="st1" d="M51,46.8c0.1,0.6,0.2,0.9,0.3,1.3c0.4,1,0.1,2.2,1,3c0.1,0.1,0,0.4,0.1,0.6c0.2,1-0.3,2.1,0.4,3.1
			c0.3,0.4,0.1,1.2,0.1,1.8c0,0.5-0.2,1-0.1,1.5c0.1,0.9,0.3,1.8,0.3,2.7c0,0.6,0,1.3-0.1,2c0,0.4-0.1,0.9-0.1,1.3
			c0,1.4,0.2,2.9,0,4.3c-0.2,1.2-0.6,2.3-0.2,3.5c0.1,0.2-0.1,0.7-0.4,0.9c-0.7,0.6-0.5,1.3-0.4,2c0.1,0.9,0.2,1.8-0.1,2.8
			c-0.4,1.7-0.5,3.5-0.7,5.4c1.3-0.1,2.5-0.2,3.7-0.2c0.4,0,0.7,0,1.1,0.1c0.8,0.1,1.6,0.3,2.5,0c0.6-0.2,1.4,0,2.1,0.1
			c1,0.1,2,0.1,3.2,0.2c0-0.2,0.1-0.6,0.1-0.9c0-1.6-0.3-3.2-0.1-4.8c0.4-2.3-0.5-4.4-0.3-6.7c0.2-2-0.1-4.1-0.2-6.1
			c0-0.5-0.2-1-0.3-1.5c-0.1-0.8-0.2-1.6-0.2-2.4c-0.1-0.7-0.1-1.4-0.2-2c-0.3-2-0.6-3.9-1-5.9c-0.2-1.3-0.6-2.6-0.9-3.9
			c-0.1-0.3-0.1-0.5-0.1-0.8c-0.1-1-0.4-1.3-1.4-1.2c-1.2,0.1-2.3,0.4-3.5,0.4c-0.9,0-1.9-0.2-2.8-0.3C52.2,46.9,51.7,46.8,51,46.8z
			"/>
		<path class="st0" d="M99.5,25.5c0.5,0.4,1.1,0.7,1.6,1c0.8,0.7,2.2,0.8,2.9,0c0.2-0.3,0.1-0.9,0-1.3c-0.6-1.5-0.5-1.7,1.1-2.3
			c0.7-0.3,1.4-0.9,1.5-1.6c0.1-1-0.5-1.9-1.3-2.5c-0.6-0.5-1.2-0.5-2-0.4c-1.2,0.2-2.4,0.5-3.5,1.2c-0.7,0.4-0.8,0.3-1.4-0.5
			c1-0.7,2.1-1.4,3.1-2.2c0.4-0.3,0.8-0.7,1.1-1.1c0.5-0.5,0.9-1.1,1.4-1.7c0.4-0.5,0.2-1.8-0.5-2.4c-0.4-0.4-1-0.7-1.7-0.3
			c-1.4,0.8-2.1,0.2-2.1-1.4c0-0.5-0.3-1.2-0.6-1.3c-0.5-0.2-1.2-0.4-1.8,0.2C97.1,9,97,9.2,96.9,9.2c-1.7,0.5-1.4,2-1.8,3.2
			c-0.5,1.5,0.4,2.9,0.7,4.3c0.1,0.5,0.1,0.8-0.4,1c-0.5,0.2-0.9,0-1.1-0.5c-0.6-1.3-1-2.7-1.6-4c-0.3-0.6-0.8-1-1.2-1.5
			c-0.1-0.1-0.3-0.2-0.4-0.4c-0.2-0.2-0.3-0.7-0.5-0.7c-0.6-0.2-1.3-0.2-1.9-0.2c-0.5,0-1.3,1.5-1.3,2.2c0,0.6,0.1,1.3,0,1.9
			c-0.1,0.5-0.5,0.9-0.9,1.2c-0.6,0.4-0.9,0.9-0.9,1.5c-0.1,0.9,0.8,1.7,2.1,1.8c1.3,0.1,2.6,0,3.9,0.1c0.4,0,0.9,0,1.2,0.2
			c0.5,0.3,0.3,1.1-0.3,1.5c-0.3,0.2-0.7,0.4-1.1,0.6c-0.7,0.4-1.4,0.8-2,1.2c-0.9,0.6-1.5,3.3-0.8,4.1c0.2,0.3,0.8,0.4,1.2,0.3
			c1.6-0.4,1.8-0.3,2.6,1.2c0.5,1.1,2.3,1.3,3.1,0.3c1.4-1.7,1.5-3.6,1.2-5.5c0-0.4-0.1-0.8,0.1-1.1c0.2-0.3,0.6-0.7,0.9-0.7
			c0.3,0,0.8,0.5,0.7,0.8c-0.1,0.8,0.3,1.3,0.7,1.8C99.2,24.3,99.3,24.9,99.5,25.5z"/>
		<path class="st1" d="M89,157c0.3,1.1,0.5,2.2,0.9,3.2c0.3,0.8,0.6,1.6,0.9,2.4c0.3,0.7,1.6,1.2,2.2,1.1c0.9-0.2,1.7-0.5,2.6-0.5
			c1.3,0,2.5-0.3,3.7-0.7c0.1,0,0.2-0.1,0.2,0c1.2,0.3,2.1-0.5,3.1-0.8c0.8-0.2,1.6-0.4,2.5-0.6c0.9-0.2,1.2-0.8,0.8-1.5
			c-0.1-0.1-0.2-0.3-0.3-0.3c-0.7-0.1-1.5-0.2-2.2-0.4c-0.2,0-0.5,0-0.6-0.1c-1.8-1-4-0.7-5.8-1.7c-0.9-0.5-1.9-0.6-2.9-0.9
			c-0.2-0.1-0.4-0.3-0.7-0.4c-0.2-0.1-0.4-0.1-0.6-0.1c-0.8,0.2-1.6,0.4-2.4,0.6C89.9,156.5,89.4,156.8,89,157z"/>
		<path class="st1" d="M28.7,38.9c1.6,0.2,4.3-2.3,4.4-3.7c0-0.3,0-0.7-0.1-1c-0.4-1-0.5-2-0.3-3.1c0.1-0.7-0.2-1.5,0.3-2.2
			c0.4-0.6,0.8-1.2,1.6-1.4c1-0.2,2-2.3,1.6-3.1c-1,0-2.1,0-3.1,0c-0.3,0-0.7,0-1,0.1c-0.6,0.3-1.1,0.5-1.8,0.3
			c-0.2-0.1-0.6,0.2-0.9,0.5c-1,0.9-2,1.7-2.9,2.7c-0.2,0.3-0.3,0.8-0.2,1.2c0.3,1.2,0.7,2.4,1,3.6c0.3,1.2,0.7,2.5,1,3.7
			C28.4,37.2,28.5,38.1,28.7,38.9z"/>
		<path class="st1" d="M24.4,164.4c-0.1-0.3-0.1-0.6-0.3-0.8c-0.6-0.7-1-1.5-1.2-2.5c-0.2-0.8-0.8-1.6-1-2.4c-0.4-1.5-0.7-3.1-1-4.6
			c0-0.2-0.2-0.4-0.3-0.4c-1.4-0.5-2.3-1.5-3.3-2.5c-0.3-0.3-0.5-0.7-0.8-1.1c-0.2,0.3-0.4,0.6-0.6,0.9c-0.9,1.2-1.8,2.3-2.8,3.4
			c-0.6,0.7-0.6,1.3,0.2,1.9c2,1.6,3.9,3.3,5.9,4.9c0.1,0.1,0.1,0.1,0.2,0.2c1.8,0.7,3.1,2,4.6,3C24.1,164.4,24.2,164.4,24.4,164.4z
			"/>
		<path class="st1" d="M101.9,44.7c-0.7,0.8-1.2,1.5-1.8,2.2c-0.4,0.4-0.9,0.5-1.4,0.1c-0.5-0.4-0.4-0.9-0.1-1.5
			c0.4-0.8,0.9-1.6,0.2-2.6c-0.6-0.8,0.1-1.6,0.4-2.3c0.3-0.7,0.7-1.3,1-2c0.1-0.1,0.1-0.3,0-0.4c-0.3-0.6-0.5-1.2-0.8-1.7
			c-0.9,1-1.8,2-2.8,3c-0.3,0.3-0.6,0.6-1,0.7c-1.2,0.4-1.6,0.9-1.6,2.1c0,0.8-0.2,1.7,0.3,2.5c0.1,0.2,0,0.6-0.1,0.8
			c-0.4,0.6-0.1,1,0.3,1.4c0.4,0.4,0.8,0.8,1.3,1.2c0.4,0.3,0.8,0.6,1.2-0.1c0.6-1,1.2-1,2.1-0.2c0.8,0.8,1.9,0.9,2.5,0.1
			c0.4-0.5,0.5-1.2,0.5-1.9C102.2,45.7,102,45.2,101.9,44.7z"/>
		<path class="st1" d="M5,99.2C5.3,99.1,5.6,99,5.9,99c0.2-0.1,0.5-0.2,0.7-0.2c0.9,0.2,1.5-0.2,2.1-0.7c0.6-0.5,1.2-1,1.8-1.5
			c0.5-0.5,1-0.6,1.7-0.2c0.8,0.4,1.5,0.8,1.3,1.9c0,0.1,0.1,0.2,0.1,0.3c0.4,0.7,0.7,1.3,1.1,2.1c0.1-0.1,0.5-0.2,0.5-0.3
			c0.2-1.4,0.4-2.7,0.6-4c0.1-0.5,0.2-1.1,0.3-1.6c0.1-0.5-0.2-0.8-0.7-1.1c-1.1-0.5-2.2-0.9-3.2-1.5c-1.1-0.6-1.7-0.3-2.3,0.8
			c-0.6,1.2-1,2.6-2.4,3.3c-0.1,0-0.2,0.1-0.2,0.2c-0.3,0.9-1.1,1.4-1.8,1.9c-0.2,0.2-0.5,0.4-0.7,0.6C5,99,5,99.1,5,99.2z"/>
		<path class="st1" d="M101.3,41.2c1.3,1,2.3,0.4,3.1-2.4c-0.2-0.1-0.3-0.2-0.5-0.3c-0.3-0.1-0.9-0.4-1-0.3
			c-0.4,0.4-0.8,0.9-1.1,1.4C101.5,40.1,101.5,40.6,101.3,41.2z"/>
		<path class="st1" d="M103.5,44.1c0,0.3,0.2,0.5,0.7,0.2c1-0.6,1.2-0.9,0.7-2.3C104.4,42.8,103.9,43.5,103.5,44.1z"/>
		<path class="st1" d="M105.8,45.6c-0.7,0.2-1.3,0.3-2.1,0.5c0.2,0.6,0.4,1.1,1.2,1C105.5,47,105.8,46.5,105.8,45.6z"/>
		<path d="M64.2,17.1c0.1,0.9,0.5,1.5,1.1,1.4c0.9-0.1,1.3-0.6,1.2-1.4c-0.1-0.8-0.5-1.2-1.2-1.2C64.4,16,64.2,16.3,64.2,17.1z"/>
		<path d="M101,22.1c0.6,0,1.3,0,2-0.1c0.3,0,0.6-0.3,0.7-0.6c0.1-0.2-0.1-0.6-0.3-0.8c-0.7-0.7-2.8-1-3.7-0.5
			c-0.2,0.1-0.4,0.3-0.4,0.4c0,0.6-0.1,1.4,0.2,1.9c0.3,0.6,0.9,1,1.4,1.4c0.2,0.1,0.6,0.1,0.8-0.1c0.1-0.1,0.1-0.5,0-0.7
			C101.5,22.8,101.2,22.5,101,22.1z"/>
		<path d="M94.2,23.2c-0.1,0.3-0.2,0.5-0.3,0.8c-0.1,0.8-0.2,1.5-0.1,2.3c0.1,0.6,1,0.7,1.4,0.2c0.5-0.7,0.9-1.4,0.7-2.3
			c-0.1-0.2,0-0.5,0.1-0.8c0-0.2,0.1-0.4,0.1-0.6c0-0.7-0.4-1.4-1-1.4c-0.6,0-1.1,0.6-1.1,1.3C94.1,22.9,94.1,23,94.2,23.2
			C94.1,23.2,94.1,23.2,94.2,23.2z"/>
		<path d="M100.7,14.4c-0.4,0.2-0.8,0.4-1.2,0.7c-0.6,0.5-1.2,1-1.7,1.6c-0.2,0.2-0.2,0.8-0.1,0.9c0.3,0.2,1,0.4,1.1,0.2
			c0.8-0.8,1.6-1.7,2.3-2.6C101.5,14.9,101.3,14.5,100.7,14.4z"/>
		<path d="M93.2,18.2c0.8,0,0.8-0.4,0.6-0.7c-0.4-0.8-0.8-1.6-1.3-2.3c-0.2-0.3-0.6-0.5-0.9-0.6c-0.2-0.1-0.6,0-0.8,0.2
			c-0.1,0.2-0.1,0.6,0,0.8c0.2,0.4,0.5,0.7,0.8,1.1c0.4,0.4,0.7,0.9,1.1,1.3C92.8,18.1,93.1,18.2,93.2,18.2z"/>
		<path d="M96,16.1c0.1,0.2,0.2,0.6,0.4,0.6c0.3,0,0.8,0,1-0.2c0.6-0.7,1.2-1.5,1.1-2.5c0-0.3-0.3-0.7-0.5-0.8
			c-0.2-0.1-0.7,0.1-0.8,0.3C96.7,14.3,96.4,15.2,96,16.1z"/>
		<path d="M90.1,24.2c0.3,0.3,0.5,0.7,0.7,0.7c0.3,0.1,0.7-0.1,0.9-0.3c0.5-0.4,1-0.9,1.4-1.5c0.2-0.3,0.4-0.7,0.4-1.1
			c0-0.1-0.4-0.5-0.6-0.4c-0.3,0.1-0.7,0.3-0.9,0.5c-0.3,0.6-0.7,1-1.4,1.2C90.5,23.5,90.4,23.9,90.1,24.2z"/>
		<path d="M92.2,18.3c-0.8-0.6-1.4-1.3-2.2-1.8c-0.2-0.1-0.7,0.2-1.1,0.3c0.2,0.4,0.2,1,0.5,1.1c0.7,0.3,1.6,0.4,2.3,0.6
			C91.8,18.5,91.9,18.4,92.2,18.3z"/>
	</g>
	<path class="st0" d="M61.2,20.1c0,0.7,0.9,1.2,2,1.2c1.1,0,2-0.5,2-1.1c0-0.7-0.9-1.2-2-1.2C62.1,19,61.2,19.5,61.2,20.1z"/>
</g>
</svg>
