<?xml version="1.0" encoding="utf-8"?>
<!-- Generator: Adobe Illustrator 25.0.0, SVG Export Plug-In . SVG Version: 6.00 Build 0)  -->
<svg version="1.1" id="圖層_1" xmlns="http://www.w3.org/2000/svg" xmlns:xlink="http://www.w3.org/1999/xlink" x="0px" y="0px"
	 viewBox="0 0 508.9 318.3" style="enable-background:new 0 0 508.9 318.3;" xml:space="preserve">
<style type="text/css">
	.st0{fill:#E7DDD4;stroke:#E7DDD4;stroke-width:1.5;stroke-miterlimit:10;}
	.st1{fill:#FFFFFF;stroke:#E7DDD4;stroke-width:1.5;stroke-miterlimit:10;}
	.st2{fill:#13B6CD;}
	.st3{fill:#FFA005;}
</style>
<g id="圖層_7">
	<g>
		<path class="st0" d="M508.2,219c0-1,0-2,0-3v-2.7c0-2.1,0-4.2,0-6.3c-0.1-7.2-0.9-14.6-6.6-20.4c-5.6-5.6-12.9-6.7-20.1-7
			c-5.1-0.2-10.2-0.5-15.2-0.7c-3.7-0.2-7.5-0.4-11.3-0.6c-0.2-1.5-0.4-3.1-0.8-4.7c-1.7-7.7-8.5-12.6-14.1-14
			c-4.7-1.1-9.4-0.3-13.3,2.4c-4.1,2.8-6.8,7.4-7.4,12.9c-0.1,0.9-0.2,1.8-0.4,2.7c0,0.2-0.1,0.4-0.1,0.6c-0.8,0.1-1.5,0.1-2.3,0.2
			c-5.9,0.4-12,0.8-18.2,1.6c-5.7,0.7-10.3,3-13.6,6.7c-2.7-0.8-5.4-1.5-8.1-2.1c-0.2-0.4-0.3-0.8-0.5-1.1
			c-3-6.1-10.2-10.5-17.1-10.5c-0.1,0-0.2,0-0.2,0c-5.9,0.1-12,0.3-18.4,0.6c-0.7-3.2-2.1-5.5-2.9-6.9c-0.1-0.1-0.1-0.2-0.2-0.3
			c-1.9-3.6-5.3-6.2-9.2-7.1c-1.1-0.2-2.1-0.4-3.2-0.4c-2.9,0-5.7,0.9-8.1,2.6c-0.1,0-0.2,0.1-0.2,0.1c-2,1.1-6.6,3.8-8.5,9.6
			c-0.9,2.6-1.7,5.2-2.6,7.8c-0.4-0.2-0.8-0.5-1.2-0.7c-7.6-4-17-0.9-21.8,4.4c-7,7.8-13.9,15.8-20.6,23.6l-3.7,4.3
			c-1,1.1-1.8,2.3-2.5,3.5c0.1-3.8,0-7.5,0-10.7c-0.3-11.4-5-18.7-13.9-21.8c0-0.8,0-1.5-0.1-2.3c-0.9-9.9-8.4-16.8-18.6-17.1
			c-5.1-0.1-10.3-0.3-15.4-0.4c-12.6-0.4-25.6-0.7-38.5-1c-0.2,0-0.4,0-0.6,0c-4.4,0-8.3,1-11.3,1.9c-6.3,1.9-11.3,7.8-12.1,14.4
			c-0.2,1.7-0.2,3.7,0.4,5.8c-5.7,4.6-7.1,10.6-7.5,13.8c-0.3,3.2-0.5,6.4-0.6,9.6c-3.7-0.5-7.4-1.2-11-2.2
			c1.5-11-4.9-17.5-11.2-19.8c-2.1-0.8-4.3-1.2-6.5-1.2c-1.1,0-2.1,0.1-3.1,0.3c-2.6-3.8-6.9-6.1-11.5-6.1c-0.1,0-0.2,0-0.3,0
			c-3.1,0.1-6,1.1-8.3,3c-1.5-0.6-3.1-1-4.7-1.1c-0.2,0-0.4,0-0.6,0c-3.4,0-6.7,1.2-9.3,3.5c-0.1,0.1-0.2,0.1-0.3,0.2
			c-1.8,1.3-5.4,4-7.1,9.2c-0.6,2-1,3.8-1.2,5.6c-4.6,0-8.9-1.6-13-4.5v-0.1c-1.9-8-10.2-12.8-17.1-12.8c-1.4,0-2.7,0.2-4,0.5
			c-6.6,1.8-10.8,7.5-12.6,12.2c-1.1,2.9-1.2,5.6-1.2,7.5c-0.2,1.3-0.3,2.6-0.2,4c0,0.4,0.1,0.9,0.1,1.5c0.1,2.5,0.2,6,1.7,9.8
			c0.2,0.4,0.3,0.8,0.5,1.2c-3.9,4.4-5.6,10.7-4.3,16.2c0.5,2.1,1.4,3.9,2.5,5.5c-0.8,1.6-1.4,3.4-1.7,5.2
			c-0.9,5.1,0.4,10.2,3.6,14.5c-1.1,0.9-2.2,2-3.3,3.1c-3.5,3.7-7.1,10.7-5.9,18.2c1.3,8.3,8.8,13.3,14.8,15
			c12.3,3.5,25.8,5.5,42.7,6.3c14.9,0.7,30.6,1.2,46.6,1.6c0.7,0,1.4,0,2.1,0c4.4,0,9.1-0.3,14.7-1c5.6-0.7,10.5-3.6,13.8-7.7
			c0.4,0.5,0.8,1,1.2,1.5c2.7,2.8,6.4,4.9,10.3,5.8c2,5.7,7,10.2,13.2,11.7c1.9,0.5,3.9,0.7,5.8,0.7c7.7,0,14.5-3.6,18.5-9.6
			c2.3-0.1,4.6-0.1,6.9,0c1.5,3.3,4.1,6.1,7.6,8.2c3.1,1.8,6.5,2.8,10,2.8c4.5,0,8.7-1.6,12.2-4.6c2.7,1,5.7,1.5,8.5,1.5
			c5.9,0,9.8-2.2,12-4.1c5.2-4.5,8.6-10.1,10.1-16.3c2.7,1.1,6,1.1,8.8,0c2.4,6.4,7.9,10.8,15.3,11.7c0.9,0.1,1.8,0.2,2.7,0.2
			c9,0,16.3-5.6,18.6-14.7c0.3-1,0.6-2.3,0.8-3.8c1.4,3.7,4.1,6.9,7.8,9.2c-0.3,3.4,0.7,7,2.9,9.8c0.1,0.1,0.4,0.5,0.5,0.8
			c1.5,2.3,5,7.8,12.2,8.8c0.8,0.1,1.7,0.2,2.5,0.2c1.6,0,3.3-0.2,5-0.6c1.7,1.5,3.8,3,6.7,3.9c1.4,0.4,2.9,0.6,4.4,0.6
			c5.9,0,13.6-3.6,16.8-10.3c1.2,0.2,2.4,0.3,3.6,0.3h0.1c10,0,17.6-7,18.5-17l0.1-1.4c0.3-3.1,0.6-6.5,0.5-10.3
			c-0.3-7.7-2.7-13.9-7.2-18.2c0.4-1.5,0.7-3.1,0.7-4.8c0.1-3.1-0.5-6.1-1.8-8.8l0.1-0.1c0.1-0.1,3.7,0.1,4.9,0.1
			c3.9,0,8.1,0,11.8-1.2c0.6-0.2,1.1-0.4,1.6-0.6c0.8,0,1.6-0.1,2.4-0.2c3.2-0.4,6.6-1.8,9.4-4.2c-0.1,0.5-0.1,0.9-0.1,1.3
			c-0.1,2.5,0.3,5.1,1.2,7.6c-3.1,3.4-5.1,7.9-4.3,13.2c0.8,4.8,3.5,9.2,8,13c1.1,0.9,2.1,1.6,3.2,2.1c-0.9,6.4-1.2,12.7-1.4,18.3
			c-0.4,9.9,6.5,17.9,16.6,19.2c0.7,0.1,1.3,0.2,2,0.3c2.2,0.3,4.7,0.7,7.5,0.7c2.6,0.1,5.3,0.1,8.1,0.1c3.4,0,7,0,10.8-0.1
			c10.1-0.2,17.8-8,17.9-18.1v-1.9c0.1-5.7,0.2-11.6-0.1-17.6c-0.1-1.4-0.3-2.7-0.6-4c4-3.6,6.4-8.7,6.2-14.6
			c-0.1-6.1-2.8-11.2-7-14.6c0.1-0.8,0.1-1.7,0.1-2.5c3.1,2.2,6.9,3.4,11,3.4c0.7,0,1.4,0,2.1-0.1c10.4-1,17.8-9.4,18-20.4
			C508.2,223.8,508.2,221.4,508.2,219z"/>
		<path class="st0" d="M127.3,132.7c0.7,6.6,4.8,12.3,11.4,15.6c3.2,1.7,6.9,2.9,11,3.6c20.8,3.7,42.1,5.6,63.3,5.6
			c6.5,0,13-0.2,19.5-0.5c7.3-0.4,14.3-2,20.7-3.6c4.6-1.2,8.5-3.7,11.2-7.3c3.4,4.1,7.7,6.2,12.4,6.2c0.7,0,1.6-0.1,2.3-0.2
			c7.2-1.1,11.3-6.7,12.9-8.8c0.3-0.4,0.6-0.8,0.8-1.2c0.2,0,1.1,0.1,1.8,0.1c3,2.5,6.7,3.9,10.6,3.9l0,0c2.9,0,5.7-0.8,8.1-2.2
			c0.3,0.1,0.5,0.2,0.8,0.3c1.5,0.4,3.1,0.7,4.8,0.7c4.7,0,9.3-1.8,12.6-4.8c3.5,2.7,8,4.1,13.4,4.2c1.8,0,3.5,0.1,5.3,0.2
			c3,0.1,6.1,0.3,9.3,0.3h0.8c8.6-0.1,15.8-0.3,22.6-0.7c10.9-0.6,19.7-9.4,19.7-19.5c0-7-4.4-13.1-10-16.7
			c1.6-3.6,1.8-7.5,0.8-11.4c-0.3-1-0.6-1.9-1-2.8c1.8-2.8,3-6.2,2.9-9.8c0-3.4-1.2-6.4-2.9-8.9c1.3-2.3,2.1-4.9,2.2-7.8
			c0.5-7.8-3.6-14.4-10.5-17.6c-0.1-2.2-0.3-4.4-0.7-6.7c-0.9-5.9-4.7-9.4-6.4-10.9c-0.1-0.1-0.2-0.1-0.2-0.2
			c-2.7-2.9-6.4-4.5-10.3-4.5c-0.2,0-0.4,0-0.6,0c-1.3,0.1-2.6,0.3-3.9,0.7c-2.6-2.1-6-3.3-9.7-3.3c-2.7,0-7.8,0.6-11.8,4.5
			c-3.4,3.2-6.4,6.3-9.4,9.2c-1.5-1.6-3.1-2.8-4.2-3.7l-0.4-0.3c-1.9-1.5-5.2-3.3-9.9-3.3c-1,0-1.8,0.1-2.3,0.1h-0.2
			c-2.1,0.1-4.1,0.1-6.2,0.2c-0.2-1.2-0.5-2.3-0.7-3.4c-1.6-6.5-7.1-13.9-15.5-14.7c-0.6-0.1-1.2-0.1-1.8-0.1
			c-5.9,0-16,3.6-16.9,17.3c-0.1,1-0.1,2-0.1,2.9c-1.8,0.2-3.5,0.5-5.2,0.9c-6.4,1.3-11.8,6.9-13.2,13.5c-0.8,4.1,0.1,8.3,2.3,11.8
			c-1.3,0.5-2.5,1.1-3.5,2c-3.2,1-6.6,1.4-9.9,1.5c-2.1,0-4.1-0.1-6.1-0.5c-1-0.5-1.9-1.1-2.8-1.8c1.7-2.6,2.7-5.6,2.9-8.9
			c0.2-3.9-0.8-7.7-2.9-10.9c1.3-2.4,2-5.2,2.2-8.2c0.3-9.6-5.9-17.2-15.6-19.1c-0.6-0.1-1.3-0.2-1.9-0.3c-1.6-3-5.1-7.9-12-8.7
			c-7-0.8-12.4,3.1-14.4,4.8c-1.6,1.4-2.9,3-4,4.9c-1.7,0.2-3.7,0.8-5.7,2c-2.5,1.5-10.3,6-10.2,15.1c0,3.2,0.9,5.8,2.1,8
			c-1.1,1.2-2.1,2.5-2.8,4c-0.6-0.9-1.2-1.8-1.9-2.7c-3.4-4.3-9-7.1-14.3-7.1c-2,0-4,0.4-5.8,1.1c-6,2.5-9.1,7.8-10.1,9.6
			c-1.5,2.6-2,5.2-2.1,7.3c-0.4,1.9-0.4,3.8,0,5.7c0.2,1,0.4,1.9,0.5,2.9c0.3,1.8,0.7,3.7,1.2,5.7c-3.7,3.6-6,8.9-5.8,14.1
			c0.1,3.4,1.3,6.3,3,8.7c-3.3,3.6-5.2,7.6-5.4,12.1c-0.3,4.9,1.3,9.5,4.8,13.8c-0.1,0.1-0.3,0.2-0.4,0.3
			C129.4,119.6,126.6,126.1,127.3,132.7z"/>
	</g>
</g>
<g id="圖層_6">
	<g>
		<path class="st1" d="M501.6,215.2c0-1,0-2,0-3v-2.7c0-2.1,0-4.2,0-6.3c-0.1-7.2-0.9-14.6-6.6-20.4c-5.6-5.6-12.9-6.7-20.1-7
			c-5.1-0.2-10.2-0.5-15.2-0.7c-3.7-0.2-7.5-0.4-11.3-0.6c-0.2-1.5-0.4-3.1-0.8-4.7c-1.7-7.7-8.5-12.6-14.1-14
			c-4.7-1.1-9.4-0.3-13.3,2.4c-4.1,2.8-6.8,7.4-7.4,12.9c-0.1,0.9-0.2,1.8-0.4,2.7c0,0.2-0.1,0.4-0.1,0.6c-0.8,0.1-1.5,0.1-2.3,0.2
			c-5.9,0.4-12,0.8-18.2,1.6c-5.7,0.7-10.3,3-13.6,6.7c-2.7-0.8-5.4-1.5-8.1-2.1c-0.2-0.4-0.3-0.8-0.5-1.1
			c-3-6.1-10.2-10.5-17.1-10.5c-0.1,0-0.2,0-0.2,0c-5.9,0.1-12,0.3-18.4,0.6c-0.7-3.2-2.1-5.5-2.9-6.9c-0.1-0.1-0.1-0.2-0.2-0.3
			c-1.9-3.6-5.3-6.2-9.2-7.1c-1.1-0.2-2.1-0.4-3.2-0.4c-2.9,0-5.7,0.9-8.1,2.6c-0.1,0-0.2,0.1-0.2,0.1c-2,1.1-6.6,3.8-8.5,9.6
			c-0.9,2.6-1.7,5.2-2.6,7.8c-0.4-0.2-0.8-0.5-1.2-0.7c-7.6-4-17-0.9-21.8,4.4c-7,7.8-13.9,15.8-20.6,23.6l-3.7,4.3
			c-1,1.1-1.8,2.3-2.5,3.5c0.1-3.8,0-7.5,0-10.7c-0.3-11.4-5-18.7-13.9-21.8c0-0.8,0-1.5-0.1-2.3c-0.9-9.9-8.4-16.8-18.6-17.1
			c-5.1-0.1-10.3-0.3-15.4-0.4c-12.6-0.4-25.6-0.7-38.5-1c-0.2,0-0.4,0-0.6,0c-4.4,0-8.3,1-11.3,1.9c-6.3,1.9-11.3,7.8-12.1,14.4
			c-0.2,1.7-0.2,3.7,0.4,5.8c-5.7,4.6-7.1,10.6-7.5,13.8c-0.3,3.2-0.5,6.4-0.6,9.6c-3.7-0.5-7.4-1.2-11-2.2
			c1.5-11-4.9-17.5-11.2-19.8c-2.1-0.8-4.3-1.2-6.5-1.2c-1.1,0-2.1,0.1-3.1,0.3c-2.6-3.8-6.9-6.1-11.5-6.1c-0.1,0-0.2,0-0.3,0
			c-3.1,0.1-6,1.1-8.3,3c-1.5-0.6-3.1-1-4.7-1.1c-0.2,0-0.4,0-0.6,0c-3.4,0-6.7,1.2-9.3,3.5c-0.1,0.1-0.2,0.1-0.3,0.2
			c-1.8,1.3-5.4,4-7.1,9.2c-0.6,2-1,3.8-1.2,5.6c-4.6,0-8.9-1.6-13-4.5v-0.1c-1.9-8-10.2-12.8-17.1-12.8c-1.4,0-2.7,0.2-4,0.5
			c-6.6,1.8-10.8,7.5-12.6,12.2c-1.1,2.9-1.2,5.6-1.2,7.5c-0.2,1.3-0.3,2.6-0.2,4c0,0.4,0.1,0.9,0.1,1.5c0.1,2.5,0.2,6,1.7,9.8
			c0.2,0.4,0.3,0.8,0.5,1.2c-3.9,4.4-5.6,10.7-4.3,16.2c0.5,2.1,1.4,3.9,2.5,5.5c-0.8,1.6-1.4,3.4-1.7,5.2
			c-0.9,5.1,0.4,10.2,3.6,14.5c-1.1,0.9-2.2,2-3.3,3.1c-3.5,3.7-7.1,10.7-5.9,18.2c1.3,8.3,8.8,13.3,14.8,15
			c12.3,3.5,25.8,5.5,42.7,6.3c14.9,0.7,30.6,1.2,46.6,1.6c0.7,0,1.4,0,2.1,0c4.4,0,9.1-0.3,14.7-1c5.6-0.7,10.5-3.6,13.8-7.7
			c0.4,0.5,0.8,1,1.2,1.5c2.7,2.8,6.4,4.9,10.3,5.8c2,5.7,7,10.2,13.2,11.7c1.9,0.5,3.9,0.7,5.8,0.7c7.7,0,14.5-3.6,18.5-9.6
			c2.3-0.1,4.6-0.1,6.9,0c1.5,3.3,4.1,6.1,7.6,8.2c3.1,1.8,6.5,2.8,10,2.8c4.5,0,8.7-1.6,12.2-4.6c2.7,1,5.7,1.5,8.5,1.5
			c5.9,0,9.8-2.2,12-4.1c5.2-4.5,8.6-10.1,10.1-16.3c2.7,1.1,6,1.1,8.8,0c2.4,6.4,7.9,10.8,15.3,11.7c0.9,0.1,1.8,0.2,2.7,0.2
			c9,0,16.3-5.6,18.6-14.7c0.3-1,0.6-2.3,0.8-3.8c1.4,3.7,4.1,6.9,7.8,9.2c-0.3,3.4,0.7,7,2.9,9.8c0.1,0.1,0.4,0.5,0.5,0.8
			c1.5,2.3,5,7.8,12.2,8.8c0.8,0.1,1.7,0.2,2.5,0.2c1.6,0,3.3-0.2,5-0.6c1.7,1.5,3.8,3,6.7,3.9c1.4,0.4,2.9,0.6,4.4,0.6
			c5.9,0,13.6-3.6,16.8-10.3c1.2,0.2,2.4,0.3,3.6,0.3h0.1c10,0,17.6-7,18.5-17l0.1-1.4c0.3-3.1,0.6-6.5,0.5-10.3
			c-0.3-7.7-2.7-13.9-7.2-18.2c0.4-1.5,0.7-3.1,0.7-4.8c0.1-3.1-0.5-6.1-1.8-8.8l0.1-0.1c0.1-0.1,3.7,0.1,4.9,0.1
			c3.9,0,8.1,0,11.8-1.2c0.6-0.2,1.1-0.4,1.6-0.6c0.8,0,1.6-0.1,2.4-0.2c3.2-0.4,6.6-1.8,9.4-4.2c-0.1,0.5-0.1,0.9-0.1,1.3
			c-0.1,2.5,0.3,5.1,1.2,7.6c-3.1,3.4-5.1,7.9-4.3,13.2c0.8,4.8,3.5,9.2,8,13c1.1,0.9,2.1,1.6,3.2,2.1c-0.9,6.4-1.2,12.7-1.4,18.3
			c-0.4,9.9,6.5,17.9,16.6,19.2c0.7,0.1,1.3,0.2,2,0.3c2.2,0.3,4.7,0.7,7.5,0.7c2.6,0.1,5.3,0.1,8.1,0.1c3.4,0,7,0,10.8-0.1
			c10.1-0.2,17.8-8,17.9-18.1v-1.9c0.1-5.7,0.2-11.6-0.1-17.6c-0.1-1.4-0.3-2.7-0.6-4c4-3.6,6.4-8.7,6.2-14.6
			c-0.1-6.1-2.8-11.2-7-14.6c0.1-0.8,0.1-1.7,0.1-2.5c3.1,2.2,6.9,3.4,11,3.4c0.7,0,1.4,0,2.1-0.1c10.4-1,17.8-9.4,18-20.4
			C501.6,219.9,501.6,217.5,501.6,215.2z"/>
		<path class="st1" d="M120.7,128.9c0.7,6.6,4.8,12.3,11.4,15.6c3.2,1.7,6.9,2.9,11,3.6c20.8,3.7,42.1,5.6,63.3,5.6
			c6.5,0,13-0.2,19.5-0.5c7.3-0.4,14.3-2,20.7-3.6c4.6-1.2,8.5-3.7,11.2-7.3c3.4,4.1,7.7,6.2,12.4,6.2c0.7,0,1.6-0.1,2.3-0.2
			c7.2-1.1,11.3-6.7,12.9-8.8c0.3-0.4,0.6-0.8,0.8-1.2c0.2,0,1.1,0.1,1.8,0.1c3,2.5,6.7,3.9,10.6,3.9l0,0c2.9,0,5.7-0.8,8.1-2.2
			c0.3,0.1,0.5,0.2,0.8,0.3c1.5,0.4,3.1,0.7,4.8,0.7c4.7,0,9.3-1.8,12.6-4.8c3.5,2.7,8,4.1,13.4,4.2c1.8,0,3.5,0.1,5.3,0.2
			c3,0.1,6.1,0.3,9.3,0.3h0.8c8.6-0.1,15.8-0.3,22.6-0.7c10.9-0.6,19.7-9.4,19.7-19.5c0-7-4.4-13.1-10-16.7
			c1.6-3.6,1.8-7.5,0.8-11.4c-0.3-1-0.6-1.9-1-2.8c1.8-2.8,3-6.2,2.9-9.8c0-3.4-1.2-6.4-2.9-8.9c1.3-2.3,2.1-4.9,2.2-7.8
			c0.5-7.8-3.6-14.4-10.5-17.6c-0.1-2.2-0.3-4.4-0.7-6.7c-0.9-5.9-4.7-9.4-6.4-10.9c-0.1-0.1-0.2-0.1-0.2-0.2
			c-2.7-2.9-6.4-4.5-10.3-4.5c-0.2,0-0.4,0-0.6,0c-1.3,0.1-2.6,0.3-3.9,0.7c-2.6-2.1-6-3.3-9.7-3.3c-2.7,0-7.8,0.6-11.8,4.5
			c-3.4,3.2-6.4,6.3-9.4,9.2c-1.5-1.6-3.1-2.8-4.2-3.7l-0.4-0.3c-1.9-1.5-5.2-3.3-9.9-3.3c-1,0-1.8,0.1-2.3,0.1h-0.2
			c-2.1,0.1-4.1,0.1-6.2,0.2c-0.2-1.2-0.5-2.3-0.7-3.4c-1.6-6.5-7.1-13.9-15.5-14.7c-0.6-0.1-1.2-0.1-1.8-0.1
			c-5.9,0-16,3.6-16.9,17.3c-0.1,1-0.1,2-0.1,2.9c-1.8,0.2-3.5,0.5-5.2,0.9c-6.4,1.3-11.8,6.9-13.2,13.5c-0.8,4.1,0.1,8.3,2.3,11.8
			c-1.3,0.5-2.5,1.1-3.5,2c-3.2,1-6.6,1.4-9.9,1.5c-2.1,0-4.1-0.1-6.1-0.5c-1-0.5-1.9-1.1-2.8-1.8c1.7-2.6,2.7-5.6,2.9-8.9
			c0.2-3.9-0.8-7.7-2.9-10.9c1.3-2.4,2-5.2,2.2-8.2c0.3-9.6-5.9-17.2-15.6-19.1c-0.6-0.1-1.3-0.2-1.9-0.3c-1.6-3-5.1-7.9-12-8.7
			c-7-0.8-12.4,3.1-14.4,4.8c-1.6,1.4-2.9,3-4,4.9c-1.7,0.2-3.7,0.8-5.7,2c-2.5,1.5-10.3,6-10.2,15.1c0,3.2,0.9,5.8,2.1,8
			c-1.1,1.2-2.1,2.5-2.8,4c-0.6-0.9-1.2-1.8-1.9-2.7c-3.4-4.3-9-7.1-14.3-7.1c-2,0-4,0.4-5.8,1.1c-6,2.5-9.1,7.8-10.1,9.6
			c-1.5,2.6-2,5.2-2.1,7.3c-0.4,1.9-0.4,3.8,0,5.7c0.2,1,0.4,1.9,0.5,2.9c0.3,1.8,0.7,3.7,1.2,5.7c-3.7,3.6-6,8.9-5.8,14.1
			c0.1,3.4,1.3,6.3,3,8.7c-3.3,3.6-5.2,7.6-5.4,12.1c-0.3,4.9,1.3,9.5,4.8,13.8c-0.1,0.1-0.3,0.2-0.4,0.3
			C122.9,115.8,120,122.3,120.7,128.9z"/>
	</g>
</g>
<g id="圖層_2_1_">
	<g>
		<path d="M170.6,186.6c4.1,0,8.3,0,12.4,0c2,0,3.3-0.8,3.4-3.1c0.1-2.5-1.6-2.6-3.2-2.7c-8.7-0.9-17.4-1.9-26-2.8
			c-0.8-0.1-1.7-0.2-2.3-0.7c-0.9-0.6-2.2-1.7-2.1-2.4c0.1-1,1.2-2.4,2.2-2.7c2.5-0.7,5.1-1.3,7.6-1.3c17.9,0.4,35.9,0.9,53.8,1.4
			c2.9,0.1,4.7,1.4,5,4.4c0.3,3.2-1.5,5-4.5,5.2c-5.5,0.3-11.1,0.1-16.6,0.3c-1.9,0.1-4.5-0.4-4.7,2.9c-0.2,2.9,1.6,3.3,3.8,3.4
			c8.2,0.5,16.5,1,24.7,1.5c0.6,0,1.2,0,1.8,0.1c7.4,0.5,9.2,2.4,9.4,9.9c0.1,4,0.2,8,0,12c-0.2,4.7-4,7.4-8,5.8
			c-1.4-0.5-2.9-2.2-3.2-3.6c-0.6-3.2-0.6-6.5-0.7-9.8c-0.1-2.5-1-3.9-3.8-4c-6.5-0.3-13-0.8-19.4-1.4c-3.1-0.3-3.9,1-3.9,3.8
			c0.1,4.5-0.1,8.9-0.3,13.4c-0.1,3.4-1.8,5.3-4.8,5.4c-3.1,0.1-5.1-1.6-5.3-5.2c-0.3-4.6-0.1-9.2-0.3-13.8
			c-0.1-4.5-0.8-5.7-5.2-6.1c-8.3-0.6-16.7-0.8-25.1-1.2c-2.4-0.1-2.6,1.4-2.5,3.3c0.3,6,0.6,12,0.9,18c0.1,2.4,0.1,5.1-3.1,5.3
			c-2.9,0.2-5.3-1.5-5.4-4.5c-0.1-7.7-0.3-15.6,0.4-23.2c0.5-4.7,5.3-6.2,9.3-6.8c5.1-0.8,10.3-0.6,15.5-0.9
			C170.6,186.5,170.6,186.6,170.6,186.6z"/>
		<path class="st2" d="M35.4,268.3c8.2,0.7,15.9,1.8,23.6,2c19.1,0.6,38.2,0.8,57.3,1.2c1.3,0,2.6,0.2,3.9,0.3
			c3.2,0.1,6,0.6,6.2,4.6c0.2,3.6-2.3,7-6.1,7.5c-4.9,0.6-9.9,1-14.8,0.9c-15.5-0.4-30.9-0.9-46.3-1.6c-13.3-0.6-26.6-2-39.5-5.7
			c-1.9-0.5-4.6-2.3-4.8-3.8c-0.3-2,0.8-4.9,2.3-6.5c2.9-3.2,6.8-5.5,9.8-8.6c3.9-3.9,3.6-5-0.9-8.3c-1.5-1.1-3.1-2.2-4.3-3.7
			c-2.4-2.9-1.9-6.1,1.3-8c2.7-1.6,5.7-2.8,8.4-4.6c1.2-0.8,1.9-2.6,2.8-4c-1.4-0.7-2.7-1.7-4.1-1.9c-2.6-0.4-5.2,0-7.8-0.3
			c-1.1-0.1-2.9-1-3-1.8c-0.3-1.1,0.3-2.8,1.1-3.8c3.6-4.1,16.3-4.9,20.6-1.5c4.6,3.6,5.8,12.7,2,17.3c-1.3,1.6-3.2,2.8-4.5,4.5
			c-0.6,0.8-1.1,2.5-0.6,3.2c4.2,6.5,3.3,12.7-1,18.7c-0.4,0.6-0.7,1.2-1.1,1.8C35.8,266.6,35.8,267,35.4,268.3z"/>
		<path class="st2" d="M436.3,187.5c0.6,0.5,1.4,0.7,2.7,0.8c11.8,0.4,23.6,1.2,35.3,1.7c11,0.5,13.2,2.6,13.3,13.5
			c0,2.9,0,5.9,0,8.8c0,3.3,0,6.6,0,9.9c-0.1,3.9-2.1,6.3-5.4,6.7c-3.3,0.3-5.9-1.7-6.3-5.7c-0.6-5.4-0.7-10.8-0.9-16.2
			c-0.2-4.6-0.2-4.7-4.8-4.8c-23.8-0.9-47.6-1.8-71.4-2.9c-3-0.1-3.9,0.8-3.8,3.7c0.1,6.4-0.1,12.7-0.2,19.1c0,2.6-0.6,5.1-3.8,5.5
			c-3.4,0.5-5.2-1.7-5.5-4.6c-0.4-4.2-0.5-8.5-0.3-12.7c0.2-4.1,0.8-8.2,1.3-12.3c0.6-4.8,2.5-7.2,7.2-7.8c8.1-1,16.2-1.4,24.3-2
			c1.2-0.1,2.4-0.1,3.5-0.1c0.8,0,1.5-0.1,2-0.4"/>
		<path d="M423.5,187.6c1.3-0.6,1.9-1.8,2-3.8c0.2-3.6,0.8-7.2,1.2-10.8c0.3-2.1,1.3-4,3.5-3.5c1.5,0.4,3.4,2,3.7,3.4
			c0.8,3.8,1,7.7,1.2,11.6c0.1,1.4,0.4,2.4,1.1,3"/>
		<path d="M162.6,252.6l0.4-0.4c-0.1-0.1-0.2-0.3-0.4-0.5c-1.4-0.9-3-1.6-4.3-2.8c-1-0.9-2.4-2.5-2.1-3.5c0.2-1.1,2-2.3,3.3-2.5
			c3.7-0.5,6.7-1.9,8.9-5.9c-1.6-0.2-2.8-0.5-3.9-0.5c-2.9-0.1-5.9,0-8.8-0.2c-0.9-0.1-2.1-0.7-2.5-1.5c-0.3-0.5,0.5-1.6,0.8-2.5
			c0.1-0.2,0.3-0.4,0.5-0.5c3.3-3.1,20.7-4.9,24.7-2.6c2.7,1.5,3.6,5.2,1.7,8c-1.6,2.4-3.6,4.6-5.7,6.7c-1.4,1.4-1.4,2.4-0.2,3.9
			c1.3,1.6,2.8,2.8,4.5,3.5"/>
		<path class="st2" d="M179.4,251.5c1.4,0.5,2.9,0.8,4.6,0.7c4.2-0.2,7.5,3.1,8,7.3c0.4,4.3-2,8.1-6,9.2c-3.2,0.8-5-1-4.4-4.2
			c0.2-1.1,0.1-3.3-0.2-3.4c-1.8-0.4-3.7-0.6-5.5-0.2c-0.1,0-0.1,0.1-0.2,0.1l-10.6,0.2c0.1-0.1,0.1-0.1,0.2-0.2
			c-1.8-0.2-3.2-0.5-4.6-0.6c-2.6-0.2-5.2,0-7.7-0.6c-1.4-0.3-3.6-1.2-3.7-2.8c0.4-2,2.5-2.3,4-2.7c2.9-0.8,6-1,9-1.5l0.3-0.3"/>
		<path d="M165.2,261.2c-3.3,2.8-6.3,5-9.1,7.6c-2.9,2.7-5.8,5.5-8.3,8.6c-0.9,1.1-1.3,3.8-0.6,4.6c1.1,1.2,3.7,2.3,5,1.8
			c2.8-1,5.3-3,7.6-4.9c1.7-1.4,3-3.4,4.5-5.2c1.2-1,1.1-0.2,1.1,0.8c-0.7,4.9,2.2,10.4-3.6,14.5c-2.9,2-1.5,5.6,2,6.5
			c3.7,0.9,7.8-0.3,9.5-3.6c1.4-2.7,2.3-6,2.4-9c0.1-6.2-0.5-12.4-0.6-18.7c0-1,0.3-2.8,0.7-3.2L165.2,261.2z"/>
		<path class="st3" d="M443.6,244.8c0.3-0.1,0.6-0.1,0.9-0.1c2.1-0.1,4.2-0.3,6.3-0.6c4.3-0.5,5.8-1.7,5.6-4.8
			c-0.1-3.2-2.1-4.8-6.1-4.9c-1.4,0-2.8-0.1-4.2,0c-1.5,0-2.6-0.2-3.3-0.9l-12.6,0.8c-0.6,0.5-1.4,0.7-2.7,0.9
			c-2.2,0.2-4.5,0.5-6.7,0.7c-2.1,0.3-4.6,0.4-4.7,3.2c-0.2,3,2.1,4,4.6,4.3c2.6,0.3,5.2,0.2,7.7,0.8c0.1,0,0.2,0.1,0.4,0.1"/>
		<path d="M428.7,244.4c1,0.4,2.1,1.7,2.2,2.7c0.6,4.4-0.1,5.1-4.6,5.6c-3.4,0.3-6.9,0.3-10.2,1c-1.4,0.3-3.5,2.3-3.4,3.3
			c0.3,1.7,1.8,3.3,3.2,4.5c0.8,0.7,2.5,0.7,3.7,0.7c6.3,0.1,11.3,0.3,17.6,0.3c0.4,0,1.2,0,1.5,0c3.2,0,6,0.1,9.2,0
			c3.3-0.1,6.6-0.1,9.9-0.4c3.5-0.3,5.4-2.3,5.4-5.3c-0.1-3-2-5.1-5.4-5.3c-4.5-0.3-9-0.4-13.4-0.5c-1.8-0.1-3.3-0.4-3.3-2.6
			c0-1.9,0.7-3.2,2.4-3.6"/>
		<path d="M442.8,233.6c-0.9-0.8-1.3-2.1-1.4-4c-0.3-4.7,2.8-4.6,5.7-5.3c5.3-1.2,6.7-2.5,6.3-5.6c-0.4-2.8-3-4.1-7.8-3.5
			c-3.2,0.4-5.3,0.4-5.9-3.8c-0.2-1.5-2.5-3.8-4.1-4c-2.6-0.4-3,2.3-3.3,4.5c-0.1,0.8-0.4,1.6-0.4,2.4c-0.1,2.4-1.4,3.5-3.6,4.1
			c-3.2,0.9-6.3,2-9.3,3.4c-1,0.4-2.2,2-2,2.8c0.2,1,1.6,2.2,2.7,2.3c2.3,0.3,4.7-0.1,7-0.2c1.9-0.1,4.1-1.1,4.3,2.3
			c0.2,3,0,4.5-0.9,5.3L442.8,233.6z"/>
		<path d="M102,216.3c1.5,0.2,3,0.4,4.5,0.5c3.7,0.2,5.8,1.8,5.8,4.8c0.1,3.4-1.8,4.9-5,5.2c-4.8,0.4-9.6,0.9-14.5,1.1
			c-2.2,0.1-2.7,1-2.8,3c-0.5,6.3-1.3,12.6-2.1,18.9c-0.2,1.3-0.4,2.8-1.2,3.6c-1.3,1.3-3.1,2.7-4.7,2.8c-2.5,0-3.4-2.1-3.1-4.6
			c0.6-5.6,1.2-11.2,1.7-16.8c0.4-6.2,0.3-6.2-5.9-6.9c-3.7-0.4-7.5-0.5-11.2-1.3c-1.3-0.3-3.5-2.2-3.3-2.8c0.5-1.5,1.9-2.9,3.2-4.1
			c0.5-0.5,1.5-0.5,2.4-0.7c2.4-0.3,3.4-1.6,3.4-4.1c0-5.1,0.3-10.1,0.5-15.2c0.1-2.5,0.2-5,0.9-7.3c0.4-1.3,2.1-2.1,3.2-3.1
			c1,1.1,2.5,2,2.8,3.2c0.8,3.8,1.1,7.7,1.6,11.5c0.4,3.5,0.7,7,1.2,10.5c0.1,1,0.5,1.9,0.8,2.8c0.4,0.1,0.8,0.1,1.2,0.2
			c0.5-1.4,1.2-2.7,1.4-4.1c0.9-6.9,1.6-13.8,2.6-20.6c0.3-1.9,1.6-3.6,2.4-5.4c1,1.9,2.7,3.8,2.9,5.9c0.4,5.7,0.2,11.5,0.2,17.3
			c0,0.8-0.2,1.7,0.1,2.4c0.5,1.2,1.4,2.4,2.1,3.5c0.3-1.2,0.6-2.4,0.9-3.6c1.4-5.4,2.5-10.9,4.2-16.3c0.8-2.4,3-4.2,5.9-3.1
			c2.8,1,2.4,3.6,2,5.8C105,204.8,103.5,210.2,102,216.3z"/>
		<path d="M320.1,255.4c-2.7-0.7-5.2-1-7.4-1.9c-1.1-0.5-2.6-2.3-2.4-3.2c0.2-1.4,1.5-3.4,2.8-3.8c2.8-0.9,5.8-1.2,8.7-1.2
			c10.5,0.1,21,0.4,31.5,0.7c3.9,0.1,6.5,2.5,6.4,5.6s-2.4,5-6.5,4.9c-6.7-0.1-13.4-0.5-20.2-0.6c-2.4,0-5.2,0-4.8,4.4
			c2,0.2,4,0.5,6.1,0.7c7.2,0.8,14.6,1.4,21.7,2.6c7,1.2,9.8,4.8,10.1,12c0.1,3.3-0.3,6.6-0.6,9.8c-0.3,2.7-1.6,4.3-4.6,4.3
			c-2.9,0-4.8-1.1-5.1-4.2c-0.3-2.5-0.7-4.9-0.8-7.4c-0.1-2.9-1.3-4.7-4.2-5.1c-8.2-1.2-16.3-2.6-24.5-3.6c-1-0.1-2.4,1.2-3.2,2.2
			c-1.1,1.5-1.8,3.3-2.9,4.9c-1.5,2.2-3.6,3.4-6.4,2c-2.8-1.4-3.6-3.8-2.1-6.9c2.2-4.5,4.7-8.9,7.1-13.4
			C319.4,257.3,319.7,256.3,320.1,255.4z"/>
		<path d="M273.6,219.6c-2.2,1.5-3.4,2.5-4.8,3.3c-2.4,1.4-5,1.9-7.1-0.4c-2.2-2.3-1-4.6,0.7-6.6c8-9.3,15.9-18.6,24.1-27.7
			c1-1.1,3.7-2,4.8-1.4c1.2,0.6,2.2,3.3,1.8,4.7c-1,3.3-2.7,6.4-4.3,9.6c-0.6,1.2-1.5,2.4-2.4,3.5c-1.4,1.6-2.3,3.2-2.9,5"/>
		<path class="st2" d="M283.5,209.6c-0.7,2.3-0.8,4.8-0.3,7.7c1.3,9.3,2,18.7,2.3,28.1c0.2,10.2-0.3,20.5-0.6,30.7
			c0,1.7-0.4,3.5-0.8,5.2c-0.8,3.1-2.9,4.5-6.1,4.1c-3.2-0.4-4.4-2.5-4.3-5.5c0.3-10.6,0.6-21.2,0.7-31.8c0.1-7.8,0.1-15.5,0-23.3
			c0-1.5-0.4-2.9-0.7-5.2"/>
		<path class="st2" d="M351.6,220.6c-0.3,4.8-0.6,9.6-1,14.4c-0.2,3.3-2,5.4-5.4,5.3c-7.4-0.2-14.8-0.7-22.1-1.2
			c-2.6-0.2-3.7-2.1-3.4-4.8c0.8-8.8,1.4-17.5,2.2-26.3c0.3-3.3,2.4-5.3,5.5-5.4c6.1-0.2,12.2-0.2,18.4,0c3.4,0.1,5.1,2.4,5.4,7.1
			c0.2,3.6,0,7.3,0,10.9C351.4,220.6,351.5,220.6,351.6,220.6z M336.2,230.3c0.9,0,1.9,0,2.8,0c1.9-0.1,4.2,0.5,4.1-2.8
			c-0.1-2.8-1.5-4-4.3-3.7c-1.6,0.1-3.3,0-4.9,0c-3.4,0-4.6,1.2-4.3,4.7c0.2,2.8,2.6,1.5,4.1,1.8
			C334.6,230.4,335.4,230.3,336.2,230.3z M336.4,215L336.4,215c1.3,0,2.6,0.2,3.9-0.1c0.8-0.2,2.1-1.1,2.1-1.6
			c-0.1-0.9-0.9-2.6-1.5-2.6c-2.9-0.3-5.9-0.3-8.8,0c-0.7,0.1-1.5,1.6-1.6,2.5c-0.1,0.5,1.3,1.4,2.1,1.6
			C333.7,215.2,335.1,215,336.4,215z"/>
		<path d="M216.1,234.5c3.5,0,6.1,0,8.7,0c2.6,0,5,0.1,6.3,2.9c1.3,2.6,0.3,4.8-1.2,6.9c-3.3,4.7-3.3,4.7,2.3,6.7
			c2,0.7,4.2,1.2,5.8,2.4c1.3,1,2.8,3,2.6,4.4c-0.1,1.4-1.9,3.1-3.4,3.8c-1.3,0.6-3.3,0.6-4.8,0.1c-3.9-1.4-7.7-3-11.3-4.8
			c-2-1-3.6-1.2-5.6-0.1c-3.7,1.9-7.4,3.6-11.2,5.1c-1.2,0.5-2.8,0.6-4.1,0.2c-3.5-1-4.1-3.8-1.3-5.9c2.6-2,5.8-3.2,8.5-5
			c1.1-0.8,2.4-2.5,2.3-3.5c-0.4-2-2.2-1.4-4-1.3c-1.9,0.1-4.6-0.4-5.6-1.7c-0.9-1.2-0.4-4.2,0.6-5.6c2.5-3.7,5.5-7,8.6-10.3
			c1.8-2,4.2-4.1,7.1-2.3C219.3,228.1,217.9,230.9,216.1,234.5z M215.8,240.2c-0.1,0.4-0.1,0.8-0.2,1.2c1.7,1.1,3.5,2.5,6-0.7
			C219.2,240.5,217.5,240.4,215.8,240.2z"/>
		<path d="M443,271.2c3.1,0,6.1,0.1,9.2,0c3.3-0.1,5.4,1.5,5.5,4.7c0.3,6.2,0.1,12.4,0.1,18.7c0,2.6-1.6,4.2-4.2,4.3
			c-6.1,0.1-12.2,0.2-18.3,0c-2.7-0.1-5.4-0.6-8.1-0.9c-2.7-0.3-4.4-1.9-4.3-4.7c0.3-6,0.6-12,1.4-17.9c0.2-1.3,2.7-3,4.3-3.2
			c4.8-0.8,9.6-0.9,14.4-1.3C443,271,443,271.1,443,271.2z M439.9,280.9c-1.4,0-2.8,0-4.2,0c-1.9,0.1-4.1-0.2-4,2.7
			c0.1,2.3,0.1,4.9,3.6,5c2.7,0.1,5.4,0.3,8.1,0.5c3,0.2,4.7-0.6,4.7-4c0-3.3-1.5-4.4-4.6-4.1C442.3,281,441.1,280.9,439.9,280.9z"
			/>
		<path d="M210.3,277.7c-2-0.6-4-0.8-5.5-1.7c-1.2-0.7-2.8-2.4-2.7-3.5c0.1-1.1,2-2.2,3.1-3.2c0.1-0.1,0.2-0.1,0.3-0.1
			c5.4,0.1,9.5-1.5,11-7.4c0.2-0.7,2.2-1.6,3.2-1.4c1,0.2,2.4,1.5,2.5,2.4c0.2,4,2.6,5.2,6.1,5.9c4.6,1,9.3,2.7,10.3,8
			c1.2,6.4-0.8,12.3-5.8,16.6c-1.4,1.2-4.8,0.8-6.8,0.1c-1-0.4-1.5-3.4-1.3-5.1c0.1-1.8,1.4-3.5,2-5.2c0.6-1.7,2-3.8-0.8-4.7
			c-2.4-0.8-4.6-0.6-5.6,2.5c-1,3.2-2.4,6.4-3.8,9.5c-0.8,1.8-2,3.5-3.4,4.9c-1.9,2-4.2,2.5-6.7,1c-2.6-1.5-2.7-3.7-1.6-6.1
			C206.5,286.1,208.3,282.1,210.3,277.7z"/>
		<path d="M333,193.5c-3.9,0-7.8,0.1-11.7,0c-2.5-0.1-4,1-4.7,3.3c-0.7,2-1.4,4-2.3,5.9c-1.1,2.3-3.1,2.8-5.4,2
			c-2.2-0.8-3.7-2.4-2.9-4.9c2.8-9.3,5.7-18.6,8.8-27.9c0.4-1.2,2.3-1.9,3.6-2.8c0.7,1.3,1.7,2.5,1.9,3.8c0.3,2.5,0.2,5.2-0.1,7.7
			c-0.4,3.4,1.1,3.8,4.1,3.6c9.4-0.6,18.8-1,28.2-1.1c1.6,0,3.9,1.4,4.6,2.7c1.7,3.5-0.4,6.5-4.3,6.9c-0.9,0.1-1.9,0.2-2.8,0.2
			c-5.7,0-11.3,0-17,0C333,193.2,333,193.3,333,193.5z"/>
		<path class="st3" d="M101.9,237.1c0.7,0.3,1.9,0.5,2.8,1.2c3.6,2.6,7.3,5.1,10.7,7.9c2.5,2,2.6,5.4,0.6,7.8c-2,2.4-5.6,3.2-7.8,1
			c-3.7-3.7-7.2-7.7-10.2-12C95.9,240.1,97.9,237,101.9,237.1z"/>
		<path class="st3" d="M320.1,291.4c2.7-5,5-9.7,7.8-14.1c1.2-1.9,3.6-2.8,5.9-1.4c2.4,1.4,1.8,3.7,1,5.6c-1.8,4.2-3.5,8.5-5.8,12.3
			c-0.8,1.3-3.6,2-5.3,1.8C322.5,295.6,321.6,293.3,320.1,291.4z"/>
		<path class="st3" d="M335.8,294.8c2.6-5.3,4.8-10.3,7.4-15c0.5-0.9,3-1.5,3.8-1c1.2,0.7,2.5,2.7,2.2,3.9c-1.1,5-2.6,9.9-4.5,14.7
			c-0.5,1.3-3.4,2.7-4.7,2.3C338.5,299.1,337.5,296.8,335.8,294.8z"/>
		<path d="M66.9,255.1c-4.1,0.1-6.7-2.8-5.2-5.5c2.6-4.7,5.7-9.1,8.8-13.5c0.5-0.7,2.3-1.2,3-0.8c1,0.5,2.1,1.9,2.1,2.9
			c-0.1,2.3-0.5,4.7-1.4,6.8c-1.1,2.7-2.6,5.3-4.2,7.7C69.1,253.9,67.5,254.6,66.9,255.1z"/>
		<path d="M22,199.2c0.1-1.8-0.2-3.7,0.4-5.2c0.5-1.4,1.8-3.2,3.2-3.6c1.1-0.3,3.6,1,3.9,2c1.1,4.7,2.1,9.6,2.2,14.4
			c0,1.3-2.9,3.5-4.7,3.7c-1.4,0.1-3.7-2-4.3-3.6c-0.9-2.3-0.7-5.1-0.9-7.6C21.8,199.3,21.9,199.2,22,199.2z"/>
		<path class="st3" d="M171.8,216.7c-2.1-0.6-4.3-0.9-6.1-1.8c-1-0.4-2.1-1.8-2.2-2.7c0-1,1.1-2.8,1.9-2.9c3.4-0.4,7-1,10.2-0.2
			c3.3,0.8,3.1,4.3-0.2,6.3C174.4,216,173,216.2,171.8,216.7z"/>
		<path class="st3" d="M208.1,214.8c1.3,0.2,2.8,0,3.8,0.6c1.4,0.9,2.4,2.5,3.5,3.7c-1.5,1.2-2.8,3.1-4.4,3.4
			c-1.9,0.4-4.3-0.2-6.1-1.1c-1.3-0.6-2-2.5-2.9-3.8c1.3-0.9,2.6-1.9,4-2.6c0.6-0.3,1.4,0,2.1,0C208,214.9,208.1,214.8,208.1,214.8z
			"/>
		<path class="st3" d="M171.2,206.3c-1.7-0.4-3.9-0.7-6-1.4c-0.8-0.3-1.8-1.5-1.7-2.2c0-0.7,1.2-1.8,2-1.9c3-0.3,6.1-0.4,9.1-0.1
			c1.3,0.2,2.5,1.7,3.7,2.6c-1.1,0.9-2.2,1.9-3.4,2.5C174,206.3,172.8,206.1,171.2,206.3z"/>
		<path class="st3" d="M207.8,204.6c1,0.2,2.3,0.2,3.2,0.8c1,0.7,2.1,1.9,2.1,2.9c0,0.9-1.2,2.5-2.1,2.7c-2.1,0.5-4.4,0.8-6.5,0.4
			c-1.2-0.3-3-2-3-3.1c0-1.1,1.8-2.4,3-3.2C205.4,204.6,206.6,204.8,207.8,204.6z"/>
	</g>
	<g>
		<path d="M332.7,60c-1.7,1.2-3,1.9-4.2,2.8c-2.4,1.7-4.5,1.3-6.7-0.6c-2.3-2.1-1.1-4.1,0.3-5.5c7-7.2,14.1-14.2,21.3-21.2
			c0.6-0.6,2.7-0.7,3-0.3c0.8,1.1,1.6,2.9,1.2,4c-0.9,2.5-2.4,4.8-3.8,7.1c-0.8,1.4-1.8,2.8-2.9,4c-2.6,2.8-0.7,5.4,0.5,7.7
			c0.4,0.8,2.7,0.7,4.2,0.8c1,0.1,2.1-0.2,3.2-0.4c7.5-1,6.4-0.1,7.6-8.3c0.4-2.9-0.1-5.9,0.4-8.8c0.3-1.4,1.8-2.6,2.8-3.9
			c1.1,1.2,2.9,2.3,3,3.6c0.6,4.3,0.7,8.7,0.9,13c0.1,2.3,0.9,3.5,3.4,3.4c0.8,0,1.6,0.2,2.4,0.4c2.6,0.5,4.6,1.8,4.4,4.6
			c-0.2,2.6-2.1,3.7-4.6,4c-1.3,0.1-2.6,0.6-3.8,0.5c-3.5-0.2-4.5,1.6-4.5,4.7c0,3.4,1.7,4.6,4.8,4.6c1.8,0,3.7-0.3,5.3,0.4
			c1.5,0.7,3.6,2.3,3.6,3.5c0,1.5-1.5,3.6-3,4.4c-1.6,0.9-3.9,0.6-5.9,0.9c-1.8,0.3-3.9,0.3-3.8,3.1c0.1,2.4,1.5,3.2,3.7,3.3
			c1.4,0.1,3,0,4.1,0.7c1.4,0.9,3,2.2,3.4,3.7c0.6,2.2-1,3.7-3.2,4.3c-0.3,0.1-0.7,0.1-1,0.2c-2.1,0.6-5.5,0.8-6,2
			c-1,2.8-0.8,6.2-0.6,9.3c0,0.8,1.7,1.9,2.8,2c2.4,0.4,4.9,0.2,7.4,0.3c0.9,0,1.9,0,2.8,0.1c3,0.4,6.5,3.8,6.5,6.2
			c0,2.5-2.9,5.3-6.5,5.5c-7.3,0.4-14.6,0.6-21.9,0.7c-4.9,0-9.9-0.3-14.9-0.5c-5.6-0.2-7.9-2.5-7.6-8.1c0.6-9.4,1.7-18.7,2.1-28.1
			c0.4-9.2,0.1-18.4,0.1-27.5C333,62,332.9,61.5,332.7,60z M341.4,117.5c3.6-0.9,6.3-1.3,8.8-2.2c0.9-0.3,1.9-1.8,1.9-2.7
			c0.1-2.9-0.1-5.9-0.7-8.7c-0.2-1-1.7-2.4-2.6-2.4c-1.8-0.1-4.9,0.4-5.1,1.2C342.6,107.1,342.2,111.9,341.4,117.5z M348.2,66.3
			c-4.8-0.1-5.3,0.3-5.3,3.5c0,6.2,1,7.8,4.7,7.9c5,0.1,6-1.4,6.1-7.7C353.6,65.5,350.2,66.7,348.2,66.3z M343.5,88.4
			c0.1,2.6-0.5,4.8,2.7,4.9c4.5,0,5.9-1.2,6.1-4.7c0.2-3.5-1.8-3.9-4.6-4C344.2,84.4,343,85.8,343.5,88.4z"/>
		<path d="M316.9,103.6c-0.1-5.4-1.8-7.5-7.2-8.2c-4.6-0.5-9.2-0.5-13.8-0.7c-4.3-0.2-5.2-1-5.4-5.6c-0.2-5-0.2-5.1,4.7-5.6
			c1.3-0.1,2.6-0.3,3.9-0.4c6.5-0.8,8.2-2.7,8.2-9.1c0-5.9-0.1-11.8-0.3-17.7c-0.1-3.2,0.3-5.3,4.3-5.7c1.5-0.2,3.9-3,3.8-4.5
			c-0.1-1.6-2.5-3.3-4.1-4.5c-0.7-0.5-2.1-0.2-3.1-0.2c-5.5,0.2-11.1,0.4-16.6,0.6c-0.8,0-1.5,0-2-0.2c-0.4,0-0.9,0.1-1.3,0.1
			c-2.7,0.1-5.5,0.3-8.3,0.3c-0.8,0.7-2.5,0.7-6.4,0.9c-3.3,0.2-6.6,0.6-9.8,1.2c-1,0.2-2.1,1.6-2.3,2.6c-0.2,0.8,0.8,2.5,1.6,2.7
			c5,1.5,5,5.1,4.5,9.2c-0.2,1.4-0.1,2.8-0.1,4.2c-0.2,5.5-0.5,11.1-0.6,16.6c0,4.7,1.3,5.9,5.9,5.8c2.3-0.1,4.7-0.3,7-0.7
			c2.5-0.4,3.7,0.2,3.7,3.1c0,6.6-0.3,7.1-6.8,8c-1.2,0.2-2.3,0.4-3.5,0.7c-3.5,0.9-5.4,3.1-5.5,6.8c-0.2,8-0.6,16-0.8,24
			c0,1.3-0.1,2.8,0.4,3.8c0.8,1.4,2.3,3.5,3.2,3.4c1.4-0.2,2.8-1.9,3.8-3.3c0.5-0.7,0.3-2,0.3-3.1c0-6.5,0-12.9,0-19.4
			c0-2.7,0.5-4.9,4-4.9s4.2,1.9,4,4.8c-0.1,1.5-0.1,3.1,0,4.6c0.2,2.4-0.5,3.9-3.1,4.7c-1.2,0.3-2.8,1.1-3.2,2.9
			c-0.1,2.2,2.2,2.7,3.5,3c3.2,0.6,6.5,0.7,9.8,0.9c1.9,0.1,4.9,0.4,6.5,1.5c-0.4-2.5-0.9-4.8-1.3-7.6c-0.1-0.4-0.5-1.2-0.6-1.6
			c-0.1-0.3-0.1-0.6-0.1-0.9c-0.2-0.1-0.4-0.2-0.6-0.3l-1.3,0.2c-2-2.6-1.2-5.8-1.1-8.8c0.1-2.4,1.4-3.3,3.7-3.2
			c3.3,0.2,6.6,0.6,9.9,0.6c2.6,0,3.4,0.9,3.4,3.5c0,5.3,0.2,10.6,0.6,15.8c0.1,1.2,1.5,2.8,2.6,3.2c1.2,0.3,3.3-0.2,4-1.1
			c1-1.2,1.5-3.1,1.6-4.8C317.1,115.2,317,109.4,316.9,103.6z M277.8,75.4c-0.8,0-2.4-1.5-2.5-2.5c-0.7-6.3-1.1-12.6-1.4-19
			c0-0.7,1.1-1.9,1.8-2c7.3-0.1,14.6-0.1,21.8-0.1v22C290.7,74.5,284.3,75.1,277.8,75.4z"/>
		<path d="M153.7,99.2c8,6.9,11.5,14.6,5,24.5c1.5,0.4,2.7,0.9,3.9,1c4.9,0.5,9.9,1.1,14.8,1.1c15.6,0.1,31.1,0.2,46.7,0
			c5.1-0.1,10.3-1.3,15.4-2.1c4.2-0.6,7.2,1,8.2,4.7c0.9,3.2-0.7,6.6-4.6,7.6c-5.9,1.5-12,2.9-18,3.2c-26.7,1.4-53.3-0.2-79.6-4.9
			c-2.4-0.4-4.9-1.2-7-2.3c-4.8-2.5-5.2-6.7-1-10.1c1.4-1.1,3-1.9,4.5-2.8c2.1-1.2,4.3-2.4,6.5-3.6c2.3-1.2,2.3-2.7,0.6-4.4
			c-2.8-2.7-5.5-5.5-8.3-8.2c-3.6-3.7-3.4-6.5,0.6-9.7c1.6-1.3,3.5-2.3,5.3-3.5c1-0.6,2.2-1.1,3-1.9c1.5-1.8,2.8-3.8,4.1-5.7
			c-2.2-0.9-4.3-1.9-6.5-2.7c-1.3-0.4-3-0.1-4.1-0.7s-2.3-1.9-2.4-3c0-1.2,0.8-3,1.8-3.7c5.2-3.4,16.2-1.5,20,3.2
			c3.7,4.7,2.8,13.3-2.2,18.3C158.4,95.4,156.3,97,153.7,99.2z"/>
		<path d="M190.8,23.7c1.3-0.8,2.1-2.1,2.5-4.2c0.2-1.1,0.8-2.3,1.6-3.1c0.9-0.8,2.4-1.6,3.5-1.5c0.8,0.1,1.5,1.7,2,2.7
			c0.3,0.6,0.2,1.4,0.1,2.1c-0.1,1.6,0.3,2.5,1.1,3.1"/>
		<path class="st3" d="M202.3,33.7c0.4-0.1,0.9-0.2,1.4-0.2c2.5,0,5,0,7.4-0.3c2.5-0.4,4.4-1.7,4.5-4.6c0.1-3-1.7-4.3-4.2-4.8
			c-2.3-0.4-4.7-0.6-7-0.5c-1.2,0-2.1-0.1-2.7-0.5l-10.8,0.9c-1.3,0.8-3,1-5,1c-0.9,0-2.1-0.3-2.8,0.1c-1.3,0.8-3.3,1.9-3.3,2.9
			c0,1.3,1.5,2.8,2.6,3.9c0.7,0.6,2,0.6,3.1,0.7c2.7,0.2,4.3,0.4,5,1"/>
		<path d="M190.5,33.2c1,0.7,0.8,2.2,0.5,5.6c-0.3,2.7-1.4,3.4-3.8,3.5c-1.9,0.1-3.9,0.1-5.5,0.8c-1.6,0.7-3.9,1.9-4.2,3.3
			c-0.6,2.6,2,3.4,4.2,3.7c7,0.9,21.1,2.2,21.1,2.1c2.5,0,5,0,7.4,0c3.6-0.1,6.1-2,6.3-4.8c0.1-2.9-2.5-5.2-6.2-5.3
			c-2.4-0.1-4.7-0.1-7-0.4c-3.1-0.4-2.6-2.9-2.6-4.9c0-1.6,0.5-2.7,1.8-3.1"/>
		<path class="st2" d="M197.5,84.2c-3-0.5-6.5-0.9-9.9-1.7c-2.7-0.6-4.1-2.5-4.1-5.4c0.1-3.4,0.1-6.8,0-10.2
			c-0.1-3.7,1.8-6.1,5.3-6.9c3.6-0.8,7.4-1.4,11.1-1.5c3.3-0.1,6.6,0.4,9.9,0.7c3.2,0.3,5,1.9,4.8,5.3c-0.2,3.6-0.4,7.3-0.8,10.9
			c-0.5,4.6-3.4,7.1-7.8,7.9C203.5,83.6,200.8,83.8,197.5,84.2z M198.9,73.5L198.9,73.5c1.3,0.1,2.8,0.5,3.8-0.1
			c1.2-0.6,2.2-2,2.6-3.3c0.2-0.5-1.1-2.1-2-2.3c-2.5-0.7-5.1-0.9-7.6-1.3c-1.8-0.3-3.6-0.4-3.8,2.2c-0.2,2.4,0.1,4.6,3.2,4.8
			C196.3,73.6,197.6,73.5,198.9,73.5z"/>
		<path d="M204,106.6c2.8,0,4.6,0,6.5,0c2.4,0,3,1.4,2.6,3.5c-1,5.1-6.1,8.4-12.2,7.9c-4.5-0.4-6.9-3.4-6.5-9.2
			c0.2-4.1,1.1-8.2,1.9-12.2c0.5-2.5,2-4.4,4.9-4.1c3,0.3,2.7,2.9,2.8,4.9C204.1,100.6,204,103.6,204,106.6z"/>
		<path d="M223.2,109.6c-5.3-0.2-14.7-11.7-13.9-15.6c0.6-3,2.9-4.1,5.5-2.4c0.9,0.6,1.7,1.3,2.4,2c1.6,1.5,3,1.4,4.6-0.1
			c1.7-1.6,3.4-3.4,5.4-4.5c1.1-0.7,3.6-0.9,4.3-0.2c0.9,0.9,1.2,3,1,4.5c-0.2,1.3-1.3,2.5-2.2,3.5c-2.2,2.7-4.7,5-4.3,9.1
			C226,107.2,223.8,108.7,223.2,109.6z"/>
		<path d="M179.3,116.7c-4.3,0-6.3-2.6-5-6c0.5-1.4,1.4-2.7,2.2-4c3-4.4,5.9-8.8,9.1-13c1-1.3,3.1-1.9,4.6-2.9c1,1.7,3,3.7,2.7,5.2
			c-1.4,7.8-5.1,14.6-11.3,19.8C181,116.4,179.8,116.5,179.3,116.7z"/>
		<path class="st2" d="M145,50.7c0-1.1-0.4-2.3,0.1-3.1c0.8-1.4,1.9-3.1,3.3-3.7c0.9-0.4,3,0.7,3.7,1.7c3.2,4.1,4.5,9,4.1,14.2
			c-0.2,2.5-1.7,4.1-4.3,4.4c-2.4,0.3-4.6-0.6-5.3-3.1c-0.9-3.4-1.5-6.8-2.1-10.3C144.7,50.8,144.8,50.7,145,50.7z"/>
		<path class="st2" d="M279.5,53.8c0.5,0.1,0.6,0,0.7,0.1c3.6,3,7.3,3,11.4,0.9c0.3-0.1,2.1,1.5,2.2,2.5c0.2,1.1-1,2.4-1.1,3.6
			c-0.1,1.7-0.2,3.6,0.5,5.1c0.9,1.9,2.5,3.5,0.5,5.6c-1.9,2-3.5,0.4-5.3-0.3c-1.4-0.5-3.3-0.5-4.7,0.1c-1.8,0.7-3.2,2-5,0.1
			s-1.3-3.9,0.1-5.4c2.7-2.9,2.1-5.2-0.2-7.9c-0.6-0.7-0.7-2.2-0.5-3.2C278,54.5,279.1,54.1,279.5,53.8z"/>
		<path class="st3" d="M298.4,110.6c-0.7-0.7-2.2-1.3-3.1-1c-0.8,0.3-1.4,1.7-1.7,2.7c-0.2,0.9-0.1,1.8-0.1,2.8
			c0,0.2,0.1,0.4,0.1,0.7c0.2,0.8,1.6,7.9,2,10.6c0.1,0.1,0.2,0.3,0.4,0.4c1,1.4,3,2.3,4.4,0.1C302.2,124.1,300.9,112.9,298.4,110.6
			z"/>
		<path class="st3" d="M279.6,42.3c3.3-0.1,6.6-0.3,9.9-0.4c-0.6-0.4-1-1.1-1-2.3c-0.3-4.1-0.9-8.1-1.8-12.1c-0.4-1.5-2-3.9-3.3-4
			c-3-0.3-3.3,2.2-3.4,4.1c-0.2,3-0.1,6.1-0.2,9.2C279.8,39.9,280.1,41.4,279.6,42.3z"/>
	</g>
</g>
</svg>
