<?xml version="1.0" encoding="utf-8"?>
<!-- Generator: Adobe Illustrator 25.0.0, SVG Export Plug-In . SVG Version: 6.00 Build 0)  -->
<svg version="1.1" id="_xEFF5__xEED3__x5F_7" xmlns="http://www.w3.org/2000/svg" xmlns:xlink="http://www.w3.org/1999/xlink"
	 x="0px" y="0px" viewBox="0 0 217.5 262.5" style="enable-background:new 0 0 217.5 262.5;" xml:space="preserve">
<style type="text/css">
	.st0{fill:#FDD23E;}
	.st1{fill:#FFFFFF;}
</style>
<g>
	<path d="M175,89.7c0.4-1.5,1.3-2.8,2.5-3.9c0.6-0.6,1.1-1.3,1.6-2c0.5-0.6,1.1-1.2,1.7-1.8c0.3-0.3,0.8-0.5,1.1-0.8
		c0.7-0.7,1.8-1.1,2.1-2.1c0-0.1,0.1-0.1,0.2-0.2c1-0.6,2-1.3,3.1-1.9c0.9-0.5,1.7-1,2.6-1.5c1-0.5,1.9-1.2,3.2-0.9
		c0.1,0,0.4-0.2,0.5-0.3c1.3-1.2,3-1.6,4.7-1.7c1.3-0.1,2.5-0.8,3.8-0.3c0,0,0.1,0,0.2,0c1.5-0.7,3.1-0.6,4.7-0.3
		c0.6,0.1,1.3,0.4,1.9,0.5c1.3,0.3,2.6,0.5,3.3,1.9c0,0.1,0.1,0.2,0.2,0.3c0.9,0.7,1.5,1.8,2.6,2.4c0.3,0.1,0.4,0.6,0.5,0.9
		c0.4,1.1,0.8,2.2,1.1,3.4c0.3,0.9,0.4,1.9,0.6,2.8c0.3,1.1,0.5,2-0.8,2.7c-0.5,0.3-0.6,1.4-1,2.1c-0.5,0.9-1,1.8-1.7,2.6
		c-0.9,1.2-1.9,2.3-3,3.4c-0.8,0.8-1.8,1.4-2.7,2.1c0,0-0.1,0-0.2,0.1c-1.4,0.6-2.9,1.3-4.3,1.9c-0.1,0.1-0.2,0.2-0.3,0.4
		c-0.6,0.9-1.6,1.2-2.6,1.4c-1,0.1-1.9,0.5-2.7,1.1c-0.4,0.3-0.9,0.7-1.3,0.8c-1.2,0.1-2.2,0.3-3.3,0.7c-0.6,0.2-1.2,0.2-1.8,0.2
		c-1.6,0.1-3.2,0.2-4.7,0.3c-0.1,0-0.3-0.1-0.4-0.1c-1.5-0.1-2.9-0.4-4.4-0.3c-0.8,0-1.5,0-2.2-0.5c-0.8-0.6-1.3-0.5-2,0.2
		c-0.1,0.1-0.3,0.3-0.5,0.4c-1,0.5-2,0.9-3,1.4c-1.6,0.8-3.3,1.2-5,1.8c-0.7,0.2-0.8,0.6-0.6,1.3c0.1,0.5,0.2,1,0.1,1.4
		c-0.4,1-0.9,2-1.6,2.7c-0.8,0.8-1.9,1.3-2.9,1.9c-0.3,0.2-0.7,0-1,0.1c-1.2,0.5-2.4,1.1-3.6,1.6c-0.9,0.3-1.8,0.6-2.8,0
		c-0.2-0.1-0.5,0.1-0.8,0.1c-0.6,0.1-1.2,0.2-1.8,0.1c-0.6,0-1.2-0.2-1.8-0.4c-0.5-0.1-0.9-0.4-1.4-0.5c-0.3-0.1-0.6-0.1-0.8,0
		c-0.9,0.5-1.8,1.1-2.7,1.6c-1.3,0.8-2.6,1.6-3.9,2.4c-0.6,0.3-1.2,0.6-1.8,0.9c-0.3,0.2-0.7,0.4-0.8,0.7c-0.5,0.8-0.1,1.6-0.1,2.4
		c-0.1,2.1,0.4,4.3-0.5,6.4c-0.1,0.2,0,0.5,0.1,0.7c0.3,0.7,0.3,1.4,0,2.1c-0.1,0.2-0.1,0.4-0.1,0.7c0,1.4,0,2.8,0,4.2
		c0,0.7-0.1,1.3-0.2,2c-0.1,0.8-0.3,1.6-0.4,2.5c0,0.4,0,0.8,0,1.1c0,1.2,0,2.4-0.1,3.6c-0.1,0.9-0.3,1.8-0.3,2.7
		c0.1,1.8,0.6,3.6-0.9,5.1c0.9,1.1,0.9,2.1,0.5,3.3c-0.2,0.6-0.3,1.4-0.2,2c0.4,2-0.1,4-0.3,6c0,0.5,0,1,0,1.5c0,0.6,0.1,1.2,0,1.8
		c-0.2,0.9-0.5,1.8-0.8,2.7c0,0.2,0,0.4,0.1,0.6c0.4,1.5,1,3,0.2,4.6c-0.1,0.1,0,0.3,0,0.4c-0.1,0.7-0.2,1.4-0.3,2.1
		c-0.1,0.4-0.3,1-0.1,1.3c0.5,0.9,0.3,1.7,0,2.6c-0.2,0.6-0.3,1.3-0.3,1.9c-0.1,1.2,0.1,2.4-0.2,3.5c-0.4,1.4,0,2.8-0.1,4.2
		c-0.1,1,0.1,2-0.7,2.8c-0.1,0.1-0.2,0.4-0.2,0.6c-0.1,2.3-0.3,4.5-0.4,6.8c0,0.5,0.1,1,0.1,1.5c0,0.5,0.2,1.1,0.1,1.6
		c-0.2,0.9-0.3,1.7,0.1,2.6c0.2,0.4,0,0.8,0,1.3c-0.3,0-0.5-0.1-0.6,0c-0.9,0.7-1.8,1.4-2.6,2.2c-1,1-2.1,1.7-3.5,2
		c-1.2,0.3-1.4,0.8-1.3,2c0.1,1.2,0.1,2.4,0,3.5c-0.1,0.7-0.3,1.5-0.5,2.2c-0.1,0.4-0.1,0.7-0.1,1.1c0,0.7,0.2,1.4,0,2
		c-0.3,0.7-0.2,1.3-0.2,2.1c0,2.5-0.1,5.1-0.3,7.6c-0.2,2.2-0.6,4.3-0.7,6.5c-0.1,1.8,0,3.6,1.7,4.8c0.3,0.2,0.6,0.7,0.8,1
		c0.2,0.4,0.3,0.9,0.6,1.2c0.4,0.5,0.9,0.8,1.4,1.3c1.3,1.2,2.7,2.4,4,3.6c0.3,0.3,0.5,0.7,0.7,1.1c0.1,0.2,0.3,0.5,0.5,0.5
		c1.4,0.2,2,1.5,2.9,2.3c0.2,0.2,0.2,0.9,0.2,1.3c-0.1,0.9-0.4,1.8-0.5,2.7c-0.2,1.1-0.6,1.5-1.7,1.5c-1.2-0.1-2.4-0.1-3.6-0.2
		c-0.7,0-1.4,0-2.1-0.1c-1.1-0.2-2.1-0.5-3.2-0.6c-0.8-0.1-1.6,0-2.3-0.1c-0.8-0.2-1.4-0.6-2.3-0.4c-0.4,0.1-0.9-0.3-1.4-0.5
		c-0.3-0.1-0.6-0.4-0.9-0.3c-1.2,0.4-2.2-0.3-3.3-0.4c-1-0.1-1.9-0.5-2.9-0.5c-1.8-0.1-2.8-1.3-2.5-3c0-0.1,0.1-0.3,0-0.4
		c-0.7-1.2-0.1-2.4-0.2-3.7c-0.1-0.9,0.1-1.7,0.7-2.4c0.1-0.1,0.2-0.3,0.2-0.5c0.1-1.6,0.2-3.3,0.3-4.9c0-0.1,0-0.1,0-0.2
		c-0.3-1.9-0.6-3.9-1-5.8c-0.3-1.8-0.6-3.6-1-5.4c-0.3-1.5-0.6-2.9-0.9-4.4c-0.1-0.4,0.1-0.9,0.1-1.4c-0.2-1.8-0.5-3.7-0.8-5.5
		c0-0.1-0.1-0.3-0.1-0.4c-1-1-0.6-2.4-0.7-3.6c0-1,0.1-1.8-0.6-2.7c-0.3-0.4-0.1-1.1-0.2-1.6c0-0.2,0.2-0.4,0.1-0.6
		c-0.4-0.8-0.8-1.6-1.3-2.5c-0.9,0.4-1.9,0.8-2.8,1.1c-1.4,0.3-2.8,0.6-4.1,0.7c-0.6,0.1-1.3-0.2-2-0.1c-0.8,0.1-1.6,0.1-2.4-0.4
		c-0.4-0.2-0.9-0.4-1.3-0.4c-1.5,0.2-2.7-0.7-3.7-1.6c-1.3-1.3-2.9-2.4-3.8-4.1c-0.5-1-1-1.9-1.4-2.8c-0.3-0.6-0.5-1.1-0.8-2
		c-0.6,0.5-1.2,0.8-1.7,1.2c-0.2,0.2-0.5,0.4-0.7,0.5c-1,0.5-2,0.9-3,1.4c-0.5,0.3-1.1,0.6-1.6,0.8c-1.4,0.5-2.7,0-4-0.3
		c-0.6-0.1-1.3-0.1-1.9-0.1c-0.5,0-1,0-1.3-0.2c-0.7-0.4-1.5-0.8-2.1-1.3c-1.1-0.9-2.2-2-3.3-3c-0.3,0.3-0.6,0.7-1.1,0.9
		c-1.7,0.7-3.1,2.3-5,2.7c-0.1,0-0.2,0.2-0.3,0.3c-0.8,0.6-1.6,1.3-2.4,1.9c-0.4,0.2-1,0.3-1.5,0.2c-0.7,0-1.5-0.4-2.1-0.2
		c-1.3,0.4-2.4-0.2-3.4-0.7c-0.8-0.4-1.5-0.9-2.4-1.1c-1.8-0.6-3.6-1.4-5.4-2.2c-0.2-0.1-0.4-0.1-0.7-0.2c-0.6-0.1-1.1-0.2-1.7-0.4
		c-1.1-0.5-2.2-1-3.4-1.5c-1-0.4-2.3-0.4-2.9-1.6c0-0.1-0.2-0.1-0.3-0.1c-1.2-0.3-2.3-0.7-3.5-1.1c-0.6-0.2-1.1-0.6-1.7-0.8
		c-1.6-0.7-3.2-1.4-4.8-2.1c-0.1,0-0.2-0.1-0.3-0.2c-1-1-1.7-1.1-2.9-0.5c-1.1,0.5-2.2,0.7-3,1.7c-0.2,0.3-0.7,0.3-1.1,0.4
		c-0.2,0.1-0.5,0.2-0.7,0.3c-0.4,0.3-0.7,0.6-1.1,0.8c-1.2,0.7-2.4,1.4-3.6,2.1c-0.5,0.3-1.1,0.6-1.6,1c-1.7,1.4-3.4,2.3-5.6,1.5
		c-2.6-1-2.8-2.9-1.6-4.9c0.5-0.9,0.8-1.8,1.2-2.7c0.5-1.3,0.6-2.8,1.8-3.7c0.1-0.1,0.1-0.3,0.2-0.5c0.1-0.6,0.2-1.3,0.4-1.8
		c0.7-1.5,1.6-2.9,2.4-4.3c1.3-2.4,2.7-4.6,4.6-6.6c0.4-0.4,1.1-0.7,1.6-0.7c0.6,0,1,0.5,1.3,1.2c0.1,0.3,0.4,0.6,0.7,0.6
		c2.6,0.2,4.7,1.8,7,2.8c1.5,0.6,2.9,1.3,4.5,1.2c0.3,0,0.6,0,0.9,0.1c1.7,0.4,3.4,1.1,5.2,0.8c0.2,0,0.5,0.1,0.7,0.2
		c0.4,0.1,0.9,0.4,1.3,0.4c1.7,0.2,3.4,0.3,4.9,0.4c0.9-1.3,1.7-2.6,2.5-3.9c0.2-0.3,0.7-0.4,0.8-0.7c0.4-0.8,0.6-1.7,0.9-2.5
		c0.5-1.2,0.6-2.5,1.6-3.4c0.6-0.5,1-1.1,1.1-1.9c0.2-0.8,0.5-1.6,1-2.2c0.5-0.6,1.1-1,1.3-1.8c0.2-0.6,0.3-1.3,0.6-1.9
		c0.7-1.4,1.6-2.7,2.3-4.1c0.4-0.8,0.8-1.5,1.3-2.3c0.4-0.6,0.8-1.1,1.2-1.6c0.1-0.2,0.3-0.5,0.3-0.7c-0.1-1.5,1.1-2.5,1.6-3.7
		c0.1-0.2,0.4-0.4,0.6-0.4c0.9-0.2,0.9-0.9,0.9-1.6c0-0.6,0.3-1.2,0.5-1.8c0.1-0.2,0.3-0.3,0.3-0.5c0.1-2,2.2-3,2.5-4.9
		c0-0.2,0.3-0.3,0.5-0.5c0.4-0.7,0.8-1.5,1.2-2.2c0.4-0.7,0.6-1.5,1.1-2c0.8-0.7,1.1-1.6,1.5-2.6c0.2-0.5,0.3-1.1,0.7-1.4
		c1.1-0.8,1-2.2,1.8-3.2c0.7-0.7,0.7-2.2,1.4-2.7c1.3-0.7,0.6-1.9,1.1-2.7c0.1-0.1,0.2-0.2,0.2-0.4c0.3-0.6,0.5-1.3,0.9-1.7
		c1-0.9,1-2.1,1.5-3.2c0.3-0.7,0.8-1.3,1.2-2c0.6-1.2,1.1-2.5,1.9-3.5c0.6-0.9,1.5-1.4,1.5-2.7c0-0.5,0.7-0.9,1.2-1.5
		c-0.5,0.3-0.9,0.5-1.4,0.7c-1.2,0.6-2,1.7-3.4,2c-0.4,0.1-1,0.1-1.2,0.4c-0.8,1.2-2.1,1.5-3.2,2.2c-0.5,0.3-1.2,0.4-1.9,0.4
		c-0.7,0.1-1.3,0.2-1.8,0.9c-0.4,0.6-1,1.1-1.6,1.4c-1.4,0.8-2.8,1.4-4.2,2.1c-0.7,0.3-1.4,0.7-2.1,0.8c-1.4,0.3-2.8,0.5-4.2,0.7
		c-0.1,0-0.3,0.2-0.4,0.3c-0.7,1.3-1.5,2.6-2.2,3.9c0,0.1,0,0.2-0.1,0.3c-0.4,0.8-0.7,1.7-1.1,2.5c-0.1,0.3-0.2,0.5-0.4,0.8
		c-0.5,0.7-0.9,1.5-1.5,2.1c-0.6,0.7-1.4,0.7-2.2,0.3c-0.8-0.4-1.6-0.9-2.4-1.4c0,0.1,0,0.1,0,0.2c-0.7,0-1.4,0.2-2,0
		c-1-0.3-1.5-2.2-1.1-3.2c0.3-0.6,0.6-1.3,0.9-1.9c0.3-1,0.5-2,0.8-3.1c-0.4,0.1-0.7,0.1-1.1,0.3c-1.3,0.6-2.6,0.4-3.9,0.2
		c-1.6-0.2-3.1-0.8-4.7-1.2c-1.5-0.3-3-1-4.3-1.7c-0.9-0.5-1.8-1.1-2.8-1.4c-1.1-0.4-1.9-0.9-2.3-2c-0.4-1,0.3-1.7,1.1-2.3
		c-0.1-0.1-0.2-0.2-0.3-0.3c-0.6-0.5-0.9-1.1-0.7-1.8c0.3-0.8,0.9-1,1.7-1c0.1,0,0.3,0,0.4,0c1.3-0.4,2.6,0.1,3.9-0.4
		c0.8-0.4,1.9-0.3,2.8-0.4c1.1-0.1,2.2-0.2,3.3-0.4c1-0.2,2.1-0.2,2.8-0.8c1.1-0.9,2.2-1.4,3.5-1.9c0.8-0.3,1.7-0.6,1.9-1.8
		c0.1-0.9,0.9-1.4,1.9-1.4c0.3,0,0.7-0.1,0.9-0.2c1-0.7,2.3-0.8,2.9-2.1c0.2-0.4,0.8-0.5,1.2-0.8c0.2-0.1,0.5-0.2,0.7-0.3
		c1-0.5,1.9-1,2.9-1.4c0.2-0.1,0.5-0.3,0.7-0.5c0.7-0.6,1.3-1.2,2.1-1.8c0.8-0.5,1.6-0.9,2.5-1.4c0.9-0.5,1.9-1.1,2.8-1.6
		c0.4-0.3,0.9-0.5,1.3-0.8c0.5-0.5,1.1-0.8,1.8-0.7c0.5,0.1,0.6-0.1,0.9-0.5c0.7-1.1,1.4-2.2,2.8-2.5c0.2,0,0.4-0.2,0.6-0.3
		c1.1-0.7,2.6-1,3.2-2.4c1.5-0.2,2.2-1.4,3.1-2.4c0.1-0.1,0.2-0.2,0.3-0.2c1-0.5,1.9-0.9,2.9-1.4c0.2-0.1,0.4-0.2,0.5-0.4
		c1.2-1.7,3.3-2.4,4.9-3.7c0,0,0.1,0,0.2-0.1c1.5-0.9,3-1.6,4.5-2.6c1-0.7,1.9-1.6,2.9-2.4c0.8-0.6,1.7-1.1,2.5-1.7
		c1.1-0.8,2.1-1.6,3.1-2.4c0.5-0.4,1.1-0.6,1.6-0.9c0.2-0.1,0.5-0.2,0.7-0.4c1.1-0.9,2.1-1.8,3.2-2.7c0.1-0.1,0.3,0,0.4-0.1
		c0.5-0.3,1.2-0.5,1.4-1c0.5-1.2,1.3-1.7,2.4-2.2c0.3-0.1,0.5-0.3,0.7-0.5c1-0.8,2-1.6,3-2.4c1-0.8,2.1-1.5,3.1-2.3
		c1-0.9,2.3-1.5,3-2.6c0,0,0,0,0.1,0c1-0.4,2.1-0.8,2.5-1.9c0.1-0.1,0.3-0.2,0.4-0.3c0.7-0.5,1.3-1,2-1.4c0.5-0.3,1.1-0.4,1.6-0.7
		c0.3-0.1,0.6-0.3,0.7-0.6c0.4-0.9,0.9-1.2,1.9-1.3c2-0.1,3.9-0.4,5.7-1.4c0.6-0.3,1.2-0.7,1.9-0.8c2.2-0.5,4.5-0.8,6.7-1.3
		c0.8-0.2,1.7-0.5,2.5-0.7c0.9-0.2,1.8-0.4,2.7-0.6c0.4-0.1,0.8-0.1,1.4-0.2c-0.4-0.5-0.7-0.8-0.9-1.1c-0.8-1-1.5-2-1.1-3.3
		c0.4-1.2,0.3-2.3-0.7-3.2c-0.8,0.1-1.5,0.3-2.2,0.4c-0.7,0.1-1.5,0-2.2,0c-0.7,0-1.8-0.1-2.1,0.3c-0.8,1-1.7,1.5-2.9,1.8
		c-0.6,0.2-1.1,0.6-1.6,0.9c-0.8,0.4-1.6,0.1-2.4,0c-0.8-0.1-1.6,0.4-2.5,0.6c-0.3,0.1-0.6-0.1-0.9-0.1c-1-0.2-2-0.7-3.1-0.4
		c-0.2,0-0.4,0-0.6-0.1c-0.8-0.3-1.5-0.6-2.3-0.9c-0.9-0.4-2-0.6-2.7-1.2c-1.2-1-2.5-1.2-3.9-0.9c-0.9,0.2-1.8-0.1-2.5-0.6
		c-0.2-0.1-0.4-0.3-0.7-0.3c-1.2-0.3-2.5-0.5-3.6-0.9c-2.2-0.8-2.3-2.9-2.9-4.7c-0.4-1.1-0.3-2.3-0.7-3.4c-1-2.6-0.2-5.1,0.7-7.5
		c0.6-1.7,1.6-3.2,2.5-4.7c0.2-0.3,0.6-0.6,0.9-0.8c0.8-0.8,1.6-1.6,2.3-2.4c0.1-0.1,0-0.2,0.1-0.3c0.4-1.1,0.7-2.4,1.4-3.4
		c0.5-0.9,1.4-1.5,2.1-2.3c1.1-1.1,2.8-1.3,3.7-2.6c0.1-0.1,0.3-0.1,0.5-0.2c1.7-0.8,3.4-1.6,5.1-2.2c1-0.4,2-0.6,3.1-0.5
		c0.6,0,1.2,0.2,1.8,0c1-0.2,2-0.3,3.1-0.4c0.2,0,0.5,0,0.7,0.1c1.3,0.6,2.5,1.3,3.7,2c0.4,0.2,0.7,0.4,1.1,0.1
		c0.6-0.4,1.2-0.9,1.9-1.1c1.2-0.4,2.4-0.6,3.7-0.8c1.7-0.2,3.4-0.6,5.1,0.3c0.7,0.3,1.4,0.6,2,1c0.9,0.5,2.1,0.8,2.3,2.1
		c0,0.1,0.2,0.2,0.4,0.3c0.5,0.3,1,0.5,1.4,0.9c0.5,0.5,1,1.1,1.4,1.7c0.3,0.5,0.6,1.2,0.8,1.8c0.1,0.3,0,0.8,0.2,1
		c1.2,1.3,1.1,2.8,1,4.4c0,0.6-0.5,1.2,0.2,1.8c1.6-0.8,3.1-1.6,4.8-1.5c0.3-0.4,0.6-0.9,1-1c1-0.3,1.9-1,2.9-1.3
		c2-0.5,3.8-1.6,5.9-1.6c0.1,0,0.3-0.1,0.4-0.3c0.6-0.5,1.2-0.4,2-0.2c0.5,0.2,1.3,0.1,1.7-0.2c0.7-0.5,1.2-0.6,2-0.5
		c0.4,0.1,1,0.1,1.3-0.1c1.6-0.7,3.2-0.3,4.8-0.2c0.6,0,1.2,0.4,1.7,0.8c1.3,1.2,1.9,2.6,1.6,4.4c0,0.2,0.2,0.5,0.3,0.6
		c1.6,0.6,1.9,2.1,2.5,3.4c0.2,0.5,0.4,1,0.6,1.4c0.3,0.6,0.9,1.2,1,1.8c0.1,0.9,0.1,1.7,1,2.2c0.2,0.1,0.3,0.5,0.4,0.8
		c0.2,0.4,0.4,0.8,0.6,1.2c0.7,1.4,1.6,2.6,1.5,4.3c0,0.2,0.2,0.4,0.3,0.6c0.5,0.7,1,1.4,1.4,2.2c0.4,0.9,0.6,2,1,3
		c0.7,1.9,1.6,3.8,2.3,5.7c0.1,0.1,0,0.3,0.1,0.4c0.2,0.6,0.4,1.2,0.6,1.9c0.1,0.4,0.3,0.7,0.4,1.1c0.6,1.9,1.3,3.8,1.9,5.7
		c0.2,0.5,0.2,1,0.3,1.5c0.1,0.3,0.1,0.7,0.3,0.9c0.7,1,0.6,1.9-0.3,2.7c-0.2,0.2-0.5,0.4-0.6,0.6c-0.5,1.4-1.9,2.1-2.9,2.9
		c-1.2,1-2.8,1.4-4.2,2.2c-0.3,0.1-0.6,0.5-0.7,0.8c-0.4,1.6-1.3,2.9-2.4,4.1c-1,1.2-2.3,2.3-3.7,3.1c-1,0.6-2.1,0.9-3.1,1.6
		c-0.4,0.2-0.8,0.3-1.2,0.4c-0.6,0.1-1.2,0.2-1.7,0.4c-0.9,0.3-2,0.5-2.6,1.1c-0.7,0.7-1.1,1.8-1.6,2.8c-0.4,0.6-0.7,1.3-1.1,1.8
		c-0.7,0.9-1.7,0.9-2.6,0.2c-0.4-0.3-0.8-0.5-1.2-0.8c-0.9-0.6-1.9-1.2-3-1.9c-1.2,0.4-2.7,0.8-4.1,1.4c-0.9,0.4-1.7,0.8-2.7,0.2
		c-0.1-0.1-0.3,0-0.5,0c-1.8,0.4-3.5,0-5-0.7c-0.8-0.4-1.5-1.2-2.1-1.9c-0.6-0.6-1.1-1.3-1.7-2c-0.3-0.4-0.6-0.8-0.8-1.2
		c-0.1-0.2-0.2-0.5-0.3-0.8c-0.6-1.3-1.3-2.6-1.9-3.9c-0.6-1.2-1-2.5-1.6-3.7c-0.7,0.8-1.3,1.5-1.9,2.2c-0.1,0.1,0,0.4-0.1,0.6
		c-0.2,0.6-0.5,1.1-0.8,1.7c-0.2,0.5-0.4,1-0.5,1.5c0,0.7,0.1,1.4,0.2,2.1c0.2,0.5,0.4,1.2,0.6,1.8c0.1,0.5-0.1,1,0.1,1.5
		c0.5,1.1,0.1,1.9-0.4,2.8c-0.3,0.4-0.2,0.7,0,1.1c0.2,0.5,0.2,1.2,0.3,1.8c0,0.3,0,0.7,0.1,0.9c0.4,0.7,0.6,1.3,0.4,2.2
		c-0.1,0.5,0,1.2,0.2,1.7c0.4,0.8,0.5,1.5,0.2,2.3c-0.1,0.2,0,0.5,0.1,0.8c0,0.6,0,1.2,0,1.7c0,0.3-0.1,0.6,0,0.9
		c0.6,1.2,0.9,2.5,0.9,3.9c0,0.5,0,1,0.1,1.5c0.3,1.7-0.3,2.6-2,2.9c-0.4,0.1-0.8,0.1-1.2,0.1c-1.5,0-3.1,0-4.5,0c0,0.8,0,1.6,0,2.3
		c0.8,0.1,1.6,0.2,2.4,0.2c1.2,0,2.4-0.2,3.6-0.3c0.2,0,0.5-0.2,0.6-0.4c0.5-0.7,1-1.5,1.6-2.2c0.3-0.4,1-0.5,1.3-0.9
		c0.7-1.1,1.8-1.4,2.8-1.7c1.3-0.4,2.8-0.3,4.1-0.1c1.2,0.2,2.2-0.2,3.2-0.5c0.5-0.2,1-0.7,1.3-1.2c0.6-1.2,1.8-1.5,2.8-0.7
		c0.3,0.3,0.7,0.5,1.1,0.6c1.5,0.6,2.2,2.3,1.5,3.8c-0.3,0.6,0,1.2,0.6,1.1c0.8-0.1,1.5-0.5,2.2-0.8c0.3-0.1,0.5-0.5,0.9-0.6
		c1.3-0.5,2.6-1,4-1.6c-0.2-0.5-0.6-1-0.7-1.5c-0.1-0.6,0.1-1.2,0.1-1.5C175.2,90.9,174.8,90.2,175,89.7z M49.5,111.8
		c0.4,0.7,1,1.3,1.4,2c0.2,0.4,0.4,0.8,0.6,1.2c0.1,0.1,0.1,0.3,0.2,0.4c1.3,0.8,2,2,2.5,3.4c0.1,0.4,0.8,0.7,1.2,1
		c0.8-0.4,1.6-0.9,2.5-1.3c1.6-0.8,3.1-1.6,4.7-2.4c0.6-0.3,1.4-0.2,2-0.5c0.5-0.2,1.2-0.4,1.4-0.8c0.6-0.9,1.3-1.4,2.2-1.7
		c1-0.4,1.9-1.1,3.1-1.1c0.5,0,1-0.8,1.6-1.1c0.8-0.4,1.7-0.7,2.5-1.1c1.7-1,3.4-2.2,5.1-3.3c0.8-0.5,1.5-1,2.5-0.8
		c0.1,0,0.4,0,0.5-0.1c0.6-1.2,1.9-1.5,2.9-2.2c0.4-0.3,0.8-0.6,1.3-0.9c1.1-0.5,2.2-0.9,3.3-1.4c0.2-0.1,0.5-0.1,0.5-0.3
		c0.6-1.1,1.7-1.4,2.7-2c1.4-0.8,2.6-1.8,4-2.7c0.4-0.3,1-0.4,1.4-0.6c0.8-0.5,1.5-1.1,2.3-1.6c0.9-0.5,1.9-1,2.9-1.3
		c0.6-0.2,1.2,0.5,0.9,1c-0.3,0.6-0.6,1.3-1.2,1.8c-0.8,0.7-1.7,1.2-2.6,1.8c-0.3,0.2-0.6,0.6-1,0.8c-1.2,1.1-2.5,2.2-4.1,2.7
		c-0.6,0.2-1.1,0.7-1.7,1c-0.8,0.4-1.6,0.7-2.4,1.1c-0.5,0.3-1,0.6-1.5,1c-0.6,0.5-1.2,1-1.8,1.4c-0.9,0.6-1.9,1.1-2.8,1.6
		c-0.7,0.3-1.4,0.5-2.3,0.9c-0.2,0.9-1,1.3-1.8,1.9c-0.4,0.3-0.7,0.8-1,1.2c-0.1,0.1,0,0.3-0.1,0.3c-1.3,1.1-0.8,3.2-2.5,4.1
		c-0.1,0.1-0.2,0.3-0.2,0.5c0.2,1.1-0.4,1.9-0.8,2.9c-0.7,1.4-1.2,2.8-2,4.2c-0.5,1-1.5,1.8-1.6,3.2c0,0.6-0.4,1.2-0.8,1.8
		c-0.3,0.5-0.8,1-1.2,1.4c-0.2,0.2-0.5,0.5-0.4,0.6c0.3,1.3-0.6,2.1-1.1,3.1c-0.2,0.4-0.4,0.8-0.6,1.2c-0.1,0.2-0.1,0.4-0.2,0.5
		c-1.4,1.3-1.4,3.6-3.1,4.7c-0.2,0.1-0.2,0.5-0.2,0.7c-0.2,1-0.6,2-1.4,2.8c-0.5,0.6-0.8,1.3-1.2,2c-0.1,0.2-0.1,0.5-0.2,0.7
		c-1.4,1.3-1.2,3.5-2.7,4.7c-0.1,0.1-0.2,0.3-0.2,0.5c-0.2,0.7-0.6,1.2-1.2,1.6c-0.6,0.3-1.1,0.7-0.8,1.6c0.1,0.2,0.1,0.4,0,0.6
		c-0.6,1.2-0.8,2.7-2.1,3.6c-0.2,0.1-0.3,0.4-0.4,0.6c-0.2,0.6-0.4,1.3-0.7,2c-0.4,0.8-0.8,1.6-1.2,2.3c-0.7,1.4-1.4,2.8-2.1,4.2
		c-0.1,0.2-0.3,0.4-0.5,0.6c-0.9,0.7-1.2,1.6-1.4,2.6c-0.2,0.9-0.7,1.7-1.4,2.4c-0.6,0.7-0.9,1.4-1,2.2c-0.2,1.4-1.3,2.2-2,3.2
		c-0.8,1-1.8,1.9-1.7,3.4c2,0.7,1.7,2.5,2,4.1c0.3,1.7,0.6,3.3,2.2,4.4c0.7,0.4,1.2,1.1,1.8,1.6c0.2,0.1,0.5,0.2,0.7,0.2
		c2.1,0,4.1-0.1,6.2-0.2c0.5,0,1-0.4,1.5-0.6c0.9-0.4,1.7-0.8,2.5-1.3c1.1-0.7,2.3-0.5,3,0.6c0.4,0.6,0.5,1.3,0.8,2
		c0.1,0.3,0.2,0.6,0.4,0.8c0.6,0.7,1.1,1.4,0.9,2.5c0,0.1,0,0.4,0.1,0.5c1.3,1.4,2.5,2.8,3.9,4.2c0.2,0.3,0.6,0.4,1,0.5
		c0.3,0.2,0.6,0.3,0.9,0.5c0.8,0.8,1.2,0.8,2.3,0.3c0.9-0.4,1.8-0.5,2.7-0.8c1-0.4,2-0.8,3.1-1.2c0.1,0,0.1-0.1,0.2-0.1
		c1.6-0.3,2.8-1.3,4.2-2c1.1-0.5,2.1-0.2,2.6,1c0.6,1.3,1,2.6,1.5,3.9c0.2,0.5,0.5,1,0.9,1.5c1,1.6,2.5,2.7,4.1,3.7
		c1.1,0.7,2.1,1.1,3.4,1.3c1.4,0.2,2.5-0.2,3.8-0.4c0.3,0,0.6-0.1,0.9-0.2c1-0.2,1.9-0.4,2.8-0.9c1.3-0.6,1.8-1.8,2.8-2.7
		c0.6-0.5,1-1.3,1.6-2c0.6-0.8,1.2-0.9,2-0.4c1.1,0.6,1.9,1.4,2.3,2.6c0.1,0.2,0.2,0.4,0.4,0.6c0.9,0.9,1.8,1.9,2.8,2.8
		c0.7,0.6,1.5,1,2.3,1.4c1.5,0.6,2.9,1.5,4.7,1.3c0.1,0,0.2,0,0.3,0c1,0.2,2,0.9,3.1,0.1c0.9-0.6,2.1-0.7,3.1-1.2
		c0.7-0.3,1.2-0.9,1.8-1.4c0.5-0.4,1-0.9,1.3-1.2c-0.1-1.1-0.1-2.1-0.2-3.1c0-0.6-0.1-1.2-0.2-1.8c0-0.9-0.1-1.9,0-2.8
		c0.2-1.3,0.5-2.6,0.7-3.9c0-0.2,0-0.4-0.1-0.6c-0.5-0.8-0.4-1.6-0.2-2.4c0.3-1.1,0.6-2.1,0.8-3.2c0-0.2,0-0.4,0-0.6
		c0-0.2-0.2-0.3-0.1-0.5c0.1-1.2,0.1-2.3,0.3-3.5c0.1-0.8,0.4-1.5,0.1-2.3c-0.3-0.9-0.2-1.7,0.4-2.5c0.2-0.3,0.1-0.9,0.1-1.3
		c0-0.7,0-1.4-0.1-2c0-0.1,0.1-0.3,0-0.4c-0.6-1.6,0-3,0.5-4.5c0.1-0.2,0.2-0.4,0.1-0.6c-0.2-0.9-0.5-1.9-0.6-2.8
		c-0.1-0.6,0.1-1.2,0.2-1.8c0-0.3,0.3-0.5,0.3-0.7c0-1.2-0.1-2.4-0.1-3.5c0-1,0.2-2,0.3-2.9c0.1-0.8,0.2-1.7,0.1-2.5
		c-0.2-1-0.2-2,0.6-2.8c0.1-0.2,0.2-0.5,0.1-0.7c-1-1.6-0.3-3.1,0-4.6c0.2-1,0.3-1.9,0.2-3c-0.1-1.1,0.2-2.3,0.3-3.5
		c0-0.4,0.1-0.8,0.1-1.1c0-0.8-0.1-1.5-0.1-2.3c0-0.7,0-1.3,0-2c0.2-1.5,0.4-3,0.6-4.4c0-0.1,0.1-0.3,0-0.4
		c-0.4-0.9-0.3-1.7,0.3-2.5c0.1-0.1,0-0.3,0-0.4c0-1.7-0.1-3.3,0-5c0-1.4,0.7-2.8,0.1-4.3c-0.1-0.2,0-0.4,0-0.6
		c0.5-2.7,0.2-5.5,0.3-8.2c0-0.7,0.2-1.3,0.1-2c0-1-0.2-2.1-0.2-3.1c0.1-2.8,0.4-5.5,0.6-8.4c-0.3-0.1-0.7-0.2-1.1-0.2
		c-1.7-0.1-2.2-0.8-1.9-2.5c0-0.2-0.4-0.8-0.7-0.8c-0.9,0-1.5-0.4-2.2-0.9c-0.6-0.4-1.3-0.7-1.9-1.1c-1-0.5-1.3-1.5-0.9-2.5
		c0.1-0.2,0.1-0.6,0.2-0.8c0.2-0.4,0.3-1,0.6-1.3c0.9-0.7,1.2-1.7,1.7-2.7c0.5-1,1.3-1.8,1.9-2.7c0.2-0.2,0.3-0.5,0.5-0.8
		c0.7-0.9,1.4-1.8,2-2.7c0.4-0.5,0.8-1,0.9-1.6c0.2-1.6,0.2-3.2,0.2-4.8c0-0.2-0.2-0.5-0.3-0.6c-0.8-0.4-1.8-0.6-2.5-1.2
		c-1.1-1-2.8-1.3-3.4-3c-0.3-0.8-1.4-1.3-2.1-2c-0.3-0.3-0.8-0.6-1-0.9c-1.1-1.9-2.2-3.9-3.1-5.9c-0.7-1.5-1.5-3.1-1-4.9
		c-0.1-0.1-0.1-0.1-0.2-0.2c-0.4,0.3-0.8,0.5-1.1,0.8c-0.7,1-1.8,1.5-2.9,2c-0.4,0.2-0.8,0.6-1,0.9c-0.5,0.9-1.1,1.5-2.1,1.8
		c-0.1,0-0.3,0.1-0.4,0.2c-0.8,1.7-2.7,2.3-3.9,3.6c-0.7,0.8-1.6,1.6-2.5,2.2c-1,0.7-1.9,1.4-2.7,2.3c-0.3,0.3-0.8,0.6-1.2,0.6
		c-0.9,0.1-1.4,0.7-1.8,1.3c-0.1,0.1-0.1,0.3-0.2,0.4c-1.1,0.8-2.3,1.6-3.4,2.4c-0.2,0.1-0.4,0.4-0.6,0.5c-0.4,0.4-0.8,0.9-1.3,1.2
		c-1.1,0.8-2.2,1.6-3.3,2.4c-0.1,0.1-0.1,0.1-0.2,0.2c-1.2,0.8-2.4,1.6-3.6,2.4c-0.9,0.6-1.7,1.2-2.5,1.8c-0.1,0.1-0.3,0.3-0.4,0.3
		c-1.4,0.4-2.2,1.7-3.4,2.5c-1.4,1-2.7,2.1-4.2,2.7c-1.3,0.5-2.1,1.5-3.1,2.2c-0.8,0.5-1.5,1.1-2.4,1.2c-0.4,0.1-0.8,0.4-1.1,0.7
		c-0.5,0.6-1,1.1-1.8,1.1c-0.2,0-0.5,0.1-0.6,0.3c-0.8,0.7-1.7,1.4-2.3,2.2c-0.8,1.2-2,1.4-3.3,1.6c-0.5,0.1-0.7,0.2-0.9,0.6
		c-0.2,0.5-0.7,0.9-1.2,1.3c-0.5,0.4-1,0.7-1.5,1.1c-0.9,0.6-1.7,1.1-2.6,1.7c-0.8,0.5-1.6,1.1-2.5,1.6c-0.8,0.4-1.7,0.7-2.5,1
		c-0.2,0.1-0.4,0.2-0.6,0.3c-1,0.7-2,1.3-2.9,2c-0.2,0.1-0.3,0.3-0.5,0.4c-0.5,0.3-1,0.7-1.4,0.7c-1.5-0.2-2.2,1.1-3.3,1.3
		C48.1,109.2,48.8,110.5,49.5,111.8z M158.9,18.7c-1.1,0.3-1.7,1.1-2.5,1.7c-0.4,0.3-0.9,0.6-1.4,0.9c-0.1,0.1-0.3,0.1-0.5,0.2
		c-0.6,0.7-1.2,1.3-1.9,2c0,0-0.1,0.1-0.1,0.1c-1.3,0.3-1.2,1.5-1.8,2.3c-1.1,1.4-1.4,3-1.9,4.6c-0.4,1.1-0.8,2.2-1,3.3
		c-0.2,0.9,0,1.8,0,2.8c0,0.3,0,0.6-0.2,0.8c-0.6,0.8-0.3,1.5,0.3,2.1c0.9,1,1,2.2,0.7,3.5c-0.1,0.3,0,0.6,0,0.9
		c1.1-0.3,2.1-0.8,2.3-2.1c0-0.1,0.1-0.3,0.1-0.3c-0.7-1.4,0.3-2.6,0.8-3.7c0.7-1.3,1.7-2.5,3.2-3.1c0.9-0.3,1.6-0.8,2.5-1.1
		c0.6-0.2,1.3-0.1,2-0.1c0.7,0,1.4,0.2,2.1,0.3c1.7,0.3,2.8,1.4,3.5,2.9c0.3,0.6,0.4,1.4,0.7,2c0.2,0.3,0.9,0.5,1.3,0.4
		c2.1-0.7,4.3-1,6.5-0.7c0.4,0,0.8,0.5,0.9,0.9c0.4,1.6,0.4,3.2-0.1,4.8c-0.1,0.3,0,0.6,0,0.9c0.1,0.8,0.3,1.7,0.4,2.5
		c0.2,0.9,1,1,1.7,1.1c1.3,0.1,2.5,0.1,3.7-0.5c0.7-0.3,1.5-0.5,2.3-0.6c0.7-0.1,1.1-0.6,1.3-1.3c0.3-1,0.8-1.5,1.7-1.5
		c0.7,0,1.2,0.3,1.5,1c0.3,0.8,0,1.4-0.7,2.1c-0.4,0.4-0.6,1.1-0.9,1.7c-0.2,0.5-0.4,1.1-0.6,1.7c-0.1,0.2-0.1,0.3-0.1,0.5
		c0.2,1.6,0.3,3.2,0.5,4.8c0,0.1,0,0.3,0.1,0.3c0.8,0.7,1.6,1.4,2.4,2c0.1,0.1,0.2,0.1,0.3,0.1c1.3,0.1,2.6,0.1,3.9,0.2
		c0.1,0,0.3,0,0.4-0.1c1.3-1.2,3-1.6,4.6-2.3c1.8-0.8,3-2,4.1-3.5c0.1-0.2,0-0.6-0.2-0.9c-0.2-0.5-0.6-1-0.8-1.5
		c-0.9-1.8-0.8-4-2.1-5.7c-0.2-0.3-0.2-0.7-0.3-1c-0.2-0.6-0.5-1.2-0.7-1.7c-0.1-0.3-0.3-0.6-0.4-1c-0.2-0.5-0.3-1.1-0.5-1.6
		c-0.3-0.7-0.6-1.4-0.9-2.2c-0.6-1.3-1.2-2.7-1.8-4c-0.3-0.8-0.5-1.7-0.7-2.5c-0.1-0.2-0.1-0.5-0.2-0.6c-1.2-1-1.5-2.5-2.2-3.8
		c-0.2-0.5-0.4-0.9-0.7-1.4c-0.1-0.2-0.3-0.4-0.3-0.5c0.2-1.2-0.5-1.9-1.3-2.6c-0.2-0.2-0.3-0.7-0.4-1c-0.2-0.8-0.6-1.4-1-2.1
		c-0.7-1.1-1.6-2.3-1.1-3.9c0.1-0.2-0.1-0.6-0.3-0.7c-1-0.7-1.9-1.6-2.1-2.9c0-0.2-0.3-0.5-0.5-0.5c-0.6-0.1-1.2,0-1.8,0
		c-0.4,0-0.8,0.1-1.1,0c-0.7-0.3-1.3,0-2,0.2c-0.4,0.2-0.9,0.3-1.3,0.2c-0.9-0.3-1.6-0.2-2.3,0.5c-0.2,0.2-0.5,0.4-0.8,0.4
		c-1.5,0-2.7,0.8-4.1,1c-0.7,0.1-1.4,0.6-2.2,0.9c-1,0.4-2.1,0.4-3,1.2c-0.3,0.2-0.9,0.1-1.3,0.1C161.8,17.2,160.5,18.3,158.9,18.7z
		 M113.4,29.1c0-2.6,3.2-4.2,5.5-3c0.6,0.3,1.3,0.5,2,0.7c1.2,0.2,1.6,0.7,1.9,1.8c0.2,0.9,0.4,1.8-0.2,2.6c-0.1,0.2,0,0.6-0.1,0.8
		c-0.1,0.4-0.3,0.8-0.5,1.2c-0.5,0.7-1.1,1.3-1.8,2c1.2,0.6,2.2,1.2,3.2,1.7c0.4,0.2,1,0,1.3,0.2c1.7,1.3,3.7,0.2,5.5,0.9
		c0.1,0,0.3-0.1,0.5-0.1c0.9-0.3,1.8-0.7,2.6-1.1c0.4-0.2,0.8-0.4,1.2-0.7c-0.3-0.5-0.5-0.8-0.7-1.1c-1.1-1.9-1.1-3.6,0-5.6
		c0.5-0.9,0.9-1.7,2.1-1.8c0.1,0,0.3-0.3,0.4-0.4c0.8-1,2.7-1.2,3.7-0.5c0.2,0.2,0.5,0.3,0.8,0.4c1.3,0.4,1.8,1.4,2.1,2.5
		c0.2,0.6,0.3,1.3,0.3,2c0,0.5-0.3,1-0.5,1.4c-0.1,0.3-0.4,0.5-0.6,0.7c0,0.1,0.1,0.2,0.1,0.3c0.8-0.2,1.6-0.3,2.4-0.5
		c0.1,0,0.2-0.4,0.2-0.7c0.1-2.2,0.4-4.3,1.9-6c0.4-0.4,0.5-1,0.8-1.5c0.2-0.3,0.3-0.7,0.5-1c0.8-0.9,1.7-1.6,2.2-2.8
		c0.4-0.8,1-2.1,2.3-2.3c0.1,0,0.2-0.2,0.3-0.4c0.1-0.1,0.1-0.3,0.2-0.4c0.9-0.8,1.6-1.6,1.4-3c-0.1-0.5,0.1-1,0-1.5
		c-0.2-1.2-0.6-2.4-0.8-3.6c0-0.1-0.1-0.3-0.1-0.4c-0.8-1.1-1.7-2.1-2.5-3.2c-0.1-0.1-0.2-0.3-0.3-0.4c-0.1-0.5-0.5-0.5-0.9-0.7
		c-0.7-0.2-1.3-0.8-2-1.1c-1.8-0.6-3.7-1.4-5.7-0.6c-1.1,0.4-2.2,0.7-3.3,1c-0.6,0.2-0.8,0.9-0.3,1.7c0.6,1,0.4,2.1,0.4,3.1
		c0,0.3,0,0.5,0,0.8c0,0.6,0.2,1.5-0.1,1.9c-0.7,0.9-1.6,1.5-2.5,2.3c-0.1,0.1-0.3,0.1-0.4,0.1c-0.7,0-1.3-0.1-2-0.2
		c-1.7,0-2.2-1.5-3-2.6c-0.3-0.4-0.4-0.8-0.6-1.2c-0.1-0.2-0.2-0.4-0.3-0.6c-0.3-1.2,1.1-3.8,2.2-4.3c0.5-0.3,0.9-0.8,1.3-1.2
		c-0.5-0.3-1-0.7-1.5-0.9c-0.6-0.3-1.2-0.5-1.8-0.6c-1-0.1-2-0.4-2.9,0.4c-0.6,0.5-1.5,0.6-2.2,0.9c-1.6,0.7-3.3,1.5-4.9,2.2
		c-0.4,0.2-0.9,0.3-1.3,0.5c-0.2,0.1-0.4,0.1-0.5,0.2c-0.5,0.5-1.1,1.1-1.6,1.6c-0.7,0.7-1.3,1.4-2.1,2.3c0.5,0.1,0.8,0.2,1,0.2
		c1.5-0.1,2.6,0.8,3.7,1.4c0.5,0.3,0.8,0.9,1,1.5c0.7,1.5,0,3.8-1.4,4.7c-0.3,0.2-0.5,0.5-0.8,0.7c-0.9,1.1-2,1.5-3.2,0.9
		c-1.4-0.7-2.8-1.6-3.3-3.3c-0.1-0.4-0.4-0.7-0.5-1.1c-0.1,0-0.2,0-0.3-0.1c-1,2.1-2.1,4.2-2.9,6.3c-0.4,1-0.4,2.2-0.5,3.3
		c-0.1,1.1-0.4,2.3-0.2,3.4c0.1,0.9,0.8,1.7,1.3,2.4c0.2,0.3,0.7,0.5,0.8,0.8c0.5,1.1,1.6,1.6,2.6,1.9c0.5,0.2,1.3-0.2,2.1-0.3
		C112.9,32.5,113.5,30.7,113.4,29.1z M145.3,63.1c0.2-0.3,0.5-0.7,0.5-1.1c0.3-1.7,1.6-2.4,2.8-3.4c0.2-0.2,0.6-0.3,0.8-0.4
		c1.3-0.8,2.3-0.6,3.3,0.7c0.6,0.7,1,1.5,1.2,2.4c0.5,2,1.3,3.7,2.3,5.5c0.6,1.1,1,2.2,1.6,3.2c0.2,0.3,0.4,0.6,0.7,0.8
		c0.8,0.6,1.5,1.3,2.3,1.8c0.9,0.5,1.9,1,2.9,1c1.1,0,2.1-0.5,3.2-0.8c-0.2-0.6-0.5-1.4-0.6-2.1c-0.1-1,0-2.1,0.2-3.2
		c0.2-0.9,0.5-1.7,1.3-2.3c0.2-0.1,0.3-0.5,0.4-0.8c0.4-0.9,1.5-1.2,2.4-0.7c0.8,0.5,0.9,1.5,0.6,2.4c-0.7,1.6-1.2,3.2-1.7,4.8
		c-0.1,0.4,0.2,1,0.8,0.9c1.3-0.3,2.3,0.5,3.4,1c0.7,0.3,1.4,0.7,2.2,1.1c0.5-1.2,1-2.1,1.4-3.1c0.3-0.9,0.8-1.6,1.8-1.8
		c0.7-0.1,1.4-0.3,2.1-0.5c0.4-0.1,0.7-0.2,1.1-0.4c0.3-0.1,0.5-0.3,0.8-0.4c1.5-0.2,2.8-0.8,4.2-1.5c1.3-0.7,2.6-1.5,3.7-2.6
		c0.4-0.3,0.6-0.8,1.1-1.4c-0.9,0.2-1.6,0.4-2.2,0.5c-0.8,0.2-1.6,0-2.3-0.6c-0.2-0.2-0.5-0.2-0.8-0.2c0,0-0.1,0-0.1,0
		c-1.4,0.1-3.6-2-3.6-3.4c0-0.2-0.2-0.5-0.4-0.7c-0.6-0.5-0.9-1.2-1-2.1c-0.1-1.5-0.1-3,1-4.3c0.2-0.2,0.1-0.7,0.1-1
		c-1.5,0.6-2.9,1.2-4.4,1.8c-1.7,0.7-4.4-0.3-5.4-2c-0.3-0.5-0.6-0.9-0.9-1.3c-1-1.1-0.9-2.4-0.8-3.8c0.1-1,0-2,0-3.2
		c-0.2,0-0.5-0.1-0.7,0c-1.4,0.7-3,0.2-4.3,1c-0.2,0.1-0.3,0.3-0.4,0.4c-0.4,0.2-1,0.6-1.3,0.5c-0.4-0.1-0.7-0.7-0.8-1.1
		c-0.5-1.7-0.6-3.5-2-4.8c-0.7-0.7-1.4-1.3-2.5-0.8c-0.3,0.1-0.7,0.1-0.9,0.1c-0.9-0.3-1.4,0.3-2,0.8c-1.1,0.9-1.6,2.2-1.9,3.5
		c0,0.1-0.1,0.2-0.1,0.2c0.6,1.1,0,2.2-0.1,3.2c0,0.9-0.7,1.5-1.6,1.3c-1.2-0.2-2.3,0.4-3.4,0.7c-0.2,0.1-0.4,0.3-0.6,0.3
		c-1.3-0.1-2.2,0.7-3.2,1.1c-0.5,0.2-1,0.2-1.5,0.3c-0.8,0.2-1.7,0.3-2.5,0.5c-1.2,0.2-2.4,0.5-3.5,0.7c0.2,0.8,0.3,1.6,0.5,2.3
		c0.3,0.8,0.6,1.6,0.9,2.3c0.5,1.2,0.9,2.4,1.4,3.6c0.6,1.5,0.9,3,2.1,4.2c0.2,0.2,0.2,0.5,0.4,0.8c0.3,0.5,0.6,1,0.9,1.4
		C144.6,64.1,145,63.6,145.3,63.1z M116.7,212.6c-2.6-1.4-4.5-3.5-6.2-5.9c-0.4,0.7-0.7,1.1-1,1.6c0.9,1.1,1.3,2.4,1,3.8
		c0,0.2,0.2,0.4,0.3,0.6c0.2,0.6,0.7,1.2,0.6,1.7c-0.2,0.8,0.1,1.5,0.3,2.2c0.3,0.8,0.6,1.6,0.9,2.4c0,0.1,0.1,0.2,0.1,0.3
		c-0.3,1.2,0.2,2.4,0.3,3.6c0,0.5,0.2,1.1,0.3,1.6c0.2,1.1,0.5,2.2,0.7,3.3c0.2,1.4,0.5,2.8,0.6,4.2c0.1,2,0.4,3.9,1,5.8
		c0.4,1.2,0.7,2.5,0.8,3.7c0.2,2.1,1.5,3.4,3.1,4.5c0.1,0.1,0.4,0.1,0.6,0c0.7-0.2,1.5-0.4,2.2-0.6c0.4-0.1,1-1.1,0.8-1.6
		c-0.3-1-0.5-2,0.1-3c0.1-0.2,0-0.6,0-0.8c0-0.2-0.1-0.4,0-0.6c0.8-1.6,0.3-3.3,0.4-4.9c0.2-2.6,0.4-5.2,0.7-7.7
		c0.1-0.7,0.4-1.4,0-2.1c-0.1-0.2-0.1-0.5,0-0.7c1-2.4,0-4.9,0.7-7.4c0.2-0.7,0.3-1.4,0.5-2C122.1,214.8,119.3,214,116.7,212.6z
		 M62.9,195.5c-0.3-0.6-0.2-1.4-0.3-2.2c-0.7,0.2-1.3,0.3-1.9,0.5c-1.5,0.4-3,1-4.6,1.3c-1.9,0.4-3.8,0.5-5.6-0.6
		c-0.2-0.1-0.5-0.1-0.7-0.2c-1.1-0.5-2.4-0.7-3.3-1.5c-0.8-0.7-1.3-1.9-1.9-3c-0.1-0.2-0.2-0.4-0.3-0.6c-0.2-0.5-0.6-0.9-0.7-1.5
		c-0.1-0.7-0.4-0.8-1-0.8c-0.9,0.1-1.8-0.1-2.6-0.1c-0.8,0-1.7,0-2.5-0.1c-1.1-0.1-2.1-0.4-3.2-0.5c-0.5-0.1-1.1,0-1.6,0
		c-0.2,0-0.5,0.1-0.7,0c-2.4-1-5-0.4-7.4-1.1c-1.8-0.5-2.8-0.2-3.4,1.6c-0.2,0.6-0.8,1-0.3,1.7c0.7,0.9,0.8,2.3,2.4,2.1
		c0.2,0,0.4,0,0.6,0.1c0.9,0.4,1.9,0.7,2.8,1.1c1.4,0.6,2.8,1.3,4.2,2c0.5,0.3,1,0.7,1.5,0.9c0.7,0.4,1.5,0.7,2.4,0.7
		c0.7,0,1.3,0.7,2,0.9c1.1,0.4,2.3,0.8,3.4,1.3c0.5,0.2,0.9,0.6,1.4,0.8c0.5,0.2,1,0.4,1.5,0.6c0.5,0.2,1,0.4,1.5,0.6
		c0.9,0.4,1.8,0.8,2.6,1.2c0.4,0.2,0.8,0.3,1,0.6c0.6,0.8,1.4,0.8,2.2,0.8c0.6,0,1.2,0.1,1.7,0.3c0.6,0.3,1,0.2,1.5,0
		c1-0.5,2-0.9,3.1-1.4c0.1,0,0.3-0.1,0.3-0.2c0.8-1.2,2.1-1.6,3.2-2.2c1.2-0.7,2.4-1.1,3.7-1.7C63.6,196.7,63.1,196.1,62.9,195.5z
		 M181.3,98.8c0.3,0.8,1,1.1,1.7,1.3c0.7,0.2,1.4,0.2,2.1,0.3c0.1,0,0.2,0,0.3,0c0.9-0.1,1.9-0.2,2.8-0.3c0.8-0.1,1.6-0.2,2.4-0.3
		c1.2-0.1,2.4-0.1,3.5-0.2c0.1,0,0.2,0,0.3-0.1c0.8-0.8,1.8-0.7,2.9-0.7c0.6,0,1.4-0.4,1.9-0.7c0.9-0.7,1.7-1.3,2.9-1.3
		c0.1,0,0.3,0,0.3-0.1c1-1,2.8-1.2,3.5-2.6c0-0.1,0.1-0.1,0.2-0.2c0.9-0.7,1.8-1.3,2.6-2c0.8-0.6,1.5-1.4,2.2-2.1
		c1.2-1.4,2.2-2.8,3.3-4.2c0.1-0.2,0.2-0.5,0.2-0.7c-0.6-1.3-1.3-2.6-1.9-3.9c-1,0.7-2,1.5-3,2.2c-0.1,0.1-0.2,0.3-0.2,0.4
		c-0.1,0.2-0.1,0.6-0.3,0.7c-1.1,1-2.2,2.1-3.4,3c-1.3,0.9-2.8,1.5-4.1,2.3c-0.9,0.5-1.6,1.3-2.5,1.9c-0.2,0.1-0.3,0.3-0.5,0.3
		c-1.3,0.4-2.7,0.7-4,1.1c-0.8,0.2-1.7,0.5-2.5,0.7c-1.1,0.3-2.2,0.7-3.4,0.9c-1.7,0.2-3.5,0.1-5.3,0.1c-1,0-2.1,0-3.3,0
		C180.5,96.4,180.9,97.6,181.3,98.8z M41.3,112.7c-0.3,0.2-0.7,0.3-1,0.3c-1.8,0.1-3.3,1-4.9,1.8c-0.8,0.4-1.7,0.5-2.6,0.7
		c-1.1,0.2-2.2,0.4-3.2,0.6c-0.3,0.1-0.6,0-1,0c-0.6,0-1.2,0-2,0c0.6,1.4,1.7,2,2.8,2.4c1.1,0.5,2.2,1,3.3,1.3
		c1.5,0.4,3,0.7,4.5,0.9c1.2,0.2,2.4,0.3,3.6,0.4c0.3,0,0.5,0,0.8-0.1c0.8-0.3,1.7-0.6,2.5-0.9c0.7-0.2,1.4-0.1,1.8,0.5
		c0.4,0.6,0.2,1.2-0.1,1.9c-0.3,0.5-0.6,1.1-0.5,1.7c0.1,1.4-0.2,2.7-0.7,4c0,0.1,0,0.3,0,0.4c0.6,0.1,1.1,0.3,1.6,0.4
		c0.2,0,0.5-0.2,0.6-0.4c0.6-0.9,1.2-1.8,1.7-2.7c0.2-0.3,0.3-0.6,0.4-0.9c0.3-0.6,0.7-1.2,1-1.9c0.3-0.7,0.6-1.4,1-2
		c0.4-0.6,0.5-0.9-0.1-1.6c-0.6-0.7-0.9-1.8-1.4-2.7c-0.1-0.2-0.2-0.4-0.3-0.5c-0.7-0.9-1.4-1.9-2.1-2.8c-0.1-0.1-0.1-0.3-0.2-0.4
		c-0.7-0.9-1.5-1.7-2.3-2.6C43.6,111.4,42.5,112.1,41.3,112.7z M134,256.9c-0.1-0.1-0.3-0.2-0.5-0.2c-0.9-0.1-1.4-0.6-2-1.3
		c-0.6-0.7-1.3-1.3-1.9-2.1c-0.7-0.8-1.2-1.7-1.8-2.6c-0.3-0.4-0.6-1-1-1.2c-1-0.5-1.5-1.4-1.9-2.7c-0.3,0.4-0.6,0.6-0.7,0.9
		c-0.6,1.6-2.9,2.4-4.4,1.4c-0.2-0.1-0.3-0.2-0.5-0.3c-1.1-0.4-2.3-0.8-3.5-1.2c-0.5,0.8-0.4,1.7-0.3,2.7c0.1,0.7,0.2,1.4,0.2,2
		c-0.1,1.1-0.4,2.1-0.4,3.2c0,0.3,0.6,0.8,1,0.9c1.1,0.3,2.2,0.4,3.3,0.6c0.6,0.1,1.1,0.4,1.7,0.5c0.3,0.1,0.6,0.2,0.8,0.1
		c0.8-0.2,1.5-0.2,2.2,0.3c0.1,0.1,0.3,0.1,0.4,0.1c1.1-0.2,2.1,0.1,3.2,0.4c0.8,0.3,1.8,0.1,2.7,0.2c1.5,0.1,3,0.3,4.6,0.4
		c0.2,0,0.5-0.2,0.7-0.2C135.2,258.2,134.6,257.5,134,256.9z M19.1,182.4c-1.2-0.4-2.4-0.6-3.6-1c-0.9-0.3-1.7-0.8-2.6-1.1
		c-0.2-0.1-0.6,0-0.7,0.2c-0.8,1.3-1.6,2.6-2.4,4c-0.8,1.5-1.5,3-2.3,4.4c-0.3,0.6-0.8,1.1-1.2,1.6c-0.1,0.1-0.3,0.3-0.3,0.4
		c0.1,1.4-0.9,2.4-1.5,3.6c-0.3,0.7-0.9,1.2-1.1,1.9c-0.2,0.4-0.1,1.1,0.1,1.4c0.3,0.5,0.8,0.3,1.2-0.2c0.1-0.2,0.4-0.3,0.6-0.4
		c0.9-0.5,1.9-1,2.9-1.6c1-0.6,2-1.4,3-2c0,0,0,0,0.1,0c1.6-0.3,2.6-2,4.5-2c0.7,0,1.7-0.8,2-1.5c0.4-0.8,0.3-1.9,0.1-2.8
		c-0.5-1.9,0-3.1,1.9-3.9c0,0,0.1-0.1,0.2-0.2C19.7,182.7,19.4,182.5,19.1,182.4z M142.3,68c-0.7-0.4-1.3-0.9-1.5-1.7
		c0-0.2-0.1-0.4-0.2-0.5c-1.1-0.9-1.3-2.3-1.9-3.5c-0.3-0.6-0.7-1.1-0.9-1.7c-0.5-1.2-1.1-2.4-1.5-3.7c-0.4-1-0.5-2.1-0.9-3.2
		c-0.3-0.9-0.7-1.7-1.1-2.6c-2.3,0.7-4.7,1.1-6.7,2.6c0.6,1.7,1,3.5,1.8,5c0.7,1.3,1.1,2.9,2.3,3.9c0.2,0.2,0.5,0.6,0.5,0.9
		c-0.1,0.9,0.6,1.4,1,2.1c0,0.1,0.1,0.1,0.1,0.1c0.9,0.6,1.8,1.2,2.7,1.7c1.3,0.7,2.6,1.4,3.9,2c0.3,0.2,0.7,0.2,1.1,0.2
		c0.9,0,1.9,0,2.8,0c0.1-0.1,0.1-0.2,0.2-0.3C143.4,68.9,142.9,68.4,142.3,68z M209.1,75.2c-1.7-0.8-3.6-0.5-5.4-0.6
		c-0.8-0.1-1.5-0.2-2.3,0.2c-1.9,0.8-3.9,1.3-5.9,1.8c-0.8,0.2-1.6,0.1-2.2,0.9c-0.2,0.3-0.8,0.4-1.2,0.7c-1.1,0.6-2.2,1.3-3.4,1.9
		c-0.9,0.5-1.7,0.9-2.3,1.8c-0.1,0.1-0.2,0.2-0.3,0.2c-1.5,0.4-2.3,1.6-3.1,2.9c-0.2,0.4-0.5,0.7-0.9,0.9c-1.1,0.6-1.8,1.5-2.4,2.6
		c-0.4,0.7-0.9,1.3-1.3,2c-0.1,0.2-0.2,0.3-0.3,0.6c1.1,0.1,2.1,0.2,3.1,0.3c0.2-1.8,1.4-2.8,2.6-3.8c0.5-0.4,0.8-0.9,1.3-1.3
		c0.6-0.5,1.2-1,1.7-1.4c0.8-0.6,1.5-1.2,2.3-1.8c0.2-0.2,0.5-0.5,0.7-0.5c1.7-0.1,2.8-1.5,4.4-1.7c0.9-0.1,1.7-0.7,2.5-1.1
		c0.2-0.1,0.3-0.3,0.5-0.3c1.2-0.2,2.5-0.4,3.7-0.6c1-0.2,2.1,0.2,2.9,0.1c1-0.1,2-0.1,3-0.1c0.6,0,1.2,0.1,1.7,0.2
		c1.1,0.2,1.7,0,2.3-1c0.1-0.2,0.3-0.4,0.5-0.6c0.2-0.2,0.4-0.3,0.6-0.4C211.4,75.6,210.1,75.7,209.1,75.2z M205.5,81.1
		c-1.3-0.4-2.5,0.1-3.6,0.3c-1.1,0.3-2.3,0.1-3.4,0.8c-0.5,0.4-1.4,0.2-2.1,0.3c-0.5,0.1-1,0.3-1.5,0.5c-0.7,0.3-1.4,0.7-2.1,1
		c-0.1,0-0.1,0-0.2,0.1c-0.9,1.9-3.2,2-4.4,3.7c-0.7,1.1-2.3,1.7-3.1,2.9c-0.2,0.3-0.6,0.3-0.9,0.5c0.1,0.1,0.1,0.2,0.2,0.2
		c1.2-0.2,2.5-0.4,3.7-0.5c1.2-0.1,2.4-0.1,3.6-0.2c0.5-0.1,1-0.3,1.6-0.4c0.7-0.3,1.4-0.6,2.1-0.9c0.1,0,0.3,0,0.3-0.1
		c1.2-1.2,2.8-1.3,4.2-1.8c0.6-0.2,1.2-0.6,1.7-1c1.4-1.1,2.8-2.2,4.3-3.3c0.7-0.5,1.4-0.9,2.1-1.4c0.1-0.1,0.2-0.3,0.3-0.6
		C207.2,81.2,206.3,81.4,205.5,81.1z M149.4,112.3c-0.3-0.9-0.6-2-1-3.1c-0.1-0.2-0.2-0.4-0.1-0.6c0.5-1.8-0.7-3.2-0.9-4.9
		c-0.1-0.9-1-0.5-1.5-0.5c-1.2,0-2.3,0.2-3.5,0.2c-0.5,0-0.7,0.2-0.7,0.6c0,0.9,0.1,1.9,0.1,2.8c0,0.6-0.3,1.2-0.3,1.9
		c0,1.1,0.1,2.3,0.1,3.4c0,0.9-0.1,1.8-0.1,2.7c0,0.4,0,0.7,0.1,1.3C144.2,114.8,146.8,113.5,149.4,112.3z M145.8,94
		c0-1-0.3-2.1,0.1-3c0.6-1.5-0.4-2.9,0.1-4.4c0,0,0-0.1,0-0.1c-0.9-1.2-0.2-2.5-0.3-3.7c-0.1-0.9-0.4-1.7-0.6-2.7
		c-0.5-0.2-1.1-0.4-1.6-0.6c-0.3,0.6-0.7,1.2-0.8,1.8c-0.2,0.7-0.1,1.5-0.2,2.2c-0.2,1.8-0.5,3.6-1.5,5.2c-0.1,0.2-0.1,0.6,0,0.8
		c0.1,0.9-0.1,1.6-0.6,2.3c-0.3,0.5-0.3,1.2-0.4,1.9C142,94.7,143.9,93.9,145.8,94z M152.9,111.9c0.2,0.6,0.8,0.7,1.3,0.5
		c0.7-0.2,1.4-0.2,2.1,0.2c0.1,0.1,0.4,0,0.5,0c0.7-0.2,1.3-0.4,2-0.5c0.8-0.1,1.6-0.2,2.4-0.3c1.4-0.2,2.3-1.2,3.3-2
		c0.1-0.1,0.3-0.3,0.4-0.3c1.1-0.2,1.4-1.1,1.5-1.7c-1.2-1.2-2.3-2.3-3.4-3.5c-0.2-0.3-0.4-0.6-0.6-1c-0.3-0.8-1.8-1.2-2.4-0.6
		c-0.1,0.1-0.2,0.3-0.1,0.4c0.2,1,0.4,1.9,1.4,2.5c0.4,0.2,0.8,0.6,1.1,1c0.5,0.7,0.6,1.4,0.1,2.1c-0.5,0.7-1.2,0.9-2,0.6
		c-0.9-0.3-1.6-0.8-2-1.8c-0.3-0.7-0.9-1.3-1.4-2c-0.2-0.3-0.5-0.7-0.7-1c-0.3-0.8-0.5-0.8-1.1-0.2c-0.2,0.2-0.4,0.4-0.7,0.7
		c0.8,1.1,1.6,2.2,2.4,3.3c0.1,0.1,0.3,0.2,0.3,0.4c0.2,0.6,0.9,1.2,0.2,1.9c-0.9,0.9-1.9,1-2.7,0.3c-0.7-0.6-1.2-1.3-1.8-2
		c-0.2-0.3-0.5-0.5-0.7-0.7c-0.1,0-0.2,0.1-0.4,0.1C152.3,109.5,152.6,110.7,152.9,111.9z M153.1,102.1c1.5-0.2,2.5-1.3,3.8-1.7
		c0.8-0.2,1.7-0.1,2.5-0.2c0.5-0.1,1.1-0.2,1.5-0.5c0.8-0.6,1.4-0.4,1.9-0.1c0.8-0.4,1.4-0.6,2-1c0.2-0.1,0.3-0.4,0.4-0.6
		c0.2-0.6,0.4-1.2,0.6-1.9c-0.4-0.3-0.8-0.6-1.3-0.9c0,0.1,0.1,0.2,0.1,0.3c-1.2,0.9-2.4,1.7-3.6,2.6c-0.1,0.1-0.2,0.1-0.3,0.1
		c-1.4,0-2.7,0-4.1-0.1c-0.7-0.1-2.9,0.6-3.4,1.1c-0.6,0.7-1.2,1.5-2,2.2c-0.7,0.5-0.7,1-0.3,1.8
		C151.8,102.8,152.4,102.2,153.1,102.1z M138.2,88.5c0.1-0.1,0.1-0.2,0.2-0.3c0.3-1.2,0.5-2.4,0.8-3.5c0.3-1,0.7-1.9,1.1-2.8
		c0.3-0.6,0.6-1.1,0.4-1.7c-0.1-0.3-0.2-0.5-0.3-0.8c-0.3,0.2-0.8,0.3-1,0.6c-0.4,0.8-0.6,1.7-1.1,2.5c-1.2,1.8-2.4,3.5-3.7,5.3
		c-0.2,0.2-0.3,0.4-0.5,0.6c-0.7,1.2-0.6,1.4,0.8,1.9c0.4,0.1,0.8,0.5,1.2,0.7c0.3,0.2,0.6,0.4,1.1,0.7
		C137.1,90.3,137.3,89.3,138.2,88.5z M173,99.2c-0.8,0.3-1.7,0.4-2.6,0.7c-0.3,0.1-0.5,0.5-0.8,0.6c-0.5,0.3-1,0.6-1.5,0.9
		c-0.6,0.3-1.3,0.5-2.1,0.8c0.6,0.5,1,0.9,1.4,1.2c0.1,0.1,0.4,0.1,0.6,0c1.8-0.7,3.5-1.4,5.4-2c1.3-0.4,2.6-0.6,4-0.8
		c0.8-0.1,1.1-0.8,0.7-1.5c-0.3-0.6-0.6-1.2-0.8-1.7C175.7,98.1,174.4,98.7,173,99.2z M117.3,33c0.3,0.7,0.7,0.7,1.2,0.4
		c0.6-0.4,1.3-0.7,1.2-1.6c0-0.2,0.1-0.4,0.2-0.5c0.7-0.6,0.4-1.1,0-1.7c-0.4-0.6-0.9-0.7-1.6-0.4c-0.8,0.3-1.6,0.6-2.3,0.9
		C116.5,31.1,116.9,32.1,117.3,33z M135.6,11.5c0.3-0.5,0.6-1,1-1.5c0.5-0.6-0.2-3-1-3.1c-0.3,0-0.9,0.2-1,0.5
		c-0.4,0.8-0.7,1.7-0.9,2.6c-0.3,1.3-0.1,1.7,1.2,2.5C135.1,12.2,135.3,11.9,135.6,11.5z M142,73.2c-0.1,0-0.3,0.2-0.4,0.3
		c-0.1,0.6-0.2,1.1-0.3,1.7c-0.1,0.9,0.6,0.8,1.1,1c0.2,0.1,0.4,0.3,0.7,0.4c0.3,0.1,0.8,0.3,1,0.2c0.3-0.2,0.7-0.7,0.7-1.1
		c0.1-0.9,0-1.8,0-2.8C144.1,73.1,143.1,73.1,142,73.2z M137.7,29.5c-0.6,0.2-1.1,1-1.4,1.7c-0.4,1,0.2,1.7,1,2.3
		c1-1.2,2-2.3,3.1-3.5C139.7,28.6,138.5,29.3,137.7,29.5z M115.8,17.1c0.1,0,0.2,0,0.3,0.1c1.2,0.2,1.6-0.3,1.2-1.5
		c-0.1-0.2-0.3-0.5-0.5-0.5c-0.8-0.1-1.6-0.2-2.4-0.3C114.2,16.3,114.6,16.9,115.8,17.1z"/>
	<path class="st0" d="M47.4,107.6c0.8,1.5,1.4,2.9,2.1,4.2c0.4,0.7,1,1.3,1.4,2c0.2,0.4,0.4,0.8,0.6,1.2c0.1,0.1,0.1,0.3,0.2,0.4
		c1.3,0.8,2,2,2.5,3.4c0.1,0.4,0.8,0.7,1.2,1c0.8-0.4,1.6-0.9,2.5-1.3c1.6-0.8,3.1-1.6,4.7-2.4c0.6-0.3,1.4-0.2,2-0.5
		c0.5-0.2,1.2-0.4,1.4-0.8c0.6-0.9,1.3-1.4,2.2-1.7c1-0.4,1.9-1.1,3.1-1.1c0.5,0,1-0.8,1.6-1.1c0.8-0.4,1.7-0.7,2.5-1.1
		c1.7-1,3.4-2.2,5.1-3.3c0.8-0.5,1.5-1,2.5-0.8c0.1,0,0.4,0,0.5-0.1c0.6-1.2,1.9-1.5,2.9-2.2c0.4-0.3,0.8-0.6,1.3-0.9
		c1.1-0.5,2.2-0.9,3.3-1.4c0.2-0.1,0.5-0.1,0.5-0.3c0.6-1.1,1.7-1.4,2.7-2c1.4-0.8,2.6-1.8,4-2.7c0.4-0.3,1-0.4,1.4-0.6
		c0.8-0.5,1.5-1.1,2.3-1.6c0.9-0.5,1.9-1,2.9-1.3c0.6-0.2,1.2,0.5,0.9,1c-0.3,0.6-0.6,1.3-1.2,1.8c-0.8,0.7-1.7,1.2-2.6,1.8
		c-0.3,0.2-0.6,0.6-1,0.8c-1.2,1.1-2.5,2.2-4.1,2.7c-0.6,0.2-1.1,0.7-1.7,1c-0.8,0.4-1.6,0.7-2.4,1.1c-0.5,0.3-1,0.6-1.5,1
		c-0.6,0.5-1.2,1-1.8,1.4c-0.9,0.6-1.9,1.1-2.8,1.6c-0.7,0.3-1.4,0.5-2.3,0.9c-0.2,0.9-1,1.3-1.8,1.9c-0.4,0.3-0.7,0.8-1,1.2
		c-0.1,0.1,0,0.3-0.1,0.3c-1.3,1.1-0.8,3.2-2.5,4.1c-0.1,0.1-0.2,0.3-0.2,0.5c0.2,1.1-0.4,1.9-0.8,2.9c-0.7,1.4-1.2,2.8-2,4.2
		c-0.5,1-1.5,1.8-1.6,3.2c0,0.6-0.4,1.2-0.8,1.8c-0.3,0.5-0.8,1-1.2,1.4c-0.2,0.2-0.5,0.5-0.4,0.6c0.3,1.3-0.6,2.1-1.1,3.1
		c-0.2,0.4-0.4,0.8-0.6,1.2c-0.1,0.2-0.1,0.4-0.2,0.5c-1.4,1.3-1.4,3.6-3.1,4.7c-0.2,0.1-0.2,0.5-0.2,0.7c-0.2,1-0.6,2-1.4,2.8
		c-0.5,0.6-0.8,1.3-1.2,2c-0.1,0.2-0.1,0.5-0.2,0.7c-1.4,1.3-1.2,3.5-2.7,4.7c-0.1,0.1-0.2,0.3-0.2,0.5c-0.2,0.7-0.6,1.2-1.2,1.6
		c-0.6,0.3-1.1,0.7-0.8,1.6c0.1,0.2,0.1,0.4,0,0.6c-0.6,1.2-0.8,2.7-2.1,3.6c-0.2,0.1-0.3,0.4-0.4,0.6c-0.2,0.6-0.4,1.3-0.7,2
		c-0.4,0.8-0.8,1.6-1.2,2.3c-0.7,1.4-1.4,2.8-2.1,4.2c-0.1,0.2-0.3,0.4-0.5,0.6c-0.9,0.7-1.2,1.6-1.4,2.6c-0.2,0.9-0.7,1.7-1.4,2.4
		c-0.6,0.7-0.9,1.4-1,2.2c-0.2,1.4-1.3,2.2-2,3.2c-0.8,1-1.8,1.9-1.7,3.4c2,0.7,1.7,2.5,2,4.1c0.3,1.7,0.6,3.3,2.2,4.4
		c0.7,0.4,1.2,1.1,1.8,1.6c0.2,0.1,0.5,0.2,0.7,0.2c2.1,0,4.1-0.1,6.2-0.2c0.5,0,1-0.4,1.5-0.6c0.9-0.4,1.7-0.8,2.5-1.3
		c1.1-0.7,2.3-0.5,3,0.6c0.4,0.6,0.5,1.3,0.8,2c0.1,0.3,0.2,0.6,0.4,0.8c0.6,0.7,1.1,1.4,0.9,2.5c0,0.1,0,0.4,0.1,0.5
		c1.3,1.4,2.5,2.8,3.9,4.2c0.2,0.3,0.6,0.4,1,0.5c0.3,0.2,0.6,0.3,0.9,0.5c0.8,0.8,1.2,0.8,2.3,0.3c0.9-0.4,1.8-0.5,2.7-0.8
		c1-0.4,2-0.8,3.1-1.2c0.1,0,0.1-0.1,0.2-0.1c1.6-0.3,2.8-1.3,4.2-2c1.1-0.5,2.1-0.2,2.6,1c0.6,1.3,1,2.6,1.5,3.9
		c0.2,0.5,0.5,1,0.9,1.5c1,1.6,2.5,2.7,4.1,3.7c1.1,0.7,2.1,1.1,3.4,1.3c1.4,0.2,2.5-0.2,3.8-0.4c0.3,0,0.6-0.1,0.9-0.2
		c1-0.2,1.9-0.4,2.8-0.9c1.3-0.6,1.8-1.8,2.8-2.7c0.6-0.5,1-1.3,1.6-2c0.6-0.8,1.2-0.9,2-0.4c1.1,0.6,1.9,1.4,2.3,2.6
		c0.1,0.2,0.2,0.4,0.4,0.6c0.9,0.9,1.8,1.9,2.8,2.8c0.7,0.6,1.5,1,2.3,1.4c1.5,0.6,2.9,1.5,4.7,1.3c0.1,0,0.2,0,0.3,0
		c1,0.2,2,0.9,3.1,0.1c0.9-0.6,2.1-0.7,3.1-1.2c0.7-0.3,1.2-0.9,1.8-1.4c0.5-0.4,1-0.9,1.3-1.2c-0.1-1.1-0.1-2.1-0.2-3.1
		c0-0.6-0.1-1.2-0.2-1.8c0-0.9-0.1-1.9,0-2.8c0.2-1.3,0.5-2.6,0.7-3.9c0-0.2,0-0.4-0.1-0.6c-0.5-0.8-0.4-1.6-0.2-2.4
		c0.3-1.1,0.6-2.1,0.8-3.2c0-0.2,0-0.4,0-0.6c0-0.2-0.2-0.3-0.1-0.5c0.1-1.2,0.1-2.3,0.3-3.5c0.1-0.8,0.4-1.5,0.1-2.3
		c-0.3-0.9-0.2-1.7,0.4-2.5c0.2-0.3,0.1-0.9,0.1-1.3c0-0.7,0-1.4-0.1-2c0-0.1,0.1-0.3,0-0.4c-0.6-1.6,0-3,0.5-4.5
		c0.1-0.2,0.2-0.4,0.1-0.6c-0.2-0.9-0.5-1.9-0.6-2.8c-0.1-0.6,0.1-1.2,0.2-1.8c0-0.3,0.3-0.5,0.3-0.7c0-1.2-0.1-2.4-0.1-3.5
		c0-1,0.2-2,0.3-2.9c0.1-0.8,0.2-1.7,0.1-2.5c-0.2-1-0.2-2,0.6-2.8c0.1-0.2,0.2-0.5,0.1-0.7c-1-1.6-0.3-3.1,0-4.6
		c0.2-1,0.3-1.9,0.2-3c-0.1-1.1,0.2-2.3,0.3-3.5c0-0.4,0.1-0.8,0.1-1.1c0-0.8-0.1-1.5-0.1-2.3c0-0.7,0-1.3,0-2
		c0.2-1.5,0.4-3,0.6-4.4c0-0.1,0.1-0.3,0-0.4c-0.4-0.9-0.3-1.7,0.3-2.5c0.1-0.1,0-0.3,0-0.4c0-1.7-0.1-3.3,0-5
		c0-1.4,0.7-2.8,0.1-4.3c-0.1-0.2,0-0.4,0-0.6c0.5-2.7,0.2-5.5,0.3-8.2c0-0.7,0.2-1.3,0.1-2c0-1-0.2-2.1-0.2-3.1
		c0.1-2.8,0.4-5.5,0.6-8.4c-0.3-0.1-0.7-0.2-1.1-0.2c-1.7-0.1-2.2-0.8-1.9-2.5c0-0.2-0.4-0.8-0.7-0.8c-0.9,0-1.5-0.4-2.2-0.9
		c-0.6-0.4-1.3-0.7-1.9-1.1c-1-0.5-1.3-1.5-0.9-2.5c0.1-0.2,0.1-0.6,0.2-0.8c0.2-0.4,0.3-1,0.6-1.3c0.9-0.7,1.2-1.7,1.7-2.7
		c0.5-1,1.3-1.8,1.9-2.7c0.2-0.2,0.3-0.5,0.5-0.8c0.7-0.9,1.4-1.8,2-2.7c0.4-0.5,0.8-1,0.9-1.6c0.2-1.6,0.2-3.2,0.2-4.8
		c0-0.2-0.2-0.5-0.3-0.6c-0.8-0.4-1.8-0.6-2.5-1.2c-1.1-1-2.8-1.3-3.4-3c-0.3-0.8-1.4-1.3-2.1-2c-0.3-0.3-0.8-0.6-1-0.9
		c-1.1-1.9-2.2-3.9-3.1-5.9c-0.7-1.5-1.5-3.1-1-4.9c-0.1-0.1-0.1-0.1-0.2-0.2c-0.4,0.3-0.8,0.5-1.1,0.8c-0.7,1-1.8,1.5-2.9,2
		c-0.4,0.2-0.8,0.6-1,0.9c-0.5,0.9-1.1,1.5-2.1,1.8c-0.1,0-0.3,0.1-0.4,0.2c-0.8,1.7-2.7,2.3-3.9,3.6c-0.7,0.8-1.6,1.6-2.5,2.2
		c-1,0.7-1.9,1.4-2.7,2.3c-0.3,0.3-0.8,0.6-1.2,0.6c-0.9,0.1-1.4,0.7-1.8,1.3c-0.1,0.1-0.1,0.3-0.2,0.4c-1.1,0.8-2.3,1.6-3.4,2.4
		c-0.2,0.1-0.4,0.4-0.6,0.5c-0.4,0.4-0.8,0.9-1.3,1.2c-1.1,0.8-2.2,1.6-3.3,2.4c-0.1,0.1-0.1,0.1-0.2,0.2c-1.2,0.8-2.4,1.6-3.6,2.4
		c-0.9,0.6-1.7,1.2-2.5,1.8c-0.1,0.1-0.3,0.3-0.4,0.3c-1.4,0.4-2.2,1.7-3.4,2.5c-1.4,1-2.7,2.1-4.2,2.7c-1.3,0.5-2.1,1.5-3.1,2.2
		c-0.8,0.5-1.5,1.1-2.4,1.2c-0.4,0.1-0.8,0.4-1.1,0.7c-0.5,0.6-1,1.1-1.8,1.1c-0.2,0-0.5,0.1-0.6,0.3c-0.8,0.7-1.7,1.4-2.3,2.2
		c-0.8,1.2-2,1.4-3.3,1.6c-0.5,0.1-0.7,0.2-0.9,0.6c-0.2,0.5-0.7,0.9-1.2,1.3c-0.5,0.4-1,0.7-1.5,1.1c-0.9,0.6-1.7,1.1-2.6,1.7
		c-0.8,0.5-1.6,1.1-2.5,1.6c-0.8,0.4-1.7,0.7-2.5,1c-0.2,0.1-0.4,0.2-0.6,0.3c-1,0.7-2,1.3-2.9,2c-0.2,0.1-0.3,0.3-0.5,0.4
		c-0.5,0.3-1,0.7-1.4,0.7C49.2,106.2,48.5,107.4,47.4,107.6z"/>
	<path class="st0" d="M162.8,15.9c-1.1,1.3-2.4,2.4-3.9,2.8c-1.1,0.3-1.7,1.1-2.5,1.7c-0.4,0.3-0.9,0.6-1.4,0.9
		c-0.1,0.1-0.3,0.1-0.5,0.2c-0.6,0.7-1.2,1.3-1.9,2c0,0-0.1,0.1-0.1,0.1c-1.3,0.3-1.2,1.5-1.8,2.3c-1.1,1.4-1.4,3-1.9,4.6
		c-0.4,1.1-0.8,2.2-1,3.3c-0.2,0.9,0,1.8,0,2.8c0,0.3,0,0.6-0.2,0.8c-0.6,0.8-0.3,1.5,0.3,2.1c0.9,1,1,2.2,0.7,3.5
		c-0.1,0.3,0,0.6,0,0.9c1.1-0.3,2.1-0.8,2.3-2.1c0-0.1,0.1-0.3,0.1-0.3c-0.7-1.4,0.3-2.6,0.8-3.7c0.7-1.3,1.7-2.5,3.2-3.1
		c0.9-0.3,1.6-0.8,2.5-1.1c0.6-0.2,1.3-0.1,2-0.1c0.7,0,1.4,0.2,2.1,0.3c1.7,0.3,2.8,1.4,3.5,2.9c0.3,0.6,0.4,1.4,0.7,2
		c0.2,0.3,0.9,0.5,1.3,0.4c2.1-0.7,4.3-1,6.5-0.7c0.4,0,0.8,0.5,0.9,0.9c0.4,1.6,0.4,3.2-0.1,4.8c-0.1,0.3,0,0.6,0,0.9
		c0.1,0.8,0.3,1.7,0.4,2.5c0.2,0.9,1,1,1.7,1.1c1.3,0.1,2.5,0.1,3.7-0.5c0.7-0.3,1.5-0.5,2.3-0.6c0.7-0.1,1.1-0.6,1.3-1.3
		c0.3-1,0.8-1.5,1.7-1.5c0.7,0,1.2,0.3,1.5,1c0.3,0.8,0,1.4-0.7,2.1c-0.4,0.4-0.6,1.1-0.9,1.7c-0.2,0.5-0.4,1.1-0.6,1.7
		c-0.1,0.2-0.1,0.3-0.1,0.5c0.2,1.6,0.3,3.2,0.5,4.8c0,0.1,0,0.3,0.1,0.3c0.8,0.7,1.6,1.4,2.4,2c0.1,0.1,0.2,0.1,0.3,0.1
		c1.3,0.1,2.6,0.1,3.9,0.2c0.1,0,0.3,0,0.4-0.1c1.3-1.2,3-1.6,4.6-2.3c1.8-0.8,3-2,4.1-3.5c0.1-0.2,0-0.6-0.2-0.9
		c-0.2-0.5-0.6-1-0.8-1.5c-0.9-1.8-0.8-4-2.1-5.7c-0.2-0.3-0.2-0.7-0.3-1c-0.2-0.6-0.5-1.2-0.7-1.7c-0.1-0.3-0.3-0.6-0.4-1
		c-0.2-0.5-0.3-1.1-0.5-1.6c-0.3-0.7-0.6-1.4-0.9-2.2c-0.6-1.3-1.2-2.7-1.8-4c-0.3-0.8-0.5-1.7-0.7-2.5c-0.1-0.2-0.1-0.5-0.2-0.6
		c-1.2-1-1.5-2.5-2.2-3.8c-0.2-0.5-0.4-0.9-0.7-1.4c-0.1-0.2-0.3-0.4-0.3-0.5c0.2-1.2-0.5-1.9-1.3-2.6c-0.2-0.2-0.3-0.7-0.4-1
		c-0.2-0.8-0.6-1.4-1-2.1c-0.7-1.1-1.6-2.3-1.1-3.9c0.1-0.2-0.1-0.6-0.3-0.7c-1-0.7-1.9-1.6-2.1-2.9c0-0.2-0.3-0.5-0.5-0.5
		c-0.6-0.1-1.2,0-1.8,0c-0.4,0-0.8,0.1-1.1,0c-0.7-0.3-1.3,0-2,0.2c-0.4,0.2-0.9,0.3-1.3,0.2c-0.9-0.3-1.6-0.2-2.3,0.5
		c-0.2,0.2-0.5,0.4-0.8,0.4c-1.5,0-2.7,0.8-4.1,1c-0.7,0.1-1.4,0.6-2.2,0.9c-1,0.4-2.1,0.4-3,1.2C163.9,16,163.3,15.9,162.8,15.9z"
		/>
	<path class="st0" d="M114.1,34.1c-1.2-1.6-0.7-3.4-0.7-5c0-2.6,3.2-4.2,5.5-3c0.6,0.3,1.3,0.5,2,0.7c1.2,0.2,1.6,0.7,1.9,1.8
		c0.2,0.9,0.4,1.8-0.2,2.6c-0.1,0.2,0,0.6-0.1,0.8c-0.1,0.4-0.3,0.8-0.5,1.2c-0.5,0.7-1.1,1.3-1.8,2c1.2,0.6,2.2,1.2,3.2,1.7
		c0.4,0.2,1,0,1.3,0.2c1.7,1.3,3.7,0.2,5.5,0.9c0.1,0,0.3-0.1,0.5-0.1c0.9-0.3,1.8-0.7,2.6-1.1c0.4-0.2,0.8-0.4,1.2-0.7
		c-0.3-0.5-0.5-0.8-0.7-1.1c-1.1-1.9-1.1-3.6,0-5.6c0.5-0.9,0.9-1.7,2.1-1.8c0.1,0,0.3-0.3,0.4-0.4c0.8-1,2.7-1.2,3.7-0.5
		c0.2,0.2,0.5,0.3,0.8,0.4c1.3,0.4,1.8,1.4,2.1,2.5c0.2,0.6,0.3,1.3,0.3,2c0,0.5-0.3,1-0.5,1.4c-0.1,0.3-0.4,0.5-0.6,0.7
		c0,0.1,0.1,0.2,0.1,0.3c0.8-0.2,1.6-0.3,2.4-0.5c0.1,0,0.2-0.4,0.2-0.7c0.1-2.2,0.4-4.3,1.9-6c0.4-0.4,0.5-1,0.8-1.5
		c0.2-0.3,0.3-0.7,0.5-1c0.8-0.9,1.7-1.6,2.2-2.8c0.4-0.8,1-2.1,2.3-2.3c0.1,0,0.2-0.2,0.3-0.4c0.1-0.1,0.1-0.3,0.2-0.4
		c0.9-0.8,1.6-1.6,1.4-3c-0.1-0.5,0.1-1,0-1.5c-0.2-1.2-0.6-2.4-0.8-3.6c0-0.1-0.1-0.3-0.1-0.4c-0.8-1.1-1.7-2.1-2.5-3.2
		c-0.1-0.1-0.2-0.3-0.3-0.4c-0.1-0.5-0.5-0.5-0.9-0.7c-0.7-0.2-1.3-0.8-2-1.1c-1.8-0.6-3.7-1.4-5.7-0.6c-1.1,0.4-2.2,0.7-3.3,1
		c-0.6,0.2-0.8,0.9-0.3,1.7c0.6,1,0.4,2.1,0.4,3.1c0,0.3,0,0.5,0,0.8c0,0.6,0.2,1.5-0.1,1.9c-0.7,0.9-1.6,1.5-2.5,2.3
		c-0.1,0.1-0.3,0.1-0.4,0.1c-0.7,0-1.3-0.1-2-0.2c-1.7,0-2.2-1.5-3-2.6c-0.3-0.4-0.4-0.8-0.6-1.2c-0.1-0.2-0.2-0.4-0.3-0.6
		c-0.3-1.2,1.1-3.8,2.2-4.3c0.5-0.3,0.9-0.8,1.3-1.2c-0.5-0.3-1-0.7-1.5-0.9c-0.6-0.3-1.2-0.5-1.8-0.6c-1-0.1-2-0.4-2.9,0.4
		c-0.6,0.5-1.5,0.6-2.2,0.9c-1.6,0.7-3.3,1.5-4.9,2.2c-0.4,0.2-0.9,0.3-1.3,0.5c-0.2,0.1-0.4,0.1-0.5,0.2c-0.5,0.5-1.1,1.1-1.6,1.6
		c-0.7,0.7-1.3,1.4-2.1,2.3c0.5,0.1,0.8,0.2,1,0.2c1.5-0.1,2.6,0.8,3.7,1.4c0.5,0.3,0.8,0.9,1,1.5c0.7,1.5,0,3.8-1.4,4.7
		c-0.3,0.2-0.5,0.5-0.8,0.7c-0.9,1.1-2,1.5-3.2,0.9c-1.4-0.7-2.8-1.6-3.3-3.3c-0.1-0.4-0.4-0.7-0.5-1.1c-0.1,0-0.2,0-0.3-0.1
		c-1,2.1-2.1,4.2-2.9,6.3c-0.4,1-0.4,2.2-0.5,3.3c-0.1,1.1-0.4,2.3-0.2,3.4c0.1,0.9,0.8,1.7,1.3,2.4c0.2,0.3,0.7,0.5,0.8,0.8
		c0.5,1.1,1.6,1.6,2.6,1.9C112.6,34.6,113.3,34.2,114.1,34.1z"/>
	<path class="st1" d="M143.2,63.4c-0.2-0.2-0.2-0.6-0.4-0.8c-1.1-1.2-1.5-2.8-2.1-4.2c-0.5-1.2-1-2.4-1.4-3.6
		c-0.3-0.8-0.7-1.5-0.9-2.3c-0.2-0.7-0.4-1.5-0.5-2.3c1.1-0.2,2.3-0.5,3.5-0.7c0.8-0.2,1.7-0.3,2.5-0.5c0.5-0.1,1.1-0.1,1.5-0.3
		c1.1-0.4,2-1.2,3.2-1.1c0.2,0,0.4-0.3,0.6-0.3c1.1-0.3,2.2-0.9,3.4-0.7c0.9,0.1,1.5-0.4,1.6-1.3c0-1.1,0.7-2.1,0.1-3.2
		c0-0.1,0-0.2,0.1-0.2c0.4-1.3,0.8-2.6,1.9-3.5c0.6-0.5,1.1-1.1,2-0.8c0.3,0.1,0.7,0.1,0.9-0.1c1.1-0.5,1.8,0.2,2.5,0.8
		c1.4,1.3,1.4,3.1,2,4.8c0.1,0.4,0.5,1,0.8,1.1c0.4,0.1,0.9-0.3,1.3-0.5c0.2-0.1,0.3-0.3,0.4-0.4c1.3-0.8,2.9-0.4,4.3-1
		c0.2-0.1,0.5,0,0.7,0c0,1.2,0.1,2.2,0,3.2c-0.1,1.4-0.2,2.7,0.8,3.8c0.4,0.4,0.7,0.9,0.9,1.3c0.9,1.6,3.6,2.7,5.4,2
		c1.4-0.6,2.9-1.2,4.4-1.8c0,0.3,0.1,0.7-0.1,1c-1.1,1.3-1,2.8-1,4.3c0,0.8,0.3,1.5,1,2.1c0.2,0.2,0.4,0.5,0.4,0.7
		c0,1.4,2.2,3.5,3.6,3.4c0,0,0.1,0,0.1,0c0.3,0.1,0.6,0.1,0.8,0.2c0.7,0.6,1.4,0.8,2.3,0.6c0.7-0.1,1.3-0.3,2.2-0.5
		c-0.5,0.6-0.7,1.1-1.1,1.4c-1.1,1-2.4,1.8-3.7,2.6c-1.3,0.7-2.7,1.3-4.2,1.5c-0.3,0-0.5,0.3-0.8,0.4c-0.4,0.1-0.7,0.3-1.1,0.4
		c-0.7,0.2-1.4,0.4-2.1,0.5c-1,0.2-1.5,0.8-1.8,1.8c-0.3,1-0.9,2-1.4,3.1c-0.8-0.4-1.5-0.8-2.2-1.1c-1.1-0.4-2.1-1.3-3.4-1
		c-0.6,0.1-0.9-0.5-0.8-0.9c0.5-1.6,1-3.2,1.7-4.8c0.4-0.9,0.3-1.9-0.6-2.4c-0.8-0.5-1.9-0.2-2.4,0.7c-0.1,0.3-0.2,0.6-0.4,0.8
		c-0.8,0.6-1.1,1.4-1.3,2.3c-0.2,1-0.3,2.1-0.2,3.2c0,0.7,0.4,1.5,0.6,2.1c-1.1,0.3-2.2,0.8-3.2,0.8c-1,0-2-0.5-2.9-1
		c-0.9-0.5-1.6-1.2-2.3-1.8c-0.3-0.2-0.5-0.5-0.7-0.8c-0.5-1.1-1-2.2-1.6-3.2c-0.9-1.8-1.8-3.5-2.3-5.5c-0.2-0.8-0.7-1.7-1.2-2.4
		c-1.1-1.3-2.1-1.5-3.3-0.7c-0.3,0.2-0.6,0.3-0.8,0.4c-1.2,0.9-2.5,1.7-2.8,3.4c-0.1,0.4-0.3,0.7-0.5,1.1c-0.3,0.5-0.7,1-1.2,1.6
		C143.8,64.3,143.5,63.8,143.2,63.4z M172.2,62.7c1.5,0,3-0.8,3.1-2.7c0.1-1.4-1.3-3-2.9-3.1c-1.7-0.2-3.2,1.1-3.3,2.8
		C169,61.6,170.4,62.7,172.2,62.7z M175.6,65.6c0,1,1,1.9,2,2c0.8,0,1.9-1.1,1.9-2.1c0-0.7-1-1.6-1.8-1.6
		C176.5,63.9,175.7,64.6,175.6,65.6z"/>
	<path class="st1" d="M125.4,214.7c-3.2,0.1-6-0.6-8.7-2c-2.6-1.4-4.5-3.5-6.2-5.9c-0.4,0.7-0.7,1.1-1,1.6c0.9,1.1,1.3,2.4,1,3.8
		c0,0.2,0.2,0.4,0.3,0.6c0.2,0.6,0.7,1.2,0.6,1.7c-0.2,0.8,0.1,1.5,0.3,2.2c0.3,0.8,0.6,1.6,0.9,2.4c0,0.1,0.1,0.2,0.1,0.3
		c-0.3,1.2,0.2,2.4,0.3,3.6c0,0.5,0.2,1.1,0.3,1.6c0.2,1.1,0.5,2.2,0.7,3.3c0.2,1.4,0.5,2.8,0.6,4.2c0.1,2,0.4,3.9,1,5.8
		c0.4,1.2,0.7,2.5,0.8,3.7c0.2,2.1,1.5,3.4,3.1,4.5c0.1,0.1,0.4,0.1,0.6,0c0.7-0.2,1.5-0.4,2.2-0.6c0.4-0.1,1-1.1,0.8-1.6
		c-0.3-1-0.5-2,0.1-3c0.1-0.2,0-0.6,0-0.8c0-0.2-0.1-0.4,0-0.6c0.8-1.6,0.3-3.3,0.4-4.9c0.2-2.6,0.4-5.2,0.7-7.7
		c0.1-0.7,0.4-1.4,0-2.1c-0.1-0.2-0.1-0.5,0-0.7c1-2.4,0-4.9,0.7-7.4C125.1,216,125.2,215.3,125.4,214.7z"/>
	<path class="st1" d="M64,197.2c-0.4-0.5-0.9-1-1.1-1.6c-0.3-0.6-0.2-1.4-0.3-2.2c-0.7,0.2-1.3,0.3-1.9,0.5c-1.5,0.4-3,1-4.6,1.3
		c-1.9,0.4-3.8,0.5-5.6-0.6c-0.2-0.1-0.5-0.1-0.7-0.2c-1.1-0.5-2.4-0.7-3.3-1.5c-0.8-0.7-1.3-1.9-1.9-3c-0.1-0.2-0.2-0.4-0.3-0.6
		c-0.2-0.5-0.6-0.9-0.7-1.5c-0.1-0.7-0.4-0.8-1-0.8c-0.9,0.1-1.8-0.1-2.6-0.1c-0.8,0-1.7,0-2.5-0.1c-1.1-0.1-2.1-0.4-3.2-0.5
		c-0.5-0.1-1.1,0-1.6,0c-0.2,0-0.5,0.1-0.7,0c-2.4-1-5-0.4-7.4-1.1c-1.8-0.5-2.8-0.2-3.4,1.6c-0.2,0.6-0.8,1-0.3,1.7
		c0.7,0.9,0.8,2.3,2.4,2.1c0.2,0,0.4,0,0.6,0.1c0.9,0.4,1.9,0.7,2.8,1.1c1.4,0.6,2.8,1.3,4.2,2c0.5,0.3,1,0.7,1.5,0.9
		c0.7,0.4,1.5,0.7,2.4,0.7c0.7,0,1.3,0.7,2,0.9c1.1,0.4,2.3,0.8,3.4,1.3c0.5,0.2,0.9,0.6,1.4,0.8c0.5,0.2,1,0.4,1.5,0.6
		c0.5,0.2,1,0.4,1.5,0.6c0.9,0.4,1.8,0.8,2.6,1.2c0.4,0.2,0.8,0.3,1,0.6c0.6,0.8,1.4,0.8,2.2,0.8c0.6,0,1.2,0.1,1.7,0.3
		c0.6,0.3,1,0.2,1.5,0c1-0.5,2-0.9,3.1-1.4c0.1,0,0.3-0.1,0.3-0.2c0.8-1.2,2.1-1.6,3.2-2.2C61.4,198.2,62.7,197.7,64,197.2z"/>
	<path class="st1" d="M180,94.9c0.5,1.5,0.9,2.7,1.3,3.9c0.3,0.8,1,1.1,1.7,1.3c0.7,0.2,1.4,0.2,2.1,0.3c0.1,0,0.2,0,0.3,0
		c0.9-0.1,1.9-0.2,2.8-0.3c0.8-0.1,1.6-0.2,2.4-0.3c1.2-0.1,2.4-0.1,3.5-0.2c0.1,0,0.2,0,0.3-0.1c0.8-0.8,1.8-0.7,2.9-0.7
		c0.6,0,1.4-0.4,1.9-0.7c0.9-0.7,1.7-1.3,2.9-1.3c0.1,0,0.3,0,0.3-0.1c1-1,2.8-1.2,3.5-2.6c0-0.1,0.1-0.1,0.2-0.2
		c0.9-0.7,1.8-1.3,2.6-2c0.8-0.6,1.5-1.4,2.2-2.1c1.2-1.4,2.2-2.8,3.3-4.2c0.1-0.2,0.2-0.5,0.2-0.7c-0.6-1.3-1.3-2.6-1.9-3.9
		c-1,0.7-2,1.5-3,2.2c-0.1,0.1-0.2,0.3-0.2,0.4c-0.1,0.2-0.1,0.6-0.3,0.7c-1.1,1-2.2,2.1-3.4,3c-1.3,0.9-2.8,1.5-4.1,2.3
		c-0.9,0.5-1.6,1.3-2.5,1.9c-0.2,0.1-0.3,0.3-0.5,0.3c-1.3,0.4-2.7,0.7-4,1.1c-0.8,0.2-1.7,0.5-2.5,0.7c-1.1,0.3-2.2,0.7-3.4,0.9
		c-1.7,0.2-3.5,0.1-5.3,0.1C182.2,94.9,181.2,94.9,180,94.9z"/>
	<path class="st1" d="M44.7,110.8c-1.1,0.6-2.2,1.3-3.4,1.9c-0.3,0.2-0.7,0.3-1,0.3c-1.8,0.1-3.3,1-4.9,1.8
		c-0.8,0.4-1.7,0.5-2.6,0.7c-1.1,0.2-2.2,0.4-3.2,0.6c-0.3,0.1-0.6,0-1,0c-0.6,0-1.2,0-2,0c0.6,1.4,1.7,2,2.8,2.4
		c1.1,0.5,2.2,1,3.3,1.3c1.5,0.4,3,0.7,4.5,0.9c1.2,0.2,2.4,0.3,3.6,0.4c0.3,0,0.5,0,0.8-0.1c0.8-0.3,1.7-0.6,2.5-0.9
		c0.7-0.2,1.4-0.1,1.8,0.5c0.4,0.6,0.2,1.2-0.1,1.9c-0.3,0.5-0.6,1.1-0.5,1.7c0.1,1.4-0.2,2.7-0.7,4c0,0.1,0,0.3,0,0.4
		c0.6,0.1,1.1,0.3,1.6,0.4c0.2,0,0.5-0.2,0.6-0.4c0.6-0.9,1.2-1.8,1.7-2.7c0.2-0.3,0.3-0.6,0.4-0.9c0.3-0.6,0.7-1.2,1-1.9
		c0.3-0.7,0.6-1.4,1-2c0.4-0.6,0.5-0.9-0.1-1.6c-0.6-0.7-0.9-1.8-1.4-2.7c-0.1-0.2-0.2-0.4-0.3-0.5c-0.7-0.9-1.4-1.9-2.1-2.8
		c-0.1-0.1-0.1-0.3-0.2-0.4C46.2,112.6,45.5,111.7,44.7,110.8z"/>
	<path class="st1" d="M135.9,258.9c-0.7-0.8-1.3-1.4-1.9-2c-0.1-0.1-0.3-0.2-0.5-0.2c-0.9-0.1-1.4-0.6-2-1.3
		c-0.6-0.7-1.3-1.3-1.9-2.1c-0.7-0.8-1.2-1.7-1.8-2.6c-0.3-0.4-0.6-1-1-1.2c-1-0.5-1.5-1.4-1.9-2.7c-0.3,0.4-0.6,0.6-0.7,0.9
		c-0.6,1.6-2.9,2.4-4.4,1.4c-0.2-0.1-0.3-0.2-0.5-0.3c-1.1-0.4-2.3-0.8-3.5-1.2c-0.5,0.8-0.4,1.7-0.3,2.7c0.1,0.7,0.2,1.4,0.2,2
		c-0.1,1.1-0.4,2.1-0.4,3.2c0,0.3,0.6,0.8,1,0.9c1.1,0.3,2.2,0.4,3.3,0.6c0.6,0.1,1.1,0.4,1.7,0.5c0.3,0.1,0.6,0.2,0.8,0.1
		c0.8-0.2,1.5-0.2,2.2,0.3c0.1,0.1,0.3,0.1,0.4,0.1c1.1-0.2,2.1,0.1,3.2,0.4c0.8,0.3,1.8,0.1,2.7,0.2c1.5,0.1,3,0.3,4.6,0.4
		C135.4,259.2,135.7,259,135.9,258.9z"/>
	<path class="st1" d="M20,182.9c-0.3-0.2-0.6-0.4-0.9-0.5c-1.2-0.4-2.4-0.6-3.6-1c-0.9-0.3-1.7-0.8-2.6-1.1c-0.2-0.1-0.6,0-0.7,0.2
		c-0.8,1.3-1.6,2.6-2.4,4c-0.8,1.5-1.5,3-2.3,4.4c-0.3,0.6-0.8,1.1-1.2,1.6c-0.1,0.1-0.3,0.3-0.3,0.4c0.1,1.4-0.9,2.4-1.5,3.6
		c-0.3,0.7-0.9,1.2-1.1,1.9c-0.2,0.4-0.1,1.1,0.1,1.4c0.3,0.5,0.8,0.3,1.2-0.2c0.1-0.2,0.4-0.3,0.6-0.4c0.9-0.5,1.9-1,2.9-1.6
		c1-0.6,2-1.4,3-2c0,0,0,0,0.1,0c1.6-0.3,2.6-2,4.5-2c0.7,0,1.7-0.8,2-1.5c0.4-0.8,0.3-1.9,0.1-2.8c-0.5-1.9,0-3.1,1.9-3.9
		C19.9,183.1,19.9,183.1,20,182.9z"/>
	<path class="st1" d="M143.9,69.4c-0.5-0.5-1-1-1.6-1.4c-0.7-0.4-1.3-0.9-1.5-1.7c0-0.2-0.1-0.4-0.2-0.5c-1.1-0.9-1.3-2.3-1.9-3.5
		c-0.3-0.6-0.7-1.1-0.9-1.7c-0.5-1.2-1.1-2.4-1.5-3.7c-0.4-1-0.5-2.1-0.9-3.2c-0.3-0.9-0.7-1.7-1.1-2.6c-2.3,0.7-4.7,1.1-6.7,2.6
		c0.6,1.7,1,3.5,1.8,5c0.7,1.3,1.1,2.9,2.3,3.9c0.2,0.2,0.5,0.6,0.5,0.9c-0.1,0.9,0.6,1.4,1,2.1c0,0.1,0.1,0.1,0.1,0.1
		c0.9,0.6,1.8,1.2,2.7,1.7c1.3,0.7,2.6,1.4,3.9,2c0.3,0.2,0.7,0.2,1.1,0.2c0.9,0,1.9,0,2.8,0C143.8,69.6,143.8,69.5,143.9,69.4z"/>
	<path class="st1" d="M212,76.9c-0.6-1.3-1.9-1.2-2.9-1.6c-1.7-0.8-3.6-0.5-5.4-0.6c-0.8-0.1-1.5-0.2-2.3,0.2
		c-1.9,0.8-3.9,1.3-5.9,1.8c-0.8,0.2-1.6,0.1-2.2,0.9c-0.2,0.3-0.8,0.4-1.2,0.7c-1.1,0.6-2.2,1.3-3.4,1.9c-0.9,0.5-1.7,0.9-2.3,1.8
		c-0.1,0.1-0.2,0.2-0.3,0.2c-1.5,0.4-2.3,1.6-3.1,2.9c-0.2,0.4-0.5,0.7-0.9,0.9c-1.1,0.6-1.8,1.5-2.4,2.6c-0.4,0.7-0.9,1.3-1.3,2
		c-0.1,0.2-0.2,0.3-0.3,0.6c1.1,0.1,2.1,0.2,3.1,0.3c0.2-1.8,1.4-2.8,2.6-3.8c0.5-0.4,0.8-0.9,1.3-1.3c0.6-0.5,1.2-1,1.7-1.4
		c0.8-0.6,1.5-1.2,2.3-1.8c0.2-0.2,0.5-0.5,0.7-0.5c1.7-0.1,2.8-1.5,4.4-1.7c0.9-0.1,1.7-0.7,2.5-1.1c0.2-0.1,0.3-0.3,0.5-0.3
		c1.2-0.2,2.5-0.4,3.7-0.6c1-0.2,2.1,0.2,2.9,0.1c1-0.1,2-0.1,3-0.1c0.6,0,1.2,0.1,1.7,0.2c1.1,0.2,1.7,0,2.3-1
		c0.1-0.2,0.3-0.4,0.5-0.6C211.6,77.1,211.8,77,212,76.9z"/>
	<path class="st0" d="M141.5,116.2c2.7-1.4,5.3-2.6,7.9-3.9c-0.3-0.9-0.6-2-1-3.1c-0.1-0.2-0.2-0.4-0.1-0.6c0.5-1.8-0.7-3.2-0.9-4.9
		c-0.1-0.9-1-0.5-1.5-0.5c-1.2,0-2.3,0.2-3.5,0.2c-0.5,0-0.7,0.2-0.7,0.6c0,0.9,0.1,1.9,0.1,2.8c0,0.6-0.3,1.2-0.3,1.9
		c0,1.1,0.1,2.3,0.1,3.4c0,0.9-0.1,1.8-0.1,2.7C141.4,115.2,141.4,115.6,141.5,116.2z"/>
	<path class="st1" d="M139.9,93.9c2.1,0.8,4,0,5.9,0.1c0-1-0.3-2.1,0.1-3c0.6-1.5-0.4-2.9,0.1-4.4c0,0,0-0.1,0-0.1
		c-0.9-1.2-0.2-2.5-0.3-3.7c-0.1-0.9-0.4-1.7-0.6-2.7c-0.5-0.2-1.1-0.4-1.6-0.6c-0.3,0.6-0.7,1.2-0.8,1.8c-0.2,0.7-0.1,1.5-0.2,2.2
		c-0.2,1.8-0.5,3.6-1.5,5.2c-0.1,0.2-0.1,0.6,0,0.8c0.1,0.9-0.1,1.6-0.6,2.3C140,92.5,140,93.2,139.9,93.9z"/>
	<path class="st1" d="M152.1,108.3c0.3,1.2,0.5,2.4,0.9,3.6c0.2,0.6,0.8,0.7,1.3,0.5c0.7-0.2,1.4-0.2,2.1,0.2c0.1,0.1,0.4,0,0.5,0
		c0.7-0.2,1.3-0.4,2-0.5c0.8-0.1,1.6-0.2,2.4-0.3c1.4-0.2,2.3-1.2,3.3-2c0.1-0.1,0.3-0.3,0.4-0.3c1.1-0.2,1.4-1.1,1.5-1.7
		c-1.2-1.2-2.3-2.3-3.4-3.5c-0.2-0.3-0.4-0.6-0.6-1c-0.3-0.8-1.8-1.2-2.4-0.6c-0.1,0.1-0.2,0.3-0.1,0.4c0.2,1,0.4,1.9,1.4,2.5
		c0.4,0.2,0.8,0.6,1.1,1c0.5,0.7,0.6,1.4,0.1,2.1c-0.5,0.7-1.2,0.9-2,0.6c-0.9-0.3-1.6-0.8-2-1.8c-0.3-0.7-0.9-1.3-1.4-2
		c-0.2-0.3-0.5-0.7-0.7-1c-0.3-0.8-0.5-0.8-1.1-0.2c-0.2,0.2-0.4,0.4-0.7,0.7c0.8,1.1,1.6,2.2,2.4,3.3c0.1,0.1,0.3,0.2,0.3,0.4
		c0.2,0.6,0.9,1.2,0.2,1.9c-0.9,0.9-1.9,1-2.7,0.3c-0.7-0.6-1.2-1.3-1.8-2c-0.2-0.3-0.5-0.5-0.7-0.7
		C152.3,108.2,152.2,108.2,152.1,108.3z"/>
	<path class="st1" d="M151.1,103.3c0.7-0.4,1.3-1.1,2-1.2c1.5-0.2,2.5-1.3,3.8-1.7c0.8-0.2,1.7-0.1,2.5-0.2c0.5-0.1,1.1-0.2,1.5-0.5
		c0.8-0.6,1.4-0.4,1.9-0.1c0.8-0.4,1.4-0.6,2-1c0.2-0.1,0.3-0.4,0.4-0.6c0.2-0.6,0.4-1.2,0.6-1.9c-0.4-0.3-0.8-0.6-1.3-0.9
		c0,0.1,0.1,0.2,0.1,0.3c-1.2,0.9-2.4,1.7-3.6,2.6c-0.1,0.1-0.2,0.1-0.3,0.1c-1.4,0-2.7,0-4.1-0.1c-0.7-0.1-2.9,0.6-3.4,1.1
		c-0.6,0.7-1.2,1.5-2,2.2C150.7,102,150.6,102.5,151.1,103.3z"/>
	<path class="st1" d="M137.2,91.7c-0.2-1.4,0.1-2.4,1-3.2c0.1-0.1,0.1-0.2,0.2-0.3c0.3-1.2,0.5-2.4,0.8-3.5c0.3-1,0.7-1.9,1.1-2.8
		c0.3-0.6,0.6-1.1,0.4-1.7c-0.1-0.3-0.2-0.5-0.3-0.8c-0.3,0.2-0.8,0.3-1,0.6c-0.4,0.8-0.6,1.7-1.1,2.5c-1.2,1.8-2.4,3.5-3.7,5.3
		c-0.2,0.2-0.3,0.4-0.5,0.6c-0.7,1.2-0.6,1.4,0.8,1.9c0.4,0.1,0.8,0.5,1.2,0.7C136.4,91.2,136.7,91.4,137.2,91.7z"/>
	<path class="st1" d="M177.2,97.5c-1.5,0.6-2.9,1.3-4.3,1.8c-0.8,0.3-1.7,0.4-2.6,0.7c-0.3,0.1-0.5,0.5-0.8,0.6
		c-0.5,0.3-1,0.6-1.5,0.9c-0.6,0.3-1.3,0.5-2.1,0.8c0.6,0.5,1,0.9,1.4,1.2c0.1,0.1,0.4,0.1,0.6,0c1.8-0.7,3.5-1.4,5.4-2
		c1.3-0.4,2.6-0.6,4-0.8c0.8-0.1,1.1-0.8,0.7-1.5C177.7,98.6,177.5,98,177.2,97.5z"/>
	<path class="st0" d="M116.1,30c0.5,1.1,0.9,2.1,1.2,3c0.3,0.7,0.7,0.7,1.2,0.4c0.6-0.4,1.3-0.7,1.2-1.6c0-0.2,0.1-0.4,0.2-0.5
		c0.7-0.6,0.4-1.1,0-1.7c-0.4-0.6-0.9-0.7-1.6-0.4C117.6,29.4,116.8,29.7,116.1,30z"/>
	<path class="st0" d="M134.8,12.6c0.2-0.4,0.5-0.7,0.7-1.1c0.3-0.5,0.6-1,1-1.5c0.5-0.6-0.2-3-1-3.1c-0.3,0-0.9,0.2-1,0.5
		c-0.4,0.8-0.7,1.7-0.9,2.6C133.3,11.4,133.5,11.8,134.8,12.6z"/>
	<path class="st1" d="M145,73c-0.9,0.1-1.9,0.1-2.9,0.2c-0.1,0-0.3,0.2-0.4,0.3c-0.1,0.6-0.2,1.1-0.3,1.7c-0.1,0.9,0.6,0.8,1.1,1
		c0.2,0.1,0.4,0.3,0.7,0.4c0.3,0.1,0.8,0.3,1,0.2c0.3-0.2,0.7-0.7,0.7-1.1C145,74.9,145,74,145,73z"/>
	<path class="st0" d="M140.4,29.9c-0.8-1.3-1.9-0.6-2.7-0.4c-0.6,0.2-1.1,1-1.4,1.7c-0.4,1,0.2,1.7,1,2.3
		C138.4,32.3,139.4,31.1,140.4,29.9z"/>
	<path class="st0" d="M114.5,14.9c-0.3,1.4,0.1,2,1.4,2.2c0.1,0,0.2,0,0.3,0.1c1.2,0.2,1.6-0.3,1.2-1.5c-0.1-0.2-0.3-0.5-0.5-0.5
		C116.1,15,115.3,15,114.5,14.9z"/>
	<path class="st0" d="M169.1,59.7c-0.1,1.9,1.3,3,3.1,3c1.5,0,3-0.8,3.1-2.7c0.1-1.4-1.3-3-2.9-3.1C170.7,56.8,169.3,58,169.1,59.7z
		"/>
	<path d="M177.7,63.9c-1.2,0-2,0.7-2.1,1.7c0,1,1,1.9,2,2c0.8,0,1.9-1.1,1.9-2.1C179.5,64.8,178.5,63.9,177.7,63.9z"/>
</g>
</svg>
