<?xml version="1.0" encoding="utf-8"?>
<!-- Generator: Adobe Illustrator 25.0.0, SVG Export Plug-In . SVG Version: 6.00 Build 0)  -->
<svg version="1.1" xmlns="http://www.w3.org/2000/svg" xmlns:xlink="http://www.w3.org/1999/xlink" x="0px" y="0px"
	 viewBox="0 0 152.3 192.2" style="enable-background:new 0 0 152.3 192.2;" xml:space="preserve">
<style type="text/css">
	.st0{fill:#FDD23C;}
	.st1{fill:#FDD23E;}
	.st2{fill:#FFFFFF;}
	.st3{opacity:0;}
	.st4{font-family:'MingLiU';}
	.st5{font-size:9.6873px;}
</style>
<g id="圖層_3">
	<path class="st0" d="M113.7,0H60.3c-6.7,0-12.1,5.4-12.1,12.1v12.3c0,6.7,5.4,12.1,12.1,12.1h23.3l4.4,6.2l4.2-6.2h21.5
		c6.7,0,12.1-5.4,12.1-12.1V12.1C125.8,5.4,120.4,0,113.7,0z"/>
	<g>
		<path d="M60.7,23.2c-0.8,0-1.2-0.4-1.2-1.2v-3.4V15c0-0.7,0.3-1,1-1c0.6,0,1,0.3,1.1,0.9l0,0.3h0.1c1-1,2-1.4,3-1.4
			c1.9,0,2.8,1.2,2.8,3.7V22c0,0.8-0.4,1.2-1.2,1.2c-0.8,0-1.2-0.4-1.2-1.2v-4.2c0-0.7-0.1-1.2-0.3-1.5c-0.2-0.3-0.5-0.4-1-0.4
			c-0.4,0-0.7,0.1-1,0.3c-0.2,0.1-0.6,0.4-0.9,0.8V22C61.9,22.8,61.5,23.2,60.7,23.2z"/>
		<path d="M73.9,23.5c-1.2,0-2.2-0.4-3.1-1.3c-0.9-0.9-1.3-2.1-1.3-3.6c0-1.5,0.4-2.7,1.3-3.6c0.8-0.8,1.9-1.3,3.1-1.3
			c1.2,0,2.2,0.4,3.1,1.3c0.9,0.9,1.3,2.1,1.3,3.6c0,1.5-0.4,2.6-1.3,3.6C76.1,23.1,75.1,23.5,73.9,23.5z M73.9,21.5
			c0.6,0,1.1-0.3,1.4-0.8c0.3-0.5,0.5-1.2,0.5-2.1s-0.2-1.6-0.5-2.1c-0.4-0.5-0.8-0.8-1.4-0.8c-0.6,0-1.1,0.3-1.4,0.8
			c-0.3,0.5-0.5,1.2-0.5,2.1s0.2,1.6,0.5,2.1C72.8,21.2,73.2,21.5,73.9,21.5z"/>
		<path d="M82.9,23.2c-0.4,0-0.7-0.2-0.9-0.6l-2.5-7.2c-0.3-0.9,0-1.4,1-1.4c0.7,0,1.1,0.3,1.3,1l1.1,3.6c0.1,0.4,0.3,0.9,0.5,1.7
			c0.1,0.5,0.2,0.8,0.3,1.1h0.1c0.1-0.6,0.4-1.4,0.7-2.5c0-0.1,0.1-0.2,0.1-0.3l1.1-3.7c0.2-0.6,0.6-0.9,1.2-0.9
			c0.9,0,1.2,0.4,0.9,1.3l-2.4,7.1c-0.1,0.2-0.2,0.4-0.4,0.6c-0.2,0.2-0.5,0.2-0.7,0.2h-0.5H82.9z"/>
		<path d="M91.6,23.5c-0.8,0-1.5-0.3-2-0.8c-0.5-0.5-0.8-1.2-0.8-2c0-1,0.4-1.8,1.3-2.3c0.8-0.5,2.2-0.9,4-1.1
			c0-1.1-0.6-1.6-1.6-1.6c-0.5,0-1.1,0.1-1.7,0.4c-0.6,0.3-1,0.2-1.3-0.4c-0.3-0.5-0.2-0.9,0.3-1.2c1-0.5,2.1-0.8,3.1-0.8
			c1.2,0,2,0.3,2.6,1c0.6,0.7,0.9,1.7,0.9,3v2.7v1.7c0,0.7-0.4,1-1.1,1c-0.6,0-1-0.3-1.1-0.9l0-0.1h0C93.4,23.1,92.5,23.5,91.6,23.5
			z M92.3,21.6c0.6,0,1.2-0.3,1.8-0.9v-1.9c-1,0.1-1.8,0.4-2.3,0.7c-0.4,0.3-0.7,0.6-0.7,1.1C91.1,21.2,91.5,21.6,92.3,21.6z"/>
		<path d="M100.2,26.8c-0.8,0-1.2-0.4-1.2-1.2v-5.2V15c0-0.7,0.4-1,1.1-1c0.6,0,1,0.3,1.1,0.9l0,0.1h0.1c0.9-0.8,1.8-1.2,2.7-1.2
			c1.1,0,2,0.4,2.7,1.3c0.6,0.8,1,2,1,3.4c0,1.5-0.4,2.7-1.2,3.7c-0.7,0.9-1.7,1.3-2.7,1.3c-0.8,0-1.6-0.3-2.3-1l0.1,1.5v1.6
			C101.4,26.4,101,26.8,100.2,26.8z M103.1,21.5c0.6,0,1.1-0.2,1.4-0.7c0.4-0.5,0.6-1.3,0.6-2.2c0-1.8-0.6-2.7-1.8-2.7
			c-0.6,0-1.2,0.3-1.8,1v2v2C101.9,21.3,102.5,21.5,103.1,21.5z"/>
		<path d="M113.6,23.5c-1.3,0-2.4-0.4-3.2-1.3c-0.9-0.9-1.3-2.1-1.3-3.5c0-1.4,0.4-2.6,1.3-3.6c0.8-0.9,1.8-1.3,3-1.3
			c1.2,0,2.2,0.4,2.9,1.3c0.6,0.8,1,1.8,1,3.2c0,0.2,0,0.4,0,0.7c0,0.1-0.1,0.2-0.2,0.3c-0.1,0.1-0.2,0.1-0.4,0.1h-2.4h-2.8
			c0.1,0.7,0.4,1.3,0.8,1.7c0.4,0.4,1,0.6,1.7,0.6c0.4,0,0.9-0.1,1.3-0.2c0.5-0.3,0.9-0.1,1.2,0.4c0.3,0.5,0.2,0.9-0.3,1.1
			C115.3,23.3,114.5,23.5,113.6,23.5z M111.3,17.7h1.9h1.9c0-0.6-0.1-1.1-0.4-1.5c-0.3-0.4-0.7-0.5-1.3-0.5c-0.5,0-0.9,0.2-1.3,0.5
			C111.7,16.6,111.4,17.1,111.3,17.7z"/>
	</g>
</g>
<g id="_xEFF5__xEED3__x5F_3">
	<g>
		<path d="M119.9,80c0.7,0.7,1.5,1.4,2.3,2.2c0.2,0.2,0.4,0.4,0.6,0.7c0.3,0.5,0.6,1,0.9,1.5c0.1,0.2,0.2,0.6,0.3,0.8
			c0.1,0.1,0,0.2,0.1,0.4c0.3,0.7,0.7,1.4,0.9,2.1c0.1,0.7-0.1,1.5-0.1,2.2c-0.1,0.9-0.2,1.9-0.5,2.8c-0.1,0.7-0.4,1.4-0.7,2
			c-0.4,0.7-0.9,1.2-1.4,1.9c-0.1,0.1-0.2,0.2-0.2,0.2c-0.1,1.1-0.9,1.9-1.7,2.5c-0.8,0.7-1.4,1.8-2.5,2.1c-0.2,0.1-0.4,0.2-0.4,0.4
			c-0.4,0.7-1,1.1-1.7,1.5c-0.5,0.3-1,0.7-1.5,0.9c-0.9,0.3-1.7,1.2-2.8,1c-0.4-0.1-0.9,0.5-1.4,0.7c-0.3,0.1-0.7,0.2-1,0.3
			c-0.5,0.2-1,0.4-1.5,0.7c-0.2,0.1-0.4,0.4-0.6,0.4c-0.4,0.1-0.6,0.4-0.7,0.7c-0.1,0.5-0.2,0.9-0.2,1.4c-0.1,0.5,0.3,0.7,0.9,0.7
			c1.2,0,2.3,0.5,3.3,1.2c0.2,0.2,0.3,0.5,0.4,0.8c1.2-0.1,1.6,0.9,2.3,1.6c0.1,0.1,0.3,0.3,0.4,0.4c0.6,0.2,1,0.6,1.2,1.2
			c0,0.1,0.1,0.2,0.1,0.3c0.9,0.2,1.2,1,1.6,1.7c0.6,0.9,1.7,1.4,1.9,2.5v0.1c1,0.4,1.1,1.7,2,2.3c0.2,0.2,0.4,0.6,0.6,0.9
			c0.2,0.4,0.4,0.8,0.6,1.2c0.4,0.8,0.9,1.6,1.3,2.4c0.2,0.3,0.4,0.7,0.7,0.9c0.5,0.5,0.7,1.1,0.8,1.8c0,0.4,0.3,0.7,0.5,1
			c0.5,0.9,1.2,1,2.1,0.7c0.2-0.1,0.4,0,0.6,0.1c1,0.4,2,0.7,3,1.2c0.9,0.4,1.7,0.8,2.5,1.2c0.3,0.1,0.6,0.3,0.9,0.4
			c1.2,0.5,2.3,1,3.2,1.9c0.1,0.1,0.1,0.1,0.2,0.1c1.4,0.5,2.2,1.6,3.2,2.5c0.1,0.1,0.1,0.2,0.2,0.2c1.2,0.1,1.7,1.2,2.5,1.9
			c0.7,0.6,1.4,1.2,2.2,1.8c0.1,0.1,0.2,0.2,0.4,0.4c0.4,0.8,0.7,1.6,1.2,2.4c0.3,0.6,0.9,1.2,1.1,1.8c0.5,1.3,1.2,2.5,1.2,4.1
			c0,0.1,0.1,0.3,0.2,0.4c0.1,0.5,0.1,1,0.2,1.4c0.1,0.4,0.1,0.9,0.1,1.4c0,0.2,0.1,0.3,0.1,0.5c0.1,1.4,0.1,2.7,0.1,4.1
			c-0.1,1.2,0,2.5-0.3,3.7s-0.2,2.3-0.4,3.5c-0.1,0.7-0.4,1.4-0.6,2c-0.1,0.3-0.1,0.6-0.1,0.9c-0.2,1.2-0.3,2.3-0.5,3.5
			c-0.1,0.6-0.4,1.1-0.6,1.7c-0.1,0.1-0.1,0.3-0.1,0.4c-0.1,0.5,0,1-0.1,1.5c-0.3,1.2-0.7,2.3-1,3.5c-0.1,0.2-0.1,0.6-0.1,0.9
			c-0.1,0.5-0.2,1-0.2,1.5c-0.2,0.9-0.4,1.7-0.5,2.6c-0.1,0.6-0.2,1-0.4,1.6c0.1,0.7,0.6,1,1.4,1.3c0.7,0.2,1.2,0.6,2,0.6
			c0.4,0.1,0.8,0.5,1.2,0.7c0.4,0.2,0.9,0.4,1.3,0.7c0.3,0.2,0.7,0.3,0.9,0.5c0.5,0.4,0.6,1,0.3,1.5s-0.9,0.7-1.5,0.6
			c-0.3-0.1-0.6-0.2-0.8-0.4c-0.7-0.7-1.5-0.9-2.3-1.3c-0.2-0.1-0.4-0.1-0.5-0.3c-0.3-0.6-0.8-0.9-1.4-1.2c-0.6-0.4-1-0.8-1.8-0.7
			c-0.1,0-0.3-0.1-0.4-0.1c-0.6-0.4-1.2-0.8-1.7-1.1c-0.3-0.2-0.7-0.3-1-0.4c-0.4-0.1-0.8-0.2-1.2-0.4c-0.9-0.5-1.8-0.9-2.5-1.5
			c-0.8-0.7-1.7-1-2.7-1.4c-0.4-0.1-0.6-0.6-1-0.9c-0.2-0.2-0.5-0.4-0.7-0.4c-1-0.1-1.7-0.8-2.6-1.3c-0.2-0.1-0.5-0.2-0.8-0.4
			c-0.1-0.1-0.2,0-0.3-0.1c-0.9-0.6-1.9-1-2.8-1.7c-0.6-0.5-1.2-1-2-1.2c-1.1-0.2-2-0.9-2.8-1.8c-0.4-0.4-0.7-0.6-1.3-0.7
			c-0.9-0.2-1.9-0.4-2.7-1.2c-0.1-0.1-0.3-0.2-0.5-0.3c-0.5-0.2-1-0.4-1.5-0.6c-0.4-0.2-0.7-0.4-1.1-0.6c-0.2-0.1-0.4-0.1-0.5-0.2
			c-0.5-0.6-1.3-0.7-1.9-1.1c-0.1-0.1-0.3-0.1-0.4-0.2c-0.7-0.7-1.7-1-2.6-1.5c-1-0.5-1.9-1.1-2.8-1.7c-0.4-0.2-0.7-0.3-0.9,0.3
			c-0.1,0.3-0.5,0.7-0.9,0.8c-1.3,0.3-2.7,0.6-4,0.9c-0.4,0.1-0.8,0.3-1.2,0.4c-0.4,0.1-0.9,0.1-1.4,0.2c-0.3,0.1-0.6,0.2-1,0.4
			c-0.5,0.2-1,0.3-1.5,0.4c-0.2,0.1-0.5,0.2-0.7,0.2c-0.5,0.1-1,0.3-1.5,0.4c-0.9,0.2-1.9,0.3-2.8,0.6c-1,0.2-2,0.6-3,0.9h-0.1
			c-0.9-0.3-1.7,0.2-2.5,0.4c-0.7,0.1-1.7-0.1-2.3,0.6c-0.1,0.1-0.3,0.2-0.4,0.2c-1.2,0-2.2,0.7-3.3,0.9c-0.6,0.1-1,0.1-1.6,0.2
			c-0.1,0-0.2,0-0.4,0.1c-1.3,0.9-2.8,0.8-4.3,1.1c-0.5,0.1-0.9,0.3-1.4,0.4c-0.3,0.1-0.7,0.1-1,0.1c-0.1,0-0.3,0-0.4,0.1
			c-1,0.7-2.2,0.9-3.3,1.2c-0.9,0.2-1.9,0.6-2.8,0.8c-1,0.3-2.1,0.8-3.1,0.9c-0.9,0.1-1.6,0.4-2.3,0.5c-1,0.1-1.7,0.5-2.6,0.7
			c-0.9,0.2-2.1,0.3-2.8-0.9c-0.9,0.8-1.7,0.3-2.3-0.4c-0.1-0.1-0.4-0.2-0.6-0.2c-0.6,0.1-1-0.1-1.5-0.5c-0.2-0.2-0.6-0.4-0.9-0.6
			c-1.2-0.7-2.4-1.4-3.6-2.1c-0.2-0.1-0.3-0.2-0.5-0.4c-0.5-0.4-1.1-0.6-1.5-1c-0.7-0.7-1.6-1-2.6-1.3c-0.1,0-0.2-0.1-0.2-0.2
			c-0.4-0.9-1.2-0.9-1.9-1.3c-0.4-0.2-0.7-0.5-1.1-0.7c-0.5-0.2-1-0.4-1.5-0.6c-1-0.6-1.9-1.1-2.9-1.7c-0.6-0.3-1.2-0.6-1.9-0.9
			c-0.6-0.3-1.3-0.6-1.7-1c-0.4-0.5-0.9-0.7-1.4-0.7c-0.9-0.1-1.5-0.7-2.2-1.2c-0.7-0.5-1.2-1.3-2.4-1.3c-0.7,0-1.5-0.6-2.2-0.9
			c-0.3-0.2-0.6-0.4-0.9-0.6c-0.5-0.2-1-0.4-1.4-0.7c-0.5-0.2-1-0.5-1.4-0.9c-0.6-0.6-1.5-0.7-2.2-1.1c-0.2-0.1-0.4-0.1-0.6-0.2
			c-0.6-0.4-1.2-0.9-1.9-1.4c-0.3-0.2-0.7-0.5-1-0.7c-0.6-0.4-0.7-0.9-0.1-1.5c-0.2-0.7-0.6-1.5-0.8-2.3c-0.2-0.9-0.2-1.9-0.3-2.9
			c0-0.2-0.1-0.5-0.2-0.6c-0.5-0.4-0.6-1-0.5-1.6c0.1-0.4,0.1-0.7-0.2-1c-0.2-0.1-0.2-0.5-0.2-0.7c0.2-1.1-0.3-2.2-0.6-3.2v-0.1
			c-0.2-1.6-0.4-3.2-0.6-4.8c-0.1-0.3-0.2-0.6-0.2-0.9c-0.1-0.3-0.3-0.6-0.4-1c-0.2-1.4-0.4-2.8-0.6-4.2c-0.1-0.6-0.1-1.1-0.2-1.7
			c-0.1-0.6-0.2-1.2-0.3-1.9c0-0.6-0.2-1.2-0.4-1.8c-0.3-1.1-0.4-2.3-0.5-3.4c0-0.1,0-0.2-0.1-0.4c-0.2-0.7-0.4-1.4-0.4-2.2
			c-0.1-0.6-0.1-1.2-0.1-1.8c0-0.1,0-0.2-0.1-0.2c-0.2-0.8-0.6-1.6-0.8-2.5c-0.1-0.2-0.2-0.6-0.1-0.9c0.1-0.6,0-1.2-0.3-1.7
			c-0.5-0.9-0.5-1.9-0.6-2.8c0-0.4-0.2-0.9-0.4-1.3c-0.2-0.9-0.6-1.8-0.8-2.7c-0.2-0.9-0.2-1.8-0.2-2.7c0-0.6,0-1-0.2-1.5
			c0.1-0.2,0.4-0.9,0.9-1c0.5-0.2,0.9,0.1,1.2,0.4c0.7,0.6,1.5,1,2.3,1.3c0.8,0.2,1.5,0.6,2.2,1c0.9,0.7,2.1,0.9,3.1,1.4
			c1,0.6,2.2,0.7,3,1.7c0.1,0.1,0.3,0.1,0.5,0.2c0.3,0.1,0.7,0.1,0.9,0.2c0.4,0.1,0.9,0.4,1.3,0.6c0.1,0.1,0.2,0.1,0.3,0.1
			c0.5,0.5,1.2,0.6,1.7,0.9c1.8,0.8,3.6,1.5,5.3,2.6c1,0.6,2,1,3,1.5c0.9,0.4,1.7,1,2.5,1.5c0.4,0.2,0.9,0.2,1.3,0.5
			c0.5,0.2,1,0.6,1.5,0.9c0.4,0.3,0.8,0.4,1.3,0.6c0.9,0.3,1.6,0.9,2.4,1.4c0.2,0.1,0.3,0.2,0.5,0.3c0.6,0.2,1.1,0.4,1.7,0.7
			c1.2,0.5,2.4,0.9,3.4,1.6c0.9,0.6,2.1,0.7,2.8,1.7c0.1,0.1,0.2,0.1,0.4,0.1c0.6,0.2,1.2,0.4,1.8,0.7c0.7,0.4,0.7,1.4,0.1,1.9
			c-0.6,0.4-0.4,0.9-0.3,1.4c0.1,0.6,0.2,1.1,0.4,1.7c0.1,0.6,0.4,1.1,0.5,1.7c0.2,1,0.6,1.7,1.7,2.1c1.4,0.4,2.5,1.3,3.8,2
			c0.2,0.1,0.5,0.1,0.7,0.1c0.7-0.2,1.4-0.5,2.2-0.7c0.7-0.2,1.5-0.4,2.2-0.7c0.6-0.2,1.1-0.6,1.7-0.9c0.2-0.1,0.4-0.2,0.6-0.3
			c0.3-0.2,0.7-0.6,0.9-0.9c0.2-0.2,0.2-0.5,0.5-0.6c1-0.6,1.4-1.6,2.1-2.5c0.5-0.6,1.2-1.1,1.7-1.7c0.3-0.3,0.4-0.7,0.7-1.1
			c0.2-0.4,0.6-0.7,0.8-1.1c0.1-0.2,0.3-0.4,0.4-0.6c0.2-0.3,0.6-0.6,0.9-0.9c0.3-0.2,0.4-0.3,0.4-0.7c0-0.2,0-0.6,0.1-0.7
			c0.6-0.9,1.2-1.7,1.9-2.5c0.3-0.4,0.6-0.7,0.9-1.2c0.6-0.9,1.4-1.7,2.3-2.3c0.6-0.3,1-0.9,1.5-1.3c0.1-0.1,0.1-0.2,0.2-0.2
			c1.4-0.4,2.2-1.7,3.5-2.2c1.5-0.6,2.8-1.6,4.1-2.3c1.6-0.9,3.1-1.9,5.1-1.8c0.1,0,0.3-0.1,0.4-0.2s0.1-0.4-0.1-0.5
			c-0.2-0.2-0.5-0.4-0.7-0.5c-1-0.2-2.1-0.4-3.2-0.7c-0.9-0.2-1.9-0.4-2.8-0.6c-0.2-0.1-0.5-0.2-0.7-0.3c-0.4-0.6-1-0.6-1.5-0.7
			c-0.3-0.1-0.6-0.1-0.8-0.2c-1-0.9-2.2-1.2-3.4-1.7c-0.7-0.3-1.2-1-1.9-1.5c-0.1-0.1-0.2-0.3-0.3-0.3c-1-0.2-1.7-1.2-2.3-1.9
			c-0.6-0.6-0.8-1.7-1-2.5c-0.2-0.8-0.4-1.7-0.5-2.5c-0.1-0.4,0.1-0.7,0.2-1.1c0-0.1,0.1-0.2,0.1-0.3c-0.4-1.5,0.1-2.8,0.6-4.2
			c0.2-0.6,0.2-1.2,0.4-1.7c0.1-0.5,0.2-0.9,0.4-1.4c0.4-1.2,0.9-2.5,1.4-3.6c-0.6-0.2-1-0.4-1.5-0.7c-0.2-0.1-0.3-0.6-0.2-0.7
			c0.2-0.7,0.6-1.3,0.9-1.9c0.1-0.2,0.1-0.4,0-0.6c-0.2-0.8-0.2-1.7,0.1-2.5c0.1-0.1,0.1-0.3,0.1-0.5s-0.1-0.4,0-0.5
			c0.4-0.7,0.5-1.5,0.7-2.2c0.4-1.4,1.1-2.8,1.7-4.1c0.1-0.1,0.1-0.2,0.1-0.3c0.6-0.9,1.2-1.9,1.8-2.7c0.1-0.2,0.1-0.4,0.2-0.5
			c0.4-0.4,0.7-0.8,1.1-1.2c0.4-0.4,0.8-0.9,1.2-1.4c0.6-0.6,1.1-1.2,1.7-1.7c0.7-0.5,1.5-0.8,2.2-1.2c0.2-0.1,0.4-0.1,0.7-0.2
			c0.5-0.2,1-0.4,1.5-0.6c0.9-0.4,1.7-0.6,2.7-0.5c0.3,0.1,0.7,0.1,1,0.1c1-0.2,2-0.3,3-0.2c0.6,0.1,1.2-0.1,1.9-0.2
			c0.2,0,0.4-0.1,0.6-0.1c1.1,0.1,2.2,0.2,3.3,0.4c1,0.2,2,0.6,3,0.8c0.1,0.1,0.3,0,0.4,0c0.2,0,0.4-0.1,0.6,0
			c1.5,0.5,2.9,1,4.4,1.5c0.1,0,0.2,0.1,0.2,0.1c1.4-0.3,2.5,0.9,3.8,1h0.1c1,0.9,2.5,0.8,3.6,1.6c1,0.7,2,1.3,3.1,2
			c0.7,0.4,1.4,0.8,1.9,1.4c1.2,1.2,2.7,2.2,3.2,3.9c0.4,1.2,0.6,2.3,0.9,3.5c0,0.1,0,0.2,0.1,0.4c0.6,0.9,0.2,1.9,0.3,2.7
			c0.1,1.2-0.2,2.2-0.7,3.1C120.3,79.4,120.2,79.6,119.9,80z M87.2,109.8c-0.8,0.3-1.7,0.6-2.4,0.9c-0.7,0.3-1.4,0.8-2.1,1
			c-1.4,0.6-2.7,1-3.9,1.9c-0.7,0.6-1.6,0.7-2.3,1.2c-0.9,0.7-1.8,1.5-2.7,2.3c-0.8,0.7-1.5,1.5-2.2,2.2c-0.3,0.3-0.6,0.6-0.9,1
			c-0.5,0.7-0.9,1.5-1.4,2.3c-0.1,0.2-0.4,0.4-0.6,0.4c-0.4,0.1-0.4,0.3-0.4,0.6c-0.1,0.4-0.3,0.8-0.5,1.2c-0.1,0.2-0.2,0.4-0.4,0.7
			c-0.2,0.4-0.6,0.8-0.8,1.1s-0.8,0.6-0.9,0.9c-0.2,0.9-0.9,1.5-1.4,2.2c-0.7,0.8-1.7,1.4-2.3,2.5c-0.1,0.2-0.4,0.3-0.5,0.4
			c-0.3,0.2-0.6,0.4-0.9,0.6c-0.7,0.6-1.3,1-2,1.6c-0.2,0.1-0.4,0.3-0.5,0.5c0.2,0.2,0.4,0.4,0.6,0.6c0.9,0.6,1.9,0.9,2.2,2.1
			c0,0.1,0.1,0.1,0.1,0.1c0.7,0.4,0.7,1,1,1.7c0.1,0.4,0.6,0.7,0.9,1c0.4,0.3,1,0.4,1.4,0.7c0.7,0.5,1.5,1,2.2,1.5
			c0.3,0.2,0.7,0.2,1,0.4c0.9,0.4,1.7,0.9,2.6,1.4c0.5,0.2,0.7,0.1,0.7-0.4c0-0.3,0.1-0.6,0.1-0.9c0.1-0.8,0.3-1.5,0.4-2.3
			c0.1-0.8,0.2-1.6,0.4-2.4c0.2-1,0.6-2.1,0.7-3.2c0.1-0.4,0-0.8,0.1-1.2c0.3-1.5,1-2.8,1-4.4c0-0.1,0.1-0.1,0.1-0.2
			c0.4-1.1,0.7-2.3,1-3.4c0.1-0.5,0.6-0.8,1-0.7c0.4,0.1,0.7,0.6,0.6,1.1c-0.2,0.9-0.4,1.7-0.6,2.5c-0.1,0.5,0,1-0.1,1.4
			c-0.2,0.9-0.7,1.7-0.5,2.7c0,0.1,0,0.1,0,0.1c-0.2,0.7-0.4,1.4-0.6,2.1c-0.1,0.5-0.4,1-0.4,1.5c0.1,1.6-0.4,3.1-0.7,4.7
			c-0.1,0.5-0.1,1-0.2,1.5c-0.1,0.6-0.4,1.2-0.5,1.8c-0.1,0.4-0.1,0.8-0.1,1.2c0,0.2,0.2,0.4,0.4,0.5c1,0.5,2.1,1,3.1,1.5
			c0.2,0.1,0.4,0.2,0.5,0.4c0.4,0.8,1,1,1.8,1.2c0.6,0.2,1.2,0.3,1.8,0.6c0.3,0.1,0.6,0.4,0.9,0.6c0.4,0.2,0.8,0.5,1.2,0.7
			c0.3,0.2,0.7,0.5,1,0.5c1,0,2-0.2,3.1-0.2c0.6-0.1,1.2,0,1.9,0.1c0.4,0.1,0.7,0.2,1.2,0.3c-0.2-1.3,0.1-1.7,1.2-1.8
			c0.2,0,0.4,0,0.6-0.1c1.1-0.7,2.3-0.4,3.5-0.4c0.9,0,1.9,0.2,2.7,0.3s1.7,0.2,2.6,0.4c0.6,0.1,1.2,0.6,1.9,0.4
			c0.2-0.1,0.4,0.1,0.6,0.2c0.2,0.1,0.6,0.2,0.8,0.3c1,0.2,2,0.4,3,0.7c0.3,0.1,0.7,0.2,0.9,0.5c0.4,0.3,0.6,0.8,0.4,1.3
			c-0.2,0.5-0.6,0.9-1,0.8c-1-0.1-2-0.4-2.9-0.6c-1-0.3-2-0.7-3.1-1c-1.1-0.2-2.2-0.4-3.3-0.6c-1.2-0.1-2.3-0.2-3.5-0.3
			c-0.5,0-1,0.1-1.5,0.1c0,0.1,0,0.1-0.1,0.2c1.2,0.1,1.8,0.9,2.5,1.6c0.1,0.1,0.2,0.2,0.3,0.2c1,0.2,1.3,1.1,1.6,2
			c0.1,0.3,0.3,0.7,0.5,0.9c0.7,0.7,0.9,1.5,1,2.5c0.1,0.4,0.2,0.9,0.6,1.1c0.7,0.4,1.2,1.2,2.1,1c0.1,0,0.2,0.1,0.3,0.1
			c0.7,0.4,1.4,0.9,2,1.3c0.9,0.6,1.8,1.4,3,1.5c0.2,0,0.3,0.2,0.5,0.3c0.3,0.2,0.7,0.4,1,0.6c0.8,0.4,1.7,0.7,2.4,1.2
			c0.9,0.6,1.6,1.2,2.6,1.5c0.6,0.2,1,0.6,1.5,0.9c0.1-1,0.4-1.4,1.2-1.4c1-0.1,2-0.2,3-0.3c0.3,0,0.7,0,0.9-0.1
			c0.6-0.6,1.4-0.6,2.1-1.2c0.9-0.7,1.5-1.7,2.3-2.5c0.3-0.3,0.6-0.7,0.7-1.2c0.4-0.9,0.7-1.7,1.2-2.6c0.1-0.2,0.3-0.5,0.3-0.7
			c0-0.5,0.2-0.9,0.6-1.2c0.3-0.2,0.4-0.6,0.2-1c-0.1-0.2-0.3-0.6-0.2-0.7c0.4-1,0.4-2.1,0.3-3.1c0-0.1,0.1-0.2,0.1-0.3
			c0-0.5,0.1-1,0.1-1.5c-0.1-0.9-0.2-1.7-0.2-2.6c-0.1-1,0.1-2-0.4-3c-0.2-0.5-0.1-1-0.1-1.6c0-0.2-0.1-0.4-0.1-0.6
			c-0.2-0.9-0.7-1.6-0.3-2.5c0.1-0.1,0-0.3-0.1-0.4c-0.6-0.9-0.4-1.9-0.7-2.8c-0.1-0.4-0.1-0.9-0.4-1.2c-0.5-0.7-0.3-1.7-1-2.3
			c0,0-0.1-0.1,0-0.1c0.1-0.6-0.3-1-0.6-1.6c-0.3-0.6-0.2-1.3-0.4-1.9c-0.2-0.6-0.9-1.1-1.1-1.7c-0.2-0.8-0.5-1.5-1-2.2
			c-0.3-0.4-0.6-0.9-0.9-1.4c-0.2-0.3-0.6-0.6-0.8-0.9c-0.2-0.2-0.6-0.5-0.6-0.8c-0.2-1-1.5-1.5-1.5-2.6l-0.1-0.1
			c-0.3-0.4-0.7-0.9-1-1.3c-0.1-0.2-0.2-0.4-0.4-0.5c-0.6-0.7-1.2-1.4-1.9-2.1c-0.5-0.6-1.2-1.2-1.8-1.9c-0.7-0.6-1.7-0.9-1.9-1.9
			c-1.6-0.2-2.4-1.5-3.5-2.2c-0.7,0.4-1.3,0.8-1.9,1.2c-0.4,0.2-0.7,0.4-1.1,0.6c-0.6,0.3-1.2,0.8-1.9,1c-1.1,0.4-2.2,0.5-3.3,0.8
			c-0.5,0.1-1,0.2-1.4-0.1c-0.1-0.1-0.4,0-0.6,0c-0.7,0-1.4,0.2-1.9,0c-0.9-0.5-1.7-0.9-2.6-1.2c-0.9-0.4-2-1-2.5-1.9
			c-0.1-0.1-0.2-0.2-0.3-0.2C88,111.1,87.5,110.7,87.2,109.8z M2.3,105.1c0.1,0.3,0.2,0.4,0.2,0.6c0.3,0.9,0.7,1.7,0.9,2.5
			c0.2,0.8,0.2,1.6,0.4,2.4c0.1,0.2,0.1,0.4,0.2,0.6c0.4,0.9,0.8,1.7,0.7,2.7c0,0.4-0.1,1,0.2,1.3c0.8,1,0.5,2.3,0.7,3.4
			c0.1,0.7,0.3,1.5,0.5,2.2c0.2,0.9,0.6,1.7,0.5,2.5c0,0.1,0,0.2,0.1,0.4c0.1,0.4,0.3,0.8,0.3,1.2c0,1,0.7,2.1,0.3,3.2
			c0,0.1,0.1,0.1,0.1,0.2c0.3,1.3,0.6,2.5,0.9,3.8c0.3,1.5,0.6,3.1,0.8,4.6c0.1,0.2,0.1,0.5,0,0.7c-0.3,0.6-0.2,1.2,0.1,1.8
			c0.1,0.2,0.1,0.4,0.1,0.6c0.1,0.8,0.3,1.5,0.4,2.3c0.1,0.5,0.2,1,0.3,1.5c0.1,1,0,2,0.6,3c0.1,0.2,0.1,0.6,0.1,0.9
			c0,0.2,0,0.5,0.1,0.7c0.4,0.6,0.6,1.1,0.3,1.9c-0.1,0.1,0,0.3,0.1,0.4c0.7,1.4,1,2.8,1,4.3c0,0.6-0.1,1.2,0.1,1.6
			c0.4,0.7,0.9,1.4,1.9,1.5c0.1,0,0.2,0.1,0.4,0.2c0.8,0.6,1.6,1.3,2.7,1.4c0.1,0,0.3,0.1,0.4,0.2c0.4,0.2,0.8,0.6,1.2,0.8
			c0.6,0.3,1.2,0.4,1.8,0.7c0.7,0.4,1.7,0.7,2.2,1.3c0.6,0.9,1.5,1,2.4,1.3c0.9,0.3,1.7,0.5,2.4,1.2c0.4,0.4,0.8,0.7,1.4,0.7
			c0.6,0.1,1.1,0.5,1.7,0.8c0.6,0.3,1.1,0.9,1.7,1c1.1,0.4,2,1,3,1.7c0.4,0.3,0.9,0.7,1.4,1c0.3,0.2,0.7,0.4,1,0.6
			c0.7,0.4,1.2,1.1,2.1,1c0.1,0,0.3,0.1,0.4,0.2c0.6,0.6,1.1,1.4,2.1,1.4c0.1,0,0.1,0.1,0.1,0.1c0.5,0.2,1,0.6,1.5,0.8
			c0.9,0.6,1.9,1.1,2.9,1.6c0.9,0.4,1.6,1.3,2.7,1.4c0.2,0,0.4,0.1,0.4,0.2c0.4,0.9,1.2,0.9,2,1.2c0.2,0.1,0.4,0.2,0.6,0.4
			c0.1-0.1,0.1-0.2,0.1-0.2c-0.1-0.6-0.2-1.3-0.5-1.9c-0.4-0.9-0.6-1.8-0.6-2.7c0-0.6-0.2-1.1-0.4-1.7c-0.1-0.3-0.1-0.6-0.1-0.9
			c0.1-0.6,0.2-1-0.3-1.5c-0.2-0.2-0.2-0.6-0.2-0.9c-0.1-0.4,0-0.9-0.1-1.2c-0.1-0.6-0.3-1.3-0.4-1.9c-0.2-0.9-0.2-1.8-0.6-2.6
			c-0.5-1.2-0.5-2.4-0.6-3.6c-0.1-0.6-0.1-1.2-0.4-1.8c-0.4-0.6-0.6-1.5,0-2.2c0.1-0.1,0.1-0.3,0.1-0.4c-0.7-1.1-0.7-2.4-0.9-3.6
			c-0.1-0.4,0.1-0.7,0-1.1c-0.2-0.9-0.5-1.9-0.7-2.8c-0.2-1-0.3-2-0.6-3.1c-0.1-0.5-0.5-1-0.4-1.4c0.2-0.9,0-1.6-0.3-2.5
			c-0.4-1.2-0.5-2.4-0.7-3.6c0-0.2,0-0.3,0-0.5c0-0.3,0-0.7-0.1-0.9c-0.6-1.1-0.2-2.5-1-3.6c-0.1-0.1,0-0.2-0.1-0.2
			c-0.1-1.1-0.1-2.2-0.5-3.2c-0.1-0.4-0.1-0.9-0.1-1.4c-0.1-0.5-0.2-0.9-0.2-1.4c0-0.5-0.2-0.8-0.7-0.7c-0.7,0.1-1.2-0.2-1.7-0.7
			c-0.1-0.1-0.2-0.2-0.4-0.3c-0.9-0.4-1.7-0.7-2.6-1c-0.2-0.1-0.5-0.3-0.7-0.4c-0.3-0.2-0.7-0.4-1-0.6c-0.4-0.3-0.9-0.6-1.4-0.9
			c-0.2-0.1-0.3-0.2-0.5-0.3c-1.1-0.3-2.3-0.5-3-1.5c-0.1-0.1-0.2-0.1-0.3-0.2c-0.7-0.3-1.5-0.6-2.2-1c-0.4-0.2-0.7-0.6-1-0.7
			c-0.9-0.4-1.8-0.7-2.7-1.2c-1-0.5-1.9-1.2-3-1.5c-0.9-0.2-1.8-0.9-2.7-1.3c-0.9-0.4-1.7-0.7-2.5-1.2c-0.7-0.3-1.2-0.7-2-1
			c-0.5-0.2-0.9-0.7-1.5-0.7c-0.2,0-0.4-0.4-0.7-0.6c-0.1-0.1-0.3-0.2-0.4-0.2c-1.3,0.1-2.2-0.8-3.3-1.2c-0.8-0.3-1.5-0.8-2.3-1.2
			c-0.6-0.3-1.2-0.5-1.8-0.9c-0.6-0.4-1.2-0.8-1.8-1.2C2.8,105.3,2.6,105.2,2.3,105.1z M76.5,78.6c-0.4-0.6-0.3-1.1,0.1-1.7
			c0.1-0.2,0.2-0.4,0.2-0.6c0.1-0.7,0.2-1.4,0.4-2.1c0.1-0.4,0.4-0.7,0.7-1c0.1-0.1,0.2-0.1,0.2-0.2c0.3-0.7,0.6-1.4,0.9-2
			c0.2-0.4,0.5-0.7,0.9-0.7c0.2,0,0.7,0.2,0.7,0.4c0.1,0.4-0.1,0.7-0.1,1.1c-0.1,0.2-0.2,0.4-0.3,0.6c-0.3,0.9-0.7,1.7-0.7,2.7
			c0,0.1-0.1,0.3-0.2,0.4c-0.2,0.5-0.6,0.9-0.8,1.4c-0.1,0.2,0,0.4,0.1,0.6c0.1,0.4,0.4,0.7,0.4,1c0,0.4,0.2,0.6,0.5,0.6
			c0.7,0.1,1.5,0.2,2.2,0.4c0.9,0.2,1.9,0.2,2.7,0.6c1.2,0.4,1.7,0.1,1.7-1.2c0-0.1,0-0.2,0-0.3c0.6-1.9,0.9-3.9,2.4-5.4
			c0.2-0.2,0.6-0.3,0.8-0.3c0.1,0.1,0.3,0.4,0.3,0.7c0,0.9,0.2,1.9-0.4,2.7c-0.1,0.1,0,0.2-0.1,0.2c-0.4,1-0.7,2.2-1.1,3.1
			c-0.2,0.6-0.2,1,0.2,1.5c0.5,0.6,1.3,0.4,1.9,0.7c0.4,0.2,0.8,0.4,1.2,0.6c0.2,0.1,0.4,0.2,0.6,0.2c0.6,0,1,0.2,1.3,0.6
			c0.1,0.1,0.3,0.3,0.4,0.4c0.6,0.2,1.2,0.4,1.8,0.6c0.5,0.2,1,0.4,1.4,0.7c1.2,1,1.6,2.5,2,3.9c0.2,0.9,0.2,1.7,0.4,2.7
			c0.2-0.1,0.4-0.1,0.7-0.2c0.4-0.1,0.8-0.4,1.3-0.4c0.6-0.1,1.3-0.2,1.9-0.2c0.9,0,1.9,0,2.6,0.7c0.2,0.2,0.6,0.4,0.9,0.6
			c1.2,0.6,1.4,1.8,2,2.7c0.1,0.1,0,0.2,0.1,0.4c0.1,1.4-0.3,2.5-1,3.7c-0.6,1-1.2,1.9-2.3,2.4c-0.6,0.3-0.7,1.2-0.1,1.4
			c0.9,0.4,1.1,1.2,1.4,2c0.1,0.4,0.4,0.6,0.7,0.5c0.4-0.1,0.8-0.4,1.2-0.6c0.3-0.1,0.6-0.4,0.9-0.5c0.7-0.2,1.4-0.2,1.9-1
			c0.1-0.1,0.3-0.2,0.5-0.3c0.6-0.3,1.2-0.6,1.8-0.9c1-0.6,1.9-1.1,2.9-1.7c0.1-0.1,0.2-0.2,0.3-0.3c0.7-0.8,1.4-1.7,2-2.5
			c0.6-0.6,1.2-1.1,1.7-1.7c0.1-0.1,0.1-0.2,0.2-0.3c0.3-0.7,0.6-1.5,1-2.2c0.2-0.4,0.3-0.9,0.6-1.1c0.5-0.5,0.7-1.1,0.7-1.7
			c0-0.9-0.2-1.9-0.4-2.8c-0.1-0.9-0.6-1.8-1-2.7c-0.1-0.2-0.2-0.3-0.4-0.5c-0.2-0.2-0.4-0.4-0.5-0.7c-0.4-1-1-1.8-2-2.2
			c-0.3-0.1-0.6-0.4-0.9-0.6c-0.5-0.4-0.5-1,0-1.5c0.1-0.1,0.3-0.2,0.3-0.4c0.2-1.3,0.5-2.6,0.7-3.9c0.1-0.4-0.1-0.7-0.1-1.1
			c0.2-1.2-0.3-2.2-0.8-3.1c-0.4-0.7-0.9-1.4-1.3-2c-0.6-1.4-2-2.2-3-3.1c-0.8-0.7-1.9-1.1-3-1.4c-1.2-0.3-2.2-1.3-3.5-1.3
			c-0.1,0-0.2-0.1-0.3-0.1c-1-0.8-2.4-0.6-3.3-1.6c-0.1-0.1-0.2-0.1-0.2-0.1c-1.4-0.3-2.9-0.6-4.3-1c-0.2-0.1-0.4-0.2-0.6-0.3
			c-0.1-0.1-0.2-0.2-0.4-0.2c-0.7-0.1-1.4-0.1-2.1-0.2c-0.4-0.1-0.8-0.2-1.2-0.2c-0.9,0.1-1.7,0.1-2.5-0.2c-0.4-0.2-1,0.1-1.4-0.1
			c-0.7-0.2-1.4-0.1-2.2,0c-1.2,0.1-2.4,0.1-3.6,0.4c-0.6,0.2-1.4,0.1-2,0.2c-0.7,0.2-1.5,0.6-2.1,1c-1,0.7-2,1.5-3,2.3
			c-0.3,0.2-0.5,0.7-0.7,1c-0.2,0.4-0.4,0.7-0.7,1.1c-0.1,0.1-0.3,0.2-0.4,0.4c-0.4,0.9-1.2,1.6-1.4,2.7c0,0.1-0.1,0.2-0.2,0.3
			c-0.2,0.5-0.6,0.9-0.7,1.4c-0.5,1-0.9,2.1-1.4,3.1c-0.1,0.1-0.1,0.2-0.1,0.2c0.1,1.1-0.3,2.2-0.5,3.2c0,0.2-0.1,0.4-0.2,0.5
			c-0.6,0.6-0.4,1-0.1,1.5C73.5,78.6,75,78.6,76.5,78.6z M142.5,185.3c0.1,0,0.2-0.1,0.2-0.1c0.1-0.6,0.4-1,0.4-1.6
			c0.2-1,0.4-2.2,0.6-3.2c0.1-0.7,0.3-1.3,0.4-2c0.1-0.2,0.1-0.3,0.1-0.5c0.2-1.7,0.9-3.3,1.1-4.9c0.2-1.6,0.7-3.1,1.1-4.7
			c0.1-0.2,0.1-0.3,0.1-0.5c0.1-0.9,0-2,0.3-2.8c0.5-1.2,0.1-2.3,0.3-3.5c0.2-1.2,0.1-2.6,0.1-3.8c0-0.7,0.1-1.4,0.1-2
			c0-1,0.1-2.1-0.4-3c-0.1-0.1,0-0.4,0-0.6c0-0.1,0.1-0.2,0-0.4c-0.4-1.2-0.7-2.5-1-3.7c-0.2-0.6-0.3-1.2-0.6-1.7
			c-0.4-0.7-0.8-1.4-1.5-1.7c-0.2-0.1-0.2-0.4-0.4-0.5c-0.6-0.6-1.2-1.3-1.9-1.9c-0.4-0.4-1.2-0.6-1.5-1c-0.4-0.8-1.2-1-1.9-1.5
			c-1-0.7-2.1-1.4-3.1-2c-1.1-0.7-2.2-1.5-3.3-2.1c-0.6-0.3-1.2-0.4-1.8-0.7c-1.3-0.9-2.9-1-4.1-2c-0.1-0.1-0.2,0-0.2-0.1
			c0.5,0.6,0.7,1.3,0.6,2.1c0,0.1,0.1,0.1,0.1,0.1c0.1,0.4,0.2,0.7,0.3,1.2c0.1,0.3,0.1,0.6,0.2,0.9c0.5,1,1,2.2,0.9,3.4
			c0,0.1,0.1,0.2,0.2,0.4c0.2,0.5,0.4,0.9,0.5,1.4c0.1,0.6,0.1,1.1,0.1,1.7c0.1,0.6,0.2,1.3,0.3,1.9c0.1,0.4-0.1,0.9,0.1,1.4
			c0.4,1.5,0.6,3,0.3,4.6c-0.1,0.4,0.1,0.7,0.1,1.2c0,0.4,0.1,0.7,0.1,1.1c-0.1,0.8-0.1,1.6-0.3,2.3c-0.1,0.4-0.3,0.9-0.6,1.1
			c-0.4,0.4-0.4,0.6-0.3,1.1c0.1,0.3,0.1,0.7,0.1,1c-0.1,0.6-0.4,1-0.5,1.6c-0.2,1.5-1.3,2.5-1.9,3.8c-0.2,0.4-0.5,0.9-0.8,1.2
			c-0.7,0.7-1.4,1.4-2.2,2.1c-0.2,0.2-0.4,0.2-0.7,0.3c-0.1,0.1-0.4,0.1-0.4,0.1c-0.7,1-2,0.9-3,1.4c-0.9,0.4-1.8,0.4-2.6,0.2
			c0.6,0.4,1.2,0.9,1.9,1.5c0.1,0.1,0.2,0.1,0.3,0.1c1,0.1,1.6,1,2.5,1.4c0.1,0,0.1,0.1,0.1,0.1c0.1,0.7,0.7,0.7,1.2,0.7
			c1.2,0.2,2.2,0.7,3.1,1.5c0.4,0.4,0.9,0.8,1.4,0.9c1.2,0.1,2,1,3.1,1.4c0.2,0.1,0.3,0.3,0.4,0.4c0.2,0.2,0.4,0.3,0.7,0.5
			c0.8,0.5,1.9,0.7,2.5,1.5c0.2,0.2,0.5,0.3,0.7,0.4c0.5,0.1,1,0.1,1.4,0.4c0.7,0.6,1.5,1.1,2.4,1.4c1,0.3,1.9,0.9,2.8,1.4
			c0.3,0.2,0.6,0.4,0.9,0.6C141.9,184.8,142.2,185.1,142.5,185.3z M51.6,148.6c-0.2,0.1-0.4,0.1-0.6,0.1c-0.4,0.2-0.9,0.5-1.3,0.8
			c-0.2,0.1-0.3,0.6-0.2,0.7c0.4,1.5,0.7,3,0.5,4.6c0,0.1,0.1,0.4,0.1,0.5c0.7,0.6,0.8,1.4,0.6,2c-0.2,0.8,0.1,1.4,0.3,2
			c0.2,0.9,0.6,1.8,0.7,2.7s0.2,1.9,0.4,2.7c0.3,1.4,0.9,2.7,0.9,4.1c0.1,1,0.4,1.9,0.3,2.8c0,1.2,0.3,2.4,0.5,3.6
			c0.1,0.5,0.1,1,0.2,1.4c0.2,0.5,0.3,0.9,0.2,1.4c-0.1,0.2,0.2,0.7,0.2,0.7c0.6,0,1.2-0.1,1.9-0.2c0.5-0.1,0.9-0.3,1.4-0.4
			c0.3-0.1,0.7-0.1,1-0.2c1.2-0.4,2.5-0.9,3.7-1.3c0.9-0.3,1.9-0.5,2.8-0.8c1.2-0.4,2.2-0.9,3.5-0.7c0.1,0,0.2-0.1,0.2-0.1
			c0.4-0.2,0.9-0.4,1.3-0.5c0.4-0.1,0.9-0.2,1.4-0.3c1.4-0.4,2.7-1.2,4.2-1c0.1,0,0.2-0.1,0.3-0.1c0.6-0.2,1.2-0.4,1.9-0.6
			c0.9-0.2,1.7-0.4,2.6-0.6c0.5-0.1,1-0.1,1.5-0.2c0.1,0,0.3,0,0.4-0.1c0.9-0.4,1.7-0.9,2.8-0.9c0.1,0,0.1-0.1,0.2-0.1
			c0.5-0.2,1-0.4,1.5-0.6c0.4-0.1,0.8,0,1.2-0.1c1.4-0.4,2.9-0.8,4.3-1.2c0.9-0.2,1.8-0.3,2.7-0.6c0.7-0.2,1.5-0.3,2.3-0.7
			c1-0.6,2.3-0.6,3.5-0.9c0.7-0.2,1.6,0,2.3-0.7c-1-0.5-2-1-3-1.5c-0.5-0.2-0.9-0.5-1.2-0.9c-0.3-0.3-1-0.6-1.5-0.4
			c-1,0.2-1.7,1-2.3,1.7c-1,1-2.2,1.5-3.5,1.7c-0.9,0.1-1.8-0.2-2.7-0.4c-0.5-0.1-1-0.2-1.5-0.4c-0.9-0.4-1.5-0.4-2.2,0.3
			c-0.2,0.2-0.6,0.3-0.9,0.4c-0.6,0.1-1.1,0.2-1.6,0.4c-0.9,0.4-1.8,0.4-2.7,0.1c-0.1-0.1-0.3-0.1-0.4-0.1c-1.7,0.4-2.7-0.9-3.9-1.6
			c-0.1-0.1-0.2-0.4-0.3-0.6c-0.3-0.5-0.6-1-1-1.4c-0.6-0.5-1-1.4-0.7-2.1c0.4-0.8,1-1.5,1.5-2.3c0.5-0.9,1-1.7,1.6-2.5
			c0.6-0.7,1-1.6,1.9-2c0.4-0.2,0.7-0.5,1.2-0.9c-0.2-0.2-0.4-0.4-0.5-0.4c-1-0.3-1.7-1.2-2.5-1.9c-0.4-0.3-0.9-0.7-1.5-0.6
			c-0.2,0.1-0.4,0-0.6-0.1c-0.9-0.6-1.8-1.1-2.7-1.6c-0.7-0.4-1.3-0.8-2-1.2c-0.7-0.4-1.4-0.7-2.2-1c-0.4-0.2-0.8-0.5-1.2-0.7
			c-0.6-0.4-1.1-0.9-1.7-1.2c-0.9-0.4-1.8-0.7-2.7-1.1c-0.1-0.1-0.2,0-0.2,0c-0.4,1.2-0.7,2.3-1.1,3.5c-0.1,0.2-0.2,0.3-0.4,0.4
			c-0.1,0.1-0.4,0.1-0.4,0.3c-0.5,0.9-1.2,1.7-2.2,2.2c-1.1,0.6-2.1,1.4-3.2,2c-0.7,0.4-1.5,0.4-2.3,0.6c-0.2,0-0.4-0.2-0.6-0.2
			c-0.1-0.1-0.2-0.2-0.4-0.2c-1-0.4-1.4-1.3-1-2.3C51.3,149.3,51.4,149.1,51.6,148.6z M98.9,93.9c-0.4-0.4-0.7-0.7-1.1-1
			c-0.1-0.1-0.2-0.1-0.3-0.1c-0.2-0.2-0.5-0.4-0.6-0.7c-0.2-0.5-0.2-1-0.4-1.5c-0.2-0.8-0.2-1.7-0.6-2.4c-0.2-0.7-0.6-1.3-1.5-1.4
			c-0.2,0-0.4-0.2-0.7-0.3c-0.7-0.4-1.4-1-2.3-1.3c-0.7-0.2-1.4-0.6-2.1-0.9c-0.8-0.3-1.5-1-2.4-0.9c-0.1,0-0.3-0.1-0.5-0.2
			c-0.9-0.3-1.9-0.6-2.8-0.9C83,82,82.2,82,81.5,81.8c-0.8-0.2-1.6-0.6-2.4-0.5c-1.3,0.1-2.5-0.7-3.8-0.4c-0.1,0-0.2-0.1-0.4-0.1
			c-0.6-0.1-1-0.1-1.6-0.1c-0.2,0-0.4,0.2-0.4,0.4c-0.3,1-0.6,2-0.9,3c-0.1,0.3-0.2,0.6-0.2,0.9c-0.2,0.6-0.3,1-0.5,1.6
			c-0.1,0.2-0.2,0.6-0.2,0.8c-0.4,1.6-0.7,3.1-1.1,4.7c0,0.1,0,0.2,0,0.4c0.1,0.3,0.1,0.7,0.1,1c0.1,0.6-0.1,1.4,0.2,1.9
			c0.7,1.1,1.2,2.3,2.2,3.3c0.6,0.6,1.4,0.7,1.9,1.2c0.3,0.2,0.7,0.4,1,0.6c0.7,0.5,1.4,1.4,2.4,1.4c0.3,0,0.7,0.2,0.9,0.4
			c0.5,0.3,0.9,0.6,1.5,0.4c0.2-0.1,0.6,0.1,0.9,0.2c0.5,0.2,1,0.5,1.5,0.6c1.7,0.4,3.4,0.6,5.1,0.9c0.8,0.1,1.1,0.6,1.2,1.4
			c0,0.3,0,0.7,0.1,1c0.2,0.7,0.4,1.4,0.6,2c0.1,0.2,0.1,0.4,0.2,0.5c0.8,0.7,1.6,1.5,2.5,2.2c0.3,0.2,0.6,0.5,1,0.7
			c0.2,0.1,0.4,0.2,0.6,0.2c0.5,0.1,1-0.1,1.5,0.1c0.6,0.2,1.2,0.6,1.9,0.1c0.1-0.1,0.1,0,0.2,0c0.6-0.1,1.3-0.1,1.9-0.2
			c0.3-0.1,0.6-0.2,0.9-0.4c0.6-0.2,1.1-0.7,1.7-0.8c0.7-0.1,1.2-0.5,1.7-0.9c0.2-0.2,0.2-0.5,0.3-0.7c0.2-1.2-0.2-2.6,0.9-3.6
			c-0.3-0.4-0.7-0.7-0.9-1.1c-0.2-0.4-0.3-0.9-0.5-1.3c0-0.1-0.1-0.1-0.2-0.2c-1-0.6-1-1.5-1-2.5c0.1-0.6,0.3-1,0.9-1.3
			c0.2-0.1,0.4-0.2,0.6-0.4c0.5-0.4,1-0.9,1.5-1.3c0.6-0.4,0.9-0.9,0.7-1.7c-0.1-0.6-0.1-1.3-0.3-1.9c-0.2-0.5-0.6-1.2-1-1.4
			c-1.2-0.3-2.4-0.9-3.6-0.1c-0.2,0.1-0.4,0-0.7,0.1C99.9,93.2,99.4,93.2,98.9,93.9z M82.3,164.4c0.1,0.1,0.1,0.1,0.1,0.2
			c0.2,0,0.5,0,0.6-0.1c1-0.6,2.5-0.2,3.4-1.3c0.1-0.1,0.1-0.1,0.2-0.1c1-0.1,1.9,0.1,2.8,0.6c0.3,0.2,0.8,0.2,1.2,0.2
			c0.2,0,0.4-0.1,0.6-0.1c1.4-0.1,2.8-0.5,3.7-1.7c0.1-0.1,0.2-0.2,0.3-0.2c0.6-0.2,0.8-0.7,0.7-1.2c0-0.2-0.1-0.4-0.2-0.5
			c-0.2-0.7-0.4-1.4-0.6-2c-0.1-0.3-0.2-0.6-0.4-0.9c-0.3-0.4-0.7-0.9-1-1.2c-0.2-0.2-0.4-0.5-0.6-0.6c-0.9-0.4-1.7-0.7-2.6-1
			c-0.7-0.2-1.5-0.5-2.2-0.4c-1.1,0.1-2.3-0.1-3.4,0.5c-0.9,0.4-1.9,0.6-2.8,0.9c-0.9,0.3-1.7,0.6-2.4,1.4c-0.4,0.4-0.8,0.7-1.1,1.2
			c-0.7,1.1-1.2,2.3-1.9,3.4c-0.2,0.3-0.4,0.6-0.6,0.9c0.6,0.6,0.7,0.1,1-0.2c0.2-0.2,0.4-0.5,0.6-0.7c0.4-0.5,0.9-0.9,1.3-1.4
			c0.3-0.4,0.7-0.7,1.2-0.6c0.4,0.1,0.8,0.2,0.9,0.7c0.1,0.6-0.2,0.9-0.6,1.3c-0.2,0.2-0.6,0.4-0.7,0.6c-0.3,0.8-0.7,1.4-1.3,2
			c-0.1,0.1-0.1,0.2-0.2,0.4c0.4,0.2,0.8,0.2,1-0.2c0.1-0.1,0.2-0.2,0.4-0.4c0.7-0.6,1.5-1.3,2.3-1.9c0.1-0.1,0.2-0.2,0.2-0.4
			c0.3-0.6,1.4-1.1,2-1c0.4,0.1,0.8,0.3,0.6,0.7c-0.2,0.6-0.6,1-0.9,1.5C83.5,163.1,82.8,163.7,82.3,164.4z M53.2,150.4
			c0.9-0.5,1.6-1,2.4-1.4c0.4-0.2,0.9-0.5,1.4-0.6c0.8-0.1,1.2-0.6,1.6-1.2c0.4-0.8,0.9-1.5,1.2-2.4c0.2-0.6,0.8-1,0.6-1.7
			c-0.1-0.4-0.2-0.9-0.2-1.2c-0.2-1.3-0.9-2.3-1.7-3.3c-0.3-0.4-0.7-0.9-1.2-1c-0.9-0.3-1.8-1.2-3-0.6h-0.1
			c-0.9,0.1-1.7,0.2-2.6,0.4c-0.7,0.1-1.4,0.4-2,0.6c-0.1,0.1-0.3,0.1-0.4,0.2c-0.5,0.6-1,1.1-1.4,1.5c0,0.6,0,1.1,0,1.5
			c0,0.2,0.1,0.6,0.2,0.7c0.4,0.4,0.6,0.9,0.5,1.5c-0.1,0.3,0.1,0.6,0.1,0.9c0.4-0.2,0.7-0.5,1-0.6c0.4-0.1,0.9,0,1.3,0.2
			c0.4,0.3,0.1,0.7-0.1,1c-0.3,0.4-0.7,0.8-1.1,1.2c-0.2,0.3-0.6,0.6-0.2,1.2c0.4-0.2,0.7-0.4,1-0.6c0.2-0.1,0.3-0.2,0.5-0.2
			c0.6,0,1-0.4,1.5-0.8c0.4-0.4,0.9-0.7,1.5-0.9c0.5-0.2,0.9,0,1.2,0.5c0.2,0.4,0.2,0.9-0.2,1.2c-0.9,0.5-1.1,1.4-1.6,2.2
			C52.9,149.3,53,149.9,53.2,150.4z M47.3,137.3c0.6-0.5,1.2-1,1.8-1.5c-0.9-0.6-1.5-1-2.3-1.4c-0.1,0.1-0.1,0.1-0.2,0.1
			C46.8,135.4,47.1,136.4,47.3,137.3z"/>
		<path class="st1" d="M87.2,109.8c0.2,0.9,0.8,1.4,1.5,1.5c0.1,0,0.2,0.1,0.3,0.2c0.6,1,1.6,1.5,2.5,1.9c0.9,0.4,1.7,0.7,2.6,1.2
			c0.5,0.2,1.3,0.1,1.9,0c0.2,0,0.4-0.1,0.6,0c0.5,0.2,0.9,0.2,1.4,0.1c1.1-0.3,2.2-0.5,3.3-0.8c0.7-0.2,1.3-0.7,1.9-1
			c0.4-0.2,0.7-0.4,1.1-0.6c0.6-0.4,1.2-0.8,1.9-1.2c1,0.7,1.8,2,3.5,2.2c0.2,1,1.2,1.3,1.9,1.9c0.6,0.6,1.3,1.2,1.8,1.9
			c0.6,0.7,1.2,1.4,1.9,2.1c0.1,0.2,0.2,0.4,0.4,0.5c0.3,0.4,0.7,0.9,1,1.3c0,0.1,0.1,0.1,0.1,0.1c0.1,1.1,1.2,1.5,1.5,2.6
			c0.1,0.3,0.4,0.6,0.6,0.8c0.2,0.3,0.6,0.6,0.8,0.9c0.3,0.4,0.6,0.9,0.9,1.4c0.5,0.7,0.7,1.4,1,2.2c0.2,0.6,0.9,1.1,1.1,1.7
			c0.2,0.6,0.2,1.4,0.4,1.9c0.2,0.5,0.7,0.9,0.6,1.6c0,0.1,0,0.1,0,0.1c0.6,0.6,0.5,1.5,1,2.3c0.2,0.3,0.2,0.8,0.4,1.2
			c0.2,0.9,0.1,2,0.7,2.8c0.1,0.1,0.1,0.3,0.1,0.4c-0.4,0.9,0.1,1.7,0.3,2.5c0.1,0.2,0.1,0.4,0.1,0.6c0.1,0.6-0.1,1.1,0.1,1.6
			c0.4,1,0.3,2,0.4,3c0.1,0.9,0.2,1.7,0.2,2.6c0,0.5-0.1,1-0.1,1.5c0,0.1-0.1,0.2-0.1,0.3c0.1,1,0,2.1-0.3,3.1
			c-0.1,0.2,0.1,0.6,0.2,0.7c0.2,0.4,0.2,0.7-0.2,1c-0.4,0.3-0.6,0.7-0.6,1.2c0,0.2-0.2,0.5-0.3,0.7c-0.4,0.9-0.7,1.8-1.2,2.6
			c-0.2,0.4-0.4,0.8-0.7,1.2c-0.7,0.9-1.4,1.8-2.3,2.5c-0.7,0.6-1.5,0.7-2.1,1.2c-0.2,0.2-0.6,0.1-0.9,0.1c-1,0.1-2,0.2-3,0.3
			c-0.8,0.1-1.2,0.4-1.2,1.4c-0.6-0.3-1-0.7-1.5-0.9c-1-0.3-1.8-0.9-2.6-1.5c-0.7-0.5-1.6-0.8-2.4-1.2c-0.4-0.2-0.7-0.4-1-0.6
			c-0.2-0.1-0.3-0.2-0.5-0.3c-1.2-0.2-2-0.9-3-1.5c-0.7-0.4-1.4-0.9-2-1.3c-0.1-0.1-0.2-0.1-0.3-0.1c-0.9,0.1-1.5-0.7-2.1-1
			c-0.3-0.2-0.5-0.7-0.6-1.1c-0.1-0.9-0.3-1.8-1-2.5c-0.2-0.2-0.4-0.6-0.5-0.9c-0.3-0.9-0.6-1.7-1.6-2c-0.1,0-0.2-0.1-0.3-0.2
			c-0.7-0.7-1.4-1.5-2.5-1.6c0-0.1,0-0.1,0.1-0.2c0.5-0.1,1-0.1,1.5-0.1c1.2,0.1,2.3,0.2,3.5,0.3c1.1,0.1,2.2,0.3,3.3,0.6
			c1,0.2,2,0.7,3.1,1c1,0.2,1.9,0.5,2.9,0.6c0.6,0.1,0.9-0.3,1-0.8c0.2-0.5,0.1-1-0.4-1.3c-0.3-0.2-0.6-0.4-0.9-0.5
			c-1-0.2-2-0.4-3-0.7c-0.2-0.1-0.6-0.2-0.8-0.3c-0.2-0.1-0.4-0.2-0.6-0.2c-0.7,0.2-1.3-0.2-1.9-0.4c-0.9-0.2-1.7-0.3-2.6-0.4
			c-0.9-0.1-1.9-0.3-2.7-0.3c-1.2,0.1-2.4-0.2-3.5,0.4c-0.2,0.1-0.4,0.1-0.6,0.1c-1.1,0.1-1.4,0.5-1.2,1.8c-0.4-0.1-0.8-0.2-1.2-0.3
			c-0.6-0.1-1.2-0.1-1.9-0.1c-1,0.1-2,0.2-3.1,0.2c-0.3,0-0.7-0.3-1-0.5c-0.4-0.2-0.8-0.5-1.2-0.7c-0.3-0.2-0.6-0.4-0.9-0.6
			c-0.6-0.2-1.2-0.4-1.8-0.6c-0.7-0.2-1.4-0.4-1.8-1.2c-0.1-0.2-0.3-0.3-0.5-0.4c-1-0.5-2.1-1-3.1-1.5c-0.2-0.1-0.4-0.3-0.4-0.5
			c-0.1-0.4-0.1-0.8,0.1-1.2c0.1-0.6,0.4-1.2,0.5-1.8c0.1-0.5,0.1-1,0.2-1.5c0.4-1.5,0.7-3.1,0.7-4.7c0-0.5,0.2-1,0.4-1.5
			c0.2-0.7,0.4-1.4,0.6-2.1c0-0.1,0-0.1,0-0.1c-0.3-1,0.2-1.7,0.5-2.7c0.1-0.4,0-0.9,0.1-1.4c0.1-0.9,0.4-1.7,0.6-2.5
			c0.1-0.5-0.2-1-0.6-1.1c-0.4-0.1-0.9,0.2-1,0.7c-0.3,1.1-0.7,2.3-1,3.4c0,0.1-0.1,0.1-0.1,0.2c0.1,1.5-0.7,2.9-1,4.4
			c-0.1,0.4,0,0.8-0.1,1.2c-0.2,1-0.6,2.1-0.7,3.2c-0.2,0.8-0.2,1.6-0.4,2.4c-0.1,0.8-0.3,1.5-0.4,2.3c-0.1,0.3-0.1,0.6-0.1,0.9
			c0,0.6-0.2,0.7-0.7,0.4c-0.9-0.4-1.7-0.9-2.6-1.4c-0.3-0.2-0.7-0.2-1-0.4c-0.7-0.5-1.5-1-2.2-1.5c-0.4-0.2-1-0.4-1.4-0.7
			c-0.4-0.2-0.8-0.6-0.9-1c-0.2-0.7-0.2-1.4-1-1.7c-0.1,0-0.1-0.1-0.1-0.1c-0.2-1.2-1.3-1.5-2.2-2.1c-0.2-0.1-0.4-0.4-0.6-0.6
			c0.2-0.2,0.4-0.3,0.5-0.5c0.7-0.6,1.3-1,2-1.6c0.2-0.2,0.6-0.4,0.9-0.6c0.2-0.1,0.4-0.2,0.5-0.4c0.6-1,1.5-1.7,2.3-2.5
			c0.6-0.6,1.2-1.2,1.4-2.2c0.1-0.4,0.6-0.6,0.9-0.9c0.3-0.4,0.6-0.7,0.8-1.1c0.1-0.2,0.3-0.4,0.4-0.7c0.2-0.4,0.4-0.7,0.5-1.2
			c0.1-0.3,0.1-0.6,0.4-0.6c0.2-0.1,0.5-0.2,0.6-0.4c0.5-0.7,0.9-1.5,1.4-2.3c0.2-0.4,0.6-0.7,0.9-1c0.7-0.7,1.5-1.5,2.2-2.2
			c0.9-0.8,1.7-1.6,2.7-2.3c0.7-0.5,1.6-0.7,2.3-1.2c1.2-0.9,2.5-1.4,3.9-1.9c0.7-0.3,1.4-0.7,2.1-1
			C85.5,110.4,86.4,110.1,87.2,109.8z"/>
		<path class="st2" d="M2.3,105.1c0.3,0.1,0.5,0.2,0.7,0.2c0.6,0.4,1.2,0.9,1.8,1.2c0.6,0.3,1.2,0.6,1.8,0.9
			c0.7,0.4,1.5,0.9,2.3,1.2c1.1,0.4,2,1.4,3.3,1.2c0.1,0,0.3,0.2,0.4,0.2c0.2,0.2,0.4,0.5,0.7,0.6c0.6,0.1,1,0.6,1.5,0.7
			c0.7,0.2,1.3,0.6,2,1c0.8,0.4,1.7,0.8,2.5,1.2c0.9,0.4,1.7,1,2.7,1.3c1.1,0.3,2,0.9,3,1.5c0.9,0.4,1.8,0.7,2.7,1.2
			c0.4,0.2,0.7,0.5,1,0.7c0.7,0.4,1.5,0.6,2.2,1c0.1,0.1,0.2,0.1,0.3,0.2c0.7,1,1.9,1.3,3,1.5c0.2,0.1,0.4,0.2,0.5,0.3
			c0.4,0.3,0.9,0.6,1.4,0.9c0.3,0.2,0.7,0.4,1,0.6c0.2,0.1,0.5,0.3,0.7,0.4c0.9,0.4,1.7,0.7,2.6,1c0.1,0.1,0.2,0.2,0.4,0.3
			c0.4,0.5,1,0.7,1.7,0.7c0.6-0.1,0.7,0.2,0.7,0.7c0,0.5,0.1,0.9,0.2,1.4c0.1,0.4-0.1,0.9,0.1,1.4c0.4,1,0.4,2.2,0.5,3.2
			c0,0.1,0,0.2,0.1,0.2c0.8,1,0.4,2.5,1,3.6c0.1,0.2,0.1,0.6,0.1,0.9c0,0.2,0,0.3,0,0.5c0.2,1.2,0.3,2.5,0.7,3.6
			c0.3,0.9,0.5,1.6,0.3,2.5c-0.1,0.4,0.4,0.9,0.4,1.4c0.2,1,0.3,2,0.6,3.1c0.2,0.9,0.5,1.9,0.7,2.8c0.1,0.4-0.1,0.7,0,1.1
			c0.2,1.2,0.2,2.5,0.9,3.6c0.1,0.1,0,0.3-0.1,0.4c-0.6,0.7-0.4,1.5,0,2.2c0.4,0.6,0.4,1.2,0.4,1.8c0.1,1.2,0.1,2.5,0.6,3.6
			c0.3,0.8,0.4,1.7,0.6,2.6c0.1,0.6,0.3,1.3,0.4,1.9c0.1,0.4,0.1,0.8,0.1,1.2c0.1,0.3,0,0.7,0.2,0.9c0.4,0.5,0.4,0.9,0.3,1.5
			c-0.1,0.2,0,0.6,0.1,0.9c0.1,0.6,0.4,1.1,0.4,1.7c0.1,0.9,0.1,1.9,0.6,2.7c0.3,0.6,0.4,1.2,0.5,1.9c0,0.1-0.1,0.2-0.1,0.2
			c-0.2-0.1-0.4-0.4-0.6-0.4c-0.7-0.2-1.6-0.3-2-1.2c-0.1-0.1-0.3-0.2-0.4-0.2c-1.1-0.1-1.8-0.9-2.7-1.4c-1-0.5-1.9-1-2.9-1.6
			c-0.5-0.2-1-0.6-1.5-0.8c-0.1,0-0.1-0.1-0.1-0.1c-1,0-1.5-0.7-2.1-1.4c-0.1-0.1-0.3-0.2-0.4-0.2c-0.9,0.1-1.4-0.7-2.1-1
			c-0.4-0.2-0.7-0.3-1-0.6c-0.4-0.3-0.9-0.7-1.4-1c-0.9-0.7-1.9-1.2-3-1.7c-0.6-0.2-1.1-0.7-1.7-1c-0.6-0.3-1.1-0.7-1.7-0.8
			c-0.6-0.1-1-0.3-1.4-0.7c-0.6-0.7-1.5-0.9-2.4-1.2c-0.8-0.3-1.8-0.4-2.4-1.3c-0.4-0.6-1.4-0.9-2.2-1.3c-0.6-0.3-1.2-0.4-1.8-0.7
			c-0.4-0.2-0.8-0.6-1.2-0.8c-0.1-0.1-0.2-0.1-0.4-0.2c-1.1-0.1-1.9-0.7-2.7-1.4c-0.1-0.1-0.2-0.2-0.4-0.2c-1-0.1-1.5-0.8-1.9-1.5
			c-0.2-0.4-0.1-1-0.1-1.6c-0.1-1.5-0.4-2.9-1-4.3c-0.1-0.1-0.1-0.3-0.1-0.4c0.2-0.7,0.1-1.2-0.3-1.9c-0.1-0.2-0.1-0.5-0.1-0.7
			c0-0.3,0.1-0.7-0.1-0.9c-0.6-0.9-0.5-2-0.6-3c-0.1-0.5-0.2-1-0.3-1.5c-0.1-0.8-0.3-1.5-0.4-2.3c-0.1-0.2-0.1-0.4-0.1-0.6
			c-0.2-0.6-0.4-1.2-0.1-1.8c0.1-0.2,0.1-0.4,0-0.7c-0.2-1.5-0.5-3.1-0.8-4.6c-0.2-1.3-0.6-2.5-0.9-3.8c0-0.1-0.1-0.1-0.1-0.2
			c0.5-1.1-0.2-2.1-0.3-3.2c0-0.4-0.2-0.8-0.3-1.2c0-0.1-0.1-0.2-0.1-0.4c0.2-0.9-0.2-1.7-0.5-2.5c-0.2-0.7-0.4-1.4-0.5-2.2
			c-0.2-1.1,0.1-2.3-0.7-3.4c-0.2-0.3-0.2-0.9-0.2-1.3c0.1-1-0.4-1.9-0.7-2.7c-0.1-0.2-0.2-0.4-0.2-0.6c-0.1-0.8-0.1-1.7-0.4-2.4
			c-0.2-0.9-0.6-1.7-0.9-2.5C2.5,105.5,2.4,105.4,2.3,105.1z"/>
		<path class="st2" d="M76.5,78.6c-1.5,0-3.1,0-4.7,0c-0.3-0.5-0.5-1,0.1-1.5c0.1-0.1,0.2-0.3,0.2-0.5c0.2-1,0.6-2.1,0.5-3.2
			c0-0.1,0-0.2,0.1-0.2c0.4-1,0.9-2.1,1.4-3.1c0.2-0.5,0.5-0.9,0.7-1.4c0.1-0.1,0.2-0.2,0.2-0.3c0.1-1,1-1.7,1.4-2.7
			c0.1-0.2,0.2-0.2,0.4-0.4c0.2-0.4,0.5-0.7,0.7-1.1c0.2-0.4,0.4-0.8,0.7-1c0.9-0.8,1.9-1.6,3-2.3c0.6-0.4,1.4-0.8,2.1-1
			c0.6-0.2,1.4-0.1,2-0.2c1.2-0.4,2.4-0.3,3.6-0.4c0.7-0.1,1.4-0.2,2.2,0c0.4,0.1,1-0.1,1.4,0.1c0.9,0.3,1.7,0.3,2.5,0.2
			c0.4-0.1,0.7,0.1,1.2,0.2c0.7,0.1,1.4,0.1,2.1,0.2c0.1,0,0.2,0.1,0.4,0.2c0.2,0.1,0.4,0.2,0.6,0.3c1.4,0.3,2.9,0.7,4.3,1
			c0.1,0,0.2,0,0.2,0.1c0.8,1,2.3,0.9,3.3,1.6c0.1,0.1,0.2,0.1,0.3,0.1c1.3,0,2.2,1,3.5,1.3c1,0.2,2.2,0.6,3,1.4
			c1.1,1,2.4,1.7,3,3.1c0.3,0.7,0.9,1.4,1.3,2c0.5,1,0.9,2,0.8,3.1c-0.1,0.4,0.1,0.7,0.1,1.1c-0.2,1.3-0.4,2.6-0.7,3.9
			c0,0.1-0.2,0.2-0.3,0.4c-0.5,0.4-0.5,1,0,1.5c0.2,0.2,0.6,0.5,0.9,0.6c1,0.4,1.7,1.2,2,2.2c0.1,0.2,0.3,0.5,0.5,0.7
			c0.1,0.2,0.2,0.3,0.4,0.5c0.4,0.9,0.8,1.7,1,2.7c0.1,0.9,0.4,1.9,0.4,2.8c0,0.6-0.2,1.2-0.7,1.7c-0.3,0.3-0.4,0.7-0.6,1.1
			c-0.3,0.7-0.7,1.5-1,2.2c-0.1,0.1-0.1,0.2-0.2,0.3c-0.6,0.6-1.2,1.1-1.7,1.7c-0.7,0.8-1.4,1.6-2,2.5c-0.1,0.1-0.2,0.2-0.3,0.3
			c-1,0.6-1.9,1.1-2.9,1.7c-0.6,0.3-1.2,0.6-1.8,0.9c-0.2,0.1-0.4,0.1-0.5,0.3c-0.4,0.7-1.2,0.7-1.9,1c-0.3,0.1-0.6,0.3-0.9,0.5
			c-0.4,0.2-0.8,0.5-1.2,0.6c-0.3,0.1-0.6-0.1-0.7-0.5c-0.2-0.8-0.5-1.6-1.4-2c-0.6-0.3-0.5-1.1,0.1-1.4c1-0.5,1.7-1.5,2.3-2.4
			c0.7-1.1,1.1-2.3,1-3.7c0-0.1,0-0.3-0.1-0.4c-0.6-0.9-0.9-2.2-2-2.7c-0.3-0.2-0.7-0.4-0.9-0.6c-0.7-0.7-1.7-0.7-2.6-0.7
			c-0.6,0-1.3,0.1-1.9,0.2c-0.4,0.1-0.9,0.3-1.3,0.4c-0.2,0.1-0.5,0.2-0.7,0.2c-0.1-0.9-0.2-1.9-0.4-2.7c-0.4-1.4-0.8-2.9-2-3.9
			c-0.4-0.3-0.9-0.6-1.4-0.7c-0.6-0.2-1.2-0.4-1.8-0.6c-0.2-0.1-0.3-0.2-0.4-0.4c-0.4-0.4-0.7-0.6-1.3-0.6c-0.2,0-0.4-0.1-0.6-0.2
			c-0.4-0.2-0.8-0.4-1.2-0.6c-0.6-0.3-1.4-0.1-1.9-0.7c-0.4-0.5-0.4-0.9-0.2-1.5c0.4-1,0.7-2.1,1.1-3.1c0-0.1,0-0.2,0.1-0.2
			c0.6-0.8,0.4-1.7,0.4-2.7c0-0.2-0.1-0.7-0.3-0.7c-0.2-0.1-0.6,0.1-0.8,0.3c-1.5,1.5-1.9,3.5-2.4,5.4c0,0.1,0,0.2,0,0.3
			c0.1,1.3-0.4,1.6-1.7,1.2c-0.9-0.3-1.9-0.4-2.7-0.6c-0.7-0.1-1.5-0.2-2.2-0.4c-0.3-0.1-0.5-0.2-0.5-0.6c0-0.4-0.2-0.7-0.4-1
			c-0.1-0.2-0.1-0.4-0.1-0.6c0.2-0.5,0.6-0.9,0.8-1.4c0.1-0.1,0.2-0.3,0.2-0.4c0-1,0.4-1.8,0.7-2.7c0.1-0.2,0.2-0.4,0.3-0.6
			c0.1-0.4,0.2-0.7,0.1-1.1c0-0.2-0.4-0.3-0.7-0.4c-0.4,0-0.7,0.2-0.9,0.7c-0.3,0.7-0.6,1.4-0.9,2c-0.1,0.1-0.2,0.2-0.2,0.2
			c-0.2,0.3-0.6,0.6-0.7,1c-0.2,0.7-0.2,1.4-0.4,2.1c-0.1,0.2-0.1,0.4-0.2,0.6C76.2,77.5,76.2,78,76.5,78.6z"/>
		<path class="st2" d="M142.5,185.3c-0.3-0.2-0.6-0.6-0.9-0.8c-0.2-0.2-0.6-0.4-0.9-0.6c-0.9-0.5-1.8-1-2.8-1.4
			c-0.9-0.3-1.7-0.8-2.4-1.4c-0.3-0.3-0.9-0.2-1.4-0.4c-0.2-0.1-0.6-0.2-0.7-0.4c-0.6-0.9-1.6-1-2.5-1.5c-0.2-0.1-0.5-0.3-0.7-0.5
			c-0.2-0.1-0.2-0.4-0.4-0.4c-1.1-0.4-1.9-1.3-3.1-1.4c-0.5-0.1-1-0.5-1.4-0.9c-0.9-0.8-2-1.3-3.1-1.5c-0.6-0.1-1-0.1-1.2-0.7
			c0-0.1-0.1-0.1-0.1-0.1c-0.9-0.4-1.4-1.4-2.5-1.4c-0.1,0-0.2,0-0.3-0.1c-0.6-0.5-1.3-1-1.9-1.5c0.8,0.2,1.7,0.2,2.6-0.2
			c1-0.5,2.2-0.3,3-1.4c0.1-0.1,0.2-0.1,0.4-0.1c0.2-0.1,0.5-0.2,0.7-0.3c0.7-0.7,1.5-1.4,2.2-2.1c0.3-0.4,0.6-0.8,0.8-1.2
			c0.6-1.3,1.7-2.3,1.9-3.8c0.1-0.6,0.4-1,0.5-1.6c0.1-0.3,0-0.7-0.1-1c-0.1-0.4-0.1-0.7,0.3-1.1c0.3-0.2,0.5-0.7,0.6-1.1
			c0.2-0.8,0.2-1.5,0.3-2.3c0.1-0.4,0-0.7-0.1-1.1c0-0.4-0.2-0.8-0.1-1.2c0.2-1.5,0.1-3.1-0.3-4.6c-0.1-0.4,0-0.9-0.1-1.4
			c-0.1-0.7-0.2-1.3-0.3-1.9c-0.1-0.6-0.1-1.1-0.1-1.7c-0.1-0.5-0.3-1-0.5-1.4c-0.1-0.1-0.2-0.2-0.2-0.4c0.1-1.2-0.4-2.3-0.9-3.4
			c-0.1-0.2-0.1-0.6-0.2-0.9c-0.1-0.4-0.2-0.8-0.3-1.2c0-0.1-0.1-0.1-0.1-0.1c0.2-0.8-0.1-1.5-0.6-2.1c0.1,0,0.2,0,0.2,0.1
			c1.2,1,2.8,1.2,4.1,2c0.6,0.4,1.2,0.4,1.8,0.7c1.1,0.7,2.2,1.4,3.3,2.1c1,0.7,2.2,1.3,3.1,2c0.6,0.5,1.4,0.7,1.9,1.5
			c0.2,0.5,1,0.7,1.5,1c0.7,0.6,1.2,1.2,1.9,1.9c0.1,0.1,0.2,0.4,0.4,0.5c0.7,0.4,1.2,1,1.5,1.7c0.3,0.5,0.4,1.1,0.6,1.7
			c0.4,1.2,0.7,2.5,1,3.7c0.1,0.1,0,0.2,0,0.4c0,0.2-0.1,0.4,0,0.6c0.5,1,0.4,2,0.4,3c0,0.7-0.1,1.4-0.1,2c0,1.3,0.1,2.6-0.1,3.8
			c-0.2,1.2,0.2,2.3-0.3,3.5c-0.4,0.8-0.2,1.9-0.3,2.8c0,0.2-0.1,0.3-0.1,0.5c-0.4,1.6-0.9,3.1-1.1,4.7c-0.3,1.7-0.9,3.3-1.1,4.9
			c0,0.2-0.1,0.3-0.1,0.5c-0.1,0.7-0.3,1.3-0.4,2c-0.2,1-0.4,2.2-0.6,3.2c-0.1,0.6-0.3,1-0.4,1.6
			C142.6,185.3,142.5,185.3,142.5,185.3z"/>
		<path class="st2" d="M51.6,148.6c-0.2,0.4-0.4,0.6-0.5,0.9c-0.5,1-0.1,2,1,2.3c0.1,0.1,0.2,0.2,0.4,0.2c0.2,0.1,0.4,0.3,0.6,0.2
			c0.7-0.1,1.6-0.2,2.3-0.6c1.1-0.6,2.1-1.4,3.2-2c1-0.5,1.7-1.2,2.2-2.2c0.1-0.1,0.3-0.2,0.4-0.3c0.1-0.1,0.3-0.2,0.4-0.4
			c0.4-1.1,0.7-2.3,1.1-3.5c-0.1,0,0.1,0,0.2,0c0.9,0.4,1.8,0.7,2.7,1.1c0.6,0.3,1.1,0.8,1.7,1.2c0.4,0.2,0.7,0.5,1.2,0.7
			c0.7,0.4,1.4,0.7,2.2,1c0.7,0.4,1.3,0.7,2,1.2c0.9,0.6,1.8,1.1,2.7,1.6c0.2,0.1,0.4,0.2,0.6,0.1c0.6-0.1,1,0.2,1.5,0.6
			c0.8,0.6,1.5,1.5,2.5,1.9c0.1,0.1,0.2,0.2,0.5,0.4c-0.4,0.3-0.8,0.6-1.2,0.9c-0.9,0.5-1.4,1.3-1.9,2c-0.6,0.8-1.2,1.6-1.6,2.5
			c-0.4,0.8-1,1.5-1.5,2.3c-0.3,0.7,0.1,1.6,0.7,2.1c0.4,0.4,0.7,0.9,1,1.4c0.1,0.2,0.1,0.4,0.3,0.6c1.2,0.7,2.2,2,3.9,1.6
			c0.1,0,0.3,0.1,0.4,0.1c0.9,0.4,1.8,0.4,2.7-0.1c0.5-0.2,1.1-0.2,1.6-0.4c0.3-0.1,0.7-0.2,0.9-0.4c0.7-0.7,1.3-0.7,2.2-0.3
			c0.4,0.2,1,0.3,1.5,0.4c0.9,0.2,1.8,0.5,2.7,0.4c1.3-0.2,2.5-0.7,3.5-1.7c0.7-0.7,1.4-1.5,2.3-1.7c0.4-0.1,1.2,0.1,1.5,0.4
			c0.4,0.4,0.7,0.7,1.2,0.9c1,0.5,2,1,3,1.5c-0.7,0.7-1.5,0.4-2.3,0.7c-1.2,0.3-2.4,0.4-3.5,0.9c-0.8,0.4-1.5,0.4-2.3,0.7
			c-0.9,0.3-1.8,0.4-2.7,0.6c-1.4,0.4-2.9,0.8-4.3,1.2c-0.4,0.1-0.8,0-1.2,0.1c-0.6,0.1-1,0.4-1.5,0.6c-0.1,0-0.1,0.1-0.2,0.1
			c-1-0.1-1.9,0.4-2.8,0.9c-0.1,0.1-0.3,0.1-0.4,0.1c-0.5,0.1-1,0.1-1.5,0.2c-0.9,0.2-1.7,0.4-2.6,0.6c-0.6,0.2-1.2,0.4-1.9,0.6
			c-0.1,0.1-0.2,0.1-0.3,0.1c-1.5-0.2-2.8,0.6-4.2,1c-0.4,0.1-0.9,0.2-1.4,0.3c-0.4,0.1-0.9,0.4-1.3,0.5c-0.1,0.1-0.2,0.1-0.2,0.1
			c-1.2-0.2-2.3,0.4-3.5,0.7c-0.9,0.3-1.9,0.5-2.8,0.8c-1.2,0.4-2.5,0.9-3.7,1.3c-0.3,0.1-0.7,0.1-1,0.2c-0.4,0.1-0.9,0.4-1.4,0.4
			c-0.6,0.1-1.2,0.2-1.9,0.2c-0.1,0-0.3-0.4-0.2-0.7c0.1-0.5,0-0.9-0.2-1.4c-0.2-0.4-0.2-0.9-0.2-1.4c-0.2-1.2-0.6-2.3-0.5-3.6
			c0-0.9-0.3-1.9-0.3-2.8c-0.1-1.4-0.6-2.7-0.9-4.1c-0.2-0.9-0.2-1.9-0.4-2.7c-0.2-0.9-0.5-1.8-0.7-2.7c-0.2-0.7-0.5-1.2-0.3-2
			c0.2-0.7,0.1-1.5-0.6-2c-0.1-0.1-0.2-0.3-0.1-0.5c0.2-1.5-0.1-3-0.5-4.6c-0.1-0.2,0.1-0.6,0.2-0.7c0.4-0.3,0.9-0.6,1.3-0.8
			C51.2,148.7,51.4,148.7,51.6,148.6z"/>
		<path class="st2" d="M98.9,93.9c0.4-0.7,1-0.7,1.5-0.8c0.2-0.1,0.5,0.1,0.7-0.1c1.2-0.8,2.5-0.2,3.6,0.1c0.4,0.1,0.8,0.8,1,1.4
			c0.2,0.6,0.2,1.2,0.3,1.9c0.1,0.7-0.1,1.3-0.7,1.7c-0.6,0.4-1,0.9-1.5,1.3c-0.2,0.1-0.4,0.3-0.6,0.4c-0.6,0.2-0.9,0.7-0.9,1.3
			c-0.1,1,0,1.9,1,2.5c0.1,0.1,0.1,0.1,0.2,0.2c0.2,0.4,0.2,0.9,0.5,1.3c0.2,0.4,0.6,0.7,0.9,1.1c-1.1,1-0.7,2.3-0.9,3.6
			c-0.1,0.2-0.1,0.6-0.3,0.7c-0.5,0.4-0.9,0.8-1.7,0.9c-0.6,0.1-1.2,0.5-1.7,0.8c-0.3,0.1-0.6,0.3-0.9,0.4c-0.6,0.1-1.3,0.1-1.9,0.2
			c-0.1,0-0.1,0-0.2,0c-0.7,0.5-1.2,0.1-1.9-0.1c-0.5-0.1-1,0-1.5-0.1c-0.2,0-0.4-0.1-0.6-0.2c-0.4-0.2-0.7-0.5-1-0.7
			c-0.8-0.7-1.7-1.5-2.5-2.2c-0.1-0.1-0.1-0.4-0.2-0.5c-0.2-0.7-0.4-1.3-0.6-2c-0.1-0.3-0.1-0.7-0.1-1c0-0.8-0.4-1.2-1.2-1.4
			c-1.7-0.3-3.4-0.6-5.1-0.9c-0.5-0.1-1-0.4-1.5-0.6c-0.3-0.1-0.6-0.2-0.9-0.2c-0.6,0.2-1-0.1-1.5-0.4c-0.3-0.2-0.6-0.4-0.9-0.4
			c-1.1,0-1.7-0.8-2.4-1.4c-0.3-0.2-0.7-0.4-1-0.6c-0.6-0.5-1.4-0.7-1.9-1.2c-1-0.9-1.5-2.2-2.2-3.3c-0.3-0.5-0.1-1.2-0.2-1.9
			c-0.1-0.3-0.1-0.7-0.1-1c0-0.1-0.1-0.3,0-0.4c0.4-1.6,0.7-3.1,1.1-4.7c0.1-0.2,0.2-0.6,0.2-0.8c0.2-0.6,0.3-1,0.5-1.6
			c0.1-0.3,0.2-0.6,0.2-0.9c0.3-1,0.6-2,0.9-3c0.1-0.2,0.3-0.4,0.4-0.4c0.6,0,1,0.1,1.6,0.1c0.1,0,0.2,0.1,0.4,0.1
			c1.3-0.3,2.5,0.4,3.8,0.4c0.8,0,1.6,0.4,2.4,0.5c0.7,0.1,1.4,0.2,2.1,0.4c0.9,0.2,1.9,0.6,2.8,0.9c0.2,0.1,0.3,0.2,0.5,0.2
			c1-0.1,1.6,0.6,2.4,0.9c0.7,0.2,1.4,0.7,2.1,0.9c0.9,0.2,1.5,0.9,2.3,1.3c0.2,0.1,0.4,0.3,0.7,0.3c0.9,0.1,1.3,0.7,1.5,1.4
			c0.2,0.8,0.4,1.6,0.6,2.4c0.1,0.6,0.2,1,0.4,1.5c0.1,0.2,0.4,0.4,0.6,0.7c0.1,0.1,0.2,0.1,0.3,0.1C98.2,93.1,98.6,93.5,98.9,93.9z
			 M81.8,98.4c0,0.1,0.1,0.1,0.1,0.2c0.5-0.3,1-0.6,1.5-0.9c0.7-0.4,0.9-0.9,0.6-1.5s-0.9-0.6-1.6-0.2c-0.5,0.2-1.1,0.6-1.6,0.6
			c-1.2-0.1-2.2-0.6-2.8-1.7c-0.4-0.6-0.7-0.9-1.2-0.6c-0.6,0.2-0.6,0.7-0.4,1.3c0.2,0.9,0.2,1.9,1.4,2.2c0.1,0,0.1,0.1,0.1,0.1
			c0.7,0.8,1.5,0.9,2.5,0.9C80.8,98.6,81.3,98.5,81.8,98.4z M88,93.8c-0.9,0-2.4,1.2-2.5,2.1c-0.1,0.4,0.1,0.8,0.3,1.1
			c0.1,0.2,0.4,0.4,0.6,0.6c1.2,0.9,3,0.6,3.6-0.8C90.5,95.7,89.2,93.8,88,93.8z M73.5,93.7c0.4-0.1,0.9-0.1,1.3-0.1
			c0.2-0.1,0.4-0.2,0.6-0.3c0.8-1,0.7-2.2-0.4-2.9c-0.4-0.3-1.1-0.6-1.6-0.5c-1.4,0.3-1.8,1.9-1.2,3C72.4,93.4,72.8,93.6,73.5,93.7z
			 M78.4,90.5c0,1.1,0.6,1.7,1.4,2.2c0.6,0.3,1,0.2,1.5-0.2c0.4-0.4,0.5-1,0.1-1.5c-0.6-0.6-0.2-0.9,0.2-1.4
			c0.1-0.2,0.4-0.4,0.3-0.6c-0.1-0.2-0.4-0.4-0.6-0.5c-0.8-0.2-1.4,0.1-2,0.6C78.8,89.6,78.3,90,78.4,90.5z M76.8,87.4
			c0-0.7-0.9-1.4-1.7-1.4c-0.6,0-1.4,1-1.4,1.7c0,0.7,1,1.5,1.9,1.5C76.2,89.1,76.8,88.3,76.8,87.4z M89.4,91.3
			c0-0.9-0.7-1.7-1.6-1.7c-0.6,0-1.5,1-1.5,1.7c0,0.6,0.9,1.4,1.5,1.4C88.8,92.6,89.4,92.1,89.4,91.3z"/>
		<path class="st2" d="M82.3,164.4c0.6-0.6,1.1-1.2,1.6-1.9c0.4-0.5,0.7-1,0.9-1.5c0.2-0.4-0.2-0.7-0.6-0.7c-0.6-0.1-1.7,0.5-2,1
			c-0.1,0.1-0.1,0.2-0.2,0.4c-0.7,0.6-1.5,1.3-2.3,1.9c-0.1,0.1-0.2,0.2-0.4,0.4c-0.2,0.5-0.6,0.5-1,0.2c0.1-0.1,0.1-0.2,0.2-0.4
			c0.6-0.6,1-1.3,1.3-2c0.1-0.2,0.4-0.4,0.7-0.6c0.4-0.3,0.7-0.7,0.6-1.3c-0.1-0.5-0.4-0.6-0.9-0.7c-0.6-0.1-0.9,0.2-1.2,0.6
			c-0.4,0.5-0.9,0.9-1.3,1.4c-0.2,0.2-0.4,0.6-0.6,0.7c-0.2,0.2-0.4,0.7-1,0.2c0.2-0.3,0.4-0.6,0.6-0.9c0.6-1.1,1.2-2.3,1.9-3.4
			c0.2-0.4,0.7-0.7,1.1-1.2c0.7-0.7,1.5-1,2.4-1.4c0.9-0.3,2-0.4,2.8-0.9c1.1-0.6,2.2-0.4,3.4-0.5c0.7-0.1,1.5,0.2,2.2,0.4
			c0.9,0.2,1.8,0.6,2.6,1c0.2,0.1,0.4,0.4,0.6,0.6c0.4,0.4,0.7,0.8,1,1.2c0.2,0.2,0.3,0.6,0.4,0.9c0.2,0.7,0.4,1.4,0.6,2
			c0.1,0.2,0.1,0.4,0.2,0.5c0.1,0.6-0.1,1-0.7,1.2c-0.1,0.1-0.2,0.1-0.3,0.2c-0.9,1.2-2.3,1.6-3.7,1.7c-0.2,0-0.4,0.1-0.6,0.1
			c-0.4-0.1-0.9-0.1-1.2-0.2c-0.9-0.6-1.8-0.8-2.8-0.6c-0.1,0-0.2,0-0.2,0.1c-0.9,1.1-2.3,0.7-3.4,1.3c-0.2,0.1-0.4,0.1-0.6,0.1
			C82.4,164.5,82.3,164.4,82.3,164.4z"/>
		<path class="st2" d="M53.2,150.4c-0.2-0.4-0.2-1,0.1-1.6c0.5-0.7,0.8-1.7,1.6-2.2c0.4-0.2,0.4-0.7,0.2-1.2
			c-0.2-0.4-0.7-0.7-1.2-0.5c-0.5,0.2-1,0.6-1.5,0.9c-0.4,0.4-0.9,0.8-1.5,0.8c-0.2,0-0.4,0.1-0.5,0.2c-0.4,0.2-0.7,0.4-1,0.6
			c-0.4-0.6-0.1-0.9,0.2-1.2c0.4-0.4,0.8-0.7,1.1-1.2c0.2-0.3,0.6-0.7,0.1-1c-0.3-0.2-0.9-0.2-1.3-0.2c-0.3,0-0.6,0.3-1,0.6
			c-0.1-0.4-0.1-0.7-0.1-0.9c0.1-0.6-0.1-1.1-0.5-1.5c-0.2-0.1-0.2-0.4-0.2-0.7c-0.1-0.5,0-1,0-1.5c0.4-0.4,0.9-1,1.4-1.5
			c0.1-0.1,0.2-0.2,0.4-0.2c0.7-0.2,1.3-0.4,2-0.6c0.9-0.2,1.7-0.2,2.6-0.4h0.1c1.1-0.7,2,0.3,3,0.6c0.4,0.1,0.8,0.6,1.2,1
			c0.8,1,1.5,2,1.7,3.3c0.1,0.4,0.1,0.9,0.2,1.2c0.2,0.7-0.4,1.2-0.6,1.7c-0.3,0.9-0.7,1.6-1.2,2.4c-0.3,0.6-0.7,1.2-1.6,1.2
			c-0.5,0.1-0.9,0.3-1.4,0.6C54.8,149.3,54,149.8,53.2,150.4z"/>
		<path d="M81.8,98.4c-0.5,0.1-1,0.2-1.4,0.2c-0.9,0.1-1.9-0.1-2.5-0.9c0-0.1-0.1-0.1-0.1-0.1c-1.1-0.2-1.2-1.2-1.4-2.2
			c-0.1-0.6-0.1-1,0.4-1.3c0.4-0.2,0.8,0,1.2,0.6c0.6,1,1.7,1.5,2.8,1.7c0.5,0.1,1.1-0.3,1.6-0.6c0.7-0.4,1.3-0.2,1.6,0.2
			c0.3,0.6,0.1,1.1-0.6,1.5c-0.5,0.3-1,0.6-1.5,0.9C81.8,98.6,81.8,98.5,81.8,98.4z"/>
		<path class="st1" d="M88,93.8c1.3,0,2.6,1.9,2,3c-0.7,1.3-2.4,1.7-3.6,0.8c-0.2-0.2-0.5-0.3-0.6-0.6c-0.2-0.4-0.4-0.7-0.3-1.1
			C85.5,95,87,93.9,88,93.8z"/>
		<path class="st1" d="M73.5,93.7c-0.6-0.1-1.1-0.3-1.4-0.9c-0.5-1.2-0.1-2.7,1.2-3c0.5-0.1,1.1,0.2,1.6,0.5c1,0.7,1.2,1.9,0.4,2.9
			c-0.1,0.2-0.4,0.2-0.6,0.3C74.3,93.6,73.9,93.6,73.5,93.7z"/>
		<path d="M78.4,90.5c-0.1-0.6,0.4-1,0.9-1.4c0.6-0.5,1.2-0.9,2-0.6c0.2,0.1,0.5,0.2,0.6,0.5c0.1,0.1-0.2,0.4-0.3,0.6
			c-0.4,0.4-0.7,0.7-0.2,1.4c0.4,0.4,0.3,1.1-0.1,1.5c-0.4,0.4-1,0.6-1.5,0.2C78.9,92.3,78.4,91.6,78.4,90.5z"/>
		<path d="M76.8,87.4c0,1-0.6,1.8-1.4,1.8c-0.8,0-1.9-0.8-1.9-1.5c0-0.7,0.9-1.7,1.4-1.7C76,86,76.9,86.7,76.8,87.4z"/>
		<path d="M89.4,91.3c0,0.8-0.6,1.3-1.5,1.3c-0.7,0-1.5-0.7-1.5-1.4c0-0.7,0.9-1.7,1.5-1.7C88.6,89.6,89.4,90.3,89.4,91.3z"/>
	</g>
	<text transform="matrix(1 0 0 1 13.3979 141.377)" class="st3 st4 st5">novape</text>
</g>
</svg>
