<?xml version="1.0" encoding="utf-8"?>
<!-- Generator: Adobe Illustrator 25.0.0, SVG Export Plug-In . SVG Version: 6.00 Build 0)  -->
<svg version="1.1" id="_xEFF5__xEED3__x5F_7" xmlns="http://www.w3.org/2000/svg" xmlns:xlink="http://www.w3.org/1999/xlink"
	 x="0px" y="0px" viewBox="0 0 287.3 367.6" style="enable-background:new 0 0 287.3 367.6;" xml:space="preserve">
<style type="text/css">
	.st0{fill:#FFFFFF;}
	.st1{fill:#FDD23E;}
</style>
<g>
	<g>
		<path d="M287.2,254.5c-1.4,0.1-2.4,0.2-3.5,0.3c-0.8,0.1-1.5,0.3-2.3,0.3c-2.3-0.1-4.6-0.4-6.9-0.2c-3.1,0.2-6.2,0.9-9.3,1.4
			c-3,0.5-6.2,0.2-9.1,1.4c-0.2,0.1-0.4,0-0.6,0c-2.6,0.1-5.1,0.2-7.5,1.4c-1,0.5-2,0.1-2.2-0.8c-0.2-1.9-1.8-3.1-2.4-4.6
			c-1.2-3.5-3.8-5.4-6.8-7c-0.9-0.5-1.9-1.4-2.9-1.3c-2.2,0-4.5-1.2-6.6,0.4c-0.3,0.2-0.8,0.1-1.2,0.1c-4.7-0.2-9.1,1-13.4,2.9
			c-0.8,0.4-1.6,0.7-2.5,0.9c-2.3,0.4-4.3,1.3-6.1,2.7c-1.6,1.3-3.1,1.1-4.9,0.1c-2-1.1-3.3-3.4-6-3.5c-0.3,0-0.5-0.5-0.8-0.8
			c-0.5-0.4-1.1-0.9-1.7-1.1c-3.5-1.2-6.4-3.1-9-5.7c-0.5-0.5-1.3-0.7-2.1-1c-2.2-0.7-4.1-2.1-4.3-4.3c-0.3-5.1-2-9.9-2.1-15
			c-0.1-3.6-0.9-7.1-1.4-10.7c-0.3-1.8-0.5-3.7-0.8-5.5c-0.7-4.7-1.4-9.5-2.1-14.2c-0.2-1.5-0.2-3.1-0.4-4.6
			c-0.3-1.8-0.8-3.6-1.2-5.4c-0.5-2.4-0.2-4.9-2-7c-0.2-0.2-0.1-0.8-0.1-1.1c-0.2-2.6-0.2-5.3-0.8-7.8c-0.9-4-3.5-7.2-5.4-10.7
			c-0.4-0.7-1.4-1-2.1-1.5c-0.8-0.5-1.6-1.1-2.5-1.6c-1.5-0.9-2.9-1.9-4.5-2.6c-2.1-1-4.4-1.6-6.5-2.5c-2.4-0.9-4.7-2-7.1-2.7
			c-5-1.4-10.3-2-15.2-4.7c0.9-3,1.7-6.1,2.6-9.2c1.3,0.2,2.6,0.8,3.7,0.6c2.3-0.2,5,0.5,6.9-1.7c0.2-0.2,0.8-0.2,1.1-0.2
			c2.7,0.2,5.2-1,7.6-2c2.7-1.2,5.3-2.7,7.9-4.2c0.6-0.3,0.9-1.2,1.3-1.9c0.3-0.4,0.7-0.9,1.1-1.3c1.7-1.7,3.8-3.2,5.2-5.1
			c1-1.3,1.3-2.9,2.7-4c0.4-0.3,0.6-1.4,0.4-1.9c-0.6-1.8,0.4-3.2,0.9-4.8c0.9-2.8,1.5-5.7,0.1-8.5c1.7-2.5,0.6-5.3,0.4-7.9
			c-0.3-3.1,0.5-6.5-1.5-9.4c-0.2-0.2,0.2-0.8,0.2-1.1c-0.1-2.3-0.3-4.5-1.3-6.8c-0.8-1.8-1.7-4-0.9-6.4c0.5-1.6,0.4-3.7-0.2-5.2
			c-1-2.4-1.3-4.9-2.1-7.2c-0.8-2.2-1.5-4.8-3-6.3s-2.2-3.1-2.9-4.8c-0.4-0.9-1.1-1.8-1.9-2.2c-3.7-2.1-5.7-6.2-9.7-8
			c-2.1-0.9-3.8-2.8-6.4-2.6c-0.2,0-0.5,0-0.6-0.1c-1.8-2-4.5-1.7-6.7-2.7c-1.7-0.8-3.7-1.1-5.5-1.4c-3.5-0.5-7.1-0.4-10.7-0.6
			c-2-0.1-4,1-5.9-0.4c-0.4-0.3-1.6,0.5-2.4,0.7s-1.7,0.7-2.5,0.6c-2.8-0.2-5.4,0.3-7.9,1.6c-1.9,0.9-3.8,1.5-5.8,1.6
			c-0.5-2.1-1.3-4.1-1.4-6.1c-0.1-1.9,0.1-3.5-1.9-4.5c-0.3-0.1-0.5-0.7-0.5-1c0-1.5-0.9-2.3-1.9-3.1c-1.8-1.4-3.7-2.8-5.4-4.5
			c-1.1-1.1-2.2-2.3-3.8-2.6c-0.5-0.1-1.1-0.4-1.5-0.8c-1.1-1.3-2.6-1.7-4.2-2c-2.8-0.4-5.5-1.9-8.4-0.4c-0.1,0.1-0.4,0-0.6-0.1
			c-2.7-0.7-4.6,1.1-6.9,1.9c-0.6-0.1-1.9,0.3-2.8,1c-1,0.8-1.6,2.1-2.4,3.2c-0.2,0.3-0.8,0.4-1,0.7c-1.1,1.7-2.6,3.3-3.3,5.2
			c-0.9,2.7-0.4,5.8-1.3,8.6c-0.1,0.4,0,1,0.1,1.5c0.7,1.9,0.7,4.1,2.2,5.7c1.2,1.3,2.3,2.7,3.1,4.2c1.4,2.6,4.1,3.3,6.3,4.4
			c1.8,0.9,4.2,0.8,6.1,1.6c2.2,0.9,4.4,0.8,6.6,0.4c0.5-0.1,1.2,0.2,2.1,0.4c-1.2,1.7-2.1,2.9-2.9,4.2c-1.4,2-2.9,4-2.5,6.7
			c0.1,0.6,0,1.4-0.3,2c-0.8,1.8-0.3,3.2,0.9,4.2c-1.1,4.2-0.5,8.1,0.1,11.9c0.6,3.9,1.5,7.8,4.9,10.8c-0.6,0.9-1,2.1-1.8,2.8
			c-1,1-1.3,1.9-0.8,3.1c0.6,1.6,1.4,3.3,1.6,5c0.4,3.1,2.7,4.4,5,5.8c1.2,0.7,2.6,0.9,3.9,1.4c0.7,1.4,1.5,2.7,2.1,4.1
			c1.1,2.4,1.7,5.1,3.2,7.2c2.6,3.7,5.6,7.1,8.5,10.6c0.4,0.4,0.9,0.8,1.4,1.1c2.7,1.4,4.4,3.1,4.2,6.5c-0.1,2.4,0.4,4.8-0.1,7.3
			c-0.1,0.5,0.1,1,0.1,1.5c0.3,2.7-0.1,3.3-2.6,4.1c-1.8,0.6-3.5,1.2-5.2,1.9c-1.5,0.6-3,1.3-4.6,1.7c-1.8,0.4-3.6,0.4-5.5,0.6
			c-0.9,0.1-1.9,0.2-2.5,0.7c-1.7,1.3-3.6,1.9-5.6,2.4c-2.9,0.8-5.8,1.8-8.6,2.8c-0.6,0.2-1.1,0.8-1.4,1.3c-0.8,1.4-1.2,3.1-2.2,4.3
			c-1.8,2.1-2.4,4.6-3,7.2c-0.6,2.3-0.5,5-1.6,6.9c-1.7,2.9-0.8,6.5-3,9.1c-0.2,0.2-0.2,0.6-0.1,0.8c0.8,1.3-0.1,2.5-0.4,3.7
			c-0.9,3.7-1.8,7.4-2.6,11.2c-0.4,2-0.4,4.1-1.5,5.9c-0.3,0.5-0.2,1.1-0.2,1.7c-0.1,0.7,0,1.6-0.3,2.2c-0.6,1.2-0.8,2.4-0.4,3.7
			c0.1,0.4,0.1,1-0.1,1.4c-1.7,3.6-3,7.2-2.6,11.3c0,0.3,0.1,0.7-0.1,0.9c-1.5,1.5-1.5,3.3-1.1,5.2c0.1,0.6-0.3,1.3-0.5,2
			c-0.2,0.8-0.5,1.6-0.4,2.3c0.5,1.8-0.1,3.3-1.1,4.7c-0.7,1-1.2,2.1-0.7,3.3c0.1,0.3,0.3,0.8,0.1,1.1c-2,3.7-0.7,8.2-3.2,11.7
			c-0.4,0.6-0.2,1.5-0.3,2.3c-0.1,0.6,0.1,1.3-0.1,1.6c-1,1.5-0.9,2.9-0.5,4.5s0.3,3-1.1,4.3c-3.5,3.3-6.5,7-9.6,10.6
			c-0.4,0.4-0.6,1-0.8,1.6c-0.7,3.3-3.2,6.1-3.4,9.6c0,0.4-0.6,0.7-0.9,1.2c-0.5,0.7-1.1,1.5-1.4,2.3c-1.1,2.8-2.3,5.6-3.2,8.5
			c-0.5,1.6-0.6,3.3-1.1,4.8c-1.7,4.8-3.5,9.6-5.2,14.4c-0.1,0.4-0.2,0.8-0.2,1.2c-0.6,4.4-1.2,8.7-1.8,13.1c-0.1,0.5-0.2,1-0.5,1.4
			c-1.3,1.8-0.5,3.3,0.3,5c0.4,0.8,1,1.5,1,2.3c0.1,1.7,0.9,3,2,4.2c1.5,1.7,2.9,3.4,4.9,4.5c1.3,0.7,2.6,1.3,3,3
			c0.1,0.5,1,0.9,1.6,1.1c3.5,1.5,6.9,3.2,10.7,3.6c1.5,0.2,3.1,0.3,4.6,0.6c2.5,0.4,4.9,1,7.5,0.1c0.9-0.3,2.2-0.1,3.2,0.3
			c1.6,0.7,3,0.6,4.6,0c0.6-0.2,1.3-0.3,2-0.4c2.3-0.2,4.7-0.6,7-0.5c2.2,0,4.3-1.9,6.7-0.5c0.3,0.2,0.9-0.4,1.3-0.5
			c0.7-0.1,1.4-0.4,2-0.2c2.4,0.7,4.6,0.1,6.7-0.8s3.4-0.3,4.3,1.6c1.3,2.9,2.9,3.7,5.9,2.4c3.1-1.4,6.5-2.2,9-4.7
			c0.3-0.3,0.8-0.5,1.3-0.7c2.4-1,5-1.8,7.3-3.1c2.4-1.4,4.4-0.9,6.6,0.3c1.2,0.7,2.4,1.5,3.7,1.7c5.6,0.9,10.8,3.3,16.2,4.9
			c3.1,0.9,6.1,2,9.1,3c2.5,0.8,5.1,1.3,7.6,2c2,0.6,3.9,1.8,5.9,1.9c1.5,0.1,2.6,0.5,3.8,1.1c2.5,1.2,5.1,1.6,7.8,2
			c3.9,0.6,7.7,0.5,11.6-0.5c3.4-0.9,7.1-0.8,10.7-1.2c2.3-0.3,4.7-0.4,7-1.1c3.7-1.1,7.5-1,11.3-1.4c2.7-0.3,5.7,0.2,8.2-1.7
			c0.4-0.3,1.1-0.2,1.6-0.2c1.6,0,3.3,0.1,4.9-0.1c1.4-0.2,2.8-0.8,4.3-1c3.2-0.4,6.4-0.5,9.6-0.9c3-0.3,6-0.7,9-1.3
			c3.2-0.5,6.3-1.4,9.5-1.9c5.1-0.7,10.2-1.3,15.4-1.8c1.7-0.2,3.5-0.3,5.2-0.2c1.4,0,2.2-0.5,2.6-1.9c0.1-0.4,0.1-0.8,0.2-1.2
			c0.4-2.8-0.2-5.7,1.6-8.3c0.2-0.2,0.1-0.8-0.1-1.1c-0.8-1.7,0.1-3.1,0.7-4.6c0.2-0.5,0.6-0.8,0.7-1.3c0.6-2.6,0.9-5.2,1.7-7.7
			c1.3-3.8,1.1-7.9,2.4-11.8c1-3.1,1.1-6.6,2.2-9.8c0.9-2.8,0.4-6.1,2-8.8c0.3-0.5,0.2-1.2,0.3-1.7c0.6-3.9,1.3-7.8,1.9-11.8
			c0.6-3.4,1.3-6.7,1.8-10.1c0.9-5.2,1.7-10.4,2.5-15.6C287.4,257,287.2,255.9,287.2,254.5z M170.6,268.8c-1.7,0.9-3.5,1.6-5.2,2.6
			c-1.6,0.9-2.8,2.5-4.9,2.3c-0.4,0-0.8,0.4-1.2,0.7c-0.3,0.2-0.5,0.8-0.8,0.8c-3.6,0.3-6.2,2.9-9.4,3.9c-2.4,0.8-4.7,2-7,3.1
			c-1.5,0.7-2.9,1.5-4.5,2.3c-0.1-2.5-0.1-2.5,2-4.1c0.3-1.9,0.6-3.6,0.8-5.3c0.1-1.3,0-2.7,0.1-4c0.2-3,0.4-6.1,0.7-9.1
			c0.3-2.6,1.2-5.3,1-7.8c-0.3-2.7,1-5.4-0.1-8c-0.2-0.5,0-1.3,0.2-2c0.3-1.4,0.7-2.8,1.1-4.5c0.4,0.4,1,0.6,1.1,1
			c0.5,3.2,2.7,6.1,2.2,9.6c-0.2,1.4,0.6,3,1.2,4.5c0.5,1.3,1.3,2.1,2.9,2.5c2.5,0.6,4.9,1.9,7.3,2.9c1.6,0.7,3.2,1.5,4.9,1.8
			c2.6,0.4,4.6,1.9,6.9,3c1.1,0.5,2,1.1,3.3,0.7c0.6-0.2,1.4,0.2,2.2,0.3c0,0.2,0.1,0.4,0.1,0.6
			C173.6,267.3,172.1,268.1,170.6,268.8z"/>
		<path class="st0" d="M62.1,249.6c1.5-4.9,1.7-9.6,3-14.2c0.5-1.6,0.4-3.4,0.8-5.1c1.1-4.1,1.9-8.3,2.8-12.5
			c0.2-0.9,0.2-1.9,0.3-2.9c0.2-1.7,0.5-3.5,0.8-5.2c0.7-4.1,1.5-8.1,2.2-12.2c0.5-2.7,1.1-5.3,1.6-8c0.2-0.9,0.4-1.8,0.3-2.6
			c-0.1-0.6-0.8-1.5-1.4-1.6s-1.7,0.3-1.9,0.8c-0.5,1-0.8,2.2-1,3.4c-0.3,1.9-0.2,3.9-1.4,5.6c-0.2,0.2-0.2,0.6-0.3,0.8
			c0,3.7-1.2,7.1-2.2,10.6c0,0.1-0.1,0.2-0.1,0.3c1,2.2-0.6,3.9-1.1,5.8c-0.5,2.2-0.8,4.4-1.2,6.6c-0.9,4.6-2,9.2-2.7,13.8
			c-0.4,2.4-0.9,4.7-0.6,7.3c0.2,1.7-0.7,3.6-1.2,5.4c-1.1,4.7,0.5,7.5,5.2,8.8c0.3,0.1,0.7,0,0.9,0.1c2.6,2.6,6.5,2.6,9.3,4.8
			c0.5,0.4,1.2,0.5,1.9,0.8c1.5,0.6,3.3,0.7,4.3,2.2c0.2,0.2,0.5,0.4,0.7,0.4c3.6,0.2,6.1,2.9,9.4,3.7c2.7,0.7,5.4,1.5,8.1,2.4
			c0.7,0.2,1.4,0.7,2,1.2c1.4,1.3,2.9,2,4.7,2.2c0.9,0.1,2,0.4,2.7,1c2.1,1.8,4.7,2.4,7.2,3.2c5.5,1.7,11,3.4,16.6,5.2
			c-0.2,1.8,0.1,3.6-1.4,5c-0.3,0.3-0.4,0.9-0.4,1.4c-0.2,5-1.9,9.3-5,13.1c-0.2,0.2-0.3,0.5-0.6,0.8c-5.3-1-9.7-5.4-15.1-4.3
			c-1.4-1.1-2.4-2-3.5-2.8c-1.5-1.1-2.8-2.2-3.8-4c-0.6-1.1-2.2-1.8-3.8-3.1c-0.3-1.1-1.3-2.4-3.1-3.4c-1.5-0.8-2.9-2.4-3.8-3.9
			c-1.3-2.1-3.5-2.7-5.3-4c-0.6-0.4-1.2-0.6-1.7-1c-2.5-1.8-4.7-4.3-7.4-5.4c-2.7-1.1-4.6-3.2-7.4-4c-1.7-0.5-3.2-1.4-4.8-2.2
			c-0.2-0.1-0.4-0.1-0.5-0.3c-2-2.4-5.2-2.7-7.7-4c-1.8-0.9-4.2-1-6.3-0.9c-4.5,0.2-9,0.7-13.5,1c-0.7,0.1-1.4,0.1-2,0.1
			c0-1.3,0-2.5,0-3.7c0-0.4-0.1-0.8,0.1-1.1c2-2.7,1.9-5.9,2.4-9c0.5-2.8,0.8-5.6,1.4-8.4c1-4.3,2.2-8.5,3.1-12.8
			c0.5-2.5,0.7-5.2,1.1-7.7c0.1-0.7,0.3-1.3,0.5-2c0.3-1.5,0.7-2.9,0.6-4.4c0-1.5,0.2-2.8,1.2-4.1c0.8-0.9,1.2-2,0.7-3.3
			c-0.2-0.5,0-1.1,0-1.7c0.1-1.4,0.2-2.8,0.4-4.8c2-2.1,1.4-5.6,2.3-8.6c0.2-0.8,0.4-1.7,0.5-2.5c0.3-1.4,0.4-2.9,0.7-4.3
			c0.3-1.4,0.7-2.8,1.1-4.2c0.5-1.5,1.4-2.9,1.4-4.4c0.1-2.8,0.9-5.3,1.9-7.8c0.2-0.6,0.1-1.4,0.2-2c0.6-3.4,1-6.8,4-9.1
			c1.3-1,2.9-1.7,4-2.3c2.3,1,4.2,2,6.2,2.7c2.9,1,5.7,2.2,8.7,2.6c4.8,0.8,9.3,2.8,14.3,2.6c0.1,0,0.2,0,0.3,0
			c5.2,2.1,10.5-0.3,15.7,0.4c2.7-1.4,5.8,0,8.5-1.4c0.8-0.4,1.9-0.1,2.9-0.2c1.1-0.1,2.3,0,3.2-0.5c2.4-1.5,5.1-1.2,7.6-1.9
			c1.7-0.4,3.4-0.7,5.1-1.3c0.8-0.3,1.3-1.3,2.1-2.2c1.9,0.2,3.6-0.3,4-2.6c6,1.4,6.5,0.3,18.1,10.1c0.4,2.4,0.7,4.5,1,6.7
			c0.7,4.3,2.2,8.4,2.1,12.8c0,1.1,0.4,2.1,0.6,3.2c0.3,1.6,0.8,3.3,0.7,4.9c-0.2,3.9,0.2,7.6,1.7,11.2c-0.6,2.9,1.1,5.5,1.3,8.2
			c0.2,2.4,0.1,4.8,0.5,7.3c0.6,3.2,0.6,6.4,2.4,9.3c0.4,0.6,0.2,1.5,0.2,2.3c-0.2,3.2,0.5,7.7,1.7,10.5c-0.3,0.5-0.7,1.1-0.8,1.7
			c-0.1,0.7-0.1,1.9,0.3,2.2c1.9,1.1,2.8,3.4,5.2,4c2.1,0.5,3.9,2.1,5.9,3.2c1.1,0.6,2.2,1.2,3.4,1.7c1.9,0.9,4.2,1.4,5.6,2.8
			c2.6,2.6,6.6,2.6,9,5.4c2,0.2,3.3,1.5,4.9,2.6c1.4,1,3,1.8,4.6,2.8c-2.4,1.6-5.2,1.9-7.8,2.3c-3.4,0.6-6.9,0.5-10.2,1
			s-6.4,0.2-9.4-1.3c-1.5-0.7-3.1-1.1-4.7-1.7c-0.9-0.3-1.8-0.5-2.7-0.9c-4.4-2-8.8-4.1-13.2-6.1c-0.7-0.3-1.5-0.1-2.3-0.3
			c-3.1-0.7-6-1.9-7.6-4.9c-0.5-0.9-0.5-2.1-0.8-3.1c-1.3-4.1-2.7-8.2-4-12.3c-0.9-2.7-1.8-5.4-2.6-8.1c-0.2-0.8-0.2-1.7-0.2-2.6
			c0-2.1,0.5-4.3-0.8-6.3c-0.6-0.9-0.3-1.7,0.5-2.4c0.5-0.5,1.4-0.9,1.5-1.4c0.1-2.9,2.3-4.4,4-6.2c0.4-0.4,0.5-1.3,0.6-1.9
			c0.2-0.9,0.4-1.9,0.5-2.9c0.1-0.7,0.3-1.4,0.1-2c-0.7-1.8-1.4-3.6-2.3-5.3c-0.6-1.2-1.6-2.1-2.5-3.2c-0.2-0.3-0.7-0.6-0.7-0.9
			c-0.4-3.1-2.7-4.9-4.6-7c-0.7-0.7-1.4-1.2-2.3-0.7c-1.1,0.5-1.2,1.5-0.8,2.5c0.5,1.1,1,2.1,1.5,3.1c0.3,0.6,0.6,1.2,0.8,1.8
			c0.2,0.5,0.3,1.3,0.7,1.6c2.3,1.5,3,3.9,4.1,6.2c0.2,0.4,0.6,0.8,0.9,1.2c1.3,1.6,1.2,2.1,0.2,3.9c-0.8,1.3-2,2.4-1.8,4.2
			c0.1,0.5-0.7,1.1-1.1,1.6c-0.7,0.8-1.6,1.4-2.3,2.3c-1.1,1.4-1.8,2.8-0.5,4.5c0.9,1.1,0.9,2.5,0.7,3.9c-0.5,3.2-0.2,6.5-1.1,9.6
			c-1.1,4.1-0.9,8.2-0.7,12.3c0,0.3,0.1,0.6,0,0.9c-1.2,2.1-0.8,4.5-1.1,6.8c-0.3,2.5,0.4,4.9-0.2,7.3c-0.4,1.6-0.8,3.2-1,4.9
			c-0.2,2.8,0.1,5.7-0.3,8.5c-0.4,2.7,1.3,5,0.9,7.4c-3.6-0.9-7.2-1.6-10.7-2.7c-1.5-0.5-2.9-1.5-4.3-2.4c-0.7-0.4-1.3-1.1-2-1.2
			c-5.8-1.2-10.9-4.3-16.2-6.6c-2.2-1-4.6-1.3-6.9-2.2c-2.1-0.8-4.1-1.8-6.1-2.8c-2.7-1.3-5.4-2.7-8-4.1c-0.4-0.2-0.9-0.6-1.3-0.6
			c-3.4,0.1-6-1.7-8.8-3.3c-0.8-0.4-1.9-0.3-2.9-0.4C66.8,252.4,64.7,250.7,62.1,249.6z"/>
		<path class="st0" d="M283.9,259.1c-0.5,2.3-1.1,4.4-1.5,6.6c-1.1,6.2-2.1,12.3-3.1,18.5c0,0.3,0,0.6-0.1,0.9
			c-2.1,4.3-2.2,9.1-3.5,13.5c-0.9,3-1.6,6.1-2.2,9.2c-0.6,2.9-0.7,6-1.4,8.9c-0.9,3.6-0.9,7.3-2.9,10.6c-0.3,0.5-0.5,1.1-0.6,1.6
			c-0.9,4.1-1.8,8.2-2.8,12.4c-1.5,0.2-2.8,0.3-4,0.5c-1.5,0.2-3.1,0.4-4.6,0.6c-2.4,0.4-4.9,0.6-7.2,1.3c-2.1,0.6-4.1,0.7-6.2,0.7
			c-2.1,0-4.3,0.5-6.4,0.8c-0.9,0.1-1.7,0.4-2.5,0.7c-1.3,0.4-2.6,0.7-4,0.2c-0.7-0.3-1.6-0.1-2.3,0.1c-2,0.4-3.9,1.2-6,0.8
			c-0.6-0.1-1.2,0-1.7,0.2c-3.8,1.5-7.7,1.6-11.8,1.3c-1.8-0.1-3.6,0.7-5.4,1c-1.1,0.2-2.3,0.4-3.4,0.5c-0.4,0.1-0.8-0.1-1.2,0
			c-3.1,0.4-6.1,0.9-9.2,1.2c-2.2,0.3-4.5,0.3-6.7,0.6c-2,0.3-3.9,1-5.9,1.3c-1.1,0.2-2.3,0.1-3.4,0.2c-2.5,0.4-5,0.9-7.6,1.2
			c-0.6,0.1-1.1-0.1-2.1-0.2c0.5-2.7,1-5.1,1.5-7.6c0.1-0.6,0.6-1.2,0.4-1.7c-0.8-2.6,0.6-4.7,1.3-6.9c0.2-0.7,0.3-1.5,0.2-2.3
			c-0.3-2.3-0.3-4.4,0.6-6.8c0.7-2.2,2.1-4.8,0.7-7.4c-0.2-0.4,0-0.9,0.1-1.4c0.3-2,0.6-4,1-5.9c0.3-2.1,0.4-4.3,1.1-6.4
			c0.5-1.7,1.5-3.2,0.5-5.1c-0.2-0.3,0.3-0.9,0.4-1.3c0.2-0.9,0.5-1.7,0.6-2.6c0.2-2.9,0.3-5.9,0.6-8.8c0.3-2.4,0.9-4.8,1.3-7.2
			c0.6-3.7,1.1-7.3,1.6-11.1c1.3-0.3,2.6-0.6,3.8-0.8c2.9-0.4,5.8-0.7,8.8-1.1c2.5-0.3,5-1.1,7.4-1c2.1,0.2,3.7-1.1,5.7-0.9
			c1.9,0.2,3.8-0.2,5.8-0.5c0.9-0.1,1.9-0.5,2.8-0.8c0.5-0.1,1-0.5,1.4-0.4c3.1,1,6-0.4,9-0.7c2.9-0.3,5.8-0.8,8.7-1
			c4.8-0.5,9.6-0.8,14.4-1.3c0.8-0.1,1.5-0.5,2.2-0.8c1.1-0.5,2.1-0.8,3.4-0.4c0.8,0.3,1.7,0.1,2.6-0.1c4-0.7,8.1-1.2,12.2-1.1
			c2.5,0,5-0.6,7.5-0.9C275.5,259.7,279.5,258,283.9,259.1z"/>
		<path class="st1" d="M47.2,315c0.8,0.7,1.6,1.1,2,1.8c1.8,2.6,4.5,3.4,7.3,4.3c0.9,0.3,1.8,0.8,2.6,1.4c1.7,1.4,4.1,1.8,5.5,3.7
			c0.3,0.4,1,0.5,1.6,0.7c1.9,0.6,3.9,1.1,5.8,1.9c3.6,1.5,7.1,3.1,10.7,4.6c0.3,0.1,0.6,0.4,1.2,0.7c-2.5,1.4-4.1,3.3-4.4,6
			c0,0.4-0.3,0.8-0.5,1c-1.9,1.8-2.8,4.2-3.7,6.6c-0.7,2.2-2.1,3.4-4.6,3.3c-1.5-0.1-3.1,0.3-4.7,0.5c-0.5,0.1-1.1,0.3-1.5,0.1
			c-2.3-1.3-4.2,0.1-6.2,0.6c-0.9,0.2-1.9,0.2-2.8,0.2c-2.4,0.1-4.9,0.1-7.3,0.2c-2.5,0-5.1,0-7.6,0.1c-0.9,0-1.8,0.2-2.6,0.3
			c-0.5,0.1-1.1,0.5-1.4,0.4c-1.9-1.1-3.8-0.1-5.7-0.1c-0.8,0-1.8,0.2-2.3-0.1c-2.2-1.5-4.8-1.5-7.3-2c-1.1-0.2-2.2-0.9-3.3-1.4
			c-1.4-0.6-2.9-1.2-4.3-1.8c-0.6-0.3-1.2-0.6-1.6-1.1c-0.8-0.8-1.4-1.8-2.2-2.7c-1-1.1-2.3-1.9-2.4-3.5c0-0.2-0.1-0.4-0.3-0.5
			c-1.8-1.6-2.1-3.7-2.3-6c-0.1-1.7-0.1-3.1,0.4-4.8c1-3.6,1.4-7.5,2.2-11.2c0.2-1.1,0.6-2.3,1-3.3c0.8-2.2,1.9-4.2,2-6.6
			c0-1.4,0.9-2.8,1.4-4.2c1.2-3.4,2.3-6.8,3.5-10.2c0.4-1,0.7-2.1,1.3-2.9c0.7-1,1.1-2,0.9-3.3c-0.1-0.6,0.3-1.3,0.5-1.9
			c1.6-3.2,3.4-6.3,4.9-9.6c0.9-2.1,2.7-4.1,4.5-5.7c2.3-2,3.8-4.6,6.5-6.3c3.7-2.4,7.5-2.6,11.5-2.4c1.4,0.1,3-0.2,4.3,0.1
			c1.9,0.4,3.7,1.2,5.5,2c1.6,0.7,3.4,1.1,4.4,2.7c3.6,0.6,5.9,3.4,8.9,5c2.3,1.2,4.5,2.4,6.6,3.8c1.5,0.9,2.8,2.2,4.2,3.2
			c2.7,2,5.4,4,8,6.1c1.8,1.4,3.5,3.1,5.2,4.6c2.1,1.9,3.2,4.9,6.2,5.8c0.7,0.2,1.4,1,1.6,1.7c0.7,1.9,2.2,2.9,3.7,4.1
			c1.1,0.8,2,1.9,2.9,2.9c2.8,2.8,5.6,5.7,8.5,8.5c3.1,2.9,6.3,5.6,9.4,8.4c0.6,0.5,1,1.2,1.6,1.7c0.8,0.7,1.6,1.5,2.4,2.2
			c0.6,0.6,1.3,1.1,2,1.7c0.5,0.5,0.8,1.4,1.3,1.6c2.9,0.9,3.8,3.8,5.9,5.6c0.6,0.5,0.6,1.7,0.8,2.5c-2.1,1.5-4.1,1.7-6.4,1.7
			c-3.2,0-6.4,1-9.6,1.2c-3.7,0.2-7.3,1.6-11.1,0.3c-1.1-0.4-2.7,0.6-4.4,1c-2.3-0.7-5.2-1.3-8-2.3c-1.3-0.5-2.8-1.2-3.7-2.3
			c-1.8-2.5-4.6-2.8-7.1-3.9c-2-0.9-3.8-2-5.6-3.2c-1.4-0.9-2.6-2.2-4.5-1.8c-0.1,0-0.3,0.1-0.3,0c-1.4-2.2-4.1-1.8-6-3.1
			c-0.5-0.3-0.9-0.9-1.5-1c-3.1-0.4-5.7-2.1-8.3-3.6c-2.7-1.6-6-1.9-8.4-4.1c-0.4-0.4-1.1-0.4-1.6-0.5c-1.2-0.2-2.5-0.4-3.8-0.5
			C48.2,313.8,47.4,313.8,47.2,315z"/>
		<path class="st0" d="M120.4,141.7c2.9,1.1,5.6,2.2,8.4,3.3c2.7,1,5.5,2,8.5,3c-1.2,1.6-2.5,2.1-4.3,2.6c-2.5,0.7-5.1,1.5-7.6,2.6
			c-0.9,0.4-1.8,0.5-2.8,0.6c-2.1,0.3-4.3,0.7-6.4,0.8c-2.4,0.1-4.7,0.7-7.1,0.5c-3.1-0.2-6.2,0.3-9.3,0.5c-1,0-1.9-0.2-2.9-0.3
			c-0.4-0.1-0.8-0.4-1.1-0.3c-2.7,1.2-5.1-0.4-7.7-0.6c-1.4-0.1-2.9-0.5-4.3-0.8c-3-0.7-5.9-1.3-8.8-2c-1.5-0.4-2.9-0.8-4.7-1.4
			c7.3-2.5,14-5.5,21.4-6c0.4,0.6,0.7,1.6,1.3,2.3c1,1.1,2.6,0.8,2.6-0.6c0-2.2,1.4-4.3,0.1-6.6c-0.4-0.7-0.3-1.7-0.2-2.6
			c0.5-3.8-0.8-7.5-0.6-11.3c0-1-0.2-1.8,0.4-2.7c0.9-1.4,0.4-2.8-1.2-3.7c-0.9-0.6-1.9-1-2.9-1.5c-0.6-0.3-1-0.9-1.5-1.3
			c-0.7-0.7-1.3-1.4-2-2c-0.3-0.3-0.8-0.6-1-1c-1.9-3.3-4.6-6.1-6-9.7c-0.4-1.1-1.3-2-1.8-3.1s-0.9-2.3-1.4-3.5s-0.8-2.4-1.4-3.5
			c-1.2-2-1.9-2-3.7-0.4c-0.2,0.2-0.4,0.5-0.8,1c-1.3-0.8-3-1.2-3.6-2.3c-1-1.8-1.6-4-2-6.1c-0.3-1.5,1.3-2.3,3.2-2
			c3.1,0.5,4.7,2.6,5.9,5.2c0.6,1.3,1.2,2.8,2.2,3.7c1.5,1.5,2.5,3.2,3.3,5.1c0.5,1.2,1.3,1.9,2.5,2.3c1.6,0.5,2.7,0.3,3-1.3
			c0.5-2.7,2.2-5.1,1.8-8.2c-0.2-2,0.7-4.2,1.1-6.2c0.3-1.3,0.5-2.7,0.8-4.1c1.2,0,2.1,0,3.1,0c0.5,0,1,0.3,1.4,0.2
			c1.3-0.4,2.6-1.3,3.8-1.3c1.3,0,2.7,0.8,3.8-0.5c0.2-0.2,0.6-0.2,0.8-0.2c3.5,0.3,6.7-1,10-1.3c3.6-0.3,6.9-1.8,10.5-1.8
			c0.5,0,1-0.1,1.4-0.3c4.1-2.1,8.6-2.4,12.9-3.7c1.7-0.5,3.3-1.2,5-1.7c2.9-0.9,5.8-1.5,8.7-2.4c1.8-0.6,3.4-1.4,5.5-2.2
			c0.3,1.9,0.7,3.6,0.9,5.3c0.1,1.2-0.1,2.3,0.1,3.5c0.3,2.1,0.8,4.2,0.4,6.4c-0.2,1.2,0.1,2.6,0.6,3.7c0.9,2.2,0.6,4.2,0,6.3
			c-0.1,0.3-0.3,0.6-0.3,0.8c1,2.9-0.6,5.5-0.8,8.2c-0.2,2.2-0.1,4.5-1.6,6.4c-0.2,0.2-0.4,0.6-0.4,0.8c0.4,2.1-1.4,3-2.4,4.4
			c-1.1,1.4-2,2.9-3.1,4.2c-0.6,0.7-1.5,1.2-2.4,1.4c-1.9,0.5-3.6,1-5.1,2.6c-1.8,1.9-4.6,2.6-7.1,3.2c-1.8,0.5-3.5,1.1-5.4,0.6
			c-0.5-0.1-1.1,0.4-1.7,0.5c-1.2,0.2-2.5,0.6-3.7,0.5c-3-0.3-4.4,1.1-4,4.1c0.1,0.5,0,1.1-0.2,1.6c-0.8,3.3-2.2,6.4-4.1,9.2
			c-0.2,0.2-0.3,0.5-0.4,0.8c-0.2,2.3-1,4.4-2,6.4c-0.3,0.7-0.5,1.5-0.6,2.3c-0.2,1.2,0.4,2.1,1.5,2.2c0.7,0.1,1.9-0.5,2.1-1
			c0.7-1.8,2.4-3.2,2.2-5.4C119.5,143,120,142.5,120.4,141.7z"/>
		<path class="st0" d="M82.3,92.2c-1.7-3.9-3.9-7.1-7-9.7c-0.1-0.1-0.4-0.2-0.5-0.4c-1.3-3-4.1-3.3-6.8-3.9
			c-1.2-0.2-1.8-0.6-1.6-1.9c0.1-0.5,0.1-1.1-0.2-1.4c-2.7-3.5-2.2-7.8-2.7-11.8c-0.2-1.9-0.4-3.8,0.3-5.8c0.5-1.3,0.2-3.1,0.5-4.7
			c0.9-5.7,4.2-9.5,8.5-12.8c1.5-1.1,2.9-2.4,4.3-3.5c0.2-0.2,0.5-0.4,0.7-0.5c4.6-1.4,7.7-5.3,12.2-6.8c2.5-0.8,5-1.8,7.5-2.5
			c3.4-1,7-1,10.5-0.6c1.2,0.1,2.4-0.1,3.5-0.1c3,0,6,0.1,9,0.2c0.7,0,1.3,0.2,2,0.4c2.5,0.8,4.9,1.9,7.5,2.4c2.7,0.5,4.7,2.3,7,3.4
			c0.8,0.4,1.4,1,2.2,1.5c3.1,1.7,5.4,4.1,7.8,6.6c2.4,2.5,3.5,5.3,4.5,8.4c0.6,1.8,1.2,3.5,1.8,5.3c0.3,0.7,0.8,1.4,1,2.1
			c0.4,1.2,0.8,2.4,1.1,3.6c0.2,0.9-0.3,1.5-1.2,1.7c-1.4,0.3-2.9,0.5-4.3,0.8c-0.3,0.1-0.6,0.1-0.9,0.2c-4.3,2.4-9,3.3-13.6,4.5
			c-1.5,0.4-2.7,2-4.6,1.3c-0.1,0-0.4,0.1-0.5,0.2c-2.1,2.8-5.2,1.6-7.9,2c-0.9,0.1-1.8,0.5-2.7,0.7c-0.1,0-0.2,0.1-0.2,0.2
			c-3.2,0.6-6.5,1.3-9.7,1.9c-2.7,0.5-5.4,0.9-8,1.7c-2,0.7-3.8,1-5.9,0.8c-3.1-0.3-6.2,0.4-9.1,1.6c-0.6,0.2-1.1,1.1-1.3,1.8
			c-0.3,1.2-0.2,2.5-0.4,3.8c-0.1,1-0.4,2-0.5,3.1c-0.1,0.8-0.3,1.7-0.2,2.5C84.6,90.3,84.3,90.9,82.3,92.2z"/>
		<path class="st1" d="M149.7,334.7c1-0.7,2-1.3,3-2c0.2-0.2,0.6-0.3,0.7-0.5c1.3-2.8,3.8-4.8,5.2-7.5c0.2-0.4,0.3-0.9,0.3-1.4
			c0.1-0.5-0.1-1,0-1.5c0.3-1.3,1.1-2.7,0.9-3.9c-0.7-5.1-1.6-10.3-2.7-15.3c-0.2-0.8-1.2-1.5-2-2c-1.8-1.1-4-1.7-5.7-3
			c-3.3-2.7-7.2-4.4-11-6.2c-0.8-0.4-1.6-0.9-2.5-1.4c0.3-0.5,0.4-0.9,0.6-1c2.5-1,5-2,7.5-3c2.6-1.1,5.1-2.4,7.7-3.4
			c2.6-1,4.7-2.7,7.1-4.1c1.9-1.2,4.2-1.6,6.3-2.4c1.6-0.6,3.1-1.5,5-2.3c-0.2,2.2,0.4,4-0.4,6.1c-1.1,2.6-1.6,5.4-0.8,8.3
			c0.2,0.7-0.1,1.7-0.4,2.4c-0.6,1.3-1.2,2.4-0.9,3.9c0.1,0.7-0.7,1.6-0.7,2.4c-0.1,2.4-0.6,4.7-1.2,7c-0.2,0.6-0.2,1.5,0,2
			c1,2.2,0,4.2-0.4,6.3c-0.8,3.8-2.2,7.5-1.7,11.5c0.1,0.9-0.3,1.9-0.4,2.9c-0.1,0.8-0.5,1.7-0.2,2.3c0.9,1.5,0.3,2.8-0.7,3.7
			c-0.8,0.7-1.9,1.2-3,1.4c-3.1,0.5-6.2,0.8-9.3,1.1C149.9,334.9,149.8,334.8,149.7,334.7z"/>
		<path class="st0" d="M152,328.5c-1.8,0.5-3.1,1.4-3.8,3.3c-0.6,1.7-2.2,2.7-4.3,3.2c-0.2-1.2-0.7-2.4-0.5-3.5
			c0.7-4.2-1-8.3-0.6-12.5c0.1-0.9-0.8-2.3-1.7-2.8c-1.3-0.9-3-1.3-4.6-1.7c-1.6-0.4-2.8-1.2-3.9-2.5c-1.3-1.5-2.6-2.9-4-4.3
			c-1.1-1.1-1.2-2.2-0.6-3.5c1.1-2.3,2.2-4.6,3.3-6.9c0.9-1.9,1.9-3.8,3-5.7c6.1,3.7,12.4,7.5,18.4,11.1c0.6,2.7,1.2,5,1.7,7.3
			c0.1,0.6,0.1,1.1,0.2,1.7c0.4,1.9,0.5,3.9,1.2,5.7c1,2.7,1,4.4-1.2,6.4C153,325,152.5,326.7,152,328.5z"/>
		<path class="st0" d="M164,364.6c0.2-2,0.3-4.1,0.5-6.3c2.1-0.4,3.9-0.8,5.8-1.2c1.8-0.3,3.7-0.5,5.5-0.8c1.2-0.2,2.3-0.2,3.5-0.4
			c1-0.2,2-0.5,3.1-0.6c1-0.1,2.1,0,3.1-0.1c3.5-0.3,6.9-0.8,10.4-1.1c0.7-0.1,1.3-0.1,2-0.1s1.4,0.3,2.1,0.1c1.5-0.3,3-1,4.5-0.9
			c1.4,0.1,2.8,0.8,4.3,0c0.4-0.2,1.1,0.1,1.7,0.1c0.7,0,1.4,0,2-0.2c2.5-1,5.1-1.4,7.8-1.3c1.1,0.1,2.4,0.3,3.2-0.2
			c3.1-1.7,6.7-1.1,9.9-2c1-0.3,2.1-0.1,3.1-0.2c1.8-0.1,3.7-0.1,5.5-0.3c2.1-0.2,4.3-0.6,6.4-0.8c3.2-0.4,6.3-0.8,9.4-2
			c2.6-1,5.6-0.8,8.7-1.2c0.1,0.5,0.3,1.1,0.2,1.7c-0.2,0.7-0.8,1.4-0.9,2.1c-0.2,1.3-1,1.6-2.1,1.7c-4.6,0.4-9.2,0.7-13.8,1.4
			c-5.4,0.8-10.9,1.1-16.1,2.8c-2.5,0.8-5.3,1-8,1.3c-4.6,0.5-9.2,0.8-13.7,1.4c-1.1,0.1-2.2,0.9-3.4,1.4c-2-0.9-4.2-1-6.5-0.4
			c-3,0.8-6.1,1.4-9.1,2.2c-0.3,0.1-0.6,0.2-0.9,0.1c-3.7-0.6-7.1,1.1-10.6,1.6c-0.4,0.1-0.8,0.2-1.2,0.2c-4.6-0.2-8.9,1.4-13.3,2.1
			C166,364.7,165.1,364.6,164,364.6z"/>
		<path class="st0" d="M68.6,35.7c-3.3,0-6.7,0.3-10-0.9c-1.9-0.7-4-0.6-5.9-1.3c-2.8-1.1-5.5-2.5-7.6-4.9c-0.3-0.3-0.8-0.5-1.1-0.6
			c-0.4-2.1-0.6-4.2-1.2-6.2c-1.3-3.8,0.3-6.7,2.4-9.5c0.3-0.5,0.9-0.8,1.2-1.3c0.9-2,2.3-3,4.4-3.4c1.4-0.3,2.6-1.3,3.9-2
			C55.8,5,56.9,5,58.1,5.4c1.6,0.5,3.3,0.7,4.9,1.1c0.5,0.1,0.9,0.4,1.3,0.6C66,8,67.8,8.8,69.5,9.7c1,0.5,2.5,0.8,3,1.7
			c1.4,2.6,4.1,3.2,5.7,5.2c0.7,1.1,1.3,2.3,2,3.4c0.3,0.6,0.6,1.2,0.6,1.8c0.1,1.3,0.1,2.5,0.1,3.8c0.1,3.4,0,3.6-3.8,4.4
			c-0.2-0.7-0.5-1.4-0.7-2.1c-0.1-0.2,0-0.4-0.1-0.6c-1.4-2.4-1.9-5.4-3.4-7.5s-3.3-4.5-6-5.4c-0.6-0.2-1.1-0.8-1.6-1.3
			c-1.6-1.2-3.3-1.8-5.2-0.9c-0.5,0.2-1.1,0.5-1.7,0.6c-4.5,0.3-6.7,3.3-8.3,7c-1,2.4-0.3,4.6,1.9,6c0.3,0.2,0.8,0.3,1,0.6
			c1.8,3.2,5.3,4,8.2,5.5c0.4,0.2,0.9,0.5,1.2,0.8c0.9,0.9,1.8,1.3,3.1,1.3c1.1,0,2.2,0.6,3.2,0.9C68.7,35.2,68.7,35.4,68.6,35.7z"
			/>
		<path class="st0" d="M161.7,338.2c0,3.5-0.3,6.7-1,9.9c-0.4,1.8-0.1,3.7-0.1,5.6c-2.1-0.8-4.4-1.2-6.6-2.4
			c-2.6-1.4-5.8-1.8-8.6-2.8c-2.1-0.7-4.1-1.7-6.5-1.6c-1.4,0-2.8-0.5-4.1-1.1c-1.7-0.8-3.3-1.2-5.3-0.9c-1,0.2-2.3-1.2-3.4-2
			c6-1.4,11.8-2.4,17.6-3C149.5,339.3,155.4,338.8,161.7,338.2z"/>
		<path class="st0" d="M160.6,358c-0.3,1.8-0.6,3.7-1,5.8c-3.7-1.1-7.2-2.2-10.6-3.2c-2.6-0.8-5.2-1.6-7.8-2.4
			c-2.3-0.8-4.6-1.6-6.9-2.4c-1.9-0.6-3.9-1-5.9-1.6c-5.1-1.6-10.1-3.3-15.3-4.8c-2.7-0.8-5.5-1.3-8.4-1.9c0.6-1.4,1.4-1.8,2.6-1.6
			c1.5,0.3,2.9,0.1,3.7-0.9c2,0.3,3.7,0.5,5.4,0.8c0.3,0,0.6,0,0.8,0.2c3.1,2.2,6.8,2.4,10.2,3.4c0.6,0.2,1.3,0.5,1.9,0.7
			s1.3,0.8,1.9,0.7c1.7-0.3,3,0.4,4.4,1c1.8,0.8,3.6,1.4,5.7,1.4c1.7,0,3.4,0.7,5.1,1.1c1.4,0.3,2.8,0.7,4.2,1.1
			C153.9,356.2,157,357,160.6,358z"/>
		<path class="st1" d="M240.3,259.1c-8.4,1-16.5,1.9-24.4,2.8c-3-1.9-5.9-3.8-8.8-5.7c0-0.2,0-0.5,0.1-0.7c3.2-0.6,5.4-3.3,8.9-3.3
			c1.8,0,3.6-0.6,5.5-0.8c3-0.3,6-0.5,9.1-0.7c0.5,0,1.1,0.2,1.6,0.4s1,0.8,1.5,0.9C237.4,253,238.6,256.1,240.3,259.1z"/>
		<path class="st0" d="M77.6,355.4c0.3-4.2,2.7-7.2,3.6-10.6c1-3.5,3.6-5.9,4.4-9.5c3,1.4,5.8,2.4,8.4,3.9c2.5,1.4,5.9,1.5,7.5,4.3
			c-3.3,1.3-6.6,2.5-9.8,3.8c-0.5,0.2-1,0.7-1.4,1c-1.3,1.1-2.3,2.8-4.4,2.3c-0.3-0.1-0.9,0.2-1,0.5c-1.1,2.2-3.3,2.4-5.3,3.2
			C79.1,354.5,78.6,354.9,77.6,355.4z"/>
		<path class="st1" d="M137.9,319.3c0,1.7,0,3.5,0,5.9c-7.6-6.7-15.4-12.6-21.5-20.2c2.2,0.4,4.5,0.7,7,1.1c2.7,3.1,5.4,6.6,8.6,9.8
			C133.5,317.5,135.7,318.1,137.9,319.3z"/>
		<path class="st0" d="M60.2,28c-3-1.7-5.7-3.6-7-7.1c2-3.5,5.2-4.2,9-3.9c3.3,0.3,5.2,2.4,7.4,5.5c-2.3-0.2-3.9-0.2-5.5-0.4
			c-2.6-0.4-2.9-0.4-3.5,2.1C60.3,25.3,60.3,26.5,60.2,28z"/>
		<path class="st0" d="M65,26c3.8,0.3,5.1,1.2,6,4.2C68.7,30.6,66.2,28.9,65,26z"/>
		<path d="M138.2,97.4c-1.9-2.8-3.7-5.2-5.2-7.8c-0.3-0.5-0.1-1.7,0.4-2c0.4-0.4,1.8-0.4,2,0c1.8,2.4,5.4,3.6,5.6,7.3
			c0,0.7,0.9,1.3,1.2,2c0.7,1.3,0.4,2.3-0.9,2.9c-2.7,1.3-5.5,2.6-8.2,3.8c-0.4,0.2-0.9,0.4-1.4,0.4c-1.1,0.1-1.9-0.5-2.1-1.6
			c-0.3-1.1,0.1-2.1,1.1-2.5c1.2-0.5,2.5-1.1,3.7-0.9C136.1,99.3,137,98.3,138.2,97.4z"/>
		<path d="M126.1,114.4c-1-0.4-1.7-0.6-2.3-0.8c-0.4-0.2-0.9-0.6-1.3-0.6c-4.2,0.6-4.5-3.4-6.3-5.6c-0.4-0.4,0-1.7,0.4-2.4
			c0.6-0.9,1.7-1.2,2.6-0.6c1.1,0.7,2.3,1.4,2.9,2.4c1.1,1.8,2.4,2,4.2,1.5c1.5-0.4,3.1-0.4,4.6-0.2c1.9,0.3,2.4,2,0.8,3.1
			C130,112.6,127.9,113.4,126.1,114.4z"/>
		<path d="M151.6,87c0,0.5,0.2,1.1,0,1.4c-0.7,1.1-1.5,2.3-2.5,3c-0.7,0.6-3.3-0.8-4-1.9c-0.6-1.1-1-2.3-0.1-3.6
			c0.4-0.5,0.6-1.2,0.7-1.8c0.3-1.4,1.2-1.9,2.4-2.1c1.3-0.2,2.3,0.2,2.8,1.6c0.4,1.1,0.6,2.2,1,3.3C151.8,87,151.7,87,151.6,87z"/>
		<path d="M118.3,93.4c-1.9,0-4.3-2.1-4.6-4c-0.1-0.4-0.1-0.8,0-1.2c0.4-1.3,4.6-3.5,5.9-3.1c1.7,0.5,2.2,1.4,2,3.4
			c-0.1,0.7,0,1.4-0.1,2C121.3,92.3,120,93.4,118.3,93.4z"/>
	</g>
	<path class="st1" d="M104,99.3c0,2.2,4.7,4,10.4,4c5.8,0,10.4-1.8,10.4-4s-4.7-4-10.4-4S104,97.1,104,99.3z"/>
	<path class="st1" d="M143.9,97.8c0,2.2,3.1,4,6.9,4c3.8,0,6.9-1.8,6.9-4s-3.1-4-6.9-4S143.9,95.6,143.9,97.8z"/>
</g>
</svg>
