<?xml version="1.0" encoding="utf-8"?>
<!-- Generator: Adobe Illustrator 25.0.0, SVG Export Plug-In . SVG Version: 6.00 Build 0)  -->
<svg version="1.1" id="_xEFF5__xEED3__x5F_7" xmlns="http://www.w3.org/2000/svg" xmlns:xlink="http://www.w3.org/1999/xlink"
	 x="0px" y="0px" viewBox="0 0 228.1 286.9" style="enable-background:new 0 0 228.1 286.9;" xml:space="preserve">
<style type="text/css">
	.st0{fill:#0B0C0C;}
	.st1{fill:#FDFEFE;}
	.st2{fill:#FDD23E;}
</style>
<g>
	<g>
		<path class="st0" d="M77.3,174.2c-0.6-0.4-1.2-0.7-1.7-1c-0.7-0.3-1.5-0.6-2.2-0.9c-0.4-0.2-0.8-0.5-1.2-0.6c-2-0.5-3.3-1.9-4.9-3
			c-1.6-1.2-3.4-2-5.2-2.9c-0.8-0.4-1.7-0.4-2.5-0.7c-2.2-0.8-4-2.2-6.1-3.3c-0.6-0.3-1.3-0.4-1.9-0.6c-0.5-0.2-1.2-0.2-1.6-0.6
			c-1.1-0.9-2.3-1.3-3.7-1.6c-0.2,0-0.4-0.1-0.6-0.2c-1.2-0.8-2.4-1.6-3.6-2.3c-1.4-0.9-2.8-1.8-4.2-2.7c-0.4-0.2-0.8-0.3-1.2-0.5
			c-0.9-0.4-1.8-0.7-2.5-1.3c-1.1-1-2.4-1.7-3.8-2.3c-1.9-0.9-3.7-1.9-5.5-2.9c-0.4-0.2-0.9-0.4-1.3-0.6c-1.1-0.5-2.3-0.9-3.2-1.9
			c-1.3-1.2-3-1.3-4.7-0.8c-0.9,0.3-1.4,1.1-1.7,2c-0.1,0.4-0.4,0.8-0.7,1.2c-0.5,0.6-1,1.2-1.5,1.8c-0.3,0.3-0.5,0.6-0.9,0.8
			c-0.8,0.6-1.3,1.3-1.5,2.3c-0.3,1.8-1,3.5-2.1,5c-1.5,2-2.1,4.2-2.3,6.6c-0.1,0.9,0,1.8-0.9,2.4c-0.2,0.1-0.4,0.4-0.4,0.7
			c-0.1,2.1-1.8,3.9-1.3,6.1c0.1,0.3-0.2,0.8-0.4,1c-1.2,1.4-1.4,3-0.9,4.8c0.1,0.3,0,0.7-0.1,0.9c-2,1.7-1,4.9,2.1,5.7
			c2.6,0.7,5,0.4,7.3-0.9c1.4-0.7,2.8-1.4,4.2-2.1c0.3-0.2,0.6-0.4,0.8-0.6c1-0.7,1.9-1.4,2.9-2.1c0.2-0.1,0.5-0.1,0.8-0.2
			c0.5-0.2,1.1-0.3,1.5-0.6c1.2-0.6,2.4-1.3,3.5-2c0.5-0.3,1.1-0.7,1.5-0.6c0.4,0.1,0.7,0.8,1.1,1.2c0.8,0.6,1.7,1.2,2.5,1.8
			c0.2,0.2,0.5,0.3,0.7,0.5c1.3,1.4,2.8,2.3,4.8,1.9c0.3,0,0.9,0.2,0.9,0.5c0.4,1.8,1.9,2.5,3.1,3.5c0.3,0.3,0.7,0.5,0.9,0.9
			c0.5,1,1.3,1.6,2.3,2c0.9,0.3,1.7,0.7,2.4,1.5c0.4,0.5,1.1,0.9,1.7,1c1.4,0.3,2.4,1.1,3.5,2c1.4,1.2,3,2.1,4.5,3.2
			c0.4,0.3,0.8,0.5,1,0.9c0.7,1.2,1.8,1.6,3.1,1.8c1,0.2,2.1,0.8,2.7,1.5c0.9,1.1,1.8,1.7,3.2,1.9c0.4,0.1,0.9,0.3,1.2,0.7
			c1.2,1.4,2.4,3,4.2,3.6c1.4,0.5,2.7,1.2,3.8,2.3c1.1,1,2.6,1.9,4.3,1.7c0.2,0,0.4,0.3,0.7,0.5c0.6,0.4,1.1,0.9,1.7,1.3
			c0.4,0.3,0.8,0.4,1.2,0.7c1.1,0.8,2.2,1.3,3.6,1.4c0.4,0,0.7,0.2,1.1,0.3c0.1,0.1,0.2,0.2,0.4,0.3c2.4,1.6,6.5,1.1,8.5-1
			c0.6-0.6,1.3-1.1,1.9-1.6c0.1-0.1,0.2-0.1,0.2-0.2c1-1.6,2.7-2.6,3.9-4c0.1-0.2,0.3-0.4,0.4-0.5c1.7-0.6,2.4-2.1,3.4-3.4
			c0.3-0.4,0.7-0.7,1-1.1c0.3-0.3,0.8-0.6,0.9-1c0.5-1.3,1.3-2.3,2.3-3.3c0.5-0.4,0.9-0.9,1.3-1.3c0.1-0.1,0.4-0.2,0.4-0.4
			c0.6-1.4,1.8-1.9,3-2.5c0.6-0.3,1.1-1,1.6-1.5c0.6-0.7,1.2-0.9,1.9-0.2c1.2,1.2,2.7,1.4,4.2,1.7c1,0.2,1.8,0.6,2.2,1.3
			c1,1.5,2.5,2.1,4,2.6c1.7,0.5,3.1,1.4,4.5,2.3c0.6,0.4,1.4,0.7,2.1,1c0.3,0.1,0.6,0.3,0.9,0.5c0.9,0.8,1.9,1.6,3.2,1.6
			c0.3,0,0.5,0.2,0.7,0.3c1.7,1.3,3.3,2.8,5.1,4c1.4,0.9,3,1.6,4.5,2.3c0.3,0.2,0.7,0.3,1,0.5c1.2,0.7,2.4,1.7,3.8,2.1
			c1.2,0.4,2.3,0.9,3.5,1.2c1.1,0.2,1.7,0.7,2.3,1.5c0.4,0.6,1.2,0.9,1.9,1.2c0.4,0.2,0.6,0.4,0.5,0.9c-0.1,0.4,0,0.9,0,1.3
			c-0.1,0.7-0.2,1.4-0.2,2.1c0,0.9,0.1,1.8,0.4,2.6c0.2,0.6,0.4,1.1,0.1,1.6c-0.5,1-0.4,1.9,0,2.9c0.3,0.7,0.2,1.6,0.4,2.4
			c0.2,1.2-0.1,2.3-0.3,3.4c-0.1,0.5-0.1,1,0,1.5c0.3,1.1,0,2.4,0.3,3.4c0.4,1.6,0.1,3.2,0.5,4.8c0.2,0.8,0.3,1.7,0.3,2.6
			c0,1.5-0.1,3-0.1,4.5c0,0.1-0.1,0.2,0,0.4c0.2,1.7,0.4,3.5,0.6,5.2c0,0.1,0.1,0.2,0.1,0.4c0.1,1.5,0.1,2.9,0.1,4.4
			c0.1,2.7,0,5.5,1.5,8c0.1,0.2,0.1,0.4,0.1,0.6c0,0.1-0.1,0.2-0.1,0.3c0.1,1.4-0.2,2.7-0.6,4.1c-0.3,1.1,0,2.3,0.7,3.3
			s1,2.1,0.3,3.3c-0.4,0.8-0.7,1.7-1,2.6c-0.5,1.4,0.4,3.1,2,3.2c1.7,0.1,3.4,0.7,5.1-0.1c0.7-0.3,1.4-0.7,2.1-1
			c0.3-0.1,0.6-0.2,0.9-0.2c1.1,0.3,2,0.1,2.9-0.5c0.3-0.2,0.7-0.2,1-0.3c0.7-0.2,1.4-0.4,2.1-0.7c0.2-0.1,0.5-0.3,0.7-0.2
			c2.1,0.3,3.9-0.6,5.7-1.1c1.2-0.3,2.4-0.8,3.6-0.9c1.2-0.2,2.2-0.5,3.2-1c0.8-0.4,1.7-0.6,2.5-0.7c1.1-0.2,2.1-0.5,2.9-1.5
			c0.2-0.3,0.6-0.4,0.9-0.6c0.3-0.1,0.6-0.2,0.9-0.4c1-0.5,1.9-1,3.1-0.9c0.7,0,1.5-0.7,2.1-1.1c1.1-0.7,2.3-1.5,3.3-2.3
			c0.6-0.5,0.8-1.2,0.8-2.1c0-1.2,0.1-2.3,0.2-3.5c0.1-2-1.4-3.6-3.4-3.7c-1.1-0.1-2.2-0.5-3.3-0.7c-1.6-0.2-2.7-1.4-4.1-2
			c-0.6-0.2-1.2-0.4-1.7-0.6c-0.8-0.3-1.6-0.6-2.5-0.9c-0.6-0.2-1.3-0.4-1.9-0.2c-1,0.3-1.7,0-2.3-0.6c-1.2-1.2-2.4-2-4.2-1.6
			c0-1.2,0.1-2.2,0-3.2s-0.4-2-0.6-3c-0.1-0.3,0-0.6,0.1-0.9c0.1-0.7,0.3-1.4,0.4-2.1c0.1-0.4,0.1-0.9,0.2-1.3
			c0.4-1.1,0.4-2.2,0-3.3c-0.1-0.3-0.1-0.8,0-1.1c0.5-1.3,0.7-2.6,0.6-4.1c-0.1-1.6,0.1-3.2,0.2-4.9c0-0.1,0.1-0.2,0-0.3
			c-0.6-1.6-0.2-3.2-0.1-4.8c0-0.3,0-0.7,0.1-0.9c0.6-1.3,0.6-2.6,0.5-4c-0.1-0.8,0.2-1.6,0.2-2.4c0.1-0.5,0.3-1.2,0.1-1.6
			c-0.8-1.5-0.1-3-0.2-4.4c0-0.1,0-0.3,0.1-0.4c1-1.9,0.4-3.7-0.2-5.5c-0.1-0.4-0.2-0.8-0.1-1.2c0.1-1.2,0.3-2.4,0.4-3.6
			c0-0.3,0-0.6-0.1-0.8c-0.6-0.9-0.5-1.7-0.1-2.7s0.1-1.9-0.4-2.8c-0.6-0.9-1.1-1.9-1.6-2.9c-0.2-0.3-0.3-0.6-0.5-0.7
			c-1.6-1.2-3.2-2.4-4.8-3.6c-1.5-1.1-2.9-2.3-4.4-3.4c-0.4-0.3-0.8-0.8-1.3-0.9c-1-0.2-1.5-0.9-2.1-1.6c-1.1-1.3-2.4-2.5-4.4-2.7
			c-0.4,0-0.8-0.4-1.1-0.7c-0.8-1-1.7-1.8-3-2.2c-0.3-0.1-0.6-0.4-0.9-0.6c-0.6-0.3-1.2-0.8-1.8-0.8c-1.5-0.1-2.4-1-3.4-1.9
			c-1-0.8-2.3-1.3-3.4-1.9c-0.6-0.4-1.3-0.7-1.9-1.1c-0.6-0.3-1.2-0.7-1.8-0.9c-1.1-0.4-2-1.4-2-2.6c0-0.2,0-0.4,0.1-0.5
			c1.1-1.6,0.5-3.4,0.4-5.1c-0.1-1.6-0.4-3.2,0.1-4.8c0.2-0.7-0.1-1.7-0.4-2.5c-0.1-0.4-0.3-0.7,0-1.2c0.6-0.9,0.6-1.9,0-2.9
			c-0.3-0.4-0.2-0.7,0-1.1c0.4-0.7,0.5-1.5,0.8-2.4c1.4-0.1,3-0.1,4.6-0.2c0.4,0,0.8-0.1,1.2-0.1c0.2,0,0.4-0.2,0.5-0.1
			c1.7,0.3,3.3,0.3,5-0.1c1.3-0.3,2.7-0.4,4-0.6c0.5-0.1,1-0.2,1.4-0.1c1.8,0.1,3.4-0.1,5-1c0.4-0.2,0.8-0.2,1.3-0.3
			c0.1,0,0.3,0,0.4,0c1.5-0.3,3-0.6,4.4-1c1.2-0.3,2.4-0.8,3.7-1.3c0.3-0.1,0.7-0.3,1-0.5c1.1-1,2.5-1.2,4-1.3
			c1.6-0.1,3.2-0.6,4.8-1.1c1.2-0.4,2.3-0.9,3.4-1.5c1.1-0.5,2.3-0.8,3.2-1.6c1-0.9,1.9-1.1,3.1-1.3c0.8-0.1,1.4-0.9,2.1-1.4
			c0.2-0.1,0.4-0.4,0.6-0.4c0.8,0.1,1.6,0.2,2.4,0.4c0.9,0.3,1.8,0.2,2.5-0.5c0.5-0.4,0.9-0.5,1.4-0.2c0.9,0.4,1.9,0.3,2.9,0
			c1.1-0.3,2.3-0.1,3.5-0.2c1.7-0.2,3.5-0.4,4.9-1.7c0.4-0.4,0.9-0.6,1.4-0.9c2.1-1.4,3.6-3.1,3.6-5.8c0-1,0.5-2.1,0.8-3.1
			c0.3-0.9,0.4-1.7,0-2.6c-0.1-0.4-0.2-0.8-0.1-1.2c0.1-2,0.2-4,0.3-6c0-0.4-0.1-1-0.4-1.3c-1.1-1.1-1.2-2.6-2-3.7
			c-0.4-0.6-1.1-1-1.7-1.4c-2-1.1-4-0.6-6.1-0.2c-0.4,0.1-0.8-0.1-1.2-0.2c-0.1,0-0.1-0.1-0.1-0.1c-1.8-0.7-3.4-1.7-5-2.6
			c-1.4-0.8-3.2-0.7-4.8-0.9c-1.1-0.1-2,0.6-2.7,1.5c-0.4,0.5-0.8,1-1.3,1.4c-1,0.7-1.5,1.7-1.6,2.9c-0.1,0.9-0.2,1.8-0.3,2.4
			c-0.9,0.5-1.5,0.8-2.2,1.1c-0.2,0.1-0.3,0.2-0.5,0.2c-2.1-0.1-3.9,0.5-5.8,1.2c-1,0.4-2.1,0.3-3.1,0.6c-0.9,0.3-1.8,0.7-2.7,1.1
			c-0.3,0.1-0.6,0.3-0.8,0.2c-1.5-0.2-2.9-0.1-4.3,0.6c-1,0.4-2.3,0.6-3.4,0.7c-1.1,0.1-1.9,0.4-2.8,1.1c-0.5,0.4-1.2,0.6-1.8,0.8
			c-1.2,0.5-2.5,1-3.7,1.5c-0.3,0.1-0.6,0.1-0.9,0.1c-0.8,0.1-1.5,0.2-2.3,0.3c-0.4,0.1-0.7,0.4-1,0.3c-1.6-0.5-3-0.3-4.2,1
			c-0.1,0-0.2-0.1-0.3-0.1c-0.1-0.6-0.2-1.3-0.2-1.9c0.2-1.9-0.2-3.5-1.9-4.7c-0.1-0.1-0.3-0.2-0.4-0.4c-0.4-1.2-0.7-2.4-1.1-3.6
			c-0.5-1.6-0.6-3.3-1.6-4.7c-0.7-0.9-0.9-2.1-1.4-3.1c-0.8-1.6-1.7-3.2-2.5-4.8c-0.1-0.2-0.3-0.3-0.4-0.4c-1.2-2.6-2.3-5.2-3.5-7.8
			c-0.1-0.1-0.1-0.3-0.2-0.4c-1.1-1-1.6-2.3-2.2-3.6c-0.5-0.9-0.9-1.9-1.4-2.9c-0.6-1.3-0.8-2.6-0.9-4c-0.1-0.8,0.2-1.6,0.4-2.5
			c1.4,0,2.8,0.1,4.2,0.1c1.5,0,2.9-0.1,4.3-0.8c1.6-0.9,3.4-1.5,5.1-2.2c0.1,0,0.1,0,0.2-0.1c1.5-1.1,2.9-2.2,4.4-3.3
			c0.2-0.1,0.3-0.4,0.4-0.6c0.2-1.1,0.7-1.9,1.1-2.9c0.8-1.8,1.8-3.4,3.1-4.9c0.8-0.9,1.5-1.6,2.5-2.3c1.3-0.9,1.9-3.5,1.5-5.1
			c-0.6-2.3-1.3-4.7-1.8-7c-0.2-0.8,0-1.6,0.2-2.4c0.5-1.9,1.1-3.8,1.7-5.7c0.1-0.3,0.5-0.5,0.8-0.7c0.6-0.4,1.2-0.8,1.8-1.2
			c0.9-0.7,1.8-1.4,2.7-2c1.2-0.8,1.9-1.8,2.2-3.3c0.2-1,0.5-2,0.9-2.8c0.6-1,0.8-2,0.5-3.1c-0.3-1.4-0.5-2.8-0.8-4.1
			c-0.4-1.3-0.7-2.7-1.4-3.9c-0.6-1-1.7-1.8-2.6-2.7c-0.7-0.7-1.6-1.4-2.3-2s-1.4-1.2-2.2-1.8s-1.6-1.3-2.4-1.8
			c-1-0.7-2.2-1.3-3.2-1.9c-0.2-0.1-0.4-0.1-0.5-0.2c-0.8-1.4-2.3-1.5-3.5-2.3c-0.3-0.2-0.7-0.4-1.1-0.5c-1.5-0.6-3.1-1.3-4.6-1.8
			c-1-0.3-2.1-0.4-3.1-0.6c-0.2,0-0.3,0-0.5,0c-1.7-1.3-3.9-0.5-5.8-1.4c-0.3-0.2-0.8-0.2-1.2-0.1c-0.8,0.1-1.5-0.3-2.2-0.5
			c-1.7-0.5-3.5-0.6-5.3-0.2c-0.4,0.1-0.8,0.1-1.2,0c-1.3-0.5-2.4-0.9-3.8-0.2c-0.5,0.3-1.4-0.1-2-0.3c-1.8-0.4-3.6-0.3-5.5,0.2
			c-0.7,0.2-1.6-0.1-2.3-0.1c-0.8,0-1.6,0-2.4,0.2c-1.7,0.5-3.3,1.2-5,1.8c-0.3,0.1-0.7,0.2-0.8,0.4c-0.8,1-2,1.3-3.1,1.7
			c-0.6,0.2-1.1,0.8-1.6,1.2c-0.2,0.2-0.4,0.5-0.7,0.6c-0.9,0.4-1.4,1.1-1.5,2c-0.1,0.4-0.3,0.7-0.4,1s-0.3,0.7-0.3,1
			c0,1.1,0,2.3,0,3.2c-1.4,0.5-2.6,0.9-3.8,1.3c-0.3,0.1-0.5,0.2-0.7,0.4c-0.8,0.7-1.7,1.3-2.4,2c-1.4,1.6-2.7,3.3-4,5
			c-0.3,0.5-0.4,1.1-0.6,1.7c-0.1,0.2,0,0.5-0.1,0.6c-1,1.2-0.6,2.6-0.6,4c0,0.7-0.1,1.3-0.3,2c-0.4,1.4-0.7,2.7,0.4,3.9
			c0.1,0.1,0.2,0.5,0.1,0.7c-0.4,1.3,0.1,2.4,0.7,3.5c0,0.1,0.1,0.2,0.1,0.2c-0.2,1.8,1.4,3.1,1.5,4.8c0,0.9,0.5,1.7,1,2.5
			c0.6,0.8,0.8,1.8,1.2,2.8c0.2,0.6,0.4,1.3,0.7,1.9c0.1,0.4,0.4,0.7,0.6,1c0.9,0.9,1.8,1.7,2.6,2.6c0.5,0.6,0.7,1.3,1.1,2
			s0.9,1.4,1.4,2.1c0.2,0.3,0.5,0.6,0.6,1c0.4,0.8,2.9,3.6,3.7,4.1c0.3,0.2,0.6,0.6,0.8,0.9c0.5,0.8,1,1.5,2,1.7
			c0.2,0,0.4,0.1,0.5,0.3c0.5,1.3,1.9,1.8,2.9,2.6c0.2,0.2,0.5,0.4,0.7,0.6c0.4,0.5,0.4,0.8-0.1,1.2c-1.3,1-1.5,1.8-1,3.4
			c0.4,1.2,0.1,1.5-1,2c-0.5,0.2-1,0.5-1.3,0.9c-0.5,0.7-1,0.9-1.8,1.1c-0.8,0.1-1.5,0.7-2.3,1c-0.5,0.2-1.1,0.4-1.6,0.3
			c-1.8-0.3-3.4,0.8-5.1,1c-1.2,0.1-2.3,0.6-3.5,0.9c-0.2,0.1-0.5,0.1-0.7,0.2c-1.1,1-2.6,1.1-3.9,1.6c-0.3,0.1-0.7,0.1-1,0
			c-1.9-0.4-3.9,0.6-4.7,2.4c-0.4,1-1.1,1.8-2.4,1.9c-0.5,0-1,0.4-1.5,0.7c-0.9,0.6-1.7,1.1-2.5,1.8c-1.2,1-2.4,1.9-4,2.3
			c-0.9,0.3-1.5,1.1-1.7,2.1c-0.1,0.5-0.4,0.8-0.9,0.8c-0.9,0.1-1.6,0.7-2.2,1.4c-1,1.2-2.3,2.1-3.7,2.7c-1.2,0.5-2.3,1.4-3.3,2.3
			s-1.8,2-2.7,2.9c-0.6,0.5-1.4,0.9-2.1,1.3c-0.6,0.4-1.1,0.8-1.7,1.2c-0.3,0.2-0.6,0.4-0.9,0.6c-1.4,0.8-2.9,1.5-4.2,2.4
			c-0.7,0.4-1.2,1.1-1.7,1.7c-1.1,1.5-2.6,2.2-4.3,2.8c-1.1,0.4-1.8,1.2-2,2.4c0,0.2-0.1,0.3-0.1,0.4c-0.7-0.3-1.4-0.7-2-1
			c-0.2-0.1-0.4-0.3-0.5-0.5c-0.5-0.7-1.1-1.1-1.9-1c-0.3,0-0.6-0.2-0.9-0.4c-1.2-0.8-2.4-1-3.8-0.7c-0.3,0.1-0.7,0-1.1,0
			c-1.3-0.2-2.4,0.5-2.8,1.7c-0.2,0.5-0.4,1-0.7,1.4c-1,1.3-0.9,2.9-0.5,4.2c0.3,1.3,0,2.3-0.6,3.2c-1.5,2.3-1.2,4.8-1.2,7.2v0.1
			c1,2,1.7,4.2,3.8,5.5c0.9,0.6,1.7,1.4,2.6,1.9c1.9,0.9,3.8,1.6,5.7,2.3c0.8,0.3,1.7,0.2,2.5,0.4c1,0.3,2,0.2,2.9-0.3
			c1.4-0.8,2.9-1.5,4.3-2.3c0.3-0.1,0.6-0.3,0.7-0.6c0.8-1.3,1.8-2.4,3-3.3c0.6-0.5,1.2-1.1,1.8-1.7c0.6-0.7,1.1-1.5,1.6-2.2
			c0.3,0.4,0.6,0.8,0.9,1.2c1.1,1.3,2.6,1.3,3.7,0c0.1-0.1,0.2-0.3,0.3-0.4c1.2-0.6,2.4-1.3,3.6-1.7c1-0.3,1.8-0.7,2.4-1.6
			c0.2-0.3,0.5-0.5,0.8-0.6c1.1-0.4,2.2-0.8,3.3-1.3c0.2-0.1,0.5-0.3,0.7-0.5c1-1.3,2.5-2,4-2.7c1.1-0.5,2-1.3,2.5-2.4
			c0.3-0.9,1-1.1,1.8-1.4c0.7-0.2,1.5-0.6,2.1-1c1.2-0.8,2.2-1.8,3.3-2.6c1.9-1.3,3.6-2.9,4.9-4.8c0.4-0.5,0.5-1.1,0.8-1.8
			c0.3,0.1,0.5,0.3,0.8,0.3c0.8,0.1,1.6,0.3,2.3,0c0.8-0.3,1.5-0.5,2.2-0.1c0.2,0.1,0.5,0.1,0.8,0.2c-0.1,0.2-0.2,0.4-0.3,0.5
			c-1.7,1.4-2.2,3.2-2.1,5.4c0,0.3,0,0.7-0.2,1c-0.5,1.3-1,2.5-1.5,3.8c-0.4,1.1-0.5,2.1,0.1,3.1c0.3,0.5,0.2,0.8-0.1,1.2
			c-0.9,1.2-2,2.3-2.2,3.9c0,0.5,0,0.9-0.1,1.4c-0.2,0.9-0.4,1.8-0.7,2.6c-0.2,0.7-0.5,1.4-0.8,2.1c-0.1,0.3-0.1,0.6-0.3,0.7
			c-1,1.1-1.3,2.5-1.6,4c-0.3,1.5-0.9,2.9-1.3,4.3c-0.3,1.1-0.3,2.2-0.5,3.3c-0.1,0.6-0.3,1.1-0.5,1.7c-0.1,0.3-0.3,0.5-0.3,0.8
			c0.1,1.4-0.7,2.5-1,3.8c-0.3,1.7-0.6,3.2-1.8,4.5c-0.2,0.2-0.2,0.5-0.2,0.7c-0.1,0.9-0.5,1.6-1,2.4c-1.2,1.9-2.2,3.8-3.2,5.8
			c-0.3,0.5-0.4,1.1-0.4,1.6C79.5,170.3,78.1,172.1,77.3,174.2z"/>
		<path class="st1" d="M86.7,167.4c-1,1.8-1.9,3.5-2.9,5.2c-0.2,0.3-0.1,0.7-0.3,1c-0.4,1.1-0.9,2.1-1.3,3.2
			c-0.2,0.7-0.4,1.4-0.4,2.1c0,1.7-0.8,2.8-2.3,3.5c-1.7,0.7-3.3,0.1-4-1.6c-0.2-0.4-0.6-0.8-1-1.1c-1.3-0.9-2.5-1.8-3.8-2.6
			c-1.1-0.7-2.2-1.4-3.3-2.1c-0.1-0.1-0.2-0.1-0.4-0.1c-1.8,0.1-3.2-0.9-4.7-1.7c-0.3-0.2-0.7-0.5-1-0.6c-2.1-0.6-3.8-2-5.6-3.1
			c-0.1,0-0.1-0.1-0.2-0.1c-1.4-0.6-2.9-1.1-4.3-1.7c-0.7-0.3-1.3-0.7-1.9-1.1c-0.6-0.3-1.1-0.9-1.8-1c-1.3-0.3-2.4-1-3.4-1.7
			c-0.4-0.3-0.8-0.5-1.3-0.7c-1.4-0.7-2.7-1.5-4.1-2.2c-0.8-0.4-1.7-0.7-2.6-1.2c-0.8-0.4-1.6-0.7-2.3-1.2c-1-0.7-2.4-0.5-2.9,0.6
			c-0.4,0.8-0.9,1.3-1.7,1.7c-1.1,0.5-1.2,1.7-1.2,2.7c0.1,2.1-0.2,4-1,5.9c1.1,0.7,2.1,1.4,3.3,2c1.2,0.7,2.2,1.4,2.9,2.6
			c0.1,0.3,0.5,0.5,0.7,0.7c1.4,0.9,2.5,1.9,2.8,3.6c0,0.3,0.5,0.7,0.7,0.7c1.9-0.3,3.2,0.8,4.6,1.6c0.3,0.2,0.7,0.4,1,0.5
			c1.1,0.2,2,0.7,2.7,1.6c0.6,0.8,1.2,1.4,2.2,1.7c0.5,0.2,1.1,0.6,1.4,1.1c0.7,1.2,1.7,1.9,2.9,2.5c1.6,0.9,3.1,2.1,4.7,3.2
			c0.3,0.2,0.7,0.5,1.1,0.5c1.3,0.2,2.1,0.9,2.9,2c0.6,0.8,1.6,1.5,2.5,1.7c1.5,0.3,2.5,0.9,3.2,2.2c0.3,0.6,0.7,0.8,1.3,0.9
			c1.7,0.3,3.5,0.7,4.8,1.9c1.1,1,2.3,1.7,3.7,2.3c1.4,0.6,2.8,1.5,3.5,3c0.1,0.2,0.5,0.3,0.7,0.4c0.6,0.2,1.2,0.5,1.9,0.7
			c0.4,0.2,0.8,0.4,1.2,0.5c0.7,0.3,1.5,0.4,2,0.9c1.1,1.1,2.4,1,3.6,0.8s2.5-0.6,3.3-1.7c0.1-0.2,0.3-0.4,0.5-0.4
			c1.6-0.4,2.5-1.7,3.5-2.8c0.2-0.2,0.4-0.5,0.5-0.7c0.3-1.1,1-1.8,1.8-2.5s1.5-1.6,2.2-2.4c0.2-0.3,0.5-0.6,0.8-0.8
			c1.2-0.5,2.1-1.4,2.9-2.4c0.4-0.5,0.7-1,1.1-1.4c0,0,0-0.1,0.1-0.2c1.9-1.3,2.4-3.6,4-5.2c0.5-0.5,1.1-0.8,1.7-1.2
			c0.1-0.1,0.3-0.2,0.4-0.3c1.8-2.5,3.6-2.8,6.1-1c0.8,0.6,1.8,1,2.6,1.5c0.9,0.7,1.9,1.4,2.7,2.2c0.6,0.7,1.3,1.1,2.1,1
			c1.6-0.1,2.9,0.6,4.2,1.3c1.8,0.9,3.5,1.8,5.2,2.7c0.8,0.4,1.4,1.1,2.1,1.6c0.2,0.2,0.4,0.4,0.6,0.5c1.2,0.5,2.2,1.3,3,2.3
			c0.7,0.8,1.9,1.1,2.9,1.6c1.4,0.7,2.8,1.3,4.1,2.1s2.4,1.7,3.6,2.6c0.3,0.2,0.7,0.3,1,0.4c0.8,0.4,1.7,0.8,2.5,1.3
			c0.2,0.1,0.3,0.2,0.5,0.2c1.2,0,1.9,0.6,2.6,1.5c0.5,0.7,1.1,1.3,1.7,1.9c0.3,0.2,0.7,0.3,1.1,0.3c1.6,0.2,2.7,1,3.4,2.5
			c0.9,1.9,0.9,3.9,1.2,5.9c0,0.3,0.1,0.6,0.2,0.8c0.6,1.1,0.6,2.1,0.3,3.3c-0.1,0.4-0.1,0.9,0.1,1.3c0.6,1,0.8,2,0.5,3.2
			c-0.2,0.7-0.1,1.6,0.1,2.3c0.3,1.5,0.8,3,0.9,4.6c0.1,1.2,0.3,2.5,0.3,3.7c-0.1,1.6,0.4,3.2,0.2,4.8c-0.1,0.7,0,1.5,0.1,2.3
			c0.2,1.5,0.5,3,0.7,4.5c0,0.1,0.1,0.2,0.1,0.4c0.1,1.6,0.4,3.3,0.2,4.9c-0.3,2.8,0.7,3.1,2.8,3.5c0.6,0.1,1.4-0.2,2-0.3
			c0.2,0,0.4-0.2,0.5-0.2c2,0.4,3.4-0.9,4.8-1.9c0.4-0.2,0.7-0.7,0.7-1.1c0.2-1.7-0.1-3.5,1.1-5.1c0.1-0.1,0-0.4,0-0.6
			c-0.1-0.8-0.2-1.6-0.3-2.4c0-0.4,0-0.7-0.1-1.1c-0.4-1.2-0.3-2.4,0.3-3.6c0.2-0.3,0.2-0.8,0.1-1.2c-0.3-1.3-0.4-2.6,0-4
			c0.3-1.5,0.3-3,0.5-4.6c0.1-0.7,0.3-1.4,0.5-2c0.1-0.5,0.2-1.1,0.2-1.6c-0.1-1.9-0.2-3.8-0.3-5.7c0-1.2,0-2.3,0-3.5
			c0-0.5-0.1-1,0.1-1.4c0.9-1.3,0.5-2.8,0.7-4.2c0-0.2,0.1-0.5,0-0.7c-0.7-1.5-0.4-3,0.2-4.3c0.7-1.5,0.2-2.9-0.1-4.3
			c-0.2-0.9-0.4-1.8-0.1-2.7c0.1-0.3-0.1-0.7-0.3-0.9c-0.8-1.1-1.1-2.3-0.5-3.5c0.1-0.1,0.1-0.4,0.1-0.5c-0.7-1.1-1.3-2.3-2.7-2.7
			c-0.3-0.1-0.6-0.3-0.8-0.5c-1.5-1.7-3.4-2.7-5.4-3.4c-0.1,0-0.1,0-0.2-0.1c-1.4-1.8-3.8-1.6-5.5-2.8c-0.5-0.4-1.1-0.7-1.4-1.3
			c-0.4-0.7-0.9-1-1.7-1.1c-1.1-0.2-2.1-0.5-3-1.3c-0.3-0.3-0.7-0.3-1.1-0.5c-0.6-0.4-1.3-0.7-1.7-1.3c-0.8-1.2-2-1.6-3.2-2.1
			s-2.2-1.4-3.3-2.1c-0.5-0.3-1-0.6-1.6-1c-0.8-0.5-1.6-1-2.2-1.6c-0.6-0.5-1-0.5-1.4,0.1c-0.8,1.1-1.8,1.7-3.3,1.7
			c-0.8,0-1.5,0.8-2.3,0.9c-1.4,0.3-2.9,0.5-4.3,0.7c-0.6,0.1-1.1,0.2-1.7,0.2c-0.8,0-1.7,0.1-2.5-0.1c-0.6-0.1-1.2-0.4-1.9-0.1
			c-0.1,0-0.2,0.1-0.3,0.1c-1.7-0.1-3.3-0.2-5-0.4c-0.9-0.1-1.8-0.4-2.8-0.7c-0.2-0.1-0.5-0.1-0.7,0c-1.4,0.9-2.8,0.5-4.2,0.3
			c-1-0.1-2.1-0.2-3-0.6c-1-0.4-2.1-0.5-3.2-0.6c-1.5-0.2-3.1-0.7-4-2.2c-0.1-0.2-0.5-0.3-0.7-0.2c-1.2,0.5-2.3,0.2-3.4-0.4
			c-0.9-0.5-2-0.7-2.9-1.1c-0.9-0.4-1.8-0.7-2.4-1.4c-1.2-1.1-2.4-1.9-4.1-1.7c-0.6,0.1-1.2-0.3-1.8-0.5c-0.7-0.3-1.4-0.7-2.1-1
			C89,168.3,87.8,167.8,86.7,167.4z"/>
		<path class="st2" d="M171.9,31.1c0.5-0.5,1.1-0.9,1.6-1.4c0.2-0.2,0.2-0.6,0.2-0.9c-0.1-0.9-0.2-1.8-0.3-2.6
			c-0.1-0.8-0.2-1.7-0.4-2.4c-0.6-1.7-1.3-3.5-1.9-5.2c-0.1-0.1-0.1-0.3-0.3-0.4c-1.6-1.4-3.2-2.8-4.9-4.2c-1-0.8-2.2-1.5-3.2-2.3
			c-2.6-1.8-5.4-3-8.3-4c-1.5-0.5-2.9-1-4.4-1.4c-1.8-0.4-3.6-0.8-5.3-1.1c-0.5-0.1-0.9-0.1-1.4-0.3c-0.7-0.3-1.5-0.1-2.2-0.2
			c-1.6-0.1-3.3-0.5-4.8-0.9c-0.5-0.1-0.9-0.3-1.5-0.1c-1.1,0.4-2.2,0.6-3.4,0c-0.5-0.3-1.4,0-2,0.2c-1.8,0.4-3.5,0.3-5.3-0.1
			c-0.5-0.1-1.1,0-1.7,0.1c-1.5,0.3-3,0.5-4.5,0.8c-0.2,0-0.4-0.1-0.5,0c-1.4,0.8-3.1,1-4.3,2.2c-0.6,0.6-1.3,1.1-2.1,1.5
			c-0.8,0.4-1.3,1.3-1.1,2.2c0,0.1,0.1,0.3,0,0.4c-0.9,1.8-0.8,3.7-1.2,5.6c-0.1,0.4-0.4,0.9-0.7,1c-0.3,0.1-0.7-0.2-1.1-0.4
			c-0.2-0.1-0.4-0.3-0.5-0.3c-0.9,0.3-1.8,0.5-2.5,1c-0.9,0.6-1.8,1.3-2.5,2.1c-0.7,0.8-1.3,1.8-1.9,2.8c-1.1,1.8-1.4,3.9-2,5.9
			c-0.1,0.5-0.1,1.1,0.1,1.6c0.3,1,0.6,2,0.2,3.1c-0.1,0.2,0,0.5,0.1,0.7c0.2,0.6,0.5,1.2,0.7,1.9c0.2,1.1,0.6,2.1,0.8,3.1
			c0.3,1.4,1,2.6,1.6,3.8c0.4,0.8,0.5,1.8,0.9,2.7c0.3,0.7,0.8,1.3,1.1,2c0.4,0.8,0.7,1.7,1.1,2.5c0.7,1.3,1.4,2.7,2.8,3.4
			c0.9,0.5,1.6,1.2,1.8,2.2c0.1,0.2,0.3,0.5,0.5,0.7c0.1,0.2,0.4,0.2,0.5,0.4c0.9,1.2,1.7,2.5,2.6,3.7c0.2,0.3,0.6,0.5,0.9,0.8
			c0.5,0.5,1,1,1.5,1.6c0.1,0.2,0.2,0.4,0.4,0.5c0.7,0.4,1.4,0.8,2.1,1.2c0.1-0.2,0.2-0.4,0.2-0.6c0-2.3,0.1-4.5,0.1-6.8
			c0-0.2-0.3-0.6-0.5-0.7c-1.2-0.6-2.1-1.4-2.4-2.8c-0.1-0.3-0.4-0.6-0.5-0.9c-0.4-0.7-0.8-1.5-1.2-2.3c-0.2-0.3-0.3-0.7-0.5-0.9
			c-0.7-0.7-1-1.6-0.7-2.5c0.2-0.8,0.2-1.5-0.1-2.3c-0.4-1-0.1-2,0.7-2.8c0.2-0.2,0.5-0.3,0.5-0.5c0.4-1.7,1.9-2.2,3.1-3
			c1.2-0.7,2.4-0.7,3.5,0.1c0.2,0.1,0.4,0.4,0.6,0.4c1.3-0.1,2,0.9,3,1.6c1.3,0.9,2.1,2.2,3,3.4c0.7,0.9,0.6,1.9,0.5,2.9
			c-0.1,0.6,0,1.3,0.1,1.9c0.1,0.5,0.6,0.7,0.9,0.4c0.5-0.5,1-1.1,1.1-1.7c0.2-1.4,0.3-2.8,1.1-4c0.4-0.7,0.3-1.6,0.5-2.5
			s0.4-1.9,0.9-2.6c0.5-0.7,0.7-1.4,0.6-2.2c0-0.4,0-0.9,0.1-1.4c0.4-1.2,0.9-2.4,1.4-3.6c0.1-0.2,0.4-0.4,0.6-0.4
			c0.9,0,1.8,0.1,2.7,0.1c0.1,0,0.2,0,0.3,0c1.3-0.7,2.8-0.5,4.2-0.4c1.1,0,2.2,0.3,3.3,0c2.6-0.5,5.1-1.2,7.6-1.8
			c0.2-0.1,0.4-0.2,0.6-0.2c1.7,0.1,2.9-1,4.3-1.6c0.9-0.4,1.8-0.9,2.8-1.2c1.8-0.5,2.9-2.2,4.5-3c0.2-0.1,0.3-0.4,0.5-0.6
			c0.5-0.8,0.9-1.6,1.5-2.4c0.5-0.6,1.3-0.8,2.1-0.4s1.2,1.1,1,1.9c-0.2,1,0.1,1.5,1,2c0.5,0.3,0.9,1.1,1.1,1.8
			c0.2,0.6,0.3,1.3,0.4,1.9c0,0.2,0.2,0.4,0.1,0.6C171,28.8,171.9,29.9,171.9,31.1z"/>
		<path class="st1" d="M160.2,62.9c-1.3-0.7-2.3-1.2-3.2-1.7c-0.1-0.1-0.3-0.2-0.4-0.2c-1.8,0-2.6-1.4-3.5-2.5
			c-0.7-0.8-0.6-2,0.2-2.7s1.9-0.8,2.7-0.1s1.5,1.5,2.2,2.2c0.2,0.2,0.4,0.3,0.6,0.4c0.7,0.3,1.4,0.6,2.2,0.7c0.4,0.1,1,0.1,1.3-0.1
			c1.2-0.7,2.3-1.5,3.4-2.3c0.7-0.6,0.8-2.2,0.2-3.4c-0.7-1.5-1.3-3.1-1.9-4.7c-0.1-0.2-0.2-0.5-0.1-0.7c0.2-1.3,0.4-2.6,0.6-3.9
			c0-0.2,0.1-0.4,0.1-0.5c-0.4-1,0-1.9,0.3-2.8c0.2-0.6,0.5-1.2,0.1-1.9c-0.1-0.2-0.1-0.6,0.1-0.9c0.7-1.1,1-2.3,0.9-3.7
			c0-0.2,0.4-0.4,0.6-0.6c0.1,0.1,0.2,0.1,0.3,0.2c-0.1-0.6-0.2-1.2-0.2-1.8c0-0.9,0.1-1.7,0.2-2.6c0-0.2,0.1-0.4,0.1-0.5
			c0-0.8,0-1.5-0.1-2.3c0-0.3-0.2-0.6-0.3-0.9c-1.2,1.3-2.3,2.6-3.4,3.9c-0.3,0.3-0.5,0.6-0.9,0.8c-2.1,1-4.1,2.5-6.6,2.6
			c-0.1,0-0.3,0.1-0.4,0.2c-0.8,1-1.9,1.1-3.1,1.4c-1.6,0.3-3.2,0.8-4.8,1.1c-0.7,0.1-1.5,0.1-2.2,0.1c-2.2,0.2-4.4,0.4-6.6,0.5
			c-0.6,0-1.1-0.2-1.7-0.4c-0.5-0.2-0.9-0.1-1.1,0.5v0.1c-1,1.1-1.3,2.4-1,3.9c0.1,0.5-0.3,1.2-0.5,1.8c-0.2,1-0.5,2.1-0.6,3.1
			c-0.1,1.4-0.6,2.5-1.3,3.6c-0.2,0.4-0.4,0.8-0.4,1.2c0,1.6-1,2.8-2.7,2.9c-1.2,0.1-2.5,0.2-3.5-0.7c-0.1-0.1-0.4-0.1-0.6-0.2
			c-1-0.2-1.5-0.8-1.5-1.8c0-1.4-0.2-2.6-1.1-3.7c-0.6-0.7-0.9-1.7-1.5-2.5c-0.7-0.9-3.3-1.2-4.3-0.6c-0.4,0.3-0.6,0.8-0.9,1.2
			c-1.1,1.5,0,2.7,0.6,4c0.3,0.5,0.6,1,0.9,1.5v0.1c1,1.3,2,2.7,3.1,3.9c0.9,1,1.2,1.9,0.4,3.1c-0.2,0.2-0.2,0.7-0.1,1
			c0.3,1.4,0.9,2.8,0.9,4.2c0,1.7-0.4,3.4-0.6,5.2c-0.1,0.6-0.1,1.3-0.1,1.9c0,1,0,1.9-1.4,2.4c0.8,0.3,1.3,0.4,1.8,0.7
			c0.8,0.4,1.5,0.9,2.2,1.3c1.2,0.8,2.3,2.1,4,1.3c1-0.4,2-0.3,3.1,0c0.7,0.2,1.6,0,2.4,0c1.4-0.1,2.8-0.2,4.2-0.4
			c0.2,0,0.5-0.2,0.6-0.4c0.3-0.6,0.6-1.1,0.8-1.8c0.5-1.4,1.8-2,3.2-1.7c1.2,0.3,2.4,0.3,3.6,0.3c1.4-0.1,2.8-0.3,4.1-0.7
			c1.5-0.5,3-0.8,4.3-1.7c1.2-0.9,2.6-1.4,3.7-2.6c0.5-0.5,1.5-0.6,1.8-1.5C159.8,64,160.1,63.3,160.2,62.9z"/>
		<path class="st1" d="M145.1,155.4c-0.1-0.3-0.2-0.6-0.3-0.9c-0.3-1-0.2-1.9,0.4-2.7c0.1-0.2,0.2-0.6,0.1-0.8
			c-1-1.4-0.7-2.7,0.3-3.8c-0.6-0.8-1.3-1.6-1.9-2.4c-0.4-0.3-0.8-0.2-1.2-0.2c-2.1,0.3-4.1,0-6.1-0.6c-0.4-0.1-0.8-0.2-1.3-0.1
			c-3.3,0.3-6.5,0.2-9.8,0c-1.2-0.1-2.4-0.4-3.6-0.5c-0.1,0-0.1,0-0.2,0c-1.7,0.1-3.4,0.1-5,0.4c-1.2,0.2-2.3,0.3-3.5-0.1
			c-1-0.3-1.9-0.4-2.9,0.1c-0.5,0.2-1,0.3-1.5,0.2c-2-0.4-4.1-0.3-6.1-0.6c-0.5-0.1-1-0.1-1.6,0c-0.9,0.1-1.7,0.1-2.5-0.2
			c-1-0.3-2-0.2-2.9,0.2c-0.1,0.3-0.4,0.6-0.4,0.9c0,1.4-0.5,2.5-1.2,3.7c-0.4,0.6-0.4,1.5-0.6,2.3c-0.2,0.7-0.6,1.4-0.9,2.2
			c-0.1,0.2-0.1,0.5-0.1,0.7c0.4,0.3,0.7-0.1,1-0.2c0.6-0.4,1.2-0.5,1.9-0.2c0.7,0.3,1.4,0.1,2.1-0.1c1.5-0.4,3-0.5,4.4,0
			c0.3,0.1,0.6,0.2,0.9,0.2c1.6-0.1,3.2,0.3,4.8,0.1c1.6-0.2,3.1,0.1,4.4,1.1c1,0.8,2.3,0.7,3.3,0.2c1.4-0.7,2.6-0.6,3.8,0.4
			c0.5,0.5,1.1,0.4,1.8,0.3c1.9-0.4,3.8-0.9,5.8-0.4c1.4,0.3,2.8,0.1,4.2,0.1c0.7,0,1.3,0,1.9,0.3c0.5,0.2,1,0.2,1.5,0.2
			c3.2-0.1,6.3,0.1,9.5,0.5C144.1,155.7,144.6,155.6,145.1,155.4z"/>
		<path class="st1" d="M137.4,119.5c0.6,1.1,1.2,2.3,1.7,3.4c0.1,0.3,0.3,0.6,0.4,0.9c0.2,1.9,1.6,3,2.6,4.3
			c2.2-0.4,4.3,0.4,6.5,0.4c0.9,0,1.8,0.1,2.7-0.1c0.8-0.2,1.5,0.1,2.2,0.4c0.6,0.3,1.2,0.4,1.8,0c1.1-0.6,2.3-0.7,3.4-0.5
			c1.3,0.2,2.5,0.2,3.8,0.1c1.4,0,2.8-0.1,4.1,0.3c0.3,0.1,0.6,0.1,0.9,0.1c1.4-0.1,2.7-0.5,4.1,0.1c0.2,0.1,0.6,0,0.8-0.1
			c1-0.5,2-0.4,3.1-0.3c1.3,0.2,2.6,0.2,4,0c0.2,0,0.4-0.1,0.5,0c1.2,0.6,2.6,0.3,3.9,0.8c0.6,0.3,1.2,0.2,1.7-0.2
			c0.7-0.5,1.5-0.8,2.4-0.6c0.5,0.1,1,0.1,1.5,0s1-0.2,1.5-0.1c2.3,0.7,4.8,0.1,7.1,0.6c0.3,0.1,0.6,0.1,0.8,0.2
			c0.8,0.4,1.5,0.2,2.2-0.3c0.4-0.4,0.3-0.7-0.1-1.1c-1.3-1.2-1.8-2.6-1.4-4.4c0.1-0.3-0.1-0.8-0.3-1.1c-1-1.2-1.2-2.6-0.7-4.1
			c0.2-0.5,0-1.2,0-1.6c-2.2,0.4-4.2,0.8-6.3,1.3c-0.8,0.2-1.5,0.6-2.2,0.9c-0.4,0.2-0.8,0.4-1.2,0.3c-1.6-0.2-2.8,0.5-4.2,1.2
			c-0.6,0.3-1.5,0.4-2.2,0.6c-1.1,0.3-2.3,0.6-3.4,1.1c-1.1,0.5-2.1,0.7-3.2,0.4c-0.4-0.1-0.8-0.1-1.2,0c-1.1,0.2-2.2,0.5-3.3,0.8
			c-0.1,0-0.3,0.1-0.4,0c-0.9-0.3-1.6,0-2.3,0.7c-0.1,0.1-0.3,0.2-0.4,0.2c-1.5,0-2.6,0.8-3.8,1.6c-0.5,0.3-1.2,0.1-1.8,0.2
			c-0.5,0.1-1.1,0.1-1.5,0.4c-1.2,0.8-2.6,1-3.7,0.3c-1.1-0.7-1.6-2-1.3-3.4c0.2-0.8-0.1-1.5-0.6-2.1c-1-0.4-2.1-0.1-3.1-0.2
			c-1.2-0.1-2.5,0.1-3.7-0.5c-0.5-0.2-1-0.1-1.5,0s-1.1,0.1-1.5-0.1c-1.1-0.7-2.3-0.6-3.4-0.4c-1.2,0.2-2.2-0.1-3.2-0.7
			C138.5,119.1,137.9,118.8,137.4,119.5z"/>
		<path class="st2" d="M206.1,269.8c-0.9-0.4-1.8-0.8-2.7-1.1c-1.1-0.5-2.2-1-3.4-1.3c-0.9-0.3-1.8-0.4-2.7-0.6
			c-0.5-0.1-1-0.4-1.6-0.6c-0.9-0.4-1.8-0.7-2.7-1.1c-0.5-0.2-1.1-0.5-1.4-1c-0.6-1-1.5-1.1-2.4-0.9c-1.6,0.3-2.9-0.1-4.1-1.4
			c-0.4-0.4-1.7-0.3-2.3,0.1c-1,0.6-2,1.2-3.2,1.2c-0.5,0-1.1,0.4-1.6,0.8c-1.2,0.8-2.5,1-4,0.7c-1-0.2-2.2,0-3.3,0.1
			c-0.3,0-0.6,0.5-0.7,0.8c-0.3,1.1-0.5,2.3-0.7,3.4c0,0.3,0.1,0.5,0.1,0.8c0.1,1.4,0.6,2.6,1.2,3.8c0.5,1.1,0.3,2.3-0.1,3.4
			c-0.2,0.6-0.4,1.3-0.4,2c-0.1,0.7,0.3,1.2,1.1,1.2c0.4,0,0.7,0.2,1.1,0.2c0.3,0,0.7,0,1-0.2c0.8-0.6,1.6-0.8,2.6-0.8
			c0.4,0,0.8-0.1,1.1-0.2c0.2-0.1,0.5-0.3,0.7-0.3c1.4,0.1,2.4-0.7,3.6-1.2c1.2-0.5,2.5-0.6,3.7-1c1.6-0.5,3.1-1,4.6-1.5
			c0.9-0.3,1.8-0.3,2.7-0.5c0.6-0.1,1.2-0.3,1.7-0.6c1.2-0.6,2.3-0.9,3.6-0.5c0.5,0.2,1.2-0.2,1.8-0.3c0.9-0.2,1.8-0.3,2.5-1.2
			c0.3-0.4,0.9-0.5,1.4-0.7c0.9-0.4,1.9-0.7,2.8-1.1C206.2,270,206.1,269.9,206.1,269.8z"/>
		<path class="st1" d="M144,164.1c0.1-0.6,0.2-1.3,0.3-1.9c-0.1-0.2-0.1-0.3,0-0.5c0.1-0.5,0.2-1.1,0.3-1.6c0-0.1,0-0.2-0.1-0.3l0,0
			c-0.3-0.3-0.7-0.3-1.1-0.2c-2.6,0.2-5.3,0.4-7.9,0.1c-0.4,0-0.8-0.1-1.2-0.2c-0.3-0.1-0.6-0.2-0.8-0.1c-2.3,0.6-4.6-0.1-6.9,0
			c-2.1,0.1-3.9-0.6-5.8-1.1c-0.9-0.3-1.7-0.4-2.6,0.1c-0.9,0.6-1.9,0.5-2.8-0.1c-0.8-0.6-1.8-0.6-2.7-1c-0.4-0.2-0.8,0-1.2,0.2
			c-1.4,0.9-2.9,0.9-4.4,0.4c-0.9-0.3-1.8-0.5-2.8-0.3c-0.1,0-0.3,0.1-0.4,0c-1.2-0.4-2.5-0.1-3.7,0s-2.3-0.1-3.4-0.6
			c-0.4-0.2-0.9-0.3-1.3-0.1c-1,0.3-1.8,0.1-2.6-0.4c-0.4-0.3-0.8-0.8-1.4-0.6c-0.7,1.3-1.3,2.6-1.4,4.1c0,0.3-0.1,0.6-0.3,0.8
			c-0.4,0.6-0.2,1,0.4,1.3c1.1,0.5,2.1,1.2,3.1,1.7c0.3,0.1,0.6,0.2,1,0.2c0.9,0.1,1.8,0.4,2.3,1.2c0.4,0.6,0.9,0.9,1.6,1.1
			c0,0.1,0.1,0.1,0.1,0.1c0.1,0,0.2,0.1,0.4,0.1c1.1-0.3,2.2-0.3,3.3-0.8c0.4-0.2,1-0.2,1.5,0c0.8,0.3,1.6,0.1,2.4,0.2
			c1.8,0.2,3.4-0.4,5.1-0.7c1.3-0.2,2.6-0.1,3.9,0c1.4,0.2,2.8,0,4.1-0.1c0.4,0,0.9-0.1,1.3,0.1c0.6,0.2,1.2,0.2,1.8,0.1
			c0.4-0.1,0.8-0.1,1.2,0c0.9,0.3,1.8,0.3,2.7,0.3c2.2-0.1,4.5-0.2,6.7,0.2c2.2,0.3,4.5,0.3,6.7-0.1c0.3-0.1,0.7-0.1,1,0.1
			c0.8,0.4,1.7,0.4,2.5,0.4c1,0,1.1-0.1,1.1-1.1c0-0.2,0-0.3,0-0.5c0-0.1,0-0.2,0-0.3C144,164.2,144,164.1,144,164.1z"/>
		<path class="st1" d="M103.9,115.7c-0.8,1.2-1.5,2.4-1.4,4c0.1,1-0.3,2.1-0.7,3.1c-0.2,0.6-0.6,1.3-1.1,1.6c-1,0.6-1.1,1.3-0.8,2.3
			c0.1,0.1,0.2,0.2,0.3,0.2c2.3-0.4,4.6,0.3,6.8,0.8c0.6,0.1,1.2,0.1,1.8,0c1.7-0.5,3.4-0.5,5.2-0.2c1.3,0.3,2.6,0.2,3.9,0.2
			c2.5,0.1,5,0,7.5-0.3c0.5-0.1,0.9,0.1,1.4,0.2c0.3,0.1,0.7,0.2,1,0.1c1.8-0.1,3.6-0.1,5.4,0c0.4,0,1,0.2,1-0.6
			c-1-1.9-1.9-3.9-2.8-5.8c-0.3-0.7-0.5-1.6-0.7-2.3c-1.4-0.3-2.9-0.8-4.4-0.7c-1.1,0.1-2.1,0-3.1-0.3c-0.9-0.3-1.8-0.5-2.7-0.5
			c-1.9,0-3.8-0.3-5.7-0.7c-0.7-0.2-1.5-0.1-2.2-0.1c-1.2,0-2.5,0.1-3.7-0.3c-0.1,0-0.3-0.1-0.5,0c-1.3,0.3-2.5,0-3.7-0.6
			C104.6,115.5,104.2,115.6,103.9,115.7z"/>
		<path class="st1" d="M144.6,133.7c1.4,2.4,2.7,4.8,4.1,7.2c0.1,0.1,0.1,0.3,0.3,0.4c0.7,0.4,1.4,0.7,2.1,1.1
			c0.6,0.3,1.1,0.3,1.8,0.2c0.8-0.1,1.7,0.1,2.5,0.3c0.6,0.2,1.1,0.3,1.7-0.1c0.9-0.7,1.9-0.8,3-0.8s2.3-0.3,3.4-0.4
			c1.3,0,2.6-0.2,3.8-0.7c1.1-0.4,2.4-0.3,3.5-0.4c0.3,0,0.7-0.1,1-0.2c0.7-0.2,1.4-0.4,2.1-0.6c0.1,0,0.3,0,0.4,0
			c1.8-0.5,3.7-1.1,5.5-1.6c0.6-0.2,1.3-0.1,2-0.2c1-0.2,2.1-0.2,3-0.6c1.5-0.5,2.8-1.3,4.3-1.9c1.3-0.5,2.7-0.9,4.1-1.2
			c1.5-0.3,3.1-0.5,4.6-0.7c0.2,0,0.3-0.1,0.5-0.3c0.6-0.5,1.2-1.1,1.8-1.6c-0.2-0.6-0.6-0.4-1-0.2c-0.5,0.2-1.1,0.5-1.6,0.7
			c-1.2,0.5-2.4,0.8-3.7,0.7c-0.2,0-0.4-0.1-0.6,0c-1.8,0.6-3.6,0.5-5.4,0.5c-1,0-2,0.1-2.8-0.7c-0.4-0.4-0.9-0.4-1.4-0.2
			c-1.7,0.5-3.5,0.7-5.3,0.6c-1.4,0-2.8,0.2-4.2,0.4c-0.2,0-0.5,0.1-0.7,0.1c-2.2-0.7-4.5,0-6.7-0.1c-1.5-0.1-3,0.5-4.6,0.3
			c-1.5-0.2-2.9-0.3-4.4,0c-1,0.2-1.9-0.2-2.7-0.7c-0.7-0.4-1.4-0.5-2.2-0.1c-0.9,0.5-1.9,0.5-2.8,0.1c-0.3-0.1-4.2-0.2-4.5,0
			C145.2,133.2,144.8,133.3,144.6,133.7z"/>
		<path class="st1" d="M111.8,90.8c-0.2,1.2-0.3,2.3-0.5,3.5c-0.1,0.4-0.1,0.8-0.3,1c-0.9,1-0.9,2.2-1.3,3.4
			c0.3,0.7,0.8,1.1,1.4,1.4c0.6,0.4,1.2,0.4,1.7,0c0.6-0.5,1.3-0.6,2.1-0.5c1,0,2,0,3,0c0.5,0,1,0.1,1.4,0.3
			c0.8,0.3,1.5,0.3,2.2-0.2c0.8-0.8,1.7-0.6,2.5,0.6c1.2,0.4,2.3,0.8,3.6,0.4c0.4-0.1,0.9-0.2,1.4-0.1c2.6,0.2,5.2,0.2,7.7,1
			c0.1,0,0.2,0.1,0.3,0.1c2.4-0.1,4.5,0.9,6.8,1.3c1.1,0.2,2.2,0,3.2,0.4c0.2,0.1,0.4,0,0.6-0.2c-0.4-0.6-0.9-1.2-1-1.8
			c-0.6-2.4-2-4.5-2.5-7c-0.1-0.3-0.3-0.5-0.5-0.8c-0.6-0.4-1.3-0.5-1.9-0.4c-2,0.3-3.9-0.1-5.7-0.6c-0.5-0.1-0.9-0.3-1.4-0.1
			c-0.9,0.2-1.7,0-2.4-0.5s-1.5-0.6-2.4-0.3c-1,0.4-2,0.3-2.9-0.3c-0.1-0.1-0.3-0.2-0.4-0.2c-1.5,0.1-3-0.2-4.5-0.1
			c-0.6,0-1.1,0.1-1.6-0.1c-0.7-0.3-1.3-0.3-2,0c-0.6,0.3-1.3,0.4-2,0.2c-1.2-0.4-2.4-0.2-3.7-0.4C112.4,90.5,112,90.5,111.8,90.8z"
			/>
		<path class="st1" d="M140.7,139.4c-0.2-0.5-0.3-1.1-0.6-1.6c-0.4-1-1.1-1.9-1.3-2.9c-0.3-1.1-1-1.6-1.8-2.1
			c-2.9,0.2-5.9,0.4-8.8-0.3c-0.3-0.1-0.7-0.1-1,0c-2.1,0.6-4.1,0-6.1-0.5c-0.2,0-0.4-0.1-0.5-0.1c-1.3,0.3-2.6-0.2-3.9,0.1
			c-0.4,0.1-0.8,0-1.2,0c-0.3-0.1-0.7-0.2-1-0.1c-1.5,0.5-2.9,0-4.4,0c-0.3,0-0.6,0-0.9-0.2c-0.9-0.5-1.9-0.6-2.9-0.4
			c-1.4,0.3-2.8,0.1-4.1,0.3c-0.6,0.1-1.2,0-1.8-0.2c-0.4-0.1-0.7-0.3-1.2-0.2c-0.9,0.9-1.4,2-1.4,3.4c0,0.3,0,0.7-0.2,1
			c-0.6,1.1-0.5,2.2-0.5,3.4c0.6,0.5,1.2,0.3,1.8,0.1c0.7-0.2,1.4-0.2,2.1,0c0.5,0.2,1,0.2,1.6,0.2c2.3-0.2,4.5,0,6.8,0
			c0.5,0,1,0,1.4,0.2c0.6,0.3,1.2,0.3,1.9,0.1c1.4-0.4,2.8-0.6,4.1,0.1c0.3,0.2,0.7,0.1,1.1,0.1c0.9-0.1,1.7-0.1,2.5,0.3
			c0.2,0.1,0.4,0.1,0.5,0.1c3-0.5,6.1-0.2,9.2-0.3c0.7,0,1.4,0.1,2.1,0.2c1.7,0.3,3.3,0.8,5.1,0.4c0.7-0.2,1.5,0,2.3-0.1
			C140.2,140.2,140.7,140.1,140.7,139.4z"/>
		<path class="st2" d="M7.4,177.9c1.4-0.4,2.8-0.9,4.2-1.3c0.5-0.1,0.9-0.4,1.4-0.4c1.5-0.2,2.7-0.9,3.5-2.2c0.3-0.4,0.8-0.7,1.2-1
			c0.6-0.4,1.2-0.8,1.9-1.2c0.8-0.5,1.5-0.9,1.1-2.2c-0.1-0.4,0.4-1.5,0.8-1.7c1.2-0.5,1.1-1.5,1-2.3c-0.2-1.3,0.2-2.3,1-3.3
			c0.9-1.1,1.7-2.3,2.5-3.5c0.1-0.1,0.2-0.2,0.2-0.3c0.1-1.4,0.9-2.3,2.6-2.7c-1.9-1.1-2.8-2.9-4.7-3.5c-1.7-0.6-3.4-1.5-5-2.2
			c-1.3-0.6-2.8,0.3-2.9,1.9c-0.1,1.2-0.7,1.9-1.3,2.8c-0.8,1.1-1.5,2.5-1.8,3.8c-0.5,2.4-1.4,4.6-2.6,6.7c-0.3,0.6-0.5,1.1-0.3,1.8
			c0.1,0.5,0.2,1.1,0,1.5c-0.5,1.1-0.8,2.3-1,3.5c-0.1,0.5-0.5,1.1-0.9,1.5c-0.5,0.5-0.5,1-0.5,1.7C7.6,176.1,7.4,177,7.4,177.9z"/>
		<path class="st2" d="M144.6,133.7c1-0.5,2-0.9,3.1-0.3c0.1,0,0.1,0.1,0.2,0c1.1-0.6,2.2,0,3.3,0.2c0.7,0.1,1.4-0.3,2.1-0.4
			c0.5-0.1,1.1-0.2,1.5,0c1.6,0.8,3.1,1.2,4.8,0.6c0.2-0.1,0.6-0.1,0.8,0c1.8,0.5,3.7,0.4,5.5,0c0.8-0.2,1.7,0,2.5-0.1
			c1-0.1,2.1-0.2,3.1-0.3c0.2,0,0.4,0,0.5,0c1.1,0.6,2.3,0.3,3.5,0.2s2.4-0.1,3.6-0.1c0.4,0,0.8,0,1.2-0.1c0.5-0.1,1.1-0.2,1.6-0.3
			c0.6-0.1,1.1-0.3,1.7-0.3c0.4,0,1-0.1,1.2,0.1c0.7,0.8,1.6,0.9,2.6,0.8c0.6,0,1.2,0,1.8,0c1.1-0.1,2.2-0.3,3.2-0.4
			c0.3,0,0.6-0.1,0.9-0.1c2.1,0.2,3.9-0.5,5.6-1.4c0.3-0.1,0.7-0.1,1-0.1c0.5,0,0.8-0.2,0.6-0.8c-0.1-0.6,0-1.2,0-1.8
			c-2,0.5-3.8-0.5-5.7-0.5c-0.1,0-0.3-0.1-0.4-0.1c-2,0.8-4-0.7-6-0.1c-0.9,0.3-1.9-0.4-2.8,0.2c-0.2,0.1-0.4,0.2-0.5,0.3
			c-0.5,0.6-1,0.4-1.6,0.2c-0.5-0.2-1.1-0.2-1.6-0.4c-0.5-0.1-1-0.2-1.5-0.3s-1-0.2-1.4-0.2c-1.2,0-2.4,0-3.7,0
			c-1.1,0-2.3-0.3-3.4,0.3c-0.3,0.2-0.9,0-1.4-0.1c-0.7,0-1.4-0.1-2-0.1c-0.8,0-1.6,0.1-2.5,0c-1.7-0.1-3.4-0.2-5.1-0.3
			c-0.6,0-1.1,0-1.7-0.1c-1.5-0.2-3-0.3-4.4,0.5c-0.3,0.2-1,0.2-1.4,0c-0.9-0.5-1.8-0.6-2.9-0.5c-1.7,0.2-3.4,0.2-5.1-0.3
			c-1.1-0.3-2.4,0.1-3.6,0.2c0.2,0.9,0.4,1.9,0.7,2.8c0.1,0.4,0.4,0.7,0.7,1.1C143.7,132.7,144.2,133.2,144.6,133.7z"/>
		<path class="st1" d="M221.6,111.3c-0.5,0.2-0.9,0.4-1.3,0.6c-1,0.4-2,0.8-2.9,1.3c-0.7,0.4-1.4,0.9-2.2,1.2
			c-1.3,0.5-2.6,0.9-3.9,1.3c-0.4,0.1-0.7,0.4-1.1,0.7c-1.1,0.7-2.4,0.7-3.5,0c-0.9-0.6-1.2-1.5-0.9-2.6c0.3-1.2,1.3-2,2.6-2.2
			c0.6-0.1,1.2-0.2,1.8-0.3c0.3-0.1,0.6-0.4,0.8-0.6c-0.3-0.3-0.5-0.7-0.8-0.8c-0.9-0.3-1.9-0.6-2.9-0.8c-0.3-0.1-0.8,0.2-1.1,0.5
			c-0.6,0.5-1.2,1.1-1.8,1.7c-0.6,0.5-1.2,1-1.2,2c0,0.6-0.6,1.2-1.1,1.7c-0.3,0.3-0.4,0.5-0.3,1c0.3,0.9,0.7,1.7,1.4,2.4
			c0.7,0.8,0.8,1.9,0.6,3c-0.1,0.4,0,1,0.3,1.3c1.1,1.4,1.4,2.8,0.7,4.4c-0.2,0.5-0.1,0.8,0.2,1.2c0.4,0.6,0.7,1.3,1.2,2.1
			c0.9-0.3,2.1-0.6,3.1-1c1.2-0.4,2.3-0.8,3.7-0.4c0.7,0.2,1.6,0,2.3-0.2c1.4-0.3,2.8-0.7,4.2-1.1c0.5-0.2,1-0.5,1.2-0.9
			c0.7-1.3,1.3-2.6,0.9-4.2c-0.2-0.8,0.1-1.7,0.1-2.5c0-0.3,0.1-0.7,0.1-1c-0.2-1.9-0.4-3.8-0.5-5.7
			C221.3,112.7,221.5,112.1,221.6,111.3z"/>
		<path class="st2" d="M91.4,155.9c0.5,0.3,1.1,0.6,1.6,1c0.8,0.6,1.6,0.6,2.5,0.3c0.3-0.1,0.7-0.1,0.9,0c1.8,0.9,3.6,1,5.5,0.5
			c0.2-0.1,0.4,0,0.6,0c0.6,0.1,1.2,0.2,1.9,0.2c0.7,0.1,1.4,0,2.1,0.2c1.9,0.6,3.7,0.7,5.4-0.5c0.2-0.1,0.5-0.2,0.7-0.1
			c1,0.4,1.9,0.7,2.8,1.2c1,0.5,1.9,0.6,2.8,0s1.6-0.4,2.5-0.1c1.8,0.5,3.6,1.3,5.6,1.1c1.4-0.1,2.9,0.2,4.3,0.3
			c0.2,0,0.5,0.1,0.7,0c1.7-0.7,3.4,0,5.1,0c1.8,0,3.7,0,5.5,0c0.9,0,1.7-0.1,2.6-0.2c0-0.2,0.1-0.4,0-0.5c-0.5-1.4-0.3-2.7,0.6-3.9
			c-3.9-0.3-7.7-0.8-11.6-0.6c-2.2-0.9-4.6-0.2-6.9-0.6c-2.2-0.4-4.2,0.1-6.3,0.5c-0.4,0.1-1,0-1.3-0.2c-1.3-1.2-2.6-1.2-4.2-0.4
			c-0.9,0.5-2,0.6-3-0.2c-1.5-1.2-3.3-1.2-5.2-1.1c-1.7,0.1-3.5,0.1-5.2-0.4c-1.5-0.4-3-0.4-4.4,0.1c-0.5,0.2-1.1,0.3-1.5,0.1
			c-1.1-0.4-2-0.3-2.8,0.5c-0.1,0.1-0.3,0.1-0.4,0.2C92,154,91.7,155,91.4,155.9z"/>
		<path class="st2" d="M140.7,139.4c-0.2,0.2-0.5,0.5-0.7,0.6c-1.3,0.2-2.6,0.4-3.9,0.4c-1.2,0-2.4-0.4-3.6-0.6
			c-0.7-0.1-1.4-0.4-2.1-0.4c-2.3,0-4.5,0.2-6.8,0.3c-0.9,0-1.8,0.4-2.6,0.1c-1.4-0.4-2.8,0-4-0.4c-1.7-0.6-3.1-0.3-4.7,0
			c-0.3,0.1-0.7,0.1-1,0c-0.9-0.1-1.7-0.4-2.6-0.5c-1.9-0.1-3.8,0-5.7,0c-0.8,0-1.6-0.2-2.5-0.3c-0.5,0-0.9,0-1.4,0
			c-0.7,0.1-1.4,0.2-2.2,0.3c-0.5,1.5-1,3-1.6,4.5c1.2,0.1,2.5-0.4,3.7,0.3c0.4,0.2,1,0,1.5,0c2.5,0.1,4.9,0.3,7.4,0.4
			c0.8,0,1.7-0.1,2.5-0.2c0.6,0,1.3-0.2,1.9-0.1c1.6,0.4,3.1,0.3,4.7,0c1.2-0.2,2.7-0.3,4-0.3c2.4,0,4.8,0.5,7.3,0.6
			c2.4,0.1,4.8-0.1,7.1-0.1c0.7,0,1.5,0.3,2.2,0.5c2,0.5,4,0.4,6,0.2c-0.8-1.3-1.5-2.5-2.2-3.8C141.2,140.5,140.9,139.9,140.7,139.4
			z"/>
		<path class="st2" d="M144,164.6c0,0.2,0,0.5-0.1,0.7s-0.4,0.6-0.6,0.6c-1,0-2,0.2-3-0.4c-0.3-0.2-0.7-0.1-1.1,0
			c-2.4,0.5-4.7,0.3-7.1,0c-1.5-0.2-3.1-0.1-4.7-0.2c-1.4-0.1-2.8-0.2-4.2-0.3c-0.1,0-0.1,0-0.2,0c-2.5,0-4.9,0-7.4,0
			c-0.9,0-1.9-0.2-2.8-0.2c-1.5,0-3.1,0-4.5,0.8c-0.3,0.2-0.7,0.1-1,0.1c-0.9,0-1.8,0.1-2.7,0.1c-0.2,0-0.5,0-0.7-0.1
			c-1-0.5-2-0.5-3,0c-0.4,0.2-0.8,0.1-1.2,0.2c-0.4,0.1-0.9,0.4-1.3,0.6c0.5,0,1.1,0,1.6,0.1c0.9,0.2,1.8,0.3,2.7,0.6
			c1.2,0.4,2.4,0.9,3.6,1.4c0.6,0.3,1.2,0.6,1.8,1c1.8,1.1,3.8,0.9,5.7,0.7c1.7-0.2,3.4,0,5,0c1.7,0,3.4,0.2,5,0
			c0.8-0.1,1.7,0.1,2.5,0.2c2.4,0.4,4.8,0.5,7.2,0.1c0.3-0.1,0.6-0.1,0.9-0.1c2.7,0.5,5.5,0.6,8.3,0.4c0.5,0,1.1,0.1,1.4-0.6
			C144.2,168.4,144.1,166.5,144,164.6z"/>
		<path class="st2" d="M99.2,131.1c1.2,0.6,2.5,0.9,3.9,0.6c1.5-0.3,3-0.3,4.5-0.4c0.2,0,0.4,0.1,0.5,0.1c0.9,0.2,1.8,0.4,2.7,0.7
			c1.1,0.3,2.2,0.2,3.4,0c1.4-0.2,2.9,0.2,4.3,0.1c1.6-0.2,3,0.4,4.6,0.4c0.4,0,0.8,0.2,1.3,0.2c0.7,0.1,1.4,0.3,2,0.1
			c1.1-0.4,2,0,3,0c2.3,0.1,4.7,0.1,7,0.2c0.2,0,0.5-0.2,0.7-0.4c-0.7-1.6-1.3-3.2-2-4.8c-0.1-0.3-0.4-0.6-0.6-0.8
			c-0.3,0.1-0.6,0.3-0.9,0.3c-1.7,0-3.5,0-5.2,0c-0.5,0-1-0.1-1.5-0.2s-1-0.2-1.5-0.1c-1.4,0.1-2.9,0.3-4.3,0.3s-2.7-0.1-4.1-0.2
			c-0.5,0-1,0-1.5,0c-0.4,0-0.8,0.1-1.1,0c-1.8-0.6-3.5-0.5-5.2,0.1c-1.1,0.4-2.1,0-3.1-0.2c-0.6-0.1-1.1-0.2-1.7-0.4
			c-0.6-0.1-1.3-0.3-1.9-0.3c-0.8,0-1.6,0.2-2.3,0.2C100,128.2,99.9,129.7,99.2,131.1z"/>
		<path class="st1" d="M133.1,113.8c0,0.1,0,0.2,0,0.3c0.2,0.1,0.3,0.2,0.5,0.2c1.6-0.1,3,0.7,4.5,1.2c0.5,0.2,0.9,0.2,1.4,0.1
			c1.2-0.4,2.4-0.4,3.5,0.3c0.9,0.5,1.9,0.7,2.9,0.3c0.6-0.2,1.1-0.2,1.6,0.2c0.7,0.5,1.5,0.6,2.4,0.5c0.8-0.1,1.5,0.2,2.2,0.5
			c0.5,0.2,0.9,0.3,1.1-0.4c0.3-0.6,0.2-1-0.1-1.6c-0.8-1.3-1.3-2.8-2.2-4.1c-0.8-1.1-1.1-2.4-1.6-3.6c-0.6-0.4-1.3-0.3-2-0.4
			c-1.7-0.2-3.4-0.4-5.1-0.8c-1.9-0.4-3.9,0.1-5.8-0.8c-0.2-0.1-0.4-0.1-0.5-0.1c-2.3,0.1-4.6-0.3-6.9-0.2c-0.4,0-0.8-0.1-1.1,0.3
			c0,0.1,0.1,0.1,0.1,0.2c0.1,0,0.1,0.1,0.1,0.2c0.7,1.3,1.3,2.7,2,4c0.2,0.4,0.6,0.8,1.1,1.1c0.9,0.6,1.5,1.4,1.7,2.5
			C133.1,113.7,133.1,113.7,133.1,113.8z"/>
		<path class="st1" d="M142.4,89.3c-0.6-0.9-1.1-1.8-1.7-2.8c-0.2-0.3-0.4-0.7-0.4-1.1c-0.2-0.9-0.3-1.9-0.5-2.8
			c-0.1-0.4-0.6-0.7-0.8-1.1c-0.5-1.5-1.7-1-2.8-1c-1.5,0.1-3,0.1-4.5,0.2c-0.2,0-0.5,0-0.7,0.1c-1.9,0.8-3.5,0.1-5.1-0.9
			c-0.3-0.2-0.7-0.2-1-0.3c-0.9-0.2-1.7-0.4-2.6-0.6c-0.3-0.1-0.6-0.2-1-0.2c-1.1,0-2-0.4-2.8-1.2c-0.3-0.3-0.6-0.6-0.9-0.8
			c-0.8-0.5-1.4-0.2-1.6,0.7c-0.3,1.5-0.7,3-1.6,4.3c-0.2,0.2-0.1,0.7-0.1,1.1c-0.1,0.5-0.2,1-0.3,1.5c0.6,0.8,1.5,0.8,2.3,0.8
			c1,0,1.9,0.2,2.8,0.8c0.2,0.1,0.4,0.3,0.6,0.2c1.5-0.4,2.9,0.3,4.2,0.6c1.6,0.3,3.1,0.6,4.7,0.3c0.4-0.1,0.8,0.2,1.1,0.4
			c0.7,0.5,1.5,0.6,2.4,0.3c0.8-0.3,1.6-0.2,2.5,0c1.2,0.4,2.5,0.5,3.8,0.5c1,0,1.8,0.5,2.6,0.8C141.6,89.4,142,89.7,142.4,89.3z"/>
		<path class="st1" d="M40.7,118.9c-0.2,0-0.5-0.1-0.8-0.1c-0.8,0-1.6,0.1-2.4,0.2c-0.2,0-0.5,0.3-0.6,0.6c-0.3,0.7-0.5,1.5-0.7,2.3
			c0,0.2-0.1,0.4,0,0.5c0.8,2,0.2,3.8-0.6,5.6c-0.4,0.9-0.1,1.5,0.4,2.1c0.7,0.8,1.4,1.7,2.1,2.5c0.3,0.4,0.7,0.7,1.1,1
			c0.3,0.2,0.7,0.4,1,0.7c1.2,1.3,2.5,1.5,4.1,0.9c1.4-0.5,2.8-0.8,3.8-1.9c0.1-0.1,0.2-0.2,0.3-0.2c1.6-0.2,2.2-1.6,3.2-2.5
			c0.1-0.1,0.2-0.3,0.3-0.4c0.5-0.8,0.9-1.7,1.5-2.7c-0.9-0.9-2-2-2.9-3.2c-0.6-0.8-0.8-1.7-1.4-3c-0.1,0.3-0.1,0.7-0.3,0.8
			c-0.6,0.4-1.3,0.8-2,0.9c-0.8,0.2-1.7,0.3-2.6,0.3c-1.4,0-2.8-0.1-4.3,0.2c-0.6,0.1-1.3-0.4-1.9-0.8c-1-0.7-1-2.1,0-2.7
			C38.9,119.5,39.8,119.2,40.7,118.9z"/>
		<path class="st1" d="M88.5,108.2c0.2,0,0.4-0.1,0.5-0.1s0.1,0,0.2-0.1c0.8-0.3,1.6-0.5,2.3-0.8c0.8-0.8,1.6-1.7,2.5-2.4
			c0.9-0.7,2-0.7,3-0.1c0.5,0.3,1,0.4,1.5,0.1c0.3-0.2,0.6-0.2,1-0.2c1,0.1,1.4-0.5,1.3-1.4c-0.6-0.7-1.5-0.9-2.4-1
			c-0.6-0.1-1.1-0.1-1.7-0.5c-0.5-0.4-1.2-0.3-1.8-0.3c-0.9,0-1.8-0.2-2.7-0.6c-0.9-0.5-2-0.5-2.9-1.1c-0.3-0.2-0.7,0-1,0.2
			c-1.6,0.9-3.3,1.1-5,0.4c-0.3-0.1-0.5-0.1-0.8-0.2c-1.2-0.1-2.2-0.5-3.1-1.2c-0.4-0.3-0.8-0.7-1.3-0.3c-0.4,1.1-1.3,1.7-2.3,2.2
			c-1.3,0.6-2.5,1.6-3.4,2.9c-0.8,1.1-2.1,2-3.1,2.9c-0.3,0.2-0.6,0.4-0.9,0.7c0.2,0.5,0.6,0.4,1,0.4c1.7-0.1,3.3,0,5,0.1
			c1.5,0.1,3,0.4,4.5,0.4C82.1,108.1,85.3,108,88.5,108.2z"/>
		<path class="st2" d="M142.4,89.3c-0.6-0.2-1.1-0.4-1.7-0.5c-1.2-0.3-2.5-0.5-3.7-0.8c-0.9-0.2-1.7-0.4-2.6-0.5
			c-0.7-0.1-1.4,0-2.1,0.1c-0.8,0.2-1.5,0.2-2.2-0.3c-0.9-0.6-1.8-0.6-2.8-0.4c-0.5,0.1-1.1,0-1.7-0.1s-1.2-0.3-1.7-0.4
			c-0.6-0.1-1.1-0.2-1.7-0.4c-0.4-0.1-0.9-0.3-1.3-0.2c-0.8,0.2-1.4-0.1-2-0.4c-0.7-0.3-1.4-0.4-2.2-0.6c-0.9-0.2-1.7-0.4-2.6-0.6
			c-0.7,1.2-1.6,2.3-2.2,3.5c-0.4,0.8-0.2,1.9-0.3,2.8c1.4,0.1,2.8,0.2,4.2,0.4c0.9,0.1,1.8,0.2,2.7-0.2c0.4-0.2,1,0,1.5,0
			c0.6,0,1.3,0.1,1.9,0.1c0.2,0,0.5-0.1,0.7,0c0.9,0,1.8,0.1,2.8,0.2c0.4,0,0.8,0,1.1,0.2c1,0.7,2,0.8,3.1,0.3
			c0.8-0.3,1.5-0.3,2.1,0.3c0.8,0.6,1.7,0.7,2.6,0.6c0.4-0.1,0.8,0,1.2,0.1c2,0.5,4,1,6.1,0.6c0.6-0.1,1.2,0.1,1.8,0.2
			c-0.1-0.3-0.2-0.7-0.4-0.9C142.4,91.6,142.3,90.5,142.4,89.3z"/>
		<path class="st1" d="M97.7,86.3c-1.4-0.4-2.9,0-3.7,1.2c-0.7,0.9-1.6,1.5-2.7,1.8c-1.3,0.2-2.1,0.9-2.7,2.1
			c-0.3,0.6-0.9,1.1-1.4,1.5c-0.9,0.6-1.9,1.1-2.8,1.6c-0.6,0.3-1.1,0.6-1.7,0.8c-0.1,0.4,0.2,0.5,0.4,0.5c0.4,0.1,0.7,0.1,1.1,0
			c1.5-0.3,2.8,0,4.1,0.8c0.8,0.5,1.6,0.5,2.6,0.4c1.7-0.3,3.5-1.1,5.3-0.1c0.4,0.2,0.8,0.2,1.2,0.1c1.4-0.1,2.7,0.3,4,0.5
			c0.7,0.1,1.2,0.5,1.7,0.9c0.3-0.4,0.6-0.8,0.8-1.2c0.4-0.7,0.7-1.5,1-2.2c0.1-0.3,0.2-0.7,0.3-1c0.3-0.7,0.5-1.5,0.9-2.1
			c0.5-0.6,0.8-1.1,0.9-1.8c-0.2-0.3-0.5-0.3-0.8-0.3c-1.3,0-2.6-0.1-3.9,0.3c-0.8,0.3-1.6,0.1-2.4-0.5c-0.4-0.3-0.8-0.6-1.2-0.9
			c-0.5-0.4-0.8-0.8-0.7-1.5C97.9,86.8,97.9,86.5,97.7,86.3z"/>
		<path class="st1" d="M107.2,104.5c-0.4,0.8-0.8,1.6-1.2,2.4c-0.2,0.3-0.3,0.6-0.5,0.9s-0.2,0.8-0.4,1c-1,0.9-0.9,2-0.8,3.1
			c0.5,0.4,1.1,0.3,1.6,0c0.7-0.3,1.5-0.4,2.3-0.2c1.1,0.3,2.1-0.1,3.2,0c1.5,0.1,3,0.5,4.4,0.8c0.7,0.1,1.5,0.3,2.2,0.2
			c0.8,0,1.6,0.1,2.3,0.4c1,0.4,2,0.2,3,0.2c1-0.1,2.1,0,3.1,0.1c0.3,0,0.6,0.1,0.9-0.2c-0.2-0.2-0.3-0.6-0.5-0.7
			c-2.1-1.4-3-3.6-3.7-5.9c-0.1-0.5-0.5-0.9-0.7-1.3c-1.2-0.3-2.3-0.8-3.6-0.7c-1.6,0.2-3.2-0.3-4.8-0.4c-0.6-0.1-1-0.4-1.4-0.8
			c-0.7-0.6-1.4-0.7-2.2-0.2c-0.7,0.4-1.5,0.8-2.4,0.8C107.5,103.9,107.2,104,107.2,104.5z"/>
		<path class="st2" d="M127.2,113.2c-1.9-0.1-3.7,0-5.6-0.2c-2.6-0.3-5.2-0.8-7.9-1.2c-1.4-0.2-2.9-0.2-4.4-0.3
			c-0.5,0-0.9-0.1-1.4-0.1c-0.8,0-1.6,0.1-2.3,0.2c-0.5,0.1-1,0.1-1.5,0.2c0.3,1.3,0,2.6-0.3,3.8c0.7,0.2,1.4,0.5,2.2,0.7
			c0.3,0.1,0.6,0.2,0.9,0.2c1.9,0.1,3.7,0.2,5.6,0.2s3.7,0.3,5.5,0.7c1.1,0.2,2.3,0.1,3.4,0.3c1.2,0.2,2.3,0.5,3.5,0.7
			c0.1,0,0.3,0.2,0.4,0.1c1.9-0.8,3.6,0.7,5.5,0.2c0-1.2-0.4-2.2-1.6-2.7c-1-0.4-1.4-1.2-1.6-2.2
			C127.4,113.7,127.3,113.5,127.2,113.2z"/>
		<path class="st1" d="M61.8,111.8c-1.2,0.9-2.3,1.9-3.5,2.7c-0.9,0.6-1.9,1.2-3,1.6c-0.8,0.3-1.4,0.7-1.9,1.3
			c-0.2,0.2-0.4,0.3-0.7,0.5c0.2,0.5,0.3,0.6,0.8,0.4c0.6-0.1,1.1-0.4,1.7-0.6c0.8-0.3,1.6-0.3,2.4,0.1c0.6,0.3,1.2,0.3,1.8,0.3
			c1.7,0.1,3.4-0.2,5,0.5c0.6,0.3,1.3,0.1,2,0.1c1.5,0,3,0.1,4.5,0.6c0.8,0.3,1.7-0.1,2.5,0.1c0.6-0.5,1.1-1.1,1.8-1.5
			c0.7-0.5,1.6-0.7,2.4-1.1c0.5-0.2,1.2-0.5,1.4-0.9c0.7-1.3,1.8-2.2,3.1-2.8c0.2-0.1,0.3-0.2,0.4-0.3c-0.3-0.7-1-0.6-1.6-0.6
			c-2.1,0-4.1,0.2-6.2,0.3c-1.2,0.1-2.4,0.4-3.7,0.4c-1.2-0.1-2.4-0.2-3.6,0c-0.7,0.1-1.2-0.3-1.9-0.5
			C64.4,112,63.1,111.6,61.8,111.8z"/>
		<path class="st2" d="M102.9,98.3c-0.3-1-1.2-1.1-2.1-1.2c-1.4-0.2-2.9-0.2-4.4-0.4c-0.7-0.1-1.4-0.6-2-0.5c-1.5,0.2-3,0.5-4.5,0.8
			c-0.3,0-0.6,0-0.8-0.1c-1-0.4-2-1-3.1-1.3c-0.8-0.2-1.7,0.1-2.6,0.1c-0.3,0-0.6-0.2-0.9-0.3c-0.2,0.3-0.5,0.5-0.6,0.8
			c-0.7,1.2-1.7,1.9-3.1,2c-0.3,0-0.5,0.3-0.7,0.4c0.6,0.3,1.1,0.6,1.7,0.9c0.7,0.3,1.3,0.6,2,0.8c0.7,0.2,1.4,0.3,2.1,0.5
			c1.6,0.5,3.1,0.2,4.5-0.6c0.5-0.3,0.9-0.4,1.5,0c0.4,0.3,1,0.4,1.5,0.6c0.2,0.1,0.5,0,0.6,0.1c1.1,0.9,2.3,0.8,3.6,0.8
			c0.2,0,0.3,0,0.5,0c1.6,0.5,3.2,1,4.8,1.5c0.4-0.5,0.8-1,1.2-1.5c0.1-0.2,0.2-0.4,0.3-0.6C102.5,100.2,102.7,99.3,102.9,98.3z"/>
		<path class="st2" d="M128.1,105.7c2.8,0.1,5.5,0.1,8.3,0.2c0.4,0,0.7,0.3,1.1,0.4c0.8,0.1,1.5,0.1,2.3,0.2
			c0.7,0.1,1.3,0.2,1.9,0.3c1,0.2,1.9,0.3,2.9,0.5c0.1,0,0.1,0,0.2,0c1.6,0.1,3.1,0.3,4.7,0.4c-0.5-1-1-1.9-1.4-2.9
			c-0.2-0.5-0.3-1.1-0.5-1.7c-1.6-0.3-3.3-0.7-4.9-0.8c-1.7-0.1-3.3-1.1-5.1-0.9c-1,0.1-2.1-0.4-3.1-0.6c-0.6-0.1-1.3-0.1-1.9-0.2
			c-0.5,0-1-0.1-1.4-0.2c-1.1,0-2.3-0.1-3.4-0.1c-0.8,0-1.6,0-2.3,0c-0.5,0-0.9-0.1-1.4-0.1c0.1,0.2,0.1,0.5,0.3,0.5
			c1.2,0.5,1.6,1.6,2.1,2.6C126.9,104.2,127.5,104.9,128.1,105.7z"/>
		<path class="st2" d="M61.8,111.8c0.1,0.1,0.3,0.3,0.4,0.3c1.6-0.1,3.1,0.3,4.5,0.9c0.2,0.1,0.4,0.1,0.6,0.1c1.7,0,3.4,0.1,5.1,0
			s3.4-0.5,5.1-0.6c0.7-0.1,1.4,0.1,2.1,0.1c0.8,0,1.7,0,2.5,0c0.1,0,0.2,0.1,0.3,0.2c1.4-1.2,2.9-2.4,4.3-3.5
			c0.5-0.4,1-0.6,1.6-0.9c-0.5-0.1-1-0.4-1.5-0.4c-2.5,0-4.9,0-7.4,0c-1.1,0-2.2-0.3-3.4-0.3c-2.3-0.1-4.7-0.1-7-0.1
			c-0.3,0-0.6-0.1-0.9-0.2c-1.8,1-3.5,1.9-4.8,3.5C63.1,111.2,62.4,111.4,61.8,111.8z"/>
		<path class="st1" d="M144.3,170.4c-0.5,0.1-0.9,0.3-1.4,0.3c-2.4,0-4.8,0.1-7.1-0.2c-1.6-0.2-3.1,0.3-4.7,0.2
			c-1.5,0-3-0.3-4.5-0.4c-0.9-0.1-1.8-0.1-2.7-0.1c-0.5,0-1,0.1-1.5,0c-1.6,0-3.2-0.2-4.8-0.2c-2.1,0-4.3,0.2-6.4,0.2
			c-1,0-2-0.3-2.9-0.5c0.3,1.1,0.9,1.2,2,1c1.3-0.2,2.6,0.2,3.9,0.9c0.4,0.2,0.9,0.3,1.4,0.4c1.3,0.2,2.6,0.4,3.9,0.6
			c1.2,0.2,2.4,0.5,3.5,1.3c0.4,0.3,1.4,0.2,2,0.1c2.3-0.5,4.6-0.3,6.9,0.1c0.3,0,0.6-0.1,0.9-0.2c1-0.4,2-0.4,3.1-0.1
			c0.7,0.2,1.6,0,2.4,0c1.3,0,2.5,0.1,3.8,0.1c0.3,0,0.6,0,0.8-0.1c0.8-0.4,1.5-0.8,2.4-1.3C144.4,172,144.2,171.2,144.3,170.4z"/>
		<path class="st2" d="M153.4,116.9c-0.3,0-0.7,0.2-1,0.1c-1.1-0.3-2.1-0.7-3.2-0.4c-0.2,0.1-0.6-0.1-0.8-0.3
			c-0.8-0.5-1.6-0.8-2.7-0.4c-0.9,0.4-1.8,0.1-2.6-0.4c-1.2-0.8-2.4-0.6-3.6-0.3c-0.3,0.1-0.8,0.1-1.1,0c-1.7-0.5-3.3-1.5-5.2-1.2
			c-0.1,0.8,0.4,1.3,0.9,1.9c1.1,1.2,2.2,2.3,3.3,3.5c0.6-0.3,1-0.2,1.6,0.2c0.9,0.7,2,0.9,3.2,0.8c1.1-0.2,2.3-0.4,3.3,0.4
			c0.4,0.3,1.2,0.1,1.9,0.2s1.4,0.2,2,0.3c0.2,0,0.5,0.2,0.7,0.2c1.8,0,3.7,0,5.5,0c-0.6-0.7-1.3-1.3-1.7-2
			C153.5,118.7,153.5,117.8,153.4,116.9z"/>
		<path class="st2" d="M73.5,119.3c-0.2-0.1-0.4-0.4-0.5-0.3c-1.3,0.4-2.5-0.4-3.7-0.4c-1.4,0-2.8-0.1-4.1-0.2
			c-0.4,0-0.9-0.2-1.3-0.3c-0.3-0.1-0.7-0.2-1-0.2c-1,0-1.9,0-2.9,0c-0.9-0.1-1.7-0.2-2.6-0.4c-1.3-0.3-2.5,0.2-3.7,0.6
			c-0.3,0.1-0.6-0.1-0.9-0.1c-0.6,0.6-0.3,1,0.3,1.3c1.3,0.5,2.1,1.3,2.8,2.5c0.3,0.5,0.9,0.7,1.4,1.1c0.6-0.2,1.1-0.2,1.7-0.1
			c1.1,0.2,2.3,0,3.4,0.5c0.1,0.1,0.3,0.1,0.5,0c1.3-0.7,2.6-0.1,3.8,0.1c-0.1,0-0.4-0.2-0.3,0.3c0.6,0.1,0.9-0.2,1.4-0.7
			c1.1-1.2,2.3-2.3,4.1-2.7C72.3,120.2,72.9,119.6,73.5,119.3z"/>
		<path class="st2" d="M107.2,104.5c0.2-0.1,0.4-0.3,0.7-0.4c0.9-0.3,1.7-0.5,2.6-0.9c0.7-0.3,1.3-0.4,1.9,0.2c0.6,0.7,1.4,1,2.4,1
			c0.9,0,1.8,0.4,2.6,0.3c1.7-0.2,3.3,0.4,5,0.4c-0.5-1.1-1-2.2-0.6-3.5c0.2-0.6-0.1-1.4-0.2-2.1c-2.2-0.1-4.3-0.2-6.5-0.4
			c-0.9-0.1-1.8,0-2.6,0.7c-0.7,0.6-1.2,0-1.7-0.3c-0.4-0.2-0.7-0.6-1.1-0.9c-0.3,0.5-0.7,1-0.8,1.6c-0.2,1.1-0.6,2.1-1.4,2.9
			C107.1,103.4,107.2,104,107.2,104.5z"/>
		<path class="st2" d="M97.7,86.3c-0.4,1.5,0.5,2.3,1.6,3.1c1.1,0.8,2.2,0.9,3.5,0.7c1.3-0.2,2.7-0.1,4.1-0.1
			c0.5-0.6,1.1-1.3,1.5-1.9c0.2-0.3,0.3-0.8,0.3-1.2c0-0.6-0.1-1.2-0.1-1.7c-0.8-0.1-1.5-0.2-2.3-0.6c-1.5,0.4-2.9,0.9-4.4,1.2
			C100.6,86,99.1,86.1,97.7,86.3z"/>
		<path class="st1" d="M66.3,123.6c0.2-0.1,0.4-0.2,0.6-0.4c-1.3-0.4-2.5-1.1-3.9-0.3c-0.2,0.1-0.4,0.1-0.6,0
			c-1.3-0.2-2.7-0.5-4-0.6c-0.4,0-0.8,0.3-1.2,0.4c0.4,0.7,0.7,1.3,1.1,2c0.2,0.3,0.4,0.6,0.6,0.9c0,0.1,0.1,0.1,0.1,0.1
			c0,0.1,0,0.1,0.1,0.1c0,0,0.1,0,0.1,0.1c0.1,0.1,0.3,0.2,0.4,0.3c0.1,0.1,0.2,0.3,0.3,0.4v0.1H60c0.2,0.2,0.1,0.6,0.3,0.8
			c0,0.1,0,0.2,0.1,0.3s0.3,0.2,0.4,0.3c0.1,0,0.3,0,0.4,0c0.2-0.2,0.3-0.6,0.5-0.8c0.1-0.1,0.3-0.3,0.4-0.4
			c0.1-0.1,0.3-0.2,0.5-0.3c0.2-0.1,0.3-0.2,0.5-0.3c0,0,0.1,0,0.1-0.1c0.1-0.2,0.3-0.3,0.4-0.5c0.2-0.3,0.3-0.6,0.5-0.8l0,0
			c0.1,0,0.1-0.1,0.1-0.1c0.1-0.1,0.2-0.2,0.3-0.3c0.4-0.3,0.8-0.6,1.2-0.7C66,123.7,66.1,123.6,66.3,123.6z"/>
		<path class="st1" d="M106.3,84.4c0.6,0.7,1.4,1,2.3,0.6c0.1-0.7,0.2-1.3,0.3-1.9c-0.1-0.1-0.1-0.1-0.2-0.2
			C107.9,83.4,107.1,83.9,106.3,84.4z"/>
		<path class="st2" d="M65.8,123.7c-0.4,0.2-0.8,0.5-1.2,0.7C65,124.2,65.4,123.9,65.8,123.7z"/>
		<path class="st2" d="M64.2,124.8c-0.2,0.3-0.3,0.6-0.5,0.8C63.8,125.4,64,125.1,64.2,124.8z"/>
		<path class="st2" d="M61.8,127.3c-0.2,0.3-0.3,0.5-0.5,0.8C61.4,127.8,61.6,127.5,61.8,127.3z"/>
		<path class="st2" d="M60.3,127.5c-0.1-0.3-0.2-0.6-0.3-0.8C60.1,127,60.2,127.2,60.3,127.5z"/>
		<path class="st2" d="M60.9,128.1c-0.1-0.1-0.3-0.2-0.4-0.3C60.6,127.9,60.7,128,60.9,128.1z"/>
		<path class="st2" d="M62.7,126.5c-0.2,0.1-0.3,0.2-0.5,0.3C62.4,126.7,62.5,126.6,62.7,126.5z"/>
		<path class="st2" d="M60,126.6c-0.1-0.1-0.2-0.3-0.3-0.4C59.8,126.3,59.9,126.4,60,126.6z"/>
		<path class="st2" d="M144.3,161.7c0,0.2,0,0.3,0,0.5C144.3,162,144.3,161.8,144.3,161.7z"/>
		<path class="st1" d="M41.2,119.2c0.1,0,0.2,0,0.3,0c0,0,0,0,0-0.1C41.4,119.2,41.3,119.2,41.2,119.2L41.2,119.2z"/>
		<path class="st2" d="M63.2,126.1L63.2,126.1C63.2,126.1,63.1,126.2,63.2,126.1C63.2,126.2,63.2,126.2,63.2,126.1z"/>
		<polygon class="st2" points="59.2,125.8 59.2,125.8 59.1,125.8 59.1,125.8 		"/>
		<path class="st2" d="M59,125.7L59,125.7C58.9,125.6,59,125.7,59,125.7z"/>
		<path class="st2" d="M144.5,159.8c0,0.1,0,0.2,0.1,0.3C144.5,160,144.5,159.9,144.5,159.8z"/>
		<path class="st2" d="M144,164.1c0,0,0,0.1-0.1,0.1c0,0,0,0,0,0.1C144,164.2,144,164.2,144,164.1C144.1,164.1,144,164.1,144,164.1z
			"/>
		<path class="st2" d="M98.2,166.4L98.2,166.4c0-0.1-0.1-0.1-0.1-0.1C98.1,166.3,98.2,166.3,98.2,166.4z"/>
		<path class="st2" d="M133.1,113.8c0-0.1,0-0.1,0.1-0.2c0,0,0,0-0.1-0.1C133.1,113.6,133.1,113.7,133.1,113.8
			C133,113.8,133.1,113.8,133.1,113.8z"/>
		<path class="st2" d="M89.2,108c-0.1,0-0.1,0.1-0.2,0.1C89.1,108.1,89.1,108,89.2,108z"/>
		<path class="st2" d="M128.3,106c0-0.1-0.1-0.1-0.1-0.2C128.2,105.9,128.3,105.9,128.3,106z"/>
		<path class="st2" d="M64.3,124.7L64.3,124.7C64.3,124.7,64.3,124.7,64.3,124.7z"/>
		<path class="st0" d="M155.7,48.1c1.9,0,3.8-1.5,3.9-3c0-1.3-2.3-3.7-3.3-3.6c-1.1,0.1-3.4,1.8-3.4,2.7
			C152.9,46.5,154.1,48.1,155.7,48.1z"/>
	</g>
	<ellipse transform="matrix(0.168 -0.9858 0.9858 0.168 72.6415 185.7659)" class="st2" cx="146.4" cy="49.8" rx="2.9" ry="6.5"/>
</g>
</svg>
