<?xml version="1.0" encoding="utf-8"?>
<!-- Generator: Adobe Illustrator 25.0.0, SVG Export Plug-In . SVG Version: 6.00 Build 0)  -->
<svg version="1.1" id="_xEFF5__xEED3__x5F_4" xmlns="http://www.w3.org/2000/svg" xmlns:xlink="http://www.w3.org/1999/xlink"
	 x="0px" y="0px" viewBox="0 0 253.4 238" style="enable-background:new 0 0 253.4 238;" xml:space="preserve">
<style type="text/css">
	.st0{fill:#FFFFFF;}
	.st1{fill:#FDD23E;}
</style>
<g>
	<path d="M80.3,205.7c3,1.1,6.1,2.2,9.2,3.3c0.2,0.1,0.5,0.2,0.7,0.1c2-0.2,3.7,0.2,5.6,1.1c1.7,0.8,3.8,0.8,5.7,1.2
		c1,0.2,1.9,0.4,2.9,0.6c0.1,0,0.2,0.1,0.2,0.1c3.3,0.4,6.6,0.8,10,1.2c2.9,0.3,5.9,0.6,8.8,0.6c3.9,0,7.7,0.7,11.6-0.5
		c0.6-0.2,1.2-0.2,1.8-0.1c3.6,0.8,7.1,0.1,10.5-0.9c1.5-0.5,3.2-0.5,4.7-0.6c1.4,0,2.7-0.1,3.8-1.1c0.5-0.4,1.2-0.5,1.8-0.6
		c3.3-0.5,6.5-0.9,9.8-1.5c1.1-0.2,2.2-0.9,3.3-1.3c0.4-0.2,0.8-0.3,1.2-0.4c2.4-0.3,2.4-0.3,3.9-1.9c1.9-0.3,3.1,0.7,4.3,2
		c1.8,2,3.7,3.9,5.6,5.9c1,1,1.8,2.2,2.7,3.3c1.6,1.8,3.3,3.4,4.8,5.2c0.7,0.8,1.5,1.7,2,2.7c1.3,2.6,2.4,5.4,3.9,8
		c0.9,1.7,2.2,3.3,3.4,4.8c0.9,1.1,2.2,1.1,3.4,0.2c0.8-0.5,1.5-1.1,2.3-1.5c3.2-1.3,6.4-2.8,9.3-4.7c1.6-1,3.5-1.5,5.2-2.4
		c2.2-1.2,4.4-2.5,6.5-4c1.2-0.8,2-2,1.6-3.7c-0.1-0.4,0-1,0.2-1.4c0.5-1.3,0.5-2.5-0.6-3.5s-2.4-0.8-3.6-0.1
		c-0.2,0.1-0.5,0.2-0.9,0.4c-2.1-1.9-5-1.5-7.6-1.9c-3.3-0.5-6.6-0.4-9.9-0.6c-0.6,0-1.1-0.3-1.8-0.5c0.2-2.5-0.9-4.4-2.1-6.4
		c-1.9-3.2-3.5-6.5-5.2-9.8c-0.5-1-1.1-2-1.7-3c1.6-0.9,3-1.7,4.4-2.4c-1-2.8-1.8-5.2-2.8-7.6c-1.3-3-2.7-5.8-4-8.8
		c-1.3-2.8-2.6-5.6-3.9-8.4c-2.2-4.7-4.8-9.2-6.7-14c-1.3-3.3-4.1-5.9-4.5-9.6c-0.1-0.9-1.1-1.6-1.6-2.4c-0.5-1.4-0.9-2.9-1.6-4.2
		c-2.5-4.6-4.8-9.2-6.7-14.1c-0.2-0.6-0.6-1.2-1.1-1.7c-2.1-2.6-3.3-5.5-4.3-8.7c-0.8-2.7-1.6-5.5-4-7.6c0.5-0.4,0.9-0.9,1.4-1.1
		c2.5-1.2,5-2.2,7.4-3.5s5.1-1.7,7.3-3.5c1-0.8,2.4-1.2,3.7-1.5c2.7-0.7,5.2-1.8,7.7-3.2c1.2-0.7,2.7-1,4.1-1.5
		c2.6-0.9,5.3-1.8,7.9-2.7c0.5-0.2,1.1-0.5,1.5-0.9c1-0.9,2-1.7,3.6-1.4c0.5,0.1,1.2-0.4,1.9-0.6c1.4-0.5,2.8-1.1,4.3-1.6
		c0.5-0.2,1.1-0.2,1.4-0.6c1-1.4,2.6-1.5,4-1.9c1.8-0.5,3.6-1,5.4-1.5c0.4-0.1,0.9-0.3,1.2-0.1c2.1,1,4.2,0,6.2-0.3
		c1.9-0.2,3.6-0.9,4.6-2.8c1.5,0.3,2.9,0.6,4.2,0.9c2.1,0.6,3.7,0,4.5-2.1c0.7-1.9,1.2-3.9,1.8-5.8c0.1-0.4,0.3-0.9,0.6-1
		c2.3-1.2,2.9-3.7,4.2-5.7c1.1-1.5,0.5-2.8-1.1-3.8c-1-0.6-2-1.2-3.2-2c1.5-0.8,2.8-1.5,4.2-2.1c2.6-1.2,3.9-3.2,3.7-6
		c-0.1-1.4-0.8-2.2-2.1-2.8c-3.2-1.6-6.2-0.3-9.1,0.6c-3.3,1-6.4,2.6-9.6,3.9c-3,1.2-6.1,2-9,3.4s-5.7,2.2-8.9,1.5
		c-4.3,1.4-9.1,0.8-13.3,2.7c-1.2,0.5-2.7,0.3-4,0.5c-1.9,0.4-3.8,0.9-5.7,1.3c-0.8,0.2-1.6,0.1-2.5,0.2c-0.3,0-0.6-0.1-0.7,0
		c-1.9,1.6-4.3,0.8-6.5,1.4c-2.2,0.6-4.4,1.2-6.6,1.8c-0.7,0.2-1.3,0.1-2,0.2c-0.7,0.1-1.4,0.2-1.9,0.5c-1.5,0.9-3.1,1-4.8,1.1
		c-2.2,0.2-4.3,0.8-6.5,1.2c-1.7,0.4-3.4,0.8-5.1,1.2c0.3-2,0.5-4.1,0.9-6.1c0.2-0.6,1.1-1.3,1.8-1.5c2.1-0.5,3.1-2.2,4.4-3.6
		c1-1.1,0.6-2.7-0.2-3.8c-0.9-1.4-2.1-2.6-3.3-4.2c1-3.3,0-6.9-0.6-10.7c1.9-0.6,2.2-1.8,1.6-3.7c-0.4-1.4-0.4-3-0.7-4.5
		c-0.1-0.6-0.5-1.2-0.8-1.8c-0.5-0.9-1.2-1.6-1.5-2.6c-1.3-4.6-4.1-8.1-7.6-11.1c-2.3-1.9-4.9-3.4-7.4-4.9c-0.6-0.4-1.4-0.5-2.2-0.6
		c-1.5-0.1-2.9-0.7-4.3-1.2c-2.4-0.8-4.9-2.2-7.6-0.5c-1.5-1.6-3.4-1.5-5.2-1.3c-1.7,0.2-3.4,0.5-5,0.4c-3.1-0.5-6.1,0.8-9.1,1.9
		c-4.7,1.7-9.5,3.4-13.5,6.7C94.5,14,94.2,14,94,14.1c-0.2-1.8-0.3-3.5-0.5-5.3c-0.3-2.8-1.7-5-4.1-6.4c-4.7-2.9-9.7-3.1-14.6-1.2
		c-2.2,0.9-4.2,2.8-5.9,4.6c-1.7,1.9-2.6,4.3-2.7,7c0,1-0.2,2-0.4,3c-0.6,4.1,1.9,7.3,3,10.9c0.1,0.2,0.2,0.5,0.4,0.6
		c2.9,1.9,5.5,4.7,9.5,4.1c0.9-0.1,2,0.2,3.2,0.3c-0.5,1.8-1,3.5-1.4,5.3c-0.2,1.1-0.4,2.2-0.3,3.3c0.4,2.9-0.1,5.9,1.3,8.7
		c0,0.1,0.1,0.2,0.1,0.2c0.1,6,3.6,10.5,6.9,14.9c2.2,3,5.2,5.5,8.9,6.9c1.6,0.6,3,2.1,4.5,3.3c-2.3,1.2-4.4,2.3-6.6,3.3
		c-3.1,1.4-6,3.1-8.9,4.8c-1.9,1.1-4.1,1.7-5.6,3.4c-0.3,0.3-0.7,0.5-1.1,0.6c-4.1,1.2-7.6,3.5-11.1,5.9c-1.9,1.3-3.8,2.5-5.7,3.8
		c-3,2-6,4.1-9,6.1c-3.3,2.2-6.5,4.5-9.8,6.8s-6.6,4.6-9.9,6.9c-0.5,0.3-1.1,0.5-1.5,0.9c-1.6,1.2-3.6,1.9-4.7,3.8
		c-0.3,0.5-1,1-1.6,1.1c-2.4,0.5-4,2.2-5.4,4c-0.5,0.6-0.4,1.7-0.4,2.6c0,0.6,0.5,1.2,0.9,2c-2.5,0.8-4.9,1.6-7.6,1.6
		c-1.8,0-3.5,0.5-5.3,0.6c-1.3,0.1-2.5-0.1-3.8-0.1c-0.8,0-1.7-0.3-2.5-0.1c-2.5,0.6-3,2.2-1.5,4.2c1.4,1.9,2.9,3.8,4.3,5.7
		c0.7,1,1.6,1.7,3,1.7c0.2,0,0.6,0,0.7,0.1c1.9,2,4.7,1.7,7,2.4c1.1,0.3,2.5,0,3.7,0c1.1,0,2.2,0,3.5,0c0.3,1.2,0.7,2.3,0.9,3.4
		c0.5,2.6,2.5,3.9,5.1,3.1c2-0.7,4-1.5,4.3-4.1c0.1-0.6,0.4-1.1,0.6-1.6c3.2,0.6,3.6,0.3,4.2-2.8c0.6-0.2,1.3-0.3,1.9-0.6
		c0.6-0.3,1.5-0.5,1.7-1c1.2-2.7,4.3-2.8,6.2-4.6c0.4-0.4,1.2-0.5,1.5-0.9c1.1-2.1,3.4-2.3,5.1-3.3c3.1-1.8,6.1-3.6,9.3-5.3
		c1.9-1,3.6-2.3,5.8-3c2.4-0.8,4.4-2.4,6.7-3.7c1.5-0.8,3.1-1.6,4.7-2.5c0.4,2.2,0.1,3.6-1.3,5.1c-1.2,1.4-1.5,3.5-2.2,5.3
		c-0.5,1.3-0.9,2.5-1.4,3.8c-0.2,0.5-0.5,1-0.5,1.4c0.1,1.1-0.6,1.7-1,2.5c-1.1,2.2-1.9,4.5-2.8,6.8c-0.4,1-0.7,2-1.1,3
		c-0.2,0.6-0.8,1.2-0.8,1.9c-0.2,3.3-2.5,5.7-3.5,8.6c-0.6,1.8-1.5,3.6-2.2,5.4c-0.2,0.5-0.3,1-0.5,1.4c-1.6,3-3.5,6-4.6,9.2
		c-1,2.7-3.3,4.6-3.8,7.6c-0.2,1.4-1.5,2.5-2.2,3.8c-0.5,0.9-0.8,2-1.3,3.1c1.9,1.3,3.6,2.5,5.4,3.7c-1,1.2-1.9,2.1-3.2,2.7
		c-1,0.4-1.9,1.1-2.8,1.8c-3.1,2.6-6.3,4.6-10.4,5.6c-3.4,0.9-6.5,2.9-9.6,4.5c-1.7,0.9-1.8,2.2-0.9,3.9c0.5,1,0.9,2.1,1.4,3.2
		c1,2.7,2,5.4,3,8.1c0.7,2,1.3,4,2.1,5.9c1,2.4,2.1,4.8,3.3,7.2c0.7,1.3,1.8,2.2,3.5,2.1c0.6,0,1.3,0.3,1.9,0.6c1,0.4,2,0.3,2.9-0.4
		c0.9-0.8,1.4-1.8,0.9-3s-0.4-2.1,0.5-3c0.3-0.3,0.6-0.9,0.7-1.3c1-4.6,1.9-9.1,2.7-13.7c0.2-1.1,0.5-1.9,1.5-2
		c3.6-0.4,6.7-2.1,9.9-3.6c2-0.9,4.1-1.5,6.2-2.2C74.2,207.6,77.2,206.7,80.3,205.7z"/>
	<path class="st0" d="M221.4,74.7c-0.4-5.4-3.2-10-4.3-15.2c-2.2,0-3.9,0.3-5.7,1c-2.2,0.8-4.6,1.3-6.9,1.3c-2.1,0.1-4,0.6-6,1.1
		s-4,0.7-6,1.1c-1.8,0.3-3.4,1.7-5.3,0.9c-1.9,1.8-4.5,1.5-6.7,2.1c-1.1,0.3-2.4,0.2-3.5,0.7c-3.1,1.3-6.8,0.3-9.7,2.3
		c-0.1,0.1-0.3,0.2-0.5,0.2c-3.1,0.6-6.1,1.1-9.2,1.7c-0.5,0.1-1.1,0-1.5,0.2c-1.6,1-3.1,0.7-4.4-0.6c-2.9,2-5.4,4.7-9.4,4.5
		c0.1,1.1,0.3,2.1,0.1,3.1c-0.4,2.9-0.9,5.9-3,8.2c-0.2,0.3-0.4,0.6-0.5,0.9c-1.9,4.3-6.2,5.8-10.2,3.7c-0.5-0.3-1.1-0.3-1.7-0.6
		c-0.6-0.3-1.3-0.6-1.7-1c-1.3-1.5-2.6-3-4-4.7c-0.2,0.4-0.4,0.7-0.5,1c-0.4,3.3-2.9,5.2-4.6,7.7c-0.4,0.5-1.3,0.9-2,1
		c-2.8,0.2-5.7,0.7-8.3-1.2c-1.8-1.3-4.1-2.1-5.4-4.1c-0.7-1.1-1.5-2.2-2.3-3.3c-0.6-1-1.2-2-2-3.2c-3.2,1.2-6.3,2.2-9,4.2
		c-0.8,0.6-1.7,1.2-2.6,1.5c-1.4,0.1-2.4,0.7-3.4,1.8c-0.6,0.7-1.7,1-2.6,1.5c-2.5,1.4-5.1,2.7-7.5,4.2c-3.6,2.3-7.1,4.8-10.7,7.2
		c-3,1.9-5.5,4.6-8.9,5.9c-0.7,0.3-1.3,0.8-1.9,1.3c-2.5,2-5,3.9-7.9,5.4c-2.1,1.1-3.8,2.8-5.6,4.3c-1.7,1.4-3.2,3-5.6,3.4
		c-0.3,0.1-0.7,0.3-0.9,0.5c-1.2,1.2-2.3,2.4-3.4,3.7c0.6,1.8,1.6,3.2,3.2,4.4c1.4,1.1,2.5,2.7,3.4,4.4c0.9,1.7,2,2.9,3.7,3.9
		c0.7-0.8,1.3-2.1,2.1-2.4c3-0.9,4.5-3.7,7-5.2c1.1-0.7,2.4-1.1,3.7-1.7c1.5-1.2,3-2.7,4.8-3.7c2.4-1.4,5.1-2.3,7.6-3.6
		c2-1.1,4.1-1.9,5.9-3.4c1.7-1.5,3.9-2.4,5.9-3.5c0.9-0.5,1.9-1.2,2.9-1.6c2.2-1,4.5-2,6.8-2.8c1.4-0.4,2.3-1.2,3.1-2.4
		c0.8-1.3,1.8-1.6,2.7-1.2c1,0.5,1.3,1.6,0.7,3.1c-0.8,1.9-1.7,3.6-2.6,5.5c-0.2,0.4-0.2,0.8-0.3,1.2c-0.1,0.4,0,0.9-0.2,1.3
		c-0.7,1.2-1.7,2.2-2.1,3.4c-0.4,1.1,0.1,2.4-0.5,3.7c-1.1,2.5-1.8,5.2-2.7,7.8c-0.2,0.5-0.5,1.1-0.8,1.6c-0.2,0.4-0.6,0.7-0.6,1.1
		c-0.2,3.4-1.9,6.2-3.5,9.1c-0.2,0.4-0.3,1-0.4,1.4c-0.3,0.8-0.3,1.8-0.8,2.4c-2.1,2.7-2.2,6.1-3.6,9.1c-0.8,1.6-1.5,3.2-2.2,4.8
		c-0.7,1.4-1.5,2.7-2,4.1c-0.5,1.5-0.9,3.1-2.3,4.2c-0.2,0.2-0.4,0.5-0.5,0.8c-1,2.4-1.9,4.9-3,7.2c-0.9,1.9-2,3.7-3.1,5.6
		c2.2,1.5,4.5,2.7,6.4,4.3c3.4,3,7.9,3.9,11.3,6.7c2.1,1.8,4.5,2.4,7,3.2s5.1,1.4,7.4,2.7c2.8,1.5,5.9,1.8,8.8,2.5
		c2,0.5,4,1.4,6.2,0.9c0.1,0,0.2,0,0.3,0c2.9,0.8,5.8,1,8.8,1.1c3,0.2,6,0.6,9,0.7c3.9,0.1,7.7,0.1,11.6,0.1c0.5,0,1,0,1.5-0.2
		c3.4-1.1,6.8-1,10.3-0.9c1.5,0.1,3-0.5,4.4-0.9c1.2-0.4,2.4-0.7,3.7-0.3c0.6,0.2,1.3,0.2,1.9,0c3-1,6-2.2,9.1-3.2
		c1-0.3,2.2-0.4,3.2-0.6c0.6-0.1,1.2-0.2,1.6-0.5c1.2-1,2.5-1.1,3.9-0.4c1-1.3,2-2.2,3.8-2.2c1,0,2.1-1,3.1-1.5
		c0.4-0.2,0.8-0.9,1.2-0.9c2.4,0.1,3.8-1.9,5.8-2.7c1.9-0.8,3.5-2.3,5.3-3.4c0.7-0.4,1.5-0.6,2.5-1c-0.2-1.4-0.7-2.5-1.4-3.7
		c-1.4-2.2-2.5-4.6-3.6-7c-1.6-3.5-3.2-7-4.8-10.6c-2.1-4.6-4-9.4-6.5-13.8c-1.8-3.2-2-7.1-4.8-9.7c-0.2-2.1-1.4-3.6-2.7-5.2
		c-0.6-0.8-0.9-1.8-1.2-2.8c-1.3-3.8-3.3-7.3-5.1-10.9c-0.8-1.6-1.4-3.3-1.9-5c-0.7-2.2-1.6-4.4-2.8-6.3c-1.3-2-2.6-3.9-3.7-6
		c-0.5-1-0.4-2.3-0.6-3.5c-0.6,0-1.1,0.1-1.6,0.1c-1.1,0-1.9-0.6-2-1.6c-0.1-0.7,0.3-1.8,0.8-2.2c2.1-1.4,4.4-2.6,6.6-3.8
		c2-1.1,4.1-2.2,6.2-3.1c2.6-1.1,4.9-2.9,7.9-3.3c0.9-0.1,1.8-0.9,2.7-1.3c3.7-1.5,7.4-2.9,11-4.4c2.6-1.1,5.2-2.2,7.7-3.4
		c1.5-0.7,2.9-1.3,4.6-1.2c0.5,0,1.1-0.1,1.4-0.4c2.1-2.4,5.6-1.7,8-3.6c0.2-0.1,0.5-0.2,0.7-0.1c2,0.5,3.6-0.7,5.4-1.2
		C218.3,76.1,219.6,75.4,221.4,74.7z"/>
	<path class="st1" d="M128.3,37.4c1.8-0.7,3.3-1.2,5.1-1.9c0.5-1.7,0.6-3.3-1.2-4.8c-1.2-1-1.9-2.4-1.8-4c0.1-1.4,1-2.1,2.3-1.5
		c0.9,0.4,1.6,1.2,2.3,1.9c0.4,0.4,0.6,1.1,0.7,1.6c0.2,2.3,1.5,3.9,3.3,5.4c1.9-0.4,4-0.8,6.1-1.3c-1.6-3.1-3-5.8-4.4-8.6
		c-0.5-1.1-0.3-2.1,0.6-2.7c0.9-0.6,2-0.4,2.7,0.5c0.9,1.2,1.7,2.5,2.5,3.8c0.9,1.6,1.9,3,2.5,4.9c0.7,2.4,2.6,2.8,6.2,1.8
		c-0.2-0.6-0.5-1.2-0.7-1.8c-0.3-0.9-0.5-1.7-0.7-2.6c-0.2-0.7-0.2-1.6-0.6-2.1c-2.4-3-4.4-6.3-7.5-8.9c-1.9-1.6-3.7-3.1-6.1-4
		c-0.6-0.2-1.2-0.7-1.7-1.1c-1-0.8-2-1.1-3.4-1.2c-2.4-0.3-5-0.2-6.6-1.8c-1.7,0.2-3.2,0.6-4.5,0.3c-2.1-0.4-4,0.2-6,0.4
		c-1.8,0.1-3.7,0.5-5.5,0.9c-2.3,0.5-4.5,0.9-6.6,2.2c-3.4,2.1-7.1,3.6-10,6.4c-0.6,0.5-1.1,1-1.6,1.6c-1.8,2.1-3.5,4.3-5.2,6.5
		c-0.3,0.4-0.5,0.9-0.7,1.3c-0.5,1.6-1,3.2-1.6,4.8c-1.5,3.8-1.1,7.7-1.1,11.7c0,3.1,1.4,5.7,2.4,8.4c0.8,2.2,2.5,4.2,3.9,6.2
		c1.9,2.4,4.4,4.2,6.9,6c2.5,1.8,5.2,3,7.9,4.8c1.1-1.3,2.1-2.4,2.7-3.1c-1-1.2-2.1-2.6-3.3-4c-2.3-2.6-3.5-5.5-3.5-9
		c0-1.5,0.6-2.6,1.9-3.3c0.3-0.2,0.7-0.3,0.9-0.5c1.4-2.4,3.7-2.5,6-2.1c0.5,0.1,1,0,1.7,0c-0.4-3.1,0.5-5.8,1.5-8.5
		c0.5-1.2,0.8-2.5,0.4-4c-0.6-2.5,0.3-4.9,1.4-7.1c0.9-1.8,3.8-2,5.6-0.3c1.1,1,2,2.3,3,3.5c0.7,0.9,1.2,1.9,1.8,2.7
		C126.9,35.8,127.6,36.6,128.3,37.4z"/>
	<path class="st0" d="M158.8,53c-1-0.8-1.8-1.7-2.8-2.2c-2.3-1-2.3-2.9-2.4-4.9c0-0.5,0.1-1,0.2-1.5c0.7-2.5-0.2-4.8-0.3-7.4
		c-0.5-0.1-1-0.3-1.4-0.2c-3.4,0.5-6.9,1-10.3,1.6c-3.1,0.6-6.1,1.1-9,2.4c-1.5,0.7-3.2,0.6-4.7,1.7c-0.9,0.7-2.1,0-3.1-1.5
		c-1.5-2.3-3.1-4.6-5-7.2c-1.1,2.9-1.8,5.2-1.6,7.8c0.1,0.9-0.2,1.8-0.4,2.7c-0.1,0.3-0.4,0.6-0.4,0.9c0.3,2.1-1,3.3-2.4,4.2
		c0,0.3-0.1,0.5-0.1,0.7c0.2,0.9,0.8,1.9,0.5,2.5c-0.6,1.3-1.6,0.1-2.4,0c-2-0.2-3.9-0.2-5.6,0.9c-0.8,2.7,0.5,6.3,2.8,8
		c1.4,1,2.6,2.1,3.9,3.3c0.9,0.8,1,1.8,0.5,3c-0.9,2.1-2.4,3.7-4,5.2c-0.3,0.3-0.6,0.5-1.1,1c4.1,2.2,8,4.4,11.9,6.5
		c1.2-0.5,2.5-0.9,3.8-1.5c0.7-0.4,1.3-1,2-1.5c1.2-0.9,2.5-1.7,3.7-2.5c0.4-0.3,0.9-0.5,1.2-0.8c0.8-1,1.9-1.1,3.1-1.4
		c3.4-0.8,7-1.1,10-3c2-1.2,4.1-2.4,5.1-4.8c0.1-0.3,0.1-0.8,0.1-1.4c-3.5,0.2-6-1.3-8-3.8c-0.3-0.3-0.6-0.6-0.8-1
		c-0.6-1.3-0.3-2.8,0.8-3.4c1-0.6,2-0.2,3,1.1c0.8,1,1.6,1.9,2.6,2.7c1.1,1,2.3,0.9,3.5,0c0.8-0.6,1.6-1.3,2.3-1.9
		c1-0.9,2-1.8,3-2.7C157.8,54.3,158.2,53.7,158.8,53z"/>
	<path class="st1" d="M70.2,15.4c0.2,2.1,0.4,4.2,0.7,6.3c0.1,0.5,0.5,1.1,0.8,1.5c0.6,0.8,1.2,1.6,1.8,2.4c0.3,0.4,0.6,0.8,1.1,1.1
		c2.9,1.9,6.1,1.7,9.3,0.9c0.5-0.1,1.1-0.7,1.2-1.2c0.9-2.5,2-4.8,3.7-6.9c0.2-0.3,0.4-0.8,0.4-1.2c0.2-2.1,0.5-4.2,0.6-6.2
		c0.3-5.7-4.8-8.3-9-7.7c-1.7,0.2-3.5,0.8-5.2,1.3c-0.8,0.3-1.8,0.7-2.3,1.4C71.5,9.5,69.9,12.1,70.2,15.4z"/>
	<path class="st0" d="M221.9,59.6c0.9,2.4,2,4.8,2.5,7.3c0.5,2.6,1.9,4.6,3,7.1c1.6-0.5,3.4-0.6,4.5-1.6c1.8-1.5,3.4-1,5.3-0.7
		c0.4,0.1,0.9,0.4,1.2,0.3c0.4-0.1,0.7-0.5,1.2-1c-2.7-1.4-5.5-1.6-8.2-2.2c-1.2-1.8-1.1-3.4,0-5.4c1-1.9,2-2.9,4.2-3.1
		c1.3-0.1,2.6-0.6,4-0.1c1.8,0.8,2.3,1.3,1.9,3.2c-0.2,0.9-0.6,1.7-1,2.7c0.5,0.1,1.1,0.2,1.6,0.4c0.6-1.7,1.1-3.4,1.7-5.2
		c-1.5-1-3.1-2.1-4.8-3.2c-1.5-0.9-1.5-1.8-0.2-2.9c2.6-2.2,5.6-3.7,8.8-4.8c0.8-0.3,1.5-0.8,2.5-1.3c-0.7-0.6-1.2-1.1-1.7-1.5
		C239.9,52.8,230.9,55.9,221.9,59.6z"/>
	<path class="st0" d="M203.8,217.5c0.1-1,0.3-1.9,0.4-2.9c-2.1-1.1-3.2-3.1-4.1-5.2c-1.7-4.1-3.5-8.1-5.4-12.4
		c-1.3,0.8-2.5,1.4-3.7,2.3c-1.1,0.8-2,1.5-3.4,1.4c-0.3,0-0.8,0.1-0.9,0.3c-0.9,1.5-2.4,1.7-4.5,1.7c1.4,1.7,2.7,3,3.9,4.2
		c0.9,0.9,1.7,1.8,2.7,2.7c1.1,1,2.2,1.8,3.2,2.8c1.6,1.5,3.2,3,4.5,4.8c1.5,2,3.2,2.2,5.3,1.2C202.5,218,203.1,217.8,203.8,217.5z"
		/>
	<path class="st0" d="M73.4,203.1c-0.3-0.3-0.4-0.6-0.6-0.7c-2.7-1.3-5.1-3-7.3-5.1c-0.9-0.9-2.4-1.1-3.7-1.7
		c-1.8,0.9-3.4,2-4.8,3.6c-1.6,1.7-3.6,3.1-5.6,4.3c-2.2,1.3-2.5,3-1.7,5.2c0.2,0.6,0.4,1.1,0.6,1.9c0.9,0.2,1.8,0.5,2.8,0.7
		c1.5-1.9,3.4-2.7,5.6-3.3c4.1-1.1,8.2-2.4,12.3-3.7C71.9,204,72.6,203.5,73.4,203.1z"/>
	<path class="st1" d="M199.9,223.1c1.1,3.3,2.9,5.7,4.8,8c7.7-2.1,20.7-8.5,21.5-11.6c-1.1,0.2-2.2,0.6-3.2,0.5
		c-2.8-0.2-5.7-0.5-8.5-0.8c-1.2-0.1-2.3-0.5-3.5-0.7c-1.8-0.4-3.8,0.2-4.3,1.8c-0.8,2.3-2.7,2.3-4.5,2.7
		C201.5,223.2,200.9,223.1,199.9,223.1z"/>
	<path class="st1" d="M44.9,206.3c-3.1,0.4-5.7,2.1-8.4,3.8c1.8,8,3.9,15.7,8.5,22.6c0.3-0.2,0.6-0.2,0.6-0.3
		c0-5.2,1.3-10.2,2.9-15.1c0.6-1.7,0-3.4-1.2-4.1c-2.8-1.5-2.3-3.8-2.2-6.2C45.1,206.9,45.1,206.7,44.9,206.3z"/>
	<path class="st0" d="M106.3,77.4c-1.6,0.8-3.2,1.7-5,2.4c-1.9,0.8-2.1,1.5-0.7,3c1.2,1.3,2.4,2.6,3.6,3.9c2,2.1,4.3,3.9,7.1,4.6
		c3.6-0.7,4.6-3.8,5.8-6.6C113.6,82.3,110,79.9,106.3,77.4z"/>
	<path class="st0" d="M28.9,148.2c0.8-1.8,1.6-3.2,2-4.7c0.2-0.6-0.3-1.6-0.8-2.2c-2-2.1-4-4.1-5-6.9c-0.3-0.9-1.1-1.1-1.9-0.5
		c-2.3,1.7-5.1,1.7-7.6,2.7c-2.5,0.9-5,0.4-7.5,0.4c-0.4,0-0.8-0.1-1.6-0.1c0.4,0.6,0.5,1,0.8,1.2c2.8,2.2,5.9,3.6,9.5,3.8
		c2.6,0.2,5.1,0.7,7.7,0c1.4-0.4,2.3,0.6,2.6,2.1C27.6,145.3,27.6,146.7,28.9,148.2z"/>
	<path class="st0" d="M126.9,85c1.2,0.9,2.1,1.7,3.2,2.4c1.7,1.1,5.6-0.4,6.4-2.4c0.6-1.5,1.1-3,1.6-4.5c0.2-0.9,0.2-1.8,0.3-2.7
		c-0.7-0.3-1.2-0.6-1.7-0.8c-1.1-0.4-1.9,0-2.2,1c-0.7,2.4-2.6,3.6-4.8,4.5C128.6,82.9,127.4,83.5,126.9,85z"/>
	<path class="st0" d="M236,63.1c-0.8,0.8-1,1.5-0.3,2.4C236.8,64.8,236.6,64.1,236,63.1z"/>
	<path d="M108,137.8c2.2,0.2,4.3,0.6,6.5,0.7c4.3,0.1,8.6-0.1,13,0c1.7,0,3.3,0.2,4.9-0.8c0.4-0.3,1.2-0.2,1.8-0.2
		c1.5,0,3,0,4.5-0.8c0.4-0.2,1-0.2,1.5-0.1c1.4,0.2,2.5-0.2,3.6-0.9c0.4-0.3,0.9-0.7,1.3-0.7c2.1,0.4,3.7-1.1,5.6-1.3
		c2-0.3,3.4-1.4,5-2.4c1.2-0.7,1.5-1.8,1.1-2.8c-0.5-1-1.3-1.3-2.8-0.8c-3.3,1.1-6.5,2.3-9.8,3.4c-0.4,0.1-0.8,0-1.2,0
		c-1.4-0.2-2.7-0.1-3.9,0.8c-0.4,0.3-0.9,0.4-1.4,0.5c-1.3,0.3-2.6,0.5-4,0.7c-0.5,0.1-1,0.4-1.5,0.3c-3.9-0.6-7.7,0.1-11.6,0.3
		c-3,0.1-6.1-0.1-9.1-0.2c-0.5,0-1-0.3-1.5-0.4c-2.3-0.4-4.7-0.8-7-1.1c-2.4-0.3-4.8-0.4-7.3-0.6c-1.5-0.1-2.5,0.4-2.7,1.6
		c-0.2,1.1,0.4,2.1,1.6,2.5c4,1.3,8.2,2,12.4,2.5c0.3,0,0.7,0,1,0C108,138.1,108,137.9,108,137.8z"/>
	<path d="M96.4,145.6c-0.9,0.6-1.7,1-2.2,1.6c-0.7,0.9-1.4,2-1.8,3c-1.8,4.9-3.5,9.8-5.3,14.7c-0.7,2.1-1.4,4.1-2.2,6.2
		c-0.3,0.9-0.5,1.9,0.5,2.5s1.8,0.1,2.6-0.5c1.4-1,2.1-2.5,3-3.9c1.8-3,2.3-6.3,3.5-9.4c1.2-3.1,2.2-6.4,3.1-9.6c0.3-0.9,0.2-2,0-3
		C97.6,146.7,97,146.2,96.4,145.6z"/>
	<path d="M122.4,149.9c0.2,4.2,0.4,8.1,0.5,12.1c0.1,2.7-0.2,5.4-0.2,8.1c0,1.3,0.1,2.5,0.3,3.8c0.2,1,1,1.6,2.1,1.6
		s1.8-0.6,2.1-1.5c0.3-1,0.6-2,0.5-3c-0.7-5.1,0.1-10.1-0.1-15.2c0-2-0.7-4.1-0.6-6.2c0-0.5-0.3-1.1-0.6-1.6
		c-0.9-1.5-2.6-1.5-3.4,0.1C122.7,148.6,122.6,149.3,122.4,149.9z"/>
	<path d="M150.4,143.2c-1.2,1.4-0.5,2.8-0.6,4.1c0,0.4,0.1,0.9,0.3,1.2c1.9,2.7,1.9,6.1,3,9.1c0.8,2.1,1.6,4.2,2.3,6.4
		c0.2,0.5,0.2,1,0.3,1.5c0.2,0.8,0.3,1.7,0.5,2.5c0.4,1.2,2,2.5,3,2.3c1.6-0.2,1.6-1.5,1.8-2.6c0.3-1.3,0.1-2.5-0.5-3.7
		c-0.8-1.7-1.3-3.6-1.9-5.4c-0.6-1.8-1-3.6-1.8-5.3c-0.8-1.8-1.9-3.5-2.4-5.5C154.2,145.5,152.3,144.5,150.4,143.2z"/>
	<path class="st1" d="M139.7,47.6c-1.8-0.4-3.1,0.8-4.3,1.9c-1,0.9-0.9,2.3-0.2,3.5c0.9,1.4,3.2,2.2,4.9,1.8c0.3-0.1,0.7-0.2,1-0.3
		c2.4-0.7,3-1.7,2.8-4.4c-0.1-1.6-1.3-2.4-3.5-2.6C140.2,47.6,140,47.6,139.7,47.6z"/>
	<path d="M148.7,49.2c1.5,0,2.3-0.9,2.3-2.4c0-1.8-1-2.8-2.7-2.7c-1.3,0.1-2.3,1.4-2.3,2.9C146,48.3,147.2,49.3,148.7,49.2z"/>
</g>
</svg>
