<?xml version="1.0" encoding="utf-8"?>
<!-- Generator: Adobe Illustrator 25.0.0, SVG Export Plug-In . SVG Version: 6.00 Build 0)  -->
<svg version="1.1" id="_xEFF5__xEED3__x5F_4" xmlns="http://www.w3.org/2000/svg" xmlns:xlink="http://www.w3.org/1999/xlink"
	 x="0px" y="0px" viewBox="0 0 139.8 271.5" style="enable-background:new 0 0 139.8 271.5;" xml:space="preserve">
<style type="text/css">
	.st0{fill:#FFFFFF;}
	.st1{fill:#FDD23E;}
</style>
<g>
	<path d="M128.3,162c0.7,0.7,0.8,1.5,0.5,2.5c-0.2,0.7,0.1,1.5,0.1,2.3c0.2,2.2,0.8,4.4,0.3,6.7c-0.2,1-0.2,2,0.2,3.1
		c0.4,1,0.5,2.2,0.5,3.3c0.1,1.7-0.3,3.4,0.2,5c0.7,2.3,0.3,4.7,0.8,7c0.3,1.3,0.2,2.7,0.3,4c0,0.5,0.2,0.9,0.3,1.3
		c0.1,1.2,0.4,2.4,0.7,3.6c0.3,1.4,0.4,2.8,0.5,4.2c0.1,1.3,0,2.6,0.2,3.9c0.1,1,0.4,2.1,0.6,3.1c0.2,1,0.5,2,0.6,3
		c0.1,1.1,0.7,2.2,0.2,3.4c0,0,0,0.1,0,0.1c1.4,1.5,0.6,3.5,1.4,5.2c0.5,0.9,0.3,2.2,0.5,3.3c0.2,1.2,0.6,2.4,0.8,3.6
		c0.1,0.5,0,1.1,0,1.6c0,0.3,0,0.6,0.2,0.8c0.6,0.7,0.8,1.3,0.4,2.2c-0.1,0.2,0,0.6,0.1,0.9c0.1,0.5,0.4,1,0.5,1.5
		c0.3,1.3-0.2,2-1.5,2.5c-0.2,0.1-0.4,0.2-0.4,0.2c0.5,0.8,0.9,1.7,1.4,2.4c0.2,0.2,0.4,0.5,0.7,0.6c1.2,0.7,1.6,1.9,1.2,3.2
		c-0.3,0.9-0.4,2-0.7,2.9c-0.1,0.5-0.4,1.1-0.6,1.6c-0.1,0.2-0.2,0.5-0.3,0.7c-0.4,1.4-0.9,2.8-1.6,4c-1.4,2.3-3.3,4.2-5.4,5.9
		c-0.3,0.3-0.8,0.4-1.2,0.6c-0.2,0.1-0.4,0.1-0.5,0.2c-0.8,1.5-2.6,1.6-3.8,2.4c-1.1,0.7-2.7,0.7-4.1,1c-0.3,0.1-0.6,0.3-0.9,0.3
		c-0.5,0.1-1.1,0.3-1.4,0.1c-0.7-0.4-1.3-1-1.7-1.7c-0.4-0.9-0.6-1.9-0.7-2.9c-0.1-1.1,0.4-1.8,1.4-2.2c1.1-0.4,1.8-1.1,1.8-2.4
		c0-1.3,0.4-2.6,0.7-4c0-0.2,0-0.4,0-0.6c-0.1-1.1-0.1-2.2-0.2-3.2c-0.1-0.8-0.1-1.7-0.2-2.5c0-0.6-0.1-1.1-0.1-1.9
		c-0.5,0-0.9-0.1-1.4,0c-0.8,0.1-1.2-0.2-1.4-1c-0.3-1.2-0.7-2.4-1.1-3.5c0-0.2-0.1-0.3-0.3-0.4c-1.1-0.8-1.1-2-1.3-3.1
		c0-0.2-0.1-0.5-0.3-0.6c-0.7-1-1.6-1.8-1.5-3.2c0-0.1,0-0.2,0-0.3c-1.1-1.3-0.7-3.1-1.4-4.6c-0.1-0.2-0.3-0.4-0.4-0.6
		c-0.3-0.5-0.8-0.9-1-1.5c-0.7-2.1-1.4-4.3-2-6.5c-0.3-1.2-0.6-2.4-0.8-3.5c0-0.1-0.1-0.3-0.1-0.4c-0.9-1-1.1-2.2-1.2-3.4
		c-0.1-1.1-0.3-2.1-0.7-3.1c-0.5-1.1-0.5-2.4-0.8-3.7c-0.1-0.3-0.2-0.6-0.3-0.9c-0.1-0.1-0.2-0.3-0.2-0.4c0.2-1.8-1.3-3-1.3-4.7
		c0-1.7-0.8-3.1-1.2-4.7c0-0.1,0-0.1-0.1-0.2c-0.6-0.9,0.5-1.9-0.3-2.9c-0.6-0.7-0.4-2-0.6-3c-0.1-0.5-0.4-1-0.6-1.5
		c-0.5-1-0.7-1.9-0.4-3c0.1-0.2,0.1-0.5,0-0.6c-0.3-0.5-0.6-1-1.1-1.5c0,0.7,0,1.3,0.1,2c0.1,1.8,0.3,3.6,0.5,5.4
		c0.1,1,0.5,2-0.2,2.9c0,0.1,0,0.2,0,0.2c0.8,1.6,0.6,3.4,0.7,5.1c0,1.6,0.3,3.2,0.4,4.8c0,0.7,0,1.4,0,2.1c0,0.7,0.2,1.5,0.2,2.2
		c0.1,1.3,0.1,2.6,0.1,3.9c0,0.4,0,0.8,0.2,1.2c0.5,1.1,0.5,2.1,0.2,3.2c-0.1,0.3,0,0.8,0.1,1.1c0.5,0.9,0.6,1.8,0.4,2.8
		c-0.1,0.2-0.2,0.6-0.1,0.7c0.7,1.3,0.8,2.8,1,4.3c0.1,1.1,0.2,2.1,0.5,3.2c0.4,1.6,0.3,3.3,0.5,4.9c0,0.2,0.1,0.5,0.2,0.7
		c0.1,0.3,0.3,0.6,0.4,0.9c0.2,1.2,0.5,2.4,0.6,3.6c0.1,0.5,0,1.1-0.1,1.6c0,0.2,0,0.4,0,0.6c0.2,0.9,0.3,1.8,0.5,2.7
		c0.1,0.6,0.3,1.2,0.7,1.7c1,1.1,0.7,2.5-0.6,3c-0.7,0.3-1.5,0.4-2.3,0.6c-0.4,1.5,0.7,2.1,1.5,2.9c1.1,1,1.3,2,0.6,3.3
		c-0.3,0.6-0.3,1.2-0.5,1.8c-0.5,1.3-0.8,2.7-1.6,3.7c-1,1.2-1,2.9-2.2,3.9c-0.7,0.5-1.2,1.2-1.9,1.8c-1.2,1-2.3,2.1-3.5,3
		c-0.3,0.3-0.8,0.3-1.3,0.5c-0.2,0.1-0.5,0-0.6,0.2c-0.6,0.9-1.4,1.1-2.4,1.2c-0.1,0-0.3,0.1-0.4,0.2c-1.1,1-2.5,0.8-3.7,1.1
		c-0.9,0.2-1.9,0-2.7,0.5c-0.3,0.2-0.9,0.1-1.2-0.2c-0.6-0.5-1.2-1.1-1.4-1.8c-0.3-0.9-0.4-2-0.4-3c0-1.2,0.6-1.7,1.6-2
		c1.3-0.4,1.7-1,2-2.2c0.3-1.3,0.7-2.6,1-3.9c0-0.1,0.1-0.2,0.1-0.2c0-1.5,0-3,0-4.4c0-0.6,0.1-1.3,0.2-1.9c0-0.4,0.1-0.8,0.1-1.3
		c-0.6,0-1.1,0-1.6,0.1c-0.9,0.1-1.6-0.4-2-1.1c-0.1-0.2-0.2-0.5-0.2-0.6c0.4-0.7-0.1-1.1-0.3-1.7c-0.5-1.2-0.8-2.5-1.2-3.8
		c-0.1-0.2-0.1-0.5-0.2-0.6c-1.3-1.4-1.2-3.3-1.8-5c-0.5-1.2-0.7-2.5-1.1-3.8c-0.1-0.3-0.1-0.6-0.1-0.9c0-0.2,0-0.4-0.1-0.6
		c-1.4-1.8-1.5-3.8-1.8-5.9c-0.1-0.8-0.3-1.7-0.7-2.4c-1-1.8-1.2-3.9-1.7-5.9c-0.4-1.4-0.6-2.8-0.9-4.2c-0.2-0.7-0.7-1.2-0.8-1.9
		c-0.3-1.1-0.4-2.2-0.8-3.3c-0.6-1.7-0.2-3.5-1.3-5.1c-0.3-0.4-0.3-1.1-0.4-1.7c-0.1-0.6-0.3-1.2-0.5-1.8c-0.1-0.7-0.2-1.4-0.3-2.2
		c-0.2-0.7-0.5-1.4-0.7-2.1c-0.2-0.9-0.4-1.9-0.5-2.9c-0.1-0.7-0.2-1.4-0.6-2.1c-0.5-0.9-0.5-2-0.7-3c-0.1-0.4-0.1-0.7-0.2-1.1
		c-0.1-0.4-0.3-0.7-0.3-1.1c0.1-1.5-0.3-2.9-1-4.3c-0.1-0.2-0.2-0.3-0.2-0.5c0.2-1.3-0.8-2.4-0.9-3.6c0-0.3-0.1-0.6-0.1-0.9
		c0.1-0.7,0.2-1.3-0.3-2c-0.2-0.2,0-0.6-0.1-0.9c-0.2-0.7-0.2-1.5-0.6-2.1c-0.4-0.7-0.7-1.3-0.6-2.1c0.2-1.1-0.1-2.1-0.5-3.1
		c-0.5-1.2-0.9-2.4-1.2-3.6c-0.3-1.3-0.5-2.6-0.8-4.1c-0.9,0.7-1.7,1-1.9,2.1c-0.3,1.2-1.1,2.2-1.8,3.2c-0.5,0.6-1.1,1-1.4,1.9
		c-0.2,0.8-1.3,1.1-2.1,0.8c-0.8-0.4-1.2-1.3-0.9-2.2c0.5-1.4,0.9-2.8,0.3-4.3c-0.2-0.7,0.1-1.7,0.1-2.5c0-0.4-0.1-0.7-0.2-1.1
		c-0.1-0.3-0.2-0.6-0.2-0.8c-0.1-2.8-0.1-5.7-0.1-8.5c0-2.1-0.1-4.2-0.1-6.4c0-0.8,0.3-1.7,0.5-2.5c0-0.2,0.1-0.4,0-0.6
		c-0.6-1.4-0.5-2.7-0.4-4.2c0.1-0.8-0.1-1.6,0-2.4c0-0.8,0.2-1.6,0.2-2.4c0-0.2,0-0.3,0-0.5c0-1.4,0-2.8,0-4.2c0-0.3,0.1-0.6,0-0.8
		c-0.4-1.2-0.2-2.4,0.1-3.6c0.1-0.5-0.1-1.1-0.1-1.7c0-1.5-0.1-3,0-4.5c0-0.8,0.3-1.6,0.5-2.4c0-0.1,0-0.3-0.1-0.4
		c-0.9-0.9-0.6-1.8-0.2-2.8c0.1-0.2,0-0.4,0.1-0.6c-0.2,0-0.5,0-0.7,0.1c-1,0.7-1.8,1.4-2.8,2.1c-0.8,0.5-1.7,0.9-2.6,1.3
		c-1.7,0.7-3.4,1.5-5.2,2.1c-1.2,0.4-2.6,0.5-3.9,0.8c-1,0.2-2,0.5-3,0.5c-1.6,0.1-3.3,0.1-4.7-1c-0.3-0.2-0.7-0.3-1.1-0.5
		c-1.3-0.6-2.4-1.5-3.2-2.7c-0.6-1-1.4-1.8-1.9-2.9c-0.8-1.8-2.3-3.3-2.4-5.4c0-0.1-0.1-0.3-0.2-0.4c-1.7-1.8-2-4.2-2.5-6.5
		c-0.2-0.8-0.6-1.6-0.8-2.5c-0.3-1.3-0.5-2.6-0.8-3.9c-0.1-0.3-0.2-0.6-0.5-0.9c-1-1.1-0.9-2.2,0.4-3c1.2-0.7,2.4-1.4,3.7-2.2
		c-0.3-0.1-0.5-0.2-0.8-0.2c-2,0.2-3.6-0.7-4.8-2.2c-0.4-0.5-0.6-1.4-0.5-2c0-0.7-0.2-1.2-0.6-1.6c-0.7-0.7-0.9-1.5-0.6-2.5
		c0.1-0.4-0.1-1-0.4-1.3c-1.1-1.3-1.2-1.9-0.2-3c-0.9-1.4-1.9-2.6-2.6-4c-0.9-1.6,0.9-4.2,2.8-4.1c0.5,0,1,0,1.4-0.4
		c0.2-0.2,0.7-0.3,1.1-0.3c0.6,0,1.1,0.1,1.7,0.1c-0.1-1.9-0.3-2-1.9-2.5c-1.1-0.4-2.3-0.7-3.4-1.5C8.4,55.6,7,54.4,5.7,53
		C5,52.2,4.6,51,4.1,50c-0.1-0.3-0.3-0.6-0.4-0.8c-0.6-0.7-1-1.5-1-2.5c0-0.4-0.2-0.8-0.3-1.1c-0.2-0.6-0.5-1.2-0.6-1.9
		c-0.1-0.7,0-1.5-0.8-2.1c-0.2-0.1-0.2-0.4-0.3-0.6c-0.2-1.3-0.4-2.6-0.5-3.9c-0.1-0.8-0.2-1.6-0.2-2.5c0-1.3,0.3-2.7,0-3.9
		c-0.4-1.7,0.4-3.3,0.4-4.9c0-0.3,0.1-0.7,0.2-0.9c0.7-1.1,0.7-2.3,0.8-3.5c0-0.5,0.3-1.1,0.7-1.4c0.4-0.5,0.7-0.9,0.5-1.5
		c-0.1-0.2,0-0.5,0.1-0.7c0.9-1.4,1.2-3.1,2.5-4.2c0.2-0.2,0.4-0.5,0.5-0.7c0.3-0.3,0.5-0.8,0.8-0.9c1.1-0.4,1.8-1.1,2.5-1.9
		c0.6-0.6,1.3-1.1,2.3-1c0.1,0,0.3-0.2,0.4-0.2c0.5-0.3,0.9-0.6,1.4-0.7C14.2,7.7,15,7.4,15.8,7c1-0.5,2.1-0.2,3.1,0.3
		c0.4,0.2,0.8,0.4,1.2,0.5c1.3,0.3,2.5,0.8,3.5,1.8c0.5,0.6,1.4,0.8,2,1.2c0.4,0.3,0.7,0.9,1.1,1.3c0.4,0.5,0.7,0.9,1.1,1.4
		c0.4,0.5,0.8,1.1,1.2,1.6c0.3,0.4,0.7,0.8,1,1.3c0.9,1,0.9,2.3,1.1,3.6c0,0.2,0,0.4,0.1,0.5c1.9,2.1,1.7,4.9,2.4,7.5
		c0.2,0.8,0.3,1.6,0.4,2.5c0.1,0.3,0.2,0.7,0.1,0.9c-1,1.6,0.3,3.1-0.1,4.7c-0.1,0.6,0.3,1.2,0.3,1.8c0,1.3-0.3,2.6-0.4,3.9
		c-0.1,1.2-0.1,2.3-0.2,3.5c-0.1,1.3-0.4,2.5-1.5,3.5c-0.4,0.4-0.5,1-0.7,1.5c-0.3,1.1-0.5,2-1.2,3c-0.9,1.2-1.8,2-3.1,2.6
		c-0.7,0.3-1,1.2-1.7,2c0.5,0,0.9,0,1.3,0c1-0.1,1.8,0.3,2.2,1.5c0.4,1.3,0.9,2.5,1.6,3.7c1.1,2,2.3,3.9,3.4,5.8c0.5,1,1,2,1.4,3
		c0,0.1,0.1,0.2,0.1,0.3c-0.2,1.4-0.3,2.8-0.6,4.2c-0.1,0.6-0.4,1,0.1,1.5c0.2,0.2,0.4,0.7,0.3,0.9c-0.6,1.3,0.5,2.1,0.8,3.1
		c0.5,1.4,1.3,2.7,1.9,4.1c0.3,0.6,0.6,0.7,1.2,0.8c2,0.2,3.6-0.8,5.5-1.1c0.4-0.1,0.8-0.5,1.2-0.9c0.4-0.3,0.7-0.9,1.1-1
		c1.5-0.4,2.7-1.5,4-2.3c0.8-0.5,1.6-0.9,2.3-1.4c0.9-0.6,1.7-1.3,2.5-2c0.1-0.1,0.1-0.1,0.2-0.2c1.4-1,2.9-2.1,4.3-3.1
		c0.5-0.3,0.9-0.7,1.4-1c0.1-0.1,0.1-0.2,0.2-0.2c1.4-0.3,2-1.5,2.9-2.4c0.4-0.4,1-0.5,1.5-0.8c0.5-0.3,1-0.7,1.3-1.1
		c0.5-0.7,1-1.2,1.8-1.5c0.2-0.1,0.5-0.2,0.6-0.4c0.6-0.7,1.2-1.4,1.9-2.1c-1.1-1.2-1.2-2.8-0.5-4.5c0.1-0.2-0.1-0.7-0.2-0.8
		c-0.4-0.2-0.9-0.3-1.2-0.2c-1.2,0.5-2.4,0.6-3.7,0.1c-0.2-0.1-0.6,0.1-0.8,0.2c-0.7,0.6-1.5,0.7-2.4,0.4c-0.6-0.2-1.4,0-2.1-0.1
		c-0.6,0-1.2,0-1.7,0c-1.8-0.2-3.6-0.2-5.2-1.2c0,0-0.1-0.1-0.2-0.1c-1.4,0.4-2.5-0.3-3.6-0.9c-1.2-0.6-2.6-1.1-3.6-1.9
		c-0.9-0.8-1.5-2-1.6-3.3c0-0.6-0.2-1.1-0.3-1.7c-0.1-0.7-0.1-1.4-0.2-2.1c-0.1-0.9,0.5-1.2,1.2-1.6c1.1-0.5,2.4-0.8,3.2-1.6
		c0.9-0.9,1.4-2.2,2.1-3.3c-0.1-0.1-0.2-0.2-0.2-0.2c-0.7,0.1-1.5,0.3-2.2,0.3c-1.2,0.2-2.5,0.3-3.7,0.5c-0.8,0.1-1.8-0.4-2.1-1.2
		c-0.6-1.5-1.8-2.3-3.1-2.9c-3.2-1.3-3.2-4.3-1.7-6.3c1.1-1.4,2.5-2.2,3.9-3.2c0.2-0.2,0.4-0.6,0.5-0.9c0.1-0.5,0.2-1.1,0.2-1.6
		c0.1-1.4,0-2.7,0.2-4.1c0.2-1.2,0.4-2.4,1-3.4c0.7-1.3,1-2.8,2.3-3.8c0.9-0.7,1.6-1.8,2.3-2.7c0.2-0.2,0.2-0.5,0.3-0.7
		c0.3-1.1,0.9-1.8,1.9-2.3C52,10,52,9.8,51.3,8.7c0,0-0.1-0.1-0.1-0.1c0.1-1.4-1.5-2.5-0.8-4.1C50.6,4,50.8,3.5,51,3
		c0.1-0.2,0.5-0.5,0.7-0.5c1.3,0.1,2.6,0.3,3.9,0.4c0.6,0.1,1.2,0.1,1.8,0.1c0.3,0,0.6-0.1,0.9,0c0.8,0.3,1.5,0,2.3-0.2
		c2.3-0.6,4.6-1.2,6.9-1.7C68.2,1,69,1.3,69.9,1.4c0.3,0,0.6,0,1-0.1c0.6-0.1,1.3-0.1,1.9-0.2c0.3,0,0.5-0.1,0.8-0.2
		c0.8-0.2,1.5-0.5,2.3-0.6c1.8-0.1,3.7-0.4,5.4-0.1c1.9,0.3,3.8-0.6,5.7-0.1c0.1,0,0.2,0,0.3,0c1.1,0.5,2.2,0.7,3.5,0.7
		c0.5,0,1,0.4,1.4,0.8c0.4,0.4,0.8,0.7,1.3,0.8c1.2,0.3,2.1,0.9,2.7,2.1c0.5,0.9,0.9,1.9,2.1,2.3c0.8,0.3,1.1,1.1,1,1.9
		c-0.1,0.9,0.2,1.5,0.6,2.2c0.4,0.8,0.7,1.6,0.5,2.5c-0.1,0.3,0.1,0.7,0.1,1c0,1.2,0,2.5-0.2,3.7c-0.1,0.9,0,1.7,0.7,2.3
		c0.2,0.1,0.3,0.4,0.4,0.6c0.2,0.4,0.4,0.5,0.9,0.4c1-0.2,1.9,0.1,2.4,1.1c0.1,0.2,0.2,0.4,0.4,0.5c2.1,1.2,3.2,3.2,3.7,5.4
		c0.4,2.3,1.1,4.6,0.4,6.9c-0.6,1.9-1,3.9-1.8,5.8c-0.4,1-1.3,1.8-1.9,2.7c-0.4,0.6-0.8,1.3-1.2,2c-0.1,0.2-0.2,0.4-0.4,0.5
		c-1,0.4-1.3,1.5-2,2.1c-0.1,0.1-0.2,0.2-0.3,0.3c-0.3,1.3-1.1,2-2.5,1.9c0.1,1.3-0.6,2.1-1.7,2.5c-0.6,0.2-1.4,0.7-1.1,1.8
		c0.2,0.7-0.3,1.3-1,1.5c-0.3,0.1-0.7,0.1-0.9,0.1c-0.1,0.9-0.2,1.7-0.2,2.5c0,0.8,1,1.4,1.7,1.1c0.3-0.1,0.6-0.2,0.9-0.2
		c1.2-0.2,2.5-0.4,3.7-0.6c0.9-0.2,1.8-0.2,2.7-0.5c1.3-0.5,2.7-0.4,4.1-0.9c1.6-0.7,3.9-0.3,4.2,2.1c0,0.2,0.1,0.4,0.2,0.6
		c1.1,1.9,2.1,3.7,2.4,5.9c0,0.4,0.4,0.7,0.5,1.1c1,2.4,1.8,4.9,2.1,7.5c0.2,1.6-0.2,3.2,0,4.7c0.1,1,0.1,1.9-0.1,2.9
		c-0.1,0.5-0.4,1.1-0.7,1.4c-1.4,1.2-1.5,1.9-0.7,3.6c0.8,1.8,1.3,3.7,2.2,5.4c0.7,1.4,0.8,2.9,1.4,4.3c0.3,0.9,1.1,1.6,1.5,2.5
		c0.5,1.3,1.4,2.5,1.3,4c0,0.1,0.1,0.3,0.1,0.4c0.3,0.8,0.7,1.6,1,2.4c0.3,0.7,0.7,1.4,0.9,2.1c0.3,1.1,0.6,2.3,0.9,3.5
		c0.1,0.2,0,0.5,0.2,0.7c1,1.1,1.1,2.6,1.6,3.9c0.3,1,0.6,1.9,0.9,2.8c0.1,0.4,0.6,0.6,0.7,0.9c0.4,1.1,0.9,2.3,1.1,3.5
		c0.2,1.2,0.8,2.1,1.3,3.1c0.6,1.4,1.6,2.6,1.5,4.3c0,0.1,0,0.2,0.1,0.2c0.9,1,0.9,2.3,1.4,3.5c0.2,0.6,0.7,1.1,1.1,1.6
		c0.7,0.9,1.1,1.9,1,3.1c0,0.3,0.1,0.6,0.3,0.8c1,1,1.5,2.4,1.9,3.7c0.4,1.5,0.8,3.1,1.2,4.6c0.3,1.1-0.2,2.1-1.4,2.4
		c-0.3,0.1-0.6,0.4-0.9,0.5c-0.7,0.4-1.5,0.8-2.3,1.1c-1.1,0.5-2.5,0.5-3.4,1.5c-0.1,0.1-0.3,0.1-0.5,0.2c-0.4,0.1-0.9,0.2-1.2,0.4
		c-0.6,0.7-0.9,1.5-0.6,2.5C129.1,159.1,128.9,160.9,128.3,162z M135.4,149.2c0.1-0.1,0.1-0.2,0.2-0.2c-0.4-1.1-0.8-2.2-1.2-3.4
		c-0.5-1.3-1.2-2.5-1.1-3.9c0-0.2-0.2-0.6-0.4-0.7c-0.9-0.7-1.3-1.7-1.5-2.8c-0.3-1.3-0.6-2.5-1.5-3.5c-0.3-0.3-0.3-0.8-0.5-1.2
		c-0.2-0.4-0.4-0.8-0.6-1.2c-0.2-0.3-0.5-0.6-0.6-1c-0.5-1.5-0.9-3-1.3-4.5c-0.1-0.3-0.2-0.7-0.3-1c-0.5-0.9-1.3-1.7-1.3-2.8
		c0-0.8-0.2-1.6-0.5-2.4c-0.3-1-0.8-2-1.2-3c-0.5-1.2-1.3-2.3-1.2-3.8c0-0.2-0.2-0.4-0.3-0.6c-0.5-1.1-1.1-2.2-1.6-3.3
		c-0.3-0.7-0.5-1.4-0.7-2.1c-0.3-0.8-0.5-1.6-0.8-2.4c0-0.1-0.1-0.3-0.2-0.4c-1-1.1-1.2-2.6-1.7-3.9c-0.3-0.9-0.3-1.9-0.6-2.8
		c-0.6-1.4-1.4-2.8-2.1-4.2c-0.4-0.8-0.8-1.7-1.1-2.5c-0.4-0.9-0.8-1.8-1.2-2.8c-0.9,0.8-1.8,1.2-2.8,0.8c-0.1,0-0.2,0-0.3,0.1
		c-1,0.5-2,1.2-3.1,1.6c-0.9,0.3-2,0.3-2.9,0.7c-1.1,0.5-2.1,0.4-3.1,0.3c-1.1-0.1-2.3-0.2-3.4-0.5c-0.4-0.1-0.8-0.4-1.2-0.7
		c-0.2-0.1-0.4-0.3-0.6-0.4c-1.3-0.4-3,0.3-3.8-1.4c0,0-0.1,0-0.1,0c-0.8-0.2-1.6-0.4-2.3-0.7c-1.5-0.6-3.1-0.7-4.4-1.7
		c-0.8-0.7-2.1-1-2.4-2.2c-0.2-0.8-0.7-1-1.3-1.1c-1.4-0.1-2.3-0.8-3.1-1.8c-0.2-0.3-0.5-0.5-0.7-0.8c-0.8-1.1-1.6-2.2-2.3-3.4
		c-0.4-0.7-0.2-1.4,0.4-1.8c0.6-0.4,1.3-0.3,1.8,0.2c0.5,0.4,0.9,1,1.3,1.4c0.9,0.9,1.9,1.6,2.8,2.5c0.5,0.5,0.8,1.2,1.1,1.8
		c0.3,0.5,0.5,1,1.3,0.9c0.5-0.1,1,0.1,1.4,0.3c0.7,0.4,1.3,1.1,2,1.4c1.8,0.7,3.7,1.3,5.2,2.5c0.1,0.1,0.3,0.1,0.5,0
		c0.9-0.2,1.5,0.2,2.1,0.8c0.6,0.6,1.1,1.1,2.1,0.8c0.3-0.1,0.7,0,0.9,0.1c1.9,0.9,3.9,0,5.8,0.2c0.7,0.1,1.5-0.1,2.3-0.4
		c1.1-0.3,2.5,0,3.1-1.5c0-0.1,0.2-0.2,0.3-0.2c1.5-0.8,2.8-1.9,3.6-3.4c0.2,0.1,0.4,0.1,0.4,0.1c0.4-1.2,0.8-2.3,1.2-3.4
		c0.1-0.2,0.1-0.3,0-0.5c-0.1-1.3-0.3-2.5-0.7-3.7c-0.8-2.5-1.2-5.2-1.8-7.7c0-0.2-0.1-0.4-0.2-0.6c-1.2-1.7-1.6-3.7-2.2-5.6
		c-0.1-0.4-0.3-0.5-0.7-0.6c-1.4-0.4-2.6,0.6-3.9,0.7c-1.3,0.1-2.6,0.6-3.9,0.9c-1.2,0.3-2.3,0.7-3.5,0.9c-1.4,0.1-2.8,0.3-4.2,0.7
		c-2.2,0.6-4.5,1.5-6.9,0.9c0,0-0.1,0-0.2,0C85,65.7,84,66,83.2,66.6c-0.9,0.6-1.7,0.7-2.7,0.6c-0.4,0-0.8,0.1-1.2,0.3
		c-0.6,0.3-1.2,0.7-1.9,0.8c-1.2,0.3-2.5,0.3-3.7,0.6c-0.9,0.3-1.8,0.6-2.4,1.6c-0.3,0.6-0.9,1.1-1.5,1.3c-0.7,0.3-1.2,0.7-1.6,1.4
		c-0.5,0.9-1.3,1.5-2.3,1.8c-0.4,0.1-0.7,0.5-1.1,0.8c-0.2,0.2-0.3,0.5-0.5,0.6c-1.2,1-2.3,2.1-3.6,2.8c-1,0.6-1.9,1.2-2.8,1.8
		c-1.2,0.9-2.4,1.7-3.6,2.5c-0.3,0.2-0.6,0.4-0.9,0.6c-1.6,0.9-3.3,1.6-4.6,3c-0.3,0.3-0.8,0.3-1.3,0.5c-0.6,0.2-1.3,0.4-1.7,0.8
		c-1.9,1.8-4.1,2.4-6.7,2.1c-0.4-0.1-0.8-0.4-1.1-0.7c-0.6-0.5-1.1-1.3-1.8-1.7c-1.7-1.1-2.7-2.6-3.1-4.5c-0.2-0.9-0.6-1.7-0.8-2.5
		c-1,0.4-2,0.8-3,1.1c-1.5,0.5-3,0.8-4.4,1.5c-1.5,0.7-3.1,0.7-4.4,1.8c-0.8,0.7-1.9,1.1-2.9,1.7c-0.1,0.1-0.2,0.5-0.2,0.6
		c0.5,1.3,1,2.7,1.4,4c0.2,0.7,0.3,1.4,0.6,2.1c0.9,2,2.1,3.9,2.2,6.1c0,0.1,0.1,0.3,0.2,0.4c0.9,1.5,2,3,2.8,4.6
		c0.8,1.8,2.3,3,3.5,4.4c0.3,0.3,0.8,0.5,1.3,0.6c1,0.2,2,0.3,3,0.4c1.2,0.1,2.3,0.4,3.4-0.4c0.2-0.1,0.5-0.2,0.7-0.2
		c2.2-0.8,4.4-1.7,6.6-2.6c0.9-0.4,1.7-0.9,2.6-1.2c0.7-0.3,1.5-0.3,2.1-0.6c1-0.6,2-1.3,2.8-2.1c0.7-0.7,1.5-1.2,2.5-1.5
		c1.1-0.3,2.1,0.2,2.4,1.3c0.3,1-0.2,1.9-1.3,2.3c-1,0.3-1.4,1.4-1,2.4c0.4,0.9,0.6,1.8-0.1,2.6c-0.1,0.2-0.1,0.5,0,0.8
		c0.1,0.3,0.3,0.5,0.3,0.8c0.2,1.1,0.2,2.2,0.4,3.3c0.3,1.8-0.6,3.6,0,5.4c0.3,0.8-0.3,1.9-0.1,2.8c0.5,2.1-0.2,4.3,0.2,6.4
		c0.3,1.6,0,3.3-0.1,4.9c0,1.7-0.8,3.3-0.1,5c0.1,0.3,0,0.6,0,0.9c0,2.1-0.1,4.1-0.1,6.2c0,2.8,0.2,5.6,0.3,8.4c0,0.2,0,0.4,0,0.6
		c0,0.8-0.1,1.5,0,2.3c0,0.1,0.2,0.4,0.3,0.4c0.1,0,0.4-0.1,0.5-0.3c0.1-0.2,0.1-0.5,0.2-0.7c0.3-0.7,0.6-1.3,1-1.9
		c0.7-1,1.9-1.5,2.1-2.8c0.1-0.6,0.9-0.7,1.3-0.2c0.2,0.2,0.3,0.4,0.5,0.7c1-0.5,1.5-0.6,2.1-0.1c1,0.9,2,1.7,2.8,2.7
		c0.7,0.8,1.4,1.4,2.2,2.1c0.9,0.7,1.7,1.4,2.7,2c1.2,0.7,2.1,1.8,3.4,2.2c1,0.3,1.9,0.8,2.8,1.2c0.4,0.2,0.8,0.3,1.2,0.4
		c1.7,0.3,3.4,0.5,5.2,0.8c0.2,0,0.3,0.1,0.5,0.2c1,0.7,2,0.6,3.1,0.2c0.5-0.2,1.2,0,1.8,0.1c0.2,0,0.5,0.2,0.7,0.2
		c1.3-0.3,2.6-0.5,3.9-0.9c1-0.3,1.9-0.6,2.9,0c0.1,0.1,0.4,0,0.6-0.1c0.7-0.3,1.5-0.7,2.2-0.9c1.4-0.5,2.8-0.9,4.2-1.2
		c0.3-0.1,0.6,0.1,0.9,0.1c0.4,0,0.7,0,1.1-0.2c0.9-0.4,1.8-0.8,2.7-1.2c1-0.4,2.1-0.7,3.2-1.1c0.1,0,0.1-0.1,0.2-0.2
		c0.9-0.4,1.8-0.9,2.7-1.3c1.2-0.6,2.7-0.4,3.8-1.5c0,0,0.1-0.1,0.2-0.1c1.7-0.6,3.4-1.1,5-1.7c1.3-0.5,2.6-1,3.7-1.7
		c0.8-0.6,1.5-0.8,2.4-0.4c0.4,0.2,0.7,0.2,1-0.2c0.2-0.3,0.7-0.4,1.1-0.7c0.3-0.2,0.7-0.4,0.9-0.7
		C132.1,150,133.2,148.5,135.4,149.2z M62.6,158.5c-0.1,0.1-0.2,0.2-0.3,0.2c0.1,0.7,0.1,1.5,0.4,2.2c0.7,1.5,0.7,3.1,0.9,4.6
		c0.1,1.1,0.4,2.1,0.9,3.1c0.3,0.6,0.2,1.3,0.4,2c0.1,0.7,0.3,1.5,0.5,2.2c0.1,0.3,0.4,0.6,0.3,0.9c-0.1,0.8,0.2,1.3,0.6,1.9
		c0.2,0.3,0.2,0.6,0.3,0.9c0.4,1.2,0,2.5,0.7,3.6c0.1,0.1,0,0.3,0,0.5c0,1.5,0.3,2.9,1,4.3c0.2,0.3,0.1,0.7,0.2,1.1
		c0.1,0.4,0.2,0.8,0.3,1.2c0.2,1,0.7,2,0.6,3c0,0.8,0.2,1.4,0.4,2c0.3,0.9,0.6,1.9,0.9,2.9c0.2,0.9,0,2,0.8,2.7
		c0.2,0.2,0.2,0.6,0.3,1c0.2,0.8,0.4,1.7,0.6,2.5c0.1,0.5,0.4,1,0.4,1.4c-0.3,1.9,1,3.3,1.2,5c0.2,1.3,0.7,2.5,1,3.7
		c0.1,0.6,0,1.2,0.1,1.8c0.4,1.4,0.9,2.8,1.3,4.2c0.5,1.7,0.9,3.4,1.3,5.1c0.3,1.2,0.6,2.3,1,3.5c0.4,1.5,1.2,3,1.2,4.6
		c0.1,1.2,0.7,2.1,0.9,3.2c0.2,1.3,0.8,2.4,1.1,3.7c0.4,1.5,1.3,2.9,1.1,4.6c0,0,0.1,0.1,0.1,0.2c0.4,1.4,0.8,2.8,1.2,4.2
		c0.1,0.5,0.3,0.7,0.8,0.7c0.7-0.1,1.5-0.2,2.2-0.3c0.5-0.1,1-0.1,1.5-0.2c0.7-0.1,1.3-0.2,2-0.3c0.2,0,0.5,0,0.7,0
		c1.6-0.5,3.3-1,4.9-1.4c1.6-0.4,3.3-0.6,4.9-0.9c0.9-0.2,1.3-0.8,0.8-1.4c-1-1.4-0.4-3.3-1.4-4.7c0-0.1,0-0.2,0-0.3
		c0-1.8-0.7-3.4-0.7-5.3c0-2.2-1.3-4.3-0.9-6.6c0-0.1,0-0.2-0.1-0.3c-0.7-1.1-0.8-2.3-0.7-3.6c0.1-0.8,0-1.6,0-2.4
		c0-0.2-0.2-0.4-0.2-0.5c-0.1-0.3-0.3-0.5-0.4-0.8c-0.2-0.9,0-1.8,0.1-2.7c0.1-0.9-0.8-1.8-0.8-2.6c0.1-1.2,0-2.3-0.2-3.4
		c-0.2-1.2-0.4-2.4-0.3-3.7c0.1-1.3-0.3-2.7-0.5-4.1c-0.1-0.6,0.1-1.3,0-2c-0.1-1.8-0.3-3.6-0.4-5.5c0-1.1,0.2-2.1-0.2-3.2
		c-0.4-1.1-0.2-2.5-0.3-3.8c-0.1-1.8,0.5-3.6-0.2-5.4c-0.1-0.2,0-0.5,0-0.8c0.2-1.3,0.9-2.5-0.1-3.8c0-0.1-0.1-0.2-0.1-0.3
		c0.1-1.8-0.8-3.6,0-5.4c0-0.1,0-0.2,0-0.3c-0.4-1.2,0-2.3,0.5-3.4c0.1-0.2,0-0.5,0-0.8c-0.5,0.2-0.9,0.4-1.3,0.4
		c-1.9,0.1-3.7,0-5.6,0.1c-0.2,0-0.4,0.1-0.5,0.2c-0.8,0.6-1.5,0.4-2.4,0.2c-0.9-0.2-2-0.1-3-0.2c-0.6,0-1.3-0.1-1.9-0.1
		c-0.3,0-0.6-0.2-0.9-0.2c-0.6-0.1-1.2,0-1.7-0.1c-0.9-0.3-1.8-0.8-2.7-1.2c-1.1-0.6-2.6-0.2-3.4-1.5c-0.1-0.1-0.3-0.1-0.4-0.1
		c-0.9,0-1.7-0.4-2.3-1.1c-0.2-0.2-0.6-0.3-0.9-0.5c-1.2-0.8-2.5-1.7-3.7-2.6c-0.2-0.1-0.2-0.4-0.3-0.5
		C63.8,159.6,63.2,159.1,62.6,158.5z M125,157.7c-0.2,0-0.5,0-0.8,0.1c-1.2,0.5-2.4,1-3.6,1.6c-0.2,0.1-0.4,0.2-0.5,0.3
		c-1.1,0.2-2,1.2-3.2,0.9c-0.1,0-0.2,0.1-0.2,0.1c-1.3,0.6-2.5,1.1-3.8,1.6c-0.6,0.2-1.2,0.2-1.8,0.4c-1.1,0.4-2.1,0.8-3.2,1.2
		c-0.6,0.2-1.2,0.3-1.8,0.5c-0.9,0.2-1.9,0-2.6,1c-0.2,0.3-0.7,0.4-1.1,0.6c-0.8,0.2-1.5,0.4-2.3,0.6c-1,0.3-1.1,0.7-0.7,1.7
		c0.4,0.8,0.9,1.7,1,2.6c0.1,1.1,0,2.2,0.6,3.2c0.1,0.1,0,0.2,0,0.3c0.2,1.1,0.4,2.3,0.7,3.4c0.4,1.6,1.1,3.2,0.6,5
		c0,0.2,0,0.4,0.2,0.5c0.9,0.9,1,1.9,0.9,3.1c0,0.5,0,1,0.1,1.5c0.2,1,0.9,2,0.7,2.9c-0.3,1.3,1.2,1.7,1,2.8c0,0.1,0,0.1,0,0.2
		c0.4,1.5,0.3,3.1,1.1,4.5c0.8,1.5,0.1,3.3,1.1,4.8c0.1,0.1,0,0.3,0,0.4c0.1,0.4,0.1,0.7,0.2,1.1c0.4,1.2,0.9,2.4,1.1,3.6
		c0.1,1,0.4,1.8,0.8,2.7c0.5,1.1,0.5,2.3,0.7,3.5c0,0.1,0,0.3,0.1,0.4c0.4,1.1,0.9,2.3,1.3,3.4c0.7,2.1,1.2,4.3,2.1,6.3
		c0.2,0.5,0.1,1.2,0.1,1.9c0,0.2-0.1,0.5,0,0.7c0.4,1.5,1.7,2.7,1.8,4.4c0,0.1,0.2,0.2,0.2,0.3c0.3,0.6,0.6,1.2,0.8,1.8
		c0.2,0.6,0,1.5,0.4,2c0.8,1.1,1.5,2.1,1.4,3.5c0,0.5,0.2,0.9,0.4,1.4c0.4,0.8,1.1,1.1,2,0.9c0.9-0.2,1.8-0.7,2.6-0.6
		c1.1,0.1,1.9-0.4,2.7-0.7c1.5-0.6,3-1.1,4.6-1.6c1.1-0.3,2.1-1.1,3.4-0.9c0.3,0,0.8-0.2,0.9-0.5c0.3-0.4,0.4-0.9-0.2-1.4
		c-0.2-0.2-0.5-0.7-0.4-0.9c0.4-1.2-0.1-2.2-0.6-3.2c0-0.1,0-0.2,0-0.3c-0.1-1-0.2-2-0.4-3c-0.3-1.2-0.8-2.4-1.2-3.6
		c-0.4-1.4-0.8-2.7-0.8-4.1c0-1.1-0.2-2.1-0.6-3.1c-0.3-0.8-0.4-1.6-0.5-2.5c-0.1-0.8-0.1-1.7-0.2-2.5c-0.1-1-0.1-2.1-0.3-3.1
		c-0.2-1.3-0.7-2.5-0.9-3.7c-0.3-1.5-0.5-3.1-0.6-4.6c0-1.1,0.2-2.1-0.1-3.2c-0.1-0.5,0.1-1.1,0-1.6c-0.2-1.6-0.4-3.2-0.6-4.7
		c-0.1-0.8-0.2-1.7-0.3-2.5c-0.1-0.7-0.4-1.4-0.4-2.1c0-0.6,0.3-1.2,0.2-1.8c-0.2-1.6-0.4-3.2-0.7-4.8c-0.2-1.4-0.3-2.7,0.2-4.1
		c0.1-0.2,0-0.6,0-0.8c-0.2-1-0.7-2-0.7-3c-0.1-1.9,0-3.9,0-5.9c0-0.2-0.1-0.4-0.1-0.6c0.1-1.3-1.2-2.7,0.2-3.9
		C124.7,160.7,125.6,159.1,125,157.7z M67.8,15c-1.3,0.1-2.4,0.3-3.5,0.2c-2-0.2-4-0.3-5.9-0.9c-1.3-0.4-2.6-0.9-3.8-1.6
		c-0.8-0.4-1.5-0.4-2,0.3c-0.2,0.3-0.4,0.6-0.7,0.9c-0.2,0.3-0.5,0.6-0.8,0.7c-0.8,0.2-1.2,0.8-1.5,1.4c-0.5,0.9-0.9,1.9-1.4,2.8
		c-0.1,0.2-0.1,0.3-0.2,0.5c-0.8,1.3-1.1,2.9-1.4,4.4c-0.2,0.9,0,1.9-0.7,2.6c-0.2,0.2-0.2,0.5-0.2,0.7c0,1.1-0.1,2.2,0,3.3
		c0,0.8-0.2,1.3-0.9,1.8C43.6,33,42.5,34,41.4,35c-0.5,0.5-0.4,1.6,0.1,1.9c0.8,0.6,1.7,1.1,2.5,1.6c0.4,0.3,0.8,0.6,1.1,1
		c0.4,0.5,0.9,0.7,1.6,0.6c1.9-0.3,3.8-0.6,5.8-0.9c1.5-0.2,2.6,1,2.2,2.4c-0.3,1.2-0.6,2.3-1,3.5c-0.8,2.3-2.4,4-4.6,5.2
		c-0.3,0.2-0.8,0.5-0.9,0.9c-0.3,1,1.3,3.5,2.2,3.9c1.4,0.6,3.1,0.5,4.4,1.7c0.1,0.1,0.2,0,0.3,0c2,0.2,4,0.4,6.1,0.6
		c0.9,0.1,1.7,0.4,2.6-0.1c0.4-0.2,1.2,0,1.6,0.3c0.6,0.4,0.9,0.3,1.4-0.1c0.7-0.5,1.4-0.7,2.3-0.7c0.9,0,1.7-0.1,2.6-0.2
		c1-0.1,2.1,0.5,2.2,1.3c0.2,0.7,0.2,1.5,0.2,2.2c0,0.3,0.1,0.5,0.2,0.8c0.2,0.6,0.5,1.1,0.5,1.7c0,0.9-0.2,1.8-0.3,2.7
		c0.1,0,0.3-0.1,0.5-0.1c1.2-0.2,2.3-0.4,3.5-0.6c0.5-0.1,1-0.2,1.4-0.3c0.6-0.2,1.2-0.7,1.9-0.8c1-0.2,2.1-0.1,3.2-0.2
		c0.4,0,0.7-0.3,1.1-0.5c0.4-0.2,0.8-0.5,1.2-0.6c1.2-0.3,2.4-0.6,3.7-0.9c1.1-0.3,1.4-1,0.9-2c-0.3-0.8-0.4-1.6-0.5-2.4
		c-0.1-0.6-0.1-1.1-0.1-1.7c0-0.1-0.1-0.3-0.2-0.4c-0.9-0.6-1.7-1.2-2.6-1.7c-1.1-0.6-2.3-1.1-3.4-1.9c-0.9-0.6-1.8-1.2-2.3-2.3
		c-0.3-0.6-0.7-1.2-1.2-1.7c-0.7-0.7-0.8-1.3-0.3-2.2c0.9-1.8,1.8-3.5,2.6-5.4c0.3-0.7,0.6-1.6,0.5-2.4c-0.2-0.9-0.7-1.7-1.3-2.4
		c-0.2-0.3-1-0.1-1.5-0.1c-0.1,0-0.2,0-0.3,0c-0.9-0.4-1.6-0.2-2.3,0.4c-0.2,0.2-0.6,0.3-0.8,0.4c-0.5,0.3-0.9,0.6-1.3,0.8
		c-0.4,0.2-0.9,0.4-1.2,0.2c-0.3-0.1-0.8-0.8-0.7-1c0.4-1.2,0-1.8-1.1-2.3c-0.1,0-0.2-0.2-0.2-0.3c-0.5-0.6-1-1.3-1.5-1.9
		c-0.6-0.7-1-1.4-1-2.3c0-0.2-0.2-0.5-0.4-0.7c-0.7-1-1.6-1.9-1.8-3.2c-0.4-2-0.9-4-1.3-6.1c0-0.2-0.1-0.5,0-0.7
		C67.4,17,67.6,16.1,67.8,15z M101,23c-1.2,0.4-2.2,0.2-3-0.8c-0.1-0.1-0.3-0.1-0.4-0.1c-1-0.3-1.2-0.8-0.9-1.8
		c0.2-0.8,0.4-1.6,0.4-2.3c0-2.1-0.1-4.3-0.3-6.4c0-0.4-0.3-0.8-0.5-1.2c-0.3-0.6-0.9-1.1-0.9-1.7c0-1-0.7-1.3-1.4-1.7
		c-0.6-0.4-1.4-0.7-1.9-1.2c-0.5-0.5-1-1.1-1.9-1c-0.3,0-0.8-0.1-1-0.3c-0.7-0.8-1.7-0.8-2.7-0.8c-0.3,0-0.5-0.1-0.8-0.1
		c-1.5,0.1-2.9-0.7-4.6-0.3c-1.6,0.5-3.4,0.5-5.1,0.6c-0.8,0.1-1.6-0.1-2.4-0.1c-0.3,0-0.6,0-0.9,0c-0.5,0-1.1,0.1-1.6,0.2
		c-0.4,0-0.8,0-1.2,0.1c-0.7,0.2-1.4,0.6-2.2,0.8c-1.1,0.2-2.2,0.3-3.3,0.5c-1.2,0.2-2.3,0.4-3.5,0.6C60.5,6,59.9,6,59.3,6.3
		c-0.8,0.4-1.6,0.5-2.4,0.2c-1.4-0.4-2.7-0.7-4.3-1.1c0.2,0.4,0.4,0.7,0.6,1c0.1,0.2,0.4,0.3,0.4,0.5c0.5,1.3,1.6,1.9,2.7,2.6
		c1,0.6,1.9,1,3,1.3c1,0.3,2,0.6,3,0.6c1.4,0,2.8,0,4.2-0.2c1.1-0.1,2.1-0.4,3.2,0.1c1,0.4,1.2,1.2,0.6,2.1
		c-0.7,0.9-0.7,1.8-0.3,2.8c0.3,0.7,0.6,1.6,0.6,2.3c-0.1,1.3,0.2,2.5,0.7,3.7c0.4,1.2,0.8,2.5,1.2,3.8c0.2,0.6,0.2,1.2,1,1.5
		c0.2,0.1,0.4,0.3,0.6,0.5c0.9,1.3,1.9,2.6,2.8,4c1.2-0.3,2.5-0.8,3.9-1.1c0.5-0.1,1.1,0,1.6,0.2c0.7,0.3,1.4,0.7,2,1.1
		c0.7,0.5,1.7,1,1.9,1.7c0.7,1.9,1.4,3.9,1,6.1c-0.5,2.1-1.1,4-2.8,5.5c-0.3,0.2-0.5,0.6-0.7,1c1.5,0.2,2.5,1,3.5,1.8
		c0.9,0.7,1.8,1.4,2.7,2c1,0.6,2,1.2,3,1.8c0.2,0.1,0.4,0.3,0.5,0.4c0.7-0.5,1.5-0.8,1.8-1.4c0.5-1.2,1.2-2,2.7-1.8
		c0-1.3,0.6-1.9,1.5-2.5c0.7-0.4,1.5-1.1,1.8-2.1c0.1-0.3,0.3-0.6,0.5-0.9c0.4-0.5,1-1,1.3-1.6c0.5-1,0.9-2.1,1.4-3.2
		c0.4-1,1-2,1.2-3.1c0.2-1.1,0.2-2.2,0.2-3.3c0-0.8,0.3-1.6,0.1-2.3c-0.3-1.1-0.8-2.2-1.4-3.2c-0.4-0.7-0.9-1.6-1.6-1.9
		C102,24.7,101.4,24.1,101,23z M28.4,22.1c0.1,0,0.2-0.1,0.3-0.1c-0.1-0.4-0.2-0.8-0.4-1.1c-0.4-0.7-0.9-1.3-1.2-2
		c-0.4-1-0.3-2.2-1.1-3c-0.1-0.2-0.2-0.4-0.2-0.6c-0.1-0.7-0.5-1.2-1.2-1.4c-0.3-0.1-0.6-0.5-0.9-0.8c-0.4-0.4-0.8-1-1.3-1.3
		c-0.5-0.4-1.2-0.5-1.8-0.8c-1.3-0.6-2.6-1.1-4.1-0.6c-0.9,0.3-1.9,0.2-2.7,0.8c-0.1,0.1-0.4,0-0.6,0.1c-0.2,0.1-0.4,0.1-0.6,0.3
		c-0.5,0.3-0.9,0.8-1.4,1c-0.7,0.4-1.4,0.8-1.6,1.7c0,0.2-0.3,0.4-0.4,0.6c-1.2,1.3-2.3,2.5-3,4.1c-0.1,0.2-0.4,0.4-0.5,0.6
		c-0.2,0.3-0.3,0.7-0.4,1c-0.2,0.7-0.3,1.4-0.5,2c-0.2,0.7-0.6,1.3-0.7,2c-0.3,1.9-0.5,3.7-0.7,5.6c-0.1,0.6,0,1.2,0,1.9
		c0.1,1.2,0.2,2.5,0.3,3.7c0.1,1.2,0.3,2.5,0.5,3.7c0.1,0.6,0.1,1.2,0.1,1.8c0,0.2-0.1,0.5,0,0.7c1,1.3,0.9,3.2,2.1,4.5
		c0.1,0.1,0.2,0.4,0.2,0.6c0.1,0.8,0.4,1.4,0.9,2.1c1,1.3,1.6,2.8,3.1,3.7c1.3,0.8,2.3,2,3.6,2.6c1.3,0.6,2.8,0.6,4.2,0.8
		c0.1,0,0.2,0,0.2-0.1c0.5-0.6,1.1-0.3,1.5,0c0.5,0.4,0.9,0.3,1.4,0c1.2-0.6,2.2-1.6,3.7-1.5c0.2,0,0.5-0.5,0.7-0.8
		c0.4-0.6,0.6-1.3,1-1.8c0.8-0.9,1.7-1.7,2.6-2.4c0.5-0.4,0.6-0.8,0.5-1.4c-0.1-0.9-0.1-1.8,0-2.7c0-0.5,0.3-0.9,0.3-1.4
		c0.1-2.1,0.1-4.1,0.1-6.2c0-0.8,0.2-1.6,0.3-2.4c0.1-0.6,0.2-1.2,0.2-1.8c0-0.2,0-0.4-0.1-0.5c-0.3-0.8-0.6-1.5-0.8-2.3
		c-0.4-1.8-0.6-3.7-1-5.5C28.9,24.2,28.6,23.1,28.4,22.1z M26.1,61.7c0.1,1,0.2,1.7,0.2,2.3c0.1,0.8,0.2,1.5,0.3,2.3
		c0.2,1.1-0.8,2.1-1.9,1.7c-1.2-0.3-2.6-0.7-3.6-1.4c-0.8-0.6-1.6-0.7-2.5-0.8c-0.3,0-0.7-0.1-0.9-0.3c-0.6-0.8-1.6-0.8-2.4-1.1
		c-0.8-0.2-1.6-0.6-2.5-0.6c-0.4,0-0.8,0.4-1.1,0.7c-0.1,0.1-0.1,0.4-0.1,0.5c0.6,0.7,1.2,1.4,1.9,2.1c1,1,1.2,1.6,0.5,2.8
		c-0.3,0.5-0.2,0.7,0.1,1.1c0.6,0.7,1.3,1.4,0.9,2.5c-0.3,0.7,0,1.4,0.7,1.5c1,0.1,1.1,0.8,1.1,1.5c0.1,0.7-0.7,1.7-1.2,1.9
		c1.8,0.2,3.7,0.3,5.5,0.5c1,0.1,2.1,0.2,2.9,0.6c0.8,0.4,1.5,0.3,2.3,0c1.2-0.4,2.3-0.8,3.5-1.3c0.4-0.2,0.7-0.7,1-1.1
		c0.2-0.4,0.3-0.8,0.5-1.2c0.2-0.6,0.7-1.3,0.6-1.9c-0.3-1.8-1-3.5-2.3-4.9c-0.7-0.9-1.1-2.1-1.5-3.2c-0.5-1.2-0.8-2.4-1.3-3.5
		C27,62.1,26.6,61.9,26.1,61.7z M123.2,244.4c0.1,0.3,0.2,0.8,0.3,1.3c0.1,0.9,0.2,1.7,0.3,2.6c0,0.2,0,0.4,0,0.6
		c0,0.9,0.1,1.7,0.1,2.6c-0.1,1.4-0.3,2.8-0.3,4.2c-0.1,2.4-1,4.3-3,5.7c-0.2,0.1-0.2,0.4-0.3,0.5c0.2,0.1,0.4,0.3,0.6,0.3
		c0.5,0,0.9-0.1,1.3-0.3c1.5-0.7,3.3-0.8,4.7-1.9c0.2-0.1,0.4-0.1,0.6-0.2c0.2-0.1,0.4-0.2,0.6-0.3c0.4-0.4,0.8-0.9,1.3-1.2
		c1.3-0.9,2.5-1.9,3.2-3.4c0.3-0.7,0.7-1.5,1.2-1.9c1.1-0.8,0.9-2,1.3-2.9c0.6-1.2,0.8-2.6,0.9-3.9c0.1-0.7,0-1.5-0.4-2
		c-0.4-0.7-1.1-1.1-1.7-1.7c-0.3-0.3-0.6-0.9-0.9-1c-0.4-0.1-0.9,0.4-1.3,0.5c-1,0.3-2.1,0.6-3.2,0.9c-0.9,0.2-1.9,0.4-2.8,0.5
		c-0.2,0-0.4,0.1-0.6,0.2C124.5,243.7,123.9,244,123.2,244.4z M83.4,267.2c0.5,0.2,0.7,0.5,0.9,0.5c0.5,0,1-0.1,1.4-0.2
		c1.1-0.2,2.2-0.4,3.3-0.7c0.9-0.3,1.7-0.7,2.5-1c0.1,0,0.1-0.2,0.2-0.3c0.3-0.3,0.6-0.7,1-0.9c1.5-0.9,2.9-1.8,3.9-3.4
		c0.4-0.6,0.8-1.4,1.4-1.7c1.1-0.7,1.1-1.9,1.6-2.9c0.6-1,0.7-2.3,1.2-3.4c0.2-0.5,0.1-0.8-0.1-1.3c-0.6-1.2-2.2-1.9-1.8-3.7
		c-0.4,0.1-0.7,0.3-1,0.3c-0.5,0.1-0.9,0.2-1.4,0.3c-0.6,0.1-1.3,0.2-2,0.3c-0.7,0.1-1.5,0.2-2.2,0.4c-0.5,0.1-0.9,0.3-1.4,0.4
		c-0.5,0.1-1.1,0.3-1.6,0.3c-1.2-0.1-1.4,0.1-1,1.2c0.6,1.7,0,3.3,0.1,5c0,1.2-0.8,2.2-0.5,3.5c0.1,0.2-0.1,0.4-0.1,0.7
		c-0.1,0.5-0.1,1.1-0.3,1.6c-0.3,0.8-0.7,1.6-1.1,2.4c-0.1,0.2-0.3,0.3-0.3,0.5c-0.2,1-1,1.4-1.8,1.8
		C84.2,266.8,83.9,266.9,83.4,267.2z M22.8,63.6c-0.1-0.6-0.2-1.2-0.2-1.8c-0.1-0.8-0.2-1.6-0.3-2.5c0-0.3-0.1-0.8-0.2-0.8
		c-0.4-0.1-0.9-0.1-1.3,0c-0.7,0.3-1.3,0.7-2.1,1.1c0.4,0.9-0.6,2.6,1.5,3c0.1,0,0.3,0.2,0.4,0.3C21.1,63.6,21.8,63.8,22.8,63.6z"/>
	<path class="st0" d="M135.4,149.2c-2.2-0.7-3.2,0.7-4.3,2.2c-0.2,0.3-0.6,0.5-0.9,0.7c-0.4,0.2-0.8,0.3-1.1,0.7
		c-0.3,0.4-0.6,0.4-1,0.2c-0.9-0.4-1.5-0.2-2.4,0.4c-1.1,0.8-2.4,1.2-3.7,1.7c-1.6,0.6-3.3,1.1-5,1.7c-0.1,0-0.1,0-0.2,0.1
		c-1,1.1-2.5,0.9-3.8,1.5c-0.9,0.4-1.8,0.9-2.7,1.3c-0.1,0-0.1,0.1-0.2,0.2c-1.1,0.4-2.1,0.7-3.2,1.1c-0.9,0.4-1.8,0.8-2.7,1.2
		c-0.3,0.1-0.7,0.2-1.1,0.2c-0.3,0-0.7-0.2-0.9-0.1c-1.4,0.4-2.8,0.8-4.2,1.2c-0.8,0.3-1.5,0.6-2.2,0.9c-0.2,0.1-0.4,0.1-0.6,0.1
		c-1-0.6-1.9-0.2-2.9,0c-1.3,0.3-2.6,0.6-3.9,0.9c-0.2,0-0.5-0.1-0.7-0.2c-0.6-0.1-1.3-0.3-1.8-0.1c-1.1,0.4-2.1,0.5-3.1-0.2
		c-0.1-0.1-0.3-0.2-0.5-0.2c-1.7-0.3-3.4-0.5-5.2-0.8c-0.4-0.1-0.8-0.2-1.2-0.4c-0.9-0.4-1.8-0.9-2.8-1.2c-1.2-0.4-2.2-1.5-3.4-2.2
		c-1-0.6-1.8-1.3-2.7-2c-0.8-0.6-1.6-1.2-2.2-2.1c-0.8-1-1.8-1.8-2.8-2.7c-0.5-0.5-1-0.4-2.1,0.1c-0.2-0.2-0.3-0.5-0.5-0.7
		c-0.4-0.4-1.3-0.3-1.3,0.2c-0.2,1.4-1.4,1.9-2.1,2.8c-0.4,0.6-0.7,1.3-1,1.9c-0.1,0.2-0.1,0.5-0.2,0.7c-0.1,0.1-0.3,0.3-0.5,0.3
		c-0.1,0-0.3-0.3-0.3-0.4c0-0.8,0-1.5,0-2.3c0-0.2,0.1-0.4,0-0.6c-0.1-2.8-0.2-5.6-0.3-8.4c0-2.1,0-4.1,0.1-6.2c0-0.3,0.1-0.7,0-0.9
		c-0.8-1.7,0-3.3,0.1-5c0-1.6,0.3-3.3,0.1-4.9c-0.4-2.1,0.3-4.3-0.2-6.4c-0.2-0.9,0.4-1.9,0.1-2.8c-0.6-1.9,0.3-3.6,0-5.4
		c-0.2-1.1-0.2-2.2-0.4-3.3c0-0.3-0.3-0.5-0.3-0.8c-0.1-0.2-0.1-0.6,0-0.8c0.7-0.9,0.5-1.7,0.1-2.6c-0.4-1,0.1-2.1,1-2.4
		c1.1-0.4,1.6-1.3,1.3-2.3c-0.3-1-1.3-1.6-2.4-1.3c-0.9,0.3-1.7,0.8-2.5,1.5c-0.8,0.8-1.8,1.5-2.8,2.1c-0.6,0.4-1.4,0.4-2.1,0.6
		c-0.9,0.3-1.7,0.9-2.6,1.2c-2.2,0.9-4.4,1.7-6.6,2.6c-0.2,0.1-0.5,0.1-0.7,0.2c-1.1,0.8-2.2,0.6-3.4,0.4c-1-0.1-2-0.2-3-0.4
		c-0.4-0.1-1-0.3-1.3-0.6c-1.2-1.4-2.7-2.7-3.5-4.4c-0.8-1.6-1.8-3.1-2.8-4.6c-0.1-0.1-0.2-0.3-0.2-0.4c-0.1-2.3-1.3-4.1-2.2-6.1
		c-0.3-0.7-0.4-1.4-0.6-2.1c-0.5-1.3-1-2.7-1.4-4c-0.1-0.2,0-0.6,0.2-0.6c0.9-0.6,2-1,2.9-1.7c1.3-1.1,3-1.2,4.4-1.8
		c1.4-0.6,2.9-1,4.4-1.5c1-0.3,2-0.7,3-1.1c0.3,0.8,0.6,1.6,0.8,2.5c0.5,1.9,1.5,3.4,3.1,4.5c0.7,0.4,1.2,1.2,1.8,1.7
		c0.3,0.3,0.7,0.7,1.1,0.7c2.5,0.3,4.8-0.3,6.7-2.1c0.4-0.4,1.1-0.6,1.7-0.8c0.4-0.2,1-0.2,1.3-0.5c1.3-1.4,3-2.1,4.6-3
		c0.3-0.2,0.6-0.4,0.9-0.6c1.2-0.8,2.4-1.7,3.6-2.5c0.9-0.7,1.8-1.3,2.8-1.8c1.3-0.7,2.4-1.9,3.6-2.8c0.2-0.2,0.3-0.4,0.5-0.6
		c0.3-0.3,0.7-0.7,1.1-0.8c1-0.3,1.8-0.9,2.3-1.8c0.4-0.7,0.9-1.1,1.6-1.4c0.6-0.3,1.2-0.8,1.5-1.3c0.6-0.9,1.5-1.3,2.4-1.6
		c1.2-0.3,2.5-0.3,3.7-0.6c0.6-0.1,1.2-0.6,1.9-0.8c0.4-0.2,0.8-0.3,1.2-0.3c1,0.1,1.8,0,2.7-0.6c0.8-0.5,1.8-0.8,2.7-1.2
		c0.1,0,0.1-0.1,0.2,0c2.4,0.6,4.6-0.4,6.9-0.9c1.4-0.4,2.8-0.6,4.2-0.7c1.2-0.1,2.3-0.6,3.5-0.9c1.3-0.3,2.6-0.8,3.9-0.9
		c1.3-0.1,2.5-1,3.9-0.7c0.4,0.1,0.6,0.2,0.7,0.6c0.7,1.9,1.1,3.9,2.2,5.6c0.1,0.2,0.2,0.4,0.2,0.6c0.6,2.6,1,5.2,1.8,7.7
		c0.4,1.2,0.6,2.5,0.7,3.7c0,0.2,0,0.3,0,0.5c-0.4,1.1-0.8,2.2-1.2,3.4c0,0-0.2-0.1-0.4-0.1c-0.8,1.6-2.1,2.6-3.6,3.4
		c-0.1,0.1-0.2,0.1-0.3,0.2c-0.6,1.4-2,1.2-3.1,1.5c-0.7,0.2-1.5,0.4-2.3,0.4c-1.9-0.2-3.9,0.7-5.8-0.2c-0.3-0.1-0.7-0.2-0.9-0.1
		c-1,0.4-1.5-0.2-2.1-0.8c-0.6-0.6-1.2-0.9-2.1-0.8c-0.2,0-0.4,0.1-0.5,0c-1.6-1.2-3.5-1.7-5.2-2.5c-0.7-0.3-1.3-1-2-1.4
		c-0.4-0.2-1-0.4-1.4-0.3c-0.8,0.1-1-0.3-1.3-0.9c-0.3-0.6-0.7-1.3-1.1-1.8c-0.9-0.9-1.9-1.7-2.8-2.5c-0.5-0.4-0.9-1-1.3-1.4
		c-0.5-0.5-1.2-0.6-1.8-0.2c-0.7,0.5-0.8,1.2-0.4,1.8c0.7,1.2,1.5,2.3,2.3,3.4c0.2,0.3,0.4,0.5,0.7,0.8c0.8,1,1.7,1.7,3.1,1.8
		c0.6,0.1,1.1,0.3,1.3,1.1c0.3,1.2,1.5,1.5,2.4,2.2c1.3,1,2.9,1.2,4.4,1.7c0.8,0.3,1.6,0.5,2.3,0.7c0,0,0.1,0,0.1,0
		c0.9,1.6,2.5,1,3.8,1.4c0.2,0.1,0.4,0.3,0.6,0.4c0.4,0.2,0.8,0.6,1.2,0.7c1.1,0.2,2.3,0.4,3.4,0.5c1.1,0.1,2.1,0.1,3.1-0.3
		c0.9-0.4,2-0.3,2.9-0.7c1.1-0.4,2-1,3.1-1.6c0.1-0.1,0.2-0.1,0.3-0.1c1,0.3,1.9,0,2.8-0.8c0.4,1,0.8,1.9,1.2,2.8
		c0.4,0.8,0.7,1.7,1.1,2.5c0.7,1.4,1.5,2.8,2.1,4.2c0.3,0.9,0.3,1.9,0.6,2.8c0.5,1.3,0.7,2.8,1.7,3.9c0.1,0.1,0.1,0.3,0.2,0.4
		c0.3,0.8,0.5,1.6,0.8,2.4c0.2,0.7,0.4,1.4,0.7,2.1c0.5,1.1,1,2.2,1.6,3.3c0.1,0.2,0.3,0.4,0.3,0.6c-0.1,1.4,0.7,2.5,1.2,3.8
		c0.4,1,0.9,2,1.2,3c0.3,0.8,0.4,1.6,0.5,2.4c0,1.2,0.8,1.9,1.3,2.8c0.2,0.3,0.2,0.6,0.3,1c0.4,1.5,0.8,3,1.3,4.5
		c0.1,0.3,0.4,0.6,0.6,1c0.2,0.4,0.4,0.8,0.6,1.2c0.2,0.4,0.2,0.9,0.5,1.2c0.9,1,1.2,2.3,1.5,3.5c0.2,1.1,0.7,2.1,1.5,2.8
		c0.2,0.2,0.4,0.5,0.4,0.7c-0.1,1.4,0.6,2.7,1.1,3.9c0.4,1.1,0.8,2.2,1.2,3.4C135.5,149.1,135.4,149.2,135.4,149.2z"/>
	<path class="st1" d="M62.6,158.5c0.6,0.5,1.2,1.1,1.8,1.6c0.1,0.1,0.2,0.4,0.3,0.5c1.2,0.9,2.5,1.7,3.7,2.6
		c0.3,0.2,0.6,0.3,0.9,0.5c0.6,0.7,1.4,1,2.3,1.1c0.1,0,0.3,0,0.4,0.1c0.8,1.2,2.3,0.9,3.4,1.5c0.9,0.4,1.8,0.9,2.7,1.2
		c0.5,0.2,1.1,0.1,1.7,0.1c0.3,0,0.6,0.2,0.9,0.2c0.6,0.1,1.3,0.1,1.9,0.1c1,0,2-0.1,3,0.2c0.9,0.2,1.6,0.4,2.4-0.2
		c0.1-0.1,0.4-0.2,0.5-0.2c1.9,0,3.7,0,5.6-0.1c0.4,0,0.8-0.2,1.3-0.4c0,0.3,0.1,0.6,0,0.8c-0.4,1.1-0.8,2.2-0.5,3.4
		c0,0.1,0,0.2,0,0.3c-0.8,1.8,0.1,3.6,0,5.4c0,0.1,0,0.2,0.1,0.3c1,1.2,0.3,2.5,0.1,3.8c0,0.3-0.1,0.5,0,0.8c0.7,1.8,0,3.6,0.2,5.4
		c0.1,1.3-0.2,2.6,0.3,3.8c0.4,1.1,0.2,2.1,0.2,3.2c0.1,1.8,0.3,3.6,0.4,5.5c0,0.7-0.1,1.3,0,2c0.1,1.4,0.6,2.8,0.5,4.1
		c-0.1,1.3,0.1,2.5,0.3,3.7c0.2,1.2,0.2,2.3,0.2,3.4c-0.1,0.9,0.8,1.8,0.8,2.6c-0.1,0.9-0.4,1.8-0.1,2.7c0.1,0.3,0.2,0.5,0.4,0.8
		c0.1,0.2,0.2,0.4,0.2,0.5c0,0.8,0.1,1.6,0,2.4c-0.1,1.3,0,2.5,0.7,3.6c0.1,0.1,0.1,0.2,0.1,0.3c-0.5,2.3,0.8,4.4,0.9,6.6
		c0,1.8,0.7,3.5,0.7,5.3c0,0.1,0,0.2,0,0.3c1,1.4,0.4,3.3,1.4,4.7c0.5,0.6,0,1.3-0.8,1.4c-1.6,0.3-3.3,0.5-4.9,0.9
		c-1.7,0.4-3.3,1-4.9,1.4c-0.2,0.1-0.5,0-0.7,0c-0.7,0.1-1.3,0.2-2,0.3c-0.5,0.1-1,0.1-1.5,0.2c-0.7,0.1-1.5,0.2-2.2,0.3
		c-0.5,0.1-0.7-0.2-0.8-0.7c-0.3-1.4-0.8-2.8-1.2-4.2c0-0.1-0.1-0.1-0.1-0.2c0.2-1.7-0.7-3-1.1-4.6c-0.3-1.2-0.9-2.4-1.1-3.7
		c-0.2-1.1-0.8-2-0.9-3.2c-0.1-1.5-0.8-3-1.2-4.6c-0.3-1.2-0.7-2.3-1-3.5c-0.4-1.7-0.8-3.4-1.3-5.1c-0.4-1.4-0.9-2.8-1.3-4.2
		c-0.2-0.6,0-1.2-0.1-1.8c-0.3-1.2-0.8-2.5-1-3.7c-0.3-1.7-1.5-3.2-1.2-5c0.1-0.4-0.2-0.9-0.4-1.4c-0.2-0.8-0.4-1.7-0.6-2.5
		c-0.1-0.3-0.1-0.8-0.3-1c-0.8-0.8-0.5-1.8-0.8-2.7c-0.3-1-0.5-1.9-0.9-2.9c-0.2-0.7-0.4-1.3-0.4-2c0-1-0.4-2-0.6-3
		c-0.1-0.4-0.2-0.8-0.3-1.2c-0.1-0.4-0.1-0.8-0.2-1.1c-0.7-1.4-1-2.8-1-4.3c0-0.2,0.1-0.4,0-0.5c-0.7-1.1-0.4-2.5-0.7-3.6
		c-0.1-0.3-0.2-0.6-0.3-0.9c-0.4-0.6-0.7-1.1-0.6-1.9c0-0.3-0.3-0.6-0.3-0.9c-0.2-0.7-0.3-1.5-0.5-2.2c-0.1-0.7-0.1-1.4-0.4-2
		c-0.5-1-0.7-2-0.9-3.1c-0.2-1.6-0.2-3.1-0.9-4.6c-0.3-0.6-0.3-1.4-0.4-2.2C62.4,158.7,62.5,158.6,62.6,158.5z"/>
	<path class="st1" d="M125,157.7c0.5,1.4-0.4,3,1,4.3c-1.4,1.2-0.1,2.6-0.2,3.9c0,0.2,0.1,0.4,0.1,0.6c0,2-0.1,3.9,0,5.9
		c0.1,1,0.5,2,0.7,3c0.1,0.3,0.1,0.6,0,0.8c-0.5,1.4-0.4,2.7-0.2,4.1c0.3,1.6,0.5,3.2,0.7,4.8c0.1,0.6-0.2,1.2-0.2,1.8
		c0,0.7,0.3,1.4,0.4,2.1c0.1,0.8,0.2,1.7,0.3,2.5c0.2,1.6,0.4,3.2,0.6,4.7c0.1,0.5-0.2,1.1,0,1.6c0.3,1.1,0.1,2.1,0.1,3.2
		c0.1,1.5,0.3,3.1,0.6,4.6c0.2,1.3,0.7,2.5,0.9,3.7c0.2,1,0.2,2.1,0.3,3.1c0.1,0.8,0.1,1.7,0.2,2.5c0.1,0.8,0.2,1.7,0.5,2.5
		c0.4,1,0.6,2,0.6,3.1c0,1.4,0.4,2.8,0.8,4.1c0.3,1.2,0.9,2.4,1.2,3.6c0.2,1,0.3,2,0.4,3c0,0.1,0,0.2,0,0.3c0.5,1,1,2,0.6,3.2
		c-0.1,0.2,0.2,0.7,0.4,0.9c0.5,0.4,0.4,1,0.2,1.4c-0.2,0.3-0.6,0.5-0.9,0.5c-1.3-0.2-2.3,0.6-3.4,0.9c-1.5,0.5-3,1-4.6,1.6
		c-0.9,0.3-1.7,0.8-2.7,0.7c-0.9-0.1-1.8,0.4-2.6,0.6c-0.9,0.2-1.6-0.1-2-0.9c-0.2-0.4-0.5-0.9-0.4-1.4c0.1-1.4-0.6-2.4-1.4-3.5
		c-0.4-0.5-0.2-1.3-0.4-2c-0.2-0.6-0.5-1.2-0.8-1.8c0-0.1-0.2-0.2-0.2-0.3c-0.1-1.7-1.4-2.9-1.8-4.4c-0.1-0.2,0-0.4,0-0.7
		c0-0.6,0.1-1.3-0.1-1.9c-0.9-2-1.4-4.2-2.1-6.3c-0.4-1.2-0.9-2.3-1.3-3.4c0-0.1-0.1-0.3-0.1-0.4c-0.2-1.2-0.3-2.5-0.7-3.5
		c-0.4-0.9-0.6-1.7-0.8-2.7c-0.2-1.2-0.7-2.4-1.1-3.6c-0.1-0.4-0.1-0.7-0.2-1.1c0-0.1,0.1-0.3,0-0.4c-1-1.5-0.3-3.3-1.1-4.8
		c-0.7-1.4-0.7-3-1.1-4.5c0-0.1,0-0.1,0-0.2c0.1-1.1-1.3-1.5-1-2.8c0.2-0.9-0.5-1.9-0.7-2.9c-0.1-0.5-0.1-1-0.1-1.5
		c0.1-1.1-0.1-2.2-0.9-3.1c-0.1-0.1-0.2-0.4-0.2-0.5c0.5-1.7-0.2-3.3-0.6-5c-0.3-1.1-0.5-2.3-0.7-3.4c0-0.1,0-0.3,0-0.3
		c-0.6-1-0.5-2.1-0.6-3.2c-0.1-0.9-0.6-1.7-1-2.6c-0.4-1-0.3-1.4,0.7-1.7c0.8-0.2,1.5-0.4,2.3-0.6c0.4-0.1,1-0.2,1.1-0.6
		c0.6-1,1.7-0.8,2.6-1c0.6-0.1,1.2-0.3,1.8-0.5c1.1-0.4,2.1-0.8,3.2-1.2c0.6-0.2,1.3-0.2,1.8-0.4c1.3-0.5,2.5-1.1,3.8-1.6
		c0.1,0,0.2-0.1,0.2-0.1c1.2,0.3,2.1-0.7,3.2-0.9c0.2,0,0.4-0.2,0.5-0.3c1.2-0.5,2.4-1.1,3.6-1.6C124.5,157.7,124.8,157.7,125,157.7
		z"/>
	<path class="st0" d="M67.8,15c-0.2,1.1-0.4,2.1-0.5,3c0,0.2,0,0.5,0,0.7c0.4,2,0.9,4,1.3,6.1c0.2,1.3,1.1,2.2,1.8,3.2
		c0.2,0.2,0.4,0.5,0.4,0.7c0,0.9,0.4,1.7,1,2.3c0.5,0.6,1,1.2,1.5,1.9c0.1,0.1,0.1,0.2,0.2,0.3c1,0.4,1.5,1.1,1.1,2.3
		c-0.1,0.2,0.4,0.9,0.7,1c0.3,0.1,0.9-0.1,1.2-0.2c0.5-0.2,0.9-0.5,1.3-0.8c0.3-0.2,0.6-0.2,0.8-0.4c0.7-0.6,1.4-0.8,2.3-0.4
		c0.1,0,0.2,0,0.3,0c0.5,0,1.2-0.2,1.5,0.1c0.6,0.7,1.2,1.5,1.3,2.4c0.1,0.7-0.2,1.7-0.5,2.4c-0.8,1.8-1.7,3.6-2.6,5.4
		c-0.5,0.9-0.4,1.5,0.3,2.2c0.5,0.5,1,1.1,1.2,1.7c0.5,1.1,1.4,1.7,2.3,2.3c1.1,0.7,2.3,1.2,3.4,1.9c0.9,0.5,1.7,1.1,2.6,1.7
		c0.1,0.1,0.2,0.3,0.2,0.4c0.1,0.6,0.1,1.2,0.1,1.7c0.1,0.8,0.2,1.7,0.5,2.4c0.4,1.1,0.2,1.7-0.9,2c-1.2,0.3-2.5,0.6-3.7,0.9
		c-0.4,0.1-0.8,0.4-1.2,0.6c-0.4,0.2-0.7,0.5-1.1,0.5c-1,0.1-2.1,0-3.2,0.2c-0.6,0.1-1.2,0.6-1.9,0.8c-0.5,0.2-0.9,0.3-1.4,0.3
		c-1.2,0.2-2.3,0.4-3.5,0.6c-0.2,0-0.4,0.1-0.5,0.1c0.1-0.9,0.4-1.8,0.3-2.7c0-0.6-0.4-1.1-0.5-1.7c-0.1-0.3-0.1-0.5-0.2-0.8
		c-0.1-0.7-0.1-1.5-0.2-2.2c-0.2-0.8-1.3-1.4-2.2-1.3c-0.9,0.1-1.8,0.2-2.6,0.2c-0.9,0-1.6,0.2-2.3,0.7c-0.4,0.3-0.8,0.5-1.4,0.1
		c-0.4-0.3-1.2-0.5-1.6-0.3c-0.9,0.5-1.7,0.2-2.6,0.1c-2-0.2-4-0.4-6.1-0.6c-0.1,0-0.3,0-0.3,0c-1.2-1.1-2.9-1.1-4.4-1.7
		c-1-0.4-2.5-2.9-2.2-3.9c0.1-0.3,0.5-0.7,0.9-0.9c2.2-1.1,3.8-2.8,4.6-5.2c0.4-1.1,0.7-2.3,1-3.5c0.4-1.4-0.8-2.6-2.2-2.4
		c-1.9,0.3-3.8,0.6-5.8,0.9c-0.7,0.1-1.2-0.1-1.6-0.6c-0.3-0.4-0.7-0.7-1.1-1c-0.8-0.6-1.7-1.1-2.5-1.6c-0.5-0.4-0.7-1.4-0.1-1.9
		c1.1-1,2.2-2,3.4-2.9c0.6-0.5,0.9-1,0.9-1.8c-0.1-1.1,0-2.2,0-3.3c0-0.3,0-0.6,0.2-0.7c0.7-0.8,0.6-1.7,0.7-2.6
		c0.3-1.5,0.5-3,1.4-4.4c0.1-0.1,0.2-0.3,0.2-0.5c0.5-0.9,0.9-1.9,1.4-2.8c0.3-0.6,0.7-1.2,1.5-1.4c0.3-0.1,0.5-0.4,0.8-0.7
		c0.2-0.3,0.4-0.6,0.7-0.9c0.6-0.7,1.2-0.7,2-0.3c1.2,0.7,2.5,1.2,3.8,1.6c1.8,0.6,3.9,0.8,5.9,0.9C65.4,15.3,66.5,15.1,67.8,15z
		 M53.6,34.7c0.2,0.6,0.2,1.5,0.6,1.8c1.3,1,2.2,2.6,4.4,2c2.8-0.8,4.1-3.3,2.3-5.6c-0.7-1-1.8-1.8-3.2-1.6
		c-0.8,0.1-1.5,0.5-2.3,0.7C54.3,32.5,53.8,33.4,53.6,34.7z M52.6,30.6c0.1-1.3-0.9-2.6-2.2-2.8c-1.5-0.2-2.6,0.7-2.8,2.2
		c-0.1,0.9,1.1,2.5,2,2.6C51,32.8,52.4,31.8,52.6,30.6z"/>
	<path class="st1" d="M101,23c0.3,1.1,1,1.8,2.1,2.2c0.7,0.3,1.2,1.2,1.6,1.9c0.6,1,1.1,2.1,1.4,3.2c0.2,0.7,0,1.5-0.1,2.3
		c-0.1,1.1,0,2.2-0.2,3.3c-0.2,1.1-0.8,2.1-1.2,3.1c-0.4,1.1-0.8,2.2-1.4,3.2c-0.3,0.6-0.9,1-1.3,1.6c-0.2,0.3-0.4,0.6-0.5,0.9
		c-0.2,1-1.1,1.6-1.8,2.1c-1,0.6-1.6,1.2-1.5,2.5c-1.5-0.2-2.1,0.6-2.7,1.8c-0.3,0.6-1.1,0.9-1.8,1.4c-0.1-0.1-0.3-0.2-0.5-0.4
		c-1-0.6-2-1.2-3-1.8c-0.9-0.6-1.8-1.3-2.7-2c-1-0.8-2-1.6-3.5-1.8c0.3-0.4,0.4-0.8,0.7-1c1.7-1.5,2.3-3.5,2.8-5.5
		c0.5-2.1-0.3-4.1-1-6.1c-0.2-0.7-1.2-1.2-1.9-1.7c-0.6-0.5-1.3-0.8-2-1.1c-0.5-0.2-1.1-0.3-1.6-0.2c-1.3,0.3-2.7,0.7-3.9,1.1
		c-1-1.4-1.9-2.7-2.8-4c-0.1-0.2-0.4-0.4-0.6-0.5c-0.8-0.2-0.8-0.9-1-1.5c-0.4-1.3-0.8-2.5-1.2-3.8c-0.4-1.2-0.7-2.4-0.7-3.7
		c0-0.8-0.3-1.6-0.6-2.3c-0.4-1-0.4-1.9,0.3-2.8c0.6-0.8,0.4-1.7-0.6-2.1c-1.1-0.4-2.1-0.2-3.2-0.1c-1.4,0.1-2.8,0.2-4.2,0.2
		c-1,0-2-0.3-3-0.6c-1.1-0.3-2.1-0.8-3-1.3c-1.1-0.7-2.2-1.3-2.7-2.6c-0.1-0.2-0.3-0.3-0.4-0.5c-0.2-0.3-0.4-0.6-0.6-1
		c1.6,0.4,3,0.7,4.3,1.1c0.9,0.2,1.6,0.2,2.4-0.2C59.9,6,60.5,6,61.2,5.9c1.2-0.2,2.3-0.4,3.5-0.6c1.1-0.2,2.2-0.2,3.3-0.5
		c0.7-0.2,1.4-0.6,2.2-0.8C70.5,4,70.9,4,71.3,4c0.5-0.1,1.1-0.1,1.6-0.2c0.3,0,0.6,0,0.9,0c0.8,0,1.6,0.2,2.4,0.1
		c1.7-0.1,3.5-0.2,5.1-0.6c1.6-0.5,3,0.4,4.6,0.3c0.3,0,0.5,0.1,0.8,0.1c1,0,1.9,0,2.7,0.8c0.2,0.2,0.7,0.4,1,0.3
		c0.9-0.1,1.3,0.4,1.9,1c0.5,0.5,1.2,0.8,1.9,1.2c0.7,0.4,1.3,0.6,1.4,1.7c0,0.6,0.6,1.1,0.9,1.7c0.2,0.4,0.5,0.8,0.5,1.2
		c0.1,2.1,0.2,4.3,0.3,6.4c0,0.8-0.2,1.6-0.4,2.3c-0.3,1,0,1.5,0.9,1.8c0.1,0,0.3,0,0.4,0.1C98.8,23.2,99.8,23.3,101,23z"/>
	<path class="st1" d="M28.4,22.1c0.3,1,0.6,2,0.8,3.1c0.4,1.8,0.6,3.7,1,5.5c0.2,0.8,0.5,1.6,0.8,2.3c0.1,0.2,0.1,0.4,0.1,0.5
		c-0.1,0.6-0.2,1.2-0.2,1.8c-0.1,0.8-0.3,1.6-0.3,2.4c-0.1,2.1-0.1,4.1-0.1,6.2c0,0.5-0.3,0.9-0.3,1.4c0,0.9-0.1,1.8,0,2.7
		c0.1,0.6,0,1-0.5,1.4c-0.9,0.8-1.8,1.5-2.6,2.4c-0.4,0.5-0.7,1.2-1,1.8c-0.2,0.3-0.5,0.8-0.7,0.8c-1.5-0.1-2.5,0.9-3.7,1.5
		c-0.5,0.3-0.9,0.3-1.4,0c-0.4-0.3-1-0.6-1.5,0c0,0.1-0.2,0.1-0.2,0.1c-1.4-0.2-2.9-0.2-4.2-0.8c-1.3-0.6-2.3-1.8-3.6-2.6
		c-1.5-0.9-2.1-2.4-3.1-3.7C7,48.4,6.7,47.8,6.6,47c0-0.2-0.1-0.4-0.2-0.6c-1.2-1.2-1.1-3.1-2.1-4.5c-0.1-0.2,0-0.5,0-0.7
		c0-0.6,0-1.2-0.1-1.8c-0.1-1.2-0.3-2.5-0.5-3.7c-0.1-1.2-0.2-2.5-0.3-3.7c0-0.6-0.1-1.3,0-1.9c0.2-1.9,0.4-3.7,0.7-5.6
		c0.1-0.7,0.5-1.3,0.7-2c0.2-0.7,0.3-1.4,0.5-2c0.1-0.3,0.2-0.7,0.4-1c0.1-0.2,0.4-0.4,0.5-0.6c0.7-1.6,1.8-2.9,3-4.1
		c0.2-0.2,0.4-0.4,0.4-0.6c0.1-1,0.8-1.3,1.6-1.7c0.5-0.3,0.9-0.7,1.4-1c0.2-0.1,0.4-0.2,0.6-0.3c0.2-0.1,0.4,0,0.6-0.1
		c0.8-0.6,1.8-0.5,2.7-0.8c1.6-0.5,2.8,0,4.1,0.6c0.6,0.3,1.3,0.4,1.8,0.8c0.5,0.3,0.9,0.9,1.3,1.3c0.3,0.3,0.5,0.7,0.9,0.8
		c0.7,0.3,1.1,0.7,1.2,1.4c0,0.2,0.1,0.5,0.2,0.6c0.8,0.9,0.7,2.1,1.1,3c0.3,0.7,0.8,1.3,1.2,2c0.2,0.4,0.3,0.8,0.4,1.1
		C28.6,22.1,28.5,22.1,28.4,22.1z M19.2,52.4c0.8-0.1,1.5-0.1,2.2-0.2c1.3-0.3,2.6-0.8,3.1-2.2c0.2-0.5,0.4-0.9,0.5-1.3
		c0.4-1.1,1.4-2.1,1.2-3.5c0-0.3,0.4-0.7,0.6-1c0.3-0.5,0.7-0.9,0.8-1.4c0.3-1.3,0.1-2.6,0.6-3.9c0.1-0.2,0-0.6,0-0.9
		c0-1.1,0.3-2.3-0.6-3.3c0,0,0-0.1,0-0.2c0.1-0.8-0.3-1.6,0.2-2.4c0.1-0.1,0-0.4,0-0.6c-0.1-0.6-0.1-1.3-0.2-1.9
		c-0.1-0.5-0.1-0.9-0.2-1.4c-0.2-0.9-0.4-1.7-0.6-2.6c-0.1-0.5,0-1-0.2-1.4c-0.5-1-1.2-1.9-1.5-3c-0.5-1.6-1.5-3-2.4-4.4
		c-0.3-0.5-0.6-1-1.1-1.3c-0.6-0.5-1.3-0.9-2-1.3c-0.3-0.2-0.6-0.3-0.8-0.5c-0.5-0.6-1.1-0.8-1.8-0.6c-1.8,0.5-2.8,2-4.1,3.1
		c-0.2,0.2-0.3,0.5-0.5,0.8c-0.1,0.2-0.2,0.4-0.4,0.5c-2,0.8-2.2,2.9-2.8,4.5c-0.8,2-1,4.1-0.9,6.2c0,0.7,0,1.4,0.1,2.1
		c0.1,0.6,0.2,1.1-0.2,1.7c-0.2,0.4-0.3,1-0.1,1.4c0.5,0.9,0.4,1.8,0.6,2.7c0.1,0.4,0.3,0.8,0.4,1.2c0.1,0.3,0.1,0.6,0.2,0.9
		c0.2,0.9,0.3,1.8,0.5,2.7c0.2,0.8,0.8,1.6,1,2.4c0.3,1.4,0.6,2.7,2,3.5c0.1,0.1,0.2,0.2,0.3,0.3c1.1,2.1,2.8,3.7,4.8,4.8
		C18.3,52.2,18.8,52.3,19.2,52.4z"/>
	<path class="st0" d="M26.1,61.7c0.4,0.3,0.8,0.4,0.9,0.6c0.5,1.2,0.8,2.4,1.3,3.5c0.4,1.1,0.7,2.3,1.5,3.2c1.3,1.5,2,3.1,2.3,4.9
		c0.1,0.6-0.4,1.3-0.6,1.9c-0.1,0.4-0.2,0.8-0.5,1.2c-0.3,0.4-0.6,0.9-1,1.1c-1.1,0.5-2.3,0.9-3.5,1.3c-0.8,0.3-1.5,0.3-2.3,0
		c-0.9-0.4-2-0.5-2.9-0.6c-1.8-0.2-3.7-0.3-5.5-0.5c0.5-0.2,1.3-1.2,1.2-1.9c-0.1-0.7-0.1-1.4-1.1-1.5c-0.8-0.1-1-0.7-0.7-1.5
		c0.5-1.1-0.3-1.8-0.9-2.5c-0.3-0.4-0.4-0.6-0.1-1.1c0.7-1.2,0.6-1.8-0.5-2.8c-0.7-0.6-1.3-1.3-1.9-2.1c-0.1-0.1,0-0.4,0.1-0.5
		c0.4-0.3,0.8-0.7,1.1-0.7c0.8,0.1,1.7,0.4,2.5,0.6c0.8,0.3,1.8,0.3,2.4,1.1c0.2,0.2,0.6,0.3,0.9,0.3c0.9,0.1,1.6,0.3,2.5,0.8
		c1,0.7,2.4,1,3.6,1.4c1.1,0.3,2-0.6,1.9-1.7c-0.1-0.8-0.2-1.5-0.3-2.3C26.3,63.4,26.2,62.7,26.1,61.7z"/>
	<path class="st0" d="M123.2,244.4c0.8-0.4,1.3-0.7,1.9-0.9c0.2-0.1,0.4-0.1,0.6-0.2c0.9-0.2,1.9-0.3,2.8-0.5
		c1.1-0.2,2.1-0.5,3.2-0.9c0.5-0.1,0.9-0.6,1.3-0.5c0.3,0.1,0.6,0.6,0.9,1c0.6,0.6,1.3,1,1.7,1.7c0.3,0.6,0.5,1.4,0.4,2
		c-0.2,1.3-0.4,2.7-0.9,3.9c-0.4,1-0.3,2.2-1.3,2.9c-0.6,0.4-0.9,1.2-1.2,1.9c-0.7,1.5-1.9,2.5-3.2,3.4c-0.5,0.3-0.8,0.8-1.3,1.2
		c-0.2,0.1-0.4,0.3-0.6,0.3c-0.2,0.1-0.5,0.1-0.6,0.2c-1.4,1.1-3.1,1.2-4.7,1.9c-0.4,0.2-0.9,0.2-1.3,0.3c-0.2,0-0.4-0.2-0.6-0.3
		c0.1-0.2,0.2-0.4,0.3-0.5c2-1.4,3-3.3,3-5.7c0-1.4,0.3-2.8,0.3-4.2c0-0.9,0-1.7-0.1-2.6c0-0.2,0-0.4,0-0.6
		c-0.1-0.9-0.2-1.7-0.3-2.6C123.4,245.2,123.2,244.7,123.2,244.4z"/>
	<path class="st0" d="M83.4,267.2c0.5-0.3,0.8-0.4,1-0.5c0.8-0.4,1.5-0.8,1.8-1.8c0-0.2,0.3-0.3,0.3-0.5c0.4-0.8,0.8-1.6,1.1-2.4
		c0.2-0.5,0.2-1.1,0.3-1.6c0-0.2,0.2-0.5,0.1-0.7c-0.4-1.3,0.5-2.3,0.5-3.5c-0.1-1.7,0.5-3.3-0.1-5c-0.4-1.1-0.2-1.3,1-1.2
		c0.5,0,1.1-0.2,1.6-0.3c0.5-0.1,0.9-0.3,1.4-0.4c0.7-0.1,1.4-0.3,2.2-0.4c0.6-0.1,1.3-0.2,2-0.3c0.5-0.1,1-0.2,1.4-0.3
		c0.3-0.1,0.5-0.2,1-0.3c-0.3,1.8,1.3,2.5,1.8,3.7c0.2,0.5,0.4,0.8,0.1,1.3c-0.5,1.1-0.6,2.4-1.2,3.4c-0.5,1-0.5,2.2-1.6,2.9
		c-0.6,0.4-1,1.1-1.4,1.7c-0.9,1.5-2.3,2.5-3.9,3.4c-0.4,0.2-0.7,0.6-1,0.9c-0.1,0.1-0.1,0.2-0.2,0.3c-0.8,0.4-1.6,0.8-2.5,1
		c-1.1,0.3-2.2,0.5-3.3,0.7c-0.5,0.1-1,0.2-1.4,0.2C84.1,267.6,83.9,267.4,83.4,267.2z"/>
	<path class="st1" d="M22.8,63.6c-1,0.2-1.7,0-2.3-0.6c-0.1-0.1-0.2-0.3-0.4-0.3c-2-0.4-1-2.1-1.5-3c0.8-0.4,1.4-0.8,2.1-1.1
		c0.4-0.2,0.9-0.1,1.3,0c0.1,0,0.1,0.5,0.2,0.8c0.1,0.8,0.2,1.6,0.3,2.5C22.6,62.4,22.7,63,22.8,63.6z"/>
	<path class="st1" d="M53.6,34.7c0.2-1.3,0.7-2.2,1.9-2.7c0.7-0.3,1.5-0.7,2.3-0.7c1.4-0.2,2.4,0.7,3.2,1.6c1.7,2.3,0.4,4.8-2.3,5.6
		c-2.2,0.6-3.1-1-4.4-2C53.8,36.2,53.8,35.3,53.6,34.7z"/>
	<path d="M52.6,30.6c-0.1,1.2-1.6,2.2-3,2c-0.9-0.1-2.1-1.7-2-2.6c0.2-1.5,1.3-2.3,2.8-2.2C51.6,28,52.7,29.3,52.6,30.6z"/>
	<path d="M19.2,52.4c-0.4-0.1-0.9-0.2-1.4-0.4c-2.1-1.1-3.8-2.6-4.8-4.8c-0.1-0.1-0.1-0.3-0.3-0.3c-1.3-0.8-1.6-2.1-2-3.5
		c-0.2-0.8-0.7-1.6-1-2.4c-0.3-0.9-0.3-1.8-0.5-2.7c-0.1-0.3-0.1-0.6-0.2-0.9c-0.1-0.4-0.3-0.8-0.4-1.2c-0.2-0.9-0.1-1.8-0.6-2.7
		c-0.2-0.4-0.1-1,0.1-1.4c0.4-0.6,0.2-1.1,0.2-1.7c-0.1-0.7-0.1-1.4-0.1-2.1C8.2,26.1,8.4,24,9.2,22c0.7-1.6,0.8-3.7,2.8-4.5
		c0.2-0.1,0.3-0.3,0.4-0.5c0.2-0.3,0.2-0.6,0.5-0.8c1.4-1,2.3-2.6,4.1-3.1c0.7-0.2,1.3,0,1.8,0.6c0.2,0.2,0.5,0.3,0.8,0.5
		c0.7,0.4,1.4,0.8,2,1.3c0.4,0.4,0.8,0.8,1.1,1.3c0.9,1.4,1.9,2.8,2.4,4.4c0.4,1,1,2,1.5,3c0.2,0.4,0.1,1,0.2,1.4
		c0.2,0.9,0.4,1.7,0.6,2.6c0.1,0.4,0.2,0.9,0.2,1.4c0.1,0.6,0.1,1.3,0.2,1.9c0,0.2,0.1,0.5,0,0.6c-0.5,0.8-0.1,1.6-0.2,2.4
		c0,0.1,0,0.1,0,0.2c0.8,1,0.6,2.1,0.6,3.3c0,0.3,0.1,0.6,0,0.9c-0.5,1.2-0.4,2.6-0.6,3.9c-0.1,0.5-0.5,0.9-0.8,1.4
		c-0.2,0.3-0.6,0.7-0.6,1c0.2,1.4-0.8,2.3-1.2,3.5c-0.2,0.5-0.4,0.9-0.5,1.3c-0.5,1.4-1.8,1.9-3.1,2.2C20.8,52.3,20,52.3,19.2,52.4z
		 M17.5,47.1c0.1-0.5,0.3-0.8,0.3-1.1c0.3-2,0.5-4,0.9-6c0.5-3,0.5-6-0.2-9c-0.1-0.3-0.1-0.7,0-0.9c0.4-0.8,0.1-1.4-0.2-2.1
		c-0.2-0.4-0.3-0.8-0.3-1.2c-0.2-0.8-0.2-1.7-0.5-2.5c-0.3-0.9-0.8-1.8-1.1-2.7c-0.4-1.2-1.2-2-2.2-2.6c-0.6,1.5-1.2,2.8-1.6,4.2
		c-0.5,1.6-0.7,3.4-1,5c-0.1,0.8-0.1,1.6-0.1,2.4c0,0.5,0.2,0.9,0.3,1.4c0.1,0.4,0.4,1,0.3,1.3c-0.4,1,0,1.9,0,2.8
		c0,0.2,0,0.5,0,0.7c0,0.4,0.1,0.7,0.2,1.1c0.2,0.8,0.7,1.5,0.7,2.3c0,0.9,0.3,1.5,0.8,2.2c0.6,0.7,1.1,1.5,1.5,2.3
		C15.7,45.6,16.4,46.3,17.5,47.1z M21.4,49.2c0.3-0.6,0.6-1.1,0.8-1.5c0.6-1.2,1.3-2.5,1.9-3.7c0.1-0.2,0-0.4,0-0.6
		c0-0.2,0-0.4,0.1-0.6c0.2-0.6,0.4-1.3,0.5-1.9c0.4-2-0.7-4.1,0.5-6c0-0.1-0.1-0.2,0-0.2c0.1-0.9-0.3-1.6-0.5-2.4
		c-0.3-1.4-0.4-2.9-0.7-4.4c-0.2-1.1-0.7-2.1-0.9-3.2c-0.2-0.8,0-1.8-0.6-2.6c-0.2-0.3-0.3-0.6-0.5-0.9c-0.5-0.9-0.9-1.8-1.5-2.7
		c-0.7-1-1.5-1.9-2.2-2.8c-0.1-0.1-0.3-0.1-0.5-0.1c-0.7,0.2-1.4,0.5-2.1,0.7c0.9,1,1.8,1.9,2.5,2.9c0.6,0.8,1.2,1.8,1.6,2.7
		c0.4,0.9,0.7,1.9,1,2.9c0.2,0.9,0.3,1.7,0.4,2.6c0.1,0.6,0.1,1.1,0.2,1.7c0.1,0.6,0.3,1.2,0.4,1.9c0.1,0.4-0.1,0.7,0,1.1
		c0.2,2.2,0.5,4.3,0.6,6.5c0.1,1.1-0.1,2.2-0.3,3.3c-0.2,1.5-0.5,3-0.8,4.6c-0.1,0.8-0.3,1.7-0.4,2.6C21.2,49.2,21.4,49.2,21.4,49.2
		z"/>
	<path class="st0" d="M21.4,49.2c0,0-0.3,0-0.6-0.1c0.1-0.9,0.3-1.7,0.4-2.6c0.3-1.5,0.6-3,0.8-4.6c0.2-1.1,0.4-2.2,0.3-3.3
		c-0.1-2.2-0.4-4.4-0.6-6.5c0-0.4,0.1-0.8,0-1.1c-0.1-0.6-0.3-1.2-0.4-1.9c-0.1-0.5-0.1-1.1-0.2-1.7C21,26.7,21,25.8,20.7,25
		c-0.2-1-0.5-2-1-2.9c-0.4-1-1-1.9-1.6-2.7c-0.8-1-1.6-1.9-2.5-2.9c0.7-0.2,1.4-0.5,2.1-0.7c0.1,0,0.4,0,0.5,0.1
		c0.8,0.9,1.6,1.8,2.2,2.8c0.6,0.8,1,1.8,1.5,2.7c0.2,0.3,0.3,0.6,0.5,0.9c0.6,0.8,0.4,1.7,0.6,2.6c0.3,1.1,0.7,2.1,0.9,3.2
		c0.3,1.4,0.4,2.9,0.7,4.4c0.2,0.8,0.6,1.5,0.5,2.4c0,0.1,0.1,0.2,0,0.2c-1.2,1.9-0.1,4.1-0.5,6c-0.1,0.6-0.3,1.3-0.5,1.9
		c0,0.2-0.1,0.4-0.1,0.6c0,0.2,0.1,0.4,0,0.6c-0.6,1.3-1.3,2.5-1.9,3.7C22,48.2,21.8,48.6,21.4,49.2z"/>
</g>
</svg>
