<?xml version="1.0" encoding="utf-8"?>
<!-- Generator: Adobe Illustrator 25.0.0, SVG Export Plug-In . SVG Version: 6.00 Build 0)  -->
<svg version="1.1" id="_xEFF5__xEED3__x5F_4" xmlns="http://www.w3.org/2000/svg" xmlns:xlink="http://www.w3.org/1999/xlink"
	 x="0px" y="0px" viewBox="0 0 209.1 221.9" style="enable-background:new 0 0 209.1 221.9;" xml:space="preserve">
<style type="text/css">
	.st0{fill:#FDD23E;}
	.st1{fill:#FFFFFF;}
	.st2{fill:#F4CC44;}
	.st3{fill:#040000;}
</style>
<g>
	<g>
		<path d="M208.9,193.8c-0.4-0.6-1-0.7-1.7-0.7c-0.6,0.1-1.3,0.1-1.9,0.2c-0.3,0-0.7,0.1-1,0.1c-0.2,0-0.3,0.1-0.5,0
			c-0.8-0.1-1.7-0.4-2.5-0.3c-0.9,0.1-1.7,0.2-2.6,0.1c-0.3,0-0.7,0.1-1,0.1c-0.8,0-1.5,0-2.3-0.1c-0.3,0-0.6,0.1-0.8,0
			c-1-0.3-1.9,0.3-2.8,0.3c-0.1,0-0.2,0.1-0.2,0.1c-0.2,0-0.3,0-0.5,0c-0.4-0.1-0.8-0.3-1.2-0.3c-0.6-0.1-1.3,0-2,0
			c0.1-0.4,0.2-0.8,0.3-1.2c0.1-0.3,0.2-0.7,0.3-1c0.3-0.6,0.6-1.2,0.4-1.9c0-0.1,0-0.2,0-0.3c0.3-0.5,0.6-1.1,0.8-1.6
			c0.2-0.5,0.3-1,0.5-1.5c0.2-0.9,0.2-1.8,0.7-2.6c0.5-0.8,0.7-1.7,1.1-2.6c0.1-0.4,0.2-0.9,0.3-1.3c0.1-0.5,0.3-1,0.5-1.6
			c0.2-0.7,0.4-1.3,0.8-2c0.1-0.1,0.1-0.3,0.1-0.5c0-0.7,0.1-1.4,0.5-2c0.1-0.2,0.2-0.4,0.2-0.6c0.1-0.7,0.1-1.4,0.5-2
			c0.1-0.1,0.2-0.4,0.1-0.5c-0.1-0.5,0.1-0.9,0.3-1.4c0.5-0.9,0.4-2,1.1-2.9c0.2-0.2,0.2-0.7,0.1-1c-0.1-0.4-0.1-0.6,0.1-0.9
			c0.3-0.6-0.1-1.1-0.8-1.2c-0.2,0-0.4,0-0.6-0.1c-0.6-0.2-1.1-0.2-1.7,0.1c-0.2,0.1-0.4,0.1-0.6,0.1c-0.3,0-0.6-0.1-0.9-0.1
			c-0.8,0.1-1.6,0.2-2.5,0.3c-0.7,0.1-1.5,0.1-2.2,0.1c-0.3,0-0.7,0-1,0c-0.4,0-0.9,0.1-1.3,0.1c-0.5,0-1,0.1-1.5,0.1
			c-0.5,0-1,0.1-1.5,0.1c-0.2,0-0.5,0.1-0.7,0c-0.6-0.2-1-0.1-1.5,0.2c-0.2,0.1-0.4,0.1-0.6,0.1c-0.7,0-1.5-0.3-2.1,0.2
			c-0.1,0.1-0.3-0.1-0.4-0.1c-0.4-0.1-0.8-0.2-1.2-0.2c-0.5,0-1.1,0.1-1.6,0.2c-0.4,0.1-0.7,0.2-1.1,0.2c-0.4,0.1-0.9,0.2-1.3,0.1
			c-0.6-0.1-1.2-0.1-1.7,0.3c-0.1,0.1-0.2,0.1-0.4,0.1c-1.3,0-2.6,0-3.8,0c-0.4,0-0.9,0.2-1.3,0.2c-1.6-0.1-3,0.2-4.5,0.8
			c-0.6-0.5-1.3-0.7-2-0.3c-0.4,0.2-0.7,0.3-1.1,0.1c-0.3-0.1-0.7,0-1,0c-0.5,0-0.9,0.1-1.4,0.1c-0.5,0-1-0.1-1.5-0.1
			c-0.3,0-0.7,0.2-1,0.1c-0.8-0.1-1.5,0.2-2.2,0.7c-0.4,0.3-0.7,0.2-1.1,0.2c-0.9-0.2-1.7-0.3-2.6-0.3c-0.5,0-1.1,0.1-1.6,0.1
			c-0.9,0-1.8,0-2.7,0c-0.8,0-1.7,0.2-2.5,0.3c-0.5,0.1-1,0.2-1.5,0.3c-0.3,0.1-0.7,0.3-0.9,0.2c-0.7-0.4-1.4-0.4-2.1-0.2
			c-0.1,0-0.2,0-0.3,0c-0.6-0.2-1.1-0.1-1.6,0.3c-0.3,0.2-1.2,0.1-1.3-0.2c-0.2-0.6-0.4-1.2-0.6-1.9c-0.3-0.9-0.5-1.8-0.8-2.8
			c0-0.2-0.1-0.4-0.1-0.5c0-0.4,0-0.7-0.1-1.1c-0.2-0.6-0.6-1.2-0.6-1.8c-0.1-1.5-0.4-2.9-1.3-4.1c-0.1-0.2-0.1-0.5-0.1-0.8
			c0-0.6,0-1.1-0.1-1.7c0-0.5-0.2-0.9-0.2-1.3c-0.1-0.7-0.2-1.3-0.7-1.8c-0.1-0.1-0.2-0.3-0.2-0.4c-0.2-1-0.5-2.1-0.7-3.1
			c-0.1-0.5-0.2-0.9-0.3-1.4c-0.2-1.1-0.3-2.2-0.5-3.2c0-0.2-0.2-0.4-0.3-0.6c-0.2-0.6-0.4-1.3-0.5-1.9c-0.1-0.4-0.1-0.9-0.2-1.4
			c-0.1-0.6-0.4-1.1-0.5-1.7c-0.4-1.4-0.8-2.8-1.2-4.2c0-0.1-0.1-0.2,0-0.3c0.5-0.4,0.3-1,0.3-1.5c0-0.8-0.2-1.6-1-2
			c-0.1,0-0.1-0.1-0.1-0.2c0-0.5,0-1,0.2-1.5c0.2-0.5,0.4-1,0.3-1.6c-0.1-0.6-0.1-1.2,0.4-1.7c0.3-0.3,0.3-0.8,0.4-1.2
			c0.2-0.6,0.3-1.3,0.6-1.9c0.2-0.5,0.3-0.9,0.1-1.4c-0.4-1.1-1.5-1.5-2.2-2.3c-0.1-0.1-0.4-0.1-0.6-0.1c-0.5,0-0.8-0.3-1.1-0.6
			c-0.3-0.4-0.7-0.7-1.2-1c-0.7-0.4-1.4-0.7-2.1-1.1c-0.1,0-0.2-0.1-0.3-0.2c-0.5-0.3-1-0.6-1.5-0.9c-0.8-0.4-1.5-1-2.5-1.2
			c-0.1,0-0.2-0.2-0.3-0.2c-1.1-0.7-2.1-1.4-3.2-2c-0.8-0.4-1.7-0.3-2.6-0.1c-0.3,0.1-0.6,0.1-0.9,0.1c-0.8-0.1-1-0.4-1-0.9
			c0-1.4-0.1-2.8-0.2-4.1c-0.1-0.6-0.2-1.1,0.1-1.7c0.2-0.4,0.1-1,0.1-1.4c0-1.2,0.1-2.4,0-3.5c-0.1-0.9,0.1-1.8-0.5-2.4
			c0.5-0.7,0.9-1.2,1.2-1.9c0.2-0.5,0.3-1.1,0.8-1.5c0.2-0.2,0.2-0.5,0.3-0.7c0.5-1.5,0.4-3.1,1-4.6c0.1-0.1,0-0.3,0.1-0.4
			c0-0.4,0-0.8,0.1-1.2c0.1-0.7,0.3-1.4,0.4-2.1c0.1-0.9,0.2-1.9,0.3-2.8c0-0.1,0.1-0.3,0.2-0.4c0.5-1.2,0.7-2.5,0.3-3.8
			c-0.1-0.2-0.1-0.4,0-0.5c0.2-0.6,0.7-1.2,0.7-1.9c0.1-0.7-0.2-1.3,0.2-2c0-0.1,0-0.1,0-0.2c0.1-0.6,0.2-1.1,0.2-1.7
			c0-0.2,0-0.6-0.1-0.7c-0.6-0.5-1.3-0.8-2-0.6c-0.3,0.1-0.5,0-0.7-0.2c-0.8-0.6-1.7-1.2-2.9-0.9c-0.1,0-0.3-0.1-0.4-0.2
			c-0.4-0.3-0.8-0.7-1.3-0.9c-0.5-0.2-1.2-0.3-1.7-0.5c-0.1,0-0.2-0.2-0.4-0.2c-0.3-0.2-0.6-0.3-1-0.5c-0.3-0.1-0.5-0.2-0.8-0.4
			c-0.9-0.5-1.8-1.1-2.9-1c-0.2,0-0.4,0-0.6-0.1c-0.5-0.3-1-0.7-1.6-1c-0.2-0.1-0.5-0.2-0.8-0.2c-0.2-0.1-0.4-0.1-0.6-0.2
			c-0.8-0.5-1.6-0.9-2.5-1c-0.4-0.1-0.8-0.3-1.1-0.5c-0.6-0.3-1.2-0.5-1.9-0.5c-0.2,0-0.5,0.1-0.6,0c-0.5-0.4-1.1-0.6-1.7-0.7
			c-0.7-0.2-1.5-0.4-2.2-0.6c-0.2,0-0.3-0.1-0.4-0.2c-0.5-0.2-1-0.5-1.5-0.7c-0.7-0.3-1.4-0.5-2.1-0.7c-0.3-0.1-0.7-0.1-1.1-0.2
			c-0.5-0.1-1-0.1-1.4-0.2c-1-0.3-2.1-0.8-3.1-1.1c-0.3-0.1-0.6-0.1-0.9-0.1c-0.8-0.2-1.6-0.3-2.5-0.5c-0.9-0.2-1.8-0.4-2.7-0.6
			c-0.3-0.1-0.7-0.2-1-0.4c-0.8-0.5-2.1-0.2-2.4,0.6c-0.1,0.3-0.3,0.4-0.6,0.4c-1.3,0.1-1.9,0.8-2,2.1c0,0.4-0.3,0.7-0.5,1.1
			c-0.5,0.7-1.1,1.4-1.6,2.2c-0.1,0.2-0.1,0.5-0.1,0.7c0,0.3,0,0.5,0.1,0.8c0,0.3-0.1,0.4-0.4,0.5C56.1,62.1,55,62,53.9,62
			c-0.6,0-1.2,0-1.8,0.4c-0.1,0.1-0.3,0.1-0.5,0.1c-1.1,0-2.3,1-2.5,2c-0.3,1.5-0.4,3.1-0.4,4.6c0,0.2,0.1,0.4,0.1,0.6
			c0.1,0.8,0.3,1.7,0.4,2.5c0.1,0.3,0,0.7,0.2,1c0.4,1.3,0.8,2.7,0.5,4.1c0,0.2,0.1,0.5,0.3,0.7c0.3,0.3,0.3,0.5,0.2,0.8
			c-0.1,0.5-0.1,1.1,0.1,1.7c0.2,0.8,0.4,1.6,0.7,2.4c0.1,0.2,0.1,0.5,0.3,0.6c0.7,0.5,0.6,1.2,0.5,1.9c0,0.4,0.1,0.8,0.2,1.1
			c0.2,0.5,0.4,1,0.6,1.5c0.2,0.5,0.3,1.1,0.5,1.6c0.2,0.8,0.4,1.6-0.2,2.4c-0.4,0.5-0.4,1.2-0.2,1.8c0.1,0.2,0,0.4,0,0.6
			c-0.3,0.5-0.3,1.1-0.1,1.7c0.2,0.6,0.4,1.2,0.6,1.9c0.1,0.2,0.1,0.3,0.2,0.5c0.5,0.8,1.1,1.5,1.7,2.3c0.1,0.1,0.2,0.3,0.3,0.4
			c0.3,1,1,1.5,2,1.6c0.4,0,0.5,0.2,0.6,0.6c0.2,0.6,0,1.2-0.1,1.8c0,1,0.2,2.1,0.3,3.1c0,0.2,0.1,0.4,0.1,0.6
			c0,1.2-0.1,2.4,0.2,3.5c0.1,0.4,0,0.8,0.1,1.2c0.1,0.4,0.2,0.7,0.3,1.1c0.1,0.2,0.2,0.4,0.1,0.6c-0.2,1.1,0.6,2.1,1.7,2
			c0.7,0,1.4,0.1,2.1,0.2c1.1,0.1,2.3,0,3.4,0.1c0.6,0,1.1,0.2,1.7,0.3c0.1,0,0.2,0.1,0.1,0.2c0,0.4-0.1,0.9-0.1,1.3
			c-0.1,0.3-0.2,0.6-0.2,1c0,0.7,0.1,1.3,0.2,2c0.1,0.7,0,1.1-0.6,1.5c-0.1,0.1-0.3,0.2-0.4,0.3c-0.4,0.4-1,0.6-1.5,0.3
			c-0.5-0.2-1-0.2-1.5,0.1c-0.3,0.1-0.7,0.2-1,0.2c-0.5-0.1-1,0-1.5,0.3c-0.2,0.1-0.5,0.2-0.8,0.2c-0.7,0-1.3,0-2,0.1
			c-0.3,0-0.6,0.3-0.9,0.4c-0.6,0.4-1.3,0.7-2,0.5c-0.7-0.2-1.3-0.1-2,0.1c-0.2,0.1-0.5,0.1-0.8,0.1c-0.7,0-1.4,0.1-1.9,0.5
			c-0.2,0.2-0.5,0.2-0.8,0.3c-0.5,0-1.1-0.1-1.6,0c-0.8,0.2-1.5,0.9-2.5,0.7c0,0.3,0.1,0.6,0.1,0.9c-0.7,0.3-1.3,0.5-2,0.8
			c-0.8,0.3-1.4,0.8-1.6,1.6c0,0.1-0.2,0.3-0.3,0.4c-0.9,0.4-1.4,1.2-1.8,2c-0.2,0.4-0.5,0.8-0.7,1.1c-0.3,0.5-0.6,1-0.9,1.5
			c-0.2,0.3-0.3,0.6-0.4,0.9c-0.1,0.3-0.3,0.7-0.4,1c-0.1,0.5-0.2,0.9-0.3,1.4c-0.1,0.7-0.2,1.4-0.3,2.2c0,0.2-0.1,0.4-0.2,0.5
			c-0.5,0.5-0.5,1.1-0.6,1.7c-0.1,0.5-0.2,1-0.2,1.5c0,0.3,0,0.6,0,1c0,0.2,0,0.4-0.2,0.6c-0.3,0.4-0.5,0.8-0.5,1.3
			c0,0.3,0,0.8-0.2,1c-0.6,0.8-0.6,1.6-0.2,2.5c0.1,0.2,0.1,0.5,0,0.7c-0.7,1.4-1.3,2.8-1.1,4.4c0,0.1,0,0.2,0,0.3
			c-0.1,0.5-0.1,1-0.2,1.5c-0.2,1-0.3,2.1-0.5,3.1c-0.2,0.8-0.6,1.7-0.6,2.5c0,0.8-0.2,1.4-0.4,2.2c-0.3,1.1,0.1,2.3-0.5,3.4
			c0,0.1,0,0.2,0,0.3c0,0.3-0.1,0.7-0.2,1c-0.1,0.7-0.3,1.5-0.4,2.2c0,0.2,0.1,0.4,0.1,0.7c0,0.3,0.1,0.7,0,1
			c-0.1,0.6-0.4,1.1-0.6,1.7c-0.5,1.1-0.2,2.2-0.4,3.3c0,0.1,0.1,0.3,0.1,0.5c0,0.3,0,0.5-0.1,0.8c-0.3,0.7-0.5,1.5-0.5,2.3
			c0,0.4-0.1,0.9-0.2,1.3c-0.2,0.7-0.6,1.4-0.2,2.2c0,0.1-0.1,0.3-0.2,0.5c-0.5,0.8-0.5,1.3,0,2c0.3,0.4,0.2,0.7-0.1,1
			c-0.3,0.3-0.5,0.7-0.5,1.1c-0.2,1-0.3,2.1-0.4,3.2c-0.4,0.1-0.9,0.2-1.4,0.2c-1.1,0-2.3,0-3.4,0c-0.2,0-0.5,0.1-0.7,0.2
			c-0.6,0.3-1.2,0.3-1.8,0.2c-0.8-0.1-1.6-0.1-2.4-0.2c-0.8,0-1.5,0-2.3,0c-0.4,0-0.8,0-1.1,0c-0.9,0-1.8,0.2-2.7,0.1
			c-1.2-0.1-2.4-0.2-3.6,0.1c-0.1,0-0.3,0-0.4-0.1c-0.6-0.2-1.1-0.2-1.7,0c-0.2,0.1-0.4,0.1-0.6,0.1c-0.9-0.2-1.8-0.5-2.7-0.1
			c-0.1,0-0.1,0-0.2,0c-1-0.3-1.9,0-2.8,0.3C0.3,196,0,196.4,0,197c0,0.5,0.3,1.1,0.8,1.2c0.9,0.3,1.8,0.6,2.8,0.3
			c0.1,0,0.3-0.1,0.4,0c0.8,0.4,1.6,0,2.4-0.1c0.3-0.1,0.6,0,0.9,0.1c0.5,0,1,0,1.6,0c0.2,0,0.4-0.1,0.5,0c1,0,2.1,0.1,3.1,0.1
			c1,0,2.1,0,3.1,0c0.4,0,0.8,0,1.2-0.1c0.6-0.1,1.3-0.3,1.8-0.2c1,0.2,1.9,0,2.8-0.1c0.6-0.1,1.2-0.2,1.8,0.1
			c0.2,0.1,0.4,0.1,0.6,0.2c0.7,0,1.4,0.1,2.1,0.1c0.3,0,0.7-0.1,1-0.1c0.3,0,0.5,0,0.8,0c0.3,0,0.7,0,1-0.1c0.4-0.1,0.6,0,0.7,0.4
			c0.3,1.2,1.3,1.6,2.2,2.1c0.4,0.2,0.9,0.1,1.3,0.2c0.2,0,0.5,0.1,0.7,0.2c0.4,0.4,1,0.7,1.5,0.5c0.8-0.3,1.5-0.3,2.3-0.2
			c0.7,0.1,1.4,0,2.1,0.2c1.1,0.4,2.3,0.6,3.5,0.9c0.2,0.1,0.4,0.1,0.7,0.1c0.7,0.1,1.4,0.3,2.2,0.4c0.4,0.1,0.9,0.1,1.3,0.1
			c0.4,0,0.8,0,1.1,0c0.8,0,1.6,0.1,2.4,0.4c0.2,0.1,0.6,0,0.8,0c1-0.2,1.9-0.3,2.9,0c0.7,0.3,1.6,0.5,2.4,0c0.1-0.1,0.3,0,0.4,0.1
			c0.6,0.3,1.1,0.4,1.8,0.3c0.4,0,0.8,0.1,1.2,0.2c1.1,0.2,2.2,0.6,3.2-0.2c0.1-0.1,0.5-0.1,0.6,0.1c0.6,0.7,1.5,0.8,2.3,0.9
			c1.4,0.1,2.7,0.1,4.1,0.2c0.5,0,0.9,0.1,1.4,0.2c0.2,0,0.4,0.1,0.6,0c0.7-0.2,1.4-0.1,2.1,0.1c0.7,0.1,1.4,0.4,2.1,0
			c0.4-0.2,0.8-0.4,1.3-0.7c0.5-0.3,1.1-0.3,1.7-0.2c1.6,0.3,3.2,0.9,4.8,0.7c0.1,0,0.4,0,0.4,0.1c0.7,1.3,2.1,1.3,3.2,1.6
			c0.9,0.3,2,0.1,3-0.1c0.6-0.1,1.2-0.5,1.8-0.8c0.1,0.2,0.2,0.5,0.2,0.8c-0.5,0.2-1,0.5-1.6,0.4c-0.2-0.1-0.4,0.1-0.6,0.1
			c-0.1,0-0.3,0.2-0.3,0.1c-0.6-0.4-1.3-0.1-1.9-0.1c-0.9,0-1.4,0.7-1,1.4c0.4,0.8,0.9,1.5,1.8,1.7c0.6,0.2,1.3,0.3,1.7,0.9
			c0.1,0.2,0.3,0.3,0.5,0.3c0.8,0.1,1.3,0.6,2,1c0.6,0.3,1.2,0.5,1.7,0.8c1.1,0.6,2.1,1.3,3.2,1.9c0.3,0.2,0.7,0.2,1,0.4
			c1,0.5,1.9,1.1,2.9,1.6c0.2,0.1,0.3,0.2,0.4,0.3c1,0.6,1.9,1.1,2.9,1.6c0,0,0.1,0,0.1,0c0.9,0,1.3,0.7,2.1,1
			c0.7,0.3,1.2,1,1.9,1.4c0.2,0.2,0.6,0.2,0.9,0.2c0.5-0.1,1-0.2,1.5-0.3c1.1-0.3,2.2-0.3,3.4-0.2c0.3,0,0.6,0,0.9-0.1
			c0.8-0.1,1.6-0.4,2.4-0.1c0.8,0.3,1.6,0.2,2.4-0.1c0.5-0.2,1.1-0.1,1.6-0.1c0.4,0,0.8,0,1.1,0c0.9-0.1,1.8-0.2,2.7-0.3
			c0.1,0,0.1,0,0.2,0c0.4,0,0.8,0,1.1,0c0.6-0.1,1.3-0.3,1.9-0.2c0.8,0.2,1.6,0.3,2.4-0.1c0.5-0.2,1-0.3,1.5-0.1
			c0.3,0.1,0.6,0,0.9,0c0.7-0.1,1.3-0.1,2-0.2c0.7-0.1,1.3-0.2,2-0.3c0.1,0,0.3-0.1,0.4-0.1c1.5,0,3,0.1,4.5,0.1
			c0.7,0,1.4-0.1,2.1-0.2c0.2,0,0.3-0.1,0.5-0.1c0.7-0.3,1.5-0.6,2.3-0.2c0.2,0.1,0.5,0.1,0.7,0.1c0.9-0.4,1.8-0.4,2.8-0.3
			c0.8,0.1,1.7,0.2,2.5-0.4c0,0,0.1,0,0.2,0c0.8,0,1.7,0,2.5-0.1c0.7-0.1,1.4-0.3,2.1-0.2c0.7,0.1,1.4,0.2,2-0.2
			c0.3-0.1,0.6-0.2,0.9-0.3c0.4-0.2,0.8-0.2,1.3,0c0.5,0.3,1,0.3,1.5,0.1c0.5-0.2,1-0.4,1.5-0.4c0.7,0,1.4,0.2,2.1,0.2
			c0.4,0,0.9-0.1,1.3-0.2c0.2,0,0.4-0.1,0.6-0.1c1.1,0.3,2.1-0.1,3.2-0.1c0.2,0,0.3-0.1,0.5-0.2c0.4-0.3,0.9-0.3,1.3-0.1
			c0.5,0.2,0.9,0.2,1.4,0c0.1-0.1,0.3-0.1,0.5-0.1c1.7,0.4,3.1-0.4,3.6-2.1c0.2-0.7,0.2-1.5,0.6-2.1c0.5-0.8,0.7-1.6,0.5-2.4
			c-0.1-0.4,0.1-0.6,0.4-0.9c0.9-0.7,1.1-1.9,1.3-2.9c0.1-0.5,0.2-1.1,0.2-1.6c0.1-1.1,0.8-2,1.1-3c0.3-0.8,0.6-1.7,0.9-2.5
			c0.2-0.7,0.2-1.5,0.6-2.2c0-0.1,0-0.2,0.1-0.3c0.2-0.8,0.5-1,1.3-1c0.4,0,0.8,0.1,1.3,0.1c0.7,0,1.4,0.1,2-0.4
			c0.1-0.1,0.3,0,0.4,0c0.9,0.1,1.8,0.3,2.6,0.4c0.6,0.1,1.2-0.1,1.8-0.1c0.3,0,0.5-0.1,0.8-0.1c0.6,0,1.2,0,1.8,0
			c0.3,0,0.5,0,0.8,0c0.5-0.2,0.9-0.2,1.4,0.1c0.2,0.1,0.6,0.1,0.9,0c0.8-0.1,1.5-0.2,2.3-0.3c0.1,0,0.2,0,0.3,0
			c0.4,0,0.9,0.1,1.3,0.1c0.5,0,1.1,0,1.6,0.1c0.7,0.1,1.4-0.1,1.7-0.6C209.2,194.9,209.2,194.3,208.9,193.8z M101.3,127.2
			c-0.8-0.4-1.7-0.7-2.6-0.7c-0.7-0.1-1.4-0.1-2.2-0.2c-0.6-0.1-1.3-0.1-2-0.3c-1.1-0.4-2.3-0.5-3.5-0.7c-0.1-0.5-0.3-1-0.3-1.5
			c0-0.5,0-1,0.2-1.4c0.2-0.5,0.3-1,0.1-1.6c-0.1-0.5-0.2-1-0.3-1.5c-0.1-0.4,0.1-0.6,0.5-0.6c1-0.1,2-0.2,3-0.2
			c0.6,0,1.2,0,1.7,0.5c0.1,0.2,0.4,0.3,0.6,0.3c0.7,0,1.4,0,2.1,0c0.6-0.1,1-0.5,1.1-1.1c0.1-0.5,0.4-0.9,0.9-1.2
			c0.3-0.2,0.5-0.6,0.7-1c0.1-0.3,0.2-0.4,0.6-0.3c0.3,0.1,0.6,0,1,0c-0.6,0.6-1.1,1.2-1.7,1.7c-0.7,0.6-0.8,1.9-0.2,2.6
			c0.4,0.5,0.3,0.5-0.2,0.8c-0.9,0.4-1.7,0.9-2.5,1.5c-0.3,0.2-0.4,0.7-0.4,1.1c-0.1,1.7,1,2.5,2.8,2.3c0.6-0.1,1.2,0,1.7,0.4
			c0.5,0.3,1,0.4,1.5,0.7c0.2,0.1,0.4,0.4,0.5,0.6C103.3,127.4,102.3,127.7,101.3,127.2z M114.4,198.4c-0.1,0.6-0.1,1.2-0.1,1.7
			c0,0.2,0,0.5-0.1,0.7c-0.3,1.1-0.7,2.2-1,3.3c-0.1,0.4-0.3,0.7-0.5,1c0,0.1-0.3,0.1-0.4,0.1c-0.7-0.3-1.4-0.3-2.1,0.3
			c-0.1,0.1-0.5,0.1-0.7,0c-0.5-0.2-1-0.3-1.6-0.1c-0.5,0.2-1-0.2-1.2-0.7c-0.1-0.6-0.6-1.1-0.5-1.8c0-0.1-0.1-0.3-0.2-0.5
			c-0.3-0.7-0.7-1.4-1-2.2c0.1-0.1,0.1-0.1,0.2-0.2c0.7,0.5,1.4,1.1,2.1,1.6c0.4,0.3,0.9,0.7,1.3,0.9c0.5,0.3,1.1,0.5,1.6,0.8
			c0.6,0.3,1.2,0.3,1.7-0.1c0.5-0.4,0.7-0.9,0.6-1.6c0-0.2,0.1-0.5,0.3-0.6c0.8-0.5,0.9-1.4,1-2.1c0-0.7-0.6-1.3-1.3-1.7
			c-0.2-0.1-0.4-0.2-0.7-0.4c1-0.1,1.8-0.1,2.8-0.2C114.7,197.5,114.5,198,114.4,198.4z M115.2,194.3c-0.6,0.1-1.1,0.2-1.7,0.2
			c-0.9,0-1.8-0.1-2.7,0c-1.2,0.1-2.1-0.2-3-1c-0.3-0.3-0.9-0.4-1.3-0.5c-0.2-0.1-0.4,0-0.5-0.1c0-1.5,0.5-3,0-4.4
			c0-0.1,0-0.3,0-0.4c0.1-0.5,0.2-1,0.3-1.5c0.3,0.2,0.7,0.4,0.7,1c0,0.2,0.1,0.4,0.2,0.6c0.1,0.3,0.3,0.6,0.4,0.9
			c0.2,0.3,0.5,0.7,0.8,0.9c0.3,0.3,0.7,0.6,1.1,0.9c0.1,0.1,0.2,0.3,0.3,0.4c0.7,0.5,1.4,1.1,2.1,1.5c0.6,0.3,1.3,0.3,1.9,0.5
			c0.5,0.1,1,0.2,1.5,0.4c0.1,0,0.3,0.2,0.3,0.4C115.5,194.1,115.3,194.3,115.2,194.3z"/>
		<path class="st0" d="M103,192c-0.7,0.2-1.4,0.5-2.2,0.7c-0.1,0-0.3,0.1-0.4,0.1c-1.3-0.1-2.5,0.3-3.7,0.7
			c-0.2,0.1-0.5,0.1-0.8,0.1c-0.6-0.1-1.1,0-1.5,0.4c-0.3,0.3-0.7,0.3-1.2,0.3c-0.4,0-0.9,0.1-1.3,0.3c-0.8,0.3-1.6,0.8-2.4,0.1
			c-0.1-0.1-0.3-0.2-0.5-0.2c-0.7-0.1-1.5-0.1-2.2-0.2c-0.6-0.1-1.3-0.3-1.9-0.5c-0.2-0.1-0.5-0.3-0.7-0.2c-1,0.2-1.8-0.3-2.7-0.4
			c-0.3-0.1-0.5-0.2-0.7-0.5c-0.4-0.6-0.9-1-1.7-1c-0.2,0-0.5-0.1-0.6-0.2c-0.5-0.4-1-0.5-1.6-0.4c-0.2,0-0.5,0-0.7-0.2
			c-0.5-0.3-0.9-0.4-1.4-0.2c-0.5,0.2-0.9,0-1.3-0.2c-0.4-0.2-0.9-0.3-1.3-0.4c-0.3-0.1-0.7-0.2-1-0.3c-0.4-0.1-0.8-0.2-1.2-0.3
			c-0.3-0.1-0.6-0.1-0.9-0.2c-0.5-0.1-0.9-0.3-1.4-0.4c-0.9-0.2-1.8-0.3-2.6-0.5c-0.2,0-0.4-0.1-0.5-0.3c-0.8-0.6-1.7-0.8-2.7-0.7
			c-0.8,0.1-1.6,0.1-2.4-0.3c-0.5-0.2-1.1-0.2-1.7-0.2c-0.1,0-0.2,0.1-0.3,0c-1-0.4-2.1-0.3-3.2-0.4c-0.5,0-0.9-0.3-1.4-0.5
			c-0.7-0.3-1.4-0.6-2.1-0.9c0-1.1,0.1-2.4,0.6-3.6c0.1-0.1,0.1-0.3,0.1-0.5c-0.3-0.8-0.1-1.4,0.2-2.1c0.2-0.4,0-0.9,0-1.4
			c0-0.2-0.1-0.4,0-0.6c0.1-0.5,0.3-1.1,0.4-1.6c0.2-0.9,0.3-1.7,0.5-2.6c0.1-0.6,0.1-1.1-0.2-1.5c-0.2-0.4-0.2-0.7,0.2-1.1
			c0.7-0.7,0.6-1.7,0.8-2.5c0.1-0.4,0.1-0.8,0.2-1.1c0.1-0.5,0.1-0.9,0-1.5c-0.1-0.6,0.1-1.3,0.3-1.9c0.4-0.7,0.4-1.6-0.3-2.1
			c-0.1-0.1-0.3-0.1-0.4-0.1c-0.7,0.1-1.3,1-1.1,1.8c0.2,0.8,0,1.5-0.5,2.1c-0.1,0.2-0.2,0.3-0.3,0.5c-0.3,1.2-0.6,2.3-0.8,3.5
			c-0.1,0.3,0.1,0.7,0.1,1c0,0.3,0,0.7-0.2,0.8c-0.9,0.7-0.9,1.7-1.1,2.6c-0.1,0.7-0.3,1.3-0.3,2c0,1-0.4,2-0.5,2.9
			c-0.1,0.9,0,1.8-0.4,2.6c-0.1,0.2,0,0.4,0,0.6c0,0.8,0.2,1.6-0.3,2.3c-0.1,0.2-0.2,0.6-0.1,0.8c0.3,0.7,0.1,1.4-0.1,2.1
			c-0.2,0.7,0,1.3,0.5,1.6c0.5,0.3,1,0.3,1.6-0.2c0.1-0.1,0.4-0.1,0.6,0c0.5,0.1,1,0.3,1.4,0.3c1.2,0,2.4,0.3,3.6,0.7
			c1.1,0.5,2.3,0.8,3.5,0.8c1,0,2,0.2,2.9,0.6c0.7,0.3,1.4,0.4,2.2,0.3c0.3-0.1,0.6,0.1,0.9,0.2c1.2,0.5,2.5,1,3.8,1.1
			c0.3,0,0.5,0.2,0.8,0.3c0.4,0.1,0.8,0.2,1.2,0.3c0.4,0.1,0.7,0.1,1.1,0.1c0.5,0,1,0.1,1.4,0.1c0.4,0.1,0.7,0.2,1.1,0.3
			c0.3,0.1,0.5,0.4,0.8,0.4c0.8-0.1,1.4,0.2,2.1,0.5c0.2,0.1,0.6,0.1,0.9,0.1c0,0.1,0,0.3,0,0.4c0,0.3-0.1,0.6-0.1,0.8
			c0.1,0.8,0.1,1.6-0.1,2.4c-0.2,0.7-0.2,1.5-0.4,2.2c-0.3,0.9-0.6,1.9-0.2,3c-1-1.1-2.1-0.8-3.3-0.7c-0.4,0-0.9-0.1-1.3-0.1
			c-0.2,0-0.5-0.1-0.7-0.1c-0.8-0.1-1.6-0.1-2.4-0.2c-0.5,0-1,0-1.5-0.1c-0.2,0-0.4,0-0.5,0c-0.8-0.1-1.6-0.1-2.4-0.1
			c-0.3,0-0.6,0.2-0.8,0.3c-0.3,0.2-0.5,0.1-0.8-0.1c-0.4-0.3-0.8-0.6-1.3-0.7c-0.7-0.2-1.4-0.3-2.1-0.1c-0.3,0.1-0.7-0.1-1-0.2
			c-0.6-0.2-1.2-0.2-1.7,0.1c-0.1,0.1-0.4,0.1-0.5,0.1c-0.8-0.6-1.6-0.5-2.5-0.3c-1,0.2-1.8-0.1-2.7-0.4c-0.6-0.2-1.2-0.3-1.8,0
			c-0.2,0.1-0.5,0.1-0.7,0.1c-0.2,0-0.5,0-0.7-0.1c-0.4-0.1-0.8-0.2-1.2-0.2c-0.4-0.1-0.8-0.1-1.2-0.2c-0.7-0.1-1.3-0.2-2-0.2
			c-0.2,0-0.5-0.1-0.7-0.1c-1.1-0.1-2.3-0.3-3.4-0.4c-1.1-0.1-2.1,0-3.2-0.1c-0.2,0-0.4,0-0.5-0.2c-0.5-0.6-1.2-0.8-2-0.6
			c-0.1,0-0.3,0-0.4-0.1c-0.5-0.2-1-0.5-1.5-0.7c-0.5-0.2-0.7-0.4-0.7-1c0.1-1.4,0.2-2.8,0.3-4.3c0-0.4-0.2-0.9-0.4-1.2
			c-0.2-0.4-0.2-0.7,0.1-1c0.6-0.6,0.7-1.1,0.4-2c-0.1-0.2,0-0.4,0.1-0.6c0.4-0.4,0.5-0.8,0.3-1.3c-0.2-0.5,0-0.9,0.3-1.2
			c0.4-0.4,0.6-0.8,0.6-1.3c0-0.7,0.1-1.3,0.1-2c0-0.1,0-0.1,0-0.2c0.3-0.8,0.3-1.6,0.5-2.5c0.2-1.1,0.1-2.1,0-3.2
			c0-0.4,0.1-0.8,0.3-1.1c0.3-0.5,0.5-0.9,0.4-1.4c0-0.1,0-0.2,0-0.3c0.2-0.7,0.4-1.4,0.6-2.2c0-0.1,0.1-0.1,0.1-0.2
			c-0.2-1.2,0.6-2.2,0.7-3.3c0.1-0.8,0-1.6,0.5-2.3c0,0,0,0,0-0.1c0-0.9,0-1.7,0.1-2.6c0.1-1.1,0.4-2.3,0.6-3.4
			c0.1-0.9,0.5-1.7,0.6-2.6c0.1-1.1,0.4-2.2,0-3.3c-0.1-0.1,0.1-0.4,0.2-0.6c0.7-0.6,0.9-1.3,0.7-2.3c-0.1-0.3,0.1-0.7,0.2-1.1
			c0-0.2,0.2-0.4,0.2-0.6c-0.4-1.1,0.4-2,0.5-3c0-0.7,0.4-1.5,0.6-2.2c0.3-1,0.4-2.2,0.8-3.1c0.4-0.7,0.8-1.4,1.1-2.2
			c0.3-0.6,0.7-1.2,0.9-1.9c0.1-0.3,0.4-0.5,0.6-0.8c0.4-0.6,0.8-1.2,1.2-1.7c0.1-0.2,0.3-0.3,0.4-0.4c0.3-0.2,0.6-0.4,0.9-0.6
			c0.6-0.5,1.2-1,1.9-1.4c0.4-0.2,0.9-0.5,1.3-0.4c0.8,0,1.4-0.4,2-0.7c0.2-0.1,0.4-0.2,0.6-0.1c0.8,0.3,1.5,0.1,2.3-0.2
			c0.2-0.1,0.3-0.2,0.5-0.2c0.9,0,1.6-0.4,2.4-0.8c0.5-0.3,1.2-0.1,1.8-0.2c0.5,0,1,0,1.4-0.1c0.6-0.1,1.1-0.6,1.6-0.6
			c1,0,1.9-0.1,2.8-0.6c0.2-0.1,0.6,0.1,0.9,0c0.4-0.1,0.8-0.3,1.2-0.5c0.3,0.6,0.8,1.1,1.6,1.2c0.1,0,0.2,0.2,0.2,0.3
			c0,1,0.7,1.5,1.3,2.1c0.2,0.2,0.4,0.5,0.5,0.7c0.3,0.3,0.6,0.6,0.9,1c0.2,0.2,0.5,0.4,0.6,0.7c0.6,1,1.4,1.9,2.2,2.7
			c0.7,0.6,1.3,1.2,1.9,1.9c0.1,0.1,0.2,0.2,0.2,0.3c0.2,0.8,0.8,1.2,1.5,1.5c0.4,0.1,0.6,0.8,0.8,1.2c0.3,0.7,0.7,1,1.3,1.1
			c0.7,0,1-0.2,1.3-0.8c0.3-0.7,0.9-1.1,1.5-1.5c0.1-0.1,0.2-0.1,0.3-0.2c0.7-0.5,1.4-1.1,2-1.7c0.2-0.2,0.5-0.4,0.4-0.8
			c0-0.1,0.2-0.3,0.4-0.5c0.8-0.7,1.6-1.4,2.3-2.2c0.6-0.6,1.1-1.3,1.6-2c0.4-0.5,0.8-1,1.1-1.6c0.2-0.5,0.2-1.1,0.2-1.6
			c0-0.1,0-0.2,0-0.3c0.1,0,0.3,0,0.4,0c0.8,0.2,1.7,0.4,2.5,0.5c0.7,0.1,1.4,0.2,2.2,0.4c0.7,0.2,1.4,0.2,2,0.6
			c0.1,0.1,0.2,0.1,0.3,0.1c0.9,0.1,1.9,0,2.8,0.2c0.7,0.1,1.4,0.3,2,0.6c0.6,0.3,1.2,0.4,1.8,0.1c0.1-0.1,0.4,0,0.6,0.1
			c0.6,0.4,1.1,0.5,1.7,0.1c0.3,0.1,0.4,0.3,0.4,0.7c0,0.7,0.3,1.4,0.5,2.2c0,0.1,0.1,0.1,0.1,0.2c0,0.8,0,1.6,0,2.4
			c0,0.3,0,0.6,0,0.9c0.1,0.5,0.2,0.9,0.3,1.4c0.1,0.4,0,0.8,0,1.2c0,0.2,0,0.4,0,0.6c0.2,0.6,0.4,1.1,0.2,1.7c0,0.1,0,0.3,0.1,0.4
			c0.5,0.6,0.5,1.3,0.6,2c0.2,0.7,0,1.5,0,2.2c0,1.3,0,2.6,0.6,3.9c0.2,0.5,0.1,1.1,0.2,1.7c0.2,1.2,0.4,2.4,0.7,3.6
			c0,0.2,0,0.4,0,0.6c-0.3,0.6-0.1,1.1,0.1,1.7c0.2,0.4,0.1,1,0.2,1.4c0.1,0.4,0.1,0.7,0.2,1.1c0,0.4,0.1,0.8,0.1,1.2
			c0,0.2-0.1,0.4-0.1,0.5c0.2,1,0.4,1.9,0.6,2.9c0,0.2,0.1,0.4,0.1,0.6c-0.1,1,0,1.9,0.5,2.7c0.1,0.1,0.1,0.3,0.1,0.5
			c0,0.7-0.1,1.4,0,2.1c0.1,0.8,0.3,1.7,0.4,2.5c0,0.2,0,0.4,0.2,0.6c0.6,0.8,0.4,1.8,0.4,2.7c0,0.1,0,0.1,0,0.2
			c0,0.8,0.3,1.4,1,1.7c0.5,0.3,1.2,0.2,1.7-0.2c0.5-0.5,0.7-1.3,0.5-2c-0.2-0.6-0.4-1.3-0.6-1.9c0-0.1-0.1-0.2,0-0.3
			c0.3-1.7-0.2-3.3-0.3-4.9c0-0.2,0-0.4-0.1-0.5c-0.5-0.6-0.2-1.3-0.2-1.9c0-0.6-0.3-1.2-0.3-1.8c-0.1-1-0.2-2-0.3-2.9
			c-0.1-0.4-0.2-0.9-0.3-1.3c-0.1-0.3-0.2-0.6-0.2-0.8c-0.1-0.6-0.1-1.2-0.2-1.8c-0.1-0.5-0.2-0.9,0-1.3c0.2-0.5-0.1-1-0.4-1.4
			c-0.1-0.2-0.2-0.4-0.2-0.6c0-0.6,0-1.2-0.1-1.8c-0.1-1-0.4-1.9-0.6-2.9c0-0.2-0.1-0.4,0-0.5c0.4-1.3-0.1-2.5-0.3-3.7
			c-0.2-0.9-0.6-1.8-0.6-2.8c0-0.5,0-1,0-1.5c0-0.9-0.1-1.8-0.4-2.7c-0.3-0.9-0.6-1.8-0.4-2.7c0-0.1,0-0.3,0-0.4
			c-0.7-0.8-0.2-2-0.8-2.8c0.6-0.3,1.1-0.9,1.8-0.4c0,0,0.1,0,0.2,0c0.9-0.2,1.8-0.4,2.7-0.7c0.2-0.1,0.4-0.2,0.7-0.2
			c0.7-0.2,1.4-0.3,2.1-0.5c0.3-0.1,0.5-0.1,0.7-0.2c0.4-0.1,0.6,0,0.7,0.4c0.4,2,0.8,4.1,1.2,6.1c0.1,0.5,0.4,0.9,0.5,1.3
			c0.2,0.6,0.3,1.3,0.4,2c0,0.2-0.1,0.4,0,0.5c0.6,1.1,0.4,2.5,1.2,3.5c0.1,0.2,0.2,0.5,0.2,0.7c0.2,0.5,0.3,1.1,0.4,1.6
			c0,0.2,0.1,0.4,0.1,0.5c0.2,1,0.2,1.9,0.3,2.9c0.1,0.9,0.5,1.8,0.8,2.7c0.1,0.3,0.4,0.5,0.5,0.8c0.1,0.3,0.3,0.6,0.3,0.8
			c-0.1,1.3,0,2.5,0.5,3.7c0.3,0.7,0.3,1.5,0.5,2.2c0.1,0.4,0.3,0.8,0.5,1.2c0,0.1,0.1,0.2,0.1,0.3c0.3,1.2,0.5,2.3,0.7,3.5
			c0.2,0.8,0,1.1-0.9,1.1c-0.4,0-0.9,0.1-1.3,0.2c-0.1,0-0.2,0.1-0.4,0.1c-0.7,0-1.3,0-2,0.1c-1,0.1-1.6,1-1.2,1.9
			c0.2,0.6,0.1,1.1-0.3,1.6c-0.2,0.2-0.3,0.4-0.3,0.6c-0.2,0.7-0.2,1.3-0.4,2c-0.3,1.1-0.4,2.2-0.9,3.2c-0.2,0.4-0.2,0.8-0.1,1.2
			c0,0.5,0.1,0.9-0.4,1.2c-0.5,0.3-0.6,0.8-0.6,1.4c0.1,0.6,0,1.2-0.5,1.6c-0.1,0.1-0.2,0.2-0.2,0.3c-0.2,0.9-0.4,1.7-0.5,2.6
			c0,0.2-0.1,0.4-0.1,0.6c-0.2,0.7-0.3,1.3-0.5,2c-0.1,0.3-0.2,0.6-0.3,0.9c-0.1,0.5-0.3,0.9-0.4,1.4c0,0.3-0.1,0.5-0.4,0.6
			c-0.8,0.1-1.6-0.1-2.3-0.7c-0.4-0.4-1-0.5-1.5-0.8c-0.7-0.4-1.5-0.8-1.9-1.7c-0.1-0.2-0.2-0.3-0.3-0.5c-0.4-0.5-0.9-0.9-1.3-1.4
			c0,0-0.1-0.1-0.1-0.1c0.1-0.9-0.7-1.5-1-2.3c-0.4-0.9-0.7-1.8-1.1-2.6c-0.1-0.3-0.4-0.5-0.6-0.7c-0.5-0.3-0.7-0.7-0.3-1.2
			c0.1-0.1,0.2-0.3,0.2-0.4c0.1-0.8,0.2-1.5,0.2-2.3c0-0.8,0-1.6,0-2.4c0-0.2,0.1-0.4,0-0.5c-0.3-0.6,0-1.2,0-1.9c0-0.4,0-0.9,0-1.3
			c0-0.6,0.2-1.2,0-1.7c-0.4-1.2-0.1-2.4-0.2-3.6c0-0.7-0.2-1.3-0.4-2c-0.1-0.4-0.5-0.7-0.9-0.6c-0.5,0.1-0.7,0.5-0.8,1
			c-0.1,0.4-0.2,0.8-0.2,1.2c0,0.6,0,1.2,0,1.8c0,0.7,0.1,1.3-0.2,2c-0.1,0.4,0,0.9,0,1.3c0,1-0.3,1.9,0.1,2.9c0,0.1,0,0.2,0,0.2
			c-0.4,0.7-0.2,1.5-0.2,2.3c0,0.1,0,0.3,0,0.4c-0.1,1-0.1,1.9-0.2,2.9c0,0,0,0.1,0,0.1c0.7,1.1,0,2.1,0,3.2c0,0.8,0.1,1.7-0.2,2.5
			c-0.1,0.2,0.1,0.5,0.1,0.8c0,0.5,0,1,0,1.6c0,0.5,0,0.9,0.1,1.4c0,0.2,0.1,0.4,0.1,0.6C102.6,189.7,102.8,190.8,103,192z"/>
		<path class="st1" d="M124.1,170.7c1.3-0.1,2.3-0.2,3.4-0.1c1.1,0.1,1.9-0.2,2.8-0.7c0.1-0.1,0.3,0,0.4,0c0.1,0,0.2,0.1,0.3,0.1
			c1.1-0.1,2.2,0.3,3.3,0c0.1,0,0.3-0.1,0.4-0.1c0.7,0.2,1.3,0,1.9-0.4c0.2-0.1,0.6,0,0.9,0.1c0.3,0,0.7,0.2,1,0.2
			c1.5-0.4,3,0,4.4-0.3c0.1,0,0.3,0,0.4-0.1c0.8-0.4,1.8-0.2,2.6-0.4c0.8-0.2,1.6-0.4,2.4-0.7c0.4-0.2,0.8-0.3,1.2,0
			c0.7,0.4,1.4,0.6,2.2,0.3c0.2-0.1,0.4,0,0.7,0c0.5-0.1,1.1-0.1,1.6-0.2c0.5-0.1,1.1-0.1,1.6-0.2c0.3,0,0.6,0,0.9-0.1
			c0.4-0.3,0.7-0.3,1.2-0.1c0.8,0.3,1.4,0.1,1.9-0.6c1.5,0.4,2.9,0.5,4.4,0.2c0.4-0.1,0.9,0,1.4-0.1c1.3-0.2,2.5-0.4,3.7-0.5
			c0.2,0,0.5,0.1,0.7,0.1c0.4,0,0.9,0,1.3,0c0.5,0,1-0.1,1.6-0.1c0.3,0,0.6,0.1,0.9,0.1c0.6,0,1.3-0.1,1.9-0.1c0,0,0.1,0,0.1,0
			c0.6,0.1,0.9-0.7,1.7-0.4c0.5,0.2,1.1-0.1,1.7-0.2c0.2,0,0.5,0,0.7,0.1c0.3,0,0.6,0.2,0.8,0.1c0.7-0.3,1.5-0.2,2.2-0.2
			c0.5,0,1.1-0.4,1.5-0.3c1,0.2,1.9-0.1,2.8-0.1c1.3-0.1,2.5-0.1,3.8-0.2c0.7-0.1,1.4-0.2,2.1-0.3c0.2,0,0.5,0,0.7,0.2
			c0.1,0.1,0.1,0.4,0.1,0.7c-0.2,0.9-0.5,1.8-0.8,2.6c0,0.1-0.1,0.2-0.2,0.3c-0.4,0.3-0.4,0.8-0.5,1.2c-0.1,0.5-0.4,0.9-0.6,1.4
			c-0.1,0.3-0.2,0.6-0.3,0.9c-0.2,0.5-0.4,1.1-0.6,1.6c-0.2,0.5-0.3,0.9-0.4,1.4c0,0.1,0,0.2,0,0.3c-0.4,0.9-0.8,1.8-1.1,2.7
			c-0.4,1.1-0.8,2.3-1,3.5c-0.1,0.9-0.6,1.7-0.9,2.6c-0.2,0.6-0.4,1.2-0.6,1.9c-0.1,0.5-0.2,1-0.3,1.6c0,0.1-0.1,0.2-0.2,0.3
			c-0.6,0.5-0.7,1.3-0.8,2c0,0.2-0.1,0.5-0.2,0.7c-0.2,0.5-0.4,1.1-0.4,1.6c-0.1,0.4-0.1,0.8-0.4,1.1c-0.2,0.3-0.4,0.6-0.5,1
			c-0.2,0.9-0.7,1.7-0.5,2.7c0,0.1-0.1,0.2-0.2,0.3c-0.6,0.5-0.8,1-0.7,1.8c0,0.1,0,0.2,0,0.3c-0.7,0.8-0.8,1.8-0.7,2.8
			c0,0.1-0.1,0.3-0.1,0.4c-0.2,0.6-0.5,1.2-0.7,1.9c0,0,0,0.1,0,0.1c-0.9,0.6-0.8,1.6-1,2.4c-0.1,0.4-0.1,0.9,0,1.4
			c0.1,0.3,0.1,0.6-0.2,0.8c-0.7,0.6-1,1.4-1,2.3c0,0.7-0.5,1.4-0.7,2.1c0,0.1-0.2,0.1-0.3,0.1c-0.7,0.1-1.4,0.5-2.1,0.2
			c-0.1,0-0.2,0-0.2,0c-0.8,0.6-1.6,0.3-2.5,0.2c-1-0.1-2-0.1-3,0.3c-0.2,0.1-0.4,0-0.5,0c-0.5,0-1,0-1.5,0.1
			c-0.7,0.1-1.3,0.4-2,0.5c-0.5,0.1-1-0.1-1.5-0.2c-0.6-0.1-1.1,0-1.6,0.3c-0.3,0.2-0.6,0.3-0.9,0.2c-0.6,0-1.1-0.2-1.7-0.3
			c-0.2,0-0.5-0.1-0.6-0.1c-0.9,0.5-1.8,0.1-2.7,0.3c-0.8,0.2-1.5,0.2-2.3,0.3c-0.3,0-0.6,0.1-0.8,0c-1.2-0.5-2.3-0.1-3.4,0.2
			c-0.3,0.1-0.7,0-1.1-0.1c-0.6-0.2-1.2-0.2-1.7,0.2c-0.6,0.4-1.2,0-1.8,0c-0.5,0-0.9,0-1.4,0c-0.1,0-0.1,0.1-0.2,0
			c-1-0.3-1.9,0.2-2.8,0.3c-0.9,0.1-1.7,0.2-2.6,0.3c-0.2,0-0.4,0.1-0.5,0c-0.9-0.2-1.8-0.1-2.6,0c-0.3,0-0.6,0.1-0.8,0
			c-0.7-0.1-1.4-0.1-2,0.3c-0.2,0.1-0.4,0.1-0.6,0c-1-0.3-2-0.2-3,0.2c-0.5,0.2-1.2,0-1.8,0c-0.4,0-0.8,0.1-1.1,0.1
			c-0.1,0-0.1,0.1-0.2,0.1c-0.9,0-1.9,0.1-2.8,0.1c-0.4,0-0.7,0.1-1.1,0.1c-0.6,0.1-1.1,0.2-1.7,0.1c-0.8-0.2-1.6-0.2-2.3,0.2
			c-0.8,0.4-1.6,0.2-2.4,0.2c-0.3,0-0.7,0-1,0.1c-0.5,0.1-1,0.4-1.6,0.2c-0.2-0.1-0.5,0.1-0.8,0.2c-0.5,0.1-0.8-0.1-0.7-0.6
			c0.1-0.5,0.3-1.1,0.6-1.5c0.4-0.6,0.4-1.2,0.5-1.8c0-0.8,0.2-1.6,0.7-2.3c0.2-0.3,0.3-0.6,0.3-0.9c0-0.9,0.1-1.7,0.7-2.4
			c0.1-0.1,0.1-0.3,0.2-0.4c0.4-0.6-0.3-1.2,0.2-1.9c0.3-0.4,0.3-1.2,0.4-1.8c0.2-0.9,0.5-1.7,0.6-2.6c0.1-1,0.4-2,1-2.9
			c0.3-0.5,0.3-1.2,0.4-1.9c0.1-0.6,0.1-1.3,0.2-1.9c0.1-0.3,0.3-0.6,0.4-0.9c0.2-0.4,0.4-0.9,0.6-1.3c0.1-0.2,0-0.4,0.1-0.6
			c0.5-0.9,0.5-1.9,0.7-2.8c0.2-0.9,0.4-1.8,0.6-2.6c0.1-0.3,0.1-0.6,0.1-0.9c0-0.1,0-0.2,0-0.3c0.3-0.7,0.6-1.3,0.8-2
			c0.1-0.4,0.2-0.8,0.2-1.2c-0.1-0.6,0-1.1,0.4-1.5c0.4-0.5,0.5-1.1,0.2-1.6c-0.3-0.4-0.1-0.7,0.1-1c0.7-0.7,0.6-1.6,0.8-2.5
			c0-0.2,0.1-0.4,0.2-0.6c0.1-0.2,0.2-0.3,0.2-0.4c0.3-1,0.5-1.9,0.8-2.9c0-0.1,0-0.3,0-0.4C124.1,171.8,124.1,171.2,124.1,170.7z"
			/>
		<path class="st1" d="M79.3,137.5c0-0.9-0.5-1.4-1.2-1.8c-0.4-0.2-0.7-0.8-1-1.2c-0.4-0.5-0.8-1-1.1-1.5c-0.7-0.9-1.4-1.7-2.4-2.3
			c-0.1-0.1-0.2-0.3-0.3-0.4c-0.1-0.6-0.5-1-1-1.4c-0.2-0.1-0.3-0.3-0.4-0.5c-0.5-0.8-1-1.5-2.1-1.6c-0.1,0-0.1-0.1-0.2-0.1
			c0,0,0-0.1-0.1-0.1c0.1-0.1,0.2-0.1,0.2-0.2c1-0.3,1.5-1.3,1.3-2.3c-0.1-0.6,0-1.3-0.1-1.9c-0.1-1,0.4-1.9-0.1-2.9
			c-0.2-0.3,0-0.8,0-1.2c0-0.5,0-1,0-1.4c0-0.5-0.2-0.8-0.7-0.9c-0.5-0.2-1-0.4-1.6-0.5c-0.2-0.1-0.4-0.1-0.6-0.1
			c-0.9,0.2-1.8-0.1-2.7-0.3c-0.9-0.2-1.8-0.2-2.7-0.2c-0.5,0-0.7-0.1-0.8-0.7c-0.3-1.7,0-3.5-0.6-5.2c0-0.1,0-0.3,0-0.4
			c0-0.1,0.1-0.1,0-0.2c-0.3-1.2,0.1-2.5-0.5-3.7c-0.1-0.2-0.1-0.5-0.1-0.7c0.1-0.6-0.2-1.1-0.6-1.5c-0.5-0.4-0.8-1-1.1-1.5
			c-0.3-0.5-0.7-0.9-1.2-1.2c-0.6-0.4-1-0.9-1.2-1.6c0,0,0-0.1,0-0.1c-0.5-0.9-0.7-2-0.9-3.1c0-0.2-0.1-0.4,0-0.7
			c0.1-0.3,0.2-0.7,0.2-1c0.1-0.6,0.4-0.7,0.9-0.5c0.7,0.3,1.4,0.5,2.1,0.7c0.9,0.2,1.8-0.9,1.6-1.9c-0.1-0.3,0-0.7-0.1-1
			c0-0.3,0.1-0.6-0.1-0.8c-0.3-0.5-0.1-0.9-0.1-1.4c0.1-0.5,0-1-0.1-1.6c0-0.6-0.1-1.3-0.2-1.9c-0.1-0.6-0.2-1.1-0.3-1.7
			c0-0.2-0.1-0.4-0.1-0.6c0-0.4,0.1-0.9,0.2-1.3c0-0.2,0.1-0.5,0.1-0.7c0.5,0.1,1,0.2,1.4,0.3c0.1,0,0.2,0,0.2,0.1
			c0.4,0.6,1.1,0.6,1.7,0.7c0.9,0.2,1.6-0.4,1.7-1.3c0-1.2,0-2.3,0-3.5c0-0.3,0-0.6-0.2-0.9c-0.3-0.5-0.2-1-0.1-1.5
			c0.1-0.4,0.1-0.8,0.1-1.3c0.4,0.3,0.8,0.5,1.2,0.8c1.3,0.8,2.5,1.6,3.8,2.3c0.4,0.2,0.9,0.4,1.1,0.8c0.1,0.2,0.3,0.3,0.5,0.4
			c0.3,0.2,0.6,0.4,0.9,0.6c0.3,0.2,0.6,0.4,0.9,0.4c0.5,0,0.8,0.3,1.2,0.6c0.4,0.4,1,0.7,1.5,0.9c1,0.4,1.9,1,2.8,1.6
			c0.5,0.3,1.2,0.4,1.7,0.7c0.9,0.4,1.9,0.8,2.8,1.2c0.9,0.4,1.8,0.4,2.7,0.3c0.5,0,0.8-0.7,0.7-1.3c-0.1-0.2-0.1-0.5,0-0.7
			c0.2-0.9-0.3-1.4-0.8-2c-0.2-0.2-0.3-0.4-0.4-0.6c0,0,0.1-0.1,0.1-0.1c0.1,0,0.1,0,0.2,0.1c0.8,0.4,1.6,0.9,2.4,1.3
			c0.7,0.4,1.3,0.7,2,1.1c0.9,0.4,1.9,0.8,2.8,1.2c0.6,0.3,1.2,0.5,1.7,0.8c0.1,0.1,0.3,0.1,0.4,0.1c0.9-0.2,1.4,0.5,2,0.9
			c0.7,0.4,1.3,1,2.2,0.9c0.5,0,1.2,0.6,1.1,1.2c0,0.1,0,0.2,0,0.3c0.4,0.9,0.2,1.8,0.2,2.8c0,0.3-0.1,0.5-0.1,0.8c0,1-0.1,2,0.1,3
			c0.2,0.8,0.2,1.5,0.1,2.3c-0.2,1.6-0.1,3.3-0.1,4.9c0,0.2,0,0.4,0,0.7c0,0.4,0,0.8,0.2,1.1c0.3,0.4,0.2,0.8,0.1,1.2
			c-0.6,1.5-0.5,3.1-0.1,4.6c0.1,0.2,0.1,0.4,0.1,0.5c-0.1,0.5-0.3,0.6-0.7,0.4c-0.8-0.3-1.1-0.2-1.6,0.6c-0.4,0.7-0.7,1.4-1,2
			c0,0.1-0.1,0.1-0.1,0.2c-0.3,0.4-0.6,0.8-0.9,1.2c-0.4,0.5-0.5,1.1-1.1,1.5c-0.2,0.1-0.4,0.4-0.4,0.7c-0.2,0.5-0.5,0.6-1.1,0.6
			c-1.5-0.1-3-0.2-4.4,0.6c-0.4,0.2-0.8,0.7-1,1.2c-0.1,0.2,0.1,0.5,0.1,0.8c0,0.2,0.2,0.4,0.1,0.6c-0.2,0.6-0.4,1.2-0.6,1.8
			c-0.1,0.4-0.2,1,0,1.4c0.2,0.6,0.2,1.2-0.1,1.7c-0.3,0.6-0.2,1.1-0.1,1.8c0.1,0.5-0.1,1-0.1,1.6c0,0.2,0.1,0.4,0.2,0.5
			c0.1,0.2,0.3,0.3,0.5,0.5c0.4,0.4,0.4,0.7-0.1,1.1c-0.4,0.3-0.8,0.7-1.2,1.1c-0.4,0.3-0.8,0.6-1.1,1c-0.8,0.8-1.5,1.7-2.3,2.6
			c-0.1,0.1-0.3,0.3-0.4,0.4c-0.8,0.5-1.3,1.4-2.2,1.8c-0.6,0.3-1.1,0.9-1.7,1.4C79.4,137.6,79.3,137.5,79.3,137.5z"/>
		<path class="st1" d="M62.4,78.7c-0.9-0.9-1.9-1.3-3.1-0.9c-0.1-0.1-0.1-0.2-0.2-0.3c-0.6-0.7-1.5-0.5-1.7,0.3
			c-0.2,0.9-0.3,1.9-0.3,2.8c0,0.6,0.3,1.2,0.4,1.8c0,0.2-0.1,0.3-0.1,0.5c-0.1,0.6-0.1,1.3-0.1,1.9c0,0.6,0,1.2,0,1.8
			c0,0.6,0,1.3,0.2,1.8c0.2,0.5,0.2,0.9-0.1,1.4c-0.5-0.1-1.1-0.3-1.5-0.4c-0.2-0.7-0.4-1.4-0.6-2.1c-0.1-0.5-0.2-1-0.3-1.6
			c-0.1-0.4-0.2-0.8-0.5-1.1c-0.4-0.5-0.8-1-0.5-1.8c0.1-0.2,0.1-0.5,0-0.7c-0.5-1-0.4-2.1-0.6-3.2c-0.1-0.3-0.1-0.6-0.2-0.9
			c-0.4-0.7-0.3-1.5-0.4-2.3c-0.1-0.7-0.3-1.4-0.4-2c-0.2-1.6-0.4-3.2-0.6-4.8c-0.1-0.7-0.3-1.3-0.4-1.9c-0.1-0.5-0.1-0.9-0.2-1.4
			c0-0.1,0.1-0.3,0.1-0.3c0.5-0.1,1-0.2,1.5-0.3c0.4,0,0.9,0,1.3,0c1.3-0.1,2.5-0.3,3.8-0.4c1.1-0.1,1.9-1.1,1.7-2.2
			c0-0.1,0.1-0.4,0.2-0.4c0.5-0.4,0.8-0.9,0.9-1.5c0-0.1,0.1-0.3,0.2-0.4c0.4-0.4,0.5-0.9,0.5-1.5c0-0.3,0.2-0.6,0.5-0.7
			c0.9-0.4,1.4-1.1,1.4-2.1c1.2-0.1,2.3,0.4,3.5,0.7c1,0.3,1.9,0.5,2.9,0.8c0.7,0.2,1.4,0.6,2.1,0.7c0.9,0.2,1.8,0.3,2.8,0.5
			c0.5,0.1,0.9,0.3,1.3,0.5c0.4,0.1,0.7,0.3,1.1,0.4c0.7,0.2,1.4,0.4,2.1,0.6c0.5,0.1,1.1,0.2,1.6,0.3c0.2,0,0.3,0.1,0.5,0.1
			c0.6,0.2,1.3,0.5,1.9,0.7c0.7,0.2,1.3,0.3,2,0.4c0,0,0,0,0.1,0c1.1,1.2,2.8,0.8,4,1.7c0.2,0.1,0.4,0.1,0.6,0.2
			c0.7,0.2,1.5,0.3,2.1,0.6c0.6,0.3,1.3,0.3,1.9,0.4c0.3,0.1,0.6,0.2,0.8,0.4c0.7,0.7,1.7,0.9,2.6,1.2c0.2,0.1,0.5,0.2,0.7,0.2
			c0.4,0.1,0.7,0.3,1.1,0.4c0.1,0,0.3,0.1,0.4,0.1c0.9,0.8,2,1.2,3.2,1.3c0.2,0,0.4,0.1,0.5,0.2c0.7,0.9,1.7,0.9,2.6,1
			c0.4,0,1.2,0.6,1.2,1c0,0.5,0.3,1-0.2,1.5c-0.2,0.1-0.2,0.6-0.2,0.8c0,0.3,0,0.6,0.1,0.9c0.1,0.5-0.1,1-0.4,1.5
			c-0.6,1-0.9,2.2-0.7,3.4c0,0.1,0,0.2,0,0.3c-0.2,0.9-0.5,1.8-0.7,2.7c-0.1,0.6-0.2,1.2-0.4,1.9c-0.1,0.5-0.3,1-0.5,1.5
			c0,0.1-0.1,0.2-0.1,0.3c0.2,1.2-0.8,2-0.8,3c-0.1,0-0.1,0-0.2,0c0-0.3-0.1-0.5-0.1-0.8c0-0.4,0-0.8,0.1-1.2c0-0.2,0.1-0.4,0.1-0.6
			c0.3-0.6,0.2-1.2-0.5-1.5c-0.2-0.1-0.4-0.2-0.5-0.3c-0.4-0.3-0.7-0.7-1.3-0.3c-0.1,0.1-0.4,0-0.5-0.1c-0.7-0.6-1.5-0.8-2.3-1
			c-0.6-0.1-1.2-0.1-1.7-0.7c-0.3-0.4-1-0.7-1.5-0.9c-0.3-0.2-0.6-0.3-0.9-0.4c-0.7-0.4-1.4-0.8-2.1-1.2c-1.1-0.6-2.3-1.1-3.4-1.6
			c-1.3-0.6-2.7-1.3-4.1-1.9c-0.5-0.2-1-0.5-1.6-0.6c-0.3-0.1-0.8,0.1-0.9,0.3c-0.1,0.2,0,0.6,0,1c0.1,0.3,0.2,0.6,0.4,0.9
			c0.4,0.9,0.9,1.9,1.3,2.8c0.1,0.2,0.2,0.3,0.3,0.5c0,0-0.1,0.1-0.1,0.1c-0.2-0.1-0.3-0.1-0.5-0.2c-0.9-0.5-1.8-1.1-2.7-1.7
			c-0.6-0.3-1.2-0.5-1.8-0.8c-0.7-0.3-1.3-0.7-2-1c-0.8-0.4-1.8-0.5-2.4-1.4c-0.9-0.1-1.5-1.1-2.5-0.9c-0.1,0-0.2-0.1-0.2-0.1
			c-0.6-0.5-1.3-0.9-1.9-1.4c-0.9-0.6-1.8-1.2-2.7-1.8c-0.5-0.3-1-0.6-1.5-0.9c-0.4-0.3-0.9-0.5-1.4-0.8c-0.7-0.4-1.6-0.1-1.6,0.8
			c-0.1,1.1-0.3,2.2,0,3.2c0.3,1.2,0.1,2.3,0.1,3.5C62.4,77.5,62.4,78,62.4,78.7z"/>
		<path class="st1" d="M80.6,195.9c0.7,0,1.1,0,1.6,0.1c0.2,0,0.3,0.1,0.5,0.2c0.5,0.2,1,0.4,1.5,0.5c0.8,0.2,1.5,0.3,2.3,0.5
			c0.1,0,0.3,0.1,0.4,0.1c1,0.1,1.9,0.2,2.9,0.3c0.2,0,0.4,0,0.6,0c0.8-0.4,1.6-0.4,2.5-0.4c0.3,0,0.6-0.3,0.9-0.3
			c0.4-0.1,0.8-0.2,1.1-0.2c0.6,0.1,1.1,0,1.5-0.3c0.2-0.1,0.4-0.2,0.5-0.2c0.8-0.1,1.6-0.2,2.3-0.3c0.3,0,0.6-0.1,0.8-0.3
			c0.7-0.4,1.4-0.4,2.2-0.5c0.8-0.1,1.6-0.1,2.5,0.1c0.8,0.2,1.6,0.3,2.2,0.9c0.7,0.7,1.4,1.3,2.2,2c0.2,0.2,0.5,0.4,0.9,0.5
			c1.3,0.4,1.2,0.6,0.7,1.8c-0.1,0-0.1,0-0.2,0c-1.1-0.6-2.2-1.1-3.2-1.8c-0.7-0.4-1.3-0.9-1.9-1.3c-0.7-0.5-1.4-0.2-2,0.4
			c-0.1,0.1-0.3,0.3-0.5,0.3c-0.4,0.2-0.6,0.5-0.5,0.9c0.2,0.7,0.4,1.5,0.7,2.2c0.4,1,0.9,1.9,1.3,2.9c0.2,0.5,0.4,0.9,0.7,1.4
			c0.2,0.3,0.2,0.6-0.2,0.8c-0.3,0.1-0.6,0.3-0.9-0.1c-0.5-0.8-1-1.7-1.5-2.5c-0.1-0.1-0.1-0.3-0.2-0.4c-0.4-0.4-0.8-0.8-1.1-1.3
			c-0.3-0.5-0.4-1.1-0.7-1.6c-0.3-0.6-0.9-0.9-1.5-0.6c-0.6,0.2-0.8,0.8-0.6,1.5c0.2,0.7,0.3,1.5,1.1,1.8c0.1,0,0.1,0.2,0.1,0.2
			c0.2,0.5,0.4,1.1,0.6,1.6c0.4,0.7,0.8,1.4,1.2,2.1c0.2,0.3,0.1,0.6-0.2,0.8c-0.1,0-0.3,0-0.4,0c-0.4-0.5-0.8-1-1.2-1.5
			c-0.2-0.3-0.4-0.6-0.6-0.9c-0.4-0.7-0.7-1.4-1-2.1c-0.4-0.8-0.9-1.6-1.6-2.1c-0.2-0.1-0.6-0.2-0.9,0c-0.2,0.1-0.4,0.5-0.4,0.7
			c0.1,0.5,0.2,1.1,0.4,1.6c0.2,0.4,0.4,0.9,0.6,1.3c0.1,0.1,0.1,0.3,0.2,0.4c0.6,0.3,0.7,0.9,0.9,1.5c-0.2,0.2-0.5,0.5-0.7,0.8
			c-0.2-0.4-0.4-0.8-0.6-1.2c-0.3-0.5-0.7-0.9-1-1.3c-0.3-0.4-0.6-0.8-0.9-1.3c-0.5-1-1.3-1.1-2-0.3c-0.1,0.1-0.3,0.2-0.4,0.2
			c-0.8,0-1.5,0.3-2.2,0.7c-0.5,0.3-1.8,0.2-2.2-0.3c-0.1-0.1-0.1-0.1-0.2-0.1c-1-0.3-1.7-1.2-2.9-1.2c-0.1,0-0.1,0-0.2,0
			c-1-0.6-2.1-0.7-3.3-0.6c-0.3,0-0.5-0.1-0.4-0.4c0.1-0.7,0.2-1.3-0.1-2c0-0.1,0.1-0.3,0.1-0.4c0.1-0.4,0.2-0.9,0.2-1.4
			C80.6,197,80.6,196.4,80.6,195.9z"/>
		<path class="st1" d="M103.7,119c0.9-0.5,1.1-1.5,1.6-2.2c0.4-0.6,0.9-1.1,1.4-1.7c0.2-0.3,0.4-0.6,0.5-1c0-0.4-0.3-0.7-0.7-0.8
			c-0.6-0.2-1.2-0.3-1.8-0.1c-0.7,0.2-1.5,0-2.3,0.1c-0.5,0.1-1,0.4-1.5,0.7c-0.2,0.1-0.4,0.2-0.6,0.3c-0.7,0.3-1.4,0.7-1.6,1.6
			c-0.1,0.4-1.1,1.1-1.5,1.1c-0.1,0-0.3-0.1-0.3-0.2c0.2-0.6,0.4-1,0.6-1.5c0-0.1,0.1-0.1,0.1-0.2c0.5-0.3,0.7-0.7,0.9-1.2
			c0.3-0.7,0.8-1.3,1.2-1.9c0.1-0.1,0.4-0.1,0.6-0.2c0.4,0,0.9,0,1.3-0.1c0.3,0,0.7,0,1,0c1,0.2,2,0.2,3-0.1
			c0.4-0.1,0.7-0.4,1.1-0.5c0.1,0,0.4,0,0.4,0.1c0.8,1,1.9,1.4,3,1.7c0.1,0,0.2,0,0.3,0.1c0.6,0.7,1.6,1,2.3,1.5
			c0.5,0.3,1,0.5,1.5,0.8c0.1,0,0.2,0.1,0.3,0.1c0.7,0.4,1.3,0.9,2,1.2c0.5,0.3,1,0.4,1.5,0.6c0.4,0.2,0.8,0.3,1.1,0.6
			c0.4,0.4,0.8,0.7,1.3,0.7c0.5,0,0.5,0.3,0.3,0.5c-0.3,0.5-0.6,1-0.9,1.5c-0.4,0.5-0.5,1.1-0.5,1.8c0,0.5-0.2,1.1-0.5,1.6
			c-0.3,0.6-0.5,1.1-0.3,1.7c0,0.1,0,0.3,0,0.4c-0.1,0.8-0.1,1.6-0.2,2.5c-0.2,0-0.5,0.1-0.8,0.1c-0.8,0.2-1.7,0.4-2.5,0.6
			c-0.6,0.1-1.3,0.3-1.9,0.4c-0.4,0.1-0.8,0-1.2,0.1c-0.5,0-1,0.1-1.2-0.5c0-0.1-0.1-0.1-0.2-0.1c-1.3-0.5-2.1-1.7-3.2-2.4
			c-0.2-0.1-0.3-0.4-0.4-0.6c-0.1-0.2-0.2-0.6-0.4-0.7c-0.7-0.6-1.3-1.3-2.3-1.5c-0.2,0-0.3-0.2-0.5-0.2c-0.3-0.1-0.7-0.2-1.1-0.2
			c-0.6,0-1.2,0-1.9-0.1c0.6-0.8,1.3-1.1,2-1.4c0.1,0,0.3,0.1,0.4,0.1c1.2,0.7,2.4,1.4,3.5,2.1c0.8,0.5,1.5,1,2.2,1.5
			c0.4,0.3,0.9,0.6,1.3,0.8c0.5,0.4,1,0.7,1.6,1.1c1,0.6,1.8,0.4,2.5-0.6c0.1-0.2,0.2-0.3,0.3-0.5c0.3-0.5,0.7-1,1.4-1.1
			c0.8-0.2,1.4-0.9,1.4-1.6c0.1-0.9-0.5-1.9-1.3-2.2c-0.3-0.1-0.4-0.3-0.2-0.6c0,0,0.1-0.1,0.1-0.2c0.1-0.4,0.3-0.9-0.1-1.2
			c-0.4-0.3-1.3-0.2-1.6,0.2c-0.4,0.5-0.9,0.7-1.5,0.9c-0.7,0.2-1.3,0.8-1.7,1.4c-0.4,0.5-0.2,1.3,0.3,1.7c0.5,0.4,1.2,0.5,1.7,0.1
			c0.2-0.1,0.4-0.3,0.7-0.5c0.2-0.2,0.4-0.3,0.6-0.5c-0.1,0.6-0.1,1.2-0.7,1.5c-0.3,0.2-0.6,0.3-0.9,0.5c-0.4,0.2-0.7,0-1.1-0.3
			c-0.5-0.4-0.9-0.8-1.4-1.2c-0.6-0.4-0.7-0.8-0.2-1.4c0.5-0.5,1-1,1.4-1.5c0.4-0.5,0.7-1.1,0.9-1.8c0.2-0.6-0.6-1.1-1.2-0.8
			c-0.8,0.3-1.4,0.7-1.9,1.3c-0.4,0.4-0.8,0.7-1.2,1c-0.3,0.3-0.7,0.5-1,0.7c0.4-0.5,0.1-1.4,0.9-1.8c0.7-0.4,1.3-1.2,1.8-2
			c0.3-0.3,0.1-0.8-0.2-1.1c-0.3-0.3-0.7-0.4-1.1-0.1c-0.8,0.6-1.6,1.2-2.2,2.1c-0.1,0.1-0.3,0.2-0.5,0.3c-0.4,0.2-0.9,0.3-1.1,0.6
			C104.3,119.6,104.1,119.5,103.7,119z"/>
		<path class="st1" d="M93,209c0.6,0,1.1-0.4,1.7,0.1c0.7,0.5,1.7,0.6,2.4-0.2c0.5-0.6,1.1-0.6,1.5-0.3c0.1,0.1,0.2,0.3,0.3,0.4
			c0.3,0.9,1.7,1.4,2.5,0.9c0.5-0.3,0.8-0.8,1.2-1.1c0.1-0.1,0.3-0.2,0.5-0.2c0.5,0,1,0.1,1.4,0.1c0.5,0,1-0.2,1.3-0.7
			c0.1-0.1,0.3-0.2,0.5-0.2c0.6,0.1,1.1,0.3,1.7,0.4c0.6,0.1,1.2,0,1.6-0.4c0.3-0.3,0.6-0.4,1.1-0.2c0.3,0.1,0.6,0.1,1,0.2
			c0.1,1.1,0.1,2.2-0.6,3.1c-0.1,0.2-0.2,0.4-0.2,0.6c0.1,0.6,0,1.2-0.2,1.8c-0.1,0.3-0.2,0.6-0.3,0.8c-0.4,0.7-0.6,1.3-0.4,2.2
			c0.1,0.3,0,0.7-0.2,1.1c-0.2,0.5-0.7,0.6-1.2,0.3c-0.4-0.2-0.8-0.4-1.2-0.6c-0.1,0-0.2-0.1-0.3-0.2c-0.3-0.6-0.9-0.8-1.5-1
			c-0.2-0.1-0.4-0.2-0.6-0.4c-0.4-0.2-0.8-0.4-1.2-0.6c-0.2-0.1-0.3-0.1-0.5-0.2c-1-0.5-1.9-1-2.9-1.5c-0.3-0.2-0.6-0.5-0.9-0.7
			c-1.1-0.6-2.2-1.1-3.3-1.6c-0.6-0.3-1.1-0.7-1.7-1.1c-0.2-0.1-0.4-0.2-0.6-0.2C93.5,209.8,93.3,209.5,93,209z"/>
		<path d="M80.3,110.3c-0.8-0.3-1.5-0.7-2.1-1c-0.1-0.1-0.3-0.2-0.4-0.2c-1-0.2-1.8-0.8-2.2-1.8c-0.1-0.2-0.4-0.4-0.6-0.5
			c-0.6-0.4-0.8-1-0.6-1.7c0.2-0.6,0.7-1,1.3-1.1c0.7,0,1.2,0.3,1.5,1c0.1,0.2,0.3,0.4,0.6,0.5c0.3,0.2,0.7,0.5,1,0.7
			c0.3,0.2,0.7,0.3,1.1,0.5c0.2,0.1,0.4,0,0.7,0.1c0.9,0.3,1.6,0,2.4-0.5c0.7-0.5,1.5-0.8,2.2-1.1c0.4-0.2,0.7,0,0.9,0.4
			c0.3,0.7,0.4,1.3-0.3,1.9c-0.1,0.1-0.1,0.2-0.1,0.2c-0.2,1-0.9,1.4-1.7,1.7C82.7,109.7,81.5,110,80.3,110.3z"/>
		<path d="M83.9,97.7c0-0.7,0-1.3-0.1-1.9c-0.1-0.5-0.4-1-0.6-1.5c-0.2-0.8-0.5-1.6-0.9-2.4c-0.3-0.6-0.2-1.3-0.1-2
			c0.1-0.7,1-0.9,1.5-0.3c0.6,0.7,1.2,1.3,1.2,2.3c0,0.7,0.5,1.4,0.7,2c0.2,0.8,0.6,1.6,1.1,2.3c0.1,0.2,0.1,0.5,0.2,0.7
			c0.1,0.4,0.1,0.8,0.2,1.1c0.4,1.3-0.5,2.2-1.7,2.5c-0.8,0.2-1.6,0.3-2.4,0.4c-0.9,0.1-1.8-0.4-1.9-1.1c-0.1-0.8,0.6-1.6,1.6-1.8
			c0.2,0,0.4,0,0.7-0.1C83.5,97.9,83.7,97.7,83.9,97.7z"/>
		<path d="M72.4,92.5c-0.9,0.1-2.2-0.7-2.2-1.3c0-0.8-0.1-1.7,0.5-2.2c0.4-0.4,1-0.7,1.6-0.7c1.1-0.2,2,0.8,2,2.2
			C74.3,91.5,73.4,92.5,72.4,92.5z"/>
		<path d="M93.3,90.8c-0.1,0.5-0.2,0.9-0.3,1.3c-0.1,0.5-0.4,0.7-1,0.8c-0.3,0-0.6,0.1-0.9,0.2c-0.5,0.1-1,0-1.2-0.5
			c-0.2-0.5-0.4-1-0.5-1.5c-0.2-0.8,0.4-1.5,1.2-1.8c1-0.3,1.7-0.1,2.3,0.7C93.1,90.2,93.2,90.6,93.3,90.8z"/>
	</g>
	<path class="st0" d="M75,96.2c0,1.3-2.1,2.3-4.6,2.3c-2.5,0-4.6-1.1-4.6-2.4c0-1.3,2.1-2.3,4.6-2.3C72.9,93.9,75,94.9,75,96.2z"/>
	<path class="st0" d="M96.7,96.5c0,1.3-1.6,2.3-3.5,2.3c-1.9,0-3.5-1.1-3.5-2.4c0-1.3,1.6-2.3,3.5-2.3
		C95.2,94.1,96.8,95.2,96.7,96.5z"/>
</g>
<g id="圖層_3">
	<path class="st2" d="M97.2,0H43.8c-6.7,0-12.1,5.4-12.1,12.1v12.3c0,6.7,5.4,12.1,12.1,12.1h23.3l4.4,6.2l4.2-6.2h21.5
		c6.7,0,12.1-5.4,12.1-12.1V12.1C109.3,5.4,103.9,0,97.2,0z"/>
	<g>
		<path class="st3" d="M44.2,23.2c-0.8,0-1.2-0.4-1.2-1.2v-3.4V15c0-0.7,0.3-1,1-1c0.6,0,1,0.3,1.1,0.9v0.3h0.1c1-1,2-1.4,3-1.4
			c1.9,0,2.8,1.2,2.8,3.7V22c0,0.8-0.4,1.2-1.2,1.2c-0.8,0-1.2-0.4-1.2-1.2v-4.2c0-0.7-0.1-1.2-0.3-1.5c-0.2-0.3-0.5-0.4-1-0.4
			c-0.4,0-0.7,0.1-1,0.3c-0.2,0.1-0.6,0.4-0.9,0.8v5C45.4,22.8,45,23.2,44.2,23.2z"/>
		<path class="st3" d="M57.4,23.5c-1.2,0-2.2-0.4-3.1-1.3S53,20.1,53,18.6s0.4-2.7,1.3-3.6c0.8-0.8,1.9-1.3,3.1-1.3s2.2,0.4,3.1,1.3
			c0.9,0.9,1.3,2.1,1.3,3.6s-0.4,2.6-1.3,3.6C59.6,23.1,58.6,23.5,57.4,23.5z M57.4,21.5c0.6,0,1.1-0.3,1.4-0.8s0.5-1.2,0.5-2.1
			s-0.2-1.6-0.5-2.1c-0.4-0.5-0.8-0.8-1.4-0.8S56.3,16,56,16.5s-0.5,1.2-0.5,2.1s0.2,1.6,0.5,2.1S56.7,21.5,57.4,21.5z"/>
		<path class="st3" d="M66.4,23.2c-0.4,0-0.7-0.2-0.9-0.6L63,15.4c-0.3-0.9,0-1.4,1-1.4c0.7,0,1.1,0.3,1.3,1l1.1,3.6
			c0.1,0.4,0.3,0.9,0.5,1.7c0.1,0.5,0.2,0.8,0.3,1.1h0.1c0.1-0.6,0.4-1.4,0.7-2.5c0-0.1,0.1-0.2,0.1-0.3l1.1-3.7
			c0.2-0.6,0.6-0.9,1.2-0.9c0.9,0,1.2,0.4,0.9,1.3l-2.4,7.1c-0.1,0.2-0.2,0.4-0.4,0.6c-0.2,0.2-0.5,0.2-0.7,0.2h-0.5
			C67.3,23.2,66.4,23.2,66.4,23.2z"/>
		<path class="st3" d="M75.1,23.5c-0.8,0-1.5-0.3-2-0.8s-0.8-1.2-0.8-2c0-1,0.4-1.8,1.3-2.3c0.8-0.5,2.2-0.9,4-1.1
			c0-1.1-0.6-1.6-1.6-1.6c-0.5,0-1.1,0.1-1.7,0.4s-1,0.2-1.3-0.4c-0.3-0.5-0.2-0.9,0.3-1.2c1-0.5,2.1-0.8,3.1-0.8c1.2,0,2,0.3,2.6,1
			s0.9,1.7,0.9,3v2.7v1.7c0,0.7-0.4,1-1.1,1c-0.6,0-1-0.3-1.1-0.9v-0.1l0,0C76.9,23.1,76,23.5,75.1,23.5z M75.8,21.6
			c0.6,0,1.2-0.3,1.8-0.9v-1.9c-1,0.1-1.8,0.4-2.3,0.7c-0.4,0.3-0.7,0.6-0.7,1.1C74.6,21.2,75,21.6,75.8,21.6z"/>
		<path class="st3" d="M83.7,26.8c-0.8,0-1.2-0.4-1.2-1.2v-5.2V15c0-0.7,0.4-1,1.1-1c0.6,0,1,0.3,1.1,0.9V15h0.1
			c0.9-0.8,1.8-1.2,2.7-1.2c1.1,0,2,0.4,2.7,1.3c0.6,0.8,1,2,1,3.4c0,1.5-0.4,2.7-1.2,3.7c-0.7,0.9-1.7,1.3-2.7,1.3
			c-0.8,0-1.6-0.3-2.3-1l0.1,1.5v1.6C84.9,26.4,84.5,26.8,83.7,26.8z M86.6,21.5c0.6,0,1.1-0.2,1.4-0.7c0.4-0.5,0.6-1.3,0.6-2.2
			c0-1.8-0.6-2.7-1.8-2.7c-0.6,0-1.2,0.3-1.8,1v2v2C85.4,21.3,86,21.5,86.6,21.5z"/>
		<path class="st3" d="M97.1,23.5c-1.3,0-2.4-0.4-3.2-1.3c-0.9-0.9-1.3-2.1-1.3-3.5s0.4-2.6,1.3-3.6c0.8-0.9,1.8-1.3,3-1.3
			s2.2,0.4,2.9,1.3c0.6,0.8,1,1.8,1,3.2c0,0.2,0,0.4,0,0.7c0,0.1-0.1,0.2-0.2,0.3c-0.1,0.1-0.2,0.1-0.4,0.1h-2.4H95
			c0.1,0.7,0.4,1.3,0.8,1.7c0.4,0.4,1,0.6,1.7,0.6c0.4,0,0.9-0.1,1.3-0.2c0.5-0.3,0.9-0.1,1.2,0.4c0.3,0.5,0.2,0.9-0.3,1.1
			C98.8,23.3,98,23.5,97.1,23.5z M94.8,17.7h1.9h1.9c0-0.6-0.1-1.1-0.4-1.5s-0.7-0.5-1.3-0.5c-0.5,0-0.9,0.2-1.3,0.5
			C95.2,16.6,94.9,17.1,94.8,17.7z"/>
	</g>
</g>
</svg>
