<?xml version="1.0" encoding="utf-8"?>
<!-- Generator: Adobe Illustrator 25.0.0, SVG Export Plug-In . SVG Version: 6.00 Build 0)  -->
<svg version="1.1" id="_xEFF5__xEED3__x5F_3" xmlns="http://www.w3.org/2000/svg" xmlns:xlink="http://www.w3.org/1999/xlink"
	 x="0px" y="0px" viewBox="0 0 124.7 278.4" style="enable-background:new 0 0 124.7 278.4;" xml:space="preserve">
<style type="text/css">
	.st0{fill:#FDD23E;}
	.st1{fill:#FFFFFF;}
</style>
<g>
	<path d="M77.1,118c0.2,1.2,0.1,2.5,0.6,3.5c0.5,1.1,1,2.1,1.1,3.4c0.1,0.8,0.4,1.8,0.7,2.6c0.3,1,0.6,1.9,0.6,3
		c0,0.2,0.2,0.3,0.3,0.5c0.3,0.7,0.6,1.5,0.9,2.2c0.1,0.3,0.2,0.6,0.3,0.8c0.1,0.3,0.4,0.6,0.5,0.9c0.4,1.4,0.7,2.8,1.1,4.2
		c0.2,0.6,0.4,1.1,0.6,1.7c0.6,1,0.8,1.9,0.8,3.1c0,1,0.5,2,0.8,3c0.5,1.9,1.1,3.8,1.7,5.6c0.4,1.2,0.2,2.6,1.1,3.6
		c0.2,0.2,0.3,0.5,0.4,0.8c0.5,2,1,3.9,1.5,5.9c0.1,0.3,0.4,0.6,0.5,0.9c0.1,0.7-0.1,1.5,0.1,2.3c0.2,0.7,0.8,1.3,1,2
		c0.3,0.8,0.4,1.6,0.5,2.5c0.1,0.8,0.1,1.6,0.3,2.4c0.1,0.7,0.4,1.4,0.6,2.1c0.5,1.6,1,3.2,1.5,4.8c0.6,1.9,1.1,3.8,1.6,5.8
		c0.3,1,0.5,2,0.7,3c0.2,0.8,0.5,1.6,0.5,2.3c0.1,1.1,0.4,2,0.7,3c0.7,2.1,0.9,4.4,1.4,6.6c0.3,1.5,0.7,2.9,1.2,4.3
		c0.6,1.8,0,2.9-1.8,3.3c-0.3,0.1-0.6,0.1-0.8,0.2c-1.1,0.7-2.4,0.7-3.6,0.7c-0.9,0-1.5,0.8-1.3,1.6c0.4,1.7,0.9,3.5,1.4,5.2
		c0.4,1.5,0.9,3,1.4,4.5c0.1,0.2,0.1,0.5,0.1,0.7c-0.1,1-0.1,1.9,0.7,2.7c0.1,0.1,0.2,0.4,0.3,0.6c0.6,2.5,1.1,4.9,1.7,7.4
		c0.5,1.9,1.1,3.8,1.6,5.7c0.3,1,0.5,2,0.8,3c0.5,1.8,1.1,3.6,1.7,5.4c0.1,0.3,0.3,0.7,0.2,1c-0.1,1.1,0.3,2,1.3,2.5
		c0.1,0,0.1,0.1,0.1,0.1c0.2,1,1.1,1.3,1.9,1.5c0.5,0.1,0.9,0.3,1.4,0.4c0.3,0.1,0.7,0.1,1.1,0.2c1.1,0.5,2.3,1.1,3.4,1.6
		c0.3,0.1,0.7,0.1,1,0.2c0.5,0.1,1.1,0,1.4,0.2c1.1,0.8,2.4,0.5,3.6,0.7c0.4,0,0.7,0.1,1,0.2c0.9,0.3,1.8,0.7,2.8,0.9
		c1.1,0.3,1.6,0.9,1.6,2c0,0.3,0.2,0.7,0.4,1c1,1.2,0.6,2.7-0.9,3.3c-0.3,0.1-0.6,0.4-0.9,0.5c-1,0.4-2,1-3,1.3
		c-1,0.3-2,0.4-2.7,1.2c-0.2,0.3-0.8,0.5-1.2,0.5c-1.7-0.1-3,0.7-4.4,1.5c-0.9,0.5-2,0.6-3,0.9c-0.4,0.1-0.9,0.2-1.3,0.4
		c-1.2,0.7-2.4,0.7-3.7,0.9c-1.4,0.2-2.8,0.6-4.1,1c-1.6,0.5-2.8,0.2-3.4-1.4c-0.9-2.2-1.6-4.5-2.4-6.8c-0.5-1.6-0.9-3.2-1.4-4.7
		c-0.3-0.8-0.9-1.5-1.3-2.3c-0.4-0.9-0.8-1.7-1.2-2.6c-0.1-0.3-0.3-0.8-0.1-1.1c0.3-0.8-0.1-1.1-0.5-1.7c-0.7-1-1.7-1.8-1.7-3.1
		c0-0.2-0.2-0.4-0.3-0.5c-0.2-0.2-0.4-0.4-0.5-0.6c-0.1-1.4-1.2-2.3-1.8-3.4c-0.3-0.6-0.4-1.3-0.6-1.9c-0.1-0.2-0.1-0.5-0.2-0.5
		c-1.2-0.7-1.3-2-1.8-3.1c-0.5-1.1-1.2-2.3-1.7-3.4c-0.1-0.1-0.2-0.2-0.2-0.3c-0.5-2.3-2.3-3.9-3-6.1c-0.3-1.1-1.1-2-1.6-3
		c0,0,0,0,0-0.1c-0.4-2.2-2.1-3.7-2.9-5.7c-0.4-1.1-1.3-2-1.6-3.1c-0.4-1.3-1.2-1.6-2.3-1.5c-0.8,0-1.6,0.1-2.4,0.2
		c-0.1,0-0.1,0.1-0.2,0c-0.8-0.1-1.6-0.5-2.4-0.3c-0.8,0.2-1.5,0.5-2.3,0.1c-0.1-0.1-0.3-0.1-0.4-0.1c-1.2,0.1-2.3,0.4-3.5,0.4
		c-1.3,0.1-2.6,0-3.9,0c-0.4,0-0.8,0-1.2,0c-1.7,0.1-3.4,0.2-5.1,0.3c-0.4,0-0.8-0.1-1.2-0.2c-0.7-0.1-1,0.2-0.8,0.8
		c0.2,0.7,0.1,1.4-0.4,1.9c-0.1,0.1-0.2,0.3-0.2,0.5c0.3,2-0.6,3.8-1,5.6c-0.3,1.6-0.6,3.3-0.9,4.9c-0.3,1.2-0.6,2.4-1.1,3.5
		c-0.2,0.6-0.6,1.2-0.4,2c0.1,0.4,0,0.8-0.1,1.2c-0.7,2.5-1.5,5-2.1,7.6c-0.6,2.3-1,4.7-1.5,7.1c-0.4,1.9-0.9,3.7-1.3,5.6
		c-0.1,0.4-0.1,0.8-0.2,1.2c-0.1,0.4-0.2,0.9-0.4,1.2c-0.6,0.8-0.5,1.6-0.1,2.5c0.1,0.1,0.2,0.2,0.1,0.3c-0.5,1.3,0.9,1.8,1.2,2.7
		c0.1,0.2,0.4,0.3,0.5,0.4c0.4,0.3,0.8,0.4,1.1,0.8c0.8,1,1.5,2.1,2.3,3.1c0.2,0.2,0.5,0.4,0.7,0.6c0.4,0.3,0.9,0.4,1.1,0.7
		c0.7,1.4,2,1.8,3.2,2.6c0.2,0.2,0.4,0.4,0.6,0.6c0.6,0.7,1.2,1.4,1.9,2c0.9,0.8,1.1,1.5,0.5,2.6c-0.1,0.3-0.2,0.6-0.1,0.9
		c0.4,1.7-0.7,2.8-2.4,2.5c-0.3,0-0.6,0-0.9,0.1c-0.3,0-0.6,0.2-0.9,0.1c-1.3-0.2-2.7-0.5-4-0.8c-0.2,0-0.5-0.1-0.6,0
		c-1,0.5-1.8,0.3-2.7-0.2c-1.1-0.7-2.4-0.5-3.7-0.5c-1.2,0.1-2.3,0-3.4-0.6c-0.4-0.2-0.9-0.3-1.4-0.3c-1.5,0.1-2.7-0.7-4-1.1
		c-1.2-0.4-2.4-0.7-3.6-0.9c-1.7-0.3-2.6-1.1-2.4-2.8c0.3-2.4,0.7-4.8,1.2-7.1c0.3-1.6,0.7-3.2,1-4.9c0.1-0.8-0.1-1.7,0-2.5
		c0-1,0.1-2,0.2-2.9c0-0.3,0-0.6,0.2-0.8c1.4-1.1,0.3-2.4,0.4-3.6c0-0.1-0.1-0.3-0.1-0.4c0.1-1.3,0.3-2.7,0.4-4c0-0.6,0-1.2-0.1-1.9
		c-0.1-1.1-0.2-2.1,0.3-3.1c0.1-0.1,0-0.4,0-0.6c-0.1-0.7-0.3-1.4-0.3-2.2c0-1.8,0.1-3.7,0.2-5.5c0,0,0-0.1,0-0.1
		c0.6-2.3-0.2-4.7,0.3-7.1c0.2-1,0-2,0-3.1c0-0.1,0-0.3,0-0.4c0.8-1.5-0.1-3,0.1-4.6c0.2-1.2,0.2-2.5,0.3-3.8
		c-1.6-0.1-3.1-0.3-4.7-0.4c-1.3-0.1-2.6-0.2-3.9-0.2c-0.3,0-0.7,0-1.1,0.1c-1.3,0.3-2.5-0.6-2.5-2c0-1.7,0-3.4,0.1-5.1
		c0-0.8,0.2-1.5,0.3-2.3c0.2-1.8-0.1-3.7,0.5-5.5c0.3-0.7-0.1-1.6-0.1-2.4c0-0.7,0-1.5,0.3-2.1c0.6-1.3,0.5-2.7,0.4-4.1
		c0-0.5-0.1-1.1-0.1-1.7c-0.3,0-0.6-0.1-0.9-0.1c-1.1,0.1-2-0.4-2.8-1.2c-0.3-0.2-0.8-0.6-1-0.5c-1.1,0.5-2-0.3-2.9-0.4
		c-1-0.2-1.9-0.3-2.9-0.4c-0.5-0.1-0.9-0.3-0.8-0.9c0.2-2.4,0-4.8,0.7-7.2c0.3-1,0.7-2.1,0.6-3.1c-0.2-2.1,1-3.9,1-5.9
		c0-0.3,0.2-0.7,0.3-1c0.6-1.5,1.1-3,1.7-4.5c-2.3-0.7-2.6-1.4-1.4-3.5c0.3-0.5,0.2-1.2,0.3-1.7c0.3-1.2,0.6-2.4,0.9-3.6
		c0.1-0.6,0.3-1.2,0.4-1.7c0.6-2.2,1.2-4.5,1.8-6.7c0.2-0.7,0.2-1.5,0.3-2.2c0.3-1.8,0.6-3.7,0.9-5.5c0.1-0.7,0.6-1.4,0.8-2.1
		c0.3-1.3,0.3-2.7,0.8-3.9c0.6-1.4,0.2-2.8,0.8-4.2c0.6-1.4,1.1-2.9,1.6-4.4c0.1-0.2,0.2-0.4,0.2-0.6c-0.2-1.8,0.5-3.3,1.3-4.8
		c0.3-0.6,0.3-1.3,0.5-1.9c0.3-0.8,0.6-1.7,0.9-2.5c0.1-0.3,0.3-0.6,0.3-0.8c-0.1-0.8,0-1.5,0.6-2.2c0.1-0.2,0.2-0.4,0.2-0.7
		c0-1,0.5-1.8,1.2-2.5c0.4-0.5,0.6-1.3,0.6-2c-0.1-1.3,0.5-2.4,0.9-3.6c0.5-1.6,0.9-3.1,1.4-4.7c0.5-1.5,1.1-3,1.6-4.5
		c0.5-1.6,1.1-3.1,2.3-4.4c0.1-0.1,0.1-0.3,0.1-0.4c0.1-1.1,0.5-1.9,1.3-2.7c0.3-0.3,0.5-0.9,0.7-1.3c0.2-0.3,0.3-0.6,0.5-0.8
		c0.3-0.4,0.6-0.8,0.8-1.2c0.8-1.3,1.4-2.7,2.3-3.9c0.5-0.7,1.3-1.1,2-1.7c0.8-0.7,1.6-1.4,2.5-1.9c1.5-0.9,3.1-1.6,4.7-2.4
		c-0.1-0.7-0.1-1.3-0.3-1.9c0-0.2-0.3-0.4-0.5-0.5c-0.5-0.2-1.1-0.3-1.6-0.5c-0.6-0.2-1.2-0.4-1.6-0.7c-0.4-0.3-0.8-0.8-1.2-1.3
		c-0.7,0.6-1.4,1.2-2.1,1.8c-0.2,0.1-0.3,0.4-0.5,0.4c-1.6,0.5-3.1,1.6-4.9,0.9c-0.3-0.1-0.8,0-1.1,0c-0.3,0-0.6,0.3-0.8,0.3
		c-1.5-0.3-3.1-0.5-4.5-1.4c-0.1-0.1-0.2-0.2-0.3-0.3c-0.9-0.9-1.8-1-3-0.5c-1.4,0.7-3,1-4.6,0.6c-1.3-0.3-2.5-0.6-3.8-0.8
		c-2.1-0.4-3.5-1.9-4.9-3.4c-0.6-0.7-1.2-1.4-1.9-2c-0.9-0.8-1.5-2.8-1.2-4.1c0.1-0.4,0-0.8,0-1.2c0-0.6,0-1.3,0.2-1.9
		c0.4-1.2,0.9-2.4,1.4-3.5c0.7-1.8,1.5-3.3,3.2-4.3c0.4-0.2,0.7-0.7,1-1c0.7-0.7,1.3-1.6,2.2-2.1c1.9-1.1,3.5-2.5,4.1-4.7
		c0.2-0.6,0.2-1.4,0.1-2c-0.1-1-0.3-2-0.4-3c-0.1-0.9,0-1.8-0.2-2.7c-0.2-1-0.5-2-0.7-3c-0.2-1-0.3-2-0.3-3c0-0.8,0.3-1.6,0.4-2.4
		c0-0.1,0.1-0.1,0-0.2c-0.7-1.1-0.1-2,0.4-2.9c0.2-0.5,0.6-0.9,1-1.2c0.6-0.4,1.3-0.8,2-1.1c0.5-0.2,1-0.2,1.5-0.4
		c0.4-0.1,0.8-0.3,1.1-0.5c0.3-0.2,0.6-0.5,0.9-0.6c1.2-0.4,2.5-0.8,3.7-1.3c1.3-0.5,2.6-1,4-1.5c1.1-0.3,2.2-0.6,3.3-0.9
		c0.3-0.1,0.6-0.3,0.9-0.4c0.6-0.3,1.2-0.7,1.9-1c1.2-0.5,2.5-0.9,3.7-1.4c0.1-0.1,0.3-0.2,0.4-0.2c1.3,0.2,2.1-0.9,3.2-1.2
		c0.5-0.2,1.2-0.5,1.6-0.3c1,0.3,1.6-0.1,2.2-0.7c0.8-0.8,1.7-1.1,2.8-0.9c1,0.1,2-0.4,2.9-1c1.5-1.2,3.5-1.5,5.2-2.2
		c1.3-0.5,2.5-0.7,3.9-0.9c0.5-0.1,0.9-0.5,1.4-0.7c0.5-0.2,1.2-0.4,1.6-0.3c0.7,0.2,1.1,0.1,1.6-0.2c1.3-0.7,2.7-1.1,4.2-0.8
		c0.5,0.1,1,0.4,1.5,0.7c0.3,0.1,0.5,0.4,0.8,0.4c1.7,0.3,2.8,1.5,3.6,2.8c1,1.7,1.8,3.5,2.5,5.4c0.3,1,0.1,2.3,0.1,3.4
		c0,0.3,0,0.6,0,0.9c0.2,0.9,0.1,1.7-0.4,2.5c-0.3,0.5-0.2,1.1-0.3,1.7c-0.1,0.8-0.3,1.6-0.5,2.5c0,0.2-0.1,0.5-0.2,0.7
		c-0.8,0.6-0.3,1.2,0,1.8c0.6,1.1,1.4,2.2,1.6,3.4c0.2,1.1,0.4,2.1,1.1,3c0.2,0.3,0.2,0.9,0.1,1.3c0,0.8,0.4,1.2,1.2,1.3
		c0.5,0,1,0.3,1.5,0.6c0.3,0.1,0.5,0.4,0.7,0.6c1.9,1.3,2.3,4.1,0.9,5.9c-0.7,0.9-1.6,1.6-2.5,2.5c0.2,0.6,0.5,1.4,0.7,2.3
		c0.1,0.5,0.1,1,0.1,1.5c0.1,1.6,0.2,3.3,0.3,4.9c0,0.3,0.1,0.5,0.1,0.8c-0.5,3-1.6,5.6-4.1,7.5c-0.7,0.5-1.5,0.7-2.3,1.1
		c-1,0.4-2,0.8-3,1.2c-0.2,0.1-0.5,0.3-0.7,0.3c-1.2,0.2-2.3,0.6-3.4,1.4c-1,0.7-2.5,0.8-3.8,1.2c-1,0.3-2,0.6-3,0.9
		c-0.4,0.2-0.6,1.5-0.3,1.9c0.6,0.7,1,1.4,0.9,2.3c0,0.1,0.5,0.4,0.7,0.3c2-0.6,2.8,0,3,2.2c0.1,0.6,0.5,1.2,0.8,1.9
		c0.5,1.1,1.1,2.1,1.4,3.3c0.3,1.1,0.7,2.1,1,3.1c0.3,1.2,1.4,2.4,0.7,3.7c0.8,1,0.8,2,0.4,3.3c-0.2,0.7,0.6,1.7,0.9,2.5
		c0.4,1,0.9,2.1,1.3,3.1c0.3,0.7,0.4,1.5,0.6,2.2c1.8-0.2,3,0.8,4.3,1.6c0.9,0.5,2.3,0.4,3-0.4c0.3-0.4,0.8-0.6,1-0.9
		c0.6-0.8,1.1-1.6,1.7-2.4c1.3-1.9,2.5-3.8,3.7-5.7c0.1-0.1,0.2-0.2,0.2-0.4c0-1.5,0.9-2.6,1.5-3.9c0.1-0.2-0.1-0.5-0.1-0.8
		c0-0.5-0.1-1.2,0.2-1.5c0.6-0.7,0.6-1.4,0.4-2.2c-0.3-1.5-0.6-3-0.8-4.5c0-0.1-0.1-0.3,0-0.4c0.4-0.9,0.2-1.7-0.2-2.6
		c0-0.1-0.1-0.2-0.1-0.3c0-1.1,0-2.1,0-3.2c0-0.7-0.2-1.4,0-2c0.6-1.8,1.6-3.4,3.4-4.3c1.8-0.9,3.6-1.6,5.4-2.5
		c0.5-0.3,1.1-0.6,1.1-1.4c0-0.8,0.3-1.6,0.6-2.3c0.2-0.6,0.2-0.8-0.4-1.2c-0.7-0.5-1.3-1.2-1.9-1.8c-0.9-1-1.9-1.9-2.6-3
		c-0.7-1.2-1.5-2.5-1.4-4.1c0.1-1.1-0.2-2.3-0.7-3.3c-0.5-1-0.6-1.8-0.6-2.8c0.1-1.1,0.2-2.1,0.2-3.2c0-1.5,0.3-3,1.1-4.3
		c0-0.1,0.1-0.2,0.1-0.2c-0.4-1.1,0.4-2,0.6-3c0-0.3-0.1-0.7-0.1-1c0-0.6-0.2-1.2,0-1.6c0.3-1,0.9-1.9,1.3-2.8
		c0.5-1.1,1-2.3,1.3-3.5c0.5-1.7,0.9-3.5,2.2-4.8c0.9-0.9,2.2-1.6,2.5-3.1c0-0.2,0.3-0.3,0.5-0.4c1.1-0.3,1.5-1.2,2.1-1.9
		c0.1-0.2,0.2-0.4,0.4-0.5c1.4-0.6,2.7-1.3,4.1-1.8c0.5-0.2,1.2-0.4,1.7-0.4c0.7,0,1.4,0.3,2.3,0.4c1.1-0.7,1.6-0.7,2.8,0.3
		c0.1,0.1,0.3,0.3,0.3,0.2c1.1-0.2,1.5,0.6,2.3,1.1c1.9,1.1,3.2,2.7,4.4,4.4c0.7,1.1,1.1,2.4,1.6,3.6c0.3,0.7,0.7,1.4,0.9,2.1
		c0.5,2,1,3.9,1.3,5.9c0.1,0.9-0.2,1.9-0.3,2.8c-0.1,1.2-0.1,2.5-0.2,3.7c0,0.5-0.2,1-0.3,1.5c-0.1,0.6-0.2,1.2-0.4,1.8
		c0,0.2,0,0.5-0.1,0.7c-0.8,1.1-0.5,2.4-0.7,3.7c-0.1,1.2-0.5,2.4-0.8,3.6c-0.2,0.7-0.4,1.3-0.7,2c0,0.1-0.1,0.3-0.2,0.4
		c-1.8,1.5-1.9,4-3.4,5.6c-0.9,1-1.4,2.4-2.9,2.8c-0.1,0-0.2,0.1-0.2,0.2c-0.8,1.3-2.2,1.9-3.6,2.3c-0.7,0.2-1.5,0.1-2.2,0.1
		c-0.6,0-1.1,0-1.7,0c-0.1,0-0.3,0.1-0.3,0.1c-0.1,0.9-0.3,1.9-0.4,2.8c1.2,0.7,0.8,1.9,1.1,3c0.1,0.2,0,0.5,0.1,0.7
		c1.1,1.7,1,2.3-0.6,3.4c0.4,2.1,0.6,4.2,0.1,6.3c0,0.1,0,0.3,0,0.4c0.6,1.4,0.4,2.9,0.2,4.3c-0.3,1.6-0.8,2.1-2.5,2
		c-0.1,0-0.3,0.1-0.5,0.1c1,2-0.1,3.6-0.8,5.3c1.2,0.6,1.2,1.6,0.7,2.8c-0.4,1-0.6,2.1-1,3.2c-0.1,0.4-0.4,0.8-0.6,1.2
		c-0.1,0.3-0.2,0.7-0.3,1.1c-0.2,0.9-0.4,1.8-0.7,2.6c-0.3,0.7-0.7,1.4-1.1,2c0,0.1-0.1,0.2-0.1,0.2c0.4,1,0,1.9-0.5,2.8
		c-0.7,1.4-1.2,3-1.9,4.5c-0.8,1.6-1.9,3.1-2.9,4.7c0,0.1-0.1,0.1-0.1,0.2c0,1.6-1.2,2.6-1.9,3.8c-0.5,0.8-1.4,1.5-2.2,2.1
		c-1.1,0.8-2.2,1.7-3.3,2.4c-0.5,0.3-1.2,0.4-1.8,0.6c-0.2,0.1-0.4,0-0.5,0.1C81.1,119.1,79.1,118.4,77.1,118z M39.9,110.2
		c0,0.4,0,0.7-0.1,1c-0.6,1-1,2-1,3.2c0,0.5-0.1,1-0.3,1.5c-0.6,1.7-1.3,3.4-1.8,5.1c-0.5,2.2-1.4,4.2-1.9,6.4
		c-0.5,2.1-0.6,4.5-2.3,6.3c-0.1,0.1,0,0.5-0.1,0.7c-0.2,1.3-0.4,2.6-0.7,3.8c-0.2,1-1,1.8-0.8,3c0,0.3-0.2,0.5-0.3,0.8
		c-0.1,0.3-0.3,0.6-0.4,1c-0.4,1.6-0.8,3.3-1.2,4.9c-0.5,2-1.1,3.9-1.7,5.9c-0.1,0.2-0.2,0.4-0.3,0.6c-0.2,0.7-0.6,1.4-0.7,2.1
		c-0.3,1.6-0.4,3.3-1.6,4.6c-0.3,0.3-0.5,0.8-0.5,1.2c-0.3,1.2-0.5,2.4-0.7,3.6c0.2,0.3,0.4,0.7,0.6,1.2c0.3,1,0.6,2,0.9,3
		c0.1,0.3,0.3,0.6,0.3,0.9c-0.1,1.8,0.4,3.3,1.6,4.7c1.1,1.3,0.4,2.7-1.3,2.9c-0.4,0.1-0.9,0.4-1.1,0.8c-0.5,0.7-1.1,1.2-1.9,1
		c-0.8-0.2-1.7-0.5-2.5-0.9c-0.9-0.5-1.4-0.4-1.8,0.6c-0.1,0.2-0.2,0.5-0.4,0.7c-0.5,0.4-0.5,0.8-0.5,1.3c0,1.2,0.1,2.5-1.2,3.3
		c-0.6,0.4-1.1,1-1.7,1.6c0.6,0.7,0.3,1.5,0.1,2.5c-0.2,1.2-0.5,2.5,0,3.8c0.3,0.7,0,1.5,0,2.3c0,0.2-0.2,0.5-0.2,0.7
		c0.1,1.2,0.3,2.4,0.4,3.6c0,0.5-0.1,1.1-0.1,1.6c0,0.4-0.1,0.9-0.1,1.3c0,1.1,0,2.2,0,3.3c0,0.9-0.1,1.9-0.2,3c1.8,0,3.4,0,4.9,0.1
		c1.7,0.1,3.4,0,5,0.4c1,0.2,1.9,0.3,2.9,0.1c1-0.2,2-0.4,2.9,0.3c0.1,0.1,0.3,0.1,0.4,0.1c1.7-0.1,3.5-0.4,5.2-0.4
		c1.6-0.1,3.2,0,4.8,0c0.9,0,1.8-0.1,2.6-0.1c0.3,0,0.6,0.1,0.9,0.2c0.6,0,1.3,0.1,1.9,0c0.3,0,0.6-0.2,0.9-0.2
		c1.7,0,3.4-0.1,5.1-0.1c0.4,0,0.7,0,1.1,0c1.3-0.1,2.6-0.3,3.9-0.3c1.7,0,3.4,0.2,5.1,0.1c1.1-0.1,2.3,0,3.4-0.1
		c1.8-0.1,3.6,0,5.4,0c1,0,2-0.4,3-0.5c1.5-0.1,3,0.2,4.4-0.5c0.3-0.2,0.8,0,1.2,0.1c0.8,0.1,1.5,0.3,2.2-0.3
		c0.2-0.2,0.6-0.3,0.9-0.3c2.1-0.1,4.2-0.1,6.3-0.2c0.1,0,0.3,0,0.3-0.1c1.2-1,2.6-1.2,4.1-0.9c0.2,0,0.4,0,0.6-0.1
		c1.1-0.4,2.1-0.9,3.1-1.3c-0.5-1.8-1-3.8-1.4-5.7c-0.4-1.9-1.5-3.8-1.2-5.8c0-0.1,0-0.1,0-0.2c-0.4-1.2-0.9-2.3-1.3-3.5
		c-0.3-0.9-0.5-1.9-0.8-2.9c-0.5-1.9-0.9-3.9-1.3-5.8c-0.4-1.7-0.7-3.4-1-5.1c-0.1-0.7,0-1.5-0.4-2.1c-0.6-0.8-0.8-1.7-0.9-2.7
		c-0.1-0.7-0.4-1.3-0.6-1.9c-0.1-0.4-0.3-0.9-0.2-1.4c0.1-0.6,0.1-1.1-0.4-1.6c-0.4-0.4-0.4-1.1-0.6-1.6c-0.1-0.2,0-0.5-0.1-0.8
		c-0.6-1.9-1.2-3.9-1.8-5.8c-0.1-0.3,0-0.6-0.1-0.9c-0.3-1.2-0.6-2.4-0.9-3.6c-0.5-1.8-1.1-3.7-1.6-5.5c-0.3-1.1-0.7-2.1-1-3.2
		c-0.2-0.7-0.6-1.4-0.8-2.1c-0.4-1.6-0.7-3.2-1.1-4.8c0-0.1-0.1-0.2-0.2-0.3c-0.2-0.8-0.5-1.6-0.7-2.4c-0.1-0.3-0.1-0.6-0.2-0.9
		c-0.2-0.8-0.3-1.5-0.5-2.3c0-0.2,0-0.5-0.1-0.7c-0.6-1.3-1.3-2.5-1.7-3.8c-0.3-1-0.8-2-1-3c-0.3-1.2-0.5-2.4-1-3.6
		c-0.5-1.1-0.7-2.2-1-3.4c-0.1-0.3-0.1-0.6-0.1-0.9c-0.1-0.3-0.2-0.7-0.3-1c-0.5-1.6-0.9-3.2-1.6-4.7c-0.1-0.2,0-0.4,0-0.6
		c-0.2-1.2-0.3-2.3-0.5-3.5c0-0.2-0.3-0.4-0.3-0.6c-0.3-0.8-0.6-1.5-0.8-2.3c-0.3-0.7-0.5-1.5-0.7-2.2c-0.1-0.5-0.3-0.9-0.4-1.4
		c-0.2-1-0.5-2.1-0.7-3.2c-1.3,0.5-2.4,0.1-3.6,0.6c-1.4,0.6-3.1,0.7-4.6,1.1c-1.2,0.3-2.6-0.2-3.8,0.6c-0.1,0.1-0.2,0-0.4,0
		c-1.3-0.5-2.4,0.4-3.7,0.5c-0.6,0.1-0.7,0.5-0.5,1c0.6,2.3,0.6,4.6,0.6,7c-1.2,0.2-2.3,0.8-3.3,0.6c-1.3-0.3-2.1,0.8-3.3,0.4
		c-0.1,0-0.3,0-0.4-0.1c-0.6-0.2-0.9,0.1-1.3,0.4c-0.4,0.3-0.8,0.6-1.3,0.7C41.1,110.2,40.5,110.1,39.9,110.2z M70.8,17.9
		c0.4-0.9,0.8-1.4,0.9-2c0.1-1.2,0.1-2.5,0.1-3.8c0-0.7-0.5-1.3-0.6-1.9c-0.3-2-1.2-3.6-2.5-5.2c-0.4-0.5-0.9-1.3-1.4-1.4
		c-1.3-0.2-2.6-0.3-3.9-0.1c-1.6,0.3-3.1,1.2-4.8,1.5c-1.2,0.3-2.3,1.2-3.6,1.5c-1.8,0.5-3.4,1.4-5.3,1.5c-1.1,0-2.2,0.2-2.9,0.9
		c-0.9,0.9-1.8,1.2-3,1.2c-0.7,0-1.4,0.1-1.9,0.9c-0.2,0.4-0.9,0.6-1.4,0.9c-1.1,0.5-2.4,0.2-3.3,1.2c-0.1,0.1-0.3,0.1-0.4,0.1
		c-1.2,0.4-2.4,0.9-3.7,1.3c-0.5,0.2-1.1,0.5-1.5,0.4c-1.4-0.2-2.4,0.8-3.7,1.2c-1.4,0.4-2.7,1.1-4.2,1.6c-1.4,0.4-2.9,1-4.3,1.3
		c-1.6,0.3-2.9,1.1-4.4,1.5c-1.5,0.4-2,1.4-1.6,2.9c0.4,1.3,0.7,2.7,0.9,4.1c0.2,1,0.1,2,0.3,3c0.3,1.6,0.7,3.2,1,4.9
		c0.1,0.7,0.1,1.4,0.1,2.1c-0.1,1.2-0.2,2.4-0.3,3.6c0,0.3-0.2,0.6-0.4,0.8c-0.8,0.9-1.7,1.8-2.6,2.7c-0.3,0.3-0.6,0.8-1,1.1
		c-1,0.9-2.1,1.8-3.2,2.5c-0.6,0.4-1.2,0.6-1.5,1.4c-0.4,0.8-1.1,1.5-1.6,2.2c-0.9,1.2-2,2.2-1.4,3.9c0.1,0.2,0.1,0.6-0.1,0.8
		c-0.5,0.7-0.2,1.4,0.1,2c0.2,0.6,0.3,1.3,0.5,2c0.2,0.4,0.3,1,0.7,1.2c1.6,0.9,3.3,1.9,5,2.5c1.5,0.5,3.2,0.5,4.8,0.6
		c0.8,0.1,1.5-0.2,2-0.9c0.5-0.8,1.5-0.9,2.1-0.2c1.3,1.5,3.2,1.7,4.9,2.2c1.3,0.4,2.3,0.4,3.5-0.1c1.6-0.6,3.5-0.7,4.4-2.6
		c0.5-1.1,2.3-1.1,2.6-0.1c0.4,1.3,1.2,1.6,2.3,1.7c0.1,0,0.2,0.1,0.3,0.1c1.7,0.2,3.3,1.2,5.1,0.4c0.2-0.1,0.5-0.1,0.7-0.1
		c0.8,0.3,1.4-0.1,2-0.7c0.2-0.1,0.3-0.2,0.5-0.4c0.8-0.6,0.7-1.3-0.1-1.9c-0.4-0.3-0.7-0.8-1.1-1.2c-0.2-0.2-0.3-0.5-0.6-0.6
		c-1.7-0.2-3.4-0.1-5-0.8c-0.6-0.2-1.3-0.5-1.8-0.9c-0.9-0.9-1.6-1.9-2.4-2.8c-0.8-0.9-0.9-1.8-0.3-2.9c0.3-0.5,0.5-1,0.8-1.5
		c0.2-0.5,0.5-1.1,0.7-1.6c0.4-0.8,1.4-1.2,1.4-2.3c0.1-1.2,2.3-2.5,3.4-2.4c1.1,0.1,2.3,0.2,3.5,0.2c0.1-0.5,0.2-1,0.2-1.4
		c0-0.4,0-0.8-0.1-1.2c-0.2-1.3,0.5-2.3,1.8-2.5c0.5-0.1,1-0.2,1.3-0.5c0.6-0.4,1-1,1.6-1.4c1.2-0.8,1.6-2,1.9-3.3
		c0.1-0.6,0.3-1.3,0.4-1.9c0.4-1.8,0.7-3.7,1-5.5c0.1-0.9,0.5-1.4,1.1-1.4c0.7,0,1.2,0.5,1.2,1.5c0.1,1.3,0.3,2.6,0.5,4.1
		c0.5-0.2,1-0.2,1.5-0.5c0.7-0.4,1.3-0.8,1.8-1.3c0.8-0.7,1.8-1.4,2.3-2.4c0.6-1.1,1-2.5,1.2-3.8c0.3-1.8,0.4-3.7,0.5-5.6
		c0.1-1.1-0.3-2.1,0.2-3.2c0-0.1,0-0.2,0-0.3c-0.4-1.1-0.3-2.2,0-3.3c0.1-0.3,0.5-0.6,0.7-0.9c0.3,0.2,0.7,0.4,0.8,0.7
		c0.3,1,1.1,1.5,1.9,2c0.8,0.5,1.5,1,2.2,1.6C69.1,15.9,69.9,16.8,70.8,17.9z M35.5,76.5c-0.6,0.4-1.1,0.7-1.5,1.1
		c-0.5,0.6-0.9,1.3-1.4,1.9c-0.9,1.1-1.8,2.1-2.6,3.2c-0.2,0.2-0.3,0.5-0.4,0.7c-0.6,1.2-1.5,2.3-1.6,3.7c0,0.2-0.2,0.4-0.4,0.6
		c-0.6,0.5-0.9,1.2-1,2c0,0.2-0.1,0.5-0.2,0.7c-0.9,2.2-2.1,4.4-2.7,6.7c-0.4,1.6-0.9,3.3-1.5,4.9c-0.3,1-0.7,2.1-1.1,3.1
		c-0.4,1-1.2,1.9-0.9,3.1c0.1,0.5-0.2,1.2-0.5,1.7c-0.6,1.1-0.5,2.5-1.5,3.4c-0.1,0,0,0.2-0.1,0.3c-0.1,0.6-0.2,1.1-0.4,1.6
		c-0.3,1-0.9,1.9-1,2.9c-0.2,1.6-0.5,3.1-1.3,4.5c-0.2,0.3-0.1,0.8-0.2,1.2c-0.2,0.8-0.4,1.5-0.6,2.3c-0.1,0.2-0.1,0.4-0.2,0.7
		c-0.1,1.2-0.2,2.4-1.1,3.5c-0.1,0.1-0.1,0.4-0.2,0.6c-0.1,0.4-0.1,0.9-0.2,1.3c-0.2,1-0.5,2-0.7,3c-0.3,1.5-0.5,3-0.7,4.4
		c-0.1,0.7-0.2,1.5-0.4,2.2c-0.4,1.5-1,3-1.4,4.5c-0.5,2-1,4.1-1.4,6.2c-0.4,1.9-0.2,4-1.1,5.8c-0.3,0.6,0.3,1,1.1,1.1
		c1.2,0.2,2.5,0.5,3.7,0.9c0.8,0.3,1.5,0.9,2.5,0.6c0.2-0.1,0.5,0,0.7,0.1c1.4,0.9,2.9,0.9,4.5,1c1.3,0.1,1.8-0.3,2.1-1.6
		c0.4-1.6,0.7-3.2,1.2-4.7c0.3-0.9,0.8-1.7,0.5-2.7c-0.1-0.3,0.2-0.7,0.3-1.1c0.1-0.2,0.3-0.5,0.3-0.7c0.7-2.8,1.4-5.6,2.2-8.4
		c0.5-1.8,1-3.5,1.5-5.2c0.1-0.5,0.2-1,0.3-1.5c0.4-1.6,1.7-3,1.4-4.8c0-0.1,0.1-0.3,0.1-0.4c0.8-2.7,2-5.3,2.4-8.1
		c0-0.3,0.1-0.5,0.2-0.8c0.4-1,0.8-2.1,1.1-3.1c0.7-2.2,1.2-4.4,2-6.5c0.4-1.1,1.1-2.1,1.2-3.3c0.1-0.8,0.2-1.6,0.4-2.4
		c0.3-1,1.1-1.9,0.8-3.1c-0.1-0.3,0.2-0.6,0.3-0.9c0.1-0.2,0.2-0.4,0.1-0.6c-0.6-2.1-0.1-4.3-0.8-6.4c-0.3-1-0.1-2.1-0.4-3.2
		c-0.3-1.4-0.6-2.7-0.3-4.2c0.1-0.9,0.3-1.8-0.6-2.5C36,85.8,36,85.3,36,84.9c-0.1-0.6-0.1-1.3-0.1-2c-0.1-1.2-0.1-2.4-0.2-3.6
		C35.6,78.4,35.5,77.6,35.5,76.5z M76.3,47.5c-0.9,0.2-1.7,0.6-2.3,0.4c-1.7-0.5-3.7-0.1-4.9-1.8c-0.4-0.6-0.8-1.2-1.2-1.7
		c-0.7-0.8-0.5-1.6-0.1-2.4c0.2-0.3,0.7-0.7,1.1-0.6c0.4,0,1,0.4,1.1,0.7c0.2,1.1,1.1,1.4,1.8,1.9c0.3,0.2,0.7,0.5,1,0.5
		c0.9-0.1,1.8-0.3,2.6-0.5c0.2-0.1,0.5-0.4,0.5-0.6c-0.1-1-0.3-1.9-0.4-2.9c0-0.5,0-1.2,0.2-1.6c0.5-0.7,1.2-1.3,1.8-1.9
		c0.7-0.7,0.7-1.3,0-1.9c-0.5-0.4-0.9-0.9-1.4-1.4c-1.3,0.1-1.4,0-2-1.4c-0.1-0.2-0.2-0.3-0.3-0.4c-0.8-0.7-1-1.6-0.8-2.7
		c0.1-0.2,0.1-0.5,0-0.6c-1.2-1.2-1.5-2.8-1.9-4.3c-0.1-0.2-0.2-0.4-0.3-0.6c-0.6-0.9-1.3-1.8-1.9-2.8c-0.9-1.6-1.8-3.3-3.6-4.2
		c0,0.3-0.1,0.6-0.1,0.9c0,2,0.2,4.1,0.1,6.1c-0.1,2-0.1,4.1-1.9,5.7c-0.1,0.1-0.1,0.2-0.1,0.2c-0.2,1.8-2,2.4-2.8,3.8
		c-0.2,0.3-0.9,0.3-1.2,0.6c-1.2,1.1-2.7,1.6-4.3,1.9c-0.3,0-0.6,0.3-0.8,0.5c-0.9,1.5-1.6,3-2.5,4.5c-0.3,0.5-1,0.7-1.2,1.1
		c-0.6,1.1-1.5,1.5-2.6,1.8c-0.6,0.2-1.1,0.4-0.8,1.3c0.2,0.5,0.2,1.1,0.2,1.6c0,0.8-0.3,1.5-1,1.9c-0.7,0.3-1.3,0.1-1.8-0.5
		c-0.4-0.5-2-0.3-2.5,0.1c-0.8,0.6-1.5,1.3-2.4,1.6c-0.8,0.2-1.1,0.7-1.4,1.4c-0.2,0.5-0.5,1-0.7,1.5c-0.1,0.2,0,0.5,0,0.7
		c0.1,0.5,0.2,1,0.4,1.5c0.1,0.3,0.2,0.6,0.5,0.7c0.9,0.4,1.8,0.9,2.8,1.1c1.2,0.3,2.5,0.3,3.7,0.5c0.5,0.1,1.1,0.3,1.3,0.6
		c0.7,1.1,1.2,2.2,1.7,3.4c1,0.4,2,0.7,3.1,1.2c0.8,0.3,1.2,1.1,1,1.9c-0.2,0.9-0.8,1.4-1.6,1.4c-0.8,0-1.2,0.4-1.7,0.9
		c-0.9,0.9-2,1.3-3.2,1.4c-0.2,0-0.4,0-0.6,0.1c-0.7,0.4-1.4,0.8-2.1,1.2c0,0.3,0,0.8,0,1.1c0.5,0.2,0.9,0.4,1.4,0.6
		c0.2,0.1,0.4,0.1,0.6,0c0.8-0.5,1.6-0.5,2.4-0.3c0.5,0.1,1.1,0.1,1.7,0.1c1.5-0.2,2.9-0.6,4.3-0.5c1.3,0.1,2.2-0.5,3.1-0.9
		c0-1.4,0.5-2.8-0.2-4.2c-0.1-0.3-0.1-0.6-0.1-0.9c-0.1-1,0.8-2.3,1.7-2.5c1.6-0.5,3.1-0.9,4.5-1.8c0.2-0.2,0.6-0.2,0.9-0.2
		c1.2-0.1,2.4-1.1,3.7-0.5c0,0,0.1,0,0.1,0c1-0.5,2-1.2,3.1-1.6c1.6-0.7,2.8-1.9,4.1-2.9c1.1-0.9,2-2.1,1.9-3.8
		c0-0.4,0.1-0.8,0.2-1.2C76,49.1,76.2,48.3,76.3,47.5z M32.2,260.4c-0.2-0.5-0.6-1-0.6-1.4c0.1-1.5,0.7-2.9,0.5-4.4
		c0-0.2,0.1-0.3,0.1-0.5c0.1-0.4,0.2-0.8,0.3-1.2c0.3-1.9,0.6-3.7,1-5.6c0.5-2.4,1.3-4.7,1.8-7.1c0.6-2.4,1-4.9,1.6-7.3
		c0.1-0.6,0.5-1.2,0.8-1.9c0.1-0.2,0.2-0.5,0.3-0.7c0.1-1,0.2-2,0.3-3c0.1-0.8,0.5-1.5,0.7-2.3c0.4-1.6,0.9-3.1,1-4.7
		c0.3-2.5,1.9-4.4,2.2-6.9c-0.2,0-0.3-0.1-0.5-0.1c-0.9,0-1.8,0-2.6,0.1c-0.3,0-0.6,0.1-1,0.1c-1.1,0.1-2.3,0.2-3.4,0.1
		c-1.5-0.1-3-0.4-4.5-0.6c-0.1,0-0.2,0-0.3,0.1c-0.7,0.5-1.5,0.4-2.3,0.2c-0.4-0.1-0.9-0.2-1.4-0.3c-0.1,1.3-0.2,2.4-0.3,3.6
		c-0.1,1.6-1,3.1-0.2,4.7c0.1,0.1,0,0.3,0,0.4c-0.1,1.1-0.3,2.1-0.2,3.2c0.4,2.3-0.5,4.6-0.1,7c0,0.1,0,0.3-0.1,0.4
		c0,1.3,0,2.6,0,3.9c0,1.2,0.5,2.4-0.3,3.5c-0.1,0.1,0,0.4,0,0.6c0.1,0.9,0.2,1.9,0.2,2.8c0,0.9-0.5,1.8-0.1,2.8
		c0.1,0.3-0.1,0.7-0.1,1c0,0.4,0,0.7-0.1,1.1c-0.1,0.6-0.1,1.1-0.2,1.7c-0.1,1.2-1.4,2.4-0.3,3.7c0.2,0.2,0,0.7,0,1
		c-0.1,1.3-0.3,2.6-0.4,3.8c0,0.2,0,0.5,0.2,0.6c1.4,0.9,2.5,2.1,4.2,2.5c1.1,0.2,1.9,0.6,2.7-0.4C31.4,260.7,31.8,260.6,32.2,260.4
		z M74.1,212c0.1,0.4,0.1,0.6,0.2,0.7c0.9,2.3,1.8,4.5,2.7,6.8c0.1,0.2,0.2,0.4,0.3,0.4c1.2,0.7,1.2,2.1,2,3.1
		c0.6,0.8,1,1.7,1.4,2.7c0.4,0.8,0.7,1.6,1.1,2.5c0.2,0.4,0.4,0.8,0.6,1.2c0.1,0.3,0.4,0.5,0.5,0.7c0.9,1.6,1.7,3.2,2.6,4.8
		c0.4,0.8,1,1.4,0.9,2.4c0,0.1,0.1,0.4,0.2,0.4c1,0.7,1.3,1.7,1.7,2.7c0.3,0.8,0.8,1.5,1.2,2.3c0.2,0.3,0.2,0.7,0.4,1
		c0.1,0.3,0.3,0.6,0.4,1c0.2,0.5,0.4,1.1,0.7,1.6c0.5,1.1-0.1,2.8,1.5,3.5c0.2,0.1,0.3,0.4,0.4,0.7c0.3,0.8,0.6,1.7,1,2.5
		c0.4,1,0.7,2,2.1,1.8c0.1,0,0.2,0,0.3,0.1c1.7,0.8,3.3-0.1,4.9-0.1c0.1,0,0.2-0.1,0.2-0.1c0.4-0.7,0.8-1.5,1.1-2.2
		c0.1-0.2-0.6-0.6-0.9-0.9c-0.1-0.1-0.1-0.2-0.2-0.3c-0.7-1.9-1.4-3.8-2.1-5.8c-0.6-1.8-1.3-3.6-1.8-5.5c-0.6-2.2-1.1-4.5-1.7-6.7
		c-0.6-2.3-1.4-4.6-2-6.9c-0.2-0.8-0.2-1.7-0.4-2.5c0-0.3,0-0.6-0.1-0.8c-0.9-1.6-1.3-3.3-1.7-5.1c-0.4-2.2-1.2-4.3-1.8-6.4
		c-0.1-0.5-0.3-0.9-0.4-1.3c-0.9,0.2-1.8,0.4-2.6,0.7c-2.6,0.8-5.5-0.4-8,0.9c-0.2,0.1-0.5,0-0.8,0C76.6,211.3,75.5,212.1,74.1,212z
		 M99.2,85.8c-1.2-0.3-2.1-0.8-3.2-0.8c-1.4,0-2.9-0.7-4.3-1.1c-0.9-0.3-1.9-0.5-2.7-0.7c-0.6,1.6-0.5,3.3-1.8,4.3
		C87,87.5,87,87.7,87,87.8c-0.5,1.1-0.8,2.3-1.4,3.3c-1.4,2.2-3.1,4.2-4.3,6.6c-0.2,0.3-0.6,0.5-0.9,0.7c-0.4,0.2-0.9,0.5-1.3,0.6
		c-1.1,0.2-2.2,0.4-3.3,0.4c-0.6,0-1.2-0.3-1.8-0.4c-0.6-0.2-1.1-0.4-1.6-0.7c-0.2-0.1-0.4-0.3-0.7-0.5c0,0.6,0.1,1,0.2,1.4
		c0.1,0.5,0.2,0.9,0.3,1.4c0.1,0.7,0.2,1.4,0.4,2.1c0.1,0.4,0.4,0.7,0.4,1.1c0.1,1.2,0,2.4,0.8,3.5c0.5,0.7,0.6,1.6,0.9,2.4
		c0.1,0.3,0.3,0.6,0.3,0.9c0,1,0.1,1.9,0.7,2.8c0.3,0.5,0.2,1.1,0.2,1.5c1.4-0.2,2.8-0.4,4.2-0.5c1.9-0.1,3.8-0.3,5.4-1.3
		c0.4-0.3,0.8-0.8,1.1-1.2c1.1-1.3,2.1-2.7,3.3-4c0.4-0.4,0.8-0.8,1.2-1.4c0.6-0.9,0.9-1.9,1.3-2.9c0.5-1.5,1.1-3,1.7-4.5
		c0.3-0.8,0.5-1.8,1-2.4c0.6-0.7,1-1.4,1.2-2.3c0.4-1.8,1.8-3.2,1.4-5.2c0-0.2,0.1-0.3,0.2-0.5C98.3,87.8,98.7,86.8,99.2,85.8z
		 M66.4,93.4c-0.1-0.9-0.4-1.8-0.4-2.8c-0.1-1.6,0.2-3.3-1.3-4.5c0,0,0-0.1,0-0.1c0-1.4-0.7-2.6-0.9-4c-0.1-1.1-0.8-2.1-0.4-3.2
		c0,0-0.1-0.1-0.1-0.2c-0.3-0.6-0.6-1.2-0.7-1.9c-0.3-1.1-0.4-2.2-0.6-3.2c-0.2-0.8-0.6-1-1.4-0.8c-0.5,0.1-0.9,0.3-1.4,0.4
		c-1.4,0.1-2.8,0.2-4.2,0.3c-0.1,0-0.3,0-0.4,0.1c-1.6,0.9-3.3,0.8-5,0.7c-1.3-0.1-2.6,0-4.1,0c0.5,1.6,1,2.9,1.3,4.2
		c0.3,1.4,0.5,2.8,0.8,4.2c0.1,0.7,0.3,1.3,0.5,2c0.2,0.6,0.5,1.1,0.6,1.7c0.1,1.3,0.1,2.7,0.2,4c0,0.5,0.2,1,0.3,1.4
		c0.1,0.5,0.3,1.1,0.4,1.6c0.1,0.6,0,1.2,0,1.8c0,0.7,0.2,1.1,1,1c1.4-0.1,2.9,0.3,4.3-0.5c0.3-0.2,0.7,0,1.1,0.1
		c0.2,0,0.5,0.1,0.7,0c1.3-0.9,2.9-0.9,4.4-1.1C62.8,94.4,64.6,94.3,66.4,93.4z M118.7,22.9c0.1,0,0.2,0,0.3,0
		c-0.2-1-0.3-2.1-0.5-3.1c-0.3-1.3-0.9-2.6-1.2-4c-0.3-1.3-1-2.4-1.8-3.3c-1.3-1.5-2.8-2.7-4.3-4c-0.2-0.1-0.6-0.2-0.8-0.1
		c-1.1,0.7-2.3-0.1-3.5,0.2c-1.2,0.3-2.1,0.9-3.1,1.5c-0.5,0.4-1.1,0.9-1.7,1.1c-0.7,0.3-1.3,0.5-1.5,1.3c-0.1,0.4-0.7,0.8-1.1,1
		c-0.6,0.3-0.8,0.6-1,1.2c-0.6,1.2-1.1,2.4-2,3.5c-1.1,1.3-1.7,2.7-2.1,4.2c-0.2,1-0.1,2.1-0.2,3.2c0,0.4-0.2,1-0.5,1.2
		c-0.6,0.6-0.8,1.2-0.8,2c-0.1,1.4-0.5,2.7-0.2,4.1c0.1,0.6,0,1.3-0.1,1.9c-0.2,1.4-0.4,2.7-0.1,4.1c0.1,0.3,0.1,0.7,0,1.1
		c-0.5,1.5-0.4,2.9,0.8,4.1c0.2,0.2,0.2,0.5,0.3,0.7c0.7,1.7,1.5,3.4,3.1,4.4c0.6,0.4,1.1,1.1,1.7,1.6c0.1,0.1,0.3,0.3,0.5,0.3
		c2.1,0.8,4.2,1.3,6.4,1.1c1.2-0.1,2.3-0.4,3.4-0.8c1-0.4,2.3-0.7,2.6-2.1c0,0,0,0,0.1-0.1c0.9-1.1,1.9-2.2,2.7-3.4
		c0.7-1,1.6-1.7,1.6-3.2c0-1.2,0.9-2.3,1.4-3.5c0.1-0.4,0.2-0.7,0.3-1.1c0.1-0.3,0.2-0.6,0.4-0.9c0.6-0.9,1.2-1.8,0.8-3.1
		c-0.1-0.2,0.1-0.5,0.1-0.8c0.1-0.6,0.1-1.2,0.2-1.8c0-0.5,0-1,0.1-1.5c0.1-1.1,0.4-2.2,0.4-3.3C119.1,25.5,118.8,24.2,118.7,22.9z
		 M4.1,182.3c0.1,0,0.2,0,0.3,0.1c0.5-1.5,1.1-3,1.3-4.5c0.1-1.2,0.5-2.1,1.2-2.9c0.5-0.6,1.1-0.8,1.8-0.6c0.7,0.3,1.1,0.9,1,1.6
		c-0.1,0.7-0.2,1.4-0.4,2.1c-0.4,1.7-0.9,3.5-1.5,5.4c0.6-0.1,0.9-0.2,1.3-0.3c-0.1-0.1-0.2-0.2-0.3-0.2c0.2-0.7,0.4-1.4,0.6-2
		c0.1-0.2,0.2-0.4,0.2-0.6c-0.1-1.3,0.6-2.3,1.4-3.2c0.3-0.3,0.8-0.6,1.2-0.6c0.3,0,0.6,0.6,0.7,1c0.7,2.1-0.4,4-0.5,6.1
		c0.1,0.1,0.4,0.2,0.6,0.2c0.3-0.8,0.5-1.5,0.9-2.2c0.5-0.8,1-1.6,0.8-2.6c0-0.1,0.1-0.2,0.1-0.4c0.1-1.3,1.1-2.2,1.8-3.2
		c0.6-0.8,1.8-1.1,2.5-0.6c0.8,0.6,1.6,1.2,2.5,1.9c0.4-0.1,0.9-0.2,1.5-0.3c-0.2-0.4-0.2-1-0.5-1.3c-1.2-1.3-0.9-2.9-1.1-4.3
		c-0.2-1.6-0.1-3.2-0.2-4.9c-0.7,0-1.3,0.2-1.8,0c-2.2-1.1-4.9-0.5-7-2c-0.1-0.1-0.3,0-0.4-0.1c-1.6-0.3-3.2-0.7-5-1.1
		c-0.2,1.5-0.5,3.2-0.7,4.9c0,0.1-0.1,0.3-0.1,0.4c-0.4,2.4-0.8,4.7-1.2,7.1c-0.1,0.9-0.3,1.8-0.4,2.7c-0.2,1.3-0.4,2.5-0.5,3.8
		C4.2,181.9,4.1,182.1,4.1,182.3z M37.7,74.9c0.2,1.3,0.4,2.5,0.6,3.8c0.1,0.9,0.2,1.8,0.4,2.7c0.2,1.1,0.6,2.3,0.7,3.4
		c0.1,0.4-0.2,0.9-0.2,1.4c0,0.3-0.1,0.7,0,1c0.6,1.6,1.3,3.3,1.2,5.1c0,0.6,0.2,1.3,0.3,1.9c0.1,0.7,0.4,1.4,0.5,2.1
		c0.2,1.4,0.4,2.8,0.6,4.2c0.2,1.6,0.3,3.3,0.4,4.9c0,0.5,0.6,0.9,1,0.6c1-0.7,2-1,3.2-1c0.5,0,1-0.2,0.9-1
		c-0.2-1.1-0.2-2.3-0.3-3.5c-0.1-0.8,0-1.7-0.1-2.5c-0.2-1.7-0.6-3.5-0.8-5.2c-0.1-0.8,0.1-1.6-0.2-2.3c-0.7-1.7-1.1-3.5-1-5.4
		c0-0.6-0.1-1.2-0.2-1.7c-0.3-1.4-0.8-2.7-1-4c-0.3-1.4-0.4-2.9-0.6-4.3c-0.1-0.4-0.3-1-0.6-1c-1.1-0.1-2.3,0-3.4,0.1
		C38.5,74.2,38,74.7,37.7,74.9z M98.8,265.9c1.3-0.2,2.4-0.4,3.5-0.6c1.2-0.3,2.4-0.6,3.6-0.9c0.4-0.1,0.8-0.2,1.2-0.4
		c0.9-0.3,1.9-0.9,2.8-1c1.5-0.3,3-0.6,4.2-1.7c0.3-0.3,0.9-0.3,1.3-0.4c0.7-0.2,1.5-0.3,2.2-0.5c0.7-0.2,1.4-0.4,2.1-0.7
		c0.4-0.2,0.6-0.5,0.9-0.8c-0.2-0.2-0.4-0.6-0.7-0.7c-0.3-0.2-0.7-0.1-1.1-0.2c-0.5-0.1-1-0.1-1.4-0.3c-1.2-0.5-2.2-1.4-3.6-1.1
		c-0.3,0.1-0.7-0.2-1-0.3c-1.2-0.4-2.3-1-3.5-1.1c-1.1-0.2-2-0.3-2.9-1.1c-0.4-0.3-0.6-0.2-0.8,0.2c-0.2,0.5-0.5,1.1-0.9,1.4
		c-1.1,0.9-2.1,1.8-3.3,2.5c-0.7,0.4-1.7,0.4-2.6,0.4c-1,0-2-0.2-3-0.4C96.3,261,97.9,263.4,98.8,265.9z M22.5,270.7
		c1.3,0.4,2.4,0.8,3.5,1.2c1.1,0.3,2.3,0.6,3.4,0.9c0.4,0.1,0.8,0.2,1.2,0.2c1.2,0.2,2.3,0.4,3.5,0.6c1,0.2,2,0.8,3.1,0.5
		c1.1-0.3,2.1-0.3,3,0.6c0.1,0.1,0.2,0.1,0.3,0.1c1.2,0.2,2.3,0.4,3.5,0.5c0.2,0,0.6,0.1,0.7-0.1c0.2-0.2,0.5-0.8,0.4-0.9
		c-0.3-0.4-0.8-0.8-1.2-1.1c-0.4-0.4-0.9-0.7-1.2-1.1c-0.5-0.6-0.9-1.7-1.5-1.9c-1.7-0.6-2-2.6-3.7-3.2c-0.1,0-0.2-0.3-0.3-0.5
		c-0.1-0.2-0.2-0.4-0.4-0.4c-1-0.4-1.6-1.2-2-2.2c-0.2-0.6-0.5-0.5-0.9-0.1c-0.3,0.3-0.8,0.6-1.2,0.7c-1.4,0.3-2.9,0.6-4.3,0.6
		c-0.8,0-1.6-0.3-2.4-0.7c-0.9-0.5-1.7-1.3-2.6-1.9C22.6,265.2,22.8,268,22.5,270.7z M99.5,79.5c-1.3,0.3-2.2,0.5-3.2,0.6
		c-1.3,0.2-2.2-0.6-1.9-1.9c0.1-0.3,0-0.7-0.1-1c0-1.3-0.4-2.5-0.8-3.8c-0.4-1.4-0.5-3-0.6-4.5c-0.1-1.1,0.1-2.2,1.1-3
		c0.3-0.2,0.6-0.5,0.7-0.8c0.4-1.1,1-1.6,2.2-1.6c0.3,0,0.6-0.1,0.9-0.1c1.1-0.2,2.1-0.4,3.2-0.5c1-0.1,1.7-0.5,2-1.5
		c-0.2,0-0.4-0.1-0.5-0.1c-1.4-0.1-2.8-0.2-4.2-0.4c-0.4,0-0.7-0.3-1-0.5c-0.5-0.3-1-0.6-1.5-0.9c0,0.1,0,0.2,0,0.3
		c-1.2,1.1-2.4,2.2-3.7,3.2c-1.4,1-2.9,1.7-4.5,1.6c0,0.8,0,1.4,0.1,2c0.2,1,0.6,2,0.6,3c0.1,1.1,0.3,2,0.6,3.1
		c0.4,1.5,0.4,3.1,0.4,4.7c0,2.1,0.2,2.1,2.1,2.6c2.2,0.5,4.4,1.1,6.7,1.6C98.4,81.2,98.9,80.5,99.5,79.5z M96.5,69.6
		c0.4-0.3,0.8-0.6,1.1-0.7c1.1-0.4,2.3-0.8,3.5-1c1-0.2,1-0.7,0.8-1.4c-1.9,0.4-3.8,0.8-5.7,1.3C96.3,68.3,96.4,68.9,96.5,69.6z
		 M98.8,54.9c-0.1,0.9-0.2,1.7-0.3,2.5c0.4,0.1,0.8,0.3,1.2,0.4c0.9,0.2,1.2,0,1.3-0.9c0.1-0.7,0.2-1.3,0.2-1.9
		C100.5,54.9,99.7,54.9,98.8,54.9z M96.8,73c1.6-0.2,3.2-0.3,4.7-0.6c0.2,0,0.5-0.5,0.6-0.8c0-0.1-0.3-0.5-0.4-0.5
		c-0.4,0-0.9-0.1-1.3,0.1c-1.2,0.6-2.4,0.9-3.9,0.1C96.6,72,96.7,72.5,96.8,73z M96.8,76.5c1.8-0.1,3.6-0.1,4.9-1.7
		c-1.7,0.5-3.3,0.9-4.9,1.3C96.7,76.2,96.8,76.4,96.8,76.5z"/>
	<path class="st0" d="M39.9,110.2c0.6-0.1,1.2,0,1.8-0.2c0.5-0.1,0.9-0.4,1.3-0.7c0.4-0.3,0.8-0.7,1.3-0.4c0.1,0.1,0.3,0,0.4,0.1
		c1.1,0.3,2-0.8,3.3-0.4c1,0.2,2.2-0.3,3.3-0.6c0-2.4,0-4.8-0.6-7c-0.1-0.5-0.1-0.9,0.5-1c1.2-0.1,2.3-1,3.7-0.5
		c0.1,0,0.3,0.1,0.4,0c1.2-0.9,2.5-0.3,3.8-0.6c1.5-0.4,3.2-0.5,4.6-1.1c1.2-0.5,2.3-0.2,3.6-0.6c0.2,1.1,0.5,2.2,0.7,3.2
		c0.1,0.5,0.3,0.9,0.4,1.4c0.2,0.7,0.5,1.5,0.7,2.2c0.3,0.8,0.5,1.6,0.8,2.3c0.1,0.2,0.3,0.4,0.3,0.6c0.2,1.2,0.3,2.3,0.5,3.5
		c0,0.2,0,0.4,0,0.6c0.7,1.5,1.1,3.1,1.6,4.7c0.1,0.3,0.2,0.7,0.3,1c0.1,0.3,0.1,0.6,0.1,0.9c0.3,1.1,0.6,2.3,1,3.4
		c0.5,1.2,0.8,2.3,1,3.6c0.2,1,0.7,2,1,3c0.4,1.3,1.2,2.5,1.7,3.8c0.1,0.2,0,0.5,0.1,0.7c0.2,0.8,0.3,1.5,0.5,2.3
		c0.1,0.3,0.1,0.6,0.2,0.9c0.2,0.8,0.5,1.6,0.7,2.4c0,0.1,0.2,0.2,0.2,0.3c0.4,1.6,0.7,3.2,1.1,4.8c0.2,0.7,0.6,1.4,0.8,2.1
		c0.4,1,0.7,2.1,1,3.2c0.6,1.8,1.1,3.7,1.6,5.5c0.3,1.2,0.7,2.4,0.9,3.6c0.1,0.3,0,0.6,0.1,0.9c0.6,1.9,1.2,3.9,1.8,5.8
		c0.1,0.2,0,0.5,0.1,0.8c0.2,0.6,0.2,1.2,0.6,1.6c0.5,0.5,0.5,0.9,0.4,1.6c-0.1,0.4,0.1,0.9,0.2,1.4c0.2,0.6,0.5,1.3,0.6,1.9
		c0.2,0.9,0.3,1.8,0.9,2.7c0.4,0.5,0.3,1.4,0.4,2.1c0.3,1.7,0.7,3.4,1,5.1c0.4,1.9,0.9,3.9,1.3,5.8c0.2,1,0.5,1.9,0.8,2.9
		c0.4,1.2,0.9,2.3,1.3,3.5c0,0.1,0,0.1,0,0.2c-0.2,2.1,0.8,3.9,1.2,5.8c0.4,2,0.9,3.9,1.4,5.7c-1,0.4-2.1,0.9-3.1,1.3
		c-0.2,0.1-0.4,0.1-0.6,0.1c-1.5-0.3-2.9-0.1-4.1,0.9c-0.1,0.1-0.2,0.1-0.3,0.1c-2.1,0.1-4.2,0.1-6.3,0.2c-0.3,0-0.7,0.1-0.9,0.3
		c-0.7,0.6-1.4,0.4-2.2,0.3c-0.4,0-0.9-0.2-1.2-0.1c-1.4,0.7-3,0.4-4.4,0.5c-1,0.1-2,0.4-3,0.5c-1.8,0.1-3.6-0.1-5.4,0
		c-1.1,0.1-2.3,0-3.4,0.1c-1.7,0.1-3.4-0.1-5.1-0.1c-1.3,0-2.6,0.2-3.9,0.3c-0.4,0-0.7,0-1.1,0c-1.7,0-3.4,0.1-5.1,0.1
		c-0.3,0-0.6,0.2-0.9,0.2c-0.6,0-1.3,0-1.9,0c-0.3,0-0.6-0.2-0.9-0.2c-0.9,0-1.8,0.1-2.6,0.1c-1.6,0-3.2,0-4.8,0
		c-1.7,0.1-3.5,0.3-5.2,0.4c-0.1,0-0.3,0-0.4-0.1c-0.9-0.8-2-0.5-2.9-0.3c-1,0.2-1.9,0.1-2.9-0.1c-1.6-0.4-3.3-0.3-5-0.4
		c-1.6-0.1-3.2,0-4.9-0.1c0.1-1.2,0.1-2.1,0.2-3c0-1.1,0-2.2,0-3.3c0-0.4,0.1-0.9,0.1-1.3c0.1-0.5,0.2-1.1,0.1-1.6
		c-0.1-1.2-0.3-2.4-0.4-3.6c0-0.2,0.2-0.4,0.2-0.7c0-0.8,0.3-1.7,0-2.3c-0.5-1.3-0.2-2.6,0-3.8c0.1-0.9,0.4-1.8-0.1-2.5
		c0.6-0.6,1.1-1.2,1.7-1.6c1.3-0.8,1.2-2,1.2-3.3c0-0.5,0-1,0.5-1.3c0.2-0.1,0.3-0.4,0.4-0.7c0.4-1,0.9-1.1,1.8-0.6
		c0.8,0.4,1.6,0.7,2.5,0.9c0.8,0.2,1.4-0.3,1.9-1c0.3-0.4,0.7-0.8,1.1-0.8c1.7-0.3,2.4-1.7,1.3-2.9c-1.2-1.4-1.7-2.9-1.6-4.7
		c0-0.3-0.2-0.6-0.3-0.9c-0.3-1-0.6-2-0.9-3c-0.1-0.4-0.4-0.8-0.6-1.2c0.2-1.2,0.4-2.4,0.7-3.6c0.1-0.4,0.3-0.9,0.5-1.2
		c1.1-1.3,1.3-3,1.6-4.6c0.1-0.7,0.5-1.4,0.7-2.1c0.1-0.2,0.2-0.4,0.3-0.6c0.6-2,1.2-3.9,1.7-5.9c0.4-1.6,0.8-3.3,1.2-4.9
		c0.1-0.3,0.3-0.7,0.4-1c0.1-0.3,0.3-0.6,0.3-0.8c-0.1-1.1,0.6-2,0.8-3c0.3-1.3,0.5-2.6,0.7-3.8c0-0.2-0.1-0.6,0.1-0.7
		c1.6-1.8,1.7-4.2,2.3-6.3c0.5-2.2,1.4-4.2,1.9-6.4c0.4-1.7,1.2-3.4,1.8-5.1c0.2-0.5,0.3-1,0.3-1.5c0-1.2,0.4-2.2,1-3.2
		C40,110.9,39.9,110.6,39.9,110.2z"/>
	<path class="st1" d="M70.8,17.9c-0.9-1.1-1.7-2-2.6-2.9c-0.6-0.6-1.4-1.1-2.2-1.6c-0.8-0.5-1.6-1-1.9-2c-0.1-0.3-0.5-0.5-0.8-0.7
		c-0.2,0.3-0.6,0.6-0.7,0.9c-0.4,1.1-0.5,2.2,0,3.3c0,0.1,0,0.2,0,0.3c-0.5,1-0.2,2.1-0.2,3.2c-0.1,1.9-0.2,3.8-0.5,5.6
		c-0.2,1.3-0.6,2.7-1.2,3.8c-0.5,0.9-1.5,1.6-2.3,2.4c-0.6,0.5-1.2,1-1.8,1.3c-0.4,0.2-0.9,0.3-1.5,0.5c-0.2-1.4-0.4-2.7-0.5-4.1
		c-0.1-0.9-0.5-1.5-1.2-1.5c-0.7,0-1,0.6-1.1,1.4c-0.3,1.8-0.7,3.7-1,5.5c-0.1,0.6-0.3,1.3-0.4,1.9c-0.3,1.3-0.7,2.5-1.9,3.3
		c-0.6,0.4-1,1-1.6,1.4c-0.4,0.3-0.9,0.4-1.3,0.5c-1.3,0.2-2,1.2-1.8,2.5c0.1,0.4,0.1,0.8,0.1,1.2c0,0.4-0.1,0.9-0.2,1.4
		c-1.2-0.1-2.3-0.1-3.5-0.2c-1.2-0.1-3.4,1.1-3.4,2.4c-0.1,1.1-1.1,1.5-1.4,2.3c-0.2,0.5-0.5,1.1-0.7,1.6c-0.2,0.5-0.5,1-0.8,1.5
		c-0.6,1-0.5,2,0.3,2.9c0.8,0.9,1.6,2,2.4,2.8c0.5,0.4,1.2,0.7,1.8,0.9c1.6,0.6,3.3,0.5,5,0.8c0.2,0,0.4,0.4,0.6,0.6
		c0.4,0.4,0.7,0.9,1.1,1.2c0.8,0.5,0.9,1.3,0.1,1.9c-0.2,0.1-0.4,0.2-0.5,0.4c-0.6,0.5-1.1,1-2,0.7c-0.2-0.1-0.5,0-0.7,0.1
		c-1.8,0.7-3.4-0.2-5.1-0.4c-0.1,0-0.2-0.1-0.3-0.1c-1.1-0.1-1.9-0.4-2.3-1.7c-0.3-1-2-0.9-2.6,0.1c-0.9,1.9-2.8,2-4.4,2.6
		c-1.2,0.5-2.3,0.5-3.5,0.1c-1.8-0.5-3.6-0.7-4.9-2.2c-0.6-0.7-1.6-0.6-2.1,0.2c-0.5,0.7-1.2,1-2,0.9c-1.6-0.2-3.3-0.1-4.8-0.6
		c-1.8-0.6-3.4-1.6-5-2.5c-0.4-0.2-0.5-0.8-0.7-1.2c-0.2-0.6-0.3-1.3-0.5-2c-0.2-0.7-0.5-1.3-0.1-2c0.1-0.2,0.1-0.5,0.1-0.8
		c-0.5-1.7,0.6-2.8,1.4-3.9c0.5-0.7,1.2-1.4,1.6-2.2c0.4-0.7,0.9-1,1.5-1.4c1.1-0.7,2.2-1.7,3.2-2.5c0.4-0.3,0.6-0.7,1-1.1
		c0.8-0.9,1.7-1.8,2.6-2.7c0.2-0.2,0.4-0.5,0.4-0.8c0.2-1.2,0.3-2.4,0.3-3.6c0-0.7,0-1.4-0.1-2.1c-0.3-1.6-0.7-3.2-1-4.9
		c-0.2-1-0.1-2-0.3-3c-0.2-1.4-0.5-2.7-0.9-4.1c-0.4-1.6,0-2.5,1.6-2.9c1.5-0.4,2.8-1.2,4.4-1.5c1.4-0.3,2.9-0.8,4.3-1.3
		c1.4-0.4,2.7-1.1,4.2-1.6c1.2-0.4,2.2-1.4,3.7-1.2c0.5,0.1,1-0.2,1.5-0.4c1.2-0.4,2.4-0.9,3.7-1.3c0.1-0.1,0.3-0.1,0.4-0.1
		c0.9-1,2.2-0.7,3.3-1.2c0.5-0.2,1.2-0.4,1.4-0.9c0.5-0.8,1.2-0.9,1.9-0.9c1.2,0,2.1-0.2,3-1.2c0.7-0.8,1.8-0.9,2.9-0.9
		c1.9,0,3.5-1,5.3-1.5c1.3-0.4,2.4-1.3,3.6-1.5c1.7-0.4,3.2-1.2,4.8-1.5c1.2-0.2,2.6-0.1,3.9,0.1c0.5,0.1,1,0.9,1.4,1.4
		c1.2,1.5,2.2,3.2,2.5,5.2c0.1,0.7,0.5,1.3,0.6,1.9c0.1,1.2,0.1,2.5-0.1,3.8C71.6,16.5,71.2,17,70.8,17.9z"/>
	<path class="st1" d="M35.5,76.5c0.1,1.1,0.1,2,0.2,2.8c0.1,1.2,0.1,2.4,0.2,3.6c0,0.7,0.1,1.3,0.1,2c0.1,0.4,0.1,1,0.3,1.2
		c0.9,0.7,0.7,1.6,0.6,2.5c-0.2,1.4,0,2.8,0.3,4.2c0.2,1,0,2.2,0.4,3.2c0.7,2.1,0.2,4.3,0.8,6.4c0.1,0.2-0.1,0.4-0.1,0.6
		c-0.1,0.3-0.3,0.7-0.3,0.9c0.3,1.2-0.6,2-0.8,3.1c-0.2,0.8-0.3,1.6-0.4,2.4c-0.1,1.2-0.8,2.2-1.2,3.3c-0.8,2.1-1.3,4.3-2,6.5
		c-0.3,1-0.7,2.1-1.1,3.1c-0.1,0.3-0.2,0.5-0.2,0.8c-0.4,2.8-1.6,5.4-2.4,8.1c0,0.1-0.1,0.3-0.1,0.4c0.3,1.8-1,3.2-1.4,4.8
		c-0.1,0.5-0.2,1-0.3,1.5c-0.5,1.7-1,3.5-1.5,5.2c-0.7,2.8-1.4,5.6-2.2,8.4c-0.1,0.3-0.2,0.5-0.3,0.7c-0.1,0.4-0.4,0.8-0.3,1.1
		c0.2,1-0.3,1.8-0.5,2.7c-0.5,1.6-0.8,3.2-1.2,4.7c-0.3,1.3-0.8,1.7-2.1,1.6c-1.5-0.1-3.1-0.1-4.5-1c-0.2-0.1-0.5-0.2-0.7-0.1
		c-1,0.4-1.7-0.3-2.5-0.6c-1.2-0.4-2.4-0.7-3.7-0.9c-0.8-0.1-1.4-0.6-1.1-1.1c1-1.8,0.7-3.9,1.1-5.8c0.4-2.1,0.9-4.1,1.4-6.2
		c0.4-1.5,1-3,1.4-4.5c0.2-0.7,0.2-1.5,0.4-2.2c0.2-1.5,0.5-3,0.7-4.4c0.2-1,0.5-2,0.7-3c0.1-0.4,0.2-0.9,0.2-1.3
		c0-0.2,0-0.4,0.2-0.6c0.8-1,1-2.2,1.1-3.5c0-0.2,0.1-0.5,0.2-0.7c0.2-0.8,0.4-1.5,0.6-2.3c0.1-0.4,0-0.9,0.2-1.2
		c0.9-1.4,1.2-2.9,1.3-4.5c0.1-1,0.7-1.9,1-2.9c0.2-0.5,0.2-1.1,0.4-1.6c0-0.1,0-0.2,0.1-0.3c1.1-0.9,1-2.3,1.5-3.4
		c0.3-0.5,0.6-1.2,0.5-1.7c-0.3-1.3,0.5-2.1,0.9-3.1c0.4-1,0.8-2,1.1-3.1c0.5-1.6,1-3.2,1.5-4.9c0.6-2.4,1.7-4.5,2.7-6.7
		c0.1-0.2,0.2-0.5,0.2-0.7c0.1-0.8,0.4-1.5,1-2c0.2-0.1,0.4-0.4,0.4-0.6c0.2-1.4,1.1-2.5,1.6-3.7c0.1-0.2,0.2-0.5,0.4-0.7
		c0.9-1.1,1.8-2.1,2.6-3.2c0.5-0.6,0.9-1.3,1.4-1.9C34.3,77.2,34.9,76.9,35.5,76.5z"/>
	<path class="st1" d="M76.3,47.5c-0.2,0.8-0.3,1.5-0.4,2.2c-0.1,0.4-0.2,0.8-0.2,1.2c0.1,1.6-0.8,2.9-1.9,3.8
		c-1.3,1-2.5,2.2-4.1,2.9c-1.1,0.4-2.1,1.1-3.1,1.6c0,0-0.1,0-0.1,0c-1.3-0.6-2.4,0.4-3.7,0.5c-0.3,0-0.6,0-0.9,0.2
		c-1.4,0.9-3,1.3-4.5,1.8c-0.9,0.3-1.8,1.6-1.7,2.5c0,0.3,0,0.6,0.1,0.9c0.7,1.3,0.2,2.7,0.2,4.2c-0.9,0.4-1.8,1-3.1,0.9
		c-1.4-0.1-2.9,0.4-4.3,0.5c-0.6,0.1-1.1,0.1-1.7-0.1c-0.9-0.2-1.6-0.3-2.4,0.3c-0.1,0.1-0.4,0.1-0.6,0c-0.4-0.2-0.9-0.4-1.4-0.6
		c0-0.4,0-0.8,0-1.1c0.7-0.4,1.4-0.8,2.1-1.2c0.2-0.1,0.4-0.1,0.6-0.1c1.2-0.1,2.3-0.5,3.2-1.4c0.4-0.5,0.9-0.9,1.7-0.9
		c0.8,0,1.5-0.6,1.6-1.4c0.2-0.9-0.2-1.6-1-1.9c-1-0.5-2.1-0.8-3.1-1.2c-0.6-1.2-1.1-2.3-1.7-3.4c-0.2-0.3-0.8-0.5-1.3-0.6
		c-1.2-0.2-2.5-0.2-3.7-0.5c-1-0.2-1.9-0.7-2.8-1.1c-0.2-0.1-0.4-0.4-0.5-0.7c-0.2-0.5-0.3-1-0.4-1.5c0-0.2-0.1-0.5,0-0.7
		c0.2-0.5,0.5-1,0.7-1.5c0.3-0.7,0.5-1.1,1.4-1.4c0.9-0.3,1.7-1,2.4-1.6c0.5-0.4,2.2-0.5,2.5-0.1c0.5,0.6,1.1,0.9,1.8,0.5
		c0.8-0.4,1-1.1,1-1.9c0-0.5,0-1.1-0.2-1.6c-0.3-0.8,0.2-1.1,0.8-1.3c1.1-0.3,2-0.8,2.6-1.8c0.3-0.5,0.9-0.7,1.2-1.1
		c0.9-1.5,1.7-3,2.5-4.5c0.1-0.3,0.5-0.5,0.8-0.5c1.6-0.3,3.1-0.8,4.3-1.9c0.3-0.3,1.1-0.3,1.2-0.6c0.8-1.4,2.7-2,2.8-3.8
		c0-0.1,0.1-0.2,0.1-0.2c1.7-1.5,1.8-3.6,1.9-5.7c0.1-2-0.1-4-0.1-6.1c0-0.3,0-0.6,0.1-0.9c1.8,0.9,2.6,2.6,3.6,4.2
		c0.6,1,1.3,1.9,1.9,2.8c0.1,0.2,0.2,0.4,0.3,0.6c0.5,1.5,0.8,3.1,1.9,4.3c0.1,0.1,0,0.4,0,0.6c-0.3,1.1-0.1,1.9,0.8,2.7
		c0.1,0.1,0.3,0.2,0.3,0.4c0.6,1.4,0.7,1.5,2,1.4c0.5,0.5,1,1,1.4,1.4c0.8,0.7,0.8,1.2,0,1.9c-0.6,0.6-1.3,1.2-1.8,1.9
		c-0.3,0.4-0.3,1.1-0.2,1.6c0.1,1,0.3,1.9,0.4,2.9c0,0.2-0.3,0.5-0.5,0.6c-0.9,0.2-1.7,0.4-2.6,0.5c-0.3,0-0.7-0.2-1-0.5
		c-0.7-0.5-1.6-0.8-1.8-1.9c-0.1-0.3-0.7-0.7-1.1-0.7c-0.3,0-0.9,0.3-1.1,0.6c-0.4,0.8-0.6,1.6,0.1,2.4c0.5,0.5,0.8,1.1,1.2,1.7
		c1.2,1.7,3.2,1.4,4.9,1.8C74.6,48.1,75.4,47.7,76.3,47.5z M60.9,45.9c1.8,0.1,4-1.8,3.8-4c-0.1-1.3-2.3-3.7-3.7-3.8
		c-1.9-0.1-4.1,2.5-4.1,4.8C56.9,44.2,59.1,45.9,60.9,45.9z M66.4,32.9c-0.1,1.4,0.9,2.3,2.4,2.3c1.1,0,1.8-0.7,1.9-2.1
		c0.1-1.2-0.9-2.3-2.2-2.4C67.4,30.7,66.5,31.6,66.4,32.9z"/>
	<path class="st1" d="M32.2,260.4c-0.5,0.3-0.8,0.3-1,0.6c-0.8,1.1-1.6,0.7-2.7,0.4c-1.7-0.4-2.8-1.7-4.2-2.5
		c-0.1-0.1-0.2-0.4-0.2-0.6c0.1-1.3,0.2-2.6,0.4-3.8c0-0.4,0.2-0.8,0-1c-1.1-1.4,0.3-2.5,0.3-3.7c0-0.6,0.1-1.1,0.2-1.7
		c0-0.4,0-0.7,0.1-1.1c0-0.4,0.2-0.8,0.1-1c-0.4-1,0.1-1.9,0.1-2.8c0-0.9-0.1-1.9-0.2-2.8c0-0.2-0.1-0.5,0-0.6
		c0.8-1.1,0.3-2.3,0.3-3.5c0-1.3,0-2.6,0-3.9c0-0.1,0.1-0.3,0.1-0.4c-0.4-2.3,0.4-4.6,0.1-7c-0.2-1,0.1-2.1,0.2-3.2
		c0-0.1,0.1-0.3,0-0.4c-0.8-1.6,0.1-3.1,0.2-4.7c0.1-1.2,0.2-2.4,0.3-3.6c0.5,0.1,0.9,0.2,1.4,0.3c0.8,0.2,1.6,0.3,2.3-0.2
		c0.1-0.1,0.2-0.1,0.3-0.1c1.5,0.2,3,0.5,4.5,0.6c1.1,0.1,2.3-0.1,3.4-0.1c0.3,0,0.6-0.1,1-0.1c0.9,0,1.8,0,2.6-0.1
		c0.2,0,0.3,0.1,0.5,0.1c-0.3,2.5-2,4.4-2.2,6.9c-0.2,1.6-0.6,3.2-1,4.7c-0.2,0.8-0.5,1.5-0.7,2.3c-0.2,1-0.2,2-0.3,3
		c0,0.3-0.2,0.5-0.3,0.7c-0.3,0.6-0.6,1.2-0.8,1.9c-0.6,2.4-1,4.9-1.6,7.3c-0.6,2.4-1.3,4.7-1.8,7.1c-0.4,1.8-0.7,3.7-1,5.6
		c-0.1,0.4-0.2,0.8-0.3,1.2c0,0.2-0.2,0.4-0.1,0.5c0.3,1.5-0.3,3-0.5,4.4C31.6,259.4,32,259.9,32.2,260.4z"/>
	<path class="st1" d="M74.1,212c1.4,0.1,2.6-0.8,3.9-0.3c0.2,0.1,0.6,0.1,0.8,0c2.6-1.3,5.4-0.1,8-0.9c0.8-0.2,1.7-0.4,2.6-0.7
		c0.1,0.4,0.2,0.9,0.4,1.3c0.6,2.1,1.3,4.2,1.8,6.4c0.4,1.8,0.7,3.5,1.7,5.1c0.1,0.2,0.1,0.5,0.1,0.8c0.1,0.8,0.1,1.7,0.4,2.5
		c0.6,2.3,1.4,4.6,2,6.9c0.6,2.2,1.1,4.5,1.7,6.7c0.5,1.9,1.2,3.7,1.8,5.5c0.7,1.9,1.4,3.9,2.1,5.8c0,0.1,0.1,0.2,0.2,0.3
		c0.3,0.3,0.9,0.7,0.9,0.9c-0.2,0.8-0.7,1.5-1.1,2.2c0,0.1-0.1,0.1-0.2,0.1c-1.6,0.1-3.3,0.9-4.9,0.1c-0.1,0-0.2-0.1-0.3-0.1
		c-1.4,0.2-1.7-0.8-2.1-1.8c-0.3-0.8-0.6-1.7-1-2.5c-0.1-0.2-0.2-0.6-0.4-0.7c-1.6-0.7-1-2.3-1.5-3.5c-0.2-0.5-0.5-1.1-0.7-1.6
		c-0.1-0.3-0.3-0.6-0.4-1c-0.1-0.3-0.2-0.7-0.4-1c-0.4-0.8-0.8-1.5-1.2-2.3c-0.4-1-0.7-2-1.7-2.7c-0.1-0.1-0.2-0.3-0.2-0.4
		c0.1-0.9-0.4-1.6-0.9-2.4c-0.9-1.6-1.7-3.2-2.6-4.8c-0.1-0.3-0.4-0.5-0.5-0.7c-0.2-0.4-0.4-0.8-0.6-1.2c-0.4-0.8-0.7-1.7-1.1-2.5
		c-0.4-0.9-0.8-1.9-1.4-2.7c-0.8-1-0.8-2.4-2-3.1c-0.1-0.1-0.2-0.3-0.3-0.4c-0.9-2.3-1.8-4.5-2.7-6.8
		C74.2,212.6,74.2,212.4,74.1,212z"/>
	<path class="st1" d="M99.2,85.8c-0.5,1-0.9,2-1.3,3c-0.1,0.2-0.2,0.4-0.2,0.5c0.3,2-1.1,3.4-1.4,5.2c-0.2,0.9-0.6,1.6-1.2,2.3
		c-0.5,0.6-0.7,1.6-1,2.4c-0.6,1.5-1.2,2.9-1.7,4.5c-0.3,1-0.7,2-1.3,2.9c-0.3,0.5-0.7,0.9-1.2,1.4c-1.2,1.2-2.2,2.6-3.3,4
		c-0.3,0.4-0.7,0.9-1.1,1.2c-1.6,1.1-3.5,1.3-5.4,1.3c-1.4,0-2.7,0.3-4.2,0.5c0-0.4,0-1-0.2-1.5c-0.5-0.9-0.7-1.8-0.7-2.8
		c0-0.3-0.2-0.6-0.3-0.9c-0.3-0.8-0.5-1.7-0.9-2.4c-0.8-1.1-0.8-2.3-0.8-3.5c0-0.4-0.3-0.7-0.4-1.1c-0.2-0.7-0.3-1.4-0.4-2.1
		c-0.1-0.5-0.2-0.9-0.3-1.4c-0.1-0.4-0.2-0.8-0.2-1.4c0.2,0.2,0.4,0.4,0.7,0.5c0.5,0.2,1.1,0.5,1.6,0.7c0.6,0.2,1.2,0.5,1.8,0.4
		c1.1,0,2.2-0.2,3.3-0.4c0.5-0.1,0.9-0.3,1.3-0.6c0.3-0.2,0.7-0.4,0.9-0.7c1.2-2.4,2.8-4.4,4.3-6.6c0.6-1,1-2.2,1.4-3.3
		c0-0.1,0.1-0.2,0.2-0.3c1.3-1.1,1.2-2.7,1.8-4.3c0.9,0.2,1.8,0.4,2.7,0.7c1.4,0.4,2.9,1.1,4.3,1.1C97.1,85,98,85.5,99.2,85.8z"/>
	<path class="st1" d="M66.4,93.4c-1.8,0.9-3.6,1-5.5,1.2c-1.5,0.2-3,0.2-4.4,1.1c-0.1,0.1-0.4,0-0.7,0c-0.4,0-0.9-0.2-1.1-0.1
		c-1.4,0.8-2.9,0.3-4.3,0.5c-0.8,0.1-1-0.3-1-1c0-0.6,0.1-1.2,0-1.8c-0.1-0.6-0.2-1.1-0.4-1.6c-0.1-0.5-0.3-1-0.3-1.4
		c-0.1-1.3-0.1-2.7-0.2-4c-0.1-0.6-0.4-1.1-0.6-1.7c-0.2-0.6-0.3-1.3-0.5-2c-0.3-1.4-0.5-2.8-0.8-4.2c-0.3-1.3-0.8-2.6-1.3-4.2
		c1.5,0,2.8,0,4.1,0c1.7,0.1,3.4,0.1,5-0.7c0.1-0.1,0.3-0.1,0.4-0.1c1.4-0.1,2.8-0.1,4.2-0.3c0.5,0,0.9-0.2,1.4-0.4
		c0.8-0.3,1.2-0.1,1.4,0.8c0.2,1.1,0.4,2.2,0.6,3.2c0.2,0.6,0.5,1.3,0.7,1.9c0,0.1,0.2,0.2,0.1,0.2c-0.4,1.1,0.3,2.1,0.4,3.2
		c0.2,1.3,0.9,2.6,0.9,4c0,0,0,0.1,0,0.1c1.5,1.2,1.2,2.9,1.3,4.5C66.1,91.5,66.3,92.5,66.4,93.4z"/>
	<path class="st0" d="M118.7,22.9c0.2,1.3,0.5,2.6,0.5,3.9c0,1.1-0.3,2.2-0.4,3.3c-0.1,0.5,0,1-0.1,1.5c0,0.6-0.1,1.2-0.2,1.8
		c0,0.3-0.2,0.6-0.1,0.8c0.4,1.2-0.2,2.1-0.8,3.1c-0.2,0.3-0.2,0.6-0.4,0.9c-0.1,0.4-0.2,0.8-0.3,1.1c-0.5,1.2-1.4,2.3-1.4,3.5
		c-0.1,1.4-0.9,2.2-1.6,3.2c-0.8,1.2-1.8,2.3-2.7,3.4c0,0-0.1,0-0.1,0.1c-0.3,1.4-1.6,1.7-2.6,2.1c-1.1,0.4-2.2,0.8-3.4,0.8
		c-2.2,0.1-4.3-0.4-6.4-1.1c-0.2-0.1-0.3-0.2-0.5-0.3c-0.6-0.5-1-1.2-1.7-1.6c-1.7-1-2.4-2.7-3.1-4.4c-0.1-0.2-0.2-0.5-0.3-0.7
		c-1.1-1.2-1.3-2.6-0.8-4.1c0.1-0.3,0.1-0.7,0-1.1c-0.3-1.4-0.1-2.7,0.1-4.1c0.1-0.6,0.2-1.3,0.1-1.9c-0.2-1.4,0.2-2.7,0.2-4.1
		c0-0.8,0.2-1.4,0.8-2c0.3-0.3,0.4-0.8,0.5-1.2c0.1-1.1,0-2.2,0.2-3.2c0.3-1.6,1-3,2.1-4.2c0.8-1,1.4-2.2,2-3.5c0.3-0.6,0.5-1,1-1.2
		c0.4-0.2,0.9-0.6,1.1-1c0.3-0.8,0.9-1,1.5-1.3c0.6-0.3,1.1-0.7,1.7-1.1c0.9-0.7,1.9-1.2,3.1-1.5c1.2-0.3,2.4,0.4,3.5-0.2
		c0.2-0.1,0.6-0.1,0.8,0.1c1.5,1.3,3,2.6,4.3,4c0.8,0.9,1.5,2,1.8,3.3c0.3,1.3,0.8,2.6,1.2,4c0.3,1,0.4,2.1,0.5,3.1
		C118.8,22.9,118.7,22.9,118.7,22.9z M93.9,36.9c0,0,0.1,0,0.1,0c0.1,0.6,0.1,1.1,0.2,1.7c0.2,1.1,0.5,2.2,0.7,3.3
		c0.3,1.1,0.5,2.3,1,3.3c0.3,0.6,1,1.1,1.6,1.5c0.8,0.7,1.4,1.6,2.3,1.9c1.6,0.5,3.3,0.6,5,0.8c0.6,0.1,1.4-0.2,1.9-0.6
		c1-0.8,2-1.7,2.8-2.7c0.8-1,1.4-2.1,2-3.2c0.3-0.6,0.5-1.2,0.7-1.8c0.2-0.7,0.4-1.4,0.7-2.1c0.2-0.6,0.7-1.2,0.9-1.8
		c0.3-1.3,0.4-2.6,0.6-3.9c0.1-0.6,0.4-1.1,0.4-1.6c0.1-1.3-0.1-2.6,0.4-3.9c0.1-0.3,0.1-0.7-0.1-0.9c-0.8-1.1-0.4-2.4-0.3-3.5
		c0.2-1.9-0.3-3.5-0.9-5.1c-0.4-1.1-1.6-1.6-2-2.7c-0.2-0.5-0.7-0.9-1.1-1.2c-0.8-0.5-1.6-1.2-2.5-1.3c-1.4-0.2-2.9-0.9-4.2,0.1
		c0,0-0.1,0-0.2,0c-0.3,0.1-0.7,0.1-0.9,0.3c-0.8,0.8-2.1,1-2.2,2.4c0,0.1-0.2,0.2-0.4,0.4c-0.3,0.3-0.7,0.7-0.9,1
		c-0.6,1-0.7,2.2-1.9,2.8c-0.2,0.1-0.3,0.4-0.4,0.6c-0.3,0.7-0.6,1.4-0.8,2.1c-0.3,0.9-0.5,1.8-0.7,2.7c-0.1,0.6-0.1,1.3-0.2,2
		c-0.1,0.4-0.1,0.9-0.3,1.2c-0.5,0.6-0.7,1.3-0.6,2.1c0.1,0.7,0.1,1.4,0,2C94.5,34,94.2,35.4,93.9,36.9z"/>
	<path class="st1" d="M4.1,182.3c0-0.2,0-0.4,0.1-0.6c0.2-1.3,0.4-2.5,0.5-3.8c0.1-0.9,0.2-1.8,0.4-2.7c0.4-2.4,0.8-4.7,1.2-7.1
		c0-0.1,0.1-0.3,0.1-0.4c0.3-1.7,0.5-3.4,0.7-4.9c1.8,0.4,3.4,0.7,5,1.1c0.1,0,0.3,0,0.4,0.1c2.1,1.5,4.8,1,7,2c0.4,0.2,1,0,1.8,0
		c0,1.7-0.1,3.3,0.2,4.9c0.2,1.5,0,3.1,1.1,4.3c0.3,0.3,0.3,0.8,0.5,1.3c-0.6,0.1-1.1,0.2-1.5,0.3c-0.9-0.6-1.7-1.3-2.5-1.9
		c-0.7-0.5-1.9-0.2-2.5,0.6c-0.7,1-1.7,1.9-1.8,3.2c0,0.1-0.1,0.2-0.1,0.4c0.3,1-0.3,1.8-0.8,2.6c-0.4,0.7-0.6,1.4-0.9,2.2
		c-0.2-0.1-0.5-0.2-0.6-0.2c0-2.1,1.2-4.1,0.5-6.1c-0.1-0.4-0.4-0.9-0.7-1c-0.4,0-0.9,0.3-1.2,0.6c-0.8,0.9-1.4,1.9-1.4,3.2
		c0,0.2-0.1,0.4-0.2,0.6c-0.2,0.7-0.4,1.4-0.6,2c0.1,0.1,0.2,0.2,0.3,0.2c-0.4,0.1-0.7,0.1-1.3,0.3c0.5-2,1-3.7,1.5-5.4
		c0.2-0.7,0.3-1.4,0.4-2.1c0.1-0.8-0.3-1.4-1-1.6c-0.7-0.3-1.4-0.1-1.8,0.6c-0.7,0.9-1,1.8-1.2,2.9c-0.2,1.5-0.9,3-1.3,4.5
		C4.3,182.3,4.2,182.3,4.1,182.3z"/>
	<path class="st0" d="M37.7,74.9c0.4-0.2,0.8-0.7,1.3-0.8c1.1-0.2,2.3-0.2,3.4-0.1c0.2,0,0.5,0.6,0.6,1c0.2,1.4,0.3,2.9,0.6,4.3
		c0.3,1.4,0.7,2.7,1,4c0.1,0.6,0.3,1.2,0.2,1.7c-0.1,1.9,0.3,3.6,1,5.4c0.3,0.7,0.1,1.5,0.2,2.3c0.2,1.7,0.6,3.5,0.8,5.2
		c0.1,0.8,0.1,1.7,0.1,2.5c0.1,1.2,0.1,2.3,0.3,3.5c0.1,0.8-0.4,1-0.9,1c-1.2,0-2.2,0.3-3.2,1c-0.4,0.3-1-0.1-1-0.6
		c-0.1-1.6-0.3-3.3-0.4-4.9c-0.1-1.4-0.3-2.8-0.6-4.2c-0.1-0.7-0.3-1.4-0.5-2.1c-0.1-0.6-0.3-1.3-0.3-1.9c0.1-1.8-0.6-3.5-1.2-5.1
		c-0.1-0.3-0.1-0.6,0-1c0.1-0.5,0.3-0.9,0.2-1.4c-0.2-1.1-0.5-2.3-0.7-3.4c-0.2-0.9-0.3-1.8-0.4-2.7C38.1,77.4,37.9,76.2,37.7,74.9z
		"/>
	<path class="st1" d="M98.8,265.9c-0.9-2.5-2.5-4.9-2.9-7.7c1,0.1,2,0.4,3,0.4c0.9,0,1.9,0,2.6-0.4c1.2-0.7,2.3-1.6,3.3-2.5
		c0.4-0.3,0.6-0.9,0.9-1.4c0.2-0.5,0.4-0.6,0.8-0.2c0.8,0.8,1.8,0.9,2.9,1.1c1.2,0.2,2.4,0.7,3.5,1.1c0.3,0.1,0.7,0.4,1,0.3
		c1.4-0.2,2.5,0.7,3.6,1.1c0.4,0.2,0.9,0.2,1.4,0.3c0.4,0.1,0.8,0.1,1.1,0.2c0.3,0.1,0.5,0.5,0.7,0.7c-0.3,0.3-0.6,0.7-0.9,0.8
		c-0.7,0.3-1.4,0.5-2.1,0.7c-0.7,0.2-1.5,0.3-2.2,0.5c-0.5,0.1-1,0.1-1.3,0.4c-1.2,1.1-2.7,1.4-4.2,1.7c-1,0.2-1.9,0.7-2.8,1
		c-0.4,0.1-0.8,0.3-1.2,0.4c-1.2,0.3-2.4,0.6-3.6,0.9C101.2,265.5,100.1,265.7,98.8,265.9z"/>
	<path class="st1" d="M22.5,270.7c0.4-2.7,0.1-5.5,1.1-8.2c0.8,0.6,1.7,1.4,2.6,1.9c0.7,0.4,1.6,0.8,2.4,0.7c1.4,0,2.9-0.4,4.3-0.6
		c0.4-0.1,0.9-0.4,1.2-0.7c0.4-0.4,0.7-0.4,0.9,0.1c0.4,1,1,1.8,2,2.2c0.2,0.1,0.3,0.3,0.4,0.4c0.1,0.1,0.1,0.4,0.3,0.5
		c1.6,0.6,2,2.6,3.7,3.2c0.6,0.2,1,1.3,1.5,1.9c0.4,0.4,0.8,0.7,1.2,1.1c0.4,0.4,0.9,0.7,1.2,1.1c0.1,0.1-0.2,0.6-0.4,0.9
		c-0.1,0.1-0.5,0.1-0.7,0.1c-1.2-0.2-2.3-0.4-3.5-0.5c-0.1,0-0.3,0-0.3-0.1c-0.9-0.9-1.9-0.8-3-0.6c-1.1,0.3-2.1-0.3-3.1-0.5
		c-1.2-0.2-2.3-0.4-3.5-0.6c-0.4-0.1-0.8-0.1-1.2-0.2c-1.1-0.3-2.3-0.6-3.4-0.9C24.8,271.5,23.7,271.1,22.5,270.7z"/>
	<path class="st1" d="M99.5,79.5c-0.6,1-1.1,1.7-1.4,2.2c-2.3-0.6-4.5-1.1-6.7-1.6c-1.9-0.4-2.1-0.5-2.1-2.6c0-1.6,0-3.2-0.4-4.7
		c-0.3-1-0.5-2-0.6-3.1c-0.1-1-0.5-2-0.6-3c-0.1-0.6-0.1-1.3-0.1-2c1.6,0,3.2-0.7,4.5-1.6c1.3-0.9,2.5-2.1,3.7-3.2
		c0-0.1,0-0.2,0-0.3c0.5,0.3,1,0.6,1.5,0.9c0.3,0.2,0.7,0.4,1,0.5c1.4,0.2,2.8,0.3,4.2,0.4c0.2,0,0.3,0.1,0.5,0.1
		c-0.3,1-1,1.5-2,1.5c-1.1,0.1-2.1,0.3-3.2,0.5c-0.3,0-0.6,0.1-0.9,0.1c-1.2,0-1.8,0.5-2.2,1.6c-0.1,0.3-0.4,0.6-0.7,0.8
		c-1,0.8-1.1,1.9-1.1,3c0.1,1.5,0.2,3,0.6,4.5c0.4,1.3,0.7,2.5,0.8,3.8c0,0.4,0.1,0.7,0.1,1c-0.2,1.3,0.6,2.1,1.9,1.9
		C97.3,80,98.2,79.8,99.5,79.5z"/>
	<path class="st1" d="M96.5,69.6c-0.1-0.7-0.2-1.3-0.3-1.9c1.9-0.4,3.8-0.8,5.7-1.3c0.1,0.7,0.1,1.2-0.8,1.4c-1.2,0.3-2.3,0.6-3.5,1
		C97.2,69,96.9,69.3,96.5,69.6z"/>
	<path class="st0" d="M98.8,54.9c0.9,0,1.7,0,2.5,0c-0.1,0.6-0.1,1.3-0.2,1.9c-0.1,0.9-0.4,1.1-1.3,0.9c-0.4-0.1-0.8-0.2-1.2-0.4
		C98.7,56.6,98.8,55.8,98.8,54.9z"/>
	<path class="st1" d="M96.8,73c-0.1-0.5-0.2-1-0.3-1.6c1.4,0.8,2.6,0.5,3.9-0.1c0.4-0.2,0.9-0.2,1.3-0.1c0.2,0,0.5,0.4,0.4,0.5
		c-0.1,0.3-0.3,0.7-0.6,0.8C100,72.6,98.5,72.8,96.8,73z"/>
	<path class="st1" d="M96.8,76.5c0-0.1,0-0.3-0.1-0.4c1.7-0.4,3.2-0.9,4.9-1.3C100.4,76.4,98.6,76.4,96.8,76.5z"/>
	<path class="st0" d="M60.9,45.9c-1.8,0-4-1.6-4-3c0-2.2,2.2-4.8,4.1-4.8c1.4,0,3.7,2.5,3.7,3.8C64.9,44.1,62.7,46,60.9,45.9z"/>
	<path d="M66.4,32.9c0.1-1.3,0.9-2.2,2.1-2.2c1.3,0.1,2.3,1.2,2.2,2.4c-0.1,1.4-0.8,2.2-1.9,2.1C67.3,35.2,66.4,34.3,66.4,32.9z"/>
	<path d="M93.9,36.9c0.3-1.5,0.6-2.9,0.8-4.4c0.1-0.7,0-1.4,0-2c-0.1-0.8,0.1-1.5,0.6-2.1c0.2-0.3,0.3-0.8,0.3-1.2
		c0.1-0.7,0.1-1.3,0.2-2c0.2-0.9,0.4-1.8,0.7-2.7c0.2-0.7,0.5-1.4,0.8-2.1c0.1-0.2,0.2-0.5,0.4-0.6c1.1-0.6,1.3-1.8,1.9-2.8
		c0.2-0.4,0.6-0.7,0.9-1c0.1-0.1,0.4-0.2,0.4-0.4c0.1-1.4,1.5-1.6,2.2-2.4c0.2-0.2,0.6-0.2,0.9-0.3c0.1,0,0.1,0,0.2,0
		c1.4-1,2.9-0.3,4.2-0.1c0.9,0.1,1.7,0.8,2.5,1.3c0.5,0.3,1,0.7,1.1,1.2c0.4,1.2,1.6,1.7,2,2.7c0.6,1.6,1,3.3,0.9,5.1
		c-0.1,1.1-0.5,2.4,0.3,3.5c0.2,0.2,0.2,0.7,0.1,0.9c-0.5,1.3-0.3,2.6-0.4,3.9c0,0.5-0.3,1.1-0.4,1.6c-0.2,1.3-0.3,2.6-0.6,3.9
		c-0.1,0.6-0.6,1.2-0.9,1.8c-0.3,0.7-0.4,1.4-0.7,2.1c-0.2,0.6-0.4,1.2-0.7,1.8c-0.6,1.1-1.2,2.3-2,3.2c-0.8,1-1.8,1.9-2.8,2.7
		c-0.5,0.4-1.3,0.6-1.9,0.6c-1.7-0.1-3.4-0.3-5-0.8c-0.9-0.3-1.6-1.2-2.3-1.9c-0.6-0.5-1.3-0.9-1.6-1.5c-0.5-1-0.7-2.2-1-3.3
		c-0.3-1.1-0.5-2.2-0.7-3.3c-0.1-0.5-0.1-1.1-0.2-1.7C94,36.9,93.9,36.9,93.9,36.9z M109.9,37.7c-0.1,0-0.2-0.1-0.3-0.1
		c0.4-1.2,0.7-2.4,1.1-3.7c0.2-0.7,0.3-1.4,0.5-2.1c0.1-0.3,0-0.6,0.1-0.9c0.3-1.1,0.7-2.3,0.4-3.5c-0.1-0.3,0-0.8,0.2-1
		c0.8-1,0.3-2.2,0.2-3.2c-0.2-1.7-0.7-3.3-0.9-5c-0.2-1.2-0.7-1.4-1.8-0.9c-1.5,0.8-2.2,2.4-2.9,3.8c-0.7,1.3-1.6,2.6-1.8,4.3
		c-0.2,1.4-0.6,2.8-0.9,4.2c-0.2,1.1-0.3,2.3-0.7,3.4c-0.2,0.7-0.5,1.2,0,1.8c0.2,0.3,0.1,0.9,0.1,1.4c-0.1,0.5-0.3,0.9-0.4,1.4
		c0,0.2,0,0.6,0.1,0.7c0.6,0.7,0.6,1.5,0.3,2.3c-0.1,0.3-0.2,0.8-0.1,1.1c0.4,0.9,0.9,1.8,1.3,2.6c0.3,0.5,1.3,0.9,1.5,0.6
		c0.7-1,1.5-2.1,2.1-3.1c0.5-0.9,1-1.8,1.4-2.7C109.7,38.7,109.8,38.2,109.9,37.7z M108.9,14.8c-0.1-0.1-0.1-0.1-0.2-0.2
		c-1.2-0.6-2.5,0.1-3.6,0.3c-0.9,0.2-1.7,1.4-2.4,2.3c-0.4,0.4-0.4,1.1-0.8,1.6c-0.5,0.8-1.3,1.5-1.1,2.6c0,0.1-0.1,0.3-0.1,0.4
		c-0.7,1.6-1.2,3.3-1.8,5c-0.4,1.1-0.9,2-0.5,3.2c0.1,0.4-0.3,0.9-0.4,1.3c-0.4,1.9-0.3,3.8-0.1,5.7c0,0.4,0,0.8,0,1.2
		c0.1,0.6,0.1,1.3,0.3,1.9c0.4,1.2,1,2.4,1.4,3.7c0.4,1,0.9,1.4,2.1,1.2c-0.2-0.3-0.4-0.6-0.5-0.9c-0.2-0.4-0.4-0.9-0.3-1.2
		c0.1-0.8-0.2-1.4-0.5-2.1c-0.3-0.5-0.6-1.3-0.4-1.7c0.5-1,0.2-1.8-0.1-2.7c-0.3-0.8-0.2-1.5,0.3-2.1c0.1-0.2,0.3-0.5,0.2-0.7
		c-0.7-1.6-0.2-3.1,0-4.7c0.1-1,0.6-1.9,0.9-2.9c0.3-1,0.3-2,1.2-2.7c0.1,0,0-0.2,0.1-0.3c0.1-0.5,0.2-1.1,0.5-1.5
		c0.4-0.7,1-1.3,1.3-2C105.4,17.4,107.1,16.1,108.9,14.8z"/>
	<path class="st1" d="M108.9,14.8c-1.8,1.3-3.6,2.6-4.5,4.7c-0.3,0.7-0.9,1.3-1.3,2c-0.2,0.5-0.3,1-0.5,1.5c0,0.1,0,0.3-0.1,0.3
		c-0.9,0.7-0.9,1.8-1.2,2.7c-0.3,1-0.8,1.9-0.9,2.9c-0.2,1.5-0.8,3.1,0,4.7c0.1,0.2,0,0.5-0.2,0.7c-0.5,0.7-0.6,1.3-0.3,2.1
		c0.3,0.9,0.6,1.7,0.1,2.7c-0.2,0.4,0.1,1.2,0.4,1.7c0.3,0.7,0.6,1.3,0.5,2.1c-0.1,0.4,0.2,0.8,0.3,1.2c0.1,0.3,0.3,0.6,0.5,0.9
		c-1.2,0.2-1.7-0.2-2.1-1.2c-0.4-1.2-1-2.4-1.4-3.7C98,39.7,98,39.1,98,38.4c0-0.4,0-0.8,0-1.2c-0.2-1.9-0.3-3.8,0.1-5.7
		c0.1-0.5,0.5-1,0.4-1.3c-0.4-1.2,0.1-2.1,0.5-3.2c0.6-1.7,1.1-3.4,1.8-5c0.1-0.1,0.2-0.3,0.1-0.4c-0.2-1.1,0.6-1.8,1.1-2.6
		c0.3-0.5,0.4-1.1,0.8-1.6c0.7-0.9,1.5-2.1,2.4-2.3c1.1-0.3,2.3-1,3.6-0.3C108.8,14.7,108.8,14.8,108.9,14.8z"/>
</g>
</svg>
