<?xml version="1.0" encoding="utf-8"?>
<!-- Generator: Adobe Illustrator 25.0.0, SVG Export Plug-In . SVG Version: 6.00 Build 0)  -->
<svg version="1.1" id="圖層_1" xmlns="http://www.w3.org/2000/svg" xmlns:xlink="http://www.w3.org/1999/xlink" x="0px" y="0px"
	 viewBox="0 0 232.8 193.9" style="enable-background:new 0 0 232.8 193.9;" xml:space="preserve">
<style type="text/css">
	.st0{fill:#FDD23C;}
	.st1{fill:#FDD23E;}
	.st2{fill:#FFFFFF;}
	.st3{opacity:0;enable-background:new    ;}
	.st4{font-family:'MingLiU';}
	.st5{font-size:13.0982px;}
</style>
<g id="圖層_3">
	<path class="st0" d="M81.3,0H15C6.7,0,0,6.7,0,15v15.3c0,8.3,6.7,15,15,15h66.3c10.7,0.3,12.9-7.2,12.9-7.2s7.7-1.3,11.3-2
		l-9.1-8.4l0-12.6C96.3,6.7,89.6,0,81.3,0z"/>
	<g>
		<path d="M15.5,28.8c-1,0-1.5-0.5-1.5-1.5v-4.2v-4.5c0-0.9,0.4-1.2,1.2-1.2c0.7,0,1.2,0.4,1.4,1.1v0.4h0.1c1.2-1.2,2.5-1.7,3.7-1.7
			c2.4,0,3.5,1.5,3.5,4.6v5.6c0,1-0.5,1.5-1.5,1.5c-1,0-1.5-0.5-1.5-1.5v-5.2c0-0.9-0.1-1.5-0.4-1.9c-0.2-0.4-0.6-0.5-1.2-0.5
			c-0.5,0-0.9,0.1-1.2,0.4c-0.2,0.1-0.7,0.5-1.1,1v6.2C17,28.3,16.5,28.8,15.5,28.8z"/>
		<path d="M31.9,29.2c-1.5,0-2.7-0.5-3.8-1.6c-1.1-1.1-1.6-2.6-1.6-4.5c0-1.9,0.5-3.4,1.6-4.5c1-1,2.4-1.6,3.8-1.6
			c1.5,0,2.7,0.5,3.8,1.6c1.1,1.1,1.6,2.6,1.6,4.5c0,1.9-0.5,3.2-1.6,4.5C34.6,28.7,33.4,29.2,31.9,29.2z M31.9,26.7
			c0.7,0,1.4-0.4,1.7-1c0.4-0.6,0.6-1.5,0.6-2.6s-0.2-2-0.6-2.6c-0.5-0.6-1-1-1.7-1c-0.7,0-1.4,0.4-1.7,1c-0.4,0.6-0.6,1.5-0.6,2.6
			s0.2,2,0.6,2.6C30.5,26.3,31,26.7,31.9,26.7z"/>
		<path d="M43.1,28.8c-0.5,0-0.9-0.2-1.1-0.7l-3.1-8.9c-0.4-1.1,0-1.7,1.2-1.7c0.9,0,1.4,0.4,1.6,1.2l1.4,4.5
			c0.1,0.5,0.4,1.1,0.6,2.1c0.1,0.6,0.2,1,0.4,1.4h0.1c0.1-0.7,0.5-1.7,0.9-3.1c0-0.1,0.1-0.2,0.1-0.4l1.4-4.6
			c0.2-0.7,0.7-1.1,1.5-1.1c1.1,0,1.5,0.5,1.1,1.6l-3,8.8c-0.1,0.2-0.2,0.5-0.5,0.7c-0.2,0.2-0.6,0.2-0.9,0.2h-0.6
			C44.2,28.8,43.1,28.8,43.1,28.8z"/>
		<path d="M53.9,29.2c-1,0-1.9-0.4-2.5-1s-1-1.5-1-2.5c0-1.2,0.5-2.2,1.6-2.9c1-0.6,2.7-1.1,5-1.4c0-1.4-0.7-2-2-2
			c-0.6,0-1.4,0.1-2.1,0.5s-1.2,0.2-1.6-0.5c-0.4-0.6-0.2-1.1,0.4-1.5c1.2-0.6,2.6-1,3.8-1c1.5,0,2.5,0.4,3.2,1.2
			c0.7,0.9,1.1,2.1,1.1,3.7v3.4v2.1c0,0.9-0.5,1.2-1.4,1.2c-0.7,0-1.2-0.4-1.4-1.1v-0.1l0,0C56.1,28.7,55,29.2,53.9,29.2z
			 M54.7,26.8c0.7,0,1.5-0.4,2.2-1.1v-2.4c-1.2,0.1-2.2,0.5-2.9,0.9c-0.5,0.4-0.9,0.7-0.9,1.4C53.2,26.3,53.7,26.8,54.7,26.8z"/>
		<path d="M64.5,33.3c-1,0-1.5-0.5-1.5-1.5v-6.5v-6.7c0-0.9,0.5-1.2,1.4-1.2c0.7,0,1.2,0.4,1.4,1.1v0.1h0.1c1.1-1,2.2-1.5,3.4-1.5
			c1.4,0,2.5,0.5,3.4,1.6c0.7,1,1.2,2.5,1.2,4.2c0,1.9-0.5,3.4-1.5,4.6c-0.9,1.1-2.1,1.6-3.4,1.6c-1,0-2-0.4-2.9-1.2l0.1,1.9v2
			C66,32.8,65.5,33.3,64.5,33.3z M68.1,26.7c0.7,0,1.4-0.2,1.7-0.9c0.5-0.6,0.7-1.6,0.7-2.7c0-2.2-0.7-3.4-2.2-3.4
			c-0.7,0-1.5,0.4-2.2,1.2v2.5v2.5C66.7,26.4,67.4,26.7,68.1,26.7z"/>
		<path d="M81.2,29.2c-1.6,0-3-0.5-4-1.6c-1.1-1.1-1.6-2.6-1.6-4.3s0.5-3.2,1.6-4.5c1-1.1,2.2-1.6,3.7-1.6s2.7,0.5,3.6,1.6
			c0.7,1,1.2,2.2,1.2,4c0,0.2,0,0.5,0,0.9c0,0.1-0.1,0.2-0.2,0.4c-0.1,0.1-0.2,0.1-0.5,0.1h-3h-3.5c0.1,0.9,0.5,1.6,1,2.1
			c0.5,0.5,1.2,0.7,2.1,0.7c0.5,0,1.1-0.1,1.6-0.2c0.6-0.4,1.1-0.1,1.5,0.5c0.4,0.6,0.2,1.1-0.4,1.4C83.3,28.9,82.3,29.2,81.2,29.2z
			 M78.3,22h2.4H83c0-0.7-0.1-1.4-0.5-1.9s-0.9-0.6-1.6-0.6c-0.6,0-1.1,0.2-1.6,0.6C78.8,20.6,78.4,21.2,78.3,22z"/>
	</g>
</g>
<g id="_xEFF5__xEED3__x5F_3">
	<g>
		<path d="M189,42.3c0.9,0.9,2,1.9,3.1,3c0.3,0.3,0.5,0.5,0.8,0.9c0.4,0.7,0.8,1.4,1.2,2c0.1,0.3,0.3,0.8,0.4,1.1
			c0.1,0.1,0,0.3,0.1,0.5c0.4,0.9,0.9,1.9,1.2,2.8c0.1,0.9-0.1,2-0.1,3c-0.1,1.2-0.3,2.6-0.7,3.8c-0.1,0.9-0.5,1.9-0.9,2.7
			c-0.5,0.9-1.2,1.6-1.9,2.6c-0.1,0.1-0.3,0.3-0.3,0.3c-0.1,1.5-1.2,2.6-2.3,3.4c-1.1,0.9-1.9,2.4-3.4,2.8c-0.3,0.1-0.5,0.3-0.5,0.5
			c-0.5,0.9-1.4,1.5-2.3,2c-0.7,0.4-1.4,0.9-2,1.2c-1.2,0.4-2.3,1.6-3.8,1.4c-0.5-0.1-1.2,0.7-1.9,0.9c-0.4,0.1-0.9,0.3-1.4,0.4
			c-0.7,0.3-1.4,0.5-2,0.9c-0.3,0.1-0.5,0.5-0.8,0.5c-0.5,0.1-0.8,0.5-0.9,0.9c-0.1,0.7-0.3,1.2-0.3,1.9c-0.1,0.7,0.4,0.9,1.2,0.9
			c1.6,0,3.1,0.7,4.5,1.6c0.3,0.3,0.4,0.7,0.5,1.1c1.6-0.1,2.2,1.2,3.1,2.2c0.1,0.1,0.4,0.4,0.5,0.5c0.8,0.3,1.4,0.8,1.6,1.6
			c0,0.1,0.1,0.3,0.1,0.4c1.2,0.3,1.6,1.4,2.2,2.3c0.8,1.2,2.3,1.9,2.6,3.4v0.1c1.4,0.5,1.5,2.3,2.7,3.1c0.3,0.3,0.5,0.8,0.8,1.2
			c0.3,0.5,0.5,1.1,0.8,1.6c0.5,1.1,1.2,2.2,1.8,3.2c0.3,0.4,0.5,0.9,0.9,1.2c0.7,0.7,0.9,1.5,1.1,2.4c0,0.5,0.4,0.9,0.7,1.4
			c0.7,1.2,1.6,1.4,2.8,0.9c0.3-0.1,0.5,0,0.8,0.1c1.4,0.5,2.7,0.9,4.1,1.6c1.2,0.5,2.3,1.1,3.4,1.6c0.4,0.1,0.8,0.4,1.2,0.5
			c1.6,0.7,3.1,1.4,4.3,2.6c0.1,0.1,0.1,0.1,0.3,0.1c1.9,0.7,3,2.2,4.3,3.4c0.1,0.1,0.1,0.3,0.3,0.3c1.6,0.1,2.3,1.6,3.4,2.6
			c0.9,0.8,1.9,1.6,3,2.4c0.1,0.1,0.3,0.3,0.5,0.5c0.5,1.1,0.9,2.2,1.6,3.2c0.4,0.8,1.2,1.6,1.5,2.4c0.7,1.8,1.6,3.4,1.6,5.5
			c0,0.1,0.1,0.4,0.3,0.5c0.1,0.7,0.1,1.4,0.3,1.9c0.1,0.5,0.1,1.2,0.1,1.9c0,0.3,0.1,0.4,0.1,0.7c0.1,1.9,0.1,3.7,0.1,5.5
			c-0.1,1.6,0,3.4-0.4,5s-0.3,3.1-0.5,4.7c-0.1,0.9-0.5,1.9-0.8,2.7c-0.1,0.4-0.1,0.8-0.1,1.2c-0.3,1.6-0.4,3.1-0.7,4.7
			c-0.1,0.8-0.5,1.5-0.8,2.3c-0.1,0.1-0.1,0.4-0.1,0.5c-0.1,0.7,0,1.4-0.1,2c-0.4,1.6-0.9,3.1-1.4,4.7c-0.1,0.3-0.1,0.8-0.1,1.2
			c-0.1,0.7-0.3,1.4-0.3,2c-0.3,1.2-0.5,2.3-0.7,3.5c-0.1,0.8-0.3,1.4-0.5,2.2c0.1,0.9,0.8,1.4,1.9,1.8c0.9,0.3,1.6,0.8,2.7,0.8
			c0.5,0.1,1.1,0.7,1.6,0.9s1.2,0.5,1.8,0.9c0.4,0.3,0.9,0.4,1.2,0.7c0.7,0.5,0.8,1.4,0.4,2c-0.4,0.7-1.2,0.9-2,0.8
			c-0.4-0.1-0.8-0.3-1.1-0.5c-0.9-0.9-2-1.2-3.1-1.8c-0.3-0.1-0.5-0.1-0.7-0.4c-0.4-0.8-1.1-1.2-1.9-1.6c-0.8-0.5-1.4-1.1-2.4-0.9
			c-0.1,0-0.4-0.1-0.5-0.1c-0.8-0.5-1.6-1.1-2.3-1.5c-0.4-0.3-0.9-0.4-1.4-0.5c-0.5-0.1-1.1-0.3-1.6-0.5c-1.2-0.7-2.4-1.2-3.4-2
			c-1.1-0.9-2.3-1.4-3.7-1.9c-0.5-0.1-0.8-0.8-1.4-1.2c-0.3-0.3-0.7-0.5-0.9-0.5c-1.4-0.1-2.3-1.1-3.5-1.8c-0.3-0.1-0.7-0.3-1.1-0.5
			c-0.1-0.1-0.3,0-0.4-0.1c-1.2-0.8-2.6-1.4-3.8-2.3c-0.8-0.7-1.6-1.4-2.7-1.6c-1.5-0.3-2.7-1.2-3.8-2.4c-0.5-0.5-0.9-0.8-1.8-0.9
			c-1.2-0.3-2.6-0.5-3.7-1.6c-0.1-0.1-0.4-0.3-0.7-0.4c-0.7-0.3-1.4-0.5-2-0.8c-0.5-0.3-0.9-0.5-1.5-0.8c-0.3-0.1-0.5-0.1-0.7-0.3
			c-0.7-0.8-1.8-0.9-2.6-1.5c-0.1-0.1-0.4-0.1-0.5-0.3c-0.9-0.9-2.3-1.4-3.5-2c-1.4-0.7-2.6-1.5-3.8-2.3c-0.5-0.3-0.9-0.4-1.2,0.4
			c-0.1,0.4-0.7,0.9-1.2,1.1c-1.8,0.4-3.7,0.8-5.4,1.2c-0.5,0.1-1.1,0.4-1.6,0.5c-0.5,0.1-1.2,0.1-1.9,0.3c-0.4,0.1-0.8,0.3-1.4,0.5
			c-0.7,0.3-1.4,0.4-2,0.5c-0.3,0.1-0.7,0.3-0.9,0.3c-0.7,0.1-1.4,0.4-2,0.5c-1.2,0.3-2.6,0.4-3.8,0.8c-1.4,0.3-2.7,0.8-4.1,1.2
			h-0.1c-1.2-0.4-2.3,0.3-3.4,0.5c-0.9,0.1-2.3-0.1-3.1,0.8c-0.1,0.1-0.4,0.3-0.5,0.3c-1.6,0-3,0.9-4.5,1.2
			c-0.8,0.1-1.4,0.1-2.2,0.3c-0.1,0-0.3,0-0.5,0.1c-1.8,1.2-3.8,1.1-5.8,1.5c-0.7,0.1-1.2,0.4-1.9,0.5c-0.4,0.1-0.9,0.1-1.4,0.1
			c-0.1,0-0.4,0-0.5,0.1c-1.4,0.9-3,1.2-4.5,1.6c-1.2,0.3-2.6,0.8-3.8,1.1c-1.4,0.4-2.8,1.1-4.2,1.2c-1.2,0.1-2.2,0.5-3.1,0.7
			c-1.4,0.1-2.3,0.7-3.5,0.9c-1.2,0.3-2.8,0.4-3.8-1.2c-1.2,1.1-2.3,0.4-3.1-0.5c-0.1-0.1-0.5-0.3-0.8-0.3c-0.8,0.1-1.4-0.1-2-0.7
			c-0.3-0.3-0.8-0.5-1.2-0.8c-1.6-0.9-3.2-1.9-4.9-2.8c-0.3-0.1-0.4-0.3-0.7-0.5c-0.7-0.5-1.5-0.8-2-1.4c-0.9-0.9-2.2-1.4-3.5-1.8
			c-0.1,0-0.3-0.1-0.3-0.3c-0.5-1.2-1.6-1.2-2.6-1.8c-0.5-0.3-0.9-0.7-1.5-0.9c-0.7-0.3-1.4-0.5-2-0.8c-1.4-0.8-2.6-1.5-3.9-2.3
			c-0.8-0.4-1.6-0.8-2.6-1.2c-0.8-0.4-1.8-0.8-2.3-1.4c-0.5-0.7-1.2-0.9-1.9-0.9c-1.2-0.1-2-0.9-3-1.6c-0.9-0.7-1.6-1.8-3.2-1.8
			c-0.9,0-2-0.8-3-1.2c-0.4-0.3-0.8-0.5-1.2-0.8c-0.7-0.3-1.4-0.5-1.9-0.9c-0.7-0.3-1.4-0.7-1.9-1.2c-0.8-0.8-2-0.9-3-1.5
			c-0.3-0.1-0.5-0.1-0.8-0.3c-0.8-0.5-1.6-1.2-2.6-1.9c-0.4-0.3-0.9-0.7-1.4-0.9c-0.8-0.5-0.9-1.2-0.1-2c-0.3-0.9-0.8-2-1.1-3.1
			c-0.3-1.2-0.3-2.6-0.4-3.9c0-0.3-0.1-0.7-0.3-0.8c-0.7-0.5-0.8-1.4-0.7-2.2c0.1-0.5,0.1-0.9-0.3-1.4c-0.3-0.1-0.3-0.7-0.3-0.9
			c0.3-1.5-0.4-3-0.8-4.3v-0.1c-0.3-2.2-0.5-4.3-0.8-6.5c-0.1-0.4-0.3-0.8-0.3-1.2c-0.1-0.4-0.4-0.8-0.5-1.4
			c-0.3-1.9-0.5-3.8-0.8-5.7c-0.1-0.8-0.1-1.5-0.3-2.3c-0.1-0.8-0.3-1.6-0.4-2.6c0-0.8-0.3-1.6-0.5-2.4c-0.4-1.5-0.5-3.1-0.7-4.6
			c0-0.1,0-0.3-0.1-0.5c-0.3-0.9-0.5-1.9-0.5-3c-0.1-0.8-0.1-1.6-0.1-2.4c0-0.1,0-0.3-0.1-0.3c-0.3-1.1-0.8-2.2-1.1-3.4
			c-0.1-0.3-0.3-0.8-0.1-1.2c0.1-0.8,0-1.6-0.4-2.3c-0.7-1.2-0.7-2.6-0.8-3.8c0-0.5-0.3-1.2-0.5-1.8c-0.3-1.2-0.8-2.4-1.1-3.7
			c-0.3-1.2-0.3-2.4-0.3-3.7c0-0.8,0-1.4-0.3-2c0.1-0.3,0.5-1.2,1.2-1.4c0.7-0.3,1.2,0.1,1.6,0.5c0.9,0.8,2,1.4,3.1,1.8
			c1.1,0.3,2,0.8,3,1.4c1.2,0.9,2.8,1.2,4.2,1.9c1.4,0.8,3,0.9,4.1,2.3c0.1,0.1,0.4,0.1,0.7,0.3c0.4,0.1,0.9,0.1,1.2,0.3
			c0.5,0.1,1.2,0.5,1.8,0.8c0.1,0.1,0.3,0.1,0.4,0.1c0.7,0.7,1.6,0.8,2.3,1.2c2.4,1.1,4.9,2,7.2,3.5c1.4,0.8,2.7,1.4,4.1,2
			c1.2,0.5,2.3,1.4,3.4,2c0.5,0.3,1.2,0.3,1.8,0.7c0.7,0.3,1.4,0.8,2,1.2c0.5,0.4,1.1,0.5,1.8,0.8c1.2,0.4,2.2,1.2,3.2,1.9
			c0.3,0.1,0.4,0.3,0.7,0.4c0.8,0.3,1.5,0.5,2.3,0.9c1.6,0.7,3.2,1.2,4.6,2.2c1.2,0.8,2.8,0.9,3.8,2.3c0.1,0.1,0.3,0.1,0.5,0.1
			c0.8,0.3,1.6,0.5,2.4,0.9c0.9,0.5,0.9,1.9,0.1,2.6c-0.8,0.5-0.5,1.2-0.4,1.9c0.1,0.8,0.3,1.5,0.5,2.3c0.1,0.8,0.5,1.5,0.7,2.3
			c0.3,1.4,0.8,2.3,2.3,2.8c1.9,0.5,3.4,1.8,5.1,2.7c0.3,0.1,0.7,0.1,0.9,0.1c0.9-0.3,1.9-0.7,3-0.9c0.9-0.3,2-0.5,3-0.9
			c0.8-0.3,1.5-0.8,2.3-1.2c0.3-0.1,0.5-0.3,0.8-0.4c0.4-0.3,0.9-0.8,1.2-1.2c0.3-0.3,0.3-0.7,0.7-0.8c1.4-0.8,1.9-2.2,2.8-3.4
			c0.7-0.8,1.6-1.5,2.3-2.3c0.4-0.4,0.5-0.9,0.9-1.5c0.3-0.5,0.8-0.9,1.1-1.5c0.1-0.3,0.4-0.5,0.5-0.8c0.3-0.4,0.8-0.8,1.2-1.2
			c0.4-0.3,0.5-0.4,0.5-0.9c0-0.3,0-0.8,0.1-0.9c0.8-1.2,1.6-2.3,2.6-3.4c0.4-0.5,0.8-0.9,1.2-1.6c0.8-1.2,1.9-2.3,3.1-3.1
			c0.8-0.4,1.4-1.2,2-1.8c0.1-0.1,0.1-0.3,0.3-0.3c1.9-0.5,3-2.3,4.7-3c2-0.8,3.8-2.2,5.5-3.1c2.2-1.2,4.2-2.6,6.9-2.4
			c0.1,0,0.4-0.1,0.5-0.3s0.1-0.5-0.1-0.7c-0.3-0.3-0.7-0.5-0.9-0.7c-1.4-0.3-2.8-0.5-4.3-0.9c-1.2-0.3-2.6-0.5-3.8-0.8
			c-0.3-0.1-0.7-0.3-0.9-0.4c-0.5-0.8-1.4-0.8-2-0.9c-0.4-0.1-0.8-0.1-1.1-0.3c-1.4-1.2-3-1.6-4.6-2.3c-0.9-0.4-1.6-1.4-2.6-2
			c-0.1-0.1-0.3-0.4-0.4-0.4c-1.4-0.3-2.3-1.6-3.1-2.6c-0.8-0.8-1.1-2.3-1.4-3.4c-0.3-1.1-0.5-2.3-0.7-3.4c-0.1-0.5,0.1-0.9,0.3-1.5
			c0-0.1,0.1-0.3,0.1-0.4c-0.5-2,0.1-3.8,0.8-5.7c0.3-0.8,0.3-1.6,0.5-2.3c0.1-0.7,0.3-1.2,0.5-1.9c0.5-1.6,1.2-3.4,1.9-4.9
			c-0.8-0.3-1.4-0.5-2-0.9c-0.3-0.1-0.4-0.8-0.3-0.9c0.3-0.9,0.8-1.8,1.2-2.6c0.1-0.3,0.1-0.5,0-0.8c-0.3-1.1-0.3-2.3,0.1-3.4
			c0.1-0.1,0.1-0.4,0.1-0.7c0-0.3-0.1-0.5,0-0.7c0.5-0.9,0.7-2,0.9-3c0.5-1.9,1.5-3.8,2.3-5.5c0.1-0.1,0.1-0.3,0.1-0.4
			c0.8-1.2,1.6-2.6,2.4-3.7c0.1-0.3,0.1-0.5,0.3-0.7c0.5-0.5,0.9-1.1,1.5-1.6c0.5-0.5,1.1-1.2,1.6-1.9c0.8-0.8,1.5-1.6,2.3-2.3
			c0.9-0.7,2-1.1,3-1.6c0.3-0.1,0.5-0.1,0.9-0.3c0.7-0.3,1.4-0.5,2-0.8c1.2-0.5,2.3-0.8,3.7-0.7c0.4,0.1,0.9,0.1,1.4,0.1
			c1.4-0.3,2.7-0.4,4.1-0.3c0.8,0.1,1.6-0.1,2.6-0.3c0.3,0,0.5-0.1,0.8-0.1c1.5,0.1,3,0.3,4.5,0.5c1.4,0.3,2.7,0.8,4.1,1.1
			c0.1,0.1,0.4,0,0.5,0c0.3,0,0.5-0.1,0.8,0c2,0.7,3.9,1.4,5.9,2c0.1,0,0.3,0.1,0.3,0.1c1.9-0.4,3.4,1.2,5.1,1.4h0.1
			c1.4,1.2,3.4,1.1,4.9,2.2c1.4,0.9,2.7,1.8,4.2,2.7c0.9,0.5,1.9,1.1,2.6,1.9c1.6,1.6,3.7,3,4.3,5.3c0.5,1.6,0.8,3.1,1.2,4.7
			c0,0.1,0,0.3,0.1,0.5c0.8,1.2,0.3,2.6,0.4,3.7c0.1,1.6-0.3,3-0.9,4.2C189.6,41.5,189.4,41.7,189,42.3z M144.8,82.6
			c-1.1,0.4-2.3,0.8-3.2,1.2s-1.9,1.1-2.8,1.4c-1.9,0.8-3.7,1.4-5.3,2.6c-0.9,0.8-2.2,0.9-3.1,1.6c-1.2,0.9-2.4,2-3.7,3.1
			c-1.1,0.9-2,2-3,3c-0.4,0.4-0.8,0.8-1.2,1.4c-0.7,0.9-1.2,2-1.9,3.1c-0.1,0.3-0.5,0.5-0.8,0.5c-0.5,0.1-0.5,0.4-0.5,0.8
			c-0.1,0.5-0.4,1.1-0.7,1.6c-0.1,0.3-0.3,0.5-0.5,0.9c-0.3,0.5-0.8,1.1-1.1,1.5s-1.1,0.8-1.2,1.2c-0.3,1.2-1.2,2-1.9,3
			c-0.9,1.1-2.3,1.9-3.1,3.4c-0.1,0.3-0.5,0.4-0.7,0.5c-0.4,0.3-0.8,0.5-1.2,0.8c-0.9,0.8-1.8,1.4-2.7,2.2c-0.3,0.1-0.5,0.4-0.7,0.7
			c0.3,0.3,0.5,0.5,0.8,0.8c1.2,0.8,2.6,1.2,3,2.8c0,0.1,0.1,0.1,0.1,0.1c0.9,0.5,0.9,1.4,1.4,2.3c0.1,0.5,0.8,0.9,1.2,1.4
			c0.5,0.4,1.4,0.5,1.9,0.9c0.9,0.7,2,1.4,3,2c0.4,0.3,0.9,0.3,1.4,0.5c1.2,0.5,2.3,1.2,3.5,1.9c0.7,0.3,0.9,0.1,0.9-0.5
			c0-0.4,0.1-0.8,0.1-1.2c0.1-1.1,0.4-2,0.5-3.1s0.3-2.2,0.5-3.2c0.3-1.4,0.8-2.8,0.9-4.3c0.1-0.5,0-1.1,0.1-1.6
			c0.4-2,1.4-3.8,1.4-5.9c0-0.1,0.1-0.1,0.1-0.3c0.5-1.5,0.9-3.1,1.4-4.6c0.1-0.7,0.8-1.1,1.4-0.9c0.5,0.1,0.9,0.8,0.8,1.5
			c-0.3,1.2-0.5,2.3-0.8,3.4c-0.1,0.7,0,1.4-0.1,1.9c-0.3,1.2-0.9,2.3-0.7,3.7c0,0.1,0,0.1,0,0.1c-0.3,0.9-0.5,1.9-0.8,2.8
			c-0.1,0.7-0.5,1.4-0.5,2c0.1,2.2-0.5,4.2-0.9,6.4c-0.1,0.7-0.1,1.4-0.3,2c-0.1,0.8-0.5,1.6-0.7,2.4c-0.1,0.5-0.1,1.1-0.1,1.6
			c0,0.3,0.3,0.5,0.5,0.7c1.4,0.7,2.8,1.4,4.2,2c0.3,0.1,0.5,0.3,0.7,0.5c0.5,1.1,1.4,1.4,2.4,1.6c0.8,0.3,1.6,0.4,2.4,0.8
			c0.4,0.1,0.8,0.5,1.2,0.8c0.5,0.3,1.1,0.7,1.6,0.9c0.4,0.3,0.9,0.7,1.4,0.7c1.4,0,2.7-0.3,4.2-0.3c0.8-0.1,1.6,0,2.6,0.1
			c0.5,0.1,0.9,0.3,1.6,0.4c-0.3-1.8,0.1-2.3,1.6-2.4c0.3,0,0.5,0,0.8-0.1c1.5-0.9,3.1-0.5,4.7-0.5c1.2,0,2.6,0.3,3.7,0.4
			c1.1,0.1,2.3,0.3,3.5,0.5c0.8,0.1,1.6,0.8,2.6,0.5c0.3-0.1,0.5,0.1,0.8,0.3c0.3,0.1,0.8,0.3,1.1,0.4c1.4,0.3,2.7,0.5,4.1,0.9
			c0.4,0.1,0.9,0.3,1.2,0.7c0.5,0.4,0.8,1.1,0.5,1.8c-0.3,0.7-0.8,1.2-1.4,1.1c-1.4-0.1-2.7-0.5-3.9-0.8c-1.4-0.4-2.7-0.9-4.2-1.4
			c-1.5-0.3-3-0.5-4.5-0.8c-1.6-0.1-3.1-0.3-4.7-0.4c-0.7,0-1.4,0.1-2,0.1c0,0.1,0,0.1-0.1,0.3c1.6,0.1,2.4,1.2,3.4,2.2
			c0.1,0.1,0.3,0.3,0.4,0.3c1.4,0.3,1.8,1.5,2.2,2.7c0.1,0.4,0.4,0.9,0.7,1.2c0.9,0.9,1.2,2,1.4,3.4c0.1,0.5,0.3,1.2,0.8,1.5
			c0.9,0.5,1.6,1.6,2.8,1.4c0.1,0,0.3,0.1,0.4,0.1c0.9,0.5,1.9,1.2,2.7,1.8c1.2,0.8,2.4,1.9,4.1,2c0.3,0,0.4,0.3,0.7,0.4
			c0.4,0.3,0.9,0.5,1.4,0.8c1.1,0.5,2.3,0.9,3.2,1.6c1.2,0.8,2.2,1.6,3.5,2c0.8,0.3,1.4,0.8,2,1.2c0.1-1.4,0.5-1.9,1.6-1.9
			c1.4-0.1,2.7-0.3,4.1-0.4c0.4,0,0.9,0,1.2-0.1c0.8-0.8,1.9-0.8,2.8-1.6c1.2-0.9,2-2.3,3.1-3.4c0.4-0.4,0.8-0.9,0.9-1.6
			c0.5-1.2,0.9-2.3,1.6-3.5c0.1-0.3,0.4-0.7,0.4-0.9c0-0.7,0.3-1.2,0.8-1.6c0.4-0.3,0.5-0.8,0.3-1.4c-0.1-0.3-0.4-0.8-0.3-0.9
			c0.5-1.4,0.5-2.8,0.4-4.2c0-0.1,0.1-0.3,0.1-0.4c0-0.7,0.1-1.4,0.1-2c-0.1-1.2-0.3-2.3-0.3-3.5c-0.1-1.4,0.1-2.7-0.5-4.1
			c-0.3-0.7-0.1-1.4-0.1-2.2c0-0.3-0.1-0.5-0.1-0.8c-0.3-1.2-0.9-2.2-0.4-3.4c0.1-0.1,0-0.4-0.1-0.5c-0.8-1.2-0.5-2.6-0.9-3.8
			c-0.1-0.5-0.1-1.2-0.5-1.6c-0.7-0.9-0.4-2.3-1.4-3.1c0,0-0.1-0.1,0-0.1c0.1-0.8-0.4-1.4-0.8-2.2c-0.4-0.8-0.3-1.8-0.5-2.6
			c-0.3-0.8-1.2-1.5-1.5-2.3c-0.3-1.1-0.7-2-1.4-3c-0.4-0.5-0.8-1.2-1.2-1.9c-0.3-0.4-0.8-0.8-1.1-1.2c-0.3-0.3-0.8-0.7-0.8-1.1
			c-0.3-1.4-2-2-2-3.5l-0.1-0.1c-0.4-0.5-0.9-1.2-1.4-1.8c-0.1-0.3-0.3-0.5-0.5-0.7c-0.8-0.9-1.6-1.9-2.6-2.8
			c-0.7-0.8-1.6-1.6-2.4-2.6c-0.9-0.8-2.3-1.2-2.6-2.6c-2.2-0.3-3.2-2-4.7-3c-0.9,0.5-1.8,1.1-2.6,1.6c-0.5,0.3-0.9,0.5-1.5,0.8
			c-0.8,0.4-1.6,1.1-2.6,1.4c-1.5,0.5-3,0.7-4.5,1.1c-0.7,0.1-1.4,0.3-1.9-0.1c-0.1-0.1-0.5,0-0.8,0c-0.9,0-1.9,0.3-2.6,0
			c-1.2-0.7-2.3-1.2-3.5-1.6c-1.2-0.5-2.7-1.4-3.4-2.6c-0.1-0.1-0.3-0.3-0.4-0.3C145.9,84.3,145.2,83.8,144.8,82.6z M30,76.2
			c0.1,0.4,0.3,0.5,0.3,0.8c0.4,1.2,0.9,2.3,1.2,3.4c0.3,1.1,0.3,2.2,0.5,3.2c0.1,0.3,0.1,0.5,0.3,0.8c0.5,1.2,1.1,2.3,0.9,3.7
			c0,0.5-0.1,1.4,0.3,1.8c1.1,1.4,0.7,3.1,0.9,4.6c0.1,0.9,0.4,2,0.7,3c0.3,1.2,0.8,2.3,0.7,3.4c0,0.1,0,0.3,0.1,0.5
			c0.1,0.5,0.4,1.1,0.4,1.6c0,1.4,0.9,2.8,0.4,4.3c0,0.1,0.1,0.1,0.1,0.3c0.4,1.8,0.8,3.4,1.2,5.1c0.4,2,0.8,4.2,1.1,6.2
			c0.1,0.3,0.1,0.7,0,0.9c-0.4,0.8-0.3,1.6,0.1,2.4c0.1,0.3,0.1,0.5,0.1,0.8c0.1,1.1,0.4,2,0.5,3.1c0.1,0.7,0.3,1.4,0.4,2
			c0.1,1.4,0,2.7,0.8,4.1c0.1,0.3,0.1,0.8,0.1,1.2c0,0.3,0,0.7,0.1,0.9c0.5,0.8,0.8,1.5,0.4,2.6c-0.1,0.1,0,0.4,0.1,0.5
			c0.9,1.9,1.4,3.8,1.4,5.8c0,0.8-0.1,1.6,0.1,2.2c0.5,0.9,1.2,1.9,2.6,2c0.1,0,0.3,0.1,0.5,0.3c1.1,0.8,2.2,1.8,3.7,1.9
			c0.1,0,0.4,0.1,0.5,0.3c0.5,0.3,1.1,0.8,1.6,1.1c0.8,0.4,1.6,0.5,2.4,0.9c0.9,0.5,2.3,0.9,3,1.8c0.8,1.2,2,1.4,3.2,1.8
			c1.2,0.4,2.3,0.7,3.2,1.6c0.5,0.5,1.1,0.9,1.9,0.9c0.8,0.1,1.5,0.7,2.3,1.1c0.8,0.4,1.5,1.2,2.3,1.4c1.5,0.5,2.7,1.4,4.1,2.3
			c0.5,0.4,1.2,0.9,1.9,1.4c0.4,0.3,0.9,0.5,1.4,0.8c0.9,0.5,1.6,1.5,2.8,1.4c0.1,0,0.4,0.1,0.5,0.3c0.8,0.8,1.5,1.9,2.8,1.9
			c0.1,0,0.1,0.1,0.1,0.1c0.7,0.3,1.4,0.8,2,1.1c1.2,0.8,2.6,1.5,3.9,2.2c1.2,0.5,2.2,1.8,3.7,1.9c0.3,0,0.5,0.1,0.5,0.3
			c0.5,1.2,1.6,1.2,2.7,1.6c0.3,0.1,0.5,0.3,0.8,0.5c0.1-0.1,0.1-0.3,0.1-0.3c-0.1-0.8-0.3-1.8-0.7-2.6c-0.5-1.2-0.8-2.4-0.8-3.7
			c0-0.8-0.3-1.5-0.5-2.3c-0.1-0.4-0.1-0.8-0.1-1.2c0.1-0.8,0.3-1.4-0.4-2c-0.3-0.3-0.3-0.8-0.3-1.2c-0.1-0.5,0-1.2-0.1-1.6
			c-0.1-0.8-0.4-1.8-0.5-2.6c-0.3-1.2-0.3-2.4-0.8-3.5c-0.7-1.6-0.7-3.2-0.8-4.9c-0.1-0.8-0.1-1.6-0.5-2.4c-0.5-0.8-0.8-2,0-3
			c0.1-0.1,0.1-0.4,0.1-0.5c-0.9-1.5-0.9-3.2-1.2-4.9c-0.1-0.5,0.1-0.9,0-1.5c-0.3-1.2-0.7-2.6-0.9-3.8c-0.3-1.4-0.4-2.7-0.8-4.2
			c-0.1-0.7-0.7-1.4-0.5-1.9c0.3-1.2,0-2.2-0.4-3.4c-0.5-1.6-0.7-3.2-0.9-4.9c0-0.3,0-0.4,0-0.7c0-0.4,0-0.9-0.1-1.2
			c-0.8-1.5-0.3-3.4-1.4-4.9c-0.1-0.1,0-0.3-0.1-0.3c-0.1-1.5-0.1-3-0.7-4.3c-0.1-0.5-0.1-1.2-0.1-1.9c-0.1-0.7-0.3-1.2-0.3-1.9
			s-0.3-1.1-0.9-0.9c-0.9,0.1-1.6-0.3-2.3-0.9c-0.1-0.1-0.3-0.3-0.5-0.4c-1.2-0.5-2.3-0.9-3.5-1.4c-0.3-0.1-0.7-0.4-0.9-0.5
			c-0.4-0.3-0.9-0.5-1.4-0.8c-0.5-0.4-1.2-0.8-1.9-1.2c-0.3-0.1-0.4-0.3-0.7-0.4c-1.5-0.4-3.1-0.7-4.1-2c-0.1-0.1-0.3-0.1-0.4-0.3
			c-0.9-0.4-2-0.8-3-1.4c-0.5-0.3-0.9-0.8-1.4-0.9c-1.2-0.5-2.4-0.9-3.7-1.6c-1.4-0.7-2.6-1.6-4.1-2c-1.2-0.3-2.4-1.2-3.7-1.8
			c-1.2-0.5-2.3-0.9-3.4-1.6c-0.9-0.4-1.6-0.9-2.7-1.4c-0.7-0.3-1.2-0.9-2-0.9c-0.3,0-0.5-0.5-0.9-0.8c-0.1-0.1-0.4-0.3-0.5-0.3
			c-1.8,0.1-3-1.1-4.5-1.6c-1.1-0.4-2-1.1-3.1-1.6c-0.8-0.4-1.6-0.7-2.4-1.2c-0.8-0.5-1.6-1.1-2.4-1.6C30.7,76.5,30.4,76.4,30,76.2z
			 M130.3,40.4c-0.5-0.8-0.4-1.5,0.1-2.3c0.1-0.3,0.3-0.5,0.3-0.8c0.1-0.9,0.3-1.9,0.5-2.8c0.1-0.5,0.5-0.9,0.9-1.4
			c0.1-0.1,0.3-0.1,0.3-0.3c0.4-0.9,0.8-1.9,1.2-2.7c0.3-0.5,0.7-0.9,1.2-0.9c0.3,0,0.9,0.3,0.9,0.5c0.1,0.5-0.1,0.9-0.1,1.5
			c-0.1,0.3-0.3,0.5-0.4,0.8c-0.4,1.2-0.9,2.3-0.9,3.7c0,0.1-0.1,0.4-0.3,0.5c-0.3,0.7-0.8,1.2-1.1,1.9c-0.1,0.3,0,0.5,0.1,0.8
			c0.1,0.5,0.5,0.9,0.5,1.4c0,0.5,0.3,0.8,0.7,0.8c0.9,0.1,2,0.3,3,0.5c1.2,0.3,2.6,0.3,3.7,0.8c1.6,0.5,2.3,0.1,2.3-1.6
			c0-0.1,0-0.3,0-0.4c0.8-2.6,1.2-5.3,3.2-7.3c0.3-0.3,0.8-0.4,1.1-0.4c0.1,0.1,0.4,0.5,0.4,0.9c0,1.2,0.3,2.6-0.5,3.7
			c-0.1,0.1,0,0.3-0.1,0.3c-0.5,1.4-0.9,3-1.5,4.2c-0.3,0.8-0.3,1.4,0.3,2c0.7,0.8,1.8,0.5,2.6,0.9c0.5,0.3,1.1,0.5,1.6,0.8
			c0.3,0.1,0.5,0.3,0.8,0.3c0.8,0,1.4,0.3,1.8,0.8c0.1,0.1,0.4,0.4,0.5,0.5c0.8,0.3,1.6,0.5,2.4,0.8c0.7,0.3,1.4,0.5,1.9,0.9
			c1.6,1.4,2.2,3.4,2.7,5.3c0.3,1.2,0.3,2.3,0.5,3.7c0.3-0.1,0.5-0.1,0.9-0.3c0.5-0.1,1.1-0.5,1.8-0.5c0.8-0.1,1.8-0.3,2.6-0.3
			c1.2,0,2.6,0,3.5,0.9c0.3,0.3,0.8,0.5,1.2,0.8c1.6,0.8,1.9,2.4,2.7,3.7c0.1,0.1,0,0.3,0.1,0.5c0.1,1.9-0.4,3.4-1.4,5
			c-0.8,1.4-1.6,2.6-3.1,3.2c-0.8,0.4-0.9,1.6-0.1,1.9c1.2,0.5,1.5,1.6,1.9,2.7c0.1,0.5,0.5,0.8,0.9,0.7c0.5-0.1,1.1-0.5,1.6-0.8
			c0.4-0.1,0.8-0.5,1.2-0.7c0.9-0.3,1.9-0.3,2.6-1.4c0.1-0.1,0.4-0.3,0.7-0.4c0.8-0.4,1.6-0.8,2.4-1.2c1.4-0.8,2.6-1.5,3.9-2.3
			c0.1-0.1,0.3-0.3,0.4-0.4c0.9-1.1,1.9-2.3,2.7-3.4c0.8-0.8,1.6-1.5,2.3-2.3c0.1-0.1,0.1-0.3,0.3-0.4c0.4-0.9,0.8-2,1.4-3
			c0.3-0.5,0.4-1.2,0.8-1.5c0.7-0.7,0.9-1.5,0.9-2.3c0-1.2-0.3-2.6-0.5-3.8c-0.1-1.2-0.8-2.4-1.4-3.7c-0.1-0.3-0.3-0.4-0.5-0.7
			c-0.3-0.3-0.5-0.5-0.7-0.9c-0.5-1.4-1.4-2.4-2.7-3c-0.4-0.1-0.8-0.5-1.2-0.8c-0.7-0.5-0.7-1.4,0-2c0.1-0.1,0.4-0.3,0.4-0.5
			c0.3-1.8,0.7-3.5,0.9-5.3c0.1-0.5-0.1-0.9-0.1-1.5c0.3-1.6-0.4-3-1.1-4.2c-0.5-0.9-1.2-1.9-1.8-2.7c-0.8-1.9-2.7-3-4.1-4.2
			c-1.1-0.9-2.6-1.5-4.1-1.9c-1.6-0.4-3-1.8-4.7-1.8c-0.1,0-0.3-0.1-0.4-0.1c-1.4-1.1-3.2-0.8-4.5-2.2c-0.1-0.1-0.3-0.1-0.3-0.1
			c-1.9-0.4-3.9-0.8-5.8-1.4c-0.3-0.1-0.5-0.3-0.8-0.4c-0.1-0.1-0.3-0.3-0.5-0.3c-0.9-0.1-1.9-0.1-2.8-0.3c-0.5-0.1-1.1-0.3-1.6-0.3
			c-1.2,0.1-2.3,0.1-3.4-0.3c-0.5-0.3-1.4,0.1-1.9-0.1c-0.9-0.3-1.9-0.1-3,0c-1.6,0.1-3.2,0.1-4.9,0.5c-0.8,0.3-1.9,0.1-2.7,0.3
			c-0.9,0.3-2,0.8-2.8,1.4c-1.4,0.9-2.7,2-4.1,3.1c-0.4,0.3-0.7,0.9-0.9,1.4c-0.3,0.5-0.5,0.9-0.9,1.5c-0.1,0.1-0.4,0.3-0.5,0.5
			c-0.5,1.2-1.6,2.2-1.9,3.7c0,0.1-0.1,0.3-0.3,0.4c-0.3,0.7-0.8,1.2-0.9,1.9c-0.7,1.4-1.2,2.8-1.9,4.2c-0.1,0.1-0.1,0.3-0.1,0.3
			c0.1,1.5-0.4,3-0.7,4.3c0,0.3-0.1,0.5-0.3,0.7c-0.8,0.8-0.5,1.4-0.1,2C126.3,40.4,128.3,40.4,130.3,40.4z M219.6,184.7
			c0.1,0,0.3-0.1,0.3-0.1c0.1-0.8,0.5-1.4,0.5-2.2c0.3-1.4,0.5-3,0.8-4.3c0.1-0.9,0.4-1.8,0.5-2.7c0.1-0.3,0.1-0.4,0.1-0.7
			c0.3-2.3,1.2-4.5,1.5-6.6c0.3-2.2,0.9-4.2,1.5-6.4c0.1-0.3,0.1-0.4,0.1-0.7c0.1-1.2,0-2.7,0.4-3.8c0.7-1.6,0.1-3.1,0.4-4.7
			s0.1-3.5,0.1-5.1c0-0.9,0.1-1.9,0.1-2.7c0-1.4,0.1-2.8-0.5-4.1c-0.1-0.1,0-0.5,0-0.8c0-0.1,0.1-0.3,0-0.5c-0.5-1.6-0.9-3.4-1.4-5
			c-0.3-0.8-0.4-1.6-0.8-2.3c-0.5-0.9-1.1-1.9-2-2.3c-0.3-0.1-0.3-0.5-0.5-0.7c-0.8-0.8-1.6-1.8-2.6-2.6c-0.5-0.5-1.6-0.8-2-1.4
			c-0.5-1.1-1.6-1.4-2.6-2c-1.4-0.9-2.8-1.9-4.2-2.7c-1.5-0.9-3-2-4.5-2.8c-0.8-0.4-1.6-0.5-2.4-0.9c-1.8-1.2-3.9-1.4-5.5-2.7
			c-0.1-0.1-0.3,0-0.3-0.1c0.7,0.8,0.9,1.8,0.8,2.8c0,0.1,0.1,0.1,0.1,0.1c0.1,0.5,0.3,0.9,0.4,1.6c0.1,0.4,0.1,0.8,0.3,1.2
			c0.7,1.4,1.4,3,1.2,4.6c0,0.1,0.1,0.3,0.3,0.5c0.3,0.7,0.5,1.2,0.7,1.9c0.1,0.8,0.1,1.5,0.1,2.3c0.1,0.8,0.3,1.8,0.4,2.6
			c0.1,0.5-0.1,1.2,0.1,1.9c0.5,2,0.8,4.1,0.4,6.2c-0.1,0.5,0.1,0.9,0.1,1.6c0,0.5,0.1,0.9,0.1,1.5c-0.1,1.1-0.1,2.2-0.4,3.1
			c-0.1,0.5-0.4,1.2-0.8,1.5c-0.5,0.5-0.5,0.8-0.4,1.5c0.1,0.4,0.1,0.9,0.1,1.4c-0.1,0.8-0.5,1.4-0.7,2.2c-0.3,2-1.8,3.4-2.6,5.1
			c-0.3,0.5-0.7,1.2-1.1,1.6c-0.9,0.9-1.9,1.9-3,2.8c-0.3,0.3-0.5,0.3-0.9,0.4c-0.1,0.1-0.5,0.1-0.5,0.1c-0.9,1.4-2.7,1.2-4.1,1.9
			c-1.2,0.5-2.4,0.5-3.5,0.3c0.8,0.5,1.6,1.2,2.6,2c0.1,0.1,0.3,0.1,0.4,0.1c1.4,0.1,2.2,1.4,3.4,1.9c0.1,0,0.1,0.1,0.1,0.1
			c0.1,0.9,0.9,0.9,1.6,0.9c1.6,0.3,3,0.9,4.2,2c0.5,0.5,1.2,1.1,1.9,1.2c1.6,0.1,2.7,1.4,4.2,1.9c0.3,0.1,0.4,0.4,0.5,0.5
			c0.3,0.3,0.5,0.4,0.9,0.7c1.1,0.7,2.6,0.9,3.4,2c0.3,0.3,0.7,0.4,0.9,0.5c0.7,0.1,1.4,0.1,1.9,0.5c0.9,0.8,2,1.5,3.2,1.9
			c1.4,0.4,2.6,1.2,3.8,1.9c0.4,0.3,0.8,0.5,1.2,0.8C218.8,184,219.2,184.4,219.6,184.7z M96.7,135c-0.3,0.1-0.5,0.1-0.8,0.1
			c-0.5,0.3-1.2,0.7-1.8,1.1c-0.3,0.1-0.4,0.8-0.3,0.9c0.5,2,0.9,4.1,0.7,6.2c0,0.1,0.1,0.5,0.1,0.7c0.9,0.8,1.1,1.9,0.8,2.7
			c-0.3,1.1,0.1,1.9,0.4,2.7c0.3,1.2,0.8,2.4,0.9,3.7c0.1,1.2,0.3,2.6,0.5,3.7c0.4,1.9,1.2,3.7,1.2,5.5c0.1,1.4,0.5,2.6,0.4,3.8
			c0,1.6,0.4,3.2,0.7,4.9c0.1,0.7,0.1,1.4,0.3,1.9c0.3,0.7,0.4,1.2,0.3,1.9c-0.1,0.3,0.3,0.9,0.3,0.9c0.8,0,1.6-0.1,2.6-0.3
			c0.7-0.1,1.2-0.4,1.9-0.5c0.4-0.1,0.9-0.1,1.4-0.3c1.6-0.5,3.4-1.2,5-1.8c1.2-0.4,2.6-0.7,3.8-1.1c1.6-0.5,3-1.2,4.7-0.9
			c0.1,0,0.3-0.1,0.3-0.1c0.5-0.3,1.2-0.5,1.8-0.7c0.5-0.1,1.2-0.3,1.9-0.4c1.9-0.5,3.7-1.6,5.7-1.4c0.1,0,0.3-0.1,0.4-0.1
			c0.8-0.3,1.6-0.5,2.6-0.8c1.2-0.3,2.3-0.5,3.5-0.8c0.7-0.1,1.4-0.1,2-0.3c0.1,0,0.4,0,0.5-0.1c1.2-0.5,2.3-1.2,3.8-1.2
			c0.1,0,0.1-0.1,0.3-0.1c0.7-0.3,1.4-0.5,2-0.8c0.5-0.1,1.1,0,1.6-0.1c1.9-0.5,3.9-1.1,5.8-1.6c1.2-0.3,2.4-0.4,3.7-0.8
			c0.9-0.3,2-0.4,3.1-0.9c1.4-0.8,3.1-0.8,4.7-1.2c0.9-0.3,2.2,0,3.1-0.9c-1.4-0.7-2.7-1.4-4.1-2c-0.7-0.3-1.2-0.7-1.6-1.2
			c-0.4-0.4-1.4-0.8-2-0.5c-1.4,0.3-2.3,1.4-3.1,2.3c-1.4,1.4-3,2-4.7,2.3c-1.2,0.1-2.4-0.3-3.7-0.5c-0.7-0.1-1.4-0.3-2-0.5
			c-1.2-0.5-2-0.5-3,0.4c-0.3,0.3-0.8,0.4-1.2,0.5c-0.8,0.1-1.5,0.3-2.2,0.5c-1.2,0.5-2.4,0.5-3.7,0.1c-0.1-0.1-0.4-0.1-0.5-0.1
			c-2.3,0.5-3.7-1.2-5.3-2.2c-0.1-0.1-0.3-0.5-0.4-0.8c-0.4-0.7-0.8-1.4-1.4-1.9c-0.8-0.7-1.4-1.9-0.9-2.8c0.5-1.1,1.4-2,2-3.1
			c0.7-1.2,1.4-2.3,2.2-3.4c0.8-0.9,1.4-2.2,2.6-2.7c0.5-0.3,0.9-0.7,1.6-1.2c-0.3-0.3-0.5-0.5-0.7-0.5c-1.4-0.4-2.3-1.6-3.4-2.6
			c-0.5-0.4-1.2-0.9-2-0.8c-0.3,0.1-0.5,0-0.8-0.1c-1.2-0.8-2.4-1.5-3.7-2.2c-0.9-0.5-1.8-1.1-2.7-1.6s-1.9-0.9-3-1.4
			c-0.5-0.3-1.1-0.7-1.6-0.9c-0.8-0.5-1.5-1.2-2.3-1.6c-1.2-0.5-2.4-0.9-3.7-1.5c-0.1-0.1-0.3,0-0.3,0c-0.5,1.6-0.9,3.1-1.5,4.7
			c-0.1,0.3-0.3,0.4-0.5,0.5c-0.1,0.1-0.5,0.1-0.5,0.4c-0.7,1.2-1.6,2.3-3,3c-1.5,0.8-2.8,1.9-4.3,2.7c-0.9,0.5-2,0.5-3.1,0.8
			c-0.3,0-0.5-0.3-0.8-0.3c-0.1-0.1-0.3-0.3-0.5-0.3c-1.4-0.5-1.9-1.8-1.4-3.1C96.3,136,96.4,135.7,96.7,135z M160.6,61.1
			c-0.5-0.5-0.9-0.9-1.5-1.4c-0.1-0.1-0.3-0.1-0.4-0.1c-0.3-0.3-0.7-0.5-0.8-0.9c-0.3-0.7-0.3-1.4-0.5-2c-0.3-1.1-0.3-2.3-0.8-3.2
			c-0.3-0.9-0.8-1.8-2-1.9c-0.3,0-0.5-0.3-0.9-0.4c-0.9-0.5-1.9-1.4-3.1-1.8c-0.9-0.3-1.9-0.8-2.8-1.2c-1.1-0.4-2-1.4-3.2-1.2
			c-0.1,0-0.4-0.1-0.7-0.3c-1.2-0.4-2.6-0.8-3.8-1.2c-0.8-0.4-1.9-0.4-2.8-0.7c-1.1-0.3-2.2-0.8-3.2-0.7c-1.8,0.1-3.4-0.9-5.1-0.5
			c-0.1,0-0.3-0.1-0.5-0.1c-0.8-0.1-1.4-0.1-2.2-0.1c-0.3,0-0.5,0.3-0.5,0.5c-0.4,1.4-0.8,2.7-1.2,4.1c-0.1,0.4-0.3,0.8-0.3,1.2
			c-0.3,0.8-0.4,1.4-0.7,2.2c-0.1,0.3-0.3,0.8-0.3,1.1c-0.5,2.2-0.9,4.2-1.5,6.4c0,0.1,0,0.3,0,0.5c0.1,0.4,0.1,0.9,0.1,1.4
			c0.1,0.8-0.1,1.9,0.3,2.6c0.9,1.5,1.6,3.1,3,4.5c0.8,0.8,1.9,0.9,2.6,1.6c0.4,0.3,0.9,0.5,1.4,0.8c0.9,0.7,1.9,1.9,3.2,1.9
			c0.4,0,0.9,0.3,1.2,0.5c0.7,0.4,1.2,0.8,2,0.5c0.3-0.1,0.8,0.1,1.2,0.3c0.7,0.3,1.4,0.7,2,0.8c2.3,0.5,4.6,0.8,6.9,1.2
			c1.1,0.1,1.5,0.8,1.6,1.9c0,0.4,0,0.9,0.1,1.4c0.3,0.9,0.5,1.9,0.8,2.7c0.1,0.3,0.1,0.5,0.3,0.7c1.1,0.9,2.2,2,3.4,3
			c0.4,0.3,0.8,0.7,1.4,0.9c0.3,0.1,0.5,0.3,0.8,0.3c0.7,0.1,1.4-0.1,2,0.1c0.8,0.3,1.6,0.8,2.6,0.1c0.1-0.1,0.1,0,0.3,0
			c0.8-0.1,1.8-0.1,2.6-0.3c0.4-0.1,0.8-0.3,1.2-0.5c0.8-0.3,1.5-0.9,2.3-1.1c0.9-0.1,1.6-0.7,2.3-1.2c0.3-0.3,0.3-0.7,0.4-0.9
			c0.3-1.6-0.3-3.5,1.2-4.9c-0.4-0.5-0.9-0.9-1.2-1.5s-0.4-1.2-0.7-1.8c0-0.1-0.1-0.1-0.3-0.3c-1.4-0.8-1.4-2-1.4-3.4
			c0.1-0.8,0.4-1.4,1.2-1.8c0.3-0.1,0.5-0.3,0.8-0.5c0.7-0.5,1.4-1.2,2-1.8c0.8-0.5,1.2-1.2,0.9-2.3c-0.1-0.8-0.1-1.8-0.4-2.6
			c-0.3-0.7-0.8-1.6-1.4-1.9c-1.6-0.4-3.2-1.2-4.9-0.1c-0.3,0.1-0.5,0-0.9,0.1C162,60.1,161.3,60.1,160.6,61.1z M138.2,156.4
			c0.1,0.1,0.1,0.1,0.1,0.3c0.3,0,0.7,0,0.8-0.1c1.4-0.8,3.4-0.3,4.6-1.8c0.1-0.1,0.1-0.1,0.3-0.1c1.4-0.1,2.6,0.1,3.8,0.8
			c0.4,0.3,1.1,0.3,1.6,0.3c0.3,0,0.5-0.1,0.8-0.1c1.9-0.1,3.8-0.7,5-2.3c0.1-0.1,0.3-0.3,0.4-0.3c0.8-0.3,1.1-0.9,0.9-1.6
			c0-0.3-0.1-0.5-0.3-0.7c-0.3-0.9-0.5-1.9-0.8-2.7c-0.1-0.4-0.3-0.8-0.5-1.2c-0.4-0.5-0.9-1.2-1.4-1.6c-0.3-0.3-0.5-0.7-0.8-0.8
			c-1.2-0.5-2.3-0.9-3.5-1.4c-0.9-0.3-2-0.7-3-0.5c-1.5,0.1-3.1-0.1-4.6,0.7c-1.2,0.5-2.6,0.8-3.8,1.2c-1.2,0.4-2.3,0.8-3.2,1.9
			c-0.5,0.5-1.1,0.9-1.5,1.6c-0.9,1.5-1.6,3.1-2.6,4.6c-0.3,0.4-0.5,0.8-0.8,1.2c0.8,0.8,0.9,0.1,1.4-0.3c0.3-0.3,0.5-0.7,0.8-0.9
			c0.5-0.7,1.2-1.2,1.8-1.9c0.4-0.5,0.9-0.9,1.6-0.8c0.5,0.1,1.1,0.3,1.2,0.9c0.1,0.8-0.3,1.2-0.8,1.8c-0.3,0.3-0.8,0.5-0.9,0.8
			c-0.4,1.1-0.9,1.9-1.8,2.7c-0.1,0.1-0.1,0.3-0.3,0.5c0.5,0.3,1.1,0.3,1.4-0.3c0.1-0.1,0.3-0.3,0.5-0.5c0.9-0.8,2-1.8,3.1-2.6
			c0.1-0.1,0.3-0.3,0.3-0.5c0.4-0.8,1.9-1.5,2.7-1.4c0.5,0.1,1.1,0.4,0.8,0.9c-0.3,0.8-0.8,1.4-1.2,2
			C139.8,154.6,138.9,155.5,138.2,156.4z M98.8,137.5c1.2-0.7,2.2-1.4,3.2-1.9c0.5-0.3,1.2-0.7,1.9-0.8c1.1-0.1,1.6-0.8,2.2-1.6
			c0.5-1.1,1.2-2,1.6-3.2c0.3-0.8,1.1-1.4,0.8-2.3c-0.1-0.5-0.3-1.2-0.3-1.6c-0.3-1.8-1.2-3.1-2.3-4.5c-0.4-0.5-0.9-1.2-1.6-1.4
			c-1.2-0.4-2.4-1.6-4.1-0.8h-0.1c-1.2,0.1-2.3,0.3-3.5,0.5c-0.9,0.1-1.9,0.5-2.7,0.8c-0.1,0.1-0.4,0.1-0.5,0.3
			c-0.7,0.8-1.4,1.5-1.9,2c0,0.8,0,1.5,0,2c0,0.3,0.1,0.8,0.3,0.9c0.5,0.5,0.8,1.2,0.7,2c-0.1,0.4,0.1,0.8,0.1,1.2
			c0.5-0.3,0.9-0.7,1.4-0.8c0.5-0.1,1.2,0,1.8,0.3c0.5,0.4,0.1,0.9-0.1,1.4c-0.4,0.5-0.9,1.1-1.5,1.6c-0.3,0.4-0.8,0.8-0.3,1.6
			c0.5-0.3,0.9-0.5,1.4-0.8c0.3-0.1,0.4-0.3,0.7-0.3c0.8,0,1.4-0.5,2-1.1c0.5-0.5,1.2-0.9,2-1.2c0.7-0.3,1.2,0,1.6,0.7
			c0.3,0.5,0.3,1.2-0.3,1.6c-1.2,0.7-1.5,1.9-2.2,3C98.4,136,98.6,136.8,98.8,137.5z M90.9,119.8c0.8-0.7,1.6-1.4,2.4-2
			c-1.2-0.8-2-1.4-3.1-1.9c-0.1,0.1-0.1,0.1-0.3,0.1C90.2,117.2,90.6,118.5,90.9,119.8z"/>
		<path class="st1" d="M144.8,82.6c0.3,1.2,1.1,1.9,2,2c0.1,0,0.3,0.1,0.4,0.3c0.8,1.4,2.2,2,3.4,2.6s2.3,0.9,3.5,1.6
			c0.7,0.3,1.8,0.1,2.6,0c0.3,0,0.5-0.1,0.8,0c0.7,0.3,1.2,0.3,1.9,0.1c1.5-0.4,3-0.7,4.5-1.1c0.9-0.3,1.8-0.9,2.6-1.4
			c0.5-0.3,0.9-0.5,1.5-0.8c0.8-0.5,1.6-1.1,2.6-1.6c1.4,0.9,2.4,2.7,4.7,3c0.3,1.4,1.6,1.8,2.6,2.6c0.8,0.8,1.8,1.6,2.4,2.6
			c0.8,0.9,1.6,1.9,2.6,2.8c0.1,0.3,0.3,0.5,0.5,0.7c0.4,0.5,0.9,1.2,1.4,1.8c0,0.1,0.1,0.1,0.1,0.1c0.1,1.5,1.6,2,2,3.5
			c0.1,0.4,0.5,0.8,0.8,1.1c0.3,0.4,0.8,0.8,1.1,1.2c0.4,0.5,0.8,1.2,1.2,1.9c0.7,0.9,0.9,1.9,1.4,3c0.3,0.8,1.2,1.5,1.5,2.3
			c0.3,0.8,0.3,1.9,0.5,2.6c0.3,0.7,0.9,1.2,0.8,2.2c0,0.1,0,0.1,0,0.1c0.8,0.8,0.7,2,1.4,3.1c0.3,0.4,0.3,1.1,0.5,1.6
			c0.3,1.2,0.1,2.7,0.9,3.8c0.1,0.1,0.1,0.4,0.1,0.5c-0.5,1.2,0.1,2.3,0.4,3.4c0.1,0.3,0.1,0.5,0.1,0.8c0.1,0.8-0.1,1.5,0.1,2.2
			c0.5,1.4,0.4,2.7,0.5,4.1c0.1,1.2,0.3,2.3,0.3,3.5c0,0.7-0.1,1.4-0.1,2c0,0.1-0.1,0.3-0.1,0.4c0.1,1.4,0,2.8-0.4,4.2
			c-0.1,0.3,0.1,0.8,0.3,0.9c0.3,0.5,0.3,0.9-0.3,1.4c-0.5,0.4-0.8,0.9-0.8,1.6c0,0.3-0.3,0.7-0.4,0.9c-0.5,1.2-0.9,2.4-1.6,3.5
			c-0.3,0.5-0.5,1.1-0.9,1.6c-0.9,1.2-1.9,2.4-3.1,3.4c-0.9,0.8-2,0.9-2.8,1.6c-0.3,0.3-0.8,0.1-1.2,0.1c-1.4,0.1-2.7,0.3-4.1,0.4
			c-1.1,0.1-1.6,0.5-1.6,1.9c-0.8-0.4-1.4-0.9-2-1.2c-1.4-0.4-2.4-1.2-3.5-2c-0.9-0.7-2.2-1.1-3.2-1.6c-0.5-0.3-0.9-0.5-1.4-0.8
			c-0.3-0.1-0.4-0.3-0.7-0.4c-1.6-0.3-2.7-1.2-4.1-2c-0.9-0.5-1.9-1.2-2.7-1.8c-0.1-0.1-0.3-0.1-0.4-0.1c-1.2,0.1-2-0.9-2.8-1.4
			c-0.4-0.3-0.7-0.9-0.8-1.5c-0.1-1.2-0.4-2.4-1.4-3.4c-0.3-0.3-0.5-0.8-0.7-1.2c-0.4-1.2-0.8-2.3-2.2-2.7c-0.1,0-0.3-0.1-0.4-0.3
			c-0.9-0.9-1.9-2-3.4-2.2c0-0.1,0-0.1,0.1-0.3c0.7-0.1,1.4-0.1,2-0.1c1.6,0.1,3.1,0.3,4.7,0.4c1.5,0.1,3,0.4,4.5,0.8
			c1.4,0.3,2.7,0.9,4.2,1.4c1.4,0.3,2.6,0.7,3.9,0.8c0.8,0.1,1.2-0.4,1.4-1.1c0.3-0.7,0.1-1.4-0.5-1.8c-0.4-0.3-0.8-0.5-1.2-0.7
			c-1.4-0.3-2.7-0.5-4.1-0.9c-0.3-0.1-0.8-0.3-1.1-0.4c-0.3-0.1-0.5-0.3-0.8-0.3c-0.9,0.3-1.8-0.3-2.6-0.5c-1.2-0.3-2.3-0.4-3.5-0.5
			c-1.2-0.1-2.6-0.4-3.7-0.4c-1.6,0.1-3.2-0.3-4.7,0.5c-0.3,0.1-0.5,0.1-0.8,0.1c-1.5,0.1-1.9,0.7-1.6,2.4c-0.5-0.1-1.1-0.3-1.6-0.4
			c-0.8-0.1-1.6-0.1-2.6-0.1c-1.4,0.1-2.7,0.3-4.2,0.3c-0.4,0-0.9-0.4-1.4-0.7c-0.5-0.3-1.1-0.7-1.6-0.9c-0.4-0.3-0.8-0.5-1.2-0.8
			c-0.8-0.3-1.6-0.5-2.4-0.8c-0.9-0.3-1.9-0.5-2.4-1.6c-0.1-0.3-0.4-0.4-0.7-0.5c-1.4-0.7-2.8-1.4-4.2-2c-0.3-0.1-0.5-0.4-0.5-0.7
			c-0.1-0.5-0.1-1.1,0.1-1.6c0.1-0.8,0.5-1.6,0.7-2.4c0.1-0.7,0.1-1.4,0.3-2c0.5-2,0.9-4.2,0.9-6.4c0-0.7,0.3-1.4,0.5-2
			c0.3-0.9,0.5-1.9,0.8-2.8c0-0.1,0-0.1,0-0.1c-0.4-1.4,0.3-2.3,0.7-3.7c0.1-0.5,0-1.2,0.1-1.9c0.1-1.2,0.5-2.3,0.8-3.4
			c0.1-0.7-0.3-1.4-0.8-1.5c-0.5-0.1-1.2,0.3-1.4,0.9c-0.4,1.5-0.9,3.1-1.4,4.6c0,0.1-0.1,0.1-0.1,0.3c0.1,2-0.9,3.9-1.4,5.9
			c-0.1,0.5,0,1.1-0.1,1.6c-0.3,1.4-0.8,2.8-0.9,4.3c-0.3,1.1-0.3,2.2-0.5,3.2c-0.1,1.1-0.4,2-0.5,3.1c-0.1,0.4-0.1,0.8-0.1,1.2
			c0,0.8-0.3,0.9-0.9,0.5c-1.2-0.5-2.3-1.2-3.5-1.9c-0.4-0.3-0.9-0.3-1.4-0.5c-0.9-0.7-2-1.4-3-2c-0.5-0.3-1.4-0.5-1.9-0.9
			c-0.5-0.3-1.1-0.8-1.2-1.4c-0.3-0.9-0.3-1.9-1.4-2.3c-0.1,0-0.1-0.1-0.1-0.1c-0.3-1.6-1.8-2-3-2.8c-0.3-0.1-0.5-0.5-0.8-0.8
			c0.3-0.3,0.5-0.4,0.7-0.7c0.9-0.8,1.8-1.4,2.7-2.2c0.3-0.3,0.8-0.5,1.2-0.8c0.3-0.1,0.5-0.3,0.7-0.5c0.8-1.4,2-2.3,3.1-3.4
			c0.8-0.8,1.6-1.6,1.9-3c0.1-0.5,0.8-0.8,1.2-1.2c0.4-0.5,0.8-0.9,1.1-1.5c0.1-0.3,0.4-0.5,0.5-0.9c0.3-0.5,0.5-0.9,0.7-1.6
			c0.1-0.4,0.1-0.8,0.5-0.8c0.3-0.1,0.7-0.3,0.8-0.5c0.7-0.9,1.2-2,1.9-3.1c0.3-0.5,0.8-0.9,1.2-1.4c0.9-0.9,2-2,3-3
			c1.2-1.1,2.3-2.2,3.7-3.1c0.9-0.7,2.2-0.9,3.1-1.6c1.6-1.2,3.4-1.9,5.3-2.6c0.9-0.4,1.9-0.9,2.8-1.4
			C142.5,83.4,143.7,83,144.8,82.6z"/>
		<path class="st2" d="M30,76.2c0.4,0.1,0.7,0.3,0.9,0.3c0.8,0.5,1.6,1.2,2.4,1.6c0.8,0.4,1.6,0.8,2.4,1.2c0.9,0.5,2,1.2,3.1,1.6
			c1.5,0.5,2.7,1.9,4.5,1.6c0.1,0,0.4,0.3,0.5,0.3c0.3,0.3,0.5,0.7,0.9,0.8c0.8,0.1,1.4,0.8,2,0.9c0.9,0.3,1.8,0.8,2.7,1.4
			c1.1,0.5,2.3,1.1,3.4,1.6c1.2,0.5,2.3,1.4,3.7,1.8c1.5,0.4,2.7,1.2,4.1,2c1.2,0.5,2.4,0.9,3.7,1.6c0.5,0.3,0.9,0.7,1.4,0.9
			c0.9,0.5,2,0.8,3,1.4c0.1,0.1,0.3,0.1,0.4,0.3c0.9,1.4,2.6,1.8,4.1,2c0.3,0.1,0.5,0.3,0.7,0.4c0.5,0.4,1.2,0.8,1.9,1.2
			c0.4,0.3,0.9,0.5,1.4,0.8c0.3,0.1,0.7,0.4,0.9,0.5c1.2,0.5,2.3,0.9,3.5,1.4c0.1,0.1,0.3,0.3,0.5,0.4c0.5,0.7,1.4,0.9,2.3,0.9
			c0.8-0.1,0.9,0.3,0.9,0.9s0.1,1.2,0.3,1.9c0.1,0.5-0.1,1.2,0.1,1.9c0.5,1.4,0.5,3,0.7,4.3c0,0.1,0,0.3,0.1,0.3
			c1.1,1.4,0.5,3.4,1.4,4.9c0.1,0.3,0.1,0.8,0.1,1.2c0,0.3,0,0.4,0,0.7c0.3,1.6,0.4,3.4,0.9,4.9c0.4,1.2,0.7,2.2,0.4,3.4
			c-0.1,0.5,0.5,1.2,0.5,1.9c0.3,1.4,0.4,2.7,0.8,4.2c0.3,1.2,0.7,2.6,0.9,3.8c0.1,0.5-0.1,0.9,0,1.5c0.3,1.6,0.3,3.4,1.2,4.9
			c0.1,0.1,0,0.4-0.1,0.5c-0.8,0.9-0.5,2,0,3c0.5,0.8,0.5,1.6,0.5,2.4c0.1,1.6,0.1,3.4,0.8,4.9c0.4,1.1,0.5,2.3,0.8,3.5
			c0.1,0.8,0.4,1.8,0.5,2.6c0.1,0.5,0.1,1.1,0.1,1.6c0.1,0.4,0,0.9,0.3,1.2c0.5,0.7,0.5,1.2,0.4,2c-0.1,0.3,0,0.8,0.1,1.2
			c0.1,0.8,0.5,1.5,0.5,2.3c0.1,1.2,0.1,2.6,0.8,3.7c0.4,0.8,0.5,1.6,0.7,2.6c0,0.1-0.1,0.3-0.1,0.3c-0.3-0.1-0.5-0.5-0.8-0.5
			c-0.9-0.3-2.2-0.4-2.7-1.6c-0.1-0.1-0.4-0.3-0.5-0.3c-1.5-0.1-2.4-1.2-3.7-1.9c-1.4-0.7-2.6-1.4-3.9-2.2c-0.7-0.3-1.4-0.8-2-1.1
			c-0.1,0-0.1-0.1-0.1-0.1c-1.4,0-2-0.9-2.8-1.9c-0.1-0.1-0.4-0.3-0.5-0.3c-1.2,0.1-1.9-0.9-2.8-1.4c-0.5-0.3-0.9-0.4-1.4-0.8
			c-0.5-0.4-1.2-0.9-1.9-1.4c-1.2-0.9-2.6-1.6-4.1-2.3c-0.8-0.3-1.5-0.9-2.3-1.4c-0.8-0.4-1.5-0.9-2.3-1.1c-0.8-0.1-1.4-0.4-1.9-0.9
			c-0.8-0.9-2-1.2-3.2-1.6c-1.1-0.4-2.4-0.5-3.2-1.8c-0.5-0.8-1.9-1.2-3-1.8c-0.8-0.4-1.6-0.5-2.4-0.9c-0.5-0.3-1.1-0.8-1.6-1.1
			c-0.1-0.1-0.3-0.1-0.5-0.3c-1.5-0.1-2.6-0.9-3.7-1.9c-0.1-0.1-0.3-0.3-0.5-0.3c-1.4-0.1-2-1.1-2.6-2c-0.3-0.5-0.1-1.4-0.1-2.2
			c-0.1-2-0.5-3.9-1.4-5.8c-0.1-0.1-0.1-0.4-0.1-0.5c0.3-0.9,0.1-1.6-0.4-2.6c-0.1-0.3-0.1-0.7-0.1-0.9c0-0.4,0.1-0.9-0.1-1.2
			c-0.8-1.2-0.7-2.7-0.8-4.1c-0.1-0.7-0.3-1.4-0.4-2c-0.1-1.1-0.4-2-0.5-3.1c-0.1-0.3-0.1-0.5-0.1-0.8c-0.3-0.8-0.5-1.6-0.1-2.4
			c0.1-0.3,0.1-0.5,0-0.9c-0.3-2-0.7-4.2-1.1-6.2c-0.3-1.8-0.8-3.4-1.2-5.1c0-0.1-0.1-0.1-0.1-0.3c0.7-1.5-0.3-2.8-0.4-4.3
			c0-0.5-0.3-1.1-0.4-1.6c0-0.1-0.1-0.3-0.1-0.5c0.3-1.2-0.3-2.3-0.7-3.4c-0.3-0.9-0.5-1.9-0.7-3c-0.3-1.5,0.1-3.1-0.9-4.6
			c-0.3-0.4-0.3-1.2-0.3-1.8c0.1-1.4-0.5-2.6-0.9-3.7c-0.1-0.3-0.3-0.5-0.3-0.8c-0.1-1.1-0.1-2.3-0.5-3.2c-0.3-1.2-0.8-2.3-1.2-3.4
			C30.3,76.8,30.2,76.6,30,76.2z"/>
		<path class="st2" d="M130.3,40.4c-2,0-4.2,0-6.4,0c-0.4-0.7-0.7-1.4,0.1-2c0.1-0.1,0.3-0.4,0.3-0.7c0.3-1.4,0.8-2.8,0.7-4.3
			c0-0.1,0-0.3,0.1-0.3c0.5-1.4,1.2-2.8,1.9-4.2c0.3-0.7,0.7-1.2,0.9-1.9c0.1-0.1,0.3-0.3,0.3-0.4c0.1-1.4,1.4-2.3,1.9-3.7
			c0.1-0.3,0.3-0.3,0.5-0.5c0.3-0.5,0.7-0.9,0.9-1.5c0.3-0.5,0.5-1.1,0.9-1.4c1.2-1.1,2.6-2.2,4.1-3.1c0.8-0.5,1.9-1.1,2.8-1.4
			c0.8-0.3,1.9-0.1,2.7-0.3c1.6-0.5,3.2-0.4,4.9-0.5c0.9-0.1,1.9-0.3,3,0c0.5,0.1,1.4-0.1,1.9,0.1c1.2,0.4,2.3,0.4,3.4,0.3
			c0.5-0.1,0.9,0.1,1.6,0.3c0.9,0.1,1.9,0.1,2.8,0.3c0.1,0,0.3,0.1,0.5,0.3c0.3,0.1,0.5,0.3,0.8,0.4c1.9,0.4,3.9,0.9,5.8,1.4
			c0.1,0,0.3,0,0.3,0.1c1.1,1.4,3.1,1.2,4.5,2.2c0.1,0.1,0.3,0.1,0.4,0.1c1.8,0,3,1.4,4.7,1.8c1.4,0.3,3,0.8,4.1,1.9
			c1.5,1.4,3.2,2.3,4.1,4.2c0.4,0.9,1.2,1.9,1.8,2.7c0.7,1.4,1.2,2.7,1.1,4.2c-0.1,0.5,0.1,0.9,0.1,1.5c-0.3,1.8-0.5,3.5-0.9,5.3
			c0,0.1-0.3,0.3-0.4,0.5c-0.7,0.5-0.7,1.4,0,2c0.3,0.3,0.8,0.7,1.2,0.8c1.4,0.5,2.3,1.6,2.7,3c0.1,0.3,0.4,0.7,0.7,0.9
			c0.1,0.3,0.3,0.4,0.5,0.7c0.5,1.2,1.1,2.3,1.4,3.7c0.1,1.2,0.5,2.6,0.5,3.8c0,0.8-0.3,1.6-0.9,2.3c-0.4,0.4-0.5,0.9-0.8,1.5
			c-0.4,0.9-0.9,2-1.4,3c-0.1,0.1-0.1,0.3-0.3,0.4c-0.8,0.8-1.6,1.5-2.3,2.3c-0.9,1.1-1.9,2.2-2.7,3.4c-0.1,0.1-0.3,0.3-0.4,0.4
			c-1.4,0.8-2.6,1.5-3.9,2.3c-0.8,0.4-1.6,0.8-2.4,1.2c-0.3,0.1-0.5,0.1-0.7,0.4c-0.5,0.9-1.6,0.9-2.6,1.4c-0.4,0.1-0.8,0.4-1.2,0.7
			c-0.5,0.3-1.1,0.7-1.6,0.8c-0.4,0.1-0.8-0.1-0.9-0.7c-0.3-1.1-0.7-2.2-1.9-2.7c-0.8-0.4-0.7-1.5,0.1-1.9c1.4-0.7,2.3-2,3.1-3.2
			c0.9-1.5,1.5-3.1,1.4-5c0-0.1,0-0.4-0.1-0.5c-0.8-1.2-1.2-3-2.7-3.7c-0.4-0.3-0.9-0.5-1.2-0.8c-0.9-0.9-2.3-0.9-3.5-0.9
			c-0.8,0-1.8,0.1-2.6,0.3c-0.5,0.1-1.2,0.4-1.8,0.5c-0.3,0.1-0.7,0.3-0.9,0.3c-0.1-1.2-0.3-2.6-0.5-3.7c-0.5-1.9-1.1-3.9-2.7-5.3
			c-0.5-0.4-1.2-0.8-1.9-0.9c-0.8-0.3-1.6-0.5-2.4-0.8c-0.3-0.1-0.4-0.3-0.5-0.5c-0.5-0.5-0.9-0.8-1.8-0.8c-0.3,0-0.5-0.1-0.8-0.3
			c-0.5-0.3-1.1-0.5-1.6-0.8c-0.8-0.4-1.9-0.1-2.6-0.9c-0.5-0.7-0.5-1.2-0.3-2c0.5-1.4,0.9-2.8,1.5-4.2c0-0.1,0-0.3,0.1-0.3
			c0.8-1.1,0.5-2.3,0.5-3.7c0-0.3-0.1-0.9-0.4-0.9c-0.3-0.1-0.8,0.1-1.1,0.4c-2,2-2.6,4.7-3.2,7.3c0,0.1,0,0.3,0,0.4
			c0.1,1.8-0.5,2.2-2.3,1.6c-1.2-0.4-2.6-0.5-3.7-0.8c-0.9-0.1-2-0.3-3-0.5c-0.4-0.1-0.7-0.3-0.7-0.8s-0.3-0.9-0.5-1.4
			c-0.1-0.3-0.1-0.5-0.1-0.8c0.3-0.7,0.8-1.2,1.1-1.9c0.1-0.1,0.3-0.4,0.3-0.5c0-1.4,0.5-2.4,0.9-3.7c0.1-0.3,0.3-0.5,0.4-0.8
			c0.1-0.5,0.3-0.9,0.1-1.5c0-0.3-0.5-0.4-0.9-0.5c-0.5,0-0.9,0.3-1.2,0.9c-0.4,0.9-0.8,1.9-1.2,2.7c-0.1,0.1-0.3,0.3-0.3,0.3
			c-0.3,0.4-0.8,0.8-0.9,1.4c-0.3,0.9-0.3,1.9-0.5,2.8c-0.1,0.3-0.1,0.5-0.3,0.8C129.9,38.9,129.9,39.6,130.3,40.4z"/>
		<path class="st2" d="M219.6,184.7c-0.4-0.3-0.8-0.8-1.2-1.1c-0.3-0.3-0.8-0.5-1.2-0.8c-1.2-0.7-2.4-1.4-3.8-1.9
			c-1.2-0.4-2.3-1.1-3.2-1.9c-0.4-0.4-1.2-0.3-1.9-0.5c-0.3-0.1-0.8-0.3-0.9-0.5c-0.8-1.2-2.2-1.4-3.4-2c-0.3-0.1-0.7-0.4-0.9-0.7
			c-0.3-0.1-0.3-0.5-0.5-0.5c-1.5-0.5-2.6-1.8-4.2-1.9c-0.7-0.1-1.4-0.7-1.9-1.2c-1.2-1.1-2.7-1.8-4.2-2c-0.8-0.1-1.4-0.1-1.6-0.9
			c0-0.1-0.1-0.1-0.1-0.1c-1.2-0.5-1.9-1.9-3.4-1.9c-0.1,0-0.3,0-0.4-0.1c-0.8-0.7-1.8-1.4-2.6-2c1.1,0.3,2.3,0.3,3.5-0.3
			c1.4-0.7,3-0.4,4.1-1.9c0.1-0.1,0.3-0.1,0.5-0.1c0.3-0.1,0.7-0.3,0.9-0.4c0.9-0.9,2-1.9,3-2.8c0.4-0.5,0.8-1.1,1.1-1.6
			c0.8-1.8,2.3-3.1,2.6-5.1c0.1-0.8,0.5-1.4,0.7-2.2c0.1-0.4,0-0.9-0.1-1.4c-0.1-0.5-0.1-0.9,0.4-1.5c0.4-0.3,0.7-0.9,0.8-1.5
			c0.3-1.1,0.3-2,0.4-3.1c0.1-0.5,0-0.9-0.1-1.5c0-0.5-0.3-1.1-0.1-1.6c0.3-2,0.1-4.2-0.4-6.2c-0.1-0.5,0-1.2-0.1-1.9
			c-0.1-0.9-0.3-1.8-0.4-2.6c-0.1-0.8-0.1-1.5-0.1-2.3c-0.1-0.7-0.4-1.4-0.7-1.9c-0.1-0.1-0.3-0.3-0.3-0.5c0.1-1.6-0.5-3.1-1.2-4.6
			c-0.1-0.3-0.1-0.8-0.3-1.2c-0.1-0.5-0.3-1.1-0.4-1.6c0-0.1-0.1-0.1-0.1-0.1c0.3-1.1-0.1-2-0.8-2.8c0.1,0,0.3,0,0.3,0.1
			c1.6,1.4,3.8,1.6,5.5,2.7c0.8,0.5,1.6,0.5,2.4,0.9c1.5,0.9,3,1.9,4.5,2.8c1.4,0.9,3,1.8,4.2,2.7c0.8,0.7,1.9,0.9,2.6,2
			c0.3,0.7,1.4,0.9,2,1.4c0.9,0.8,1.6,1.6,2.6,2.6c0.1,0.1,0.3,0.5,0.5,0.7c0.9,0.5,1.6,1.4,2,2.3c0.4,0.7,0.5,1.5,0.8,2.3
			c0.5,1.6,0.9,3.4,1.4,5c0.1,0.1,0,0.3,0,0.5s-0.1,0.5,0,0.8c0.7,1.4,0.5,2.7,0.5,4.1c0,0.9-0.1,1.9-0.1,2.7c0,1.8,0.1,3.5-0.1,5.1
			c-0.3,1.6,0.3,3.1-0.4,4.7c-0.5,1.1-0.3,2.6-0.4,3.8c0,0.3-0.1,0.4-0.1,0.7c-0.5,2.2-1.2,4.2-1.5,6.4c-0.4,2.3-1.2,4.5-1.5,6.6
			c0,0.3-0.1,0.4-0.1,0.7c-0.1,0.9-0.4,1.8-0.5,2.7c-0.3,1.4-0.5,3-0.8,4.3c-0.1,0.8-0.4,1.4-0.5,2.2
			C219.7,184.7,219.6,184.7,219.6,184.7z"/>
		<path class="st2" d="M96.7,135c-0.3,0.5-0.5,0.8-0.7,1.2c-0.7,1.4-0.1,2.7,1.4,3.1c0.1,0.1,0.3,0.3,0.5,0.3
			c0.3,0.1,0.5,0.4,0.8,0.3c0.9-0.1,2.2-0.3,3.1-0.8c1.5-0.8,2.8-1.9,4.3-2.7c1.4-0.7,2.3-1.6,3-3c0.1-0.1,0.4-0.3,0.5-0.4
			c0.1-0.1,0.4-0.3,0.5-0.5c0.5-1.5,0.9-3.1,1.5-4.7c-0.1,0,0.1,0,0.3,0c1.2,0.5,2.4,0.9,3.7,1.5c0.8,0.4,1.5,1.1,2.3,1.6
			c0.5,0.3,0.9,0.7,1.6,0.9c0.9,0.5,1.9,0.9,3,1.4c0.9,0.5,1.8,0.9,2.7,1.6c1.2,0.8,2.4,1.5,3.7,2.2c0.3,0.1,0.5,0.3,0.8,0.1
			c0.8-0.1,1.4,0.3,2,0.8c1.1,0.8,2,2,3.4,2.6c0.1,0.1,0.3,0.3,0.7,0.5c-0.5,0.4-1.1,0.8-1.6,1.2c-1.2,0.7-1.9,1.8-2.6,2.7
			c-0.8,1.1-1.6,2.2-2.2,3.4c-0.5,1.1-1.4,2-2,3.1c-0.4,0.9,0.1,2.2,0.9,2.8c0.5,0.5,0.9,1.2,1.4,1.9c0.1,0.3,0.1,0.5,0.4,0.8
			c1.6,0.9,3,2.7,5.3,2.2c0.1,0,0.4,0.1,0.5,0.1c1.2,0.5,2.4,0.5,3.7-0.1c0.7-0.3,1.5-0.3,2.2-0.5c0.4-0.1,0.9-0.3,1.2-0.5
			c0.9-0.9,1.8-0.9,3-0.4c0.5,0.3,1.4,0.4,2,0.5c1.2,0.3,2.4,0.7,3.7,0.5c1.8-0.3,3.4-0.9,4.7-2.3c0.9-0.9,1.9-2,3.1-2.3
			c0.5-0.1,1.6,0.1,2,0.5c0.5,0.5,0.9,0.9,1.6,1.2c1.4,0.7,2.7,1.4,4.1,2c-0.9,0.9-2,0.5-3.1,0.9c-1.6,0.4-3.2,0.5-4.7,1.2
			c-1.1,0.5-2,0.5-3.1,0.9c-1.2,0.4-2.4,0.5-3.7,0.8c-1.9,0.5-3.9,1.1-5.8,1.6c-0.5,0.1-1.1,0-1.6,0.1c-0.8,0.1-1.4,0.5-2,0.8
			c-0.1,0-0.1,0.1-0.3,0.1c-1.4-0.1-2.6,0.5-3.8,1.2c-0.1,0.1-0.4,0.1-0.5,0.1c-0.7,0.1-1.4,0.1-2,0.3c-1.2,0.3-2.3,0.5-3.5,0.8
			c-0.8,0.3-1.6,0.5-2.6,0.8c-0.1,0.1-0.3,0.1-0.4,0.1c-2-0.3-3.8,0.8-5.7,1.4c-0.5,0.1-1.2,0.3-1.9,0.4c-0.5,0.1-1.2,0.5-1.8,0.7
			c-0.1,0.1-0.3,0.1-0.3,0.1c-1.6-0.3-3.1,0.5-4.7,0.9c-1.2,0.4-2.6,0.7-3.8,1.1c-1.6,0.5-3.4,1.2-5,1.8c-0.4,0.1-0.9,0.1-1.4,0.3
			c-0.5,0.1-1.2,0.5-1.9,0.5c-0.8,0.1-1.6,0.3-2.6,0.3c-0.1,0-0.4-0.5-0.3-0.9c0.1-0.7,0-1.2-0.3-1.9c-0.3-0.5-0.3-1.2-0.3-1.9
			c-0.3-1.6-0.8-3.1-0.7-4.9c0-1.2-0.4-2.6-0.4-3.8c-0.1-1.9-0.8-3.7-1.2-5.5c-0.3-1.2-0.3-2.6-0.5-3.7c-0.3-1.2-0.7-2.4-0.9-3.7
			c-0.3-0.9-0.7-1.6-0.4-2.7c0.3-0.9,0.1-2-0.8-2.7c-0.1-0.1-0.3-0.4-0.1-0.7c0.3-2-0.1-4.1-0.7-6.2c-0.1-0.3,0.1-0.8,0.3-0.9
			c0.5-0.4,1.2-0.8,1.8-1.1C96.1,135.2,96.4,135.2,96.7,135z"/>
		<path class="st2" d="M160.6,61.1c0.5-0.9,1.4-0.9,2-1.1c0.3-0.1,0.7,0.1,0.9-0.1c1.6-1.1,3.4-0.3,4.9,0.1c0.5,0.1,1.1,1.1,1.4,1.9
			c0.3,0.8,0.3,1.6,0.4,2.6c0.1,0.9-0.1,1.8-0.9,2.3c-0.8,0.5-1.4,1.2-2,1.8c-0.3,0.1-0.5,0.4-0.8,0.5c-0.8,0.3-1.2,0.9-1.2,1.8
			c-0.1,1.4,0,2.6,1.4,3.4c0.1,0.1,0.1,0.1,0.3,0.3c0.3,0.5,0.3,1.2,0.7,1.8c0.3,0.5,0.8,0.9,1.2,1.5c-1.5,1.4-0.9,3.1-1.2,4.9
			c-0.1,0.3-0.1,0.8-0.4,0.9c-0.7,0.5-1.2,1.1-2.3,1.2c-0.8,0.1-1.6,0.7-2.3,1.1c-0.4,0.1-0.8,0.4-1.2,0.5c-0.8,0.1-1.8,0.1-2.6,0.3
			c-0.1,0-0.1,0-0.3,0c-0.9,0.7-1.6,0.1-2.6-0.1c-0.7-0.1-1.4,0-2-0.1c-0.3,0-0.5-0.1-0.8-0.3c-0.5-0.3-0.9-0.7-1.4-0.9
			c-1.1-0.9-2.3-2-3.4-3c-0.1-0.1-0.1-0.5-0.3-0.7c-0.3-0.9-0.5-1.8-0.8-2.7c-0.1-0.4-0.1-0.9-0.1-1.4c0-1.1-0.5-1.6-1.6-1.9
			c-2.3-0.4-4.6-0.8-6.9-1.2c-0.7-0.1-1.4-0.5-2-0.8c-0.4-0.1-0.8-0.3-1.2-0.3c-0.8,0.3-1.4-0.1-2-0.5c-0.4-0.3-0.8-0.5-1.2-0.5
			c-1.5,0-2.3-1.1-3.2-1.9c-0.4-0.3-0.9-0.5-1.4-0.8c-0.8-0.7-1.9-0.9-2.6-1.6c-1.4-1.2-2-3-3-4.5c-0.4-0.7-0.1-1.6-0.3-2.6
			c-0.1-0.4-0.1-0.9-0.1-1.4c0-0.1-0.1-0.4,0-0.5c0.5-2.2,0.9-4.2,1.5-6.4c0.1-0.3,0.3-0.8,0.3-1.1c0.3-0.8,0.4-1.4,0.7-2.2
			c0.1-0.4,0.3-0.8,0.3-1.2c0.4-1.4,0.8-2.7,1.2-4.1c0.1-0.3,0.4-0.5,0.5-0.5c0.8,0,1.4,0.1,2.2,0.1c0.1,0,0.3,0.1,0.5,0.1
			c1.8-0.4,3.4,0.5,5.1,0.5c1.1,0,2.2,0.5,3.2,0.7c0.9,0.1,1.9,0.3,2.8,0.5c1.2,0.3,2.6,0.8,3.8,1.2c0.3,0.1,0.4,0.3,0.7,0.3
			c1.4-0.1,2.2,0.8,3.2,1.2c0.9,0.3,1.9,0.9,2.8,1.2c1.2,0.3,2,1.2,3.1,1.8c0.3,0.1,0.5,0.4,0.9,0.4c1.2,0.1,1.8,0.9,2,1.9
			c0.3,1.1,0.5,2.2,0.8,3.2c0.1,0.8,0.3,1.4,0.5,2c0.1,0.3,0.5,0.5,0.8,0.9c0.1,0.1,0.3,0.1,0.4,0.1C159.7,60,160.2,60.5,160.6,61.1
			z M137.5,67.2c0,0.1,0.1,0.1,0.1,0.3c0.7-0.4,1.4-0.8,2-1.2c0.9-0.5,1.2-1.2,0.8-2c-0.4-0.8-1.2-0.8-2.2-0.3
			c-0.7,0.3-1.5,0.8-2.2,0.8c-1.6-0.1-3-0.8-3.8-2.3c-0.5-0.8-0.9-1.2-1.6-0.8c-0.8,0.3-0.8,0.9-0.5,1.8c0.3,1.2,0.3,2.6,1.9,3
			c0.1,0,0.1,0.1,0.1,0.1c0.9,1.1,2,1.2,3.4,1.2C136.2,67.4,136.8,67.3,137.5,67.2z M145.9,60.9c-1.2,0-3.2,1.6-3.4,2.8
			c-0.1,0.5,0.1,1.1,0.4,1.5c0.1,0.3,0.5,0.5,0.8,0.8c1.6,1.2,4.1,0.8,4.9-1.1C149.3,63.5,147.5,60.9,145.9,60.9z M126.3,60.8
			c0.5-0.1,1.2-0.1,1.8-0.1c0.3-0.1,0.5-0.3,0.8-0.4c1.1-1.4,0.9-3-0.5-3.9c-0.5-0.4-1.5-0.8-2.2-0.7c-1.9,0.4-2.4,2.6-1.6,4.1
			C124.8,60.4,125.3,60.7,126.3,60.8z M132.9,56.5c0,1.5,0.8,2.3,1.9,3c0.8,0.4,1.4,0.3,2-0.3c0.5-0.5,0.7-1.4,0.1-2
			c-0.8-0.8-0.3-1.2,0.3-1.9c0.1-0.3,0.5-0.5,0.4-0.8c-0.1-0.3-0.5-0.5-0.8-0.7c-1.1-0.3-1.9,0.1-2.7,0.8
			C133.5,55.3,132.8,55.8,132.9,56.5z M130.8,52.3c0-0.9-1.2-1.9-2.3-1.9c-0.8,0-1.9,1.4-1.9,2.3c0,0.9,1.4,2,2.6,2
			C129.9,54.6,130.8,53.5,130.8,52.3z M147.8,57.6c0-1.2-0.9-2.3-2.2-2.3c-0.8,0-2,1.4-2,2.3c0,0.8,1.2,1.9,2,1.9
			C147,59.3,147.8,58.6,147.8,57.6z"/>
		<path class="st2" d="M138.2,156.4c0.8-0.8,1.5-1.6,2.2-2.6c0.5-0.7,0.9-1.4,1.2-2c0.3-0.5-0.3-0.9-0.8-0.9
			c-0.8-0.1-2.3,0.7-2.7,1.4c-0.1,0.1-0.1,0.3-0.3,0.5c-0.9,0.8-2,1.8-3.1,2.6c-0.1,0.1-0.3,0.3-0.5,0.5c-0.3,0.7-0.8,0.7-1.4,0.3
			c0.1-0.1,0.1-0.3,0.3-0.5c0.8-0.8,1.4-1.8,1.8-2.7c0.1-0.3,0.5-0.5,0.9-0.8c0.5-0.4,0.9-0.9,0.8-1.8c-0.1-0.7-0.5-0.8-1.2-0.9
			c-0.8-0.1-1.2,0.3-1.6,0.8c-0.5,0.7-1.2,1.2-1.8,1.9c-0.3,0.3-0.5,0.8-0.8,0.9c-0.3,0.3-0.5,0.9-1.4,0.3c0.3-0.4,0.5-0.8,0.8-1.2
			c0.8-1.5,1.6-3.1,2.6-4.6c0.3-0.5,0.9-0.9,1.5-1.6c0.9-0.9,2-1.4,3.2-1.9c1.2-0.4,2.7-0.5,3.8-1.2c1.5-0.8,3-0.5,4.6-0.7
			c0.9-0.1,2,0.3,3,0.5c1.2,0.3,2.4,0.8,3.5,1.4c0.3,0.1,0.5,0.5,0.8,0.8c0.5,0.5,0.9,1.1,1.4,1.6c0.3,0.3,0.4,0.8,0.5,1.2
			c0.3,0.9,0.5,1.9,0.8,2.7c0.1,0.3,0.1,0.5,0.3,0.7c0.1,0.8-0.1,1.4-0.9,1.6c-0.1,0.1-0.3,0.1-0.4,0.3c-1.2,1.6-3.1,2.2-5,2.3
			c-0.3,0-0.5,0.1-0.8,0.1c-0.5-0.1-1.2-0.1-1.6-0.3c-1.2-0.8-2.4-1.1-3.8-0.8c-0.1,0-0.3,0-0.3,0.1c-1.2,1.5-3.1,0.9-4.6,1.8
			c-0.3,0.1-0.5,0.1-0.8,0.1C138.3,156.5,138.2,156.4,138.2,156.4z"/>
		<path class="st2" d="M98.8,137.5c-0.3-0.5-0.3-1.4,0.1-2.2c0.7-0.9,1.1-2.3,2.2-3c0.5-0.3,0.5-0.9,0.3-1.6
			c-0.3-0.5-0.9-0.9-1.6-0.7c-0.7,0.3-1.4,0.8-2,1.2c-0.5,0.5-1.2,1.1-2,1.1c-0.3,0-0.5,0.1-0.7,0.3c-0.5,0.3-0.9,0.5-1.4,0.8
			c-0.5-0.8-0.1-1.2,0.3-1.6c0.5-0.5,1.1-0.9,1.5-1.6c0.3-0.4,0.8-0.9,0.1-1.4c-0.4-0.3-1.2-0.3-1.8-0.3c-0.4,0-0.8,0.4-1.4,0.8
			c-0.1-0.5-0.1-0.9-0.1-1.2c0.1-0.8-0.1-1.5-0.7-2c-0.3-0.1-0.3-0.5-0.3-0.9c-0.1-0.7,0-1.4,0-2c0.5-0.5,1.2-1.4,1.9-2
			c0.1-0.1,0.3-0.3,0.5-0.3c0.9-0.3,1.8-0.5,2.7-0.8c1.2-0.3,2.3-0.3,3.5-0.5h0.1c1.5-0.9,2.7,0.4,4.1,0.8c0.5,0.1,1.1,0.8,1.6,1.4
			c1.1,1.4,2,2.7,2.3,4.5c0.1,0.5,0.1,1.2,0.3,1.6c0.3,0.9-0.5,1.6-0.8,2.3c-0.4,1.2-0.9,2.2-1.6,3.2c-0.4,0.8-0.9,1.6-2.2,1.6
			c-0.7,0.1-1.2,0.4-1.9,0.8C101,136,99.9,136.7,98.8,137.5z"/>
		<path d="M137.5,67.2c-0.7,0.1-1.4,0.3-1.9,0.3c-1.2,0.1-2.6-0.1-3.4-1.2c0-0.1-0.1-0.1-0.1-0.1c-1.5-0.3-1.6-1.6-1.9-3
			c-0.1-0.8-0.1-1.4,0.5-1.8c0.5-0.3,1.1,0,1.6,0.8c0.8,1.4,2.3,2,3.8,2.3c0.7,0.1,1.5-0.4,2.2-0.8c0.9-0.5,1.8-0.3,2.2,0.3
			c0.4,0.8,0.1,1.5-0.8,2c-0.7,0.4-1.4,0.8-2,1.2C137.5,67.4,137.5,67.3,137.5,67.2z"/>
		<path class="st1" d="M145.9,60.9c1.8,0,3.5,2.6,2.7,4.1c-0.9,1.8-3.2,2.3-4.9,1.1c-0.3-0.3-0.7-0.4-0.8-0.8
			c-0.3-0.5-0.5-0.9-0.4-1.5C142.5,62.6,144.5,61.1,145.9,60.9z"/>
		<path class="st1" d="M126.3,60.8c-0.8-0.1-1.5-0.4-1.9-1.2c-0.7-1.6-0.1-3.7,1.6-4.1c0.7-0.1,1.5,0.3,2.2,0.7
			c1.4,0.9,1.6,2.6,0.5,3.9c-0.1,0.3-0.5,0.3-0.8,0.4C127.4,60.7,126.8,60.7,126.3,60.8z"/>
		<path d="M132.9,56.5c-0.1-0.8,0.5-1.4,1.2-1.9c0.8-0.7,1.6-1.2,2.7-0.8c0.3,0.1,0.7,0.3,0.8,0.7c0.1,0.1-0.3,0.5-0.4,0.8
			c-0.5,0.5-0.9,0.9-0.3,1.9c0.5,0.5,0.4,1.5-0.1,2c-0.5,0.5-1.4,0.8-2,0.3C133.6,58.9,132.9,58,132.9,56.5z"/>
		<path d="M130.8,52.3c0,1.4-0.8,2.4-1.9,2.4s-2.6-1.1-2.6-2s1.2-2.3,1.9-2.3C129.7,50.4,130.9,51.3,130.8,52.3z"/>
		<path d="M147.8,57.6c0,1.1-0.8,1.8-2,1.8c-0.9,0-2-0.9-2-1.9c0-0.9,1.2-2.3,2-2.3C146.7,55.3,147.8,56.2,147.8,57.6z"/>
	</g>
	<text transform="matrix(1 0 0 1 45.0264 125.2728)" class="st3 st4 st5">novape</text>
</g>
</svg>
