<?xml version="1.0" encoding="utf-8"?>
<!-- Generator: Adobe Illustrator 25.0.0, SVG Export Plug-In . SVG Version: 6.00 Build 0)  -->
<svg version="1.1" id="_xEFF5__xEED3__x5F_4" xmlns="http://www.w3.org/2000/svg" xmlns:xlink="http://www.w3.org/1999/xlink"
	 x="0px" y="0px" viewBox="0 0 333 285.1" style="enable-background:new 0 0 333 285.1;" xml:space="preserve">
<style type="text/css">
	.st0{fill:#FFFFFF;}
	.st1{fill:#FDD23E;}
</style>
<g>
	<path d="M289.9,252.4c0-0.3-0.1-0.6-0.2-0.8c-0.2-0.6-0.4-1.3-0.6-1.9c-0.2-0.6-0.5-1.1-0.7-1.7c-0.4-1-1-2.1-1-3.1
		c0-1.2-0.2-2.4-0.8-3.5c-0.2-0.3-0.4-0.7-0.3-1.1c0.1-1.5-0.7-2.8-1.4-4c-0.2-0.4-0.4-0.9-0.4-1.3c0-1-0.3-1.9-0.9-2.7
		c-0.6-0.8-1-1.7-0.8-2.8c0.1-0.4-0.2-0.8-0.3-1.2c-0.1-0.4-0.3-0.8-0.4-1.2c-0.1-1.2-0.5-2.1-1.5-2.8c-0.5-0.4-0.8-0.8-0.6-1.5
		c0.3-1-0.1-1.9-0.6-2.7c-0.3-0.6-0.6-1.3-0.8-2c-0.8-2.2-1.4-4.4-2.8-6.3c-0.1-0.2-0.3-0.5-0.2-0.6c0.5-1.6-0.4-2.8-0.9-4.1
		c-0.6-1.5-1-3.1-2.1-4.4c-0.1-0.1-0.1-0.5-0.1-0.7c0.3-1.8-0.5-3.2-1.5-4.6c-0.4-0.5-0.6-1.2-0.8-1.8c-0.4-0.8-0.5-1.9-1.1-2.4
		c-1.5-1.2-1.9-2.6-2.1-4.3c-0.1-0.6-0.4-1.2-0.5-1.8c-0.1-0.3-0.2-0.5-0.2-0.8c-0.3-2.2-0.9-4.3-2.6-5.9c-0.2-0.2-0.5-0.6-0.5-0.8
		c0.1-2.3-1.6-3.9-2.2-6c-0.2-0.8-0.7-1.5-0.8-2.4c-0.1-0.6-0.4-1.2-0.7-1.7c-0.5-0.7-0.9-1.4-0.9-2.4c0-0.5-0.4-1.1-0.6-1.6
		c-0.2-0.5-0.6-1-0.8-1.5c-0.5-1.1-1-2.3-1.4-3.4c-0.3-0.7-0.4-1.5-0.6-2.2c-0.2-0.5-0.3-1-0.5-1.5c-0.8-1.4-1.7-2.8-2.5-4.2
		c-0.8-1.4-2.1-2.4-2.6-4.1c-0.1-0.5-0.3-0.8-0.3-1.3c0.2-1.4-0.4-2.4-1.5-3.3c-1.2-0.9-2.3-1.9-3.3-2.9c-0.7-0.8-1.4-1.4-2.5-1.5
		c-0.3,0-0.8-0.3-0.9-0.5c-0.6-1.4-1.5-2.4-2.9-3.1c-0.3-0.2-0.5-0.5-0.8-0.8c-1.5-1.4-3-3-5.3-3.2c-0.2,0-0.3-0.2-0.5-0.2
		c-0.9-0.5-1.8-1-2.7-1.4c-1.5-0.6-3-1.2-4.6-1.7c-1.8-0.6-3.6-0.9-5.3-1.7c-1.1-0.5-2.2-1-3.2-0.8c-0.7-0.7-1.2-1.2-1.7-1.7
		c-0.4-0.3-0.8-0.6-1.2-0.9c-0.5-0.3-0.9-0.6-1.4-0.9c-0.4-0.2-0.9-0.4-1.3-0.6c-1.8-1.2-3.6-2.3-5.8-2.6c-0.2,0-0.5-0.2-0.6-0.4
		c-0.9-1-2-1.3-3.3-1.2c-0.3,0-0.7-0.1-0.8-0.1c-0.6-0.9-1.2-1.6-1.5-2.4c-0.3-0.9-0.4-1.8-0.5-2.6c0.8-0.6,1.5-1,2.2-1.5
		c0.2-0.2,0.5-0.2,0.8-0.3c0.8-0.3,1.8-0.5,2.5-1c1.5-0.9,3.2-1.5,4.4-2.9c0.1-0.1,0.3-0.2,0.7-0.3c0.8,0.8,1.6,1.6,2.3,2.5
		c0.8,1.1,1.8,1.9,3.2,2c0.5,0,0.7,0.3,1,0.7c1.1,1.3,2,2.6,3.6,3.4c1.1,0.5,1.9,1.6,3.1,1.9c0.1,0,0.2,0.2,0.3,0.3
		c1.1,1.1,2.2,2.1,3.6,2.9c1.1,0.6,2,1.6,2.9,2.5c0.7,0.5,1.3,1.1,2,1.6c0.5,0.4,1.1,0.7,1.6,1.2c0.6,0.6,1.3,1,2.1,1.1
		c0.6,0.1,1.2,0.2,1.8,0.4c1,0.4,1.9,0.1,2.5-0.8c0.4-0.6,0.9-1.1,1.2-1.7c0.3-0.6,0.6-1.2,0.9-1.8c0.1-0.3,0.1-0.8,0.3-1.1
		c0.9-1.6,0.9-3.4,1.3-5.1c0.3-1.7,1-3.3,1.6-4.9c0.5-1.4,1.2-2.7,1.5-4.1c0.3-1,0.3-2,0.7-3c0.8-2.4,1.5-4.9,2.2-7.4
		c0.3-0.9,0.5-1.7,0.2-2.7c-0.1-0.3-0.1-0.7,0-0.9c1.3-2.3,1.1-4.9,1.5-7.4c0.1-0.7,0.2-1.3,0.2-2c0-0.7,0.1-1.4-0.2-2
		c-0.3-0.9-0.3-1.8,0-2.7c1.1-2.4,0.8-5,0.5-7.5c-0.1-0.9-0.2-1.8,0.2-2.7c0.4-0.8,0.3-1.7-0.1-2.5c-0.3-0.6-0.4-1.1-0.3-1.8
		c0.1-0.8,0.2-1.6,0.3-2.4c0.1-0.8,0-1.6-0.5-2.4c-0.4-0.8-0.7-1.5-1.1-2.3c1.3-1.5,1.5-3.1,0.4-4.7c-0.1-0.2-0.2-0.5-0.1-0.7
		c0.5-1.8-0.1-3.3-1.1-4.7c-0.5-0.6-0.7-1.3-0.6-2.1c0.2-1.2,0-2.3-0.9-3.2c-0.2-0.2-0.2-0.4-0.3-0.6c-0.7-1.8-1.3-3.6-2-5.3
		c-0.4-0.9-1.1-1.7-1.3-2.7c-0.3-1.4-1-2.5-1.7-3.6c-0.7-1.4-1.3-2.9-3-3.5c-0.2-0.1-0.4-0.4-0.6-0.6c-0.6-1-1.1-2-1.7-3
		c-0.2-0.4-0.5-0.8-0.9-0.9c-1.3-0.5-2-1.7-3-2.5c-0.5-0.5-1.2-0.8-1.7-1.3c-0.7-0.5-1.3-0.9-2-1.4c-1.1-0.8-2.1-2-3.5-2.2
		c-1.7-0.2-3.3-1-4.9-1.4c-0.4-0.1-0.9-0.3-1.3-0.2c-0.8,0.1-1.2-0.3-1.7-0.8c-0.4-0.5-1-1-1.5-1.5c-0.9-0.8-1.7-1.6-2.9-1.9
		c-0.2-0.1-0.4-0.5-0.6-0.8c-0.5-0.5-0.9-1.1-1.5-1.5c-1.4-0.8-2.8-1.4-4.3-2c-0.7-0.3-1.6-0.4-2.3-0.6c-0.3-0.1-0.6-0.1-0.8-0.2
		c-1.2-0.5-2.5-1-3.7-1.5c-0.5-0.2-1-0.2-1.6-0.2c-0.5-0.1-1.1,0-1.6-0.1c-1.5-0.4-3-0.8-4.5-1.1c-0.8-0.2-1.6-0.3-2.4-0.1
		c-1.2,0.3-2.3,0.2-3.4-0.3c-0.8-0.4-1.7-0.4-2.5,0.1c-1.1,0.6-2.1,0.5-3.3,0c-0.9-0.4-1.9-0.6-2.9-0.6c-1.4-0.1-2.9,0-4.3,0.1
		c-0.9,0-1.9,0-2.7,0.3c-0.9,0.3-1.6,1-2.5,1.5c-1.9-0.5-3.7-0.1-5.5,0.8c-0.9,0.4-1.7,0.9-2.5,1.5c-1.5,1.1-2.9,2.2-4.8,2.1
		c-1.4,1-2.8,1.9-4.2,2.9c-0.3,0.2-0.5,0.4-0.8,0.6c-1.2,0.9-2.5,1.6-3.5,2.6c-1.4,1.3-2.9,2.7-4,4.3c-1.5,2.2-3.8,3.6-5,6.1
		c-0.7,1.5-2.1,2.7-3.2,4c-1,1.3-2,2.6-2,4.3c0,0.5,0,1-0.1,1.4c-0.1,0.3-0.2,0.7-0.5,0.9c-1.9,1.8-3.2,3.9-3.6,6.5
		c-0.1,0.8-0.5,1.5-0.7,2.3c-0.2,0.6-0.4,1.3-0.3,1.8c0.4,1.8-0.4,3-1.4,4.3c-0.4,0.5-0.7,1.2-0.7,1.8c0,1.5-0.2,3-0.6,4.5
		c-0.4,1.3-0.4,2.7-0.8,4.1c-0.2,0.8-0.4,1.7-0.7,2.6c-0.2,0.8-0.4,1.6-0.6,2.4c-0.3,0.9-0.5,1.8-0.8,2.7c-0.2,0.5-0.5,1.1-0.5,1.6
		c-0.2,1.4-0.3,2.7-0.4,4.1c-0.1,1.2,0,2.5-0.7,3.6c-0.6,1-0.6,2.3-0.9,3.4c-0.3,1.6-0.8,3.1-1.1,4.7c-0.1,0.5-0.1,1.2,0,1.7
		c0.2,0.7,0.1,1.2-0.3,1.9c-0.8,1.3-1.1,2.8-1.1,4.3c0,1.9-0.7,3.8-0.8,5.7c0,0.2-0.3,0.4-0.3,0.6c-0.2,0.7-0.4,1.4-0.5,2.1
		c-0.1,0.5-0.1,0.9-0.2,1.4c-0.5,1.9,0.5,3.2,2.5,3.3c1.6,0.1,3.2,0.2,4.6-0.6c0.2-0.1,0.5-0.1,0.7-0.2c3.2-0.1,6-1.4,8.8-2.8
		c0.8-0.4,1.6-0.8,2.5-0.7c0.4,0,1-0.2,1.3-0.5c0.5-0.4,0.9-0.4,1.5-0.2c1.1,0.3,2.1,0.2,3.1-0.3c1.6-1,3.2-1.1,4.8,0.2
		c0.8,0.7,1.9,1.3,2.5,2.1c0.9,1.4,2.2,2.4,3.6,3c1.3,0.6,2.4,1.4,3.5,2.1c0.7,0.5,1.5,1,2.3,1.1c1.1,0.1,1.8,0.7,2.4,1.3
		c0.6,0.6,0.9,1.3,0.6,2.2c-0.1,0.3-0.2,0.8-0.1,1.1c0.5,1.4-0.3,2.5-0.4,3.9c-1.7-0.5-2.9,0.3-4.1,1.3c-0.3,0.3-0.8,0.4-1.2,0.5
		c-0.9,0.2-1.7,0.6-2.2,1.4c-0.3,0.5-0.7,0.6-1.2,0.6c-1.7,0-3,0.8-4.3,1.8c-0.3,0.2-0.7,0.4-1,0.5c-1.1,0.1-2.1,0.7-3,1.2
		c-2.1,1.2-4,2.5-6.4,3.1c-0.4,0.1-0.8,0.5-1.2,0.7c-1.1,0.5-2.1,1.1-3.2,1.5c-1.6,0.5-3,1.5-4.7,1.4c-0.1,0-0.3,0.1-0.4,0.2
		c-2,1.4-4.4,2.1-6.6,3c-0.8,0.3-1.5,0.8-2.1,1.4c-0.5,0.6-1.2,1.2-1.9,1.4c-2.6,0.8-4,2.8-5.3,5.1c-0.9,1.4-1.6,2.9-2.4,4.4
		c-0.7,1.3-1.3,2.5-0.9,3.9c0.2,0.6,0,1-0.4,1.4c-0.7,0.5-0.9,1.3-1.1,2.1c-0.3,1.5-0.2,3.1-0.9,4.6c-0.3,0.6,0.3,1.6,0.1,2.4
		c-0.2,0.8-0.9,1.5-0.8,2.4c0.1,0.8-0.1,1.5-0.6,2.2c-0.8,1.3-1.6,2.8-1.9,4.3c-0.1,0.6-0.3,1.4-0.2,2c0.2,0.8,0,1.5-0.4,2.2
		c-0.6,0.9-0.9,1.8-0.7,2.9c0.1,0.6-0.1,1.1-0.3,1.6c-0.5,1.2-1.4,2.4-1.1,3.8c0.2,0.8,0,1.4-0.4,2c-0.6,1-0.7,2.1-0.6,3.3
		c0.1,1-0.5,2.1-0.8,3.1c-0.1,0.2-0.5,0.3-0.8,0.6c-1-2.8-2-5.5-3-8.2c-0.2-0.5-0.5-0.9-0.7-1.4c-0.2-0.5-0.4-1-0.7-1.5
		c-0.8-1.5-1.2-3-1.4-4.6c0-0.1-0.1-0.3-0.2-0.4c-1.1-1.1-1.4-2.6-1.7-4c-0.1-0.4-0.3-0.7-0.4-1.1c-0.2-0.4-0.3-0.9-0.4-1.4
		c-0.3-1.6-0.6-3.1-1.7-4.3c-0.2-0.2-0.3-0.5-0.4-0.8c-0.3-1-0.9-1.8-1.8-2.4c-0.3-0.2-0.5-0.6-0.5-0.9c-0.3-0.9-0.3-1.8-0.7-2.6
		c-0.2-0.6-0.4-1.2-0.2-1.8c0.3-1,0.3-2.1-0.1-3.1c-0.3-0.8-0.2-1.5,0.2-2.3c0.3-0.6,0.2-1.4,0.1-2.1c-0.1-1.5-0.2-2.9-0.3-4.4
		c0-0.3,0.1-0.6,0.3-0.8c0.5-1,0.3-2-0.1-3c-0.5-1.1-1-2.4-0.8-3.6c0.3-2.2-0.7-3.8-1.6-5.6c-0.6-1.2-1.2-2.4-1.6-3.7
		c-0.3-0.9-0.6-1.8-1.2-2.4c-1.1-1.2-2.4-2.3-3.4-3.6c0,0-0.1,0-0.1-0.1c-0.2-0.3-0.5-0.6-0.7-0.9c-0.2-0.4-0.3-0.8-0.6-1.1
		c-0.5-0.5-0.6-1.1-0.7-1.7c-0.3-1.5-0.9-3-1.9-4.3c-0.8-0.9-1.1-1.9-0.9-3c0.3-1.3-0.2-2.5-1-3.5c-1.3-1.6-2.8-2.8-5-2.4
		c-0.1,0-0.2-0.1-0.3-0.1c-0.7-2-0.9-4.2-2.1-6.1c-0.2-0.3-0.1-0.7-0.2-1c-0.1-0.4-0.1-0.9-0.2-1.3c-0.7-2.2-1.5-4.3-2.3-6.5
		c0-0.1-0.1-0.3-0.2-0.4c-0.5-0.7-0.6-1.5-0.6-2.3c0-1.3,0.6-2.1,1.9-2.3c1.4-0.2,2.5-0.8,3.3-2c0.2-0.3,0.7-0.6,1.1-0.8
		c1.1-0.4,2.1-1.1,2.5-2.2c0.2-0.6,0.6-0.9,1.1-1.2c1.2-0.7,2-1.8,2.7-2.9c0.5-0.8,1-1.5,1.5-2.2c1.1-1.7,2.1-3.4,3.1-5.1
		c0.1-0.2,0.1-0.4,0.2-0.6c0.3-1.5,0.6-2.9,1.8-4c0.3-0.3,0.4-0.7,0.6-1.1c1-1.6,0.4-3.7,1.3-5.3c0.2-0.4,0.4-1,0.5-1.4
		c0.2-0.6,0.5-1.3,0.4-1.8c-0.6-2,0.6-3.7,1-5.5c0.2-1.1,0.6-2.2,0.3-3.2c-0.6-2.2-0.4-4.5-1.1-6.6c-0.6-1.8-1.3-3.5-2.7-4.7
		c-0.1-0.9,0-1.9-0.4-2.6c-0.9-1.4-1.6-2.9-2.6-4.2c-0.9-1-1.6-2.3-3-2.8c-0.2-0.1-0.3-0.3-0.4-0.4c-0.4-1.8-2.1-2.5-3.5-3.2
		c-0.8-0.4-1.5-0.8-2-1.5c-0.5-0.8-1.3-1.1-2.2-1.3c-0.4-0.1-0.9-0.1-1-0.4c-0.9-1.4-2.3-2.1-3.8-2.8c-1.5-0.7-3-1.7-4.9-1.4
		c-1.4-0.7-2.9-0.7-4.4-0.7c-1.6,0-3.2-0.4-4.8-0.5c-0.8-0.1-1.5,0-2.3,0c-0.6,0-1.1,0-1.7,0c-1-0.1-2-0.5-2.8-0.3
		c-1.6,0.5-3.2,1-4.8,1.6c-1,0.4-1.8,0.7-2.9,0.6c-1-0.1-1.9,0.2-2.6,1c-0.6,0.8-1.4,1-2.3,1c-0.5,0-1,0-1.4,0.2
		c-1.3,0.6-2.6,1.2-3.8,2c-1.3,0.9-2.9,1.6-3.7,3.1c-0.1,0.2-0.4,0.4-0.7,0.5c-1.6,1-3,2.3-4.1,3.9c-1,1.4-2.4,2.5-3,4.2
		c0,0.1-0.1,0.1-0.2,0.2c-1.8,1.4-1.5,3.5-2,5.3c0,0.2,0,0.4,0.1,0.6c0.5,1,0,1.6-0.6,2.2c-0.4,0.4-1,0.9-1.2,1.4
		c-0.5,1.2-0.9,2.4-1.1,3.7c-0.3,1.9-0.6,3.9-0.7,5.8c-0.1,1.8-0.2,3.7,1.2,5.1C3,54.5,3,55,3,55.2c-0.2,2-0.8,4,0.4,5.9
		c0.2,0.3,0.1,0.7,0.2,1.1c0.1,0.5,0.3,0.9,0.4,1.4c0.5,1.3,0.9,2.6,1.4,3.9c0.3,0.7,0.6,1.5,1.1,2.1C7.2,70.3,7.7,71,7.7,72
		c0,0.4,0.2,0.8,0.4,1.2c0.9,1.5,1.8,3.1,3.1,4.3c0.3,0.3,0.6,0.5,0.8,0.9c0.7,1.4,1.7,2.1,3.3,2.2c0.9,2.1,2.6,2.8,4.6,3.3
		c0.4,0.1,0.8,0.3,1,0.6c0.7,1,1.6,1.4,2.8,1.3c0.5,0,1.1,0.1,1.5,0.4c1.7,1.4,4,1.3,5.9,2.3c0.2,0.1,0.4,0.1,0.6,0.1
		c1,0.2,2,0.3,2.9,0.6c2.5,0.6,4.9,1.1,7.4,0.1c0.6-0.2,0.9,0,0.9,0.7c0,0.8,0.1,1.5,0,2.3c-0.2,1.8,1.2,3.3,1,5.1
		c0,0.4,0.3,0.8,0.5,1.2c0.5,0.9,0.9,2,1,3c0.3,2.2,0.5,4.4,1.5,6.4c0.1,0.2,0.1,0.5,0.2,0.7c0.2,1.8,0.4,3.5,1.7,5
		c-0.8,0.4-1.4,0.8-2,1c-2.1,0.7-3,2.2-3.4,4.2c-0.1,0.3-0.1,0.7-0.2,1c-0.4,1.1-0.2,2.2,0.5,3.1c0.6,0.8,1.1,1.6,1.8,2.5
		c-0.4,0.1-0.7,0.1-0.9,0.2c-0.9,0.4-1.8,0.7-2.6,1.1c-0.6,0.3-2.3,4.5-2.2,5.2c0.1,0.9,0.2,2,0.6,2.8c0.5,0.9,0.4,1.7,0.2,2.6
		c-0.2,0.6-0.5,1.3-0.6,1.9c-0.2,1.1-0.4,2.3-0.4,3.4c0,1.2,0.5,2.4,1.6,2.9c1.1,0.5,1.5,1.4,2,2.4c-0.2,0.3-0.4,0.5-0.6,0.7
		c-1,1.2-1.1,4.8,0,6c1.1,1.2,2.4,2.4,3.7,3.4c1.2,0.9,2.7,1.2,3.6,2.5c0,0.1,0.2,0.1,0.2,0.2c1.3,0.7,2.5,1.3,3.8,2
		c0.3,0.2,0.6,0.3,0.9,0.5c0.9,0.7,1.8,1.4,2.7,2c0.3,1.5,0.5,2.9,0.8,4.5c-0.2,0.3-0.7,0.6-0.6,0.9c0.2,1.3-0.3,2.6,0.5,3.8
		c0.8,1.2,0.9,2.6,0.8,4c-0.1,1.4,0,2.7,1,3.8c0.4,0.4,0.2,0.9,0.2,1.3c-0.1,1.7,0,3.4,1,4.8c0.1,0.2,0.3,0.4,0.3,0.6
		c0.1,1.5,0.2,3,0.4,4.6c-1.6-0.4-3.2,0.1-4.7-0.5c-1.1-0.4-2.3,0.5-2.6,1.7c-0.1,0.5-0.3,0.9-0.3,1.4c0,1.5-0.2,2.9,0.8,4.3
		c0.4,0.6,0.4,1.4,0.5,2.2c0.2,0.8,0.3,1.6,0.4,2.4c0.1,0.7,0.3,1.5,0.3,2.2c0.1,1.3,0,2.6,0.1,3.9c0.2,1.9,0.4,3.9,1.4,5.7
		c0.1,0.2,0.1,0.4,0.2,0.6c0.1,1.6,0.2,3.1,0.4,4.7c0.3,1.6,0.5,3.3,1.1,4.8c0.4,1.1,1,2,1,3.2c0,0.2,0.1,0.5,0.2,0.7
		c0.3,0.7,0.3,1.4,0,2.1c-0.4,1-0.3,2,0.4,2.9c0.5,0.6,0.6,1.2,0.5,2c-0.1,1.7-0.1,3.4,1.1,4.9c0.2,0.3,0.3,1,0.1,1.3
		c-0.6,1.4-0.4,2.7,0.1,4.1c0.2,0.5,0.3,1,0.4,1.5c0.1,0.6,0.3,1.2,0.4,1.8c0.1,0.4,0.2,0.7,0.2,1.1c-0.1,2.4,0.9,4.5,1.5,6.7
		c0.2,0.7,0.5,1.4,0.4,2.1c-0.3,1.4,0.1,2.7,0.5,4.1c0.1,0.3,0.2,0.6,0.3,1c0.2,1,0.6,2,0.7,3c0.1,0.8,0.2,1.6,0.7,2.3
		c0.5,0.5,0.4,1,0.2,1.7c-0.2,0.7-0.2,1.5-0.2,2.2c0,0.5,0.1,1,0.3,1.5c0.2,0.7,0.4,1.5,0.6,2.2c0.2,0.7,0.5,1.4,0.6,2
		c0.1,0.9,0.5,1.7,1.3,2.1c0.9,0.4,1.8,0.7,2.8,0.4c0.4-0.1,0.9-0.2,1.3-0.1c0.9,0.2,1.8,0,2.7-0.2c0.4-0.1,1-0.1,1.3,0.1
		c1.5,1,3,0.9,4.6,0.5c0.6-0.2,1.2-0.3,1.8,0.1c0.9,0.5,1.8,0.4,2.8,0c0.5-0.2,1-0.3,1.5-0.2c2.7,0.6,5.3,0.2,8,0
		c0.3,0,0.6-0.1,0.8-0.2c0.6-0.2,1.1-0.2,1.7-0.1c1.3,0.3,2.5,0.5,3.8,0c0.4-0.1,1-0.1,1.3,0.1c1.1,0.6,2.2,0.8,3.3,0.5
		c0.7-0.2,1.4-0.7,2.1-0.8c0.7-0.1,1.5,0.2,2.2,0.3c1.1,0.1,2.2,0.2,3.2,0.4c1.4,0.2,2.7,0.7,4.1,0c0.6-0.3,1.1-0.3,1.8-0.1
		c2.2,0.5,4.3,1.2,6.1-0.6c0.8,0.3,1.5,0.8,2.2,0.9c1.5,0,3,0.5,4.5-0.2c0.3-0.2,0.9-0.1,1.3,0c1.7,0.3,3.5-0.2,5.2,0
		c1.4,0.2,2.9-0.1,4.4-0.2c0.8,0,1.6-0.1,2.4-0.1c1.3,0.1,2.6,0.4,3.8,0.4c1.7,0,3.3-0.4,5-0.3c1.6,0.1,3.3,0,4.9,0
		c0.1,0,0.2,0.1,0.3,0.1c1.5,0.7,3.1,0.3,4.7,0.3c0.3,0,0.6-0.1,0.8-0.3c0.9-0.8,1.6-0.5,2.5,0c1.1,0.6,2.3,0.8,3.6,0.2
		c0.4-0.2,0.9-0.2,1.4-0.2c0.6-0.1,1.1-0.1,1.7-0.2c0.5,0,1-0.1,1.4,0c1.8,0.5,3.5,1.1,5.3,0.7c0.2,0,0.4,0,0.6,0
		c2.2,0.7,3.8-0.4,5.2-2c0.2-0.3,0.6-0.4,0.9-0.6c0.3-0.2,0.7-0.2,0.9-0.4c1.2-1.2,2.9-2,3.1-3.9c1.1-0.2,1.8-0.7,2.5-1.5
		c0.7-0.8,1.4-1.5,2.3-2.2c0.7-0.5,1.5-0.9,2.3-1.4c1.1,0.6,2.2,1.4,3.4,2.1c1.8,1,3.7,1.7,5.7,1.7c1.8-0.1,3.6-0.3,5.4-0.5
		c0.2,0,0.5-0.1,0.7-0.2c2.2-1,4.5-1.6,6.7-1.3c0.7-0.5,1.3-1,1.8-1.5c0.1,0.1,0.1,0.2,0.2,0.3c0.9,0.2,1.7,0.6,2.6,0.6
		c2,0.1,4-0.8,6.1-0.4c0.4,0.1,0.8-0.2,1.3-0.3c0.3-0.1,0.7-0.2,1,0c1.2,0.5,2.4,0.2,3.7,0.1c0.8-0.1,1.6-0.3,2.3-0.1
		c1.4,0.3,2.6,0.2,3.7-0.5c0.5-0.3,1-0.2,1.6,0c0.5,0.2,1.2,0.4,1.8,0.3c1-0.2,1.9-0.3,2.8,0c0.4,0.1,0.8,0.1,1.1,0
		c0.7-0.2,1.4-0.2,2.1,0c0.4,0.1,0.8,0.1,1.1,0.1c1.3-0.1,2.7-0.1,4-0.2c0.9-0.1,1.7-0.2,2.6-0.1c2.1,0.2,4.2,0.6,6.2-0.1
		c0.1,0,0.3,0,0.4,0c1.7,0.7,3.3-0.1,5-0.1c1.2,0,2.3-0.5,3.5-0.8c0.7-1.3,2.1-0.8,3.1-1.3c0.4-0.2,0.8-0.6,1.1-0.9
		c0.4-0.5,0.8-0.9,1.5-1c0.8-0.1,1.4-0.6,2-1.3c0.9-1.1,1.5-2.4,2.7-3.3c0.4-0.3,0.5-1,0.6-1.5c0.2-0.9,0.3-1.8,0.5-2.7
		c0.1-0.6,0.3-1.2,0.3-1.8C290,256.1,290,254.3,289.9,252.4z M243.3,241.9c-0.3-1.1-0.6-2.1-0.9-3.1c-0.1-0.3,0-0.7,0.1-0.9
		c0.5-1.3,0.6-2.6-0.4-3.8c-0.1-0.1-0.3-0.3-0.3-0.5c0-1.1,0-2.3,0-3.4c0-0.5,0-1-0.1-1.6c0-0.6-0.1-1.1-0.1-1.7
		c0-0.4,0-0.8-0.1-1.1c-0.7-1.2-0.1-2.5-0.2-3.8c0.2,0.1,0.4,0.3,0.5,0.4c0.1,0.1,0.1,0.4,0.2,0.5c1,2,2,3.9,2.1,6.1
		c0,0.2,0.2,0.5,0.3,0.6c0.9,0.8,1.3,2,1.8,3c0.7,1.1,1.2,2.3,1.4,3.6c0.1,0.5,0.4,0.9,0.5,1.3c0.2,0.6,0.4,1.1,0.6,1.9
		C246.4,239.8,245.3,241.9,243.3,241.9z"/>
	<path class="st0" d="M213.2,129.4c0.1,0.2,0.3,0.4,0.4,0.7c0.7,1.3,1.8,1.8,3.2,2.1c1.6,0.3,3.1,0.8,4.7,1.3
		c0.8,0.3,1.5,0.8,2.3,1.2c1.8,1.1,3.8,1.4,5.7,1.8c0.6,0.1,1,0.4,1.3,0.9c0.8,1.5,2.2,2.2,3.7,2.8c0.5,0.2,0.9,0.4,1.4,0.7
		c0.5,0.3,1.1,0.7,1.6,0.9c0.8,0.3,1.4,0.6,1.5,1.5c0.1,0.4,0.3,0.8,0.6,1.1c1,0.8,1.8,1.7,2.6,2.6c0.9,0.9,1.8,1.8,2.7,2.7
		c0.2,0.2,0.2,0.4,0.3,0.6c0.1,0.3,0.1,0.6,0.3,0.8c1.4,1.6,1.5,3.7,2.3,5.6c0.7,1.5,0.8,3.3,2.1,4.5c0.1,0.1,0.2,0.3,0.2,0.5
		c0.5,1.3,1.1,2.7,1.5,4c0.2,0.6,0.3,1.2,0.5,1.8c0.2,0.6,0.3,1.2,0.7,1.7c0.5,0.6,0.7,1.3,0.8,2.1c0.1,0.9,0.4,1.8,1.1,2.4
		c0.1,0.1,0.3,0.3,0.4,0.4c0.5,1.3,1,2.7,1.4,4c0.3,1.1,0.8,2.1,1.6,3c0.3,0.3,0.5,0.8,0.5,1.3c0.1,2.2,1.1,4,2.5,5.7
		c0.2,0.3,0.4,0.5,0.6,0.8c0.2,0.4,0.4,0.9,0.7,1.2c1.1,1.5,2.1,2.9,1.8,4.9c-0.1,0.7,0.6,1.6,0.9,2.4c0.2,0.5,0.5,1,0.6,1.6
		c0.2,1.8,0.5,3.4,1.9,4.6c0.2,0.1,0.3,0.4,0.3,0.6c-0.2,1.8,0.8,3.4,1.2,5.1c0.3,1.2,0.5,2.4,1.7,3.2c0.2,0.1,0.3,0.5,0.3,0.8
		c0.2,2.3,1.1,4.3,1.9,6.4c0.3,0.8,0.7,1.6,0.9,2.4c0.3,0.9,0.6,1.7,1.5,2.2c0.6,0.4,0.8,0.8,0.6,1.5c-0.3,1.2,0.1,2.2,0.9,3.1
		c0.2,0.2,0.3,0.6,0.4,0.9c0.2,0.3,0.2,0.8,0.5,1c1.1,0.8,1.1,2,1.2,3.2c0,0.5,0.1,1,0.3,1.4c0.8,1,0.8,2.1,0.9,3.3
		c0,1,0.2,1.9,0.8,2.7c0.2,0.3,0.3,0.8,0.3,1.2c0.1,1.1,0.5,2.2,1.2,3c0.9,1,1,2.2,1.3,3.4c0.3,1.8,0.3,3.6,0.9,5.3
		c0.4,1.3,0.2,2.8,0,4.1c-0.3,1.5-0.9,2.9-1.4,4.4c-0.1,0.3-0.3,0.5-0.5,0.7c-0.7,0.4-1.3,1-1.6,1.8c-0.1,0.2-0.5,0.4-0.8,0.5
		c-0.7,0.3-1.4,0.4-2,0.7c-1.2,0.6-2.5,0.7-3.9,0.7c-1.6,0-3.2-0.6-4.8,0c-0.1,0.1-0.3,0.1-0.4,0c-2.1-0.6-4.3,0-6.4,0.1
		c-2,0.1-3.9,0-5.9,0c-0.8,0-1.6,0.3-2.4,0.2c-1.5-0.1-3,0.3-4.5,0.2c-1.2-0.1-2.2-0.1-3.3,0.5c-0.4,0.2-1.1,0.2-1.6,0.1
		c-1-0.2-2-0.3-3,0.1c-0.6,0.2-1.3,0.2-2,0.1c-1.5-0.3-2.9-0.2-4.4,0.1c-1.5,0.3-3.1-0.2-4.7,0.2c-1.8-0.9-3.6-0.4-5.5,0.1
		c-0.2,0-0.4,0-0.7,0c-0.5-1.4-1.2-2.7-1-4.4c0.2-2.1-2.3-4.8-4.4-5.1c-0.1,0-0.2-0.1-0.3-0.1c-0.4-0.6-0.7-1.2-1.2-2
		c2-0.2,3.6-1.1,5.2-2c0.3-0.2,0.7-0.1,1-0.2c0.7-0.3,1.5-0.5,2-1.1c1-1.1,2.2-1.4,3.5-1.3c1.3,0.1,2.3-0.3,3.3-1.1
		c0.7-0.6,1.6-1,2.6-1.1c0.7-0.1,1.4-0.4,1.9-0.8c0.5-0.3,0.9-0.6,1.6-0.6c0.4,0,0.8-0.2,1.2-0.3c1.2-0.4,2.5-0.8,3.7-1.2
		c0.8-0.3,1.5-0.8,2.3-1.1c0.6-0.2,1.3-0.4,1.9-0.5c1.2-0.2,2.3-0.7,3.1-1.7c0.8-0.9,1.6-1.7,2.4-2.5c1.5-1.4,1.5-3.2,0.1-4.7
		c-0.5-0.5-0.8-1.2-1.1-1.8c-0.2-0.4-0.4-0.8-0.6-1.1c-0.2-0.4-0.6-0.8-0.7-1.3c-0.3-1.7-1.2-3.3-1.2-5.1c0-1.1-0.7-1.9-1.4-2.6
		c-0.7-0.7-1-1.4-1.2-2.4c-0.1-0.6-0.4-1.2-0.6-1.8c-0.1-0.4-0.3-0.8-0.3-1.2c0-0.9-0.3-1.7-0.9-2.4c-0.3-0.4-0.6-0.9-0.6-1.4
		c-0.1-1.5-0.8-2.7-1.5-4c-0.8-1.3-1.5-2.7-2.2-4c-0.2-0.3-0.1-0.7-0.2-1.1c-0.1-0.6,0-1.3-0.3-1.7c-0.8-1-1-2.2-1.3-3.4
		c-0.3-1-0.9-1.9-1.5-2.7c-0.6-0.9-1.7-1.1-2.7-0.8c-0.9,0.3-1.5,1.2-1.5,2.2c0,1.9-0.1,3.7,0.1,5.6c0.2,1.9,0.7,3.8,1.2,5.7
		c0.2,0.6,0.2,1.1,0.1,1.7c-0.1,0.5-0.1,1.1,0.1,1.5c0.4,0.8,0.3,1.7,0.4,2.5c0.1,1.4,0.4,2.8,0.4,4.3c0,1.5,0.4,2.9,0.2,4.4
		c-0.2,1.4,0.1,2.9,0.4,4.4c0.2,1.2,0.1,2.5,0.9,3.6c0.1,0.1,0,0.3,0,0.4c-0.7,1.5-0.2,2.8,0.7,4c-0.6,1.2-0.8,2.5-0.6,3.8
		c0.3,1.4-0.6,2.3-2,2.5c-0.6,0.1-1.3,0.2-1.8,0.5c-1,0.7-2,0.8-3.1,0.9c-1.1,0.1-2,0.5-2.8,1.3c-0.9,0.9-2,1.5-3.5,1.4
		c-0.7-0.1-1.5,0.1-2.1,0.4c-0.8,0.5-1.6,0.7-2.6,0.9c-2.7,0.3-4.6,1.9-6.6,3.8c-1.2-1-3-0.9-4.2-2.1c-0.7-0.7-1.7-1.2-2.6-1.7
		c-0.4-0.2-0.8-0.3-1.2-0.4c-0.5-0.1-1-0.3-1.5-0.3c-0.7-0.1-1.5-0.1-2.2,0c-1.2,0.3-1.9,0.1-2.6-0.8c-0.6-0.8-1.4-1.2-2.5-1.1
		c-0.4,0-0.8,0-1.1-0.1c-1.3-0.5-2.6-0.6-3.8-0.2c-0.8-0.6-1.5-1.2-2.2-1.5c-1.6-0.6-3.3-0.7-4.7,0.5c-0.9,0.8-1.9,1.1-3.2,1.3
		c-0.6-1-1.3-2-0.8-3.4c0.2-0.5,0-1.2-0.2-1.7c-0.3-0.7-0.3-1.5-0.3-2.2c-0.1-1.8-0.3-3.7-1.3-5.4c-0.3-0.5-0.4-1.3-0.3-1.9
		c0-1,0.1-1.9-0.4-2.8c-0.1-0.1-0.2-0.3-0.1-0.4c0.1-1.5-0.4-2.8-1-4.1c0,0,0-0.1,0-0.1c0.5-2.2-0.6-4.2-0.7-6.3
		c-0.1-1.4-0.6-2.6-1.4-3.7c-0.6-0.9-1.2-1.8-0.3-2.9c0.2-0.2,0.2-0.6,0.2-0.8c-0.3-1.6-0.1-3.4-1.2-4.8c-0.3-0.4-0.4-0.9-0.4-1.5
		c-0.1-2,0-4-0.7-6c-0.3-1-0.2-2.1-0.3-3.2c0-0.2,0-0.4-0.1-0.6c-0.7-1.1-0.8-2.4-1.1-3.7c0-0.1-0.1-0.2-0.2-0.4
		c-1.1,0-2.3-0.1-3.5,0.1c-1.2,0.2-2.5,0.3-3.7-0.2c-1-0.4-2.1-0.4-3.1-0.2c-0.4,0.1-0.9,0.2-1.3,0.1c-1.4-0.4-2.8-0.1-4.3,0.1
		c-0.4,0.1-0.9,0.1-1.4-0.1c-1.4-0.4-2.7-0.4-4,0.5c-1.4,1-2.7,1.2-4.2,0.2c-0.4-0.3-1.1-0.4-1.6-0.4c-1-0.1-2.1-0.1-3.1-0.2
		c0,0-0.1,0-0.1,0c-1-1.4-2.5-0.5-3.8-0.8c-0.4-0.1-0.8,0-1.1,0c-0.5,0-0.9,0-1.2,0.6c-0.1,0.2-0.6,0.4-0.9,0.4c-1,0.1-1.9,0-2.9,0
		c-0.5,0-1,0.2-1.5,0.2c-0.3,0-0.7,0-1,0c-0.5,0-0.9,0-1.2,0c-0.5-1.2-0.9-2.3-1.5-3.4c-0.6-1.2-1.9-1.3-2.9-0.4
		c-1.6,1.7-1.7,1.8-2.1,4.2c-0.9-0.2-1.9-0.4-2.8-0.4c-0.9-0.1-1.8-0.1-2.7-0.1c-0.1,0-0.3,0.1-0.4,0.1c-4.1,0.1-8,1.3-12.1,0.8
		c-0.2,0-0.4-0.1-0.6-0.1c-0.1-0.8-0.1-1.6,0.2-2.4c0.3-1,0.6-2,1.2-3c0.4-0.6,0.3-1.5,0.4-2.2c0.1-0.5,0-1.1,0.2-1.4
		c1.1-1.2,1-2.8,1.1-4.2c0.1-0.7,0.1-1.4,0.6-2c0.7-0.8,0.7-1.9,0.6-2.9c-0.1-0.8,0-1.4,0.5-2c0.4-0.4,0.5-1,0.7-1.6
		c0.5-1.7,0.5-3.4,0.5-5.1c0-0.6,0.1-1.1,0.3-1.7c0.3-0.8,0.7-1.6,0.5-2.5c0-0.3,0.2-0.6,0.3-0.9c0.3-0.5,0.8-0.9,0.8-1.3
		c0.1-1.5,0.8-2.6,1.3-3.9c0.5-1.2,0.7-2.4,0.2-3.6c1.4-1.1,2.2-2.4,2.1-4.2c0-0.3,0.2-0.5,0.3-0.8c0.2-0.3,0.5-0.6,0.5-0.9
		c0.1-1.5,1.2-2.2,2.1-3.1c0.8-0.8,1.5-1.6,2.3-2.4c0.4-0.4,1-0.6,1.5-0.7c2.2-0.5,4.1-1.6,5.9-2.8c0.5-0.4,1.1-0.8,1.7-0.9
		c0.9-0.3,1.8-0.6,2.5-1.3c0.2-0.2,0.5-0.3,0.7-0.4c0.9-0.3,1.7-0.5,2.6-0.7c1.2-0.3,2.4-0.5,3.6-0.8c0.5-0.1,1-0.2,1.3-0.5
		c2.1-1.4,4.4-2.2,6.6-3.3c0.7-0.4,1.3-0.4,1.8,0.2c0.1,0.1,0.2,0.2,0.4,0.2c1.8,0.5,2.8,2.2,4.4,3.1c2.3,1.3,4.4,2.9,7.3,2.6
		c1.3-0.1,2.5,0.6,3.7,1.2c0.8,0.4,1.6,0.6,2.5,0.5c0.4-0.1,0.9,0.1,1.3,0.3c1.1,0.4,2.1,0.6,3.3,0.7c1.6,0.1,3.2-0.3,4.8,0.4
		c1.1,0.5,2.4,0.2,3.4-0.7c0.4-0.3,0.8-0.4,1.3-0.2c1,0.3,2.1,0.7,3.2,0.9c1.3,0.3,2.5,0.1,3.5-0.9c0.4-0.4,0.8-0.4,1.3-0.2
		c1.4,0.5,2.7,0.2,4.1-0.3c1.4-0.5,2.9-1,4.3-1.5c0.2-0.1,0.5-0.1,0.7-0.1c1.3,0.5,2.5,0,3.6-0.4c0.7-0.2,1.3-0.6,1.8-1.1
		c0.7-0.7,1.3-1,2.3-0.7c0.3,0.1,0.6,0.2,0.8,0.1c1.6-0.4,3.3-0.7,4.6-1.8c0.4-0.3,0.8-0.6,1.3-0.9C211,130.5,212,130,213.2,129.4z"
		/>
	<path class="st0" d="M60.6,198.6c0.8-0.2,1.6-0.4,2.3-0.6c0.3-0.1,0.6-0.2,0.8-0.1c1.2,0.2,2.4,0.4,3.7,0.5c0.6,0.1,1.2,0,1.8,0
		c0.8,0,1.7-0.1,2.5-0.1c0.1,0,0.3,0.1,0.4,0c1.5-0.5,3-0.3,4.5,0.1c0.5,0.1,0.9,0.2,1.4,0.2c0.8,0,1.5,0.1,2.3,0
		c1.1-0.1,2.2-0.3,3.3,0c1.2,0.4,2.3-0.1,3.3-0.8c1.2,0.9,2.5,0.9,4,0.7c1.4-0.1,2.8,0.1,4.1,0.2c1,0,2-0.1,3-0.1c1,0,2.1,0,3.1,0
		c0.4,0,0.8,0.2,1.1,0.1c2-0.6,4.1-0.4,6.1-0.6c0.3,0,0.6-0.2,1-0.2c0.2-0.1,0.5-0.2,0.7-0.2c1.2,0.2,2.4,0.4,3.7,0.6
		c0.6,0.1,1.2,0.3,1.8,0.3c1.9-0.2,3.9-0.2,5.8-1c0.3-0.1,0.7,0.1,1.1,0.1c0.7,0.1,1.5,0.3,2.2,0.3c1.1,0,2.2-0.3,3.3-0.4
		c0.2,0,0.4-0.1,0.6,0c2.1,0.8,4.1,0.5,6.2,0.1c1.4-0.3,2.7-0.4,4.1-0.6c0.4,0,0.8,0.1,1.1,0.3c0.9,0.4,1.8,0.4,2.8,0.2
		c0.9-0.2,1.8-0.3,2.8,0c0.6,0.2,1.4,0,2.1-0.2c0.6-0.3,1-0.2,1.6,0c1.4,0.6,2.9,0.9,4.5,0.2c0.4-0.2,0.9-0.1,1.4-0.1
		c1.4,0.1,2.7,0.4,4.1-0.1c0.4-0.1,0.8,0,1.3,0c0.9-0.1,1.9,0,2.7-0.3c1.1-0.5,2.1-0.5,3.2-0.4c-0.2,0.7-0.5,1.5-0.4,2.2
		c0.2,1.6,0.5,3.1,0.9,4.6c0.3,1.2,0.9,2.4,1.3,3.6c0.1,0.3,0.1,0.6,0,1c-0.2,2.3-0.1,4.6,1.8,6.4c0.3,0.2,0.3,0.8,0.3,1.2
		c0,0.7-0.2,1.3-0.3,2c-0.3,1.7,0.4,3.3,0.7,4.9c0.1,0.6,0.2,1.2,0.3,1.8c0.1,0.5,0.1,1,0.4,1.4c0.6,0.8,0.5,1.6,0.6,2.4
		c0,0.8,0.2,1.5,0.4,2.2c0,0.2,0.2,0.5,0.2,0.7c-0.2,1.4,0.3,2.6,1,3.8c0.2,0.3,0.2,0.8,0.2,1.1c-0.3,2.2,0.1,4.3,1,6.3
		c0.2,0.4,0.2,0.8,0.2,1.2c0,0.9,0.2,1.7,0.8,2.4c0.4,0.5,0.6,1,0.5,1.6c-0.2,1.1,0,2.1,0.2,3.1c0.5,2.6,0.9,5.3,1.3,7.9
		c0.1,0.5,0.2,1,0.3,1.5c0.4,1.3,0.6,2.6,0.8,3.9c0.2,1.4,0.9,2.8,1.3,4.2c0.1,0.4,0.4,0.8,0.3,1.2c-0.5,1.4-0.1,2.7,0.1,4
		c0.2,1.3,0.6,2.6,0.9,3.9c0.1,0.5,0.3,1,0.5,1.6c-0.9,0.2-1.8,0.4-2.7,0.7c-0.9,0.2-1.6,0.1-2.5-0.1c-1.3-0.2-2.7-0.5-4-0.7
		c-0.8-0.1-1.7,0.3-2.5,0.6c-0.7,0.3-1.2,0.3-1.9-0.1c-0.6-0.4-1.4-0.6-2.2-0.6c-1.3,0-2.7-0.2-4,0.4c-0.3,0.1-0.7,0.1-1,0
		c-0.9-0.3-1.8-0.3-2.7,0c-0.2,0.1-0.5,0.1-0.7,0c-0.8-0.3-1.7-0.4-2.5-0.1c-0.1,0-0.3,0.1-0.4,0c-1.5-0.7-3-0.3-4.5-0.3
		c-2.4,0-4.8,0-7.2,0.1c-1.3,0-2.7-0.3-4,0.3c-1.7-0.7-3.6,0.3-5.4-0.3c-1.5-0.5-4,0.1-5.3,0.9c-0.2-0.1-0.5-0.3-0.8-0.5
		c-0.9-0.6-1.8-0.8-2.9-0.7c-0.5,0.1-1.1,0.1-1.6,0.2c-1.2,0.2-2.3,0.3-3.6-0.1c-0.9-0.3-2.1,0-3.1,0.2c-0.9,0.1-1.8,0.3-2.7,0.4
		c-0.9,0-1.9-0.2-2.8,0.3c-0.2,0.1-0.6-0.1-0.9-0.2c-1.6-0.7-3.1-0.9-4.7,0c-0.4,0.2-1,0.3-1.4,0.2c-1.4-0.4-2.7-0.2-4,0.2
		c-0.6,0.2-1.1,0.2-1.7,0c-0.4-0.2-0.9-0.2-1.4-0.2c-0.6-0.1-1.1-0.2-1.7-0.2c-1.2,0-2.4,0-3.6,0c-0.6,0-1.2,0.2-1.8,0.3
		c-0.5,0-1.1,0-1.6-0.2c-0.9-0.4-1.9-0.5-2.8,0c-0.6,0.3-1.1,0.2-1.6,0c-1.5-0.5-3.1-0.7-4.6,0.2c-0.2,0.2-0.7,0.2-0.9,0.1
		c-1.3-0.4-2.6-0.8-3.9-0.2c-0.3-1.6-0.5-3-0.7-4.4c-0.1-0.8-0.3-1.5-0.9-2c-0.6-0.5-0.7-1-0.4-1.7c0.3-0.8,0.2-1.6-0.1-2.4
		c-0.2-0.3-0.2-0.7-0.2-1.1c-0.1-1.6-0.2-3.2-0.3-4.7c0-0.5-0.3-1-0.5-1.5c-0.5-1-0.6-2-0.7-3c-0.1-2.2,0.1-4.5-0.8-6.6
		c-0.1-0.2-0.1-0.4-0.1-0.6c-0.2-1.6-0.3-3.1-0.5-4.7c-0.1-1.1-0.4-2.2-1.2-3c-0.4-0.4-0.6-0.8-0.4-1.4c0.6-1.8,0.1-3.4-0.6-5
		c-0.3-0.6-0.4-1.2-0.2-1.9c0.4-1.1,0.2-2.1-0.6-2.9c-0.5-0.6-0.8-1.2-0.7-1.9c0-0.2,0-0.5-0.1-0.7c-0.5-1.1-0.4-2.1-0.1-3.2
		c0,0,0-0.1,0-0.1c-0.5-1.8-0.1-3.7-0.9-5.5c-0.2-0.5-0.3-1.1-0.4-1.6c0-0.1,0-0.3,0-0.4c-1.1-2.7-0.1-5.6-1.2-8.3
		c-0.5-1.2-0.9-2.4-1.2-3.7c-0.2-0.7-0.3-1.5-0.4-2.2c-0.1-0.8-0.2-1.6-0.4-2.4C60.1,200.7,60.1,199.6,60.6,198.6z"/>
	<path class="st1" d="M245.1,58.2c-0.3,0.9-0.5,1.7-0.8,2.5c-0.3,0.9-0.3,1.7,0.1,2.5c0.6,1.3,0.6,2.5,0.2,3.9
		c-0.2,0.7-0.1,1.6,0.1,2.2c0.3,0.8,0.3,1.6,0.1,2.4c-0.4,2.5-0.9,4.9-0.1,7.4c0.2,0.8,0.1,1.6-0.4,2.3c-0.5,0.7-0.6,1.5-0.6,2.3
		c0,1.1-0.1,2.3-0.3,3.4c-0.4,1.8-0.5,3.5-0.3,5.3c0,0.3,0,0.6-0.2,0.8c-1.1,1.3-0.9,2.9-1.2,4.4c-0.4,1.6-0.7,3.2-1.1,4.7
		c-0.5,2.1-1.6,4-2.3,6c-0.6,1.8-1,3.6-1.6,5.4c-0.3,1-0.7,2.1-1.1,3.1c-0.4,1.1-0.7,2.2-1.1,3.3c0,0-0.2,0.1-0.2,0
		c-1.6-1.6-3.7-2.7-5.6-3.9c-1-0.6-1.8-1.4-2.7-2.2c-0.4-0.3-0.8-0.5-1.2-0.8c-0.2-0.1-0.4-0.1-0.5-0.3c-0.6-1.6-2.3-2.1-3.4-3.2
		c-0.9-0.9-2.3-1.4-3.5-1.9c-0.5-0.2-0.8-0.4-1-0.9c-0.5-1.3-1.5-1.9-2.7-2.4c-0.7-0.3-1.4-0.6-2.2-1c0.3-0.5,0.5-0.8,0.7-1.1
		c0.6-0.8,1.5-1.4,1.9-2.3c0.7-1.4,2.1-2,3-3.3c0.2-0.2,0.5-0.4,0.6-0.7c0.5-1.6,1.8-2.9,2-4.7c0.1-0.7,0.4-1.5,0.6-2.2
		c0.1-0.3,0.5-0.7,0.7-0.7c1.2-0.2,2.1-1,3-1.7c0.4-0.3,0.9-0.6,1.5-0.8c1.1-0.4,1.9-1,2.3-2.2c0.1-0.2,0.1-0.5,0.3-0.7
		c1.3-1.2,1.4-2.9,1.7-4.5c0.2-0.8,0.2-1.6,0.1-2.4c-0.1-0.8-0.2-1.5-0.5-2.2c-0.2-0.6-0.6-1.2-1-1.7c-0.5-0.4-0.7-0.8-0.9-1.4
		c-0.4-1.6-1.5-2.4-3.1-2.4c-0.4,0-0.8,0-1.1-0.1c-1.7-0.4-1.7-0.4-3.2,0c-0.6-0.8-1.2-1.6-1.8-2.4c-0.3-0.4-0.3-0.7-0.2-1.2
		c0.2-1.1-0.1-1.8-1.1-2.3c-1.9-0.9-3.9-0.7-5.6,0.4c-0.9,0.5-1.7,0.7-2.6,0.3c-0.9-0.4-1.8-0.5-2.8-0.1c-1.4,0.5-2.7-0.2-3.8-0.9
		c-1.2-0.9-2.4-1.2-3.8-1.5c-0.9-0.2-1.7-0.5-2.5-0.9c-0.9-0.5-1.8-1.3-2.7-1.9c-1.7-1.2-2.6-2.9-3.2-4.9c-0.1-0.5-0.3-0.9-0.5-1.3
		c-0.2-0.4-0.6-0.8-0.9-1.2c0.8-1.4,0.8-2.8-0.1-4.2c-0.1-0.2-0.1-0.5-0.1-0.7c0-0.2,0.2-0.5,0.2-0.7c-0.2-1.6-0.6-3.2-0.4-4.9
		c0.1-0.6-0.5-1.2-1.3-1.3c-0.7-0.1-1.4,0.2-1.7,0.8c-0.3,0.4-0.4,1-0.5,1.5c-0.1,0.8-0.1,1.5-0.7,2.1c-0.5,0.6-0.5,1.3-0.4,2.1
		c0.1,0.4,0.2,0.9,0.1,1.3c-0.7,2.6-0.7,2.8,0.6,4.7c-0.2,1.1-0.4,2.1-0.6,3.1c-0.4,0-1,0.1-1.5,0c-2.2-0.3-2.2-0.3-4.1,0.4
		c-0.1,0-0.2,0-0.3-0.1c-1.3-2-3.3-2.3-5.4-2.4c-0.3,0-0.7,0-1-0.2c-1-0.8-2.1-1.5-3-2.4c-1-1-2-1.9-3.6-1.9c0-2.5-1.6-3.7-3.5-4.6
		c-1.1-0.5-1.8-1.2-1.7-2.5c0-1.1-0.4-2-1.3-2.6c-0.8-0.6-1.2-1.4-1.1-2.5c0.1-1.1-0.1-2-0.8-3c-0.4-0.5-0.4-1.3-0.5-2
		c-0.2-1-0.4-2-0.5-2.9c-0.1-0.9-0.1-1.9-0.3-2.8c-0.1-0.4-0.3-0.8-0.6-1.1c-0.6-0.6-1.7-0.5-2,0.2c-0.6,1.2-1.8,1.5-2.5,2.5
		c-0.3,0.4-0.6,0.8-1,1.2c-0.1,0.1,0,0.2-0.1,0.3c-1.3,0.7-1.8,2.2-2.7,3.2c-1.3,1.5-2.2,3.2-2.2,5.3c0,0.8-0.3,1.5-1,2
		c-1.1,0.8-1.5,1.8-1.4,3.2c0,0.8-0.5,1.7-0.9,2.4c-1,1.6-1.9,3.2-1.8,5.2c0,0.5-0.1,1-0.3,1.4c-0.4,0.8-0.4,1.6-0.5,2.5
		c-0.1,1.1-0.6,2.1-1.1,3.1c-0.8,1.5-0.8,3.1-0.9,4.7c0,0.4-0.1,0.8-0.3,1.1c-0.8,1.4-1.1,2.9-1,4.6c0,0.8-0.1,1.6-0.2,2.4
		c-0.3,1.5-0.7,2.9-0.3,4.4c0.2,0.8,0,1.7,0,2.6c0,1.3,0,2.7,0.6,3.9c0.1,0.3,0.1,0.7,0,1c-0.6,1.7,0.1,3.3,0.6,4.9
		c0.1,0.5,0.3,1.1,0.4,1.6c0.1,0.7,0.2,1.4,0.8,1.9c0.9,0.8,1.7,1.7,1.8,3c0,0.6,0.5,1.1,0.8,1.8c-0.3,0.1-0.5,0.2-0.7,0.2
		c-1.4,0-2.5,0.4-3.5,1.4c-0.1,0.1-0.3,0.3-0.5,0.3c-1.1,0.1-2.2,0-3.2,0.4c-1.6,0.6-3.4,0.3-5,1.1c-1.8,0.8-3.8,1.3-5.7,1.9
		c-0.3,0.1-0.7,0-1.1,0c-0.4-0.9,0.1-1.5,0.3-2.1c0.1-0.3,0.5-0.6,0.5-0.9c0.1-2.1,1.5-3.9,1.5-6c0-0.8-0.3-1.7-0.2-2.5
		c0.1-0.8,0.9-1.4,1.1-2.1c0.3-1.1,0.5-2.2,0.7-3.4c0.3-1.7,0.8-3.4,0.9-5.1c0.1-1.4,0.4-2.6,0.9-3.9c0.5-1.2,1-2.4,1.1-3.7
		c0.2-2.2,0.7-4.3,1.3-6.4c0.3-1,0.4-2,0.7-3.1c0.4-1.4,0.7-2.8,1-4.2c0.2-1.4,0.6-2.6,1.2-3.7c0.3-0.6,0.5-1.4,0.4-2
		c-0.2-1.6-0.1-3,1.1-4.3c0.4-0.4,0.6-1.2,0.8-1.8c0.3-0.7,0.4-1.5,0.7-2.1c1.2-2.3,1.5-4.7,1.5-7.4c0.3-0.2,0.7-0.5,1.1-0.9
		c0.9-0.7,1.8-1.5,2.2-2.6c0-0.1,0.1-0.3,0.2-0.4c1.2-0.9,1.6-2.4,2.5-3.6c0.9-1.1,1.6-2.3,2.5-3.4c1-1.1,2-2.2,3-3.2
		c1.1-1.2,2.3-2.3,3.7-3.2c0.8-0.5,1.4-1.4,2.2-2c0.7-0.6,1.5-1.1,2.3-1.6c0.3-0.2,0.5-0.5,0.8-0.7c0.5-0.4,1-0.7,1.5-1.1
		c0.5-0.4,1.1-0.8,1.5-1.3c0.5-0.7,1-1.2,1.9-1.3c0.5,0,0.9-0.3,1.4-0.4c0.7-0.2,1.4-0.4,2.1-0.5c1.3-0.2,3.3-1.1,4.9-2.4
		c1.1,0.7,2.3,0.6,3.6,0.4c1.1-0.2,2.3-0.2,3.4-0.2c1.6-0.1,3.2-0.2,4.7-1.1c0.7-0.5,1.6-0.4,2.3,0.1c0.8,0.6,1.6,0.7,2.6,0.5
		c1-0.2,1.8,0,2.7,0.5c0.7,0.4,1.6,0.7,2.4,0.8c1.2,0.2,2.4,0.2,3.6,0.4c0.6,0.1,1.2,0.2,1.7,0.4c1.5,0.9,3.3,1,4.9,1.6
		c0.4,0.1,0.8,0.2,1.2,0.4c0.6,0.3,1.2,0.6,1.8,0.8c1.1,0.5,2.4,0.7,3.3,1.6c0,0,0.1,0.1,0.1,0.1c0.8,0.2,1.7,0.4,2.4,0.7
		c0.7,0.4,1.3,1.1,2,1.5c1.3,0.8,2.6,1.6,3.9,2.4c0.2,0.2,0.5,0.4,0.7,0.5c1.3,0.5,2.6,1,3.9,1.5c0.4,0.2,0.9,0.3,1.1,0.6
		c1.1,1.3,2.6,1.7,4,2.4c0.7,0.3,1.3,0.7,1.9,1.2c0.5,0.4,1,0.9,1.5,1.3c0.7,0.5,1.3,1,1.7,1.9c0.3,0.5,0.9,0.9,1.4,1.2
		c0.5,0.4,1,0.7,1.6,1c0.7,0.4,0.9,0.9,1.1,1.7c0.3,1,1,2,1.6,2.9c0.7,1.1,1.8,2,2.2,3.1c0.8,1.9,2.3,3.4,2.5,5.6
		c0.1,1.2,0.8,2.2,0.7,3.5c0,0.5,0.3,1,0.6,1.4c0.6,0.8,0.9,1.6,0.7,2.7c-0.3,1.4-0.1,2.8,0.7,4c0.1,0.2,0.3,0.6,0.2,0.8
		C243.3,55.8,243.8,57.1,245.1,58.2z"/>
	<path class="st0" d="M177.8,134.3c-1.5-1.4-3.1-1.7-4.9-1.1c-0.2,0.1-0.4,0.1-0.6,0.1c-1.2-0.3-2.5-0.6-3.7-0.9
		c-0.4-0.1-0.8-0.2-1.3-0.3c-0.6-0.1-1.2-0.3-1.8-0.5c-0.4-0.1-0.8-0.3-1.2-0.4c-0.8-0.1-1.7,0.3-2.4-0.5c0,0-0.1,0-0.1,0
		c-1.7,0.8-2.8-0.8-4.3-1c-1.6-0.3-2.8-1.3-4.1-2c-0.7-0.4-1.4-0.8-2.1-1.3c0.7-0.9,1.3-1.8,2.7-1.7c0.5,0.1,1.1-0.2,1.4-0.5
		c0.7-0.6,1.4-0.9,2.3-1.1c1.1-0.2,2-0.8,2.7-1.8c0.3-0.5,0.9-0.9,1.4-1.2c1-0.6,1.8-1.4,2.3-2.5c0-0.1,0.1-0.2,0.1-0.3
		c0.1-2,1.2-4,0.4-6.1c-0.1-0.3-0.1-0.7-0.1-1.1c0.1-0.8,0.2-1.5,0.4-2.3c0.1-1-0.2-1.9-1-2.4c-1.2-0.6-2.3-1.6-3.8-1.6
		c-0.3,0-0.7-0.2-0.9-0.4c-0.8-0.9-1.9-1.3-3-1.5c-1-0.2-1.8-0.7-2.5-1.5c-0.9-0.9-2-1.7-3.2-2.2c-1.2-0.5-1.8-1.3-2.4-2.3
		c-0.3-0.5-0.7-1-1-1.5c-1-1.4-2.1-2.9-3.1-4.3c-0.7-1-1-2.1-1.5-3.2c-1-2.2-1.6-4.6-2.5-6.9c-0.1-0.3-0.2-0.6-0.2-1
		c0-1.2,0.1-2.4,0.2-3.6c0.1-1.2,0.3-2.4,0.3-3.6c0-0.9-0.1-1.8-0.2-2.7c-0.1-0.8-0.1-1.6,0.2-2.4c0.5-1.4,0.7-2.8,0.4-4.2
		c-0.1-0.3-0.1-0.6,0-0.8c1.1-2.2,1-4.5,1.3-6.8c0-0.1,0-0.3,0-0.4c0.5-1.5,0.9-3,1.6-4.4c0.8-1.5,1.1-3.1,1.2-4.8
		c0.1-1.1,0.2-2,1.1-2.8c0.8-0.7,1.1-1.7,0.8-2.7c-0.2-0.8,0-1.6,0.7-2.1c1.4-1.1,2-2.8,2.6-4.4c0.4-1.2,0.3-1.2,1.5-2.3
		c0.3,1.1,0.8,2,0.5,3.2c-0.3,1,0.3,1.9,1,2.6c0.8,0.8,1,1.7,1,2.7c0,1.7,0.7,2.9,2.1,3.6c0.8,0.4,1.2,1,1.5,1.9
		c0.1,0.3,0.2,0.5,0.3,0.8c0.7,2.9,1.4,3.7,4.4,4.6c0.1,2.2,1.6,3.2,3.3,4c1.4,0.7,2.7,1.6,4.3,1.9c0.3,0,0.6,0.2,0.7,0.4
		c1,1.4,2.6,1.5,4.1,1.8c0.6,0.1,1.3-0.2,1.9-0.4c0.6-0.2,1-0.2,1.4,0.4c0.7,1.1,1.8,1.5,3.1,1.5c0.1,0,0.3,0,0.4,0
		c1.6,0.4,3.1,0.2,4.1-1.1c0.2,0,0.4,0,0.4,0.1c1.2,1.1,2.2,2.2,3.5,3.2c1.2,0.9,2.3,2,3.9,2.3c1,0.2,2,0.9,2.9,1.5
		c1.4,1,2.8,1.5,4.5,1.5c1.7,0,3.5-0.1,5,1.1c0.9,0.6,1.9,0.5,2.9,0.2c1.5-0.4,3-0.8,4.6-0.4c0.5,0.1,0.9,0.2,1.1,0.8
		c0.4,1.1,0.9,2.1,1.8,2.9c0.3,0.2,0.4,0.7,0.5,1c0.6,1.3,1.9,1.9,3.2,1.4c1-0.4,2-0.3,3-0.1c0.8,0.1,1.6,0.4,2.6,0.7
		c-0.1,0.5-0.3,1-0.4,1.6c-0.4,1.7-1.2,3.1-2.4,4.3c0,0-0.1,0.1-0.1,0.1c-0.6,1.8-2.3,2.2-3.8,2.8c-1.3,0.5-2,1.3-2.1,2.6
		c0,1.2-0.8,2.1-1.4,3.1c-1.1,1.9-2.4,3.7-3.3,5.8c-0.1,0.3-0.2,0.6-0.4,0.7c-1.2,1-2.5,2.1-3.8,3.1c-0.8,0.6-1.6,1.2-2.1,2.1
		c-0.4,0.5-0.8,1.1-1.3,1.4c-1.3,0.8-2.6,1.5-3.9,2.3c-0.7,0.4-1.4,1-2.1,1.5c-0.2,0.1-0.4,0.3-0.6,0.4c-1.1,0.4-2.2,0.8-3.4,1.2
		c-1.1,0.4-1.6,1.2-1.7,2.4c-0.1,1.1-0.2,2.2-0.4,3.3c-0.6,2.5,0.3,4.5,2,6.3c0.6,0.6,1.3,0.9,2.1,0.8c0.8-0.1,1.3,0.2,1.6,0.8
		c0.7,1.4,1.7,2.3,3.4,2.3c0.1,0,0.2,0,0.3,0.1c1.2,0.8,2.5,1.6,3.8,2.5c-0.6,0.4-1.1,0.7-1.6,0.9c-1.1,0.4-2.1,0.9-2.7,1.9
		c-0.3,0.5-0.9,0.5-1.4,0.3c-1.9-0.5-3.6,0.1-5.1,1.1c-0.4,0.2-0.7,0.5-1.1,0.5c-1.5,0.2-3.1,0.2-4.6,0.3c-1.2,0.1-2.3,0.3-3.2,1.1
		c-0.3,0.2-0.9,0.4-1.1,0.3c-1.8-0.9-3.4-0.2-4.9,0.5C179,133.8,178.4,134,177.8,134.3z"/>
	<path class="st0" d="M18.3,77.5c-0.8-1-1.4-1.8-1.9-2.6c-0.2-0.3-0.4-0.6-0.6-1c-0.6-1.2-1.2-2.5-1.9-3.7c-0.3-0.5-0.6-1-1.1-1.3
		c-0.7-0.5-1-1-1.1-1.8c-0.1-1-0.7-1.8-1.3-2.5C9,62.8,8,60.8,7.9,58.4c0-0.4-0.1-0.8-0.3-1.1c-0.4-1-0.9-1.9-1.3-2.9
		c0.9-1.1,1.1-2.3,1.2-3.6c0.1-1.5,0.2-3.1,0.5-4.6c0.2-1.2,0.7-2.3,1-3.4c0.2-0.8,0.4-1.6,0.4-2.4c-0.1-1.1,0.3-1.9,1.1-2.5
		c1-0.6,1.6-1.5,1.8-2.7c0-0.3,0.3-0.6,0.5-0.8c0.6-0.5,0.8-1.1,1.1-1.8c0.4-1.4,0.8-2.8,2-3.9c0.9-0.8,1.7-1.9,2.5-2.8
		c0.2-0.2,0.3-0.4,0.5-0.5c2.1-1.3,4.3-2.4,6.3-3.9c1.3-1,2.5-2,4.2-1.7c0.5,0.1,1-0.5,1.5-0.8c0.4-0.2,0.7-0.7,1-0.7
		c1.7,0.2,3.1-1,4.8-0.6c0.9,0.2,1.7-0.2,2.4-0.6c0.6-0.4,1.3-0.5,2-0.3c1,0.3,2.1,0.3,3.1,0.5c0.3,0,0.7,0.1,1,0.2
		c0.3,0.1,0.5,0.3,0.8,0.3c1.5-0.2,2.9,0.4,4.3,0.5c0.7,0,1.4,0.1,2.1,0.4c1.3,0.7,2.6,1.3,3.8,1.9c0.3,0.2,0.6,0.4,0.9,0.4
		c1.2,0.3,2.3,0.6,3.2,1.7c0.3,0.4,1,0.5,1.6,0.6c0.8,0.1,1.3,0.4,1.8,1.1c0.7,1,1.3,2.1,2.6,2.6c0.1,0,0.2,0.2,0.3,0.3
		c0.7,1.7,1.8,3.1,3.1,4.4c0.1,0.1,0.3,0.3,0.3,0.5c0.2,1.5,1.2,2.5,2.3,3c0.6,2.6,1.1,5,1.7,7.4c0,0.1,0.1,0.3,0.1,0.4
		c-0.4,2.5,0.4,4.9,0.7,7.4c0.1,0.4-0.1,0.9-0.4,1.2c-0.7,0.9-0.9,1.8-1.1,2.9C73,55.7,72.8,57,71.8,58c-0.9,1-1.2,2.3-1.2,3.6
		c0,1.2-0.6,2.1-1.2,3c-0.1,0.2-0.4,0.3-0.5,0.5c-0.9,1.5-1.9,3-2.8,4.6c-0.4,0.7-0.7,1.3-1.4,1.8c-0.5,0.3-0.9,0.7-1.3,1.2
		c-1.1,1.2-1.6,2.8-3.3,3.4c-0.7,1.5-2,2.4-3.4,3.3c-0.6,0.4-0.9,1.2-1.2,1.6c-2,0.6-3.8,1.1-5.5,1.6c-1.2,0.4-2.6,0.3-3.6,1.2
		c-0.2,0.2-0.8,0-1.2,0c-0.7,0-1.3,0-2,0c-0.3,0-0.6,0.1-0.8,0c-1-0.3-1.9-0.2-2.8,0.2c-0.2,0.1-0.5,0.2-0.7,0.2
		c-1.3-0.3-2.7-0.4-3.9-0.9c-1.3-0.5-2.7-0.6-4.1-0.6c-0.4,0-0.8,0.1-1.1-0.1c-1-0.6-2.1-0.6-3.2-0.5c-0.6,0-1.1-0.1-1.6-0.5
		c-0.4-0.3-0.9-0.7-1.4-0.7c-1.1,0.1-1.7-0.5-2.3-1.3C20.4,78.6,19.3,77.8,18.3,77.5z"/>
	<path class="st0" d="M63.4,174.3c0.5-0.2,0.9-0.4,1.2-0.5c1.3-0.4,2.5-0.8,3.8-1.3c0.5-0.2,1-0.5,1.4-1c0.5-0.6,1-0.8,1.7-0.9
		c1.3,0,2.3-0.5,3.2-1.4c0.4-0.3,0.9-0.5,1.4-0.7c1.3-0.5,2.6-1,4-1.6c0.7,1.8,1.5,3.8,2.3,5.8c0.2,0.4,0.3,0.8,0.6,1.2
		c0.5,0.7,0.6,1.5,0.7,2.3c0.1,0.8,0.4,1.6,0.8,2.4c0.4,0.7,0.8,1.4,0.9,2.2c0,0.4,0.3,0.8,0.4,1.2c0.1,0.3,0.3,0.5,0.3,0.8
		c0.2,2.6,1.4,4.9,2.4,7.2c0.4,0.9,0.6,1.8,0.9,2.8c-0.6,0.4-1.1,0-1.6-0.1c-1.5-0.5-2.8-0.5-4.3,0.2c-1,0.5-2.1,0.2-3.1,0
		c-0.9-0.2-1.7,0-2.5,0c-1.6,0.1-3.2,0.9-4.9,0.3c-0.3-0.1-0.6-0.1-0.9-0.1c-1.4,0.1-2.7,0.3-4.2,0.5c-0.1-0.5-0.1-0.8-0.2-1.2
		c-0.3-1.2-0.5-2.3-0.9-3.4c-0.2-0.7-0.4-1.3-0.3-2.1c0.2-1.6-0.4-3-1.1-4.4c-0.3-0.5-0.5-0.9-0.3-1.6c0.3-1.4-0.2-2.6-0.8-3.9
		C64,176.2,63.7,175.3,63.4,174.3z"/>
	<path class="st0" d="M77.2,161.5c-0.9,0.6-1.7,1-2.4,1.5c-1,0.6-1.8,1.3-3.1,1.5c-0.7,0.1-1.5,0.6-2.1,1.1c-0.6,0.5-1.1,0.9-2,0.8
		c-0.6-0.1-1.3,0.3-1.9,0.5c-0.4,0.1-0.7,0.4-1.2,0.7c-1.3-3.5-2.9-6.7-6.2-9c0.8-0.3,1.4-0.7,2.1-0.7c2.1,0.1,3.1-1.3,4.1-2.7
		c0.4-0.6,0.7-1.4,1-2.1c0.4-0.8,0.3-1.7,0-2.5c-0.5-1.4-0.2-1.9,1-2.5c1.9-1,2.5-3.5,1.5-5.5c-0.2-0.4-0.5-0.7-0.7-1.2
		c1-1.4,1.5-2.9,1-4.8c-0.4-1.8-1-3.2-3.1-3.8c1.9-1.4,1.6-3.4,2.1-5c0.4-1.1-0.2-2.2-1.2-2.8c-0.9-0.6-1.5-1.2-1.8-2.3
		c-0.1-0.5-0.6-0.9-1-1.4c-0.3-0.3-0.7-0.5-1-0.8c-1.2-1-1.4-2.3-0.5-3.6c0.6-0.8,0.8-1.6,0.8-2.5c0-1,0.1-2,0.2-3
		c0.6,0,0.9,0.4,1,0.8c0.2,0.9,0.8,1.7,0.3,2.6c-0.1,0.2-0.2,0.6-0.1,0.8c0.5,1.6,0.7,3.3,1.9,4.6c0.4,0.4,0.6,1,0.9,1.6
		c0,0.1,0,0.2,0.1,0.3c1.1,1.2,1.8,2.8,2.8,4.1c0.3,0.4,0.7,0.9,1,1.3c0.7,0.9,1.3,1.9,2.1,2.7c0.8,0.8,1.2,1.5,1.5,2.6
		c0.4,1.8,0.5,3.7,2,5.1c0.6,0.6,0.8,1.7,0.5,2.6c-0.3,1-0.3,1.9,0.2,2.8c0.1,0.2,0.2,0.4,0.1,0.5c-0.2,1.3-0.4,2.6-0.8,3.9
		c-0.3,1-0.4,1.9,0,3c0.1,0.4,0.1,0.9,0,1.4c-0.4,1.6-0.5,3.1,0.2,4.6c0.2,0.4,0.2,0.9,0.2,1.3C76.4,159.2,76.6,160.4,77.2,161.5z"
		/>
	<path class="st0" d="M184.8,266.3c-0.4-1.8,0-2.5,1.9-2.9c1.9-0.4,3.3-1.6,4.7-2.9c0.1-0.1,0.2-0.3,0.3-0.3
		c2.3-0.9,3.3-3.3,5.4-4.4c0.5-0.3,0.9-0.8,1.3-1.3c0.4-0.5,0.7-0.8,1.3-1c1.5-0.4,1.7-0.4,2.8,1c0.4,0.5,0.9,1,1.5,1.3
		c2.1,0.8,4.1,1.7,5.9,3.1c0.9,0.7,1.8,1,2.9,1c0.8,0,1.3,0.3,1.8,0.9c0.6,0.6,1.4,1.1,2.1,1.6c0.7,1.5,1.3,2.9,2,4.4
		c0.2,0.4,0.3,0.9,0.4,1.3c0.1,0.7,0,1.3,0,2c-1,0.6-2,1.1-3.2,1c-1.1-0.1-2.2,0.5-3.4,0.2c-2-0.5-4.1-0.9-6.1-1.4
		c-0.4-0.1-0.9-0.4-1.2-0.7c-1.3-1.3-2.3-2.8-3-4.6c-0.7-2-2-3.7-4.2-4.5c-0.5-0.2-1.3-0.1-1.8,0.1c-0.6,0.2-1.3,0.6-1.6,1.1
		c-0.9,1.3-2.1,2.1-3.2,3c-0.9,0.7-1.9,1-2.6,2c-0.1,0.2-0.8,0.1-1.2,0.1C186.6,266.3,185.7,266.3,184.8,266.3z"/>
	<path class="st0" d="M56.2,115.6c-0.9,0.1-1.7,0.2-2.2-0.2c0-1.7,0-3.3,0-4.8c0-0.4-0.1-0.8-0.2-1.1c-1-2.3-1.3-4.8-2.1-7.1
		c-0.4-1.2-1.1-2.4-1.8-3.9c0.3-1.2,0.5-2.6-0.6-3.9c-0.1-0.1-0.1-0.3-0.1-0.4c0.1-2.1-1.2-3.7-1.8-5.3c1.1-0.1,2.3-0.1,3.6-0.2
		c0.4,0.2,0.5,0.8,0.5,1.4c0,0.5,0,1,0.2,1.4c0.9,2.5,1.9,5.1,2.9,7.6c0.1,0.2,0.3,0.5,0.2,0.7c-0.2,1.4,0.4,2.6,0.8,3.9
		c0.5,1.5,0.9,3,1.6,4.4c0.3,0.6,0.8,1.1,1.3,1.7C57,111.4,56.3,113.3,56.2,115.6z"/>
	<path class="st0" d="M191.7,275.5c-2.1,0.5-3.2,2.2-4.7,3.7c-0.4,0-0.7-0.3-0.5-0.7c0.6-1.3,0.3-2.6,0-3.9
		c-0.3-1.4-0.4-2.9-0.6-4.3c1.2-0.5,2.3-1,3.5-1.5c1.1-0.5,2.4-0.4,3.4-1.4c0.9-0.9,2.2-1.3,3.2-1.9c0.5,0.7,0.9,1.3,1.4,2
		c0.4,0.7,0.3,1.1-0.2,1.6c-0.5,0.5-0.9,1-1.3,1.5c-0.2,0.2-0.3,0.4-0.5,0.5c-0.9,0.8-1.9,1.6-2.7,2.5
		C192.3,274.1,192,274.8,191.7,275.5z"/>
	<path class="st0" d="M62.5,137.4c-1.3-0.1-2.6,0.2-3.8-0.5c-0.2-0.1-0.5-0.2-0.7-0.2c-1.5,0-2.8-0.8-4.2-1.2
		c-0.5-0.1-1-0.2-1.5-0.3c-0.3-0.1-0.7-0.1-0.9-0.3c-1.1-0.9-2.3-0.9-3.6-0.9c-1.2,0-1.2,0-1.5-1.1c-0.1-0.2-0.2-0.5-0.2-0.7
		c-0.3-1.2,0.3-2.7,1.4-3.3c0.1-0.1,0.3-0.1,0.4-0.1c1,0.2,2,0.3,2.9,0.5c0.4,0.1,0.8,0.4,1,0.8c0.9,1.2,2,1.8,3.5,1.5
		c0.6-0.1,1,0,1.5,0.3c0.3,0.3,0.7,0.5,1.1,0.6c1.4,0.5,2.7,1.1,3.5,2.5c0.2,0.3,0.5,0.5,0.8,0.8C62.5,136.3,62.7,136.7,62.5,137.4z
		"/>
	<path class="st0" d="M46.6,138.5c1,0.4,1.9,0.7,2.7,1c0.2,0.1,0.5,0.2,0.6,0.3c1.3,1.2,2.9,1.8,4.7,2c0.3,0,0.6,0.3,0.9,0.3
		c0.7,0.2,1.5,0.4,2.2,0.6c0.6,0.2,1.3,0.3,1.9,0.5c0.8,0.2,1.7,0.3,2.6,0.4c0,0.4-0.1,0.8-0.2,1.3c-1.3-0.1-2.5-0.1-3.7-0.2
		c-0.2,0-0.5-0.1-0.7-0.1c-1.4,0.3-2.6-0.3-3.9-0.5c-1-0.1-2-0.3-3-0.2c-1.8,0.2-3.1-0.8-4.5-1.6c-0.5-0.3-0.6-1.1-0.9-1.7
		c-0.3-0.7,0.2-1.2,0.6-1.6C46.2,139,46.5,138.7,46.6,138.5z"/>
	<path class="st0" d="M61.9,128.7c-0.5,0-0.7,0.1-0.9,0c-1.1-0.5-2-1.2-3.3-1.1c-0.2,0-0.5-0.4-0.7-0.7c-0.7-0.8-1.5-1.3-2.6-1.3
		c-0.9,0.1-1.5-0.2-1.9-1c-0.5-0.9-1.3-1.5-2.4-1.7c-0.7-0.1-0.9-0.6-1-1.2c-0.1-0.8-0.2-1.5-0.2-2.4c0.2-0.1,0.5-0.3,0.8-0.3
		c1.3,0.1,2.4,0.5,3.3,1.4c0.5,0.5,1.2,0.9,1.8,1.4c1.4,1,2.9,1.9,4,3.2c0.6,0.7,1.2,1.3,2.2,1.6C61.9,126.9,61.5,127.9,61.9,128.7z
		"/>
	<path class="st0" d="M47.6,150.9c0.1-0.4,0.2-0.9,0.4-1.3c0.6-1,0.8-1,2-0.7c1.7,0.4,3.5,0.7,5.2,1.1c0.2,0,0.4,0.1,0.5,0.2
		c0.8,0.5,1.7,0.6,2.6,0.6c0.4,0,1.1,0.3,1.2,0.6c0.2,0.5,0.1,1.2-0.1,1.6c-0.3,0.6-0.9,0.7-1.5,0.4c-1-0.4-1.9-0.2-2.9,0
		c-0.7,0.2-1.6,0-2.4-0.2c-0.8-0.2-1.5-0.3-2.2-0.1C48.4,153.6,47.7,153,47.6,150.9z"/>
	<path class="st0" d="M194.2,251.7c-0.4,0.6-0.6,1-0.9,1.3c-1.3,1.2-2.6,2.5-4.3,3.3c-0.3,0.1-0.7,0.4-1,0.6c-0.5,0.3-1,0.7-1.5,1
		c-0.9,0.5-1.9,1.1-2.9,1.6c-0.1-0.7-0.1-1.4-0.2-2.1c3.6-0.5,5.7-3,8-5.6C192.1,251.7,193,251.7,194.2,251.7z"/>
	<path class="st0" d="M182.6,253.6c-0.6-1.2-0.6-1.3,0.6-1.8c0.5-0.2,0.9-0.6,1.3-0.8c0.7-0.3,1.3-0.7,2-0.9
		c0.2-0.1,0.6,0.2,1.1,0.4C185.8,251.6,184.2,252.6,182.6,253.6z"/>
	<path d="M132.6,238c-0.1,0.5-0.2,1.2-0.3,1.9c-0.2,1-0.4,1.9-0.4,3c0,0.6-0.3,1.4-0.7,2c-0.5,1-1.3,1.8-1.4,2.9c0,0,0,0.1,0,0.1
		c-0.6,1.6-4.1,4-5.9,4.1c-0.5,0-1,0.1-1.5,0.2c-1.4,0.3-2.7,0.1-3.7-1c-0.8-0.9-1.9-1.3-3-1.6c-2.1-0.5-3.4-1.9-4.1-3.9
		c-0.3-0.7-0.5-1.3-1.1-1.7c-1.1-0.8-1.3-2-1-3.4c0.1-0.6,0.1-1.3,0.2-1.9c0.1-0.7,0.2-1.4,0.5-2.1c0.3-0.7,0.6-1.4,0.4-2.2
		c-0.2-1.2,0.3-2.3,1-3.2c0.3-0.4,0.6-0.8,0.7-1.2c0.4-1.4,1.3-2.1,2.5-2.5c1.6-0.5,3-1.1,4.4-1.9c1.3-0.7,3-0.4,4.4,0.3
		c0.2,0.1,0.5,0.4,0.6,0.6c0.3,1.2,1.2,1.3,2.2,1.6c0.6,0.2,1.2,0.5,1.6,0.9c1.4,1.8,2.9,3.4,3.7,5.6c0.3,0.7,0.6,1.4,0.9,2.1
		C132.7,237.1,132.6,237.5,132.6,238z"/>
	<path d="M167.4,88.5c1.6-0.3,3.1-0.6,4.5-0.9c0.3-0.1,0.6-0.3,0.9-0.5c1-0.6,2.1-0.5,2.7,0.3c0.7,0.9,0.6,1.9-0.3,2.8
		c-0.3,0.3-0.8,0.6-1,1c-0.9,1.9-2.7,2.1-4.5,2.4c-0.6,0.1-1.4-0.3-2-0.6c-0.7-0.3-1.3-0.5-2-0.6c-2.1-0.1-3.7-1.2-4.6-3.1
		c-0.5-1-0.3-1.9,0.4-2.7c0.7-0.8,1.6-0.8,2.5-0.4c1,0.5,1.9,1.1,2.8,1.7C167,88.1,167.3,88.4,167.4,88.5z"/>
	<path d="M162.7,76c0.7,0.7,1.3,1.2,1.9,1.7c0.1,0.1,0.3,0.2,0.4,0.4c0.8,0.9,0.9,2.2,0.3,3c-0.6,0.8-2,1.1-3,0.5
		c-1.2-0.8-2.5-1.6-3.4-2.8c-0.6-0.9-0.7-1.8-0.4-2.7c0.4-1.1,1-2.2,1.6-3.2c0.5-0.8,1.4-1.3,2.1-2c0.4-0.3,0.8-0.6,1.1-0.9
		c0.9-1,2.1-1.5,3.3-2c0.4-0.1,1-0.1,1.3,0.2c0.3,0.2,0.3,0.9,0.2,1.3c-0.5,1.3-1.1,2.6-2.3,3.5C164.7,74,163.8,75,162.7,76z"/>
	<path d="M189.1,72.8c0,2-1.3,3.3-3.3,3.3c-1.5,0-2.6-1.2-2.6-2.7c0.1-1.8,1.2-3.4,3.2-3.4C187.8,70.1,189,71.3,189.1,72.8z"/>
	<path d="M154.4,69.7c-1.7,0-2.8-1.1-2.8-2.7c0-1.4,1.8-3.2,3.2-3.2c1.5,0,2.9,1.4,2.9,2.8C157.7,68.4,156.3,69.8,154.4,69.7z"/>
	<path d="M51.5,31.8c1.9,0,3.2,0.9,4.4,2.7c0.8,1.2,1.7,2.5,2.5,3.7c1,1.4,1.7,2.8,2.4,4.4c0.2,0.5,0.3,1.2,0.3,1.8
		c-0.1,1.2,0.1,2.3,0.7,3.3c0.4,0.8,0.5,1.6,0.4,2.5c-0.2,1.7-0.1,3.5-1.1,5c-0.1,0.1-0.2,0.4-0.1,0.5c0.3,2.2-0.9,3.9-1.8,5.8
		c-0.7,1.3-1.4,2.5-2.8,3.2c-0.3,0.1-0.4,0.6-0.5,1c-0.3,1.4-1.1,2.3-2.5,2.7c-0.4,0.1-0.8,0.4-1,0.7c-0.6,0.7-1.4,1-2.3,1
		c-1.3,0-2.4,0.3-3.2,1.5c-0.3,0.5-1,0.9-1.5,1c-2.2,0.3-4.3,1.1-6.5,0.7c-0.7-0.1-1.4-0.3-2.1-0.4c-0.3-0.1-0.5-0.2-0.8-0.3
		c-2.6-0.2-4.5-1.8-6.5-3.1c-1.7-1.1-2.9-2.5-3.9-4.1c-0.2-0.3-0.5-0.5-0.9-0.7c-0.7-0.3-1.2-0.9-1.7-1.5c-0.8-1.1-1.7-2.2-2-3.6
		c-0.4-1.8-0.8-3.5-1.2-5.3c-0.1-0.3-0.2-0.6-0.2-0.8c-0.1-0.3-0.3-0.6-0.2-0.8c0.2-1.6,0.4-3.2,0.7-4.8c0.1-0.5,0.3-1,0.3-1.6
		c-0.1-2.4,0.5-4.7,2-6.6c0.8-1,1.6-1.9,1.9-3.2c0.1-0.5,0.7-1.1,1.2-1.4c0.7-0.4,1.3-0.9,1.8-1.6c0.6-1,1.6-1.5,2.8-1.5
		c0.2,0,0.6,0,0.7-0.1c0.8-1.1,2.1-1.3,3.2-1.8c1.8-0.9,3.9-1.1,5.9-1.4c0.7-0.1,1.4,0,2.2-0.2c0.7-0.2,1.5,0,2.2,0
		c0.7,0.1,1.3,0.2,1.9,0.3c1.2,0.3,2.5,0.5,3.6,1C50.3,30.1,50.8,31,51.5,31.8z"/>
	<path class="st0" d="M123,231.1c0.6,0.8,1.3,1.5,1.8,2.3c0.6,1.1,1.1,2.2,1.5,3.4c0.4,0.9,0.5,1.9,0.8,2.9c0.2,0.6,0.3,1.1-0.1,1.6
		c-0.1,0.1-0.2,0.3-0.3,0.5c-0.2,1.4-1,2.4-2,3.3c-0.9,0.8-1.8,1.2-2.9,1.2c-0.6,0-1.2,0.1-1.7,0.2c-0.7,0.2-1.2,0-1.6-0.6
		c-0.8-0.9-1.6-1.8-2.4-2.6c-0.4-0.4-0.6-0.8-0.5-1.4c0-0.6-0.2-1.2-0.3-1.8c-0.1-0.5-0.1-0.9-0.2-1.4c-0.6-2.1,1.2-3.5,1.6-5.3
		c0.9-0.8,1.4-2.1,2.8-2.4c0.3-0.1,0.6-0.1,0.8,0C121.1,231.9,122.1,231.9,123,231.1z"/>
	<path class="st0" d="M52.5,62.1c-1.1,0.2-2.1,0.9-2.7,2.1c-0.1,0.2-0.3,0.3-0.4,0.4c-0.9,0.4-1.5,1.1-1.9,1.8
		c-0.4,0.7-0.9,0.8-1.7,0.6c-0.6-0.2-1.3-0.3-1.8-0.1c-2.2,0.7-4.5-0.1-6.7,0.2c-1.9-1-4.2-0.9-5.9-2.5c-0.3-0.3-0.6-0.4-1-0.6
		c-1-0.7-1.9-1.3-2.2-2.7c-0.3-1.5-1.1-2.8-1.9-4.1c-0.8-1.3-0.8-2.7-0.9-4.1c0-0.6-0.1-1.2-0.1-1.8c-0.1-1.2-0.3-2.4-0.1-3.5
		c0.2-0.9,0.8-1.8,1.3-2.7c0.3-0.6,0.6-1.2,0.8-1.8c0.4-1.2,0.9-2.1,1.9-2.9c1.1-1,2.3-2,3.1-3.2c1-1.4,2.3-2.1,3.9-2.5
		c0.3-0.1,0.6-0.2,0.8-0.3c0.7-0.5,1.4-0.6,2.2-0.5c0.3,0,0.6,0.1,0.9,0c0.7-0.3,1.4-0.2,2,0.2c0.2,0.1,0.5,0.2,0.7,0.2
		c1.3-0.2,2.3,0.6,3.4,1c1,0.4,2,0.7,3.2,1.1c0.4,1.2,1.7,1.9,2.9,2.9c1.5,1.3,2.6,3.1,3.1,5.2c0.2,0.7,0.7,1.4,0.9,2.1
		c0.2,0.5,0.5,1.1,0.3,1.6c-0.6,1.9-0.2,3.9-0.2,5.9c0,0.5-0.1,1-0.3,1.5c-0.5,0.8-0.8,1.7-1.2,2.6C54,59,53.3,60.4,52.5,62.1z"/>
	<path class="st1" d="M154.7,75.1c-0.4,1.9-3.1,3-6,2.4c-3-0.6-5.1-2.6-4.7-4.5c0.4-1.9,3.1-3,6-2.4C153,71.2,155.1,73.2,154.7,75.1
		z"/>
	<path class="st1" d="M195.4,83.7c-0.4,1.9-4,2.8-8.1,2c-4.1-0.8-7.2-3-6.8-4.9c0.4-1.9,4-2.8,8.1-2
		C192.8,79.6,195.8,81.8,195.4,83.7z"/>
	<path d="M331.8,268.8c0.3,0.5,0.7,1,0.9,1.6c0.8,1.8,0,3.1-2,3.5c-1.6,0.3-3.2,0.8-4.7-0.3c-1.1,0.1-2.3,0.1-3.4,0.3
		c-1.2,0.3-2.2,0.3-3.3-0.3c-0.8-0.5-1.7-0.5-2.5-0.1c-1.2,0.6-2.3,0.5-3.6,0.4c-1.4-0.2-2.9-0.2-4.3,0c-2.6,0.3-5.1,0.5-7.7-0.1
		c-0.1,0-0.2-0.1-0.3,0c-3.2,1-6.4,0-9.6,0.4c-0.6,0.1-1.3-0.1-2-0.1c-0.6,0-1.1-0.1-1.7,0c-0.4,0-0.8,0.3-1.1,0.2
		c-2.5-1.1-5.1,0.3-7.6,0c-2.5-0.3-4.9-0.6-7.4-0.5c-1.9,0.1-3.8-0.3-5.7,0.3c-0.8,0.3-1.8,0.3-2.6,0.1c-2.3-0.7-4.5-0.1-6.8-0.1
		c-2.9,0-5.9,0.6-8.9-0.1c-0.8-0.2-1.7,0.1-2.6,0c-1.8-0.2-2.9-1.7-2.6-3.4c0.2-1.2,1.3-2.2,2.7-2.2c4.1,0,8.2-0.7,12.2,0.1
		c1.9-0.4,3.8,0.7,5.6-0.2c0.5-0.2,1.2-0.2,1.7-0.1c3.3,0.8,6.6,0.4,10,0.3c1.6,0,3.3-0.1,4.8-0.3c1.5-0.2,2.8,0.6,4.2,0.5
		c1.4,0,2.8-0.9,4.2-0.2c0.2,0.1,0.6,0.1,0.8,0c1.7-0.7,3.4-0.2,5.1-0.2c1.1,0,2.3,0.1,3.4-0.1c0.2,0,0.4-0.1,0.6,0
		c3,0.7,6,0,9.1,0.1c1.3,0.1,2.6,0.3,4,0.4c0.8,0.1,1.6,0.1,2.3-0.1c1.3-0.3,2.4-0.2,3.6,0.4c0.7,0.4,1.5,0.4,2.2,0
		c1.3-0.8,2.5-0.6,3.9-0.4c1.5,0.2,3,0.7,4.5-0.2c0.4-0.3,1.1-0.1,1.7,0C330,268.3,330.8,268.6,331.8,268.8z"/>
	<path d="M0.5,273.2c-0.7-1.3-0.7-2.5,0.1-3.7c0.5-0.7,1.2-1.2,1.9-1c2,0.7,4-0.1,5.9-0.2c2.1-0.1,4.2-0.4,6.2,0.6
		c0.6,0.3,1.5,0.2,2.2,0.1c1-0.2,2.1-0.2,3.1-0.1c1.7,0.1,3.4-0.1,5.1-0.2c0.8,0,1.6,0,2.3,0.2c1,0.3,1.8,0.3,2.8-0.2
		c0.8-0.3,1.7-0.5,2.5-0.4c1.5,0.3,3,0.3,4.6,0.4c1.7,0.1,3.4,0.4,5.1,0.5c0.5,0,1.2,0,1.6-0.3c1.5-0.9,3.2-0.8,4.8-0.7
		c1.5,0.1,3.1,0.2,4.5,0.6c0.9,0.2,1.6,0.4,2.4-0.1c0.3-0.2,0.7-0.3,1.1-0.3c2.3,0,4.6,0,6.8,0.2c1,0.1,1.8,0.4,2.8,0
		c0.3-0.1,0.8-0.2,1.1-0.1c1.6,0,2.9,1.3,2.9,2.9c0,1.6-1.3,3.2-2.8,2.9c-1.9-0.4-3.7-0.1-5.6,0.1c-1.3,0.1-2.7,0.1-4,0.1
		c-0.4,0-0.8,0.1-1.1,0c-2.2-1.2-4.5-0.2-6.7,0c-2.2,0.2-4.4,0.5-6.5-0.6c-0.3-0.2-0.7-0.3-1.1-0.2c-1.4,0.1-2.8,0.2-4.3,0.4
		c-2,0.2-4,0.4-6,0.6c-0.3,0-0.6,0.1-0.9,0c-2.5-1.2-5.1-0.2-7.6-0.3c-0.9,0-1.9-0.1-2.8-0.2c-1.9,0-3.8-0.1-5.7-0.3
		c-0.4,0-0.8,0.1-1.1,0.3c-1.4,0.8-3,0.6-4.5,0.6c-1.5,0-3-0.4-4.5-0.6c-0.3,0-0.6-0.2-0.8-0.1C2.9,274.7,1.7,273.7,0.5,273.2z"/>
</g>
</svg>
