<?xml version="1.0" encoding="utf-8"?>
<!-- Generator: Adobe Illustrator 25.0.0, SVG Export Plug-In . SVG Version: 6.00 Build 0)  -->
<svg version="1.1" id="_xEFF5__xEED3__x5F_4" xmlns="http://www.w3.org/2000/svg" xmlns:xlink="http://www.w3.org/1999/xlink"
	 x="0px" y="0px" viewBox="0 0 300.3 271.7" style="enable-background:new 0 0 300.3 271.7;" xml:space="preserve">
<style type="text/css">
	.st0{fill:#FDD23E;}
	.st1{fill:#FFFFFF;}
	.st2{fill:#E75A59;}
	.st3{fill:#FEFCFA;}
</style>
<g>
	<path d="M188.6,170.3c-0.4,0.9-0.7,1.7-1.2,2.4c-0.3,0.5-0.7,1-1.2,1.1c-1,0.3-1.4,0.9-1.9,1.8c-0.3,0.8-1,1.4-1.6,2
		c-2.1,1.9-4.1,3.8-6.3,5.7c-0.9,0.7-1.9,1.3-2.9,1.8c-0.5,0.3-1,0.4-1.4,1.1c-0.8,1.8-2.3,3.2-3.9,4.3c-2.4,1.7-4,3.9-6,5.9
		c-0.7,0.7-1.5,1.2-2.2,1.7c-0.8,0.7-1.3,1.4-2.1,1.9c-1.3,0.9-1.9,2.4-3.1,3.4c-1,0.9-2.1,1.6-2.5,2.9c-0.1,0.4-0.6,0.6-1,1
		c-1.1,1-1.8,2.1-1.8,3.5c0,1.1-0.7,2.1-0.8,3.4c0,4.4-1,8.7-1.7,13c-0.5,3.2-0.9,6.5-1.4,9.8c-0.1,1.2-0.3,2.4-0.7,3.6
		c-0.4,1.2-0.5,2.5-0.4,3.8c0.1,0.3-0.2,0.7-0.3,1c-0.1,0.5-0.3,1.1-0.3,1.6c-0.1,0.2,0.1,0.4,0,0.5c-1,1.6-0.4,3.4-0.9,5
		c-0.4,1.3-0.4,2.9-0.5,4.2c-0.1,1.3-0.4,2.3-1.3,2.7c-0.3,3.4-0.5,6.6-1,9.7c-0.3,2.2-0.6,2.3-2.8,2.4c-1.4,0-2.8,0-4.1-0.1
		c-1.4-0.1-2.7-0.4-3.8-1.5c-1,1.1-2.1,0.9-3.4,0.6c-1-0.3-2.2-0.2-3.2-0.2c-1.4,0.1-2.9-0.8-4.2-0.1c-0.2,0-0.4,0-0.5-0.1
		c-2-1.3-4.4-0.5-6.7-0.8c-1.6-0.2-1.6-0.1-2-1.8c-0.2-0.8-0.4-1.6-0.5-2.4c-0.1-1,0.5-2,1.6-2.5c2.3-1.2,4.6-2.3,7.1-3
		c1.5-0.5,3.1-1.1,4.8-1.8c-1.1-1-1-2-0.7-3.3c0.3-1-0.1-2.1-0.2-3.2c0-0.2-0.1-0.4-0.1-0.5c0.1-3.1-0.7-6.2-0.3-9.3
		c0.1-1.3-0.2-2.5-0.3-3.7c-0.1-2.5,0-5.1-0.1-7.8c-0.1-2-0.1-4.1-0.3-6c0-0.5,0-0.9,0.1-1.4c0.5-1.9,0.5-3.6,0.1-5.5
		c-0.2-0.7,0-1.4,0-2.3c0.1-1.5,0.7-2.9,0-4.4c-0.2-0.3-0.1-0.9,0-1.1c1-1.9,0.1-3.7,0.2-5.6c0-0.8,0-1.6,0.1-2.4
		c0-0.4,0.2-1,0.1-1.4c-0.6-1.7,0.2-3,1-4.4c0.4-0.8,0.8-1.6,1.4-2.5c0.2-0.4,0.3-0.8,0.6-1.1c1.6-1.1,2.1-2.8,2.8-4.4
		c0.7-1.6,1.6-2.8,2.9-4c0.2-0.3,0.7-0.6,0.7-0.9c0.4-1.9,1.8-2.9,3.1-4c0.2-0.1,0.5-0.3,0.6-0.6c0.8-2.4,2.5-4.3,3.9-6.3
		c1.6-2.2,3.4-4.2,5.2-6.4c0.8-1,1.6-2.1,2.5-3c1.2-1.1,2-2.5,3.1-4c-0.5-0.2-0.9-0.4-1.4-0.6c-1-0.5-1.6-1.1-1.4-2.1
		c0.9-3.5,0-6.9,0.1-10.4c0.1-2.4-0.8-4.6-0.8-7c-0.1-2.1-1-4.3-0.6-6.5c0.2-1-0.6-2-0.8-3.1c-0.3-1.1-0.5-2.1-0.8-3.2
		c-0.2-1-0.4-1.8-0.8-2.8c-0.1-0.6-0.5-1.2-0.5-1.8c-0.2-1.8-0.5-3.5-1.2-5.2c0-0.1,0-0.1,0-0.2c0.5-2.1-1-3.7-1.3-5.6
		c-0.2-0.7-0.1-1.5-0.2-2.2c-0.5-1.9-1.2-3.8-1.4-5.8c-0.1-0.7-0.7-1.2-1.6-1.3c-2.6-0.1-5.1-1.1-7.5-2.1c-0.3-0.1-0.8-0.4-1.1-0.4
		c-2.2,0.3-4.2-0.4-6.2-1.1c-0.2-0.1-0.6-0.2-0.8-0.1c-1.2,0.4-2.4-0.1-3.5-0.5c-0.5-0.2-1-0.2-1.5-0.3c-2.3-0.4-4.5-0.6-6.6-1.4
		c-0.9-0.4-2-0.3-3.1-0.4c-0.5-0.1-1.1,0-1.7-0.2c-1.1-0.5-2.2-0.8-3.5-0.8c-0.9,0-1.9-0.6-2.9-0.8c-1.9-0.3-3.8-0.4-5.5-1.4
		c-0.2-0.1-0.6-0.2-0.9-0.2c-1,0.3-2.2,0.3-3.3,0.1c-1.8-0.2-3.6-0.4-5.3-0.7c-0.7-0.2-1.3-0.4-2-0.6c-0.3-0.1-0.7-0.3-1-0.3
		c-1.7,0.5-3.3-0.5-4.9-0.5c-0.4,0-1-0.2-1.3-0.4c-0.7-0.5-1.4-0.5-2.3-0.5c-1,0-2-0.3-2.8-0.5c-1.3,0.7-2.3,1.4-3.5,1.8
		c-0.6,0.2-1.3,0.2-1.8,0c-1.7-0.7-3.3-0.4-4.9,0.2c-0.5,0.2-0.8,0.4-1.3,0.6C55.5,91,54.9,91,53.9,90c-0.3-0.2-0.4-0.5-0.7-0.8
		c-1.2-0.8-2.1-1.9-1.5-3.3c-1.1-1.2-2.2-2.2-3-3.2c-1.3-1.4-1-2.5,0.6-3.5c0.4-0.2,0.7-0.5,1-0.7c0.3-0.3,0.6-0.5,0.9-0.9
		c-0.5-0.6-1-0.9-1.8-0.8c-0.9,0.2-1.7,0.2-2.6-0.4c-0.3-0.2-0.8-0.1-1.2-0.2c-0.9-0.4-1.8-0.7-2.7-1.2c-0.6-0.4-0.9-1.1-0.7-1.9
		c0.3-1.3,0.6-2.6,1-3.8c0.2-0.8,0.8-1.1,1.6-1c1.7,0.3,3.4,0.5,5.2,0.9c2.4,0.5,4.7,0.7,6.9,1.5c3.3,0.9,6.6,1.2,9.9,1.7
		c0.8,0.1,1.6,0.2,2.3-0.4c0.3-0.2,0.9-0.2,1.1-0.1c0.7,0.5,1.4,0.4,2.2,0.2c2.7-0.6,5.6-0.7,8.4-0.9c2.3-0.1,4.7-0.5,7-0.6
		c2.3-0.1,4.7-0.1,7.1-0.1c0.5,0,1-0.1,1.5-0.1c1.3-0.2,2.7-0.5,4,0c0.6,0.2,1.2,0,1.9,0c1.1-0.2,2.2-0.7,3.4,0
		c0.1,0.1,0.4,0,0.7-0.1c0.7-0.1,1.6-0.4,2.2-0.2c2.6,0.6,5.2-0.2,7.8-0.1c2.2,0.1,4.5,0.2,6.7,0.2c0.8,0,1.6-0.3,2.4-0.4
		c0.8-0.1,1.6-0.1,2.5-0.1c1.7,0,3.6-0.5,5.4,0.1c0.8,0.2,1.8-0.2,2.7-0.4c0.9-0.2,1.8,0,2.8,0c2.9-0.1,5.8-0.3,8.6-0.5
		c0.1,0,0.3-0.2,0.5-0.3c-0.6-0.2-0.9-0.4-1.2-0.4c-1.8-0.3-3.5-0.6-5.3-0.7c-3.1-0.2-6-1.1-8.9-2c-3.1-1.1-5.6-3.2-6.9-6.4
		c-0.5-1.2-0.6-2.5,1.4-2.9c2.3-0.4,3.8-2,5-4.1c-0.9-0.6-1.6-0.3-2.4-0.2c-1.2,0.2-2.4,0.4-3.6,0.6c-0.8,0.1-1.5-0.1-1.9-0.7
		c-0.8-1.3-2.1-2.1-3.3-3c-0.6-0.6-1.7-0.9-1.8-2c-0.1-1.5,0.3-2.7,1.5-3.6c0.8-0.6,1.7-1.2,2.6-1.7c0.7-0.4,1-0.9,0.9-1.8
		c-0.2-1.6-0.3-3.2-0.4-4.8c0-0.9,0.1-1.9,0.3-2.7c0.2-1,0.1-1.9-0.7-2.5c-0.3-0.2-0.6-0.7-0.6-1c-0.2-1.1,0-2.4-0.4-3.4
		c-0.3-1-0.8-2-0.5-3.2c0.1-0.5,0-1-0.1-1.5c-0.2-2.3,0.2-4.5,1.5-6.5c0.2-0.4,0.3-0.8,0.5-1.3s0.5-0.8,0.8-1.3
		c0.2-0.1,0.4-0.3,0.5-0.4c1.5-3,4.6-3.7,7.5-4.7c2.5-0.8,4.7-0.4,7.2,0.2c0.3-0.4,0.6-0.8,1.1-1.2s0.9-0.8,1.4-1.3
		c0.9-0.6,1.7-1.2,2.6-1.7c0.2-0.1,0.2-0.3,0.4-0.3c1.8-0.4,3.3-1.5,5.3-1.6c1.2,0,2.5-0.2,3.8-0.2c3.2,0,6,1.1,8.6,2.6
		c1.3,0.8,2.5,1.9,3.7,2.8c0.8,0.6,1.4,1.3,2.2,2c0.5-1.1,0.6-2.2-0.1-3.4c-1-0.7-1.2-1.5-0.5-2.2c0.7-0.8,1.3-0.8,2.7-0.4
		c2.3,0.6,3.7,2.4,4.5,4.3c0.5,1.4,0.9,2.9,1.5,4.4c0.2,0.5,0.1,1.1,0,1.8c0.9,0,1.8,0,2.6-0.2c1.8-0.2,3.1,0.8,4.5,1.3
		c1.9,0.7,2.9,2.2,3.8,3.8c0.4,0.6,0.4,1.7,0.3,2.5c-0.2,1-1.6,1.2-2.1,0.3c-0.6-1-1.4-0.9-2.2-0.7c-1.1,0.2-2.1,0.5-3.4,0.8
		c0.4,0.3,0.5,0.6,0.8,0.7c1.2,0.7,2.3,1.5,2.9,2.8c0.2,0.5,0.8,0.8,1.3,1.1c0.9,0.8,1.7,1.6,1.8,2.9c0,0.2,0.1,0.5,0.3,0.7
		c2,2.5,1.9,5.3,0.9,8.2c-0.3,0.8-0.5,1.7-0.9,2.5c-0.6,1.7-0.8,3.5-2.4,4.8c-0.1,0.1-0.2,0.3-0.2,0.5c-0.7,2.5-2.5,4.2-4.3,5.9
		c-0.9,0.9-1.6,2.1-2.3,3.2c-0.8,1.1-1.9,1.7-3.2,1.9c-1.1,0.2-1.6,0.8-2.2,1.5c-1.3,1.5-1.9,3.5-3.6,4.8c-0.7,0.5-1.1,1.4-1.7,2.1
		c0,0.6,0.3,0.9,0.9,0.8c1.5-0.2,3-0.5,4.4-0.7c0.2,0,0.4-0.2,0.5-0.1c1.4,0.7,2.6-0.1,4-0.4c0.1,0,0.2,0,0.3-0.1
		c2.2,0.2,4.4-0.5,6.6,0.2c0.1,0.1,0.4,0.2,0.5,0.1c2.4-1,5-0.3,7.5-0.4c1.2,0,2.5-0.2,3.8-0.4c0.3-0.1,0.6-0.1,0.9-0.1
		c3.1,0,6.2,0.1,9.4,0.1c1.9,0,4-0.2,5.9-0.2c2.1,0,4.1,0.2,6.2,0.3c0.3,0,0.6,0.2,0.8,0.1c1.8-0.4,3.7-0.4,5.6-0.1
		c1.7,0.2,3.5,0.1,5.3,0.2c0.3,0,0.7,0,1,0.1c1.6,0.1,3.1,0.8,4.7,0.7c1.4,0,2.3,1,2.7,2.4c0.5,1.6,1.1,3.1,1.8,4.7
		c0.9,2.1,1.8,4.3,2.1,6.6c0.1,0.7,0.3,1.5,0.6,2.1c0.5,1.4,1.1,2.9,1.5,4.4c1,3.1,2.1,6.3,3.1,9.3c0.1,0.4,0,0.9,0.1,1.4
		c0.1,0.6,0.2,1.2,0.5,1.6c1.4,2,1.6,3.7,0.5,5.8c1.2,1.2,2.5,2.3,3.7,3.5c0.1,0.1,0.2,0.1,0.3,0.2c2.2,1.6,2.5,3.4,0.8,5.5
		c-1.1,1.2-1.8,2.8-3.5,3.6c-0.2,0-0.3,0.5-0.4,0.7c-0.4,2.1-2.1,3.1-3.5,4.2c-0.4,0.3-1.3,0.3-1.8,0.1c-1.4-0.5-2.7-1.2-4.1-1.8
		c-0.3-0.1-0.9-0.2-1.3-0.2c-0.6,0-1.2,0.2-1.8,0.1c-1.7-0.2-2-0.5-2-2.2c0-0.8-0.2-1.5-1-2.1c-2.2-1.8-2.4-3.3-1.3-5.8
		c0.2-0.5,0.4-0.8,0.6-1.4c-1.9-0.9-2.5-2.6-2.9-4.5c-0.1-0.6-0.4-1-0.7-1.6c-1-1.9-1.9-3.9-2.1-6c-0.1-0.7-0.2-1.4-0.7-2
		c-0.7-1.1-1.3-2.2-1.2-3.5c0.1-0.2-0.2-0.4-0.3-0.5c-0.5-0.7-1-1.4-1.5-2.1c-3.3-0.6-6.9,0.1-10.3,0.4c-1.3,0.1-2.7,0-4-0.1
		c-1.1,0-2.2-0.5-3.3,0.4c-0.3,0.3-1,0.1-1.7,0.2c0.3,0.8,0.6,1.5,0.8,2.2c0.7,1.5,1.2,3,1,4.7c0,0.3,0.2,0.7,0.3,1
		c0.1,0.4,0.4,0.7,0.4,1.1c0,1.9,1,3.6,1.6,5.4c0.7,2.7,1.8,5.2,2.5,7.9c0.4,1.8,1.4,3.3,1.1,5.2c-0.1,0.9,0.7,1.9,0.9,2.9
		c0.4,1.3,0.8,2.8,1.2,4.1c0.3,1,0.8,2.2,1.2,3.2c0.5,1.6,0.8,3.2,1.2,4.8c0.5,1.7,1,3.6,1.6,5.3c1.2,4.3,2.4,8.7,3,13.3
		c0.2,1.3-0.5,2.1-1.8,2.3c-0.6,0-1.1,0.1-1.9,0c0.3,0.5,0.5,0.9,0.8,1.2c0.5,0.5,1.2,1,1.8,1.4c2,1.6,4,3.1,6,4.6
		c1.2,0.9,2.3,2,3.5,3.1c0.4,0.3,0.7,0.7,1,0.9c3.1,2.7,6.2,5.1,9.2,7.9c1.3,1.2,2.5,1.5,4.2,1.4c1.9-0.1,3.7,0.1,5.6,0.3
		c1.9,0.2,3.7,0.4,5.6,0.5c2.2,0.2,4.3,0.5,6.6,0.8c3.3,0.4,6.5,0.7,9.8,1.1c0.4,0,0.8,0.1,1.2,0.2c2.7,0.7,5.4,1.3,8.3,1.1
		c2.1-0.1,4.2,0.7,6.1,1.4c0.9,0.3,2,0.1,3,0.1c0.6,0,1.3-0.2,1.9-0.1c1.6,0.2,3.1,0.5,4.6,0.9c1.4,0.3,2.3,1.3,2.3,2.8
		c0,0.2-0.1,0.4,0,0.5c1.3,2.2-0.1,4.5,0.6,6.8c-0.9,2.9-0.4,5.9-0.7,8.9c-0.3,2.8-0.7,5.6-0.9,8.4c-0.1,1-0.2,2.2-0.5,3.3
		c-0.5,2.3-3.2,3.3-5.1,2.1c-0.2-0.1-0.5-0.4-0.5-0.6c-0.3-2-2.1-3.3-2.5-5.3c-0.1-1-0.9-2-1.4-2.9c-0.6-1.2-1.3-2.5-1.9-3.7
		c-0.4-0.7-0.8-1.2-1.6-1.2c-2.2-0.2-4.4-0.6-6.5,0.2c-1.1,0.4-2.4,0.5-3.6,0c-0.7-0.3-1.4-0.3-2.1,0.2c-0.4,0.3-1.1,0.3-1.7,0.3
		c-4.5,0.2-8.9,0.5-13.4,0.6c-1.2,0.1-2.5,0.1-3.7,0c-0.3,0-0.7,0.1-1,0.1c-1.8,0.4-3.5,0.6-5.3,0.3c-0.8-0.1-1.8,0.3-2.7,0.4
		c-1.8,0.3-3.5,0.4-5.3,0c-0.3,0-0.7,0-1,0c-2.7,0.8-5.4,0.6-8.1,0.8c-1.3,0.1-2.7,0-4,0c-2.2,0-3.8-1-5.2-2.8
		c-0.7-0.9-1.4-1.9-2.7-2c-0.3,0-0.6-0.3-0.7-0.4c-2.8-2.6-6.3-4.5-8.8-7.6c-0.1-0.1-0.1-0.2-0.3-0.2c-2.3-0.8-3.9-2.8-5.7-4.3
		c-1.8-1.4-3.5-2.8-5.3-4.1c-0.7-0.5-1.2-1.5-2-2.1c-1.6-1-2.9-2.3-4.3-3.4C190.8,171.9,189.8,171.2,188.6,170.3z"/>
	<path class="st0" d="M169.7,155.9c-2.1,0.3-4.1-1-5.8,0.8c-1.4-0.6-2.5-1.4-3.9-0.6c-0.1,0-0.2,0-0.3,0c-3-0.8-6-0.2-9.1-0.1
		c-1.1,0.1-1.4-0.1-1.2-1.3c0.1-0.8,0.1-1.6,0.2-2.4c0.1-1.4,0.2-2.8,0.2-4.1c-0.1-1.6-0.4-3.3-0.5-5c-0.1-0.7,0.2-1.4,0.1-2.1
		c0-1-0.2-2.1-0.4-3.1c-0.3-1.6-0.3-3.1-0.9-4.6c-0.5-1.2-0.9-2.4-1-3.6c-0.1-0.3-0.2-0.7-0.1-1c-0.1-1.2,0-2.5-0.7-3.6
		c-0.3-0.5-0.3-1.5-0.5-2.1c-0.5-1.9-0.8-3.8-1.3-5.8c-0.3-1.4-0.4-2.9-1.4-4.1c-0.2-0.3-0.1-0.7,0-1c0-1.6-0.2-3.2-1.1-4.7
		c-0.2-0.5-0.3-1-0.4-1.4c-0.2-1.2-0.4-2.4-1.2-3.4c-0.2-0.3-0.4-0.6-0.4-0.9c-0.4-1.8-1.2-3.3-3.4-3.6c-0.4,0-0.9-0.3-1.3-0.5
		c-1.1-0.8-2.4-1.1-3.8-1c-0.4,0-0.9-0.1-1.3,0c-1.4,0.1-2.6-0.5-3.8-1c-1.3-0.4-2.7-0.5-4.1-0.7c-0.5-0.1-1.1-0.3-1.6-0.4
		c-0.5-0.2-0.9-0.5-1.5-0.6c-2.7-0.2-5.3-1.2-8-1.7c-1.3-0.2-2.7,0-3.8-0.6c-1.9-1.1-4.2-0.5-6.2-1.5c-0.8-0.4-1.9-0.2-2.9-0.5
		c-1.9-0.5-3.6-1-5.6-0.8c-0.3,0.1-0.7,0-1-0.2c-1.5-0.8-3.3-0.8-4.9-1.1c-1.3-0.2-2.5-0.5-3.7-0.8c-0.7-0.2-1.4-0.1-2.1,0
		c-0.3,0-0.7,0.2-0.8,0c-1.5-1-3.2-0.6-4.7-0.9c-0.5-0.1-1.1-0.2-1.6,0c-1.1,0.4-2,0.1-3-0.8c0.1-3.4,0.3-7,0.5-10.6
		c1.5-0.1,3-0.1,4.4-0.1c1.7-0.1,3.5-0.1,5.2-0.2c0.6,0,1.3,0.1,1.9,0.1c2.4-0.2,4.9-0.4,7.5-0.6c2.6-0.2,5.2-0.6,7.8-0.2
		c0.4,0,0.9,0.2,1.2,0c1.7-0.6,3.3-0.5,4.9,0c0.1,0,0.1,0,0.2,0c2.1-0.9,4.3,0.4,6.4-0.6c0.2-0.1,0.5,0,0.8,0c2.2,0.3,4.4,0.2,6.6,0
		c2.2-0.2,4.5,0,6.8-0.1c2.8,0.1,5.6,0.5,8.3-0.5c0.3-0.1,0.6,0.1,1,0.1c1.5,0.1,3,0.5,4.4,0c0.1,0,0.2,0,0.3-0.1
		c1.9,0,3.8-0.1,5.7-0.1c0.4,0,0.9,0.2,1.5,0.4c0.4,1.7,0.8,3.3,1.2,5c0.1,0.6,0.4,1,0.7,1.6c0.6,1.2,1.2,2.4,1.8,3.5
		c0.5,0.8,1.1,1.6,2.1,1.7c0.9,0.1,1.6-0.7,2-1.4c0.7-1.1,1.2-2.3,2.2-3.3c0.7-0.7,0.8-1.7,1.3-2.6c0.3-0.7,0.7-1.3,1.1-2
		c0.9,0.6,1.6,1.1,1.7,2.1c0.1,0.3,0.3,0.5,0.6,0.8c1.3,1.5,2.8,3,3.6,4.9c0.5,1.1,2,1.2,2.7,0.2c1.2-1.7,2.6-3.5,3.7-5.3
		c1.4-2.3,2.7-4.5,4-6.8c0.3-0.7,0.7-1.5,0.9-2.3c0.5-1.4,1.3-1.8,2.8-2.1c2-0.5,4.2,0.3,6.1-0.7c0.1,0,0.3-0.1,0.3-0.1
		c2.4,1,4.8,0.2,7.1,0.2c1.2,0,2.4,0.2,3.6,0.2c3.6,0,7.2-0.1,10.7-0.3c1.9,0,3.9,0.1,5.9,0.1c2-0.1,4.2-0.2,6.2-0.2
		c1.1-0.1,2.2,0.1,3.2,0.2c3.4,0.2,6.9,0.3,10.3,0.5c0.5,0,1.1-0.2,1.9-0.3c0.1,0.1,0.4,0.4,0.7,0.5c0.8,0.5,1.1,1.2,1.1,2.2
		c0,0.7,0.1,1.7,0.6,2.1c1.4,1.1,1.6,2.8,2.1,4.2c0.5,1.1,0.8,2.3,1.2,3.4c0.3,1,0.5,2.1,0.8,3.2c0.2,0.9,0.6,1.6,0.8,2.5
		c1.1,3.4,2.2,7,3.2,10.5c0.1,0.4,0.5,0.7,0.6,1c0.2,0.5,0.3,1,0.3,1.5c0.1,0.7,0,1.3,0,2.3c-0.6,0.6-1.6,1.2-2.6,1.2
		c-2.8,0.2-5.3,1.4-8.2,2.2c-0.5-1.2-1.2-2.4-1.7-3.6c-0.8-2.1-1.4-4.2-2.8-6c-0.6-0.8-0.7-1.9-1.1-2.8c0-0.2,0-0.4-0.1-0.5
		c-1.2-1.1-1.4-2.5-1.7-4c-0.1-0.6-0.4-1.1-0.5-1.8c-0.1-0.9-0.7-1.5-1.4-1.5c-1.4-0.1-2.7-0.4-4.1,0c-1.5,0.3-3.1,0.3-4.6,0.4
		c-3,0-6.1-0.4-8.9,0.7c-0.2,0-0.5,0.1-0.6-0.1c-1.1-0.8-2.2-0.2-3.4,0.1c-0.6,0.1-1.2,0.3-1.8,0.4c-1,0.2-1.5,1-1.2,1.9
		c0.6,2.1,1,4.4,1.9,6.4c0.9,2,0.9,4.3,2.2,6c0,0.1,0.2,0.3,0.1,0.3c-0.5,1.8,0.8,3.2,1,4.8c0.3,1.7,0.9,3.3,1.2,4.8
		c0.4,1.3,0.8,2.8,1.2,4.1c0.2,0.9,0.5,1.7,1,2.5c0.5,0.9,0.6,2,0.8,3.1c0.3,1.3,0.7,2.5,1,3.9c0.2,0.9,0.4,1.8,0.6,2.7
		c0.6,1.9,1.1,3.8,1.7,5.9c0.5,1.5,0.7,3.1,1.2,4.7c0.9,3.5,1.9,6.9,2.9,10.4c0.1,0.6,0.3,1.2,0.4,2c-1,0.1-1.8,0.1-2.5,0.3
		c-2.8,0.7-5.6,1.5-8.3,2.2c-1.8,0.4-3.8,0.5-5.6,0.9c-1.1,0.3-2.2,0.6-3.2,1.1c-1.8,0.7-3.8,0.2-5.6,0.7c-1.5,0.5-3.1,0.6-4.7,0.9
		c-0.5,0.1-0.9,0.5-1.4,0.6c-0.9,0.3-1.6,0.5-2.5,0.6c-0.7,0.1-1.2-0.2-1.7-0.9c-0.7-1.1-1.4-2-1.9-3.3c-0.3-0.8-1.1-1.3-1.6-2
		c-0.5-0.6-0.8-1.2-1.1-2c-0.5-1.5-1.7-2.5-2.8-3.5c-1-1-1.8-0.7-2.4,0.6c-0.5,1.2-1.3,2.2-1.1,3.5c-1,1.3-0.2,3-1.1,4.4
		c-0.2,0.1-0.2,0.5-0.2,0.7C170.9,153.9,170.3,154.9,169.7,155.9z"/>
	<path class="st1" d="M140,256.8c-0.8,0-1.6,0.3-2.2,0c-2.5-1.1-5.2-0.2-7.7-1.2c-0.2-0.1-0.4-0.1-0.7,0c-1.5,0.5-2.9,0-4.5-0.6
		c-0.1-1.1,0.1-2.3-0.1-3.5c-0.3-3.2,0.1-6.4-0.4-9.7c-0.1-0.9,0.2-2,0.1-2.9c-0.4-2.8,0-5.7-0.2-8.5c-0.2-1.8,0.1-3.6,0.2-5.5
		c0-0.8-0.3-1.6-0.3-2.4c0-1.4,0-3,0.1-4.4c0-0.9,0.1-1.8,0.1-2.7c0.1-1.5-0.7-2.8,0.1-4.2c0.2-0.5-0.1-1.2-0.1-1.8
		c0-0.8-0.2-1.7-0.1-2.5c0.3-2.4,0.8-4.9,0.4-7.4c-0.1-1,0.1-2,0.7-2.8c0.9-1.1,1.5-2.2,2-3.6c0.4-1,1.3-1.9,2-2.7
		c1.2-1.2,2-2.6,2.5-4.1c0.1-0.3,0.2-0.9,0.6-1.1c1.7-1,2.2-2.7,2.9-4.4c0.1-0.2,0.3-0.6,0.4-0.7c2.5-1.8,4.1-4.3,6-6.7
		c1.4-1.8,2.5-3.8,4.1-5.5c1.2-1.4,2.3-2.8,3.3-4.5c0.3-0.5,1-0.7,1.4-1.2c0.7-0.9,1.3-1.8,2.3-3c1,0.1,2.6,0.2,4.2,0.3
		c0.5,0,1,0.1,1.5-0.1c0.8-0.3,1.4-0.1,2.1-0.1c0.9,0.1,2-0.3,3.3-0.5c1,0.9,2.6,0.8,4,0.6c1-0.1,2.1-0.3,3.1-0.4
		c0.7-0.1,1.4-0.3,1.5-1c0.5-2.1,1.6-4.1,1.5-6.3c0-0.2,0-0.4,0.2-0.7c0.3-0.8,0.7-1.6,1-2.5c0.6,0.5,1.2,1.1,1.4,1.9
		c0.3,1.3,0.9,2.4,1.8,3.3c0.3,0.2,0.4,0.7,0.5,1c0.4,0.6,0.6,1.2,1.1,1.7c1.3,1.5,2.8,2,4.8,1c0.6-0.2,1.2-0.4,1.9-0.3
		c2.7,0.4,5-0.8,7.5-0.9c0.7-0.1,1.6-0.3,2.1-0.6c1.1-0.7,2.3-0.6,3.5-0.7c2.5-0.1,4.7-0.5,7-1.3c0.9-0.3,1.8-0.4,2.7-0.6
		c0.9-0.2,1.9-0.2,2.7-0.5c1.5-0.7,2.5-0.4,3.8,0.8c1.7,1.6,3.4,3.2,5.5,4.3c1,0.6,1.7,1.6,2.5,2.4c1.4,1.1,2.8,2.2,4.2,3.3
		c0.3,0.2,0.6,0.6,0.9,0.8c2.4,2.2,4.6,4.5,7.1,6.6c1.3,1.1,2.8,2.1,4.2,3c0.4,0.2,0.7,0.3,1.1,0.4c1.1,0.2,2.2,0.2,3.3,0.4
		c3.1,0.2,6.4,0.4,9.5,0.6c3.2,0.3,6.5,0.7,9.8,1.3s6.5,0.7,9.8,1.1c2.2,0.2,4.3,0.5,6.6,0.8c1.3,0.2,2.7,0.4,4.1,0.7
		c0.3,0.4,0.5,0.9,0.3,1.6c-0.4,0.9-0.4,2.1-0.5,3c-0.1,1.7-0.1,3.4-0.3,5.1c-0.2,1.1-0.4,2.2-0.7,3.2c-0.1,0.3-0.6,0.6-0.9,0.7
		c-1.9,0.2-3.7,1.1-5.6,0.6c-0.2-0.1-0.3-0.1-0.5,0c-2.6,1.3-5.3,0-8,0.3c-3.5,0.4-7.1,0.4-10.6,0.7c-1.2,0.1-2.5,0.3-3.8,0.4
		c-0.3,0.1-0.6,0-0.8,0c-1.8-0.3-3.6-0.1-5.4,0.5c-1,0.3-2.1,0-3.1-0.1c-1.6,0-3.3,0.2-4.9,0.9c-0.8,0.3-1.6,0.2-2.4,0.2
		c-2.1,0-4.2,0-6.3,0c-1.6,0-3.4,0.1-4.7,0.1c-1.1-0.8-2-1.4-2.8-2c-0.9-0.6-2-1-2.4-2.2c-0.1-0.3-0.4-0.5-0.7-0.8
		c-3.2-2.1-5.7-5-9.2-6.8c-0.2-0.1-0.4-0.5-0.6-0.8c-0.2-0.3-0.4-0.6-0.6-0.8c-1.4-1-2.7-2-4-3.1c-1.1-0.9-2.2-1.8-3.4-2.7
		c-1.2-0.8-2.1-2.1-3.7-2.5c-0.9-0.3-1.8-1.1-2.4-1.9c-1.1-1.5-2.8-2.2-4.1-3.5c-0.9-0.9-2-1.7-3.5-1.8c-1-0.1-1.8,0.2-2.4,1.2
		c-0.8,1.3-2.1,2.4-2.7,4c-0.1,0.2-0.5,0.4-0.8,0.6c-1.1,0.5-2.1,1.1-3,2c-2,1.9-4.2,3.7-6.2,5.7c-0.8,0.7-1.4,1.7-2,2.6
		c-0.4,0.6-0.7,1-1.4,1.1c-1.8,0.6-3.3,2-4.5,3.4c-1.8,2.2-4.2,3.7-6.1,5.6c-0.7,0.8-1.5,1.7-2.2,2.5c-0.7,0.7-1.4,1.4-2.1,2
		c-1.1,1.1-2.2,2.1-3.2,3.1c-1,1.2-1.6,2.5-3.1,3.2c-1.1,2-3.2,3.4-3.3,5.9c0,0.3-0.2,0.8-0.1,1c0.4,0.9,0.1,1.7-0.1,2.5
		c-1.2,4.3-1.5,8.7-2.2,12.9c-0.5,3.2-1.2,6.4-1.7,9.7c-0.2,1.4-0.3,2.8-0.4,4.3c-0.1,0.9-0.3,1.8-0.5,2.7c0,0.3-0.3,0.7-0.2,1
		c0.2,1-0.2,1.8-0.2,2.7c0,1.2-0.1,2.5-0.4,3.7C140,252.9,140.1,254.7,140,256.8z"/>
	<path class="st1" d="M135.2,24.8c-1.8-1-1.4-2.9-2.2-4.2c-0.1-0.2,0-0.6,0-0.8c0.5-1.2,0.2-2.3-0.1-3.4c-0.1-0.3-0.4-0.8-0.6-0.9
		c-0.4,0-1,0.2-1.2,0.5c-0.6,1.1-1.4,2.1-1.1,3.1c-1.1,1-2.2,1.6-3,2.7c-0.7,0.9-1.3,2-1.8,3.1c-0.1-0.1-0.2-0.1-0.3-0.1
		c-0.1-0.3-0.1-0.6-0.1-0.9c0-0.4,0.2-1,0.1-1.4c-0.7-2.8,0.8-5.3,1.1-8c1-0.7,1.1-2,2.1-2.7c1-0.6,1.5-1.8,2.7-2.4
		c2.4-1.3,4.8-1.9,7.5-1c2.4,0.9,4-0.5,5.5-1.8c0.9-0.7,1.5-1.4,2.6-1.4c0.3-0.1,0.6-0.1,0.9-0.3c2.7-1.7,5.5-1.6,8.4-1
		c2.1,0.3,4,1,5.8,2.2c1.2,0.8,2.3,1.9,3.4,2.9c1.1,1.1,2.2,1.8,3.6,1.5c0.1,0.4,0.2,0.7,0.3,1c0.7,1.1,1.9,1.2,2.5,0.1
		c0.5-0.8,1.2-1.7,1-2.9c-0.1-0.4,0.1-0.9,0.1-1.5c1.1,0.7,1.6,1.5,1.2,2.7c-0.1,0.3-0.1,0.8,0.1,1.2c0.4,0.7,0.2,1.3,0.1,2
		c-0.4,1.1-0.1,1.9,0.6,2.3c0.8,0.4,1.7,0.5,2.4-0.2c0.8-0.7,1.7-0.8,2.5-0.6c0.9,0.2,1.7,0.4,3,0.7c-1.2,0.5-2.1,0.8-2.9,1.2
		c-1.4,0.6-2.5,2.9-2,4.3c0.2,0.6,0.9,1,1.5,1.4c1.4,1,2.7,1.9,4.1,2.9c0.2,0.1,0.3,0.5,0.6,0.9c0.4,0.6,0.6,1.3,1.1,1.8
		c1.4,1.2,1.4,2.8,1.4,4.4c0.1,2.6-0.6,5.2-2.2,7.4c-0.3,0.5-0.5,1-0.8,1.5c-0.4,0.8-0.9,1.5-1.4,2.4c-0.4,0.7-1.2,1.2-1.4,2
		c-0.8,2.4-2.5,4-4.2,5.5c-0.4,0.3-0.8,0.7-1.3,1.1c-1.3-0.8-2.7-1.6-4.1-2.5c-0.6-0.4-0.6-1.1,0-1.6c1.4-1,1.6-2.4,1.3-4
		c0-0.1-0.1-0.3-0.1-0.3c0.7-2.2-1-3.4-2.1-4.9c-0.8-1.1-2-0.9-3.1-0.9c-1-0.1-2.1,0.2-3.1,0.3c-0.4,0.1-0.7,0.5-1.1,0.8
		c-0.2,0.1-0.4,0.6-0.6,0.6c-1.5,0.2-2.1,1.5-3,2.7c-0.7-0.2-1.2-0.3-1.9-0.5c-0.1-0.4-0.3-0.7-0.2-1c0.1-1,0.2-2,0.4-3.1
		c0.1-2-0.5-3-2.2-3.9c-2.5-1.3-4.9-2.5-7.2-4.2c-1.2-0.8-2.2-2.2-3.3-3.3c-0.7-0.7-1.2-1.4-1.8-2.1c-0.3-0.4-0.5-0.9-0.6-1.4
		c-0.4-1.1-0.7-2.3-1.2-3.4c-0.4-1-1.3-1.1-2.2-0.4c-1.4,1.2-2.4,2.7-2.8,4.6C135.8,23.9,135.4,24.4,135.2,24.8z"/>
	<path class="st1" d="M167.9,46.9c-1.5,0.6-1.5,2-1.7,3.3c-0.1,0.8,0.3,1,0.9,1.4c1.4,1,2.7,1.9,4.1,2.8c-1.2,1.3-2.6,3.1-4.1,4.7
		c-0.8,0.8-1.8,1.5-2,2.7c-0.1,0.5-0.2,1.1-0.1,1.7c0,0.3,0.1,0.7,0,1c0.3,1.8-0.7,2.8-2,3.6c-0.5,0.3-1.1,0.7-1.5,1.2
		c-1.4,1.6-2.5,1.8-4.4,1.3c-1.2-0.4-2.6-0.8-3.8-1c-1-0.2-1.3-0.6-1.5-1.4c-0.2-0.9,0.1-2-0.9-2.6c-1.3-0.6-2.5-1.2-3.8-1.5
		c-1-0.3-2,0.1-3.1-0.1c-1.3-0.1-2.5-0.4-3.7-0.7c-0.8-0.1-1.5-0.4-2.4-0.5c-2.6-0.3-5.1-0.8-7-3.1c-0.4-0.5-0.8-1.1-1.1-1.6
		c0.4-0.3,0.8-0.5,1.2-0.7c2.2-1.1,3.5-3,4.2-5.3c0.7-2.1-0.3-3.2-2.5-3.2c-1.3,0-2.7,0.1-4.2,0.2c-1,0-1.9-0.1-2.3-1.1
		c-0.2-0.4-0.6-0.6-1.1-0.7c-1.1-0.3-2-1-2.9-1.9c0.5-0.5,0.9-1.1,1.4-1.5c1-0.7,1.9-1.4,2.9-2.1c0.7-0.6,0.9-1.2,0.8-2.1
		c-0.2-2.3-0.5-4.6-0.6-6.8c0-0.1,0.1-0.2,0-0.3c0.4-2.1,0.3-4.3,1.3-6.2c0.2-0.4,0.2-0.9,0.3-1.3c0.3-1,0.6-1.9,1.8-2.5
		c0.3,1,0.7,1.9,1,2.8c0.4,1.8,2.9,4.5,4.4,4.8c1.2,0.3,1.7,0,2.1-1.2c0.3-1.3,0.5-2.6,0.8-3.9c0.2-0.7,0.5-1.4,0.7-2
		c0.1,0,0.3,0,0.4,0c0.3,0.9,0.6,1.8,1,2.6c0.2,0.5,0.3,1,0.5,1.4c0.9,1.4,2,2.7,3.4,3.6c0.5,0.3,0.9,0.6,1.2,0.9
		c1.4,1.7,3.5,2.5,5.3,3.6c0.5,0.3,1,0.5,1.6,0.6c0.8,0.1,1.3,0.6,1.2,1.5c-0.1,1.3-0.2,2.5-0.4,3.8c-0.3,2,0.1,3,2.2,3.6
		c0.9,0.3,1.9,0.4,2.8,0.6c0.2,0.1,0.6,0.2,0.8,0.3c1.1,0.7,1.2,0.6,1.8-0.4c0.6-1,1.2-2,1.9-2.8c1-1.1,2.4-1.3,3.7-1.2
		c1.1,0,1.9,1.6,1.6,3c-0.1,0.5-0.3,1-0.4,1.5C167.9,45.9,167.9,46.4,167.9,46.9z"/>
	<path class="st0" d="M295.5,207.1c-0.7,0.2-0.9-0.1-0.9-0.6c0.2-1.1-0.3-1.9-0.9-2.8c-0.9-1.5-1.6-3.1-2.4-4.7
		c-1-1.7-1.9-3.7-3.2-5.1c-1.4-1.6-1.3-3.3-0.9-5.1c0.2-0.9,0.2-1.9,0.4-2.8c0.4-1.4-0.3-2.9,0.6-4.4c0.3-0.5,0.1-1.3,0.2-2.1
		c1,0.2,1.8,0.3,2.7,0.5c0.5,0.1,1.2,0.3,1.7,0.2c1.6-0.4,2.9,0.4,4.2,1.4c-0.1,1.6-0.3,3.2-0.5,4.9c-0.1,0.2-0.1,0.3-0.1,0.5
		c0.6,3-0.4,5.9-0.4,8.9c-0.1,2.6,0.4,5.3-0.2,8C295.8,205,295.6,205.9,295.5,207.1z"/>
	<path class="st0" d="M112.2,266.3c0.4-0.4,0.6-0.9,0.9-0.8c2.4-0.4,4.2-1.6,6.4-2.6c1.3-0.6,2.6-1.1,3.9-1.7
		c0.7-0.4,1.5-0.7,2.2-1.1c0.5-0.3,0.9-0.8,1.2-1.2c3.8,0.3,7.5,0.8,11.3,1.2c0.3,2.8-0.7,5.7-1,8.7c-2.5-0.4-4.8-1-7.2,0.1
		c-0.9-1-2-1.2-3.4-0.9c-1,0.1-2-0.1-3-0.2c-2.4-0.1-4.7-0.7-7.2-0.3C114.9,267.5,113.7,266.6,112.2,266.3z"/>
	<path class="st1" d="M67.4,75.5c0.9,1.4,0,3-0.1,4.5c0,0.8-0.1,1.8,0,2.6c0.1,2.2-1.9,4.1-4.2,3.7c-1.9-0.4-3.6-0.2-5.4,0.7
		c-0.6,0.4-1.3,0.8-2.2-0.2c0.9-0.5,1.8-0.9,2.7-1.5c1.3-0.7,2.6-1.3,3.7-2.1c2-1.3,1.4-2.6-0.1-4.1c-0.5-0.5-1-0.8-1.4-1.5
		c-0.5-1-1.5-1.1-2.3-0.2c-0.5,0.5-1,0.7-1.5,1c-0.8,0.3-1.5,0.9-2.1,1.4c-0.6,0.5-0.5,1.4,0.1,2c0.4,0.5,0.8,0.9,1.3,1.4
		c-1.5,0.9-1.8,0.8-2.7-0.2c-0.7-0.7-1.3-1.4-2-2.3c0.7-0.4,1.2-0.7,1.6-1c0.5-0.4,1.1-0.8,1.4-1.2c0.4-0.6,0.7-1,1.4-1.2
		c1-0.5,1.1-1.5,0.1-2.2c-0.6-0.4-1.3-0.7-1.9-0.7c-1.6,0-3.3-0.1-4.8-0.9c-0.3-0.1-0.8-0.1-1.2-0.1c-0.6-0.1-1.4-0.1-2.2-0.2
		c0.2-0.7,0.2-1.2,0.3-1.9c3.5,1.5,7.1,1.7,10.7,2.3C60.1,74.2,63.6,74.8,67.4,75.5z"/>
	<path class="st1" d="M243.1,111.3c0,0.6,0.1,1.1,0,1.7c0,1.1,0.4,1.8,1.3,2c1,0.2,1.8-0.4,1.9-1.6s0.5-2.3,0.4-3.4
		c-0.1-2.6-1.6-3.9-4.2-3.5c-0.8,0.1-1.2,0.6-1.4,1.4c-0.5,1.8-1.1,3.5-1.7,5.3c-0.1,0.3-0.3,0.8-0.6,0.9c-0.6,0.1-0.7-0.3-0.9-0.8
		c-0.2-0.5-0.5-0.9-0.9-1.2c-1.4-1.6-1.2-3.1,0.3-4.6c0.8-0.8,1.7-1.6,2.5-2.3c0.2-0.3,0.5-0.3,0.9-0.5c1-0.3,2.1-0.6,3-1
		c1-0.4,1.8-0.6,2.8,0.4c1.1,1.2,2.3,2.1,3.5,3.3c0.4,0.4,0.7,0.9,1.3,1.4c-0.5,0.7-1,1.5-1.6,2.1c-0.5,0.7-1.4,1.4-1.4,2.5
		c0,0.2-0.2,0.4-0.4,0.5c-0.6,0.6-1.2,1.2-1.5,1.8c-0.4,0.5-0.8,0.7-1.3,0.6c-1.1-0.3-2.3-0.5-3.4-0.8c0.4-1.3,0.8-2.8,1.2-4.2
		C242.9,111.3,243.1,111.4,243.1,111.3z"/>
	<path class="st1" d="M161.4,74c0.4-1.2,1.2-1.6,1.9-2.1c1.2-0.8,2.1-1.8,3.2-2.8c0.2-0.1,0.3-0.5,0.6-0.6c0.9-0.9,1.8-1.8,3.4-1.5
		c1.1,0.2,2.2-0.1,3.4-0.2c0.1,0,0.1,0.1,0.4,0.2c-3.3,3.3-5.2,7.7-8.2,11.5C164.1,77.4,163.4,75,161.4,74z"/>
	<path class="st1" d="M148.4,72.4c1.4-0.6,2.4-0.5,3.3,0c1.1,0.6,2.3,1,3.6,1.5c0.1,1.2-1.2,1.8-1.7,2.9c-0.5,1-1,2.1-1.9,3.1
		c-0.5-1.3-0.9-2.6-1.4-3.9C149.7,74.9,149.1,73.8,148.4,72.4z"/>
	<path class="st1" d="M58.7,80.7c0.2,0.1,0.4,0.3,0.4,0.4c-0.1,0.2-0.2,0.5-0.4,0.6c-0.1-0.1-0.3-0.2-0.3-0.3
		C58.5,81.2,58.6,81,58.7,80.7z"/>
	<path d="M172.5,137.6c-1.7,0.4-2.4-0.2-2.3-1.5c0-0.3,0.2-0.7,0.2-1.1c0-0.8,0-1.6,1-1.8c0.7-0.2,1.9,0.4,2.4,1.1
		c0.5,0.7,0.6,1.5,0,2.3C173.3,137.1,172.8,137.4,172.5,137.6z"/>
	<path d="M169,119.2c0.3,1.4,0,2.2-1,2.4c-0.9,0.2-2.2-0.4-2.3-1.1c-0.3-1.1,0.3-2.5,1.3-2.7C168,117.6,168.7,118.1,169,119.2z"/>
	<path d="M161.6,86.6c0.3,1.5,0,2.2-1.2,2.3c-1.1,0.3-2-0.2-2.2-1.1c-0.2-1,0.5-2.2,1.5-2.3C160.9,85.3,161.4,85.7,161.6,86.6z"/>
	<path d="M161.8,103.2c-0.3-1.1,0.2-2.1,1-2.3c1-0.2,2.2,0.6,2.5,1.7c0.2,0.9-0.2,1.7-1.1,1.9C163,104.9,162,104.3,161.8,103.2z"/>
	<path class="st0" d="M137.1,45.9c-1.3,0.1-3.6-0.8-4.1-1.8c-0.4-0.7,0.1-2.2,1-2.8c1.2-0.8,3.8-0.9,5.1,0.2
		c0.9,0.9,1.1,1.9,0.2,2.8C138.5,45,137.8,45.4,137.1,45.9z"/>
	<path d="M133.6,37.8c0.3,1.2-0.4,2.3-1.5,2.6c-1,0.3-2.4-0.6-2.7-1.7c-0.3-1.1,0.5-2.2,1.7-2.5C132.2,35.9,133.4,36.7,133.6,37.8z"
		/>
</g>
<g id="red_rejected">
	<path id="color_circle" class="st2" d="M24.3,75.4C13.7,77.9,3,71.3,0.5,60.7s4.1-21.4,14.7-23.9c10.6-2.5,21.4,4.1,23.9,14.7
		C41.6,62.1,35,72.9,24.3,75.4z"/>
	<path id="icon" class="st3" d="M23.6,55.3l3.9-6.4c0.8-1.3,0.4-3-0.9-3.7c-1.3-0.8-3-0.4-3.7,0.9L19,52.4l-6.4-3.9
		c-1.3-0.8-3-0.4-3.7,0.9c-0.7,1.3-0.4,3,0.9,3.7l6.4,3.9l-3.9,6.4c-0.8,1.3-0.4,3,0.9,3.7c1.3,0.8,3,0.4,3.7-0.9l3.9-6.4l6.4,3.9
		c1.3,0.8,3,0.4,3.7-0.9c0.8-1.3,0.4-3-0.9-3.7L23.6,55.3z"/>
</g>
</svg>
