<?xml version="1.0" encoding="utf-8"?>
<!-- Generator: Adobe Illustrator 25.0.0, SVG Export Plug-In . SVG Version: 6.00 Build 0)  -->
<svg version="1.1" id="圖層_1" xmlns="http://www.w3.org/2000/svg" xmlns:xlink="http://www.w3.org/1999/xlink" x="0px" y="0px"
	 viewBox="0 0 140 271.5" style="enable-background:new 0 0 140 271.5;" xml:space="preserve">
<style type="text/css">
	.st0{fill:#FFFFFF;}
	.st1{fill:#FCD13E;}
</style>
<g>
	<path d="M11.5,157.7c0.3-1-0.1-1.8-0.6-2.5c-0.2-0.3-0.8-0.3-1.2-0.4c-0.2-0.1-0.4-0.1-0.5-0.2c-0.9-1-2.3-1-3.4-1.5
		c-0.8-0.4-1.5-0.7-2.3-1.1c-0.3-0.2-0.6-0.5-0.9-0.5c-1.1-0.3-1.7-1.3-1.4-2.4c0.4-1.5,0.8-3.1,1.2-4.6c0.4-1.4,0.9-2.7,1.9-3.7
		c0.2-0.2,0.3-0.5,0.3-0.8c-0.1-1.2,0.3-2.2,1-3.1c0.4-0.5,0.9-1,1.1-1.6c0.4-1.2,0.4-2.5,1.4-3.5c0.1-0.1,0.1-0.2,0.1-0.2
		c-0.1-1.6,0.9-2.9,1.5-4.3c0.4-1,1.1-1.9,1.3-3.1s0.7-2.3,1.1-3.5c0.1-0.4,0.6-0.6,0.7-0.9c0.4-0.9,0.6-1.9,0.9-2.8
		c0.4-1.3,0.6-2.8,1.6-3.9c0.1-0.1,0.1-0.4,0.2-0.7c0.3-1.2,0.5-2.3,0.9-3.5c0.2-0.7,0.6-1.4,0.9-2.1c0.3-0.8,0.7-1.6,1-2.4
		c0.1-0.1,0.1-0.3,0.1-0.4c-0.1-1.5,0.8-2.7,1.3-4c0.3-0.9,1.1-1.6,1.5-2.5c0.5-1.4,0.7-2.9,1.4-4.3c0.9-1.7,1.4-3.6,2.2-5.4
		c0.8-1.7,0.6-2.4-0.7-3.6c-0.4-0.3-0.6-0.9-0.7-1.4c-0.2-0.9-0.2-1.9-0.1-2.9c0.2-1.6-0.1-3.2,0-4.7c0.3-2.6,1.1-5.1,2.1-7.5
		c0.1-0.4,0.5-0.7,0.5-1.1c0.2-2.2,1.3-4.1,2.4-5.9c0.1-0.2,0.2-0.4,0.2-0.6c0.3-2.4,2.6-2.8,4.2-2.1c1.3,0.6,2.8,0.5,4.1,0.9
		c0.9,0.3,1.8,0.4,2.7,0.5c1.2,0.2,2.5,0.4,3.7,0.6c0.3,0.1,0.6,0.1,0.9,0.2c0.7,0.3,1.7-0.3,1.7-1.1s-0.1-1.6-0.2-2.5
		c-0.2,0-0.6,0-0.9-0.1c-0.7-0.2-1.2-0.8-1-1.5c0.3-1.1-0.5-1.5-1.1-1.8c-1.2-0.5-1.8-1.2-1.7-2.5c-1.4,0-2.3-0.6-2.5-1.9
		c0-0.1-0.2-0.2-0.3-0.3c-0.7-0.7-1-1.7-2-2.1c-0.2-0.1-0.3-0.3-0.4-0.5c-0.4-0.7-0.7-1.4-1.2-2c-0.6-0.9-1.5-1.7-1.9-2.7
		c-0.7-1.9-1.2-3.8-1.8-5.8c-0.7-2.4,0-4.7,0.4-6.9s1.5-4.2,3.7-5.4c0.2-0.1,0.3-0.3,0.4-0.5c0.5-1,1.4-1.2,2.4-1.1
		c0.5,0.1,0.7,0,0.9-0.4c0.1-0.2,0.2-0.4,0.4-0.6c0.7-0.6,0.8-1.4,0.7-2.3c-0.1-1.2-0.1-2.5-0.2-3.7c0-0.3,0.2-0.7,0.1-1
		c-0.2-0.9,0.1-1.7,0.5-2.5c0.4-0.7,0.7-1.3,0.6-2.2c-0.1-0.8,0.2-1.7,1-1.9c1.1-0.4,1.6-1.4,2.1-2.3c0.6-1.1,1.5-1.8,2.7-2.1
		c0.6-0.1,1-0.4,1.3-0.8s0.9-0.8,1.4-0.8c1.2,0,2.4-0.2,3.5-0.7c0.1,0,0.2,0,0.3,0c1.9-0.6,3.8,0.4,5.7,0.1c1.8-0.3,3.6,0,5.4,0.1
		c0.8,0.1,1.5,0.4,2.3,0.6c0.3,0.1,0.5,0.2,0.8,0.2c0.6,0.1,1.3,0.2,1.9,0.2c0.3,0,0.7,0.1,1,0.1c0.8-0.1,1.7-0.4,2.4-0.2
		c2.3,0.5,4.6,1.1,6.9,1.7c1-0.1,1.7,0.3,2.5,0c0.2-0.1,0.6,0,0.9,0c0.6,0,1.2-0.1,1.8-0.1c1.3-0.1,2.6-0.3,3.9-0.4
		c0.2,0,0.6,0.3,0.7,0.5c0.3,0.5,0.4,1,0.6,1.5C90.5,6,88.9,7.1,89,8.6l-0.1,0.1c-0.7,1.1-0.7,1.3,0.5,1.8c1,0.5,1.6,1.2,1.9,2.3
		c0.1,0.2,0.1,0.5,0.3,0.7c0.7,0.9,1.4,2,2.3,2.7c1.2,1,1.5,2.5,2.3,3.8c0.6,1,0.8,2.2,1,3.4c0.2,1.3,0.1,2.7,0.2,4.1
		c0,0.5,0.1,1.1,0.2,1.6c0.1,0.3,0.2,0.7,0.5,0.9c1.3,1,2.8,1.9,3.9,3.2c1.5,2,1.5,5-1.7,6.3c-1.3,0.5-2.5,1.4-3.1,2.9
		c-0.3,0.8-1.4,1.3-2.1,1.2c-1.2-0.2-2.5-0.3-3.7-0.5c-0.7-0.1-1.5-0.2-2.2-0.3C89.1,42.9,89,43,89,43c0.7,1.1,1.2,2.4,2.1,3.3
		c0.8,0.8,2.1,1.1,3.2,1.6c0.7,0.3,1.3,0.6,1.2,1.6c-0.1,0.7-0.1,1.4-0.2,2.1c-0.1,0.6-0.2,1.1-0.3,1.7c-0.1,1.4-0.6,2.6-1.6,3.3
		c-1,0.9-2.4,1.4-3.6,1.9c-1.1,0.5-2.2,1.2-3.6,0.9c0,0-0.1,0-0.2,0.1c-1.6,1-3.4,1.1-5.2,1.2c-0.6,0.1-1.1,0-1.7,0
		c-0.7,0-1.4-0.2-2.1,0.1c-0.9,0.3-1.7,0.3-2.4-0.4c-0.2-0.2-0.6-0.3-0.8-0.2c-1.3,0.5-2.4,0.4-3.7-0.1c-0.3-0.1-0.8,0-1.2,0.2
		c-0.2,0.1-0.3,0.6-0.2,0.8c0.8,1.7,0.7,3.3-0.5,4.5c0.6,0.7,1.2,1.4,1.9,2.1c0.2,0.2,0.4,0.3,0.6,0.4c0.8,0.2,1.4,0.8,1.8,1.5
		c0.3,0.5,0.8,0.8,1.3,1.1c0.5,0.3,1.1,0.4,1.5,0.8c0.9,0.9,1.5,2.1,2.9,2.4c0.1,0,0.1,0.1,0.2,0.2c0.5,0.4,0.9,0.7,1.4,1
		c1.4,1,2.9,2.1,4.3,3.1c0.1,0.1,0.1,0.1,0.2,0.2c0.8,0.7,1.6,1.4,2.5,2c0.7,0.5,1.6,0.9,2.3,1.4c1.3,0.8,2.4,1.9,4,2.3
		c0.4,0.1,0.7,0.7,1.1,1s0.8,0.8,1.2,0.9c1.9,0.2,3.5,1.3,5.5,1.1c0.6-0.1,1-0.2,1.2-0.8c0.6-1.4,1.3-2.7,1.9-4.1
		c0.4-1,1.4-1.8,0.8-3.1c-0.1-0.2,0.1-0.7,0.3-0.9c0.5-0.5,0.2-0.9,0.1-1.5c-0.3-1.4-0.4-2.8-0.6-4.2c0-0.1,0-0.2,0.1-0.3
		c0.5-1,0.9-2,1.4-3c1.1-2,2.3-3.8,3.4-5.8c0.6-1.2,1.2-2.4,1.6-3.7s1.3-1.6,2.2-1.5c0.4,0,0.8,0,1.3,0c-0.6-0.8-1-1.7-1.7-2
		c-1.3-0.6-2.2-1.4-3.1-2.6c-0.7-1-0.9-2-1.2-3c-0.1-0.5-0.3-1.1-0.7-1.5c-1-1-1.4-2.1-1.5-3.5c-0.1-1.2-0.1-2.3-0.2-3.5
		c-0.1-1.3-0.3-2.6-0.4-3.9c0-0.6,0.4-1.3,0.3-1.8c-0.3-1.6,0.9-3.1-0.1-4.7c-0.1-0.2,0-0.6,0.1-0.9c0.1-0.8,0.2-1.7,0.4-2.5
		c0.6-2.5,0.5-5.3,2.4-7.5c0.1-0.1,0.1-0.3,0.1-0.5c0.2-1.2,0.2-2.5,1.1-3.6c0.3-0.4,0.7-0.8,1-1.3c0.4-0.5,0.8-1.1,1.2-1.6
		c0.3-0.5,0.7-1,1.1-1.4c0.4-0.5,0.6-1,1.1-1.3c0.6-0.5,1.5-0.7,2-1.2c1-1,2.2-1.5,3.5-1.8c0.4-0.1,0.8-0.3,1.2-0.5
		c1-0.5,2.1-0.8,3.1-0.3c0.8,0.4,1.6,0.7,2.5,0.9c0.5,0.1,1,0.5,1.4,0.7c0.1,0.1,0.3,0.3,0.4,0.2c1-0.1,1.7,0.4,2.3,1
		c0.7,0.8,1.5,1.5,2.5,1.9c0.3,0.1,0.5,0.6,0.8,0.9c0.2,0.2,0.3,0.5,0.5,0.7c1.3,1.1,1.6,2.9,2.5,4.2c0.1,0.2,0.1,0.5,0.1,0.7
		c-0.2,0.7,0.1,1.1,0.5,1.5c0.3,0.4,0.6,0.9,0.7,1.4c0.1,1.2,0.1,2.4,0.8,3.5c0.2,0.3,0.3,0.6,0.2,0.9c-0.1,1.7,0.8,3.2,0.4,4.9
		c-0.3,1.3,0.1,2.6,0,3.9c0,0.8-0.1,1.6-0.2,2.5c-0.2,1.3-0.3,2.6-0.5,3.9c0,0.2-0.1,0.5-0.3,0.6c-0.8,0.5-0.6,1.3-0.8,2.1
		c-0.1,0.6-0.4,1.2-0.6,1.9c-0.1,0.4-0.3,0.8-0.3,1.1c0.1,1-0.4,1.8-1,2.5c-0.2,0.2-0.3,0.5-0.4,0.8c-0.5,1-0.9,2.2-1.6,3.1
		c-1.3,1.4-2.7,2.5-4.2,3.7c-1.1,0.8-2.2,1.1-3.4,1.5c-1.6,0.6-1.8,0.7-1.9,2.5c0.6-0.1,1.1-0.1,1.7-0.1c0.4,0,0.9,0,1.1,0.3
		c0.4,0.4,0.9,0.4,1.4,0.4c1.9-0.1,3.7,2.5,2.8,4.1c-0.7,1.4-1.7,2.6-2.6,4c0.9,1.1,0.9,1.7-0.2,3c-0.3,0.3-0.5,0.9-0.4,1.3
		c0.3,1,0.1,1.8-0.6,2.5c-0.4,0.4-0.6,0.9-0.6,1.6s-0.1,1.5-0.5,2c-1.2,1.5-2.8,2.4-4.8,2.2c-0.2,0-0.5,0.1-0.8,0.2
		c1.3,0.8,2.5,1.5,3.7,2.2c1.3,0.8,1.5,1.9,0.4,3c-0.2,0.2-0.4,0.6-0.5,0.9c-0.3,1.3-0.5,2.6-0.8,3.9c-0.2,0.8-0.7,1.6-0.8,2.5
		c-0.5,2.3-0.8,4.7-2.5,6.5c-0.1,0.1-0.2,0.3-0.2,0.4c-0.1,2.1-1.5,3.6-2.4,5.4c-0.5,1-1.3,1.9-1.9,2.9c-0.8,1.2-1.9,2.1-3.2,2.7
		c-0.4,0.2-0.8,0.2-1.1,0.5c-1.4,1.1-3,1.1-4.7,1c-1-0.1-2-0.3-3-0.5c-1.3-0.2-2.6-0.4-3.9-0.8c-1.8-0.6-3.5-1.4-5.2-2.1
		c-0.9-0.4-1.8-0.8-2.6-1.3c-1-0.6-1.9-1.4-2.8-2.1c-0.2-0.1-0.5-0.1-0.7-0.1c0,0.2,0,0.4,0.1,0.6c0.4,1,0.6,1.9-0.2,2.8
		c-0.1,0.1-0.1,0.3-0.1,0.4c0.2,0.8,0.4,1.6,0.5,2.4c0.1,1.5,0,3,0,4.5c0,0.6-0.2,1.2-0.1,1.7c0.3,1.2,0.5,2.4,0.1,3.6
		c-0.1,0.3,0,0.6,0,0.8c0,1.4,0,2.8,0,4.2c0,0.2,0,0.3,0,0.5c0.1,0.8,0.2,1.6,0.2,2.4c0,0.8-0.1,1.6,0,2.4c0.1,1.4,0.2,2.8-0.4,4.2
		c-0.1,0.2,0,0.4,0,0.6c0.2,0.8,0.5,1.7,0.5,2.5c0,2.1,0,4.2-0.1,6.4c0,2.8-0.1,5.7-0.1,8.5c0,0.3-0.1,0.6-0.2,0.8
		c-0.1,0.4-0.2,0.7-0.2,1.1c0,0.9,0.4,1.8,0.1,2.5c-0.5,1.5-0.2,2.9,0.3,4.3c0.3,0.9,0,1.8-0.9,2.2c-0.8,0.3-1.9,0-2.1-0.8
		c-0.2-0.9-0.9-1.3-1.4-1.9c-0.7-1-1.5-2.1-1.8-3.2c-0.3-1.1-1-1.5-1.9-2.1c-0.3,1.5-0.5,2.8-0.8,4.1c-0.3,1.2-0.8,2.4-1.2,3.6
		c-0.4,1-0.7,2-0.5,3.1c0.1,0.8-0.2,1.4-0.6,2.1c-0.4,0.6-0.4,1.4-0.6,2.1c-0.1,0.3,0.1,0.7-0.1,0.9c-0.5,0.6-0.4,1.3-0.3,2
		c0,0.3,0,0.6-0.1,0.9c-0.2,1.2-1.1,2.3-0.9,3.6c0,0.1-0.1,0.3-0.2,0.5c-0.7,1.3-1.1,2.7-1,4.3c0,0.3-0.2,0.7-0.3,1.1
		c-0.1,0.4-0.1,0.7-0.2,1.1c-0.2,1-0.3,2.2-0.7,3c-0.4,0.7-0.5,1.3-0.6,2.1c-0.1,1-0.3,1.9-0.5,2.9c-0.2,0.7-0.5,1.4-0.7,2.1
		c-0.2,0.7-0.2,1.4-0.3,2.2c-0.1,0.6-0.3,1.2-0.5,1.8c-0.1,0.6-0.1,1.2-0.4,1.7c-1.1,1.5-0.7,3.4-1.3,5.1c-0.4,1.1-0.5,2.2-0.8,3.3
		c-0.2,0.7-0.7,1.2-0.8,1.9c-0.4,1.4-0.6,2.8-0.9,4.2c-0.5,2-0.6,4-1.7,5.9c-0.4,0.7-0.6,1.6-0.7,2.4c-0.3,2.1-0.5,4.2-1.8,5.9
		c-0.1,0.1-0.1,0.4-0.1,0.6c0,0.3,0,0.6-0.1,0.9c-0.3,1.3-0.6,2.6-1.1,3.8c-0.7,1.6-0.5,3.6-1.8,5c-0.1,0.1-0.1,0.4-0.2,0.6
		c-0.4,1.3-0.7,2.5-1.2,3.8c-0.2,0.6-0.7,1-0.3,1.7c0.1,0.1,0,0.4-0.2,0.6c-0.5,0.7-1.1,1.2-2,1.1c-0.5,0-1,0-1.6-0.1
		c0,0.5,0.1,0.9,0.1,1.3c0.1,0.6,0.2,1.3,0.2,1.9c0,1.5,0,3,0,4.4c0,0.1,0.1,0.2,0.1,0.2c0.4,1.3,0.8,2.6,1,3.9
		c0.3,1.3,0.7,1.9,2,2.2c1.1,0.3,1.6,0.9,1.6,2c0,1-0.1,2.1-0.4,3c-0.2,0.7-0.9,1.3-1.4,1.8c-0.3,0.2-0.9,0.3-1.2,0.2
		c-0.9-0.5-1.8-0.3-2.7-0.5c-1.3-0.3-2.7-0.1-3.7-1.1c-0.1-0.1-0.2-0.2-0.4-0.2c-1-0.1-1.8-0.3-2.4-1.2c-0.1-0.1-0.4-0.1-0.6-0.2
		c-0.4-0.2-0.9-0.2-1.3-0.5c-1.2-1-2.4-2-3.5-3c-0.6-0.6-1.2-1.2-1.9-1.8c-1.3-1-1.2-2.7-2.2-3.9c-0.8-1-1.1-2.5-1.6-3.7
		c-0.2-0.6-0.3-1.2-0.5-1.8c-0.6-1.4-0.4-2.3,0.6-3.3c0.8-0.8,1.9-1.4,1.5-2.9c-0.7-0.2-1.5-0.3-2.3-0.6c-1.4-0.5-1.6-1.9-0.6-3
		c0.4-0.4,0.5-1.1,0.7-1.7c0.2-0.9,0.3-1.8,0.5-2.7c0-0.2,0-0.4,0-0.6c0-0.5-0.1-1.1-0.1-1.6c0.2-1.2,0.4-2.4,0.6-3.6
		c0.1-0.3,0.3-0.6,0.4-0.9c0.1-0.2,0.2-0.5,0.2-0.7c0.2-1.7,0.1-3.4,0.5-4.9c0.3-1.1,0.4-2.1,0.5-3.2c0.1-1.5,0.3-2.9,1-4.3
		c0.1-0.2-0.1-0.5-0.1-0.7c-0.2-1-0.1-1.9,0.4-2.8c0.2-0.3,0.2-0.8,0.1-1.1c-0.3-1.1-0.3-2.2,0.2-3.2c0.2-0.4,0.2-0.8,0.2-1.2
		c0-1.3,0-2.6,0.1-3.9c0-0.7,0.2-1.5,0.2-2.2s0-1.4,0-2.1c0.1-1.6,0.3-3.2,0.4-4.8c0.1-1.7-0.2-3.5,0.7-5.1c0-0.1,0-0.2,0-0.2
		c-0.7-0.9-0.3-1.9-0.2-2.9c0.2-1.8,0.3-3.6,0.5-5.4c0.1-0.7,0-1.3,0.1-2c-0.5,0.5-0.8,1-1.1,1.5c-0.1,0.2-0.1,0.4,0,0.6
		c0.4,1.1,0.1,2-0.4,3c-0.2,0.5-0.5,1-0.6,1.5c-0.2,1-0.1,2.3-0.6,3c-0.8,1.1,0.3,2-0.3,2.9c0,0,0,0.1-0.1,0.2
		c-0.3,1.6-1.1,3-1.2,4.7c0,1.7-1.5,3-1.3,4.7c0,0.1-0.1,0.2-0.2,0.4c-0.1,0.3-0.2,0.6-0.3,0.9c-0.2,1.2-0.3,2.5-0.8,3.7
		c-0.4,1-0.6,2-0.7,3.1c-0.1,1.2-0.3,2.4-1.2,3.4c-0.1,0.1-0.1,0.3-0.1,0.4c-0.3,1.2-0.5,2.4-0.8,3.5c-0.6,2.2-1.3,4.3-2,6.5
		c-0.2,0.5-0.6,1-1,1.5c-0.1,0.2-0.3,0.4-0.4,0.6c-0.6,1.5-0.2,3.3-1.4,4.6c0,0.1-0.1,0.2,0,0.3c0.1,1.4-0.8,2.2-1.5,3.2
		c-0.1,0.2-0.2,0.4-0.3,0.6c-0.2,1.1-0.2,2.4-1.3,3.1c-0.1,0.1-0.2,0.3-0.3,0.4c-0.4,1.2-0.7,2.4-1.1,3.5c-0.2,0.8-0.6,1.1-1.4,1
		c-0.5,0-0.9,0-1.4,0c0,0.7-0.1,1.3-0.1,1.9c-0.1,0.8-0.2,1.7-0.2,2.5c-0.1,1.1-0.1,2.2-0.2,3.2c0,0.2,0,0.4,0,0.6
		c0.2,1.3,0.6,2.6,0.7,4c0,1.3,0.7,2,1.8,2.4c1,0.4,1.5,1.1,1.4,2.2c-0.1,1-0.3,2-0.7,2.9c-0.3,0.7-1,1.3-1.7,1.7
		c-0.3,0.2-0.9,0-1.4-0.1c-0.3,0-0.6-0.2-0.9-0.3c-1.4-0.3-3-0.3-4.1-1c-1.2-0.8-3-0.9-3.8-2.4c-0.1-0.1-0.3-0.1-0.5-0.2
		c-0.4-0.2-0.9-0.3-1.2-0.6c-2-1.8-4-3.6-5.4-5.9c-0.7-1.2-1.2-2.6-1.6-4c-0.1-0.2-0.2-0.5-0.3-0.7c-0.2-0.5-0.5-1-0.6-1.6
		c-0.3-1-0.3-2-0.7-2.9c-0.5-1.3-0.1-2.6,1.2-3.2c0.3-0.1,0.5-0.3,0.7-0.6c0.5-0.8,0.9-1.6,1.4-2.4c0,0-0.2-0.1-0.4-0.2
		c-1.3-0.5-1.7-1.1-1.5-2.5c0.1-0.5,0.3-1,0.5-1.5c0.1-0.3,0.2-0.6,0.1-0.9c-0.3-0.8-0.1-1.5,0.4-2.2c0.2-0.2,0.2-0.5,0.2-0.8
		c0-0.5-0.1-1.1,0-1.6c0.2-1.2,0.6-2.4,0.8-3.6c0.2-1.1,0-2.3,0.5-3.3c0.8-1.7,0-3.7,1.4-5.2v-0.1c-0.5-1.2,0.1-2.3,0.2-3.4
		c0.1-1,0.4-2,0.6-3s0.5-2.1,0.6-3.1c0.1-1.3,0.1-2.6,0.2-3.9c0.1-1.4,0.2-2.8,0.5-4.2c0.3-1.2,0.6-2.3,0.7-3.6
		c0-0.5,0.2-0.9,0.3-1.3c0.1-1.3,0-2.7,0.3-4c0.5-2.3,0.1-4.7,0.8-7c0.4-1.5,0.1-3.3,0.2-5c0.1-1.1,0.1-2.3,0.5-3.3
		c0.4-1.1,0.4-2.1,0.2-3.1c-0.5-2.3,0.1-4.5,0.3-6.7c0.1-0.8,0.3-1.6,0.1-2.3c-0.3-1-0.2-1.8,0.5-2.5
		C11.4,160.8,11.2,159,11.5,157.7z M9.2,151.3c0.2,0.3,0.6,0.5,0.9,0.7c0.4,0.2,0.8,0.3,1.1,0.7s0.6,0.4,1,0.2
		c0.9-0.4,1.5-0.2,2.4,0.4c1.1,0.8,2.4,1.2,3.7,1.7c1.6,0.6,3.3,1.1,5,1.7c0.1,0,0.1,0,0.2,0.1c1,1.1,2.5,0.9,3.8,1.5
		c0.9,0.4,1.8,0.9,2.7,1.3c0.1,0,0.1,0.1,0.2,0.2c1.1,0.4,2.1,0.7,3.2,1.1c0.9,0.4,1.8,0.8,2.7,1.2c0.3,0.1,0.7,0.2,1.1,0.2
		c0.3,0,0.7-0.2,0.9-0.1c1.4,0.4,2.8,0.8,4.2,1.2c0.8,0.3,1.5,0.6,2.2,0.9c0.2,0.1,0.4,0.1,0.6,0.1c1-0.6,1.9-0.2,2.9,0
		c1.3,0.3,2.6,0.6,3.9,0.9c0.2,0,0.5-0.1,0.7-0.2c0.6-0.1,1.3-0.3,1.8-0.1c1.1,0.4,2.1,0.5,3.1-0.2c0.1-0.1,0.3-0.2,0.5-0.2
		c1.7-0.3,3.4-0.5,5.2-0.8c0.4-0.1,0.8-0.2,1.2-0.4c0.9-0.4,1.8-0.9,2.8-1.2c1.2-0.4,2.2-1.5,3.4-2.2c1-0.6,1.8-1.3,2.7-2
		c0.8-0.6,1.6-1.2,2.2-2.1c0.8-1,1.8-1.8,2.8-2.7c0.5-0.5,1-0.4,2.1,0.1c0.2-0.2,0.3-0.5,0.5-0.7c0.4-0.4,1.3-0.3,1.3,0.2
		c0.2,1.4,1.4,1.9,2.1,2.8c0.4,0.6,0.7,1.3,1,1.9c0.1,0.2,0.1,0.5,0.2,0.7c0.1,0.1,0.3,0.3,0.5,0.3c0.1,0,0.3-0.3,0.3-0.4
		c0-0.8,0-1.5,0-2.3c0-0.2-0.1-0.4,0-0.6c0.1-2.8,0.2-5.6,0.3-8.4c0-2.1,0-4.1-0.1-6.2c0-0.3-0.1-0.7,0-0.9c0.8-1.7,0-3.3-0.1-5
		c0-1.6-0.3-3.3-0.1-4.9c0.4-2.1-0.3-4.3,0.2-6.4c0.2-0.9-0.4-1.9-0.1-2.8c0.6-1.9-0.3-3.6,0-5.4c0.2-1.1,0.2-2.2,0.4-3.3
		c0-0.3,0.3-0.5,0.3-0.8c0.1-0.2,0.1-0.6,0-0.8c-0.7-0.9-0.5-1.7-0.1-2.6c0.4-1-0.1-2.1-1-2.4c-1.1-0.4-1.6-1.3-1.3-2.3
		c0.3-1,1.3-1.6,2.4-1.3c0.9,0.3,1.7,0.8,2.5,1.5c0.8,0.8,1.8,1.5,2.8,2.1c0.6,0.4,1.4,0.4,2.1,0.6c0.9,0.3,1.7,0.9,2.6,1.2
		c2.2,0.9,4.4,1.7,6.6,2.6c0.2,0.1,0.5,0.1,0.7,0.2c1.1,0.8,2.2,0.6,3.4,0.4c1-0.1,2-0.2,3-0.4c0.4-0.1,1-0.3,1.3-0.6
		c1.2-1.4,2.7-2.7,3.5-4.4c0.8-1.6,1.8-3.1,2.8-4.6c0.1-0.1,0.2-0.3,0.2-0.4c0.1-2.3,1.3-4.1,2.2-6.1c0.3-0.7,0.4-1.4,0.6-2.1
		c0.5-1.3,1-2.7,1.4-4c0.1-0.2,0-0.6-0.2-0.6c-0.9-0.6-2-1-2.9-1.7c-1.3-1.1-3-1.2-4.4-1.8c-1.4-0.6-2.9-1-4.4-1.5
		c-1-0.3-2-0.7-3-1.1c-0.3,0.8-0.6,1.6-0.8,2.5c-0.5,1.9-1.5,3.4-3.1,4.5c-0.7,0.4-1.2,1.2-1.8,1.7c-0.3,0.3-0.7,0.7-1.1,0.7
		c-2.5,0.3-4.8-0.3-6.7-2.1c-0.4-0.4-1.1-0.6-1.7-0.8c-0.4-0.2-1-0.2-1.3-0.5c-1.3-1.4-3-2.1-4.6-3c-0.3-0.2-0.6-0.4-0.9-0.6
		c-1.2-0.8-2.4-1.7-3.6-2.5c-0.9-0.7-1.8-1.3-2.8-1.8c-1.3-0.7-2.4-1.9-3.6-2.8c-0.2-0.2-0.3-0.4-0.5-0.6c-0.3-0.3-0.7-0.7-1.1-0.8
		c-1-0.3-1.8-0.9-2.3-1.8c-0.4-0.7-0.9-1.1-1.6-1.4c-0.6-0.3-1.2-0.8-1.5-1.3c-0.6-0.9-1.5-1.3-2.4-1.6c-1.2-0.3-2.5-0.3-3.7-0.6
		c-0.6-0.1-1.2-0.6-1.9-0.8c-0.4-0.2-0.8-0.3-1.2-0.3c-1,0.1-1.8,0-2.7-0.6c-0.8-0.5-1.8-0.8-2.7-1.2c-0.1,0-0.1-0.1-0.2,0
		c-2.4,0.6-4.6-0.4-6.9-0.9c-1.4-0.4-2.8-0.6-4.2-0.7c-1.2-0.1-2.3-0.6-3.5-0.9c-1.3-0.3-2.6-0.8-3.9-0.9c-1.3-0.1-2.5-1-3.9-0.7
		c-0.4,0.1-0.6,0.2-0.7,0.6c-0.7,1.9-1.1,3.9-2.2,5.6c-0.1,0.2-0.2,0.4-0.2,0.6c-0.6,2.6-1,5.2-1.8,7.7c-0.4,1.2-0.6,2.5-0.7,3.7
		c0,0.2,0,0.3,0,0.5c0.4,1.1,0.8,2.2,1.2,3.4c0,0,0.2-0.1,0.4-0.1c0.8,1.6,2.1,2.6,3.6,3.4c0.1,0.1,0.2,0.1,0.3,0.2
		c0.6,1.4,2,1.2,3.1,1.5c0.7,0.2,1.5,0.4,2.3,0.4c1.9-0.2,3.9,0.7,5.8-0.2c0.3-0.1,0.7-0.2,0.9-0.1c1,0.4,1.5-0.2,2.1-0.8
		c0.6-0.6,1.2-0.9,2.1-0.8c0.2,0,0.4,0.1,0.5,0c1.6-1.2,3.5-1.7,5.2-2.5c0.7-0.3,1.3-1,2-1.4c0.4-0.2,1-0.4,1.4-0.3
		c0.8,0.1,1-0.3,1.3-0.9s0.7-1.3,1.1-1.8c0.9-0.9,1.9-1.7,2.8-2.5c0.5-0.4,0.9-1,1.3-1.4c0.5-0.5,1.2-0.6,1.8-0.2
		c0.7,0.5,0.8,1.2,0.4,1.8c-0.7,1.2-1.5,2.3-2.3,3.4c-0.2,0.3-0.4,0.5-0.7,0.8c-0.8,1-1.7,1.7-3.1,1.8c-0.6,0.1-1.1,0.3-1.3,1.1
		c-0.3,1.2-1.5,1.5-2.4,2.2c-1.3,1-2.9,1.2-4.4,1.7c-0.8,0.3-1.6,0.5-2.3,0.7h-0.1c-0.9,1.6-2.5,1-3.8,1.4c-0.2,0.1-0.4,0.3-0.6,0.4
		c-0.4,0.2-0.8,0.6-1.2,0.7c-1.1,0.2-2.3,0.4-3.4,0.5C39,92.4,38,92.4,37,92c-0.9-0.4-2-0.3-2.9-0.7c-1.1-0.4-2-1-3.1-1.6
		c-0.1-0.1-0.2-0.1-0.3-0.1c-1,0.3-1.9,0-2.8-0.8c-0.4,1-0.8,1.9-1.2,2.8c-0.4,0.8-0.7,1.7-1.1,2.5c-0.7,1.4-1.5,2.8-2.1,4.2
		c-0.4,0.9-0.3,1.9-0.6,2.8c-0.5,1.3-0.7,2.8-1.7,3.9c-0.1,0.1-0.1,0.3-0.2,0.4c-0.3,0.8-0.5,1.6-0.8,2.4c-0.2,0.7-0.4,1.4-0.7,2.1
		c-0.5,1.1-1,2.2-1.6,3.3c-0.1,0.2-0.3,0.4-0.3,0.6c0.1,1.4-0.7,2.5-1.2,3.8c-0.4,1-0.9,2-1.2,3c-0.3,0.8-0.4,1.6-0.5,2.4
		c0,1.2-0.8,1.9-1.3,2.8c-0.2,0.3-0.2,0.6-0.3,1c-0.4,1.5-0.8,3-1.3,4.5c-0.1,0.3-0.4,0.6-0.6,1c-0.2,0.4-0.4,0.8-0.6,1.2
		c-0.2,0.4-0.2,0.9-0.5,1.2c-0.9,1-1.2,2.3-1.5,3.5c-0.2,1.1-0.7,2.1-1.5,2.8c-0.2,0.2-0.4,0.5-0.4,0.7c0.1,1.4-0.6,2.7-1.1,3.9
		c-0.4,1.1-0.8,2.2-1.2,3.4c0.1,0.1,0.1,0.2,0.2,0.2C7.1,148.4,8.1,149.9,9.2,151.3z M75.9,160.1c-0.1,0.1-0.2,0.4-0.3,0.5
		c-1.2,0.9-2.5,1.7-3.7,2.6c-0.3,0.2-0.6,0.3-0.9,0.5c-0.6,0.7-1.4,1-2.3,1.1c-0.1,0-0.3,0-0.4,0.1c-0.8,1.2-2.3,0.9-3.4,1.5
		c-0.9,0.4-1.8,0.9-2.7,1.2c-0.5,0.2-1.1,0.1-1.7,0.1c-0.3,0-0.6,0.2-0.9,0.2c-0.6,0.1-1.3,0.1-1.9,0.1c-1,0-2-0.1-3,0.2
		c-0.9,0.2-1.6,0.4-2.4-0.2c-0.1-0.1-0.4-0.2-0.5-0.2c-1.9,0-3.7,0-5.6-0.1c-0.4,0-0.8-0.2-1.3-0.4c0,0.3-0.1,0.6,0,0.8
		c0.4,1.1,0.8,2.2,0.5,3.4c0,0.1,0,0.2,0,0.3c0.8,1.8-0.1,3.6,0,5.4c0,0.1,0,0.2-0.1,0.3c-1,1.2-0.3,2.5-0.1,3.8
		c0,0.3,0.1,0.5,0,0.8c-0.7,1.8,0,3.6-0.2,5.4c-0.1,1.3,0.2,2.6-0.3,3.8c-0.4,1.1-0.2,2.1-0.2,3.2c-0.1,1.8-0.3,3.6-0.4,5.5
		c0,0.7,0.1,1.3,0,2c-0.1,1.4-0.6,2.8-0.5,4.1s-0.1,2.5-0.3,3.7s-0.2,2.3-0.2,3.4c0.1,0.9-0.8,1.8-0.8,2.6c0.1,0.9,0.4,1.8,0.1,2.7
		c-0.1,0.3-0.2,0.5-0.4,0.8c-0.1,0.2-0.2,0.4-0.2,0.5c0,0.8-0.1,1.6,0,2.4c0.1,1.3,0,2.5-0.7,3.6c-0.1,0.1-0.1,0.2-0.1,0.3
		c0.5,2.3-0.8,4.4-0.9,6.6c0,1.8-0.7,3.5-0.7,5.3c0,0.1,0,0.2,0,0.3c-1,1.4-0.4,3.3-1.4,4.7c-0.5,0.6,0,1.3,0.8,1.4
		c1.6,0.3,3.3,0.5,4.9,0.9c1.7,0.4,3.3,1,4.9,1.4c0.2,0.1,0.5,0,0.7,0c0.7,0.1,1.3,0.2,2,0.3c0.5,0.1,1,0.1,1.5,0.2
		c0.7,0.1,1.5,0.2,2.2,0.3c0.5,0.1,0.7-0.2,0.8-0.7c0.3-1.4,0.8-2.8,1.2-4.2c0-0.1,0.1-0.1,0.1-0.2c-0.2-1.7,0.7-3,1.1-4.6
		c0.3-1.2,0.9-2.4,1.1-3.7c0.2-1.1,0.8-2,0.9-3.2c0.1-1.5,0.8-3,1.2-4.6c0.3-1.2,0.7-2.3,1-3.5c0.4-1.7,0.8-3.4,1.3-5.1
		c0.4-1.4,0.9-2.8,1.3-4.2c0.2-0.6,0-1.2,0.1-1.8c0.3-1.2,0.8-2.5,1-3.7c0.3-1.7,1.5-3.2,1.2-5c-0.1-0.4,0.2-0.9,0.4-1.4
		c0.2-0.8,0.4-1.7,0.6-2.5c0.1-0.3,0.1-0.8,0.3-1c0.8-0.8,0.5-1.8,0.8-2.7c0.3-1,0.5-1.9,0.9-2.9c0.2-0.7,0.4-1.3,0.4-2
		c0-1,0.4-2,0.6-3c0.1-0.4,0.2-0.8,0.3-1.2c0.1-0.4,0.1-0.8,0.2-1.1c0.7-1.4,1-2.8,1-4.3c0-0.2-0.1-0.4,0-0.5
		c0.7-1.1,0.4-2.5,0.7-3.6c0.1-0.3,0.2-0.6,0.3-0.9c0.4-0.6,0.7-1.1,0.6-1.9c0-0.3,0.3-0.6,0.3-0.9c0.2-0.7,0.3-1.5,0.5-2.2
		c0.1-0.7,0.1-1.4,0.4-2c0.5-1,0.7-2,0.9-3.1c0.2-1.6,0.2-3.1,0.9-4.6c0.3-0.6,0.3-1.4,0.4-2.2c-0.1-0.1-0.2-0.2-0.3-0.2
		C77.1,159,76.5,159.5,75.9,160.1z M14.2,161.9c1.4,1.2,0.1,2.6,0.2,3.9c0,0.2-0.1,0.4-0.1,0.6c0,2,0.1,3.9,0,5.9
		c-0.1,1-0.5,2-0.7,3c-0.1,0.3-0.1,0.6,0,0.8c0.5,1.4,0.4,2.7,0.2,4.1c-0.3,1.6-0.5,3.2-0.7,4.8c-0.1,0.6,0.2,1.2,0.2,1.8
		c0,0.7-0.3,1.4-0.4,2.1c-0.1,0.8-0.2,1.7-0.3,2.5c-0.2,1.6-0.4,3.2-0.6,4.7c-0.1,0.5,0.2,1.1,0,1.6c-0.3,1.1-0.1,2.1-0.1,3.2
		c-0.1,1.5-0.3,3.1-0.6,4.6c-0.2,1.3-0.7,2.5-0.9,3.7c-0.2,1-0.2,2.1-0.3,3.1c-0.1,0.8-0.1,1.7-0.2,2.5c-0.1,0.8-0.2,1.7-0.5,2.5
		c-0.4,1-0.6,2-0.6,3.1c0,1.4-0.4,2.8-0.8,4.1c-0.3,1.2-0.9,2.4-1.2,3.6c-0.2,1-0.3,2-0.4,3c0,0.1,0,0.2,0,0.3c-0.5,1-1,2-0.6,3.2
		c0.1,0.2-0.2,0.7-0.4,0.9c-0.5,0.4-0.4,1-0.2,1.4c0.2,0.3,0.6,0.5,0.9,0.5c1.3-0.2,2.3,0.6,3.4,0.9c1.5,0.5,3,1,4.6,1.6
		c0.9,0.3,1.7,0.8,2.7,0.7c0.9-0.1,1.8,0.4,2.6,0.6c0.9,0.2,1.6-0.1,2-0.9c0.2-0.4,0.5-0.9,0.4-1.4c-0.1-1.4,0.6-2.4,1.4-3.5
		c0.4-0.5,0.2-1.3,0.4-2c0.2-0.6,0.5-1.2,0.8-1.8c0-0.1,0.2-0.2,0.2-0.3c0.1-1.7,1.4-2.9,1.8-4.4c0.1-0.2,0-0.4,0-0.7
		c0-0.6-0.1-1.3,0.1-1.9c0.9-2,1.4-4.2,2.1-6.3c0.4-1.2,0.9-2.3,1.3-3.4c0-0.1,0.1-0.3,0.1-0.4c0.2-1.2,0.3-2.5,0.7-3.5
		c0.4-0.9,0.6-1.7,0.8-2.7c0.2-1.2,0.7-2.4,1.1-3.6c0.1-0.4,0.1-0.7,0.2-1.1c0-0.1-0.1-0.3,0-0.4c1-1.5,0.3-3.3,1.1-4.8
		c0.7-1.4,0.7-3,1.1-4.5c0-0.1,0-0.1,0-0.2c-0.1-1.1,1.3-1.5,1-2.8c-0.2-0.9,0.5-1.9,0.7-2.9c0.1-0.5,0.1-1,0.1-1.5
		c-0.1-1.1,0.1-2.2,0.9-3.1c0.1-0.1,0.2-0.4,0.2-0.5c-0.5-1.7,0.2-3.3,0.6-5c0.3-1.1,0.5-2.3,0.7-3.4c0-0.1,0-0.3,0-0.3
		c0.6-1,0.5-2.1,0.6-3.2c0.1-0.9,0.6-1.7,1-2.6c0.4-1,0.3-1.4-0.7-1.7c-0.8-0.2-1.5-0.4-2.3-0.6c-0.4-0.1-1-0.2-1.1-0.6
		c-0.6-1-1.7-0.8-2.6-1c-0.6-0.1-1.2-0.3-1.8-0.5c-1.1-0.4-2.1-0.8-3.2-1.2c-0.6-0.2-1.3-0.2-1.8-0.4c-1.3-0.5-2.5-1.1-3.8-1.6
		c-0.1,0-0.2-0.1-0.2-0.1c-1.2,0.3-2.1-0.7-3.2-0.9c-0.2,0-0.4-0.2-0.5-0.3c-1.2-0.5-2.4-1.1-3.6-1.6c-0.3-0.1-0.6-0.1-0.8-0.1
		C14.7,159,15.6,160.6,14.2,161.9z M73,17.9c0,0.2,0,0.5,0,0.7c-0.4,2-0.9,4-1.3,6.1c-0.2,1.3-1.1,2.2-1.8,3.2
		c-0.2,0.2-0.4,0.5-0.4,0.7c0,0.9-0.4,1.7-1,2.3c-0.5,0.6-1,1.2-1.5,1.9c-0.1,0.1-0.1,0.2-0.2,0.3c-1,0.4-1.5,1.1-1.1,2.3
		c0.1,0.2-0.4,0.9-0.7,1c-0.3,0.1-0.9-0.1-1.2-0.2c-0.5-0.2-0.9-0.5-1.3-0.8c-0.3-0.2-0.6-0.2-0.8-0.4c-0.7-0.6-1.4-0.8-2.3-0.4
		c-0.1,0-0.2,0-0.3,0c-0.5,0-1.2-0.2-1.5,0.1c-0.6,0.7-1.2,1.5-1.3,2.4c-0.1,0.7,0.2,1.7,0.5,2.4c0.8,1.8,1.7,3.6,2.6,5.4
		c0.5,0.9,0.4,1.5-0.3,2.2c-0.5,0.5-1,1.1-1.2,1.7c-0.5,1.1-1.4,1.7-2.3,2.3c-1.1,0.7-2.3,1.2-3.4,1.9c-0.9,0.5-1.7,1.1-2.6,1.7
		c-0.1,0.1-0.2,0.3-0.2,0.4c-0.1,0.6-0.1,1.2-0.1,1.7c-0.1,0.8-0.2,1.7-0.5,2.4c-0.4,1.1-0.2,1.7,0.9,2c1.2,0.3,2.5,0.6,3.7,0.9
		c0.4,0.1,0.8,0.4,1.2,0.6c0.4,0.2,0.7,0.5,1.1,0.5c1,0.1,2.1,0,3.2,0.2c0.6,0.1,1.2,0.6,1.9,0.8c0.5,0.2,0.9,0.3,1.4,0.3
		c1.2,0.2,2.3,0.4,3.5,0.6c0.2,0,0.4,0.1,0.5,0.1c-0.1-0.9-0.4-1.8-0.3-2.7c0-0.6,0.4-1.1,0.5-1.7c0.1-0.3,0.1-0.5,0.2-0.8
		c0.1-0.7,0.1-1.5,0.2-2.2c0.2-0.8,1.3-1.4,2.2-1.3c0.9,0.1,1.8,0.2,2.6,0.2c0.9,0,1.6,0.2,2.3,0.7c0.4,0.3,0.8,0.5,1.4,0.1
		c0.4-0.3,1.2-0.5,1.6-0.3c0.9,0.5,1.7,0.2,2.6,0.1c2-0.2,4-0.4,6.1-0.6c0.1,0,0.3,0,0.3,0c1.2-1.1,2.9-1.1,4.4-1.7
		c1-0.4,2.5-2.9,2.2-3.9c-0.1-0.3-0.5-0.7-0.9-0.9c-2.2-1.1-3.8-2.8-4.6-5.2c-0.4-1.1-0.7-2.3-1-3.5c-0.4-1.4,0.8-2.6,2.2-2.4
		c1.9,0.3,3.8,0.6,5.8,0.9c0.7,0.1,1.2-0.1,1.6-0.6c0.3-0.4,0.7-0.7,1.1-1c0.8-0.6,1.7-1.1,2.5-1.6c0.5-0.4,0.7-1.4,0.1-1.9
		c-1.1-1-2.2-2-3.4-2.9c-0.6-0.5-0.9-1-0.9-1.8c0.1-1.1,0-2.2,0-3.3c0-0.3,0-0.6-0.2-0.7c-0.7-0.8-0.6-1.7-0.7-2.6
		c-0.3-1.5-0.5-3-1.4-4.4c-0.1-0.1-0.2-0.3-0.2-0.5c-0.5-0.9-0.9-1.9-1.4-2.8c-0.3-0.6-0.7-1.2-1.5-1.4c-0.3-0.1-0.5-0.4-0.8-0.7
		c-0.2-0.3-0.4-0.6-0.7-0.9c-0.6-0.7-1.2-0.7-2-0.3c-1.2,0.7-2.5,1.2-3.8,1.6c-1.8,0.6-3.9,0.8-5.9,0.9c-1.1,0.1-2.3-0.1-3.5-0.2
		C72.6,16,72.8,16.9,73,17.9z M37.1,25.1c-0.7,0.3-1.2,1.2-1.6,1.9c-0.6,1-1.1,2.1-1.4,3.2c-0.2,0.7,0,1.5,0.1,2.3
		c0.1,1.1,0,2.2,0.2,3.3s0.8,2.1,1.2,3.1c0.4,1.1,0.8,2.2,1.4,3.2c0.3,0.6,0.9,1,1.3,1.6c0.2,0.3,0.4,0.6,0.5,0.9
		c0.2,1,1.1,1.6,1.8,2.1c1,0.6,1.6,1.2,1.5,2.5c1.5-0.2,2.1,0.6,2.7,1.8c0.3,0.6,1.1,0.9,1.8,1.4c0.1-0.1,0.3-0.2,0.5-0.4
		c1-0.6,2-1.2,3-1.8c0.9-0.6,1.8-1.3,2.7-2c1-0.8,2-1.6,3.5-1.8c-0.3-0.4-0.4-0.8-0.7-1c-1.7-1.5-2.3-3.5-2.8-5.5
		c-0.5-2.1,0.3-4.1,1-6.1c0.2-0.7,1.2-1.2,1.9-1.7c0.6-0.5,1.3-0.8,2-1.1c0.5-0.2,1.1-0.3,1.6-0.2c1.3,0.3,2.7,0.7,3.9,1.1
		c1-1.4,1.9-2.7,2.8-4c0.1-0.2,0.4-0.4,0.6-0.5c0.8-0.2,0.8-0.9,1-1.5c0.4-1.3,0.8-2.5,1.2-3.8c0.4-1.2,0.7-2.4,0.7-3.7
		c0-0.8,0.3-1.6,0.6-2.3c0.4-1,0.4-1.9-0.3-2.8c-0.6-0.8-0.4-1.7,0.6-2.1c1.1-0.4,2.1-0.2,3.2-0.1c1.4,0.1,2.8,0.2,4.2,0.2
		c1,0,2-0.3,3-0.6c1.1-0.3,2.1-0.8,3-1.3c1.1-0.7,2.2-1.3,2.7-2.6c0.1-0.2,0.3-0.3,0.4-0.5c0.2-0.3,0.4-0.6,0.6-1
		c-1.6,0.4-3,0.7-4.3,1.1c-0.9,0.2-1.6,0.2-2.4-0.2c-0.4-0.3-1.1-0.3-1.7-0.4c-1.2-0.2-2.3-0.4-3.5-0.6C74.5,5,73.4,5,72.3,4.7
		c-0.7-0.2-1.4-0.6-2.2-0.8c-0.4,0-0.8,0-1.2,0c-0.5-0.1-1.1-0.1-1.6-0.2c-0.3,0-0.6,0-0.9,0c-0.8,0-1.6,0.2-2.4,0.1
		c-1.7-0.1-3.5-0.2-5.1-0.6c-1.6-0.5-3,0.4-4.6,0.3c-0.3,0-0.5,0.1-0.8,0.1c-1,0-1.9,0-2.7,0.8c-0.2,0.2-0.7,0.4-1,0.3
		c-0.9-0.1-1.3,0.4-1.9,1c-0.5,0.5-1.2,0.8-1.9,1.2s-1.3,0.6-1.4,1.7c0,0.6-0.6,1.1-0.9,1.7c-0.2,0.4-0.5,0.8-0.5,1.2
		c-0.1,2.1-0.2,4.3-0.3,6.4c0,0.8,0.2,1.6,0.4,2.3c0.3,1,0,1.5-0.9,1.8c-0.1,0-0.3,0-0.4,0.1c-0.8,1-1.8,1.1-3,0.8
		C38.9,24,38.2,24.6,37.1,25.1z M111.1,25.1c-0.4,1.8-0.6,3.7-1,5.5c-0.2,0.8-0.5,1.6-0.8,2.3c-0.1,0.2-0.1,0.4-0.1,0.5
		c0.1,0.6,0.2,1.2,0.2,1.8c0.1,0.8,0.3,1.6,0.3,2.4c0.1,2.1,0.1,4.1,0.1,6.2c0,0.5,0.3,0.9,0.3,1.4c0,0.9,0.1,1.8,0,2.7
		c-0.1,0.6,0,1,0.5,1.4c0.9,0.8,1.8,1.5,2.6,2.4c0.4,0.5,0.7,1.2,1,1.8c0.2,0.3,0.5,0.8,0.7,0.8c1.5-0.1,2.5,0.9,3.7,1.5
		c0.5,0.3,0.9,0.3,1.4,0c0.4-0.3,1-0.6,1.5,0c0,0.1,0.2,0.1,0.2,0.1c1.4-0.2,2.9-0.2,4.2-0.8c1.3-0.6,2.3-1.8,3.6-2.6
		c1.5-0.9,2.1-2.4,3.1-3.7c0.5-0.7,0.8-1.3,0.9-2.1c0-0.2,0.1-0.4,0.2-0.6c1.2-1.2,1.1-3.1,2.1-4.5c0.1-0.2,0-0.5,0-0.7
		c0-0.6,0-1.2,0.1-1.8c0.1-1.2,0.3-2.5,0.5-3.7c0.1-1.2,0.2-2.5,0.3-3.7c0-0.6,0.1-1.3,0-1.9c-0.2-1.9-0.4-3.7-0.7-5.6
		c-0.1-0.7-0.5-1.3-0.7-2s-0.3-1.4-0.5-2c-0.1-0.3-0.2-0.7-0.4-1c-0.1-0.2-0.4-0.4-0.5-0.6c-0.7-1.6-1.8-2.9-3-4.1
		c-0.2-0.2-0.4-0.4-0.4-0.6c-0.1-1-0.8-1.3-1.6-1.7c-0.5-0.3-0.9-0.7-1.4-1c-0.2-0.1-0.4-0.2-0.6-0.3s-0.4,0-0.6-0.1
		c-0.8-0.6-1.8-0.5-2.7-0.8c-1.6-0.5-2.8,0-4.1,0.6c-0.6,0.3-1.3,0.4-1.8,0.8c-0.5,0.3-0.9,0.9-1.3,1.3c-0.3,0.3-0.5,0.7-0.9,0.8
		c-0.7,0.3-1.1,0.7-1.2,1.4c0,0.2-0.1,0.5-0.2,0.6c-0.8,0.9-0.7,2.1-1.1,3c-0.3,0.7-0.8,1.3-1.2,2c-0.2,0.4-0.3,0.8-0.4,1.1
		c0.1,0,0.2,0.1,0.3,0.1C111.6,23,111.3,24.1,111.1,25.1z M113.2,62.2c-0.5,1.2-0.8,2.4-1.3,3.5c-0.4,1.1-0.7,2.3-1.5,3.2
		c-1.3,1.5-2,3.1-2.3,4.9c-0.1,0.6,0.4,1.3,0.6,1.9c0.1,0.4,0.2,0.8,0.5,1.2c0.3,0.4,0.6,0.9,1,1.1c1.1,0.5,2.3,0.9,3.5,1.3
		c0.8,0.3,1.5,0.3,2.3,0c0.9-0.4,2-0.5,2.9-0.6c1.8-0.2,3.7-0.3,5.5-0.5c-0.5-0.2-1.3-1.2-1.2-1.9c0.1-0.7,0.1-1.4,1.1-1.5
		c0.8-0.1,1-0.7,0.7-1.5c-0.5-1.1,0.3-1.8,0.9-2.5c0.3-0.4,0.4-0.6,0.1-1.1c-0.7-1.2-0.6-1.8,0.5-2.8c0.7-0.6,1.3-1.3,1.9-2.1
		c0.1-0.1,0-0.4-0.1-0.5c-0.4-0.3-0.8-0.7-1.1-0.7c-0.8,0.1-1.7,0.4-2.5,0.6c-0.8,0.3-1.8,0.3-2.4,1.1c-0.2,0.2-0.6,0.3-0.9,0.3
		c-0.9,0.1-1.6,0.3-2.5,0.8c-1,0.7-2.4,1-3.6,1.4c-1.1,0.3-2-0.6-1.9-1.7c0.1-0.8,0.2-1.5,0.3-2.3c0.1-0.7,0.1-1.3,0.2-2.3
		C113.7,61.8,113.3,62,113.2,62.2z M15.2,243.4c-0.2-0.1-0.4-0.1-0.6-0.2c-0.9-0.2-1.9-0.3-2.8-0.5c-1.1-0.2-2.1-0.5-3.2-0.9
		c-0.5-0.1-0.9-0.6-1.3-0.5c-0.3,0.1-0.6,0.6-0.9,1c-0.6,0.6-1.3,1-1.7,1.7c-0.3,0.6-0.5,1.4-0.4,2c0.2,1.3,0.4,2.7,0.9,3.9
		c0.4,1,0.3,2.2,1.3,2.9c0.6,0.4,0.9,1.2,1.2,1.9c0.7,1.5,1.9,2.5,3.2,3.4c0.5,0.3,0.8,0.8,1.3,1.2c0.2,0.1,0.4,0.3,0.6,0.3
		c0.2,0.1,0.5,0.1,0.6,0.2c1.4,1.1,3.1,1.2,4.7,1.9c0.4,0.2,0.9,0.2,1.3,0.3c0.2,0,0.4-0.2,0.6-0.3c-0.1-0.2-0.2-0.4-0.3-0.5
		c-2-1.4-3-3.3-3-5.7c0-1.4-0.3-2.8-0.3-4.2c0-0.9,0-1.7,0.1-2.6c0-0.2,0-0.4,0-0.6c0.1-0.9,0.2-1.7,0.3-2.6c0.1-0.5,0.2-1,0.3-1.3
		C16.3,243.9,15.7,243.6,15.2,243.4z M55.8,266.6c-0.8-0.4-1.5-0.8-1.8-1.8c0-0.2-0.3-0.3-0.3-0.5c-0.4-0.8-0.8-1.6-1.1-2.4
		c-0.2-0.5-0.2-1.1-0.3-1.6c0-0.2-0.2-0.5-0.1-0.7c0.4-1.3-0.5-2.3-0.5-3.5c0.1-1.7-0.5-3.3,0.1-5c0.4-1.1,0.2-1.3-1-1.2
		c-0.5,0-1.1-0.2-1.6-0.3s-0.9-0.3-1.4-0.4c-0.7-0.1-1.4-0.3-2.2-0.4c-0.6-0.1-1.3-0.2-2-0.3c-0.5-0.1-1-0.2-1.4-0.3
		c-0.3-0.1-0.5-0.2-1-0.3c0.3,1.8-1.3,2.5-1.8,3.7c-0.2,0.5-0.4,0.8-0.1,1.3c0.5,1.1,0.6,2.4,1.2,3.4c0.5,1,0.5,2.2,1.6,2.9
		c0.6,0.4,1,1.1,1.4,1.7c0.9,1.5,2.3,2.5,3.9,3.4c0.4,0.2,0.7,0.6,1,0.9c0.1,0.1,0.1,0.2,0.2,0.3c0.8,0.4,1.6,0.8,2.5,1
		c1.1,0.3,2.2,0.5,3.3,0.7c0.5,0.1,1,0.2,1.4,0.2c0.2,0,0.5-0.2,0.9-0.5C56.3,266.8,56.1,266.7,55.8,266.6z M119.7,62.9
		c0.1-0.1,0.2-0.3,0.4-0.3c2-0.4,1-2.1,1.5-3c-0.8-0.4-1.4-0.8-2.1-1.1c-0.4-0.2-0.9-0.1-1.3,0c-0.1,0-0.1,0.5-0.2,0.8
		c-0.1,0.8-0.2,1.6-0.3,2.5c-0.1,0.6-0.2,1.2-0.2,1.8C118.5,63.7,119.2,63.5,119.7,62.9z"/>
	<path class="st0" d="M4.9,149.1c2.2-0.7,3.2,0.7,4.3,2.2c0.2,0.3,0.6,0.5,0.9,0.7c0.4,0.2,0.8,0.3,1.1,0.7s0.6,0.4,1,0.2
		c0.9-0.4,1.5-0.2,2.4,0.4c1.1,0.8,2.4,1.2,3.7,1.7c1.6,0.6,3.3,1.1,5,1.7c0.1,0,0.1,0,0.2,0.1c1,1.1,2.5,0.9,3.8,1.5
		c0.9,0.4,1.8,0.9,2.7,1.3c0.1,0,0.1,0.1,0.2,0.2c1.1,0.4,2.1,0.7,3.2,1.1c0.9,0.4,1.8,0.8,2.7,1.2c0.3,0.1,0.7,0.2,1.1,0.2
		c0.3,0,0.7-0.2,0.9-0.1c1.4,0.4,2.8,0.8,4.2,1.2c0.8,0.3,1.5,0.6,2.2,0.9c0.2,0.1,0.4,0.1,0.6,0.1c1-0.6,1.9-0.2,2.9,0
		c1.3,0.3,2.6,0.6,3.9,0.9c0.2,0,0.5-0.1,0.7-0.2c0.6-0.1,1.3-0.3,1.8-0.1c1.1,0.4,2.1,0.5,3.1-0.2c0.1-0.1,0.3-0.2,0.5-0.2
		c1.7-0.3,3.4-0.5,5.2-0.8c0.4-0.1,0.8-0.2,1.2-0.4c0.9-0.4,1.8-0.9,2.8-1.2c1.2-0.4,2.2-1.5,3.4-2.2c1-0.6,1.8-1.3,2.7-2
		c0.8-0.6,1.6-1.2,2.2-2.1c0.8-1,1.8-1.8,2.8-2.7c0.5-0.5,1-0.4,2.1,0.1c0.2-0.2,0.3-0.5,0.5-0.7c0.4-0.4,1.3-0.3,1.3,0.2
		c0.2,1.4,1.4,1.9,2.1,2.8c0.4,0.6,0.7,1.3,1,1.9c0.1,0.2,0.1,0.5,0.2,0.7c0.1,0.1,0.3,0.3,0.5,0.3c0.1,0,0.3-0.3,0.3-0.4
		c0-0.8,0-1.5,0-2.3c0-0.2-0.1-0.4,0-0.6c0.1-2.8,0.2-5.6,0.3-8.4c0-2.1,0-4.1-0.1-6.2c0-0.3-0.1-0.7,0-0.9c0.8-1.7,0-3.3-0.1-5
		c0-1.6-0.3-3.3-0.1-4.9c0.4-2.1-0.3-4.3,0.2-6.4c0.2-0.9-0.4-1.9-0.1-2.8c0.6-1.9-0.3-3.6,0-5.4c0.2-1.1,0.2-2.2,0.4-3.3
		c0-0.3,0.3-0.5,0.3-0.8c0.1-0.2,0.1-0.6,0-0.8c-0.7-0.9-0.5-1.7-0.1-2.6c0.4-1-0.1-2.1-1-2.4c-1.1-0.4-1.6-1.3-1.3-2.3
		c0.3-1,1.3-1.6,2.4-1.3c0.9,0.3,1.7,0.8,2.5,1.5c0.8,0.8,1.8,1.5,2.8,2.1c0.6,0.4,1.4,0.4,2.1,0.6c0.9,0.3,1.7,0.9,2.6,1.2
		c2.2,0.9,4.4,1.7,6.6,2.6c0.2,0.1,0.5,0.1,0.7,0.2c1.1,0.8,2.2,0.6,3.4,0.4c1-0.1,2-0.2,3-0.4c0.4-0.1,1-0.3,1.3-0.6
		c1.2-1.4,2.7-2.7,3.5-4.4c0.8-1.6,1.8-3.1,2.8-4.6c0.1-0.1,0.2-0.3,0.2-0.4c0.1-2.3,1.3-4.1,2.2-6.1c0.3-0.7,0.4-1.4,0.6-2.1
		c0.5-1.3,1-2.7,1.4-4c0.1-0.2,0-0.6-0.2-0.6c-0.9-0.6-2-1-2.9-1.7c-1.3-1.1-3-1.2-4.4-1.8c-1.4-0.6-2.9-1-4.4-1.5
		c-1-0.3-2-0.7-3-1.1c-0.3,0.8-0.6,1.6-0.8,2.5c-0.5,1.9-1.5,3.4-3.1,4.5c-0.7,0.4-1.2,1.2-1.8,1.7c-0.3,0.3-0.7,0.7-1.1,0.7
		c-2.5,0.3-4.8-0.3-6.7-2.1c-0.4-0.4-1.1-0.6-1.7-0.8c-0.4-0.2-1-0.2-1.3-0.5c-1.3-1.4-3-2.1-4.6-3c-0.3-0.2-0.6-0.4-0.9-0.6
		c-1.2-0.8-2.4-1.7-3.6-2.5c-0.9-0.7-1.8-1.3-2.8-1.8c-1.3-0.7-2.4-1.9-3.6-2.8c-0.2-0.2-0.3-0.4-0.5-0.6c-0.3-0.3-0.7-0.7-1.1-0.8
		c-1-0.3-1.8-0.9-2.3-1.8c-0.4-0.7-0.9-1.1-1.6-1.4c-0.6-0.3-1.2-0.8-1.5-1.3c-0.6-0.9-1.5-1.3-2.4-1.6c-1.2-0.3-2.5-0.3-3.7-0.6
		c-0.6-0.1-1.2-0.6-1.9-0.8c-0.4-0.2-0.8-0.3-1.2-0.3c-1,0.1-1.8,0-2.7-0.6c-0.8-0.5-1.8-0.8-2.7-1.2c-0.1,0-0.1-0.1-0.2,0
		c-2.4,0.6-4.6-0.4-6.9-0.9c-1.4-0.4-2.8-0.6-4.2-0.7c-1.2-0.1-2.3-0.6-3.5-0.9c-1.3-0.3-2.6-0.8-3.9-0.9c-1.3-0.1-2.5-1-3.9-0.7
		c-0.4,0.1-0.6,0.2-0.7,0.6c-0.7,1.9-1.1,3.9-2.2,5.6c-0.1,0.2-0.2,0.4-0.2,0.6c-0.6,2.6-1,5.2-1.8,7.7c-0.4,1.2-0.6,2.5-0.7,3.7
		c0,0.2,0,0.3,0,0.5c0.4,1.1,0.8,2.2,1.2,3.4c0,0,0.2-0.1,0.4-0.1c0.8,1.6,2.1,2.6,3.6,3.4c0.1,0.1,0.2,0.1,0.3,0.2
		c0.6,1.4,2,1.2,3.1,1.5c0.7,0.2,1.5,0.4,2.3,0.4c1.9-0.2,3.9,0.7,5.8-0.2c0.3-0.1,0.7-0.2,0.9-0.1c1,0.4,1.5-0.2,2.1-0.8
		c0.6-0.6,1.2-0.9,2.1-0.8c0.2,0,0.4,0.1,0.5,0c1.6-1.2,3.5-1.7,5.2-2.5c0.7-0.3,1.3-1,2-1.4c0.4-0.2,1-0.4,1.4-0.3
		c0.8,0.1,1-0.3,1.3-0.9s0.7-1.3,1.1-1.8c0.9-0.9,1.9-1.7,2.8-2.5c0.5-0.4,0.9-1,1.3-1.4c0.5-0.5,1.2-0.6,1.8-0.2
		c0.7,0.5,0.8,1.2,0.4,1.8c-0.7,1.2-1.5,2.3-2.3,3.4c-0.2,0.3-0.4,0.5-0.7,0.8c-0.8,1-1.7,1.7-3.1,1.8c-0.6,0.1-1.1,0.3-1.3,1.1
		c-0.3,1.2-1.5,1.5-2.4,2.2c-1.3,1-2.9,1.2-4.4,1.7c-0.8,0.3-1.6,0.5-2.3,0.7h-0.1c-0.9,1.6-2.5,1-3.8,1.4c-0.2,0.1-0.4,0.3-0.6,0.4
		c-0.4,0.2-0.8,0.6-1.2,0.7c-1.1,0.2-2.3,0.4-3.4,0.5C39,92.4,38,92.4,37,92c-0.9-0.4-2-0.3-2.9-0.7c-1.1-0.4-2-1-3.1-1.6
		c-0.1-0.1-0.2-0.1-0.3-0.1c-1,0.3-1.9,0-2.8-0.8c-0.4,1-0.8,1.9-1.2,2.8c-0.4,0.8-0.7,1.7-1.1,2.5c-0.7,1.4-1.5,2.8-2.1,4.2
		c-0.4,0.9-0.3,1.9-0.6,2.8c-0.5,1.3-0.7,2.8-1.7,3.9c-0.1,0.1-0.1,0.3-0.2,0.4c-0.3,0.8-0.5,1.6-0.8,2.4c-0.2,0.7-0.4,1.4-0.7,2.1
		c-0.5,1.1-1,2.2-1.6,3.3c-0.1,0.2-0.3,0.4-0.3,0.6c0.1,1.4-0.7,2.5-1.2,3.8c-0.4,1-0.9,2-1.2,3c-0.3,0.8-0.4,1.6-0.5,2.4
		c0,1.2-0.8,1.9-1.3,2.8c-0.2,0.3-0.2,0.6-0.3,1c-0.4,1.5-0.8,3-1.3,4.5c-0.1,0.3-0.4,0.6-0.6,1c-0.2,0.4-0.4,0.8-0.6,1.2
		c-0.2,0.4-0.2,0.9-0.5,1.2c-0.9,1-1.2,2.3-1.5,3.5c-0.2,1.1-0.7,2.1-1.5,2.8c-0.2,0.2-0.4,0.5-0.4,0.7c0.1,1.4-0.6,2.7-1.1,3.9
		c-0.4,1.1-0.8,2.2-1.2,3.4C4.7,149,4.8,149.1,4.9,149.1z"/>
	<path class="st1" d="M77.7,158.4c-0.6,0.5-1.2,1.1-1.8,1.6c-0.1,0.1-0.2,0.4-0.3,0.5c-1.2,0.9-2.5,1.7-3.7,2.6
		c-0.3,0.2-0.6,0.3-0.9,0.5c-0.6,0.7-1.4,1-2.3,1.1c-0.1,0-0.3,0-0.4,0.1c-0.8,1.2-2.3,0.9-3.4,1.5c-0.9,0.4-1.8,0.9-2.7,1.2
		c-0.5,0.2-1.1,0.1-1.7,0.1c-0.3,0-0.6,0.2-0.9,0.2c-0.6,0.1-1.3,0.1-1.9,0.1c-1,0-2-0.1-3,0.2c-0.9,0.2-1.6,0.4-2.4-0.2
		c-0.1-0.1-0.4-0.2-0.5-0.2c-1.9,0-3.7,0-5.6-0.1c-0.4,0-0.8-0.2-1.3-0.4c0,0.3-0.1,0.6,0,0.8c0.4,1.1,0.8,2.2,0.5,3.4
		c0,0.1,0,0.2,0,0.3c0.8,1.8-0.1,3.6,0,5.4c0,0.1,0,0.2-0.1,0.3c-1,1.2-0.3,2.5-0.1,3.8c0,0.3,0.1,0.5,0,0.8c-0.7,1.8,0,3.6-0.2,5.4
		c-0.1,1.3,0.2,2.6-0.3,3.8c-0.4,1.1-0.2,2.1-0.2,3.2c-0.1,1.8-0.3,3.6-0.4,5.5c0,0.7,0.1,1.3,0,2c-0.1,1.4-0.6,2.8-0.5,4.1
		s-0.1,2.5-0.3,3.7s-0.2,2.3-0.2,3.4c0.1,0.9-0.8,1.8-0.8,2.6c0.1,0.9,0.4,1.8,0.1,2.7c-0.1,0.3-0.2,0.5-0.4,0.8
		c-0.1,0.2-0.2,0.4-0.2,0.5c0,0.8-0.1,1.6,0,2.4c0.1,1.3,0,2.5-0.7,3.6c-0.1,0.1-0.1,0.2-0.1,0.3c0.5,2.3-0.8,4.4-0.9,6.6
		c0,1.8-0.7,3.5-0.7,5.3c0,0.1,0,0.2,0,0.3c-1,1.4-0.4,3.3-1.4,4.7c-0.5,0.6,0,1.3,0.8,1.4c1.6,0.3,3.3,0.5,4.9,0.9
		c1.7,0.4,3.3,1,4.9,1.4c0.2,0.1,0.5,0,0.7,0c0.7,0.1,1.3,0.2,2,0.3c0.5,0.1,1,0.1,1.5,0.2c0.7,0.1,1.5,0.2,2.2,0.3
		c0.5,0.1,0.7-0.2,0.8-0.7c0.3-1.4,0.8-2.8,1.2-4.2c0-0.1,0.1-0.1,0.1-0.2c-0.2-1.7,0.7-3,1.1-4.6c0.3-1.2,0.9-2.4,1.1-3.7
		c0.2-1.1,0.8-2,0.9-3.2c0.1-1.5,0.8-3,1.2-4.6c0.3-1.2,0.7-2.3,1-3.5c0.4-1.7,0.8-3.4,1.3-5.1c0.4-1.4,0.9-2.8,1.3-4.2
		c0.2-0.6,0-1.2,0.1-1.8c0.3-1.2,0.8-2.5,1-3.7c0.3-1.7,1.5-3.2,1.2-5c-0.1-0.4,0.2-0.9,0.4-1.4c0.2-0.8,0.4-1.7,0.6-2.5
		c0.1-0.3,0.1-0.8,0.3-1c0.8-0.8,0.5-1.8,0.8-2.7c0.3-1,0.5-1.9,0.9-2.9c0.2-0.7,0.4-1.3,0.4-2c0-1,0.4-2,0.6-3
		c0.1-0.4,0.2-0.8,0.3-1.2c0.1-0.4,0.1-0.8,0.2-1.1c0.7-1.4,1-2.8,1-4.3c0-0.2-0.1-0.4,0-0.5c0.7-1.1,0.4-2.5,0.7-3.6
		c0.1-0.3,0.2-0.6,0.3-0.9c0.4-0.6,0.7-1.1,0.6-1.9c0-0.3,0.3-0.6,0.3-0.9c0.2-0.7,0.3-1.5,0.5-2.2c0.1-0.7,0.1-1.4,0.4-2
		c0.5-1,0.7-2,0.9-3.1c0.2-1.6,0.2-3.1,0.9-4.6c0.3-0.6,0.3-1.4,0.4-2.2C77.9,158.6,77.8,158.5,77.7,158.4z"/>
	<path class="st1" d="M15.2,157.6c-0.5,1.4,0.4,3-1,4.3c1.4,1.2,0.1,2.6,0.2,3.9c0,0.2-0.1,0.4-0.1,0.6c0,2,0.1,3.9,0,5.9
		c-0.1,1-0.5,2-0.7,3c-0.1,0.3-0.1,0.6,0,0.8c0.5,1.4,0.4,2.7,0.2,4.1c-0.3,1.6-0.5,3.2-0.7,4.8c-0.1,0.6,0.2,1.2,0.2,1.8
		c0,0.7-0.3,1.4-0.4,2.1c-0.1,0.8-0.2,1.7-0.3,2.5c-0.2,1.6-0.4,3.2-0.6,4.7c-0.1,0.5,0.2,1.1,0,1.6c-0.3,1.1-0.1,2.1-0.1,3.2
		c-0.1,1.5-0.3,3.1-0.6,4.6c-0.2,1.3-0.7,2.5-0.9,3.7c-0.2,1-0.2,2.1-0.3,3.1c-0.1,0.8-0.1,1.7-0.2,2.5c-0.1,0.8-0.2,1.7-0.5,2.5
		c-0.4,1-0.6,2-0.6,3.1c0,1.4-0.4,2.8-0.8,4.1c-0.3,1.2-0.9,2.4-1.2,3.6c-0.2,1-0.3,2-0.4,3c0,0.1,0,0.2,0,0.3c-0.5,1-1,2-0.6,3.2
		c0.1,0.2-0.2,0.7-0.4,0.9c-0.5,0.4-0.4,1-0.2,1.4c0.2,0.3,0.6,0.5,0.9,0.5c1.3-0.2,2.3,0.6,3.4,0.9c1.5,0.5,3,1,4.6,1.6
		c0.9,0.3,1.7,0.8,2.7,0.7c0.9-0.1,1.8,0.4,2.6,0.6c0.9,0.2,1.6-0.1,2-0.9c0.2-0.4,0.5-0.9,0.4-1.4c-0.1-1.4,0.6-2.4,1.4-3.5
		c0.4-0.5,0.2-1.3,0.4-2c0.2-0.6,0.5-1.2,0.8-1.8c0-0.1,0.2-0.2,0.2-0.3c0.1-1.7,1.4-2.9,1.8-4.4c0.1-0.2,0-0.4,0-0.7
		c0-0.6-0.1-1.3,0.1-1.9c0.9-2,1.4-4.2,2.1-6.3c0.4-1.2,0.9-2.3,1.3-3.4c0-0.1,0.1-0.3,0.1-0.4c0.2-1.2,0.3-2.5,0.7-3.5
		c0.4-0.9,0.6-1.7,0.8-2.7c0.2-1.2,0.7-2.4,1.1-3.6c0.1-0.4,0.1-0.7,0.2-1.1c0-0.1-0.1-0.3,0-0.4c1-1.5,0.3-3.3,1.1-4.8
		c0.7-1.4,0.7-3,1.1-4.5c0-0.1,0-0.1,0-0.2c-0.1-1.1,1.3-1.5,1-2.8c-0.2-0.9,0.5-1.9,0.7-2.9c0.1-0.5,0.1-1,0.1-1.5
		c-0.1-1.1,0.1-2.2,0.9-3.1c0.1-0.1,0.2-0.4,0.2-0.5c-0.5-1.7,0.2-3.3,0.6-5c0.3-1.1,0.5-2.3,0.7-3.4c0-0.1,0-0.3,0-0.3
		c0.6-1,0.5-2.1,0.6-3.2c0.1-0.9,0.6-1.7,1-2.6c0.4-1,0.3-1.4-0.7-1.7c-0.8-0.2-1.5-0.4-2.3-0.6c-0.4-0.1-1-0.2-1.1-0.6
		c-0.6-1-1.7-0.8-2.6-1c-0.6-0.1-1.2-0.3-1.8-0.5c-1.1-0.4-2.1-0.8-3.2-1.2c-0.6-0.2-1.3-0.2-1.8-0.4c-1.3-0.5-2.5-1.1-3.8-1.6
		c-0.1,0-0.2-0.1-0.2-0.1c-1.2,0.3-2.1-0.7-3.2-0.9c-0.2,0-0.4-0.2-0.5-0.3c-1.2-0.5-2.4-1.1-3.6-1.6
		C15.7,157.6,15.4,157.6,15.2,157.6z"/>
	<path class="st0" d="M76,15.1c2-0.2,4-0.3,5.9-0.9c1.3-0.4,2.6-0.9,3.8-1.6c0.8-0.4,1.5-0.4,2,0.3c0.2,0.3,0.4,0.6,0.7,0.9
		c0.2,0.3,0.5,0.6,0.8,0.7c0.8,0.2,1.2,0.8,1.5,1.4c0.5,0.9,0.9,1.9,1.4,2.8c0.1,0.2,0.1,0.3,0.2,0.5c0.8,1.3,1.1,2.9,1.4,4.4
		c0.2,0.9,0,1.9,0.7,2.6c0.2,0.2,0.2,0.5,0.2,0.7c0,1.1,0.1,2.2,0,3.3c0,0.8,0.2,1.3,0.9,1.8c1.2,0.9,2.3,1.9,3.4,2.9
		c0.5,0.5,0.4,1.6-0.1,1.9c-0.8,0.6-1.7,1.1-2.5,1.6c-0.4,0.3-0.8,0.6-1.1,1c-0.4,0.5-0.9,0.7-1.6,0.6c-1.9-0.3-3.8-0.6-5.8-0.9
		c-1.5-0.2-2.6,1-2.2,2.4c0.3,1.2,0.6,2.3,1,3.5c0.8,2.3,2.4,4,4.6,5.2c0.3,0.2,0.8,0.5,0.9,0.9c0.3,1-1.3,3.5-2.2,3.9
		c-1.4,0.6-3.1,0.5-4.4,1.7c-0.1,0.1-0.2,0-0.3,0c-2,0.2-4,0.4-6.1,0.6c-0.9,0.1-1.7,0.4-2.6-0.1c-0.4-0.2-1.2,0-1.6,0.3
		c-0.6,0.4-0.9,0.3-1.4-0.1c-0.7-0.5-1.4-0.7-2.3-0.7s-1.7-0.1-2.6-0.2c-1-0.1-2.1,0.5-2.2,1.3c-0.2,0.7-0.2,1.5-0.2,2.2
		c0,0.3-0.1,0.5-0.2,0.8c-0.2,0.6-0.5,1.1-0.5,1.7c0,0.9,0.2,1.8,0.3,2.7c-0.1,0-0.3-0.1-0.5-0.1c-1.2-0.2-2.3-0.4-3.5-0.6
		c-0.5-0.1-1-0.2-1.4-0.3c-0.6-0.2-1.2-0.7-1.9-0.8c-1-0.2-2.1-0.1-3.2-0.2c-0.4,0-0.7-0.3-1.1-0.5c-0.4-0.2-0.8-0.5-1.2-0.6
		c-1.2-0.3-2.4-0.6-3.7-0.9c-1.1-0.3-1.4-1-0.9-2c0.3-0.8,0.4-1.6,0.5-2.4c0.1-0.6,0.1-1.1,0.1-1.7c0-0.1,0.1-0.3,0.2-0.4
		c0.9-0.6,1.7-1.2,2.6-1.7c1.1-0.6,2.3-1.1,3.4-1.9c0.9-0.6,1.8-1.2,2.3-2.3c0.3-0.6,0.7-1.2,1.2-1.7c0.7-0.7,0.8-1.3,0.3-2.2
		c-0.9-1.8-1.8-3.5-2.6-5.4c-0.3-0.7-0.6-1.6-0.5-2.4c0.2-0.9,0.7-1.7,1.3-2.4c0.2-0.3,1-0.1,1.5-0.1c0.1,0,0.2,0,0.3,0
		c0.9-0.4,1.6-0.2,2.3,0.4c0.2,0.2,0.6,0.3,0.8,0.4c0.5,0.3,0.9,0.6,1.3,0.8c0.4,0.2,0.9,0.4,1.2,0.2c0.3-0.1,0.8-0.8,0.7-1
		c-0.4-1.2,0-1.8,1.1-2.3c0.1,0,0.2-0.2,0.2-0.3c0.5-0.6,1-1.3,1.5-1.9c0.6-0.7,1-1.4,1-2.3c0-0.2,0.2-0.5,0.4-0.7
		c0.7-1,1.6-1.9,1.8-3.2c0.4-2,0.9-4,1.3-6.1c0-0.2,0.1-0.5,0-0.7c-0.2-1-0.3-1.9-0.5-3C73.7,15,74.8,15.2,76,15.1z M84.7,31.9
		c-0.7-0.3-1.5-0.7-2.3-0.7C81,31,80,31.9,79.2,32.8c-1.7,2.3-0.4,4.8,2.3,5.6c2.2,0.6,3.1-1,4.4-2c0.4-0.3,0.4-1.2,0.6-1.8
		C86.4,33.3,85.9,32.4,84.7,31.9z M90.6,32.5c0.9-0.1,2.1-1.7,2-2.6c-0.2-1.5-1.3-2.3-2.8-2.2c-1.2,0.1-2.3,1.5-2.2,2.8
		C87.8,31.7,89.2,32.7,90.6,32.5z"/>
	<path class="st1" d="M39.2,22.9c-0.3,1.1-1,1.8-2.1,2.2c-0.7,0.3-1.2,1.2-1.6,1.9c-0.6,1-1.1,2.1-1.4,3.2c-0.2,0.7,0,1.5,0.1,2.3
		c0.1,1.1,0,2.2,0.2,3.3s0.8,2.1,1.2,3.1c0.4,1.1,0.8,2.2,1.4,3.2c0.3,0.6,0.9,1,1.3,1.6c0.2,0.3,0.4,0.6,0.5,0.9
		c0.2,1,1.1,1.6,1.8,2.1c1,0.6,1.6,1.2,1.5,2.5c1.5-0.2,2.1,0.6,2.7,1.8c0.3,0.6,1.1,0.9,1.8,1.4c0.1-0.1,0.3-0.2,0.5-0.4
		c1-0.6,2-1.2,3-1.8c0.9-0.6,1.8-1.3,2.7-2c1-0.8,2-1.6,3.5-1.8c-0.3-0.4-0.4-0.8-0.7-1c-1.7-1.5-2.3-3.5-2.8-5.5
		c-0.5-2.1,0.3-4.1,1-6.1c0.2-0.7,1.2-1.2,1.9-1.7c0.6-0.5,1.3-0.8,2-1.1c0.5-0.2,1.1-0.3,1.6-0.2c1.3,0.3,2.7,0.7,3.9,1.1
		c1-1.4,1.9-2.7,2.8-4c0.1-0.2,0.4-0.4,0.6-0.5c0.8-0.2,0.8-0.9,1-1.5c0.4-1.3,0.8-2.5,1.2-3.8c0.4-1.2,0.7-2.4,0.7-3.7
		c0-0.8,0.3-1.6,0.6-2.3c0.4-1,0.4-1.9-0.3-2.8c-0.6-0.8-0.4-1.7,0.6-2.1c1.1-0.4,2.1-0.2,3.2-0.1c1.4,0.1,2.8,0.2,4.2,0.2
		c1,0,2-0.3,3-0.6c1.1-0.3,2.1-0.8,3-1.3c1.1-0.7,2.2-1.3,2.7-2.6c0.1-0.2,0.3-0.3,0.4-0.5c0.2-0.3,0.4-0.6,0.6-1
		c-1.6,0.4-3,0.7-4.3,1.1c-0.9,0.2-1.6,0.2-2.4-0.2c-0.4-0.3-1.1-0.3-1.7-0.4c-1.2-0.2-2.3-0.4-3.5-0.6C74.5,5,73.4,5,72.3,4.7
		c-0.7-0.2-1.4-0.6-2.2-0.8c-0.4,0-0.8,0-1.2,0c-0.5-0.1-1.1-0.1-1.6-0.2c-0.3,0-0.6,0-0.9,0c-0.8,0-1.6,0.2-2.4,0.1
		c-1.7-0.1-3.5-0.2-5.1-0.6c-1.6-0.5-3,0.4-4.6,0.3c-0.3,0-0.5,0.1-0.8,0.1c-1,0-1.9,0-2.7,0.8c-0.2,0.2-0.7,0.4-1,0.3
		c-0.9-0.1-1.3,0.4-1.9,1c-0.5,0.5-1.2,0.8-1.9,1.2s-1.3,0.6-1.4,1.7c0,0.6-0.6,1.1-0.9,1.7c-0.2,0.4-0.5,0.8-0.5,1.2
		c-0.1,2.1-0.2,4.3-0.3,6.4c0,0.8,0.2,1.6,0.4,2.3c0.3,1,0,1.5-0.9,1.8c-0.1,0-0.3,0-0.4,0.1C41.4,23.1,40.4,23.2,39.2,22.9z"/>
	<path class="st1" d="M111.6,21.9c0.1-0.4,0.2-0.8,0.4-1.1c0.4-0.7,0.9-1.3,1.2-2c0.4-1,0.3-2.2,1.1-3c0.1-0.2,0.2-0.4,0.2-0.6
		c0.1-0.7,0.5-1.2,1.2-1.4c0.3-0.1,0.6-0.5,0.9-0.8c0.4-0.4,0.8-1,1.3-1.3c0.5-0.4,1.2-0.5,1.8-0.8c1.3-0.6,2.6-1.1,4.1-0.6
		c0.9,0.3,1.9,0.2,2.7,0.8c0.1,0.1,0.4,0,0.6,0.1s0.4,0.1,0.6,0.3c0.5,0.3,0.9,0.8,1.4,1c0.7,0.4,1.4,0.8,1.6,1.7
		c0,0.2,0.3,0.4,0.4,0.6c1.2,1.3,2.3,2.5,3,4.1c0.1,0.2,0.4,0.4,0.5,0.6c0.2,0.3,0.3,0.7,0.4,1c0.2,0.7,0.3,1.4,0.5,2
		c0.2,0.7,0.6,1.3,0.7,2c0.3,1.9,0.5,3.7,0.7,5.6c0.1,0.6,0,1.2,0,1.9c-0.1,1.2-0.2,2.5-0.3,3.7s-0.3,2.5-0.5,3.7
		c-0.1,0.6-0.1,1.2-0.1,1.8c0,0.2,0.1,0.5,0,0.7c-1,1.3-0.9,3.2-2.1,4.5c-0.1,0.1-0.2,0.4-0.2,0.6c-0.1,0.8-0.4,1.4-0.9,2.1
		c-1,1.3-1.6,2.8-3.1,3.7c-1.3,0.8-2.3,2-3.6,2.6c-1.3,0.6-2.8,0.6-4.2,0.8c-0.1,0-0.2,0-0.2-0.1c-0.5-0.6-1.1-0.3-1.5,0
		c-0.5,0.4-0.9,0.3-1.4,0c-1.2-0.6-2.2-1.6-3.7-1.5c-0.2,0-0.5-0.5-0.7-0.8c-0.4-0.6-0.6-1.3-1-1.8c-0.8-0.9-1.7-1.7-2.6-2.4
		c-0.5-0.4-0.6-0.8-0.5-1.4c0.1-0.9,0.1-1.8,0-2.7c0-0.5-0.3-0.9-0.3-1.4c-0.1-2.1-0.1-4.1-0.1-6.2c0-0.8-0.2-1.6-0.3-2.4
		c-0.1-0.6-0.2-1.2-0.2-1.8c0-0.2,0-0.4,0.1-0.5c0.3-0.8,0.6-1.5,0.8-2.3c0.4-1.8,0.6-3.7,1-5.5c0.2-1,0.5-2.1,0.8-3.1
		C111.8,22,111.7,22,111.6,21.9z M122.3,51.9c2.1-1.1,3.8-2.6,4.8-4.8c0.1-0.1,0.1-0.3,0.3-0.3c1.3-0.8,1.6-2.1,2-3.5
		c0.2-0.8,0.7-1.6,1-2.4c0.3-0.9,0.3-1.8,0.5-2.7c0.1-0.3,0.1-0.6,0.2-0.9c0.1-0.4,0.3-0.8,0.4-1.2c0.2-0.9,0.1-1.8,0.6-2.7
		c0.2-0.4,0.1-1-0.1-1.4c-0.4-0.6-0.2-1.1-0.2-1.7c0.1-0.7,0.1-1.4,0.1-2.1c0.1-2.1-0.1-4.3-0.9-6.2c-0.7-1.6-0.8-3.7-2.8-4.5
		c-0.2-0.1-0.3-0.3-0.4-0.5c-0.2-0.3-0.2-0.6-0.5-0.8c-1.4-1-2.3-2.6-4.1-3.1c-0.7-0.2-1.3,0-1.8,0.6c-0.2,0.2-0.5,0.3-0.8,0.5
		c-0.7,0.4-1.4,0.8-2,1.3c-0.4,0.4-0.8,0.8-1.1,1.3c-0.9,1.4-1.9,2.8-2.4,4.4c-0.4,1-1,2-1.5,3c-0.2,0.4-0.1,1-0.2,1.4
		c-0.2,0.9-0.4,1.7-0.6,2.6c-0.1,0.4-0.2,0.9-0.2,1.4c-0.1,0.6-0.1,1.3-0.2,1.9c0,0.2-0.1,0.5,0,0.6c0.5,0.8,0.1,1.6,0.2,2.4
		c0,0.1,0,0.1,0,0.2c-0.8,1-0.6,2.1-0.6,3.3c0,0.3-0.1,0.6,0,0.9c0.5,1.2,0.4,2.6,0.6,3.9c0.1,0.5,0.5,0.9,0.8,1.4
		c0.2,0.3,0.6,0.7,0.6,1c-0.2,1.4,0.8,2.3,1.2,3.5c0.2,0.5,0.4,0.9,0.5,1.3c0.5,1.4,1.8,1.9,3.1,2.2c0.7,0.2,1.4,0.2,2.2,0.2
		C121.4,52.2,121.9,52.1,122.3,51.9z"/>
	<path class="st0" d="M114.1,61.6c-0.4,0.3-0.8,0.4-0.9,0.6c-0.5,1.2-0.8,2.4-1.3,3.5c-0.4,1.1-0.7,2.3-1.5,3.2
		c-1.3,1.5-2,3.1-2.3,4.9c-0.1,0.6,0.4,1.3,0.6,1.9c0.1,0.4,0.2,0.8,0.5,1.2c0.3,0.4,0.6,0.9,1,1.1c1.1,0.5,2.3,0.9,3.5,1.3
		c0.8,0.3,1.5,0.3,2.3,0c0.9-0.4,2-0.5,2.9-0.6c1.8-0.2,3.7-0.3,5.5-0.5c-0.5-0.2-1.3-1.2-1.2-1.9c0.1-0.7,0.1-1.4,1.1-1.5
		c0.8-0.1,1-0.7,0.7-1.5c-0.5-1.1,0.3-1.8,0.9-2.5c0.3-0.4,0.4-0.6,0.1-1.1c-0.7-1.2-0.6-1.8,0.5-2.8c0.7-0.6,1.3-1.3,1.9-2.1
		c0.1-0.1,0-0.4-0.1-0.5c-0.4-0.3-0.8-0.7-1.1-0.7c-0.8,0.1-1.7,0.4-2.5,0.6c-0.8,0.3-1.8,0.3-2.4,1.1c-0.2,0.2-0.6,0.3-0.9,0.3
		c-0.9,0.1-1.6,0.3-2.5,0.8c-1,0.7-2.4,1-3.6,1.4c-1.1,0.3-2-0.6-1.9-1.7c0.1-0.8,0.2-1.5,0.3-2.3C113.9,63.3,114,62.6,114.1,61.6z"
		/>
	<path class="st0" d="M17.1,244.3c-0.8-0.4-1.3-0.7-1.9-0.9c-0.2-0.1-0.4-0.1-0.6-0.2c-0.9-0.2-1.9-0.3-2.8-0.5
		c-1.1-0.2-2.1-0.5-3.2-0.9c-0.5-0.1-0.9-0.6-1.3-0.5c-0.3,0.1-0.6,0.6-0.9,1c-0.6,0.6-1.3,1-1.7,1.7c-0.3,0.6-0.5,1.4-0.4,2
		c0.2,1.3,0.4,2.7,0.9,3.9c0.4,1,0.3,2.2,1.3,2.9c0.6,0.4,0.9,1.2,1.2,1.9c0.7,1.5,1.9,2.5,3.2,3.4c0.5,0.3,0.8,0.8,1.3,1.2
		c0.2,0.1,0.4,0.3,0.6,0.3c0.2,0.1,0.5,0.1,0.6,0.2c1.4,1.1,3.1,1.2,4.7,1.9c0.4,0.2,0.9,0.2,1.3,0.3c0.2,0,0.4-0.2,0.6-0.3
		c-0.1-0.2-0.2-0.4-0.3-0.5c-2-1.4-3-3.3-3-5.7c0-1.4-0.3-2.8-0.3-4.2c0-0.9,0-1.7,0.1-2.6c0-0.2,0-0.4,0-0.6
		c0.1-0.9,0.2-1.7,0.3-2.6C16.9,245.1,17,244.6,17.1,244.3z"/>
	<path class="st0" d="M56.8,267.1c-0.5-0.3-0.8-0.4-1-0.5c-0.8-0.4-1.5-0.8-1.8-1.8c0-0.2-0.3-0.3-0.3-0.5c-0.4-0.8-0.8-1.6-1.1-2.4
		c-0.2-0.5-0.2-1.1-0.3-1.6c0-0.2-0.2-0.5-0.1-0.7c0.4-1.3-0.5-2.3-0.5-3.5c0.1-1.7-0.5-3.3,0.1-5c0.4-1.1,0.2-1.3-1-1.2
		c-0.5,0-1.1-0.2-1.6-0.3s-0.9-0.3-1.4-0.4c-0.7-0.1-1.4-0.3-2.2-0.4c-0.6-0.1-1.3-0.2-2-0.3c-0.5-0.1-1-0.2-1.4-0.3
		c-0.3-0.1-0.5-0.2-1-0.3c0.3,1.8-1.3,2.5-1.8,3.7c-0.2,0.5-0.4,0.8-0.1,1.3c0.5,1.1,0.6,2.4,1.2,3.4c0.5,1,0.5,2.2,1.6,2.9
		c0.6,0.4,1,1.1,1.4,1.7c0.9,1.5,2.3,2.5,3.9,3.4c0.4,0.2,0.7,0.6,1,0.9c0.1,0.1,0.1,0.2,0.2,0.3c0.8,0.4,1.6,0.8,2.5,1
		c1.1,0.3,2.2,0.5,3.3,0.7c0.5,0.1,1,0.2,1.4,0.2C56.1,267.5,56.4,267.3,56.8,267.1z"/>
	<path class="st1" d="M117.4,63.5c1,0.2,1.7,0,2.3-0.6c0.1-0.1,0.2-0.3,0.4-0.3c2-0.4,1-2.1,1.5-3c-0.8-0.4-1.4-0.8-2.1-1.1
		c-0.4-0.2-0.9-0.1-1.3,0c-0.1,0-0.1,0.5-0.2,0.8c-0.1,0.8-0.2,1.6-0.3,2.5C117.6,62.3,117.5,62.9,117.4,63.5z"/>
	<path class="st1" d="M86.6,34.6c-0.2-1.3-0.7-2.2-1.9-2.7c-0.7-0.3-1.5-0.7-2.3-0.7C81,31,80,31.9,79.2,32.8
		c-1.7,2.3-0.4,4.8,2.3,5.6c2.2,0.6,3.1-1,4.4-2C86.4,36.1,86.4,35.2,86.6,34.6z"/>
	<path d="M87.7,30.5c0.1,1.2,1.6,2.2,3,2c0.9-0.1,2.1-1.7,2-2.6c-0.2-1.5-1.3-2.3-2.8-2.2C88.6,27.9,87.5,29.2,87.7,30.5z"/>
	<path d="M118.8,52c-1.3-0.3-2.6-0.8-3.1-2.2c-0.2-0.5-0.4-0.9-0.5-1.3c-0.4-1.1-1.4-2.1-1.2-3.5c0-0.3-0.4-0.7-0.6-1
		c-0.3-0.5-0.7-0.9-0.8-1.4c-0.3-1.3-0.1-2.6-0.6-3.9c-0.1-0.2,0-0.6,0-0.9c0-1.1-0.3-2.3,0.6-3.3c0,0,0-0.1,0-0.2
		c-0.1-0.8,0.3-1.6-0.2-2.4c-0.1-0.1,0-0.4,0-0.6c0.1-0.6,0.1-1.3,0.2-1.9c0.1-0.5,0.1-0.9,0.2-1.4c0.2-0.9,0.4-1.7,0.6-2.6
		c0.1-0.5,0-1,0.2-1.4c0.5-1,1.2-1.9,1.5-3c0.5-1.6,1.5-3,2.4-4.4c0.3-0.5,0.6-1,1.1-1.3c0.6-0.5,1.3-0.9,2-1.3
		c0.3-0.2,0.6-0.3,0.8-0.5c0.5-0.6,1.1-0.8,1.8-0.6c1.8,0.5,2.8,2,4.1,3.1c0.2,0.2,0.3,0.5,0.5,0.8c0.1,0.2,0.2,0.4,0.4,0.5
		c2,0.8,2.2,2.9,2.8,4.5c0.8,2,1,4.1,0.9,6.2c0,0.7,0,1.4-0.1,2.1c-0.1,0.6-0.2,1.1,0.2,1.7c0.2,0.4,0.3,1,0.1,1.4
		c-0.5,0.9-0.4,1.8-0.6,2.7c-0.1,0.4-0.3,0.8-0.4,1.2c-0.1,0.3-0.1,0.6-0.2,0.9c-0.2,0.9-0.3,1.8-0.5,2.7c-0.2,0.8-0.8,1.6-1,2.4
		c-0.3,1.4-0.6,2.7-2,3.5c-0.1,0.1-0.2,0.2-0.3,0.3c-1.1,2.1-2.8,3.7-4.8,4.8c-0.4,0.2-0.9,0.3-1.4,0.4
		C120.2,52.2,119.5,52.2,118.8,52z M125,44.4c0.4-0.8,0.9-1.6,1.5-2.3c0.5-0.7,0.8-1.3,0.8-2.2c0-0.8,0.5-1.5,0.7-2.3
		c0.1-0.4,0.2-0.7,0.2-1.1c0-0.2,0-0.5,0-0.7c0.1-0.9,0.4-1.8,0-2.8c-0.1-0.3,0.2-0.9,0.3-1.3c0.1-0.5,0.3-0.9,0.3-1.4
		c0-0.8,0-1.6-0.1-2.4c-0.3-1.7-0.5-3.4-1-5c-0.4-1.4-1-2.8-1.6-4.2c-1,0.6-1.8,1.5-2.2,2.6c-0.3,0.9-0.8,1.8-1.1,2.7
		c-0.2,0.8-0.3,1.7-0.5,2.5c-0.1,0.4-0.2,0.8-0.3,1.2c-0.3,0.7-0.6,1.3-0.2,2.1c0.1,0.2,0.1,0.6,0,0.9c-0.7,3-0.7,6-0.2,9
		c0.3,2,0.6,4,0.9,6c0,0.3,0.2,0.6,0.3,1.1C123.8,46.2,124.6,45.5,125,44.4z M119.4,49.1c-0.1-0.9-0.3-1.7-0.4-2.6
		c-0.3-1.5-0.6-3-0.8-4.6c-0.2-1.1-0.4-2.2-0.3-3.3c0.1-2.2,0.4-4.4,0.6-6.5c0-0.4-0.1-0.8,0-1.1c0.1-0.6,0.3-1.2,0.4-1.9
		c0.1-0.5,0.1-1.1,0.2-1.7c0.1-0.9,0.2-1.8,0.4-2.6c0.2-1,0.5-2,1-2.9c0.4-1,1-1.9,1.6-2.7c0.8-1,1.6-1.9,2.5-2.9
		c-0.7-0.2-1.4-0.5-2.1-0.7c-0.1,0-0.4,0-0.5,0.1c-0.8,0.9-1.6,1.8-2.2,2.8c-0.6,0.8-1,1.8-1.5,2.7c-0.2,0.3-0.3,0.6-0.5,0.9
		c-0.6,0.8-0.4,1.7-0.6,2.6c-0.3,1.1-0.7,2.1-0.9,3.2c-0.3,1.4-0.4,2.9-0.7,4.4c-0.2,0.8-0.6,1.5-0.5,2.4c0,0.1-0.1,0.2,0,0.2
		c1.2,1.9,0.1,4.1,0.5,6c0.1,0.6,0.3,1.3,0.5,1.9c0,0.2,0.1,0.4,0.1,0.6c0,0.2-0.1,0.4,0,0.6c0.6,1.3,1.3,2.5,1.9,3.7
		c0.2,0.4,0.5,0.9,0.8,1.5C118.8,49.1,119.1,49.1,119.4,49.1z"/>
	<path class="st0" d="M118.8,49.1c0,0,0.3,0,0.6-0.1c-0.1-0.9-0.3-1.7-0.4-2.6c-0.3-1.5-0.6-3-0.8-4.6c-0.2-1.1-0.4-2.2-0.3-3.3
		c0.1-2.2,0.4-4.4,0.6-6.5c0-0.4-0.1-0.8,0-1.1c0.1-0.6,0.3-1.2,0.4-1.9c0.1-0.5,0.1-1.1,0.2-1.7c0.1-0.9,0.2-1.8,0.4-2.6
		c0.2-1,0.5-2,1-2.9c0.4-1,1-1.9,1.6-2.7c0.8-1,1.6-1.9,2.5-2.9c-0.7-0.2-1.4-0.5-2.1-0.7c-0.1,0-0.4,0-0.5,0.1
		c-0.8,0.9-1.6,1.8-2.2,2.8c-0.6,0.8-1,1.8-1.5,2.7c-0.2,0.3-0.3,0.6-0.5,0.9c-0.6,0.8-0.4,1.7-0.6,2.6c-0.3,1.1-0.7,2.1-0.9,3.2
		c-0.3,1.4-0.4,2.9-0.7,4.4c-0.2,0.8-0.6,1.5-0.5,2.4c0,0.1-0.1,0.2,0,0.2c1.2,1.9,0.1,4.1,0.5,6c0.1,0.6,0.3,1.3,0.5,1.9
		c0,0.2,0.1,0.4,0.1,0.6c0,0.2-0.1,0.4,0,0.6c0.6,1.3,1.3,2.5,1.9,3.7C118.2,48.1,118.5,48.5,118.8,49.1z"/>
</g>
</svg>
