<?xml version="1.0" encoding="utf-8"?>
<!-- Generator: Adobe Illustrator 25.0.0, SVG Export Plug-In . SVG Version: 6.00 Build 0)  -->
<svg version="1.1" id="_xEFF5__xEED3__x5F_4" xmlns="http://www.w3.org/2000/svg" xmlns:xlink="http://www.w3.org/1999/xlink"
	 x="0px" y="0px" viewBox="0 0 218.2 261.8" style="enable-background:new 0 0 218.2 261.8;" xml:space="preserve">
<style type="text/css">
	.st0{fill:#FFFFFF;}
	.st1{fill:#FDD23E;}
</style>
<g>
	<g>
		<path d="M135.6,55.2c-1,0.4-1.9,0.8-2.8,1.2c0,0-0.1,0.1-0.1,0.1c-1.1,0.3-2.3,0.4-3.3,1c-0.2,0.1-0.6,0-0.8-0.1
			c-0.6-0.4-1.1-0.3-1.7-0.1c-0.8,0.2-1.5-0.1-1.9-0.7c-0.1-0.1-0.1-0.3-0.2-0.4c-0.1-0.8,0.8-2.3,1.6-2.6c0.3-0.1,0.4-0.4,0.6-0.6
			c0.2-0.2,0.2-0.4,0.4-0.6c0.8-0.7,1.1-1.6,1.4-2.5c0.1-0.2,0.1-0.5,0-0.6c-0.8-1.2-1.6-2.3-2.3-3.5c-0.3-0.5-0.7-0.9-1.2-1.1
			c-0.3-0.1-0.5-0.4-0.6-0.7c-0.3-0.8-0.9-1.4-1.5-2c-1-1.2-2-2.5-2.4-4.1c-0.3-1.4-0.6-2.7-0.6-4.1c0-1.3-0.2-2.5,0.6-3.6
			c0.1-0.1,0.1-0.2,0.1-0.3c0.2-0.8,0.3-1.7,0.5-2.5c0.1-0.5,0.5-1,0.8-1.4c0.1-0.2,0.3-0.4,0.4-0.7c0.3-1.6,1.4-2.6,2.2-3.8
			c0.5-0.7,0.9-1.4,1.3-2.1c0.1-0.2,0.1-0.4,0.3-0.5c0.8-0.8,1.6-1.6,2.4-2.3c0.1-0.1,0.2-0.2,0.3-0.4c0.4-0.6,0.7-1.3,1.4-1.6
			c0.1-0.1,0.1-0.3,0.2-0.5c0.1-0.3,0.2-0.7,0.4-0.9c0.7-0.6,1.4-1.2,2.2-1.8c0-0.9,0.7-1.6,1.5-2.3c0.8-0.7,1.5-1.6,2.2-2.3
			c0.6-0.6,1.2-1.3,1.8-1.9c0.1-0.1,0.2-0.2,0.3-0.3c0.6-1.1,1.5-1.3,2.6-0.7c0.9,0.5,1.8,1.1,2.9,1.1c0.2,0,0.4,0,0.6-0.1
			c0.7-0.4,1.4-0.8,2.1-1.1c0.8-0.4,1.5-0.8,2.3-1.2c1.1-0.5,2.1-1.2,3.4-1.2c0.2,0,0.4-0.1,0.5-0.2c1.1-1,2.4-0.6,3.6-0.3
			c0.4,0.1,0.7,0.1,1.1,0.3c0.6,0.2,1.3,0.3,1.7,0.7c0.8,0.7,1.6,1.2,2.6,1.5c0.4,0.1,0.7,0.6,1.1,0.9c0.1,0.1,0.3,0.4,0.4,0.4
			c1.7,0,2.9,1.1,4.2,2.1c1.1,0.8,2,1.7,3,2.6c0.1,0.1,0.2,0.2,0.2,0.2c0.4,1,1.3,1.7,2,2.5c0.3,0.3,0.7,0.5,0.9,0.8
			c0.5,0.9,1.2,1.6,1.9,2.4c0.7,0.7,0.9,1.8,1.5,2.6c0.4,0.6,0.6,1.4,1.3,1.9c0.4,0.3,0.6,1,0.7,1.6c0.1,0.7,0.4,1.1,0.9,1.5
			c0.3,0.3,0.5,0.7,0.7,1.1c0.3,0.5,0.5,1,0.7,1.5c0.3,0.7,0.5,1.3,0.8,2c0.1,0.1,0.1,0.3,0.1,0.4c0.4,1,0.7,2,1.1,3.1
			c0,0.1,0,0.2,0,0.3c0,0.9,0,1.8,0.1,2.7c0,0.4,0.3,0.8,0.4,1.2c0.1,0.4,0.2,0.9,0.2,1.3c-0.1,1.3-0.2,2.5-0.3,3.8
			c0,1.5-0.4,2.9-1,4.2c-0.4,1-0.7,2-1,3c0,0.1,0,0.2-0.1,0.3c-0.4,0.8-0.7,1.5-1.1,2.3c-0.4,0.7-0.8,1.3-1.2,1.9
			c-0.2,0.3-0.2,0.6-0.4,0.8c-0.1,0.3-0.3,0.7-0.5,0.8c-0.8,0.4-0.9,1.2-1,1.9c-0.2,1.1,0.1,2.1,0.7,3c0.6,1,0.5,1.7-0.2,2.3
			c-0.7,0.6-1.8,0.6-2.6-0.1c-0.6-0.5-1.1-0.9-1.9-0.7c-0.2,0-0.5-0.1-0.7-0.2c-0.6-0.3-1.2-0.7-1.8-1.1c-0.2-0.1-0.4-0.1-0.6-0.2
			c-0.5-0.3-1-0.5-1.4-0.8c-0.4-0.2-0.7-0.5-1.1-0.7c-0.1-0.1-0.3,0.1-0.5,0.2c-0.9,0.7-1.8,1.3-2.7,2c0,0,0,0-0.1,0
			c-1.3,0.4-2.6,0.7-3.9,1.1c-0.9,0.2-1.8,0.5-2.8,0.7c-0.1,0-0.2,0.1-0.3,0.1c-1.2-0.3-2.4,0.4-3.6,0.4c-0.7,0-1.4,0-2.1-0.1
			c-0.5-0.1-0.7,0.2-0.5,0.6c0.3,0.8,0.6,1.6,1,2.3c0.3,0.6,0.8,1.1,1.2,1.6c0.6,0.8,1.5,1.3,2.5,1.7c0.4,0.1,0.7,0.5,1.1,0.8
			c0.1,0.1,0.2,0.3,0.4,0.3c1,0.2,1.5,0.9,2.2,1.4c0.2,0.2,0.5,0.3,0.7,0.5c0.8,0.5,1.8,0.8,2.3,1.7c0,0.1,0.2,0.2,0.3,0.2
			c0.8,0.1,1.3,0.5,1.6,1.2c0,0,0.1,0.1,0.1,0.1c0.9,0.2,1.4,0.8,1.8,1.6c0.2,0.4,0.8,0.5,1.1,0.8c0.6,0.5,1.1,1.1,1.5,1.7
			c0.2,0.2,0.3,0.6,0.2,0.8c-0.2,0.7,0.2,1,0.7,1.3c0.6,0.4,0.9,0.9,0.9,1.6c0,0,0,0.1,0,0.1c0.7,0.7,0.6,1.8,1.3,2.7
			c0.5,0.6,0.7,1.3,1,2.1c0.4,1.3,0.8,2.5,1.1,3.8c0.1,0.4,0,0.9,0.1,1.3c0.1,0.4,0.3,0.8,0.5,1.1c0.2,0.6,0.5,1.1,0.7,1.7
			c0.2,0.7,0.2,1.5,0.3,2.3c0.1,0.4,0.4,0.8,0.7,1.1c0.2,0.3,0.5,0.6,0.7,1c0.5-0.3,1.1-0.6,1.7-1c0.1-0.1,0.2-0.3,0.2-0.4
			c0.2-0.6,0.7-0.9,1.3-0.7c1,0.3,2.1,0.5,3.1,0.9c0.5,0.2,1,0.5,1.4,0.9c0.3,0.2,0.6,0.4,1,0.2c0.6-0.3,1.3-0.6,1.9-1
			c0.7-0.5,1.6-0.8,2.4-1.2c0.5-0.3,1.1-0.4,1.6-0.8c0.8-0.7,1.8-0.6,2.8-0.3c0.3,0.1,0.7,0.1,1.1,0.2c0.9,0.2,1.8,0.5,2.7,0.8
			c0.1,0,0.2,0.1,0.3,0.2c0.6,0.1,0.7,0.6,0.5,0.9c-0.8,1.2-0.9,2.5-1.5,3.8c-0.3,0.5-0.2,1.2-0.5,1.6c-0.5,0.8-0.6,1.5-0.3,2.4
			c0.2,0.7-0.2,1.6-0.4,2.4c0,0.1-0.2,0.3-0.2,0.4c0.4,1.1-0.4,2-0.3,3c0.1,0.7-0.3,1.1-1.1,1.1c-1.1,0-1.7,0.6-2.3,1.4
			c-0.5,0.7-1.2,1.2-2.1,1.3c-0.2,0-0.4,0.1-0.5,0.2c-0.5,0.5-0.9,1-1.4,1.4c-0.8,0.6-1.6,1-2.5,1.5c-0.4,0.2-0.5,0.4-0.5,0.8
			c0,1.6,0,3.2-0.2,4.8c-0.2,1.2-0.4,2.4-0.5,3.6c-0.1,1.5-0.8,2.8-2.3,3.4c-0.9,0.4-1.7,1-2.6,1.4c-1.2,0.6-2.5,1.1-3.7,1.6
			c-0.2,0.1-0.4,0.2-0.5,0.3c-0.2,0.5-0.2,1-0.4,1.5c-0.3,0.7-0.7,1.4-1.1,2c-0.4,0.7-0.8,1.3-1.2,2c0.3-0.1,0.6-0.2,0.9-0.2
			c0.9,0,1.7,0,2.6,0c0.1,0,0.3,0.1,0.4,0.1c0.9-0.5,1.7,0,2.6,0.1c1.1,0.1,1.9,0.9,2.7,1.6c0.8,0.7,1.4,1.6,2.1,2.4
			c0.2,0.3,0.4,0.7,0.5,1.1c0.2,0.9,0.5,1.9,0.6,2.8c0.1,0.7,0.3,1.3,0.6,1.9c0.3,0.7,0.3,1.6,0.4,2.3c0,0.3,0.1,0.6,0.3,0.8
			c0.6,0.7,0.6,1.4,0.5,2.2c0,0.2,0.1,0.5,0.2,0.7c0.2,0.4,0.5,0.8,0.6,1.2c0.3,1.6,0.6,3.2,0.8,4.8c0,0.2,0.1,0.3,0.2,0.5
			c0.1,0.4,0.2,0.8,0.2,1.2c-0.2,1.4,0.2,2.6,0.5,3.9c0.2,1.1,0.7,2,1,3.1c0.4,1.2,0.3,2.5,0.5,3.8c0,0.1,0,0.2,0,0.3
			c0.6,0.6,0.6,1.3,0.6,2c0,0.2,0.1,0.4,0.2,0.5c0.6,0.5,0.7,1.2,0.8,1.9c0.1,0.7,0.4,1.5,0.5,2.2c0.1,0.5,0.1,1,0.2,1.5
			c0,0.2,0,0.4,0.1,0.5c0.4,0.5,0.3,1.1,0.3,1.7c0,0.8,0.3,1.7,0.5,2.5c0.1,0.6,0.1,1.2,0.2,1.8c0,0.1,0,0.2,0,0.3
			c0.4,0.9,0,1.4-0.7,1.9c-0.4,0.2-0.4,0.5-0.3,0.9c0.3,1.2,0.5,2.4,0.8,3.5c0.2,0.9,0.6,1.8,0.9,2.7c0.2,0.7,0.2,1.5,0.4,2.2
			c0,0.3,0.1,0.5,0.3,0.7c0.6,0.7,0.7,1.6,0.8,2.5c0,0.4,0.2,0.8,0.4,1.2c0.4,0.9,0.8,1.7,1.2,2.6c0.3,0.8,0.5,1.7,0.8,2.5
			c0.1,0.3,0.3,0.6,0.5,0.9c0.4,0.5,0.8,0.9,1.2,1.3c0.4,0.4,0.9,0.9,1.4,1.3c1.1,0.9,2.2,1.8,3.2,2.8c0.8,0.7,1.5,1.4,2.3,2.1
			c0.1,0.1,0.2,0.1,0.2,0.2c0.2,0.8,0.9,0.9,1.5,1c0.2,0.1,0.6,0.2,0.7,0.4c0.6,1,1.7,1.1,2.5,1.6c0.7,0.4,1.4,1,2.1,1.5
			c0.5,0.4,1.1,0.7,1.7,1c0.9,0.4,1.1,1.5,0.4,2.3c-0.3,0.3-0.4,0.7-0.6,1.1c-0.1,0.2-0.2,0.4-0.3,0.5c-1.2,0.9-2.2,2-3.9,2.1
			c-0.2,0-0.4,0.2-0.6,0.4c-0.4,0.2-0.7,0.4-1.1,0.5c-0.5,0.1-1,0.2-1.5,0.3c-0.8,0.1-1.6,0.2-2.4,0.3c-0.7,0.1-1.2-0.1-1.8-0.5
			c-0.2-0.1-0.4-0.1-0.7-0.1c-0.9,0-1.6-0.3-2.1-1.1c-0.2-0.3-0.4-0.6-0.7-0.8c-0.5-0.4-0.9-0.7-0.9-1.4c0-0.1-0.1-0.2-0.1-0.3
			c-1.1-0.4-1.3-1.4-1.5-2.5c-1.4,0-2.8-0.1-4.2-0.1c-0.3,0-0.7,0-0.9-0.1c-0.8-0.5-1.5-1.1-2.3-1.7c-0.4-0.3-0.6-0.7-0.9-1.1
			c-0.4-0.5-0.5-1-0.4-1.6c0.2-1.2,0.3-2.3,0-3.5c-0.1-0.3,0-0.8,0.2-1.1c0.2-0.6,0.2-1.1-0.2-1.6c-0.5-0.6-0.8-1.3-1.3-2
			c0.1,0.7,0.2,1.3,0.3,2c0.2,0.7,0.2,1.4-0.2,2.1c-0.2,0.4-0.2,0.9-0.3,1.4c0,0.2,0,0.4-0.1,0.6c-0.3,0.6-0.6,1.1-0.9,1.6
			c0,0.1-0.1,0.1-0.1,0.1c-1,0.3-1.9,1-3,0.5c-0.5-0.2-1-0.2-1.3,0.1c-0.4,0.3-0.7,0.7-0.5,1.3c0.4,1.3,0.1,2.5-0.1,3.8
			c-0.1,0.4-0.1,0.8-0.1,1.2c-0.1,0.5-0.1,1-0.2,1.4c-0.1,0.6-0.3,1.3,0,1.9c0.1,0.2,0.2,0.6,0,0.8c-0.5,0.9-0.1,1.9-0.1,2.8
			c0,0.3,0.1,0.7,0,1c-0.5,1.2-0.2,2.4-0.4,3.5c0,0.1,0.1,0.3,0,0.5c-0.7,1-0.1,2,0,3c0,0.3,0,0.7,0,1c-0.1,1-0.3,2-0.5,3
			c0,0.2,0.1,0.3,0,0.5c0,0.5,0,1-0.1,1.5c0,0.1-0.1,0.2-0.1,0.4c-0.1,0.8-0.1,1.6-0.2,2.4c-0.1,1-1,1.5-2,1.2c-0.2-0.1-0.5,0-0.8,0
			c-0.2,0-0.4,0.2-0.6,0.2c-0.7,0-1.4,0-2.1-0.1c-0.6-0.1-1-0.5-1.1-1.1c0-0.4-0.1-0.7-0.1-1.1c0-0.8-0.1-1.4-0.4-2.2
			c-0.3-0.7-0.1-1.6-0.2-2.5c0-0.2,0.1-0.4,0-0.5c-0.6-0.7-0.4-1.6-0.4-2.4c-0.1-1-0.2-1.9-0.3-2.9c-0.1-1-0.1-2-0.2-3.1
			c-0.1-1-0.3-1.9-0.5-2.9c0-0.2-0.1-0.4-0.1-0.5c0.3-1.4-0.5-2.6-0.3-4.1c-0.6,0.1-1,0.2-1.4,0.2c-0.3,0.1-0.6,0.1-1,0.1
			c-0.5,0.1-0.7,0.3-0.5,0.7c0.3,0.7,0.1,1.3-0.4,1.9c-0.2,0.3-0.3,0.8-0.2,1.2c0.2,0.8,0.1,1.4-0.5,2c-0.1,0.1-0.2,0.1-0.2,0.2
			c-0.1,1.1-0.8,2.2-0.4,3.4c0.1,0.2,0.1,0.4,0.1,0.5c-0.3,1.2-0.6,2.4-1.6,3.3c0.1,0.6,0.1,1.1,0.2,1.7c0,0.3,0.2,0.5,0.3,0.7
			c0.4,0.8,0.8,1.5,1.3,2.3c0.5,0.6,1,1.2,1.5,1.8c0.8,0.8,1.3,1.9,2,2.8c0.1,0.1,0.2,0.3,0.3,0.3c0.7,0.5,1.4,1,2.1,1.4
			c0.3,0.2,0.8,0.3,1.1,0.6c1.2,0.9,2.4,1.7,3.7,2.6c0.2,0.1,0.3,0.2,0.5,0.3c1,0.5,1.1,1.1,0.8,2.2c-0.3,1-0.9,1.5-1.9,1.8
			c-0.7,0.2-1.4,0.7-1.9,1.3c-0.6,0.6-1.4,0.9-2.2,0.9c-0.9,0-1.7,0-2.6,0c-0.9,0-1.7-0.2-2.5-0.6c-1.3-0.6-2.5-1.2-3.5-2.3
			c-0.1-0.1-0.2-0.2-0.3-0.2c-1.1,0.1-1.7-0.8-2.6-1.1c-1.1-0.4-2.2-0.9-3.3-1.3c-1.1-0.4-2.3-0.8-3.5-1.2c-0.1,0-0.3-0.1-0.3-0.2
			c-0.8-1-1.6-1.9-2.5-2.9c0,0,0-0.1-0.1-0.2c-1.5-1.1-1.1-2.8-1.1-4.3c0-1.6,0.8-3.1,1.8-4.5c0.4-0.5,0.7-1.1,1.1-1.7
			c0.3-0.5,0.7-0.9,0.9-1.4c0.1-0.3,0.2-0.7,0.1-1c-0.4-1-0.4-1.9,0.2-2.9c0.2-0.4,0.3-0.9,0.3-1.3c0-0.7,0.2-1.3,0.5-1.9
			c0.2-0.3,0.1-0.7,0.2-1.1c0-0.5,0-0.9,0.1-1.4c0-0.1,0.1-0.2,0.1-0.4c0-1,0.1-2,0.1-2.9c0-0.5,0.1-0.9,0.2-1.4
			c-1.4-0.7-1.7-1.3-1.2-2.9c0.1-0.4,0.1-0.8,0.1-1.2c0-0.6,0-1.3,0-2.1c-0.2,0-0.5,0.1-0.8,0.1c0,0-0.1,0.1-0.1,0.1
			c-1.3,0-2.6,0.1-3.9,0.1c-0.3,0-0.7-0.1-1,0c-0.8,0.3-1.6,0.3-2.5,0c-0.6-0.2-1.3,0-1.9,0.2c-0.6,0.1-1.2,0.1-1.7-0.2
			c-0.1-0.1-0.4-0.1-0.5,0c-0.7,0.3-1.3,0.4-2.1,0.3c-0.7-0.1-1.4,0-2.1,0c-0.8,0-1.6,0.2-2.3-0.1c-1.1-0.4-2.1-0.5-3.2,0
			c-0.2,0.1-0.6-0.1-0.9-0.1c-0.3,0-0.7-0.2-1,0c-1.2,0.5-2.3-0.1-3.5-0.1c-1.4,0-2.8,0-4.2,0.4c-1.1,0.3-2.2,0.1-3.3-0.3
			c-0.4-0.2-1.2,0-1.6,0.3c-0.8,0.6-1.6,0.6-2.5,0.3c-0.2-0.1-0.4-0.1-0.6-0.1c-1.7,0-3.3,0.8-5,0.2c-0.1-0.1-0.3,0-0.3,0
			c-0.1,0.9-0.2,1.7-0.2,2.6c0,0.5-0.1,1-0.1,1.6c-0.1,1.2-0.3,2.3-0.4,3.5c0,0.1,0,0.3,0.1,0.4c0.4,0.6,0.2,1.2,0,1.9
			c-0.2,0.7,0,1.5,0.1,2.2c0,0.2,0.1,0.5,0,0.6c-0.5,1.4-0.2,2.9-0.5,4.3c-0.3,1,0,1.9,0,2.8c0,0.8-0.2,1.5-0.3,2.3
			c0,0.3,0.1,0.7,0,1c-0.2,0.7-0.1,1.4,0,2.2c0.1,0.9-0.2,1.7-0.3,2.6c0,0.2,0,0.5,0,0.7c0,1.2-1,1.9-2.1,1.5c-0.2-0.1-0.4,0-0.7,0
			c-0.4,0.1-0.8,0.2-1.2,0.2c-0.4,0-0.7,0-1.1,0c-0.8,0.1-1.4-0.4-1.5-1.2c-0.1-0.7,0-1.3-0.1-2c0-0.2,0-0.4-0.1-0.5
			c-0.9-1-0.3-2.1-0.5-3.2c0-0.2,0-0.4-0.1-0.6c-0.4-0.6-0.4-1.3-0.4-1.9c-0.1-1.1-0.3-2.3-0.4-3.4c-0.1-1-0.1-2-0.2-3
			c-0.1-1-0.3-1.9-0.5-2.8c0-0.1-0.1-0.2-0.1-0.3c0.2-1.7-0.6-3.2-0.3-4.9c0.1-0.6-0.1-1.2-0.2-1.9c0-0.2-0.1-0.3-0.1-0.5
			c0-1-0.1-2-0.1-3c0-0.5,0-0.9,0-1.5c-0.1,0-0.3,0-0.5,0c-0.6,0.1-1.1-0.2-1.5-0.6c-0.3-0.3-0.7-0.5-1.1-0.7
			c-0.6-0.2-0.9-0.6-1.2-1.1c-0.1-0.4-0.4-0.7-0.7-1c-0.7-0.6-0.9-1.3-0.4-2c0.3-0.4,0.3-0.7,0-1.1c-0.3-0.5-0.3-1.1-0.1-1.6
			c0.1-0.3,0.2-0.8,0-1.1c-0.5-0.7-0.7-1.4-0.4-2.3c0.1-0.2-0.1-0.4-0.1-0.6c0-0.7,0-1.3-0.1-2c0-0.3,0-0.5-0.1-0.8
			c-0.3-1.1-0.4-2.2-0.1-3.3c0.1-0.2,0-0.5,0-0.8c0-0.6-0.1-1.3-0.1-1.9c0-0.1,0-0.3,0-0.4c-0.1-0.9-0.2-1.9-0.3-2.8
			c0-0.3,0.1-0.7,0.1-1c0.1-0.3,0.1-0.6,0.2-1c0.1-1.3,0.3-2.6,0.3-3.9c0-1.1-0.1-2.1-0.3-3.2c-0.1-0.7-0.2-1.2,0.2-1.8
			c0.1-0.1,0.2-0.4,0.1-0.5c-0.7-1.3-0.2-2.6,0.1-3.9c0-0.2,0.1-0.4,0.1-0.6c0,0,0,0,0-0.1c-0.1-1,1.3-2.7,2.2-3.1
			c0.6-0.3,1.2-0.7,1.8-1.2c1.2-1,2.5-1.5,4-1.1c0.5,0.1,0.8,0.1,1.3,0c1-0.2,2.1-0.4,3.1,0c0.4,0.2,0.8,0.5,1.2,0
			c0.4-0.5,0.1-0.8-0.1-1.2c-0.4-0.7-0.7-1.4-1-2.1c-0.1-0.4,0-0.8,0-1.3c0-0.3,0-0.5-0.1-0.8c-0.3-1.2-1-2.3-0.8-3.7
			c0.1-0.4,0-0.8-0.1-1.2c-0.3-1.7,0.3-3.3,0.7-4.9c0.1-0.3,0.1-0.7,0.1-1c0-0.5,0-1,0.1-1.5c0-0.3,0.1-0.5,0.1-0.8
			c0-0.7,0.2-1.4,0.8-1.8c0.4-0.3,0.6-0.8,0.4-1.2c-0.5-1,0-1.8,0.3-2.7c0.2-0.8,0.6-1.5,0.8-2.3c0.2-0.8,0.6-1.5,1.2-2
			c0.2-0.2,0.4-0.5,0.3-0.8c-0.2-1,0.2-1.8,0.8-2.6c0.1-0.1,0.2-0.3,0.3-0.5c0.2-0.6,0.3-1.3,0.7-1.9c0.5-0.8,1-1.7,1.2-2.7
			c0.1-0.3,0.2-0.6,0.5-0.7c0.5-0.2,0.4-0.6,0.6-1.1c0.3-1,0.6-2,1.1-2.9c0.3-0.7,0.3-1.1-0.4-1.5c-0.1-0.1-0.2-0.3-0.2-0.5
			c0-0.7-0.2-1.3-0.7-1.8c-0.2-0.3-0.4-0.7-0.5-1.1c-0.3-0.8-0.7-1.5-1-2.3c-0.3-1-0.4-2.1-1.1-3.1c-0.2-0.2-0.1-0.8,0.1-1.1
			c0.1-0.4,0-0.6-0.2-0.9c-0.3-0.4-0.5-0.9-0.8-1.4c-0.1-0.1-0.2-0.3-0.3-0.4c-0.6-0.5-0.8-1.2-0.6-2c0.1-0.4,0.1-0.7-0.2-1
			c-0.2-0.2-0.3-0.4-0.3-0.6c-0.3-1.1-0.6-2.2-0.9-3.3c-0.1-0.3,0-0.6-0.1-0.9c-0.1-0.5-0.3-1.1-0.4-1.6c-0.3-1.1-0.6-2.3-0.8-3.4
			c-0.2-0.8-0.3-1.6-0.5-2.4c-0.1-0.5-0.2-0.9-0.2-1.4c-0.1-0.7-0.1-1.3-0.2-2c-0.4-1.7-0.7-3.4-0.5-5.2c0-0.2,0-0.5-0.1-0.8
			c0-0.2-0.1-0.4-0.1-0.5c0.2-1.4,0.5-2.8,0.8-4.1c0.1-0.5,0.3-1,0.1-1.6c-0.1-0.2-0.1-0.4,0-0.6c0.4-0.8,0.9-1.7,1.4-2.5
			c0.1-0.2,0.3-0.4,0.4-0.6c0.2-1,0.7-1.8,1.4-2.4c0.1-0.1,0.3-0.4,0.3-0.6c0.2-0.8,0.7-1.2,1.4-1.5c0.3-0.2,0.7-0.4,0.9-0.7
			c0.4-0.7,0.9-1,1.8-1c0.3,0,0.6-0.2,0.7-0.4c0.4-0.5,0.7-1,1.3-1.1c0.1,0,0.2-0.1,0.2-0.1c0.4-0.8,1.1-1.2,2-1.1
			c0.1,0,0.2-0.1,0.3-0.2c0.5-0.4,1-0.8,1.5-1.2c0.4-0.3,0.9-0.6,1.3-1c0.9-0.8,2.1-1.2,3-2.2c0.7-0.7,1.7-1.1,2.6-1.7
			c0.6-0.4,1.1-0.7,1.7-1.1c0.2-0.2,0.4-0.5,0.6-0.6c1.9-0.7,2.9-2.5,4.4-3.7c0.4-0.3,0.7-0.9,1-1.3c0.1-0.1,0.1-0.3,0.1-0.4
			c0-0.6-0.1-1.1-0.1-1.7c0.1-1.3,0.3-2.7,0.5-4C135.7,56.2,135.6,55.7,135.6,55.2z"/>
		<path class="st0" d="M112.8,178.3c0.2-0.3,0.4-0.6,0.6-0.9c0.2,0.2,0.3,0.3,0.4,0.4c1.1,1.1,2.7,1.5,4,2.3c1.1-0.2,2,0.1,2.9,0.8
			c0.3,0.2,0.7,0.3,1.1,0.5c0.8,0.4,1.6,0.4,2.4-0.1c0.3-0.2,0.5-0.2,0.8,0.1c0.5,0.6,1.1,0.7,1.8,0.7c0.5,0,1,0.1,1.5,0.2
			c0.7,0.2,1.4,0.2,2-0.2c0.2-0.1,0.5-0.1,0.8-0.1c0.5,0,1.1,0.1,1.6-0.1c0.9-0.4,1.7-0.9,2.6-1.3c0.2-0.1,0.5-0.2,0.7-0.2
			c1-0.1,1.9,0,2.8-0.5c0.6-0.3,1.4-0.7,2.1-0.2c0.1,0.1,0.2,0.1,0.3,0.1c1.1-0.4,1.9,0.5,2.9,0.6c1,0.2,2.1,0.4,3.1,0.7
			c0.6,0.1,1.2,0.2,1.8,0.3c0.7,0.1,1.5,0.2,2.2,0.4c0.5,0.1,0.8,0.5,1.3,0.7c0.5,0.2,1,0.4,1.5,0.7c0.5,0.2,0.9,0.4,1.4,0.6
			c1.3,0.6,2.5,1.3,3.8,2c0.7,0.4,1.2,0.9,1.8,1.4c0.1,0,0.1,0.2,0.1,0.2c-0.1,0.8-0.2,1.7-0.3,2.5c-0.1,0.6,0,1.2-0.1,1.8
			c0,0.1,0,0.4-0.1,0.4c-0.6,0.5-0.6,1.2-0.7,1.9c-0.3,1.5-0.6,2.9-0.9,4.3c-0.1,0.7-0.2,1.5-0.4,2.2c-0.1,0.9-0.3,1.7-0.4,2.6
			c-0.1,0.5,0,1.1,0,1.6c0,0.1,0,0.2,0,0.3c-0.3,1.1-0.6,2.3-0.8,3.4c-0.2,0.9-0.2,1.9-0.2,2.8c0,0.1,0,0.3,0,0.4
			c-0.3,1.4-0.4,2.8,0,4.2c0.1,0.3,0,0.8-0.1,0.8c-0.3,0.1-0.7,0-1-0.1c-0.5-0.1-1-0.2-1.6-0.2c-0.4,0-0.7,0-1.1,0
			c-0.4,0-0.9-0.1-1.2,0c-0.5,0.3-1,0.2-1.5,0c-0.7-0.2-1.3-0.1-2,0c-0.7,0.1-1.5,0-2.2,0c-0.5,0-1.1,0.1-1.6,0.2
			c-0.3,0-0.5,0-0.8,0c-0.6,0-1.1-0.1-1.7-0.1c-0.7,0-1.4,0-2.1,0c-0.7,0-1.5-0.1-2.2-0.1c-0.4,0-0.7,0.1-1.1,0.2
			c-0.5,0.2-0.9,0.2-1.4-0.1c-0.4-0.2-1-0.2-1.4-0.2c-0.8,0-1.6,0-2.4,0c-0.4,0-0.7,0.1-1.1,0.1c-0.7,0.1-1.5,0.1-2.2,0.2
			c-0.1,0-0.2-0.1-0.3,0c-1.3,0.4-2.6-0.2-3.8-0.2c-1,0.1-2,0.1-2.8,0.9c-0.5,0.4-1.1,0.2-1.6,0c-0.8-0.5-1.5-0.5-2.3-0.2
			c-0.2,0.1-0.5,0.1-0.7,0.1c-2.1-0.2-4.1-0.7-6.2-0.1c-1.1,0.3-2.2,0.3-3.3,0.1c-0.3-0.1-0.7,0.1-1,0.1c-0.3,0-0.5,0.2-0.7,0.2
			c-1-0.1-2-0.4-2.9-0.4c-1.2,0.1-2.2-0.4-3.4-0.5c-0.3,0-0.6-0.2-0.9-0.3c-0.5-0.2-0.4-0.7-0.5-1.1c-0.3-0.7-0.3-1.4-0.2-2.1
			c0.1-0.4-0.1-1-0.3-1.4c-0.3-0.5-0.3-0.9-0.1-1.4c0.3-0.6,0.2-1.1,0-1.8c-0.2-0.5,0-1.1-0.1-1.6c-0.3-1.3,0.1-2.6-0.1-4
			c-0.1-0.4-0.2-0.8-0.3-1.3c0-0.2,0-0.5,0-0.7c0-0.6,0-1.3,0-1.9c0-0.1,0-0.3,0-0.4c0.1-0.9,0.2-1.8,0.2-2.7c0-1-0.1-2-0.1-3
			c0-1.2-0.1-2.5,0-3.7c0-0.9,0.3-1.9,0.4-2.8c0-0.4,0-0.8-0.1-1.1c-0.3-0.5-0.1-0.9,0-1.3c0.1-0.7,0.2-1.4,0.1-2.1
			c-0.1-1,0.2-1.9,0.7-2.8c0.4-0.8,1-1.3,1.8-1.6c0.2-0.1,0.5-0.1,0.7,0c0.8,0.3,1.6,0.2,2.4,0c0.3-0.1,0.7,0,1,0
			c1.2,0.1,2.3,0.3,3.4-0.3c0.4-0.2,0.6-0.2,1,0c0.6,0.4,1.3,0.3,1.9-0.2c0.6-0.5,0.8-0.4,1.3,0.1
			C111.8,177.5,112.3,177.8,112.8,178.3z"/>
		<path class="st0" d="M151.8,117.1c-0.2,0-0.4,0-0.6,0c-0.5,0.1-0.7,0.4-0.7,0.9c0,0.5,0.3,0.9,0.8,0.9c0.8-0.1,1.3,0.3,1.9,0.8
			c-0.5,0.3-0.9,0.6-1.4,0.9c-0.5,0.4-1.1,0.8-1.6,1.2c-0.2,0.1-0.3,0.3-0.5,0.4c-1.2,0.5-2.4,1.1-3.5,1.6c-0.3,0.1-0.5,0.3-0.8,0.5
			c-0.2,0.1-0.4,0.3-0.6,0.5c-0.9,0.6-1.8,1.1-2.7,1.7c-0.4,0.2-0.8,0.4-1.3,0.5c-0.6,0.2-1.3,0.4-1.6,1c0,0.1-0.2,0.1-0.2,0.1
			c-0.9,0-1.5,0.6-2.1,1.1c-0.5,0.4-1.1,0.6-1.6,1c-0.9,0.7-1.9,1.1-2.9,1.4c-0.1,0-0.3,0.1-0.3,0.2c-1.2,1.3-2.9,1.6-4.4,2.2
			c-0.8,0.3-1.5,0.7-2.4,0.9c-0.8,0.2-1.6,0.3-2.4-0.2c-0.4-0.3-0.9-0.3-1.4-0.4c-0.3-0.1-0.5-0.2-0.8-0.3c-0.1,0-0.1-0.1-0.1-0.1
			c-1.1-0.5-1.2-1.6-1.7-2.4c-0.5-0.8-1.1-1.5-1.5-2.3c-0.3-0.5-0.3-1.2-0.5-1.7c-0.2-0.8-0.7-1.5-0.6-2.4c0-0.4-0.5-0.9-0.7-1.3
			c-0.1-0.3-0.3-0.6-0.3-0.9c0.1-0.9-0.2-1.6-1-1.9c-0.3-0.2-0.4-0.4-0.4-0.7c0-0.5-0.2-1-0.3-1.5c0-0.1-0.1-0.3,0-0.4
			c0.2-0.8-0.1-1.4-0.7-2c-0.1-0.1-0.2-0.4-0.3-0.6c-0.1-0.6-0.2-1.2-0.3-1.8c-0.1-0.5-0.1-0.9-0.2-1.4c-0.2-0.9-0.5-1.8-0.7-2.7
			c0-0.1-0.1-0.2-0.1-0.3c0.2-1.1-0.3-2.1-0.5-3.1c-0.1-0.7-0.5-1.4-0.7-2.1c-0.1-0.4-0.1-0.8-0.1-1.2c0-0.4-0.1-0.8-0.2-1.1
			c-0.5-0.8-0.6-1.6-0.7-2.5c-0.2-1.5-0.6-2.9-0.8-4.4c-0.1-0.3,0-0.6,0-0.8c0-0.2,0.1-0.5,0-0.7c-0.3-0.6-0.3-1.2,0-1.8
			c0-0.1,0-0.1,0.1-0.2c0.4-0.7-0.2-1.7,0.5-2.4c0.6-0.6,0.9-1.3,1.4-2c0-0.1,0.1-0.1,0.1-0.2c0.2-1.3,1.5-2.1,1.9-3.3
			c0.1-0.2,0.5-0.3,0.7-0.5c0.7-0.9,1.2-1.9,2.3-2.4c0.2-0.9,0.9-1.2,1.8-1.4c0.5-0.1,1.1-0.3,1.6-0.5c0.4-0.1,0.8-0.6,1.1-0.9
			c0.2-0.2,0.5-0.4,0.8-0.5c0.2-0.1,0.5-0.1,0.7-0.3c1.3-1,2.6-2,3.9-2.9c0.3-0.2,0.6-0.4,1-0.7c0.1,0.3,0.2,0.5,0.2,0.8
			c0,0.9,0,1.8,0.5,2.6c0.4,0.7,0.6,1.7,1.1,2.3c0.5,0.7,0.6,1.5,1,2.2c0.1,0.1,0.1,0.3,0.2,0.5c0.4,0.7,0.8,1.3,1.2,2
			c0.2,0.4,0.6,0.7,0.8,1.1c0.4,1.2,1.2,2.1,2.2,2.9c0,0,0.1,0,0.1,0.1c0.4,0.8,0.8,1.5,1.2,2.3c0.2,0.4,0.4,0.9,0.6,1.3
			c0.5,0.9,1.6,1.4,1.9,2.4c0,0.1,0.1,0.1,0.1,0.2c0.8,0.8,1.6,1.5,2.4,2.3c0.1,0.1,0.3,0.3,0.3,0.5c0.2,0.6,0.7,1,1.3,1.3
			c0.5,0.2,0.8,0.7,1.2,1.1c0.8,0.8,1.5,1.5,2.2,2.3c0.2,0.2,0.3,0.5,0.4,0.7c0.1,0.4,0,1.1,0.5,1.2c0.5,0.1,1.2-0.1,1.6-0.4
			c1.3-1.1,2.4-2.3,2.8-4c0-0.1,0.1-0.2,0.2-0.3c1.2-0.9,1.6-2.3,1.8-3.7c0-0.2,0.2-0.4,0.3-0.5c0.7-0.4,1-0.9,1.1-1.7
			c0.1-0.4,0.3-0.7,0.4-1c0.4-0.9,0.6-1.8,1.2-2.6c0.4-0.5,0.3-1.3,0.5-1.9c0.2-0.5,0.6-1,0.9-1.5c0.1-0.2,0.2-0.4,0.3-0.6
			c0.9-2.3,1.8-4.6,2.7-7c0.4-1.3,0.7-2.6,1-3.9c0.1-0.4,0.2-0.9,0.6-0.9c0.4,0,0.9,0.3,1.2,0.6c0.4,0.6,0.9,0.8,1.4,1.2
			c0.7,0.6,1.5,1.1,2.3,1.6c0.4,0.3,0.7,0.9,0.9,1.3c0.3,0.6,0.7,1.2,1.4,1.4c0.1,0,0.2,0.4,0.2,0.6c-0.1,0.9,0,1.6,0.8,2.2
			c0.1,0.1,0.1,0.3,0.2,0.4c0,0.1,0,0.3,0.1,0.4c0.5,0.8,0.8,1.6,0.9,2.5c0.1,0.4,0.2,0.7,0.3,1.1c0.1,0.3,0.2,0.6,0.3,0.8
			c0.3,0.8,0.7,1.6,1,2.4c0.2,0.5,0.3,1.1,0.5,1.5c0.2,0.3,0.6,0.3,0.9,0.6c0,0.1,0.1,0.3,0,0.5c-0.3,0.8,0,1.5,0.3,2.3
			c0.3,0.9,0.7,1.9,0.9,2.8c0.1,0.4-0.2,0.8-0.2,1c-0.7-0.1-1.3-0.1-1.8-0.2c-0.6-0.2-1.2-0.5-1.9-0.7c-0.8-0.3-1.7-0.7-2.5-1
			c-0.8-0.3-2.5,0.3-3,1.1c-0.2,0.3-0.5,0.6-0.7,0.8c-0.1,0.2-0.4,0.3-0.4,0.5c-0.5,1.5-2.1,2-2.8,3.3c-0.3,0.6-0.8,1-1.3,1.6
			c-0.3-1.1-1.2-1-2.1-0.7c-0.6,0.2-1.2,0.6-1.9,0.9c-0.8,0.3-1.5,0.6-2.3,0.9c-0.2,0.1-0.5,0.1-0.7,0.2c-0.6,0.7-1.4,0.7-2.1,1
			c-0.2,0.1-0.5,0.2-0.6,0.3c-0.5,0.7-1.2,0.7-2,0.9c-0.3,0.1-0.7,0.2-0.9,0.5c-0.4,0.5-0.9,0.6-1.5,0.7c-0.4,0.1-0.8,0.2-1.2,0.5
			c-1.2,0.6-2.3,1.3-3.5,1.9c-0.2,0.1-0.4,0.1-0.5,0.2c-0.5,0.2-0.9,0.5-1.4,0.7c-0.4,0.2-0.8,0.4-1.2,0.5c-0.1,0-0.3,0-0.3,0
			c-0.8,0.9-2.2,0.5-3,1.4c-0.3,0.4-1,0.3-1.6,0.5c-0.3,0.1-0.6,0.1-0.9,0.2c-0.4,0.2-0.7,0.4-1.1,0.6c-0.3,0.2-0.7,0.3-1.2,0.5
			c-0.1-0.2-0.3-0.5-0.4-0.8c-0.5-1.2-0.9-2.4-1.4-3.5c-0.4-1.1-0.8-2.2-1.2-3.3c-0.5-1.3-1-2.5-1.4-3.8c-0.1-0.2-0.2-0.4-0.2-0.7
			c-0.2-1.2-0.5-2.2-1.2-3.3c-0.5-0.6-0.5-1.6-0.8-2.4c-0.2-0.5-0.5-1-0.8-1.5c-0.1-0.1-0.5-0.1-0.6,0c-0.3,0.5-0.8,1-0.6,1.7
			c0.3,0.9,0.6,1.8,0.6,2.7c0,0.8,0.1,1.5,0.4,2.2c0.1,0.4,0.3,0.7,0.5,1.1c0.1,0.3,0.2,0.5,0.3,0.8c0.4,1.6,0.7,3.2,1.2,4.8
			c0.5,1.6,1.3,3.1,2,4.5c0.3,0.6,0.8,1.2,1.1,1.9c0.1,0.3,0.1,0.7,0,0.9c-0.4,0.3-0.8,0.7-1.3,1c-0.3,0.2-0.7,0.3-1.1,0.4
			c-0.1,0.1-0.4,0-0.4,0.1c-0.3,0.3-0.7,0.7-0.9,1.1c-0.1,0.2,0.2,0.7,0.3,0.7c0.5,0.1,1.1,0.2,1.5,0c0.6-0.3,1.2-0.7,1.9-0.6
			c0.2,0,0.5-0.1,0.7-0.2c0.7-0.4,1.3-0.8,2-1.2c0.8-0.4,1.6-0.7,2.5-0.9c1-0.2,1.7-0.9,2.6-1.4c0.1-0.1,0.2-0.2,0.3-0.2
			c0.8,0,1.3-0.5,2-0.9c0.9-0.6,2.2-0.7,3.3-1c0.1,0,0.2,0,0.3-0.1c1.1-0.5,2.1-1,3.2-1.4c0.8-0.4,1.5-0.7,2.3-1.1
			c0.2-0.1,0.4-0.2,0.5-0.3c0.4-0.4,1-0.6,1.6-0.8c0.5-0.1,1-0.6,1.5-1c0.2-0.2,0.5-0.3,0.7-0.4c0.7-0.3,1.4-0.7,2.1-1
			c0.2-0.1,0.4-0.2,0.6-0.3c0.4-0.1,0.7-0.3,1.1-0.4c0.9-0.5,1.7-1.3,2.8-1.3c0.2,0,0.6,0.1,0.7,0.3c0.3,0.4,0.5,0.8,0.7,1.2
			c0.4,0.7,0.9,1.1,1.5,1c-0.6,0.6-1.3,1.2-2,1.9c-0.2,0.2-0.5,0.4-0.8,0.6c-0.4,0.3-0.8,0.7-1.2,1c-0.8,0.6-1.7,1.2-2.5,1.8
			C153.3,115,152.3,115.7,151.8,117.1z"/>
		<path class="st1" d="M165.1,142.9c0.7-0.1,1.2-0.2,1.7-0.3c0.5-0.1,1.1-0.2,1.6-0.4c0.4-0.1,0.8-0.1,1.1-0.3
			c0.4-0.2,0.6-0.3,1-0.1c0.2,0.1,0.4,0,0.6,0c0.4-0.1,0.8-0.4,1.1-0.3c1.6,0.4,3-1,4.6-0.4c0.1,0,0.2,0,0.3,0
			c1.5-0.5,2.6,0.4,3.7,1.2c1.4,1,2.3,2.4,3.2,3.8c0.2,0.3,0.2,0.6,0.3,1c0.1,0.2,0.1,0.4,0.2,0.5c0.3,0.3,0.3,0.7,0.2,1.1
			c-0.1,0.3,0.1,0.7,0.2,1.1c0.1,0.3,0.1,0.6,0.3,0.8c0.5,0.9,0.2,2,0.5,2.9c0.3,0.8,0.5,1.6,0.6,2.6c0.1,1.7,0.7,3.3,0.9,4.9
			c0.1,1,0.5,1.9,0.8,2.8c0.3,1,0.2,2,0.4,3c0.2,0.9,0.3,1.8,0.4,2.7c0.2,1.3,0.8,2.6,1.3,3.9c0,0.1,0.2,0.3,0.1,0.3
			c-0.3,0.7,0,1.3,0.4,1.9c0.1,0.2,0.1,0.4,0.1,0.6c-0.3,0.8,0,1.5,0.2,2.3c0.2,0.4,0.2,0.9,0.4,1.4c0.2,0.7,0.5,1.3,0.5,2
			c0,1,0.5,1.8,0.7,2.7c0.2,1.1,0.2,2.3,0.3,3.6c-1.1,0.2-2.2,0.5-3.4,0.7c-0.2,0-0.5,0.1-0.7,0.2c-1.2,0.9-2.7,1.2-4,1.8
			c-0.9,0.4-2,0.5-3,0.8c-0.1-0.2-0.2-0.3-0.2-0.4c-0.1-0.8-0.2-1.5-0.1-2.3c0.1-1.4,0.4-2.7,0.6-4.1c0.1-0.7-0.1-1.3-0.2-2
			c0-0.2-0.1-0.5-0.1-0.7c0-0.9,0.1-1.8,0.2-2.7c0-0.3,0-0.5,0.1-0.8c0.3-0.7,0.3-1.4,0.1-2.2c-0.1-0.6,0-1.3-0.1-2
			c0-0.5-0.1-1-0.3-1.5c-0.1-0.3-0.1-0.5-0.1-0.8c0.1-0.5,0.1-1,0-1.5c-0.1-0.6-0.3-1.3-0.5-1.9c-0.2-0.4-0.5-0.7-0.7-1.1
			c-0.5-1-1-2-1.5-3.1c-0.2-0.4-0.4-0.9-0.8-1.2c-0.5-0.5-1.2-0.9-1.7-1.4c-0.6-0.5-1.1-1-1.9-1c-0.2,0-0.4-0.2-0.5-0.3
			c-0.4-0.6-0.9-0.9-1.6-1c-0.6-0.1-1.3-0.2-1.9-0.3c-0.7-0.2-1.4-0.1-1.9,0.5c-0.3,0.3-0.5,0.2-0.8,0.1c-0.5-0.2-1.2-0.4-1.7-0.2
			c-0.7,0.2-1.4,0.8-2.1,1.1c-0.3,0.2-0.7,0.3-1.1,0.3c-0.7,0-1.3,0.2-1.7,0.7c-0.1,0.1-0.2,0.2-0.3,0.3c-1.6,0.4-2.7,1.5-4,2.4
			c-0.7,0.5-1.4,0.8-1.8,1.6c0,0,0,0,0,0c-1.1,0.1-1.5,1.2-2.3,1.8c-0.4,0.2-0.8,0.4-1.1,0.6c-0.6,0.4-1.2,0.9-1.8,1.3
			c-0.5,0.4-1.1,0.9-1.6,1.4c-0.7,0.6-1.4,1.3-2.1,1.9c-0.1,0.1-0.2,0.1-0.3,0.2c-0.5,0.2-1,0.3-1.4,0.5c-1,0.7-1.9,1.5-3,2.2
			c-0.6,0.4-1.2,0.6-1.9,0.8c-0.8,0.2-1.7,0.3-2.5,0.5c-0.7,0.2-1.3,0.5-2,0.8c-0.3,0.1-0.6,0.3-0.8,0.2c-1.1-0.4-2.1-0.1-3.1,0.1
			c-0.8,0.2-1.6,0.3-2.5,0.2c-0.8,0-1.6,0-2.4-0.2c-0.5-0.1-1.1,0.1-1.8,0.3c-1.1-2-3.2-1-4.8-1.4c0.3-0.9,0.6-1.8,0.9-2.6
			c0.1-0.2,0.2-0.3,0.4-0.5c0.2-0.3,0.5-0.5,0.6-0.8c0.6-2.4,2-4.4,2.9-6.6c0.4-0.9,0.9-1.8,1.3-2.7c0.2-0.5,0.3-1,0.7-1.4
			c0.2-0.2,0.4-0.4,0.6-0.5c0.2-0.2,0.4-0.3,0.5-0.5c0.5-0.9,1-1.8,1.5-2.6c0-0.1,0-0.1,0.1-0.2c0.5-0.6,1.1-1.3,1.7-1.9
			c0.6-0.6,0.9-1.2,1-2c0-0.2,0.2-0.5,0.3-0.5c0.9-0.1,1.4-0.6,1.7-1.3c0.3-0.7,1-0.8,1.4-1.2c0.5-0.5,0.9-1,1.5-1.3
			c1.4-0.8,2.9-1.5,4.4-2.1c1.3-0.5,2.7-0.8,4-1.2c0.9-0.3,1.8-0.6,2.7-0.9c0.9-0.2,1.9-0.4,2.9-0.6c1.1-0.2,2.2-0.4,3.3-0.7
			c0.6-0.2,1.2-0.6,1.8-0.9c0.2-0.1,0.5-0.2,0.7-0.2c1.1,0.1,2.1,0.2,3.2-0.2c0.9-0.3,1.9-0.4,2.8-0.5c0.1,0,0.2,0,0.3,0
			C164.3,143.9,164.5,143.8,165.1,142.9z"/>
		<path class="st0" d="M154,16.5c1,0.6,2.1,1.3,3.2,2c0.1,0.1,0.3,0.2,0.4,0.2c1,0.1,1.5,0.9,2.2,1.4c0.2,0.2,0.5,0.4,0.7,0.4
			c1,0.1,1.5,0.8,2,1.6c0,0.1,0.1,0.2,0.2,0.2c1.2,0.4,1.5,1.7,2.5,2.3c0.8,0.5,1.5,1.4,2.4,1.9c0.3,0.1,0.3,0.7,0.5,1
			c0.2,0.4,0.5,0.8,0.7,1.1c0.1,0.1,0.2,0.2,0.3,0.3c0.7,1.1,1.3,2.2,2.1,3.2c0.6,0.7,0.8,1.4,1,2.3c0.1,0.3,0.3,0.6,0.5,0.8
			c0.6,0.5,1.1,1.1,1.2,1.9c0.2,1.1,0.7,2.2,0.6,3.2c-0.1,1.2-0.6,2.4-1,3.6c-0.4,1.1-1.3,2-1.4,3.3c-0.1,0.4-0.5,0.8-0.8,1.2
			c-0.6,0.9-1.3,1.8-1.9,2.7c-0.4,0.5-0.7,1.1-1.2,1.6c-0.8,0.8-1.8,1.5-2.5,2.3c-0.8,1-1.9,1.3-3,1.7c-1.2,0.4-2.4,0.8-3.7,1.1
			c-1.4,0.3-2.8,0.4-4.2,0.4c-1.7,0.1-3.4,0-5,0c-0.2,0.7-0.4,1.3-0.5,1.9c0,0.1-0.1,0.2,0,0.3c0.6,1.1,0.1,2.3,0.4,3.5
			c0.2,0.7,0.4,1.2,1,1.6c0.1,0.1,0.2,0.1,0.2,0.2c0.4,1.2,1.5,1.7,2.3,2.6c0.2,0.2,0.2,0.4,0.4,0.6c0.1,0.1,0.1,0.2,0.2,0.3
			c0.2,0.3,2.6,1.3,3,1.3c0.1,0,0.3,0,0.3,0.1c0.4,0.8,1.2,1,2,1.4c0.1,0,0.2,0.1,0.2,0.1c0,2.1-1.4,3.7-2.1,5.5
			c0,0.1-0.2,0.2-0.4,0.3c-0.1,0-0.3,0-0.3,0c-1,1-2.4,0.1-3.6,0.7c-0.5,0.3-1.3,0.1-1.9,0.1c-1.2,0.1-2.4,0.1-3.6,0.2
			c-0.1,0-0.2,0.1-0.2,0.1c-1.4-0.5-2.6,0.5-4,0.6c-0.2,0-0.3-0.1-0.5-0.1c-0.6-0.4-1.2-0.4-1.9-0.2c-0.8,0.2-1.7,0.3-2.6,0.4
			c-0.1,0-0.3,0-0.5,0c-1.6-0.8-3.3-0.6-5-0.6c-0.2,0-0.3-0.1-0.5-0.1c-0.5-0.1-0.9-0.2-1.6-0.3c-0.2-0.4-0.3-1-0.6-1.6
			c-0.5-1-1.1-2-1.7-2.9c-0.6-0.8-0.6-1.2,0.1-1.7c0.2-0.2,0.4-0.4,0.7-0.6c0.6-0.5,1.2-1,1.8-1.4c0.2-0.2,0.5-0.3,0.7-0.5
			c0.8-1.2,2.1-1.8,3-2.7c0.4-0.4,0.7-0.9,1.1-1.3c0.4-0.4,0.8-0.9,1.1-1.3c0.1-0.1,0.1-0.1,0.2-0.2c0.6-1.4,1.4-2.6,1.5-4.2
			c0.1-1.5,0.3-3,0.5-4.5c0-0.2,0.1-0.5,0-0.7c-0.3-0.5-0.1-1.1,0-1.6c0.1-0.8,0.3-1.5,0.4-2.3c0-0.2-0.1-0.5-0.1-0.7
			c0-0.2-0.1-0.5-0.1-0.7c0.2-0.6,0.3-1.2,0-1.9c-0.1-0.1,0-0.3,0.1-0.4c0-0.2,0.2-0.5,0.1-0.6c-0.3-1.1-0.1-2.3-0.8-3.4
			c-0.1-0.2-0.1-0.5-0.2-0.7c-0.2-0.6-0.3-1.2-0.5-1.8c-0.1-0.2-0.5-0.4-0.7-0.5c-0.5-0.2-1-0.4-1.4-0.9c-0.3-0.4-0.7-0.6-1.2-0.8
			c-0.6-0.3-1.1-0.7-1.2-1.5c0-0.2-0.1-0.4-0.2-0.5c-0.3-0.3-0.2-0.6-0.1-1c0.3-1.5,1.5-1.8,2.7-2.1c0.7-0.2,1.3,0.2,1.8,0.8
			c0.2,0.3,0.5,0.6,0.6,1c0.2,0.5,0.6,0.9,1.2,1c0.1,0,0.3,0.2,0.4,0.3c0.3,0.3,0.8,0.2,1.1-0.2c0.1-0.1,0.1-0.2,0.2-0.2
			c1-0.2,2.1-0.4,3.1-0.7c0.4-0.1,0.8-0.2,1-0.4c0.6-0.8,1.5-0.9,2.3-1.4c0.6-0.4,1.1-0.7,1.5-1.2c0.5-0.6,1.3-1,1.7-1.6
			c0.5-0.7,0.9-1.5,1.3-2.2c0.3-0.6,0.5-1.3,0.7-2c0.3-1,0.7-2,0.6-3.2c-0.1-0.5,0.2-1,0.3-1.6C153.5,20.2,153.7,18.4,154,16.5z"/>
		<path class="st1" d="M134.9,12.2c0.9-0.1,1.4-1,2-1.8c0.6-0.8,1-1.8,2-2.5c0.6-0.4,1-1,1.5-1.6c0.3-0.3,0.6-0.3,1-0.1
			c0.5,0.2,1,0.4,1.5,0.6c0.1,0,0.2,0.1,0.3,0.1c1.1,0.9,2.5,0.8,3.8,1.1c0.1,0,0.3-0.1,0.4-0.2c0.7-0.8,1.6-1.2,2.5-1.7
			c1.4-0.6,2.7-1.4,4.1-2.1c0.3-0.2,0.7-0.3,1-0.3c1,0,1.9,0.1,2.7,0.6c0.7,0.4,1.6,0.6,2.4,0.9c0.3,0.1,0.5,0.2,0.7,0.4
			c0.5,0.4,1.1,0.6,1.7,0.4c0.3-0.1,0.5,0,0.8,0.3c0.2,0.3,0.6,0.5,0.9,0.6c1.7,0.3,3,1.3,4.1,2.6c0.6,0.7,1.4,1.2,2,1.8
			c0.6,0.7,1.1,1.5,1.7,2.2c0.3,0.3,0.5,0.7,0.9,0.9c0.5,0.2,0.8,0.6,1,1.1c0.1,0.2,0.2,0.5,0.4,0.6c0.9,0.7,1.3,1.7,1.9,2.7
			c0.3,0.5,0.4,1,0.5,1.5c0.1,0.5,0.5,1,0.9,1.4c0.5,0.4,0.6,0.9,0.7,1.5c0.1,0.5,0.3,0.9,0.5,1.4c0.2,0.4,0.4,0.8,0.6,1.2
			c0.3,0.7,0.6,1.3,0.9,2c0.3,0.7,0.4,1.4,0.7,2.2c0.2,0.6,0.4,1.2,0.6,1.8c0.2,0.8,0.5,1.6,0.3,2.4c-0.2,1.1,0,2,0.2,3
			c0.1,0.7,0,1.4-0.1,2c-0.3,1.6-0.7,3.3-1.1,4.9c-0.1,0.4-0.3,0.9-0.5,1.2c-0.8,1.1-1.2,2.3-1.6,3.6c-0.2,0.6-0.8,1.1-1.1,1.7
			c-0.3,0.4-0.5,0.9-0.8,1.4c-0.2,0.4-0.4,0.9-0.7,1.4c-0.5,0.8-0.9,2.5-0.1,3.7c0.1,0.1,0.1,0.2,0.1,0.4c-0.1-0.1-0.2-0.2-0.4-0.3
			c-0.3-0.2-0.6-0.5-0.9-0.6c-0.5-0.2-1.1-0.3-1.6-0.5c-0.8-0.4-1.6-1-2.3-1.5c-0.1-0.1-0.2-0.2-0.3-0.4c0.6-0.5,1.2-1,1.7-1.6
			c0.6-0.9,1.2-1.8,1.7-2.7c0.3-0.5,0.5-1.1,0.9-1.6c0.6-0.6,0.9-1.3,1.1-2.2c0.3-1.1,0.7-2.1,1-3.2c0.1-0.3,0.2-0.6,0.1-0.8
			c-0.3-0.9,0.4-1.5,0.6-2.3c0-0.1,0.2-0.2,0.2-0.3c-0.3-0.7,0.1-1.5-0.5-2.1c-0.3-0.3-0.4-0.7-0.6-1c-0.1-0.3-0.2-0.6-0.4-0.7
			c-0.8-0.5-0.8-1.4-1.1-2.2c-0.2-0.4-0.5-0.8-0.9-1.2c-0.4-0.4-0.8-0.7-1-1.3c-0.1-0.4-0.4-0.7-0.6-1c-0.7-1.2-1.3-2.4-2-3.6
			c-0.3-0.4-0.8-0.7-1.2-1c-0.4-0.4-0.7-0.9-1-1.3c-0.3-0.4-0.7-0.8-1-1.2c-0.3-0.3-0.6-0.7-0.9-0.9c-0.4-0.3-0.9-0.5-1.3-0.8
			c-0.2-0.1-0.3-0.3-0.5-0.4c-0.3-0.3-0.6-0.6-0.9-0.8c-0.7-0.5-1.4-0.8-2-1.6c-0.4-0.6-1.3-1-2.1-1.4c-0.1-0.1-0.4-0.1-0.5-0.2
			c-0.9-1.2-2.4-1.3-3.6-2c-0.8-0.4-1.6-0.8-2.4-1.2c-0.4-0.2-0.8-0.4-1.3-0.5c-0.6-0.2-1.1,0.1-1.4,0.6c-0.2,0.5-0.2,1.2,0.4,1.4
			c0.8,0.4,0.6,0.8,0.4,1.5c-0.2,0.5-0.2,1.1-0.3,1.7c-0.2,1.2-0.3,2.5-0.6,3.7c-0.4,1.8-1.3,3.4-1.9,5.1c-0.2,0.7-0.9,1.2-1.2,1.9
			c-0.4,0.7-0.9,1.2-1.6,1.6c-0.6,0.3-1.1,0.9-1.7,1.4c-0.1,0.1-0.2,0.2-0.3,0.2c-0.7,0.3-1.5,0.6-2.2,0.8c-0.6,0.2-1.3,0.2-1.8,0.3
			c-0.9-1.2-1.9-2-3.3-2.2c-0.8-0.1-1.5-0.1-2.3-0.1c-1.7,0-2.8,1-3.6,2.3c-0.6,1.1-0.7,2.3-0.4,3.5c0.4,1.7,1.4,3.1,2.5,4.3
			c0.5,0.5,1,0.7,1.7,0.6c0.5-0.1,0.7,0.2,1,0.6c0.5,0.8,0.4,1.7,0.3,2.6c0,0.9,0.2,1.8,0.3,2.7c0,0.2,0,0.3,0,0.5
			c0,0.1-0.1,0.2-0.1,0.3c0.3,0.9,0,1.8-0.2,2.7c-0.1,0.7-0.6,1.5-1.3,1.7c-0.7,0.3-1.4,0.6-2.2,0.9c-0.2,0.1-0.3,0-0.5,0.1
			c-0.5,0.2-1.1,0.4-1.6,0.6c-0.3,0.1-0.5,0.2-0.8,0.3c-0.1-0.1-0.1-0.2-0.2-0.2c0.4-0.6,0.9-1.1,1.3-1.7c0.8-1.2,1.1-2.5,0.8-4
			c-0.3-1.6-1.1-2.9-2.3-4.1c-0.6-0.6-1.5-1.2-1.8-2.2c-0.1-0.3-0.5-0.6-0.9-0.8c-0.5-0.3-0.9-0.7-1.1-1.3c-0.4-0.9-0.9-1.6-1.4-2.4
			c-0.8-1.2-1.5-2.4-1.4-3.9c0-0.7,0.2-1.3,0.3-2c0-0.2,0.2-0.4,0.2-0.6c-0.2-1.3,0.5-2.2,1-3.3c0-0.1,0.1-0.1,0.1-0.2
			c0.5-2.1,2-3.6,2.8-5.5c0.3-0.7,1-1.2,1.4-1.8c0.6-1,1.2-2,1.8-3c0.1-0.2,0.2-0.5,0.4-0.7c0.4-0.5,0.8-1,1.3-1.5
			c0.1-0.1,0.3-0.2,0.4-0.2c0.2-0.1,0.6-0.2,0.7-0.4C133.8,14,134.2,13.2,134.9,12.2z"/>
		<path class="st0" d="M161.9,140.8c-0.2,0-0.6,0.1-0.9,0.1c-0.4,0.1-0.7,0.1-1.1,0.2c-0.1,0-0.3,0.1-0.4,0.1
			c-1-0.2-1.9,0.2-2.6,0.8c-0.8,0.6-1.6,0.4-2.4,0.3c-0.2,0-0.4-0.1-0.6-0.1c-1.9,0.5-3.9,0.9-5.8,1.5c-1.8,0.6-3.4,1.4-5.2,2.1
			c-0.3,0.1-0.6,0.1-0.9,0.2c-0.2,0-0.4,0-0.6,0.1c-1.1,0.4-2.2,0.7-3.3,1.1c-0.9,0.3-1.8,0.5-2.7,0.9c-0.4,0.2-0.6,0.6-0.8,1
			c-0.2,0.3-0.4,0.7-0.6,1c-0.6,0.7-1.5,1.1-2.3,1.6c-0.4,0.3-0.6,0.8-0.8,1.3c-0.1,0.3-0.2,0.6-0.6,0.7c-0.8,0.2-1.4,0.6-1.8,1.4
			c-0.1,0.3-0.4,0.6-0.6,0.8c-0.6,0.8-1,1.7-1.8,2.4c-0.4,0.3-0.6,0.7-0.8,1.2c-0.2,0.4-0.4,0.7-0.5,1.1c-0.3,0.7-0.6,1.4-1.2,2
			c-0.5,0.5-0.9,1.1-1.2,1.7c-0.5,0.9-1,1.8-1.4,2.7c-0.6,1.3-1.2,2.6-1.7,3.9c-0.1,0.3-0.3,0.5-0.4,0.7c-0.2,0.4-0.4,0.9-0.5,1.3
			c-0.2,0.5-0.2,1-0.4,1.5c-0.2,0.5-0.4,1-0.6,1.5c-1,0.1-1.9,0.1-2.8-0.7c-0.4-0.4-1-0.5-1.5-0.7c-0.2-0.1-0.5-0.3-0.7-0.5
			c-0.4-0.3-0.8-0.6-1.2-0.1c-0.5-0.3-0.8-0.7-0.8-1.3c0-0.7-0.1-1.3-0.2-2c0-0.2,0-0.4-0.1-0.5c-1-1-0.7-2.2-0.5-3.4c0,0,0,0,0-0.1
			c-0.5-1.6,0.4-3.2,0-4.9c-0.1-0.7-0.1-1.3-0.1-2c0-0.1,0-0.2,0-0.2c0.7-0.7,0.6-1.6,0.9-2.5c0.3-0.7,0.3-1.3,0-2
			c-0.1-0.3,0-0.9,0.2-1.1c0.8-0.6,0.9-1.4,1.1-2.2c0.2-0.8,0.4-1.6,0.7-2.3c0.4-0.8,0.4-1.5,0.4-2.3c0-0.2,0.1-0.6,0.3-0.7
			c0.8-0.5,1-1.4,1.2-2.2c0-0.3,0.2-0.5,0.3-0.7c0.3-0.7,0.6-1.5,0.9-2.2c0.3-0.7,0.5-1.3,0.8-2c0.1-0.3,0.4-0.7,0.3-1
			c-0.1-0.6,0-0.9,0.4-1.3c0.3-0.4,0.4-0.9,0.6-1.3c0.1-0.3,0.2-0.6,0.3-0.9c1.1,0.9,2.2,1.9,3.3,2.7c0.3,0.2,0.7,0.3,1,0.3
			c1.4-0.1,2.7-0.1,4.1-0.3c1-0.2,1.9-0.5,2.9-0.8c0.7-0.2,1.3-0.4,2-0.7c0.5-0.2,0.9-0.5,1.4-0.8c0.1-0.1,0.2-0.2,0.4-0.1
			c1.1,0.1,1.7-0.7,2.5-1.3c0.5-0.4,1.2-0.6,1.8-0.9c0.8-0.4,1.6-0.8,2.5-1.2c0.1,0,0.2-0.1,0.2-0.1c0.9-1.1,2.3-1.4,3.3-2.2
			c0.5-0.4,1.2-0.6,1.8-0.9c0.1,0,0.2,0,0.3-0.1c1.2-0.7,2.5-1.5,3.7-2.2c1.3-0.7,2.3-1.9,3.8-2.1c0.2,0,0.4-0.2,0.5-0.3
			c0.7-0.4,1.4-0.8,2-1.3c0.4-0.3,0.8-0.8,1.2-1.2c0.1-0.1,0.3-0.3,0.4-0.2c0.5,0.2,1.1,0.4,1.6,0.7c0.6,0.3,1.2,0.7,1.7,1.1
			c0.2,0.2,0.5,0.7,0.4,1c-0.6,1.5-0.3,2.9-0.1,4.4c0,0.2,0.1,0.3,0.1,0.4c-0.4,0.8-0.1,1.6,0,2.5c0.1,0.7,0.1,1.4,0.4,2
			c0.2,0.3,0.1,0.8,0.1,1.2c-0.1,0.8-0.2,1.6,0.3,2.3c0,0.1,0.1,0.2,0.1,0.2C160.9,138.1,162.1,139.3,161.9,140.8z"/>
		<path class="st1" d="M144.6,177.1c0.6-0.4,1.2-0.7,1.8-1.1c0.3-0.2,0.6-0.5,0.9-0.8c0.1-0.1,0.2-0.3,0.4-0.3
			c1.4-0.4,2.5-1.2,3.5-2.1c0.5-0.4,1.1-0.7,1.7-1.1c0.4-0.3,0.7-0.6,1-0.9c0.6-0.5,1.2-0.9,1.8-1.3c0.2-0.2,0.6-0.2,0.7-0.4
			c0.4-1.1,1.7-1.1,2.4-1.9c0.7-0.7,1.7-1.1,2.6-1.6c0.1-0.1,0.3-0.2,0.4-0.3c0.4-0.4,0.8-0.7,1.4-0.8c0.4-0.1,0.7-0.5,1.1-0.7
			c0.3-0.2,0.7-0.3,1-0.4c0.7-0.1,1.4,0,2-0.1c0.5-0.1,1-0.6,1.3-0.8c0.7,0.1,1.4,0.1,2.1,0.3c0.8,0.3,1.9,0.5,2.3,1.1
			c0.8,1,1.8,1.3,2.8,1.8c0.9,0.4,1.4,1.1,2,1.8c0.9,1.2,0.8,2.7,1.1,4.1c0.2,0.9,0.1,1.8,0.1,2.8c0,1.1,0.1,2.2-0.1,3.3
			c-0.1,0.3,0,0.7,0.1,1c0.4,0.7,0.1,1.5,0.3,2.2c0.3,1.4-0.4,2.5-0.6,3.7c-0.3,2.1-0.5,4.3-0.8,6.4c-0.2,1.5-0.7,3.1-1,4.6
			c-0.1,0.4-0.2,0.8-0.2,1.2c0.1,1-0.3,1.9-0.5,2.9c-0.2,0.8-0.1,1.6-0.2,2.4c-0.1,0.6-0.2,1.2-0.3,1.7c0,0.1-0.2,0.3-0.2,0.4
			c-0.1,1-0.2,2-0.1,3c0,0.4,0,0.7-0.3,1c-0.2,0.2-0.3,0.5-0.4,0.7c-0.1,0.8-0.1,1.7-0.2,2.5c0,0.3-0.2,0.6-0.4,0.9
			c-0.1,0.3-0.4,0.5-0.5,0.8c-0.2,1-0.3,2.1-0.5,3.1c-0.2,1-0.3,2.2-0.8,3c-1,1.5-1.1,3.1-1.3,4.8c-0.1,0.4-0.1,0.6-0.5,0.5
			c-0.7-0.1-1.3-0.1-2-0.1c-0.3,0-0.6-0.2-0.9-0.1c-1.5,0.2-2.8-0.4-4.1-0.9c-0.5-0.2-1.1-0.2-1.6-0.3c-0.3-0.1-0.6-0.2-0.9-0.3
			c-0.3-0.1-0.5-0.3-0.8-0.3c-0.5,0-0.5-0.3-0.5-0.7c0-0.6,0-1.3,0-1.9c0-0.2,0-0.4,0-0.5c0.4-0.7,0.3-1.3,0.1-2
			c-0.1-0.2-0.1-0.5-0.1-0.7c0.2-0.9,0.5-1.9,0.7-2.8c0-0.1,0.1-0.3,0.1-0.4c0.2-2.1,0.5-4.3,0.5-6.4c0-1.2,0.5-2.3,0.5-3.5
			c0-0.7,0.2-1.4,0.2-2.1c0.1-1,0.1-2,0.3-3c0.2-1.4,0.4-2.8,0.6-4.1c0-0.4,0.1-0.8,0-1.1c-0.2-0.5-0.1-0.8,0-1.3
			c0.3-1.1,0.5-2.2,0.7-3.3c0-0.1,0-0.3,0-0.5c-0.1-0.6-0.1-1.2,0-1.8c0.1-0.4-0.2-1.1-0.5-1.4c-0.4-0.4-1.1-0.7-1.7-1
			c-0.2-0.1-0.4-0.2-0.5-0.3c-1.1-1.5-2.8-2.1-4.4-2.6c-0.4-0.1-0.8-0.4-1.2-0.7c-0.6-0.4-1.2-0.6-1.9-0.5c-0.5,0-1-0.1-1.4-0.3
			c-1.1-0.5-2.3-0.9-3.5-1.1c-1.3-0.2-2.5-0.6-3.7-0.9C144.6,177.3,144.6,177.2,144.6,177.1z"/>
		<path class="st1" d="M193.9,110.1c-0.5,0.3-1.1,0.6-1.7,0.8c-0.8,0.3-1.5,0.6-2,1.4c-0.2,0.2-0.5,0.4-0.7,0.6
			c-0.7,0.5-1.3,0.9-2,1.3c-0.1,0.1-0.2,0.3-0.3,0.5c0-0.1-0.1-0.2-0.1-0.3c-0.4-0.1-0.8-0.1-1.2-0.3c-0.4-0.1-0.8-0.3-1.2-0.5
			c-0.1,0-0.2-0.1-0.3-0.1c-1.4-0.2-2.7,0-3.9,0.6c-0.3,0.1-0.4,0.7-0.5,1.1c-0.2,0.4-0.2,0.8-0.5,1.2c-0.4,0.5-0.6,0.9-0.5,1.6
			c0,0.3-0.2,0.7-0.4,1c-0.4,0.5-0.4,1-0.3,1.6c0.1,0.3-0.1,0.6-0.2,0.9c-0.1,0-0.2,0-0.3,0c0-0.1-0.1-0.3-0.1-0.4
			c0-0.4,0-0.8,0-1.2c0-0.1,0-0.1,0-0.2c0.5-0.8-0.1-1.5-0.2-2.2c-0.1-0.6-0.7-0.9-1.3-0.6c-0.7,0.3-1.4,0.7-2,1.2
			c-0.3,0.3-0.5,1-0.5,1.5c0.1,0.7,0,1.2-0.2,1.8c-0.1,0.2-0.1,0.4-0.1,0.7c-0.6-0.4-1.1-0.5-1.6,0.1c-0.1,0.1-0.3,0-0.4,0.1
			c-0.7,0.3-1.4,0.5-2,0.8c-0.2,0.1-0.3,0.5-0.3,0.7c0.2,0.6,0.4,1.3,0.3,2c0,0.2,0.1,0.5,0.1,0.8c-0.2-0.2-0.4-0.4-0.6-0.7
			c-0.6-0.7-1.1-1.4-2-1.6c-0.1,0-0.3-0.2-0.4-0.3c0,0,0-0.1-0.1-0.2c-1-0.7-1.6-1.9-2.8-2.4c-0.7-0.3-1.4-0.9-2-1.3
			c-0.9-0.5-1.8-1-2.7-1.6c-0.7-0.4-1.3-0.9-2.3-0.8c-0.4,0-0.8-0.4-1.3-0.8c1.1-0.9,2.2-1.7,3.3-2.6c0.2-0.1,0.4-0.2,0.5-0.4
			c0.7-1,1.8-1.5,2.6-2.3c0.7-0.7,1.5-1.3,2.4-1.8c0.1,0,0.1-0.1,0.1-0.1c0.5-0.7,1.1-1.2,2-1.6c1.1-0.5,2.3-1.2,2.9-2.5
			c0.1-0.2,0.4-0.2,0.6-0.3c0.3-0.2,0.8-0.3,0.9-0.5c0.3-0.5,0.7-0.7,1.2-0.9c0.4-0.1,0.6-0.6,0.9-0.8c0.2-0.2,0.4-0.5,0.7-0.7
			c0.6-0.3,1-0.6,1.3-1.2c0.3-0.6,0.8-0.4,1.2-0.3c1,0.1,1.9,0.5,2.8,1c0.7,0.4,1.6,0.6,2.4,0.9c0.1,0.1,0.3,0.1,0.4,0.2
			c0.1,0.1,0.2,0.2,0.3,0.3c1,0.4,1.9,0.7,2.9,1.1c0.1,0.1,0.4,0,0.4,0.1c0.7,0.9,1.9,1,2.7,1.6c0.7,0.6,1.5,0.9,2.2,1.6
			c0.7,0.7,1.4,1.5,2.5,1.7c0.4,0.1,0.7,0.4,1.1,0.7C193.9,109.9,193.9,110,193.9,110.1z"/>
		<path class="st0" d="M210.7,226.7c-0.6,0.5-1.2,0.5-1.7-0.1c-0.3-0.3-0.7-0.6-1.1-0.9c-0.3-0.2-0.6-0.4-0.9-0.6
			c-0.4-0.3-0.7-0.3-1.1,0c-0.3,0.3-0.3,0.7-0.1,1.1c0.4,0.5,0.7,1,1.1,1.5c-0.4,0.2-0.8,0.2-1.1-0.2c-0.1-0.2-0.3-0.3-0.4-0.4
			c-0.9-0.6-1.8-1.1-2.7-1.7c-0.1-0.1-0.2-0.1-0.2-0.2c-0.3-1-1-1.6-1.9-1.8c-0.1,0-0.3-0.1-0.3-0.2c-0.1-0.8-0.8-1-1.3-1.3
			c-0.3-0.2-0.6-0.1-0.9-0.2c-0.4-0.1-1-0.2-1.3-0.4c-0.7-0.5-1.4-1.2-2-1.8c-0.5-0.5-1-0.9-1.2-1.5c-0.2-0.4-0.2-1.2,0-1.5
			c0.7-1,0.2-2,0-2.9c0-0.2-0.2-0.4-0.1-0.6c0.3-1.2-0.3-2.2-0.9-3.2c-0.5-0.9-0.9-1.9-1.4-2.8c-0.4-0.7-0.9-1.4-1.3-2.1
			c-0.2-0.3-0.2-0.6-0.3-0.9c-0.2-0.5-0.3-1.1-0.5-1.6c-0.3-0.7-0.7-1.5-1-2.2c0,0,0-0.1,0-0.1c-0.7-1.1-1.4-2.3-2.1-3.4
			c-0.4-0.7-0.9-1.4-1.4-2.3c1-0.3,2-0.5,2.9-0.8c0.5-0.1,0.9-0.4,1.4-0.5c0.2-0.1,0.4-0.2,0.6-0.2c1.1,0,2-0.6,2.8-1.2
			c0.4-0.3,0.7-0.2,0.7,0.2c0.2,1.4,0.4,2.8,0.7,4.1c0.2,1.1,0.5,2.3,0.8,3.4c0.1,0.5,0.5,1,0.5,1.5c0,0.7,0.1,1.4,0.3,2
			c0.4,1.1,0.9,2.2,1.3,3.3c0.2,0.4,0.2,0.9,0.3,1.3c0.3,0.7,0.8,1.4,1.2,2.1c0.3,0.5,0.6,1,0.9,1.5c0.4,0.6,0.8,1.2,1.3,1.8
			c0.1,0.1,0.2,0.1,0.2,0.2c0.6,0.6,1.3,1.2,1.9,1.8c0.7,0.7,1.3,1.4,2,2c0.9,0.9,1.9,1.7,2.9,2.5c0,0,0.1,0.1,0.2,0.1
			c0.9,0,1.1,0.7,1.4,1.2c0.1,0.2,0.2,0.4,0.4,0.5c1.2,0.4,1.8,1.6,2.8,2.1c0.9,0.4,1.9,1,3,0.7c0.2,0,0.3,0,0.5,0
			c0.1,0,0.3,0.1,0.3,0.2c0,0.1-0.1,0.2-0.2,0.3c-0.7,0.3-1.3,0.6-2,0.9c-0.1,0-0.2,0.1-0.3,0c-0.7-0.4-1.5-0.9-2.2-1.3
			c-0.4-0.2-0.8-0.5-1.2-0.5c-0.2,0-0.6,0.3-0.7,0.5c-0.2,0.5,0.3,1.3,0.8,1.6C210.2,226.2,210.4,226.5,210.7,226.7z"/>
		<path class="st0" d="M160.5,225.6c0.7,1,1.8,1.2,2.9,1.3c0.9,0.1,1.8,0.1,2.6,0.1c0.1,0,0.2,0.1,0.3,0.1c0.6,0.2,1.2,0.4,1.8,0.7
			c0,0,0,0.1-0.1,0.2c-0.8,0.5-1,1.2-0.8,2.1c0.1,0.3-0.2,0.7-0.4,1c-0.7,0.6-0.9,1.2-0.6,2.1c0,0.1,0,0.3,0,0.4
			c-0.2,0.8-0.4,1.7-0.7,2.5c0,0.1-0.1,0.3-0.2,0.4c-0.7,0.7-0.7,1.4-0.5,2.3c0.1,0.3-0.1,0.8,0,1.1c0.3,0.6,0.3,1.2-0.1,1.8
			c-0.2,0.3-0.1,0.8-0.1,1.2c0,0.5-0.1,1-0.1,1.6c0,0.4,0.1,0.9,0.3,1.2c0.4,0.4,0.5,0.8,0.6,1.3c0.1,0.5,0.5,0.9,0.8,1.3
			c0.1,0.2,0.4,0.4,0.5,0.6c0.6,1.7,1.8,2.7,3.3,3.5c0.1,0.1,0.4,0.1,0.4,0.3c0.5,1.1,1.4,1.7,2.4,2.3c0.8,0.4,1.5,1,2.1,1.7
			c0.5,0.5,1,0.9,1.7,1.1c0.1,0,0.2,0.2,0.4,0.3c-0.8,0.7-1.6,1-2.3-0.3c-0.4-0.7-1.2-0.9-2-1c-0.5-0.1-0.6,0.3-0.5,0.8
			c0.2,0.6,0.4,1.2,0.7,2c-0.3-0.2-0.5-0.3-0.6-0.5c-0.5-0.7-0.9-1.4-1.4-2.1c-0.3-0.4-0.8-0.6-1.1-0.3c-0.3,0.2-0.4,0.6-0.6,1
			c0,0.1,0.1,0.3,0.1,0.6c-0.8-0.3-1.6-0.6-2.3-0.9c-0.1,0-0.2-0.1-0.2-0.2c-0.7-1.5-2.3-1.6-3.5-2.3c-1-0.6-2.1-0.8-3.2-0.9
			c-0.3,0-0.6,0-0.8,0c-0.5,0-0.9-0.1-1.2-0.6c-0.2-0.3-0.7-0.4-1.1-0.5c-0.6-0.1-0.8-0.3-0.9-0.8c-0.2-0.9-0.6-1.8-0.8-2.7
			c-0.1-0.5-0.1-1.1,0.2-1.6c0.7-1.6,1.5-3.1,2.2-4.6c0.2-0.4,0.3-0.9,0.4-1.3c0.2-0.8,0.4-1.6,0.7-2.4c0.3-0.7,0.5-1.4,0.4-2.1
			c-0.1-0.4,0.1-0.9,0.2-1.3c0.3-0.7,0.3-1.3,0.1-2c-0.1-0.4,0.1-0.8,0.1-1.2c0.1-0.4,0.2-0.9,0.2-1.3c0-0.1-0.1-0.3-0.1-0.4
			c0.5-1,0.2-2,0.4-3.1c0.1-0.5,0-1.1,0-1.6C160.4,225.7,160.5,225.7,160.5,225.6z"/>
		<path class="st0" d="M133.1,81.8c0.7,0.2,1.2,0.4,1.8,0.4c0.7,0.1,1.4,0.1,2.1,0c0.6-0.1,1.2-0.2,1.8,0.1c0.2,0.1,0.4,0.1,0.6,0.1
			c0.6,0.1,1.3,0.1,1.9,0.1c0.3,0,0.7,0,0.9-0.2c0.6-0.6,1.4-0.4,2.1-0.5c0.1,0,0.1,0,0.2,0c1.4,0.8,2.9-0.1,4.3,0
			c0.9,0.1,1.8-0.4,2.8-0.5c0.6-0.1,1.1-0.2,1.7-0.2c0.7,0.1,1.2,0.1,1.8-0.4c0.1-0.1,0.3-0.1,0.4-0.2c0.1,0,0.1,0.1,0.2,0.1
			c-0.4,1-0.8,1.9-1.2,2.9c-0.2,0.5-0.3,1-0.5,1.4c-0.3,0.8-0.7,1.5-1.1,2.3c-0.1,0.3-0.5,0.5-0.5,0.8c-0.3,1.5-1.1,2.6-1.9,3.9
			c-0.2,0.3-0.4,0.7-0.3,1c0.1,0.6-0.2,0.9-0.5,1.3c-0.8,0.8-1.6,1.7-1.7,3c0,0.1-0.1,0.3-0.2,0.4c-0.4,0.3-0.9,0.6-1.4,1
			c0.1,0.1,0.2,0.2,0.2,0.3c-0.1,0-0.2,0-0.2-0.1c-0.8-0.7-1.5-1.3-2.3-2c-0.1-0.1-0.2-0.2-0.2-0.3c-0.2-0.8-0.6-1.5-1.5-1.9
			c-0.2-0.1-0.3-0.6-0.5-0.8c-0.8-0.9-1.6-1.8-2.4-2.7c-0.5-0.5-0.8-1.2-1.2-1.8c-0.1-0.1-0.2-0.4-0.3-0.4c-1-0.4-1.4-1.3-2.1-2
			c-0.1-0.1-0.2-0.2-0.3-0.3c-0.4-0.8-0.7-1.7-1.1-2.5c-0.1-0.3-0.4-0.5-0.6-0.7C133.4,83.2,133.1,82.6,133.1,81.8z"/>
		<path class="st0" d="M180.3,194.1c0.4,0.1,0.8,0.3,1.1,0.3c1.1,0.1,1.4,0.8,1.6,1.6c0.3,0.9,0.5,1.7,0.8,2.6c0,0.1,0,0.1,0.1,0.2
			c0.9,0.9,0.9,2.3,1.5,3.4c0.4,0.7,0.7,1.4,1,2c0.1,0.2,0.3,0.5,0.5,0.6c0.5,0.3,0.6,0.8,0.8,1.3c0.3,1.2,0.3,2.2-0.2,3.4
			c-0.3,0.9-0.2,2-0.2,2.9c0,0.8,0.1,1.6-0.1,2.3c-0.1,0.5-0.6,1.1-1.1,1.2c-0.8,0.2-1.6,0.8-2.5,0.3c-0.1,0-0.2-0.1-0.3,0
			c-1.2,0.5-2.4-0.1-3.6-0.1c-1,0.1-2,0.2-3,0.3c-0.3,0-0.6-0.1-1-0.1c0.2-0.6,0.3-1,0.5-1.4c0.1-0.4,0.4-0.8,0.4-1.2
			c-0.1-1,0-1.8,0.4-2.7c0.2-0.3,0.3-0.7,0.4-1.1c0.1-0.5,0.1-1,0.2-1.4c0-0.3,0-0.7,0.1-0.9c0.7-1.2,0.8-2.4,0.7-3.7
			c0-0.5,0.2-1,0.3-1.5c0.2-0.8,0.4-1.7,0.6-2.5c0.2-0.8,0.1-1.6,0.4-2.4c0.3-0.8,0.4-1.7,0.5-2.5
			C180.3,194.7,180.3,194.4,180.3,194.1z"/>
		<path class="st0" d="M179,248c-0.5,0-0.8,0-1.2,0c-0.3-0.5-0.4-1-0.1-1.6c0.1-0.3,0.1-0.6,0.1-1c-0.1-0.7-0.3-1.4-0.4-2
			c0-0.1-0.1-0.3,0-0.4c0.3-0.7,0.1-1.4,0-2.1c-0.2-1.1-0.2-2.2-0.4-3.3c-0.1-1-0.3-2-0.4-3c-0.1-1-0.1-2-0.1-3c0-0.1,0-0.1,0-0.2
			c-0.3-1.6-0.5-3.3-0.8-4.9c-0.1-0.6-0.1-1.2-0.2-1.8c0-0.3-0.1-0.6-0.1-0.9c-0.2-1.1-0.3-2.3-0.5-3.4c-0.1-0.4-0.1-0.8-0.1-1.2
			c0.4,0,0.8,0,1.1,0c0.6,0,1.2,0.1,1.9,0.1c1.3,0,2.5,0,3.9,0c-0.1,0.8-0.3,1.7-0.4,2.5c-0.1,0.5,0,1.1-0.1,1.6
			c0,1.2-0.1,2.3-0.1,3.5c0,0.6,0.1,1.2-0.3,1.8c-0.2,0.2-0.3,0.6-0.2,0.8c0.4,1-0.2,1.8-0.3,2.7c0,0.5,0,0.9-0.1,1.4
			c-0.1,1.1-0.1,2.2-0.2,3.3c0,0.1-0.1,0.3,0,0.4c0.6,1.1-0.3,2-0.4,3c-0.1,0.6,0,1.2-0.1,1.8c0,0.3,0,0.7,0,1
			c0,0.2-0.1,0.4-0.1,0.6c0.1,0.5,0.1,0.9-0.2,1.4c-0.1,0.2-0.1,0.4-0.1,0.6C178.9,246.5,179,247.2,179,248z"/>
		<path class="st0" d="M107.1,248c-0.5,0-0.8,0-1.2,0c-0.3-0.5-0.4-1-0.1-1.6c0.1-0.3,0.1-0.6,0.1-1c-0.1-0.7-0.3-1.4-0.4-2
			c0-0.1-0.1-0.3,0-0.4c0.3-0.7,0.1-1.4,0-2.1c-0.2-1.1-0.2-2.2-0.4-3.2c-0.1-1-0.3-1.9-0.4-2.9c-0.1-1-0.1-2.1-0.1-3.1
			c0,0,0-0.1,0-0.1c-0.3-1.6-0.5-3.3-0.8-4.9c-0.1-0.6-0.1-1.2-0.2-1.8c-0.1-0.5-0.2-1-0.2-1.5c-0.1-0.7-0.2-1.4-0.3-2
			c-0.1-0.4,0-0.6,0.5-0.7c0.8-0.1,1.6-0.4,2.3-0.6c0.1,0,0.2-0.1,0.3,0c1.1,0.7,2.1,0.1,3.2,0c0.4,0,0.5,0.1,0.4,0.6
			c-0.2,0.7-0.3,1.5-0.4,2.3c-0.1,0.7-0.1,1.3-0.1,2c0,0.9,0,1.7-0.1,2.6c-0.1,1.1-0.8,2.2-0.4,3.4c0.1,0.4-0.3,0.9-0.3,1.3
			c-0.1,0.6-0.1,1.2-0.1,1.8c-0.1,1-0.1,2.1-0.2,3.1c0,0.1-0.1,0.3,0,0.4c0.6,1.1-0.3,2-0.4,3c-0.1,0.6,0,1.2-0.1,1.8
			c0,0.3,0,0.7,0,1c0,0.2-0.1,0.4-0.1,0.6c0.1,0.5,0.1,1-0.2,1.5c-0.1,0.2-0.1,0.4-0.1,0.6C107.1,246.5,107.1,247.2,107.1,248z"/>
		<path class="st0" d="M174.6,134.1c-0.1,1-0.8,1.6-1.3,2.3c-0.6,0.7-1.1,1.3-1.9,1.8c-0.4,0.2-0.4,0.9-0.7,1.5
			c-0.1,0.1-0.4,0.2-0.7,0.4c-0.1,0.1-0.3,0-0.5,0c-0.6,0-1.3,0-1.9,0c-0.4,0-0.8,0-1.2,0c-0.6,0.1-1.1,0.2-1.8,0.3
			c-0.1-0.7-0.2-1.6-0.3-2.5c-0.1-0.5-0.2-1-0.3-1.6c0-0.2-0.1-0.3-0.1-0.5c0.2-0.8-0.1-1.4-0.4-2.1c-0.3-0.6-0.5-1.1-0.3-1.7
			c0.1-0.2,0-0.4,0-0.6c-0.1-0.7-0.1-1.4-0.2-2.1c0-0.1,0-0.2-0.1-0.3c-0.7-1.2-0.3-2.5-0.5-3.7c-0.1-0.4-0.1-0.8-0.2-1.4
			c1,0.6,1.9,1.2,2.8,1.8c0.1,0,0.1,0.1,0.1,0.2c0.5,1.5,1.7,2.1,3,2.7c0.7,0.3,1.3,0.7,1.2,1.7c0,0.2,0.1,0.6,0.3,0.8
			c0.9,0.8,1.8,1.5,2.8,2.1C173.2,133.7,173.9,133.8,174.6,134.1z"/>
		<path class="st0" d="M181.6,116.4c0.2,0,0.6,0,1.1-0.1c-0.2,0.5-0.3,1-0.5,1.4c-0.2,0.6-0.5,1.2-0.2,1.9c0,0.1,0,0.3-0.1,0.5
			c-0.3,0.9-0.7,1.7-0.9,2.6c-0.1,0.4,0.2,0.9,0.5,1.2c0.4,0.5,1,0.3,1.1-0.3c0.2-0.7,0.5-1.5,0.5-2.2c0-1.7,0.9-3.1,1.1-4.8
			c0-0.3,0.3-0.5,0.4-0.8c0.1,0,0.2,0.1,0.3,0.1c-0.2,1.1-0.4,2.1-0.6,3.2c-0.1,0.7-0.3,1.4-0.4,2.1c-0.2,1.1-0.3,2.2-0.4,3.4
			c-0.1,0.4-0.2,0.8-0.3,1.2c-0.1,0.4-0.2,0.9-0.3,1.3c-0.1,0.7-0.5,1.2-1.1,1.4c-0.9,0.3-1.8,0.5-2.7,0.9c-0.8,0.3-1.7,0.8-2.4,1.2
			c-0.6,0.4-1.2,0.9-1.7,1.2c-0.9-0.7-1.9-1.4-2.9-2c-0.5-0.3-0.4-0.8-0.3-1.2c0.2-0.8,0.1-1.5-0.2-2.2c-0.2-0.6-0.3-1.3-0.4-2
			c-0.1-0.5,0.2-0.6,0.7-0.6c0.1,0.9,0.1,1.9,0.3,2.8c0.1,0.6,0.3,1.2,0.6,1.8c0.1,0.2,0.6,0.4,0.8,0.4c0.3-0.1,0.6-0.4,0.8-0.6
			c0.2-0.3,0.4-0.7,0.6-1c0.3-0.4,0.4-0.9,0.3-1.4c-0.1-0.3,0-0.6,0.1-0.9c0-0.1,0.1-0.2,0.1-0.3c0-1.1,0-2.2,0.1-3.3
			c0-0.6,0-1.2,0.1-1.9c0-0.1,0.2-0.3,0.3-0.3c0.1,0,0.3,0.2,0.3,0.3c0,0.3-0.1,0.7-0.1,1c0.1,1.1-0.1,2.1-0.1,3.1
			c0,0.5,0,1.1,0.1,1.6c0.1,0.7,0.7,0.9,1.3,0.6c0.1-0.1,0.3-0.1,0.4-0.1c1.2,0.2,1.2,0.2,1.6-1c0.2-0.8,0.5-1.6,0.7-2.4
			c0.3-1.3,0.6-2.7,0.9-4C181.4,117.6,181.5,117.1,181.6,116.4z"/>
		<path class="st0" d="M162.1,108.1c-0.2-0.5-0.4-1.1-0.6-1.6c-0.1-0.3,0.2-0.9,0.6-1.2c1.2-0.8,2.3-1.6,3-3
			c0.1-0.2,0.2-0.4,0.4-0.5c0.7-0.4,1.3-0.9,1.6-1.7c0.1-0.2,0.4-0.3,0.7-0.4c1-0.2,1.9,0.3,2.8,0.6c0.5,0.1,1,0.3,1.6,0.5
			c-0.3,0.1-0.4,0.1-0.5,0.2c-0.6,0.1-0.9,0.4-1.2,0.9c-0.2,0.3-0.5,0.4-0.8,0.6c-0.4,0.3-0.7,0.6-1.1,0.9c-0.2,0.2-0.4,0.4-0.7,0.5
			c-0.7,0.4-1.5,0.7-2,1.4c-0.1,0.2-0.3,0.2-0.4,0.4c-0.2,0.2-0.5,0.3-0.6,0.6c-0.6,0.8-0.7,0.8-1.6,1.2
			C162.8,107.7,162.4,108,162.1,108.1z"/>
		<path class="st0" d="M188.7,99.5c0.3-0.1,0.7-0.2,1.1-0.3c0.1,0,0.2,0,0.3-0.1c1-0.6,1.9-1.2,2.9-1.8c0.2-0.1,0.5-0.2,0.7-0.3
			c0.1,0.1,0.2,0.1,0.2,0.2c-0.2,0.7-0.4,1.4-0.5,2.1c-0.1,0.8-0.2,1.6-0.3,2.4c0,0.3,0,0.6,0,0.8c0,0.4-0.1,0.8-0.2,1.4
			c-0.5-0.5-0.8-0.9-1.2-1.3c-0.2-0.2-0.4-0.4-0.6-0.5c-0.5-0.3-1.1-0.6-1.6-1c-0.1-0.1-0.2-0.2-0.2-0.3
			C189.1,100.5,188.9,100.1,188.7,99.5z"/>
		<path class="st0" d="M195.9,96.8c0.5,0.7,1.2,0.7,2,0.6c-0.3,0.7-0.7,1.2-0.8,1.9c-0.3,1.1-1,2.2-0.6,3.5c0.2,0.7-0.5,1-0.9,1.6
			c0-0.4,0-0.7-0.1-1c-0.3-1.1,0.1-2.2,0-3.3c0-0.3-0.1-0.6-0.2-0.8C195,98.6,195.2,97.4,195.9,96.8z"/>
		<path class="st0" d="M188.4,103c-2.6-1.2-5.2-2.4-7.9-3.6c0.6-0.4,1.1-0.7,1.5-0.9c1.1,0.6,2.1,1.1,3,1.7c0.3,0.2,0.6,0.5,0.9,0.8
			c0.6,0.6,1.1,1.4,2.1,1.4c0.2,0,0.4,0.3,0.6,0.5C188.5,103,188.4,103,188.4,103z"/>
		<path d="M158.7,52.4c-0.4-0.2-1-0.4-1.6-0.8c-0.6-0.4-1.1-1-1.6-1.5c-0.2-0.2-0.4-0.5-0.4-0.8c-0.1-0.6,0.2-1.1,0.7-1.3
			c0.5-0.3,1.2-0.2,1.6,0.4c0.7,1.2,1.9,1.3,3,1.3c0.6,0,1.2-0.4,1.8-0.7c0.5-0.3,1-0.4,1.5,0.1c0.4,0.4,0.3,0.9-0.3,1.5
			C162.2,51.7,160.6,52.2,158.7,52.4z"/>
		<path d="M164.8,44.1c-0.6-0.6-1.2-1-1.6-1.5c-0.3-0.4-0.6-0.8-0.9-1.3c-0.1-0.1-0.1-0.2-0.1-0.3c-0.4-0.5-0.3-1.1,0.1-1.5
			c0.4-0.4,1.1-0.3,1.5,0.3c1,1.4,2.2,2.7,3.7,3.7c0.5,0.3,0.3,0.7,0,1c-0.7,0.8-1.4,1.5-2.1,2.3c-0.1,0.1-0.4,0.2-0.6,0.3
			c-0.7,0.2-1.4-0.1-1.6-0.6c-0.3-0.6-0.1-1.2,0.5-1.6C164,44.7,164.3,44.5,164.8,44.1z"/>
		<path d="M155.3,38.5c0,1-1.2,1.9-2.2,1.5c-1.3-0.4-1.6-1-1.1-2.1c0.3-0.6,1.3-1,2-0.8C154.9,37.3,155.3,37.7,155.3,38.5z"/>
		<path d="M169.9,39.4c0,0.8-0.8,1.6-1.6,1.6c-0.7,0-1.8-0.9-1.7-1.5c0.2-1,0.6-1.7,1.7-1.8C169.2,37.7,169.9,38.4,169.9,39.4z"/>
	</g>
	<path class="st1" d="M155.4,42.9c-0.1,1.1-1.7,1.8-3.6,1.7c-1.9-0.1-3.4-1.1-3.3-2.2c0.1-1.1,1.7-1.8,3.6-1.7
		C154.1,40.9,155.5,41.9,155.4,42.9z"/>
	<path class="st1" d="M173.3,43.6c-0.1,1.1-1.4,1.8-2.9,1.7c-1.5-0.1-2.7-1.1-2.6-2.1c0.1-1.1,1.4-1.8,2.9-1.7
		C172.2,41.6,173.4,42.5,173.3,43.6z"/>
</g>
<g>
	<path d="M87.4,203.6c-0.4-1.5-0.6-3.1-1.2-4.5c-0.4-1-1.1-1.9-1.7-2.8c-0.1-0.1-0.3-0.2-0.3-0.4c-0.6-1.3-1.6-2.3-2.7-3.1
		c-0.5-0.4-1.2-0.6-1.7-1.2c-0.1-0.2-0.5-0.4-0.7-0.3c-0.8,0.2-1.3-0.3-1.9-0.6c-0.3-0.2-0.6-0.2-1-0.3c-0.3-0.1-0.7-0.2-1.1-0.4
		c0.3-0.2,0.4-0.4,0.6-0.5c1.5-0.5,2.2-1.8,3.2-2.8c0.6-0.6,0.8-1.6,1.4-2.2c0.2-0.2,0.2-0.5,0.3-0.7c0.2-0.6,0.4-1.3,0.6-2
		c0.1-0.4,0.2-0.8-0.3-1.1c-0.1-0.1-0.2-0.2-0.3-0.3c-0.9-1.5-2.2-2.4-3.9-3c-0.8-0.3-1.5-0.5-2.3-0.8c-1-0.4-2-0.7-3.1-0.2
		c-0.6-0.5-1.3-0.6-2-0.4c-0.6,0.1-1.2,0.3-1.9,0.1c-0.2-0.1-0.5,0-0.7,0.2c-0.5,0.4-1,0.3-1.5,0.4c-0.6,0.1-1.4,0.1-1.8,0.5
		c-0.6,0.5-1.2,0.8-2,1c-0.2,0.1-0.4,0.2-0.6,0.3c-0.6,0.5-1.3,0.9-1.8,1.4c-0.6,0.5-1.1,1.1-1.7,1.7c-0.4,0.4-0.7,1.1-1.2,1.3
		c-1,0.5-1.4,1.5-2.1,2.2c-1,1-1.5,2.4-1.4,3.9c0,0.2,0,0.5-0.1,0.7c-0.5,0.8-1,1.5-1.5,2.3c-0.3,0.5-0.7,1-1,1.6
		c-0.5,0.9-0.9,1.7-1.4,2.6c-0.4,0.7-0.7,1.4-0.4,2c-0.2,0.7-0.3,1.3-0.5,1.8c-0.1,0.4-0.3,0.8-0.5,1.1c-0.1,0.3-0.3,0.7-0.3,1.1
		c0,0.2,0.1,0.5,0.1,0.7c-0.5,1.1-0.1,2.2-0.2,3.3c0,0.7-0.2,1.4,0.2,2.1c0.1,0.1-0.2,0.5-0.3,0.6c-0.6,0.5-1.2,0.3-1.8,0.3
		c-0.2-0.6-0.3-1.2-0.6-1.7c-0.3-0.7-0.4-1.3-0.4-2.1c0-0.4-0.1-0.7-0.2-1.1c-0.5-1-0.7-2.1-0.6-3.2c0.1-1-0.2-1.9-0.7-2.7
		c-0.3-0.5-0.3-0.8,0-1.2c0.2-0.3,0.5-0.6,0.6-0.9c0.2-0.9,0.3-1.9,0.4-2.8c0-0.2,0.1-0.4,0.2-0.6c0.8-0.9,0.7-2,0.7-3.1
		c0-0.8,0.4-1.6-0.1-2.4c0-0.1,0.1-0.3,0.1-0.4c0-0.2,0.1-0.4,0-0.6c-0.2-0.8-0.3-1.5-0.5-2.3c-0.1-0.6-0.5-1.1-0.7-1.6
		c-0.3-1.2-0.9-2.2-1.4-3.3c-0.6-1.4-1.8-2.3-2.6-3.5c-0.3-0.4-0.9-0.6-1.3-1c-0.7-0.8-1.5-1.4-2.6-1.9c-1-0.5-1.8-1.4-3-1.6
		c-0.2,0-0.3-0.2-0.5-0.3c-1.3-0.7-2.6-0.9-4.1-0.7c-0.7,0.1-0.8,0.3-0.8,1c0,0.2-0.1,0.5-0.2,0.7c-0.2,0.5-0.4,0.9-0.5,1.4
		c-0.4,1.6-0.1,3.2-0.6,4.8c0,0,0,0.1,0,0.1c0,0.9,0.2,1.8-0.2,2.6c0,0.1,0,0.3,0,0.4c0.7,1.1-0.2,2.4,0.6,3.4c0,0,0,0.1,0,0.1
		c0,0.5,0.1,1,0.1,1.5c0.1,0.4,0.3,0.8,0.3,1.2c-0.1,1.4,1,2.4,1.2,3.6c0,0.1,0.1,0.1,0.1,0.2c1.1,1.3,1.9,2.9,3.3,4
		c0.5,0.4,1,0.8,1.6,1.1c0.4,0.3,0.8,0.5,1.2,0.7c0.7,0.5,1.7,0.6,2.4,1.1c0.8,0.5,1.6,0.7,2.5,0.8c0.4,0.1,0.9,0.1,1.3,0.1
		c0.1,0.2,0.1,0.4,0.2,0.6c0.1,0.7,0.4,1.4,0.7,2c0.4,0.9,0.7,1.8,0.6,2.9c0,0.3,0.1,0.7,0.2,1c0.5,0.8,0.6,1.7,0.5,2.6
		c-0.2-0.1-0.3-0.1-0.3-0.2c-0.3-1.2-0.9-2.1-1.8-2.9c-0.5-0.5-0.9-1.2-1.4-1.7c-0.5-0.5-0.8-1.2-1.2-1.7c-0.2-0.3-0.5-0.5-0.8-0.6
		c-0.6-0.1-1-0.6-1.3-1.1c-0.7-1-1.7-1.6-2.8-2c-0.4-0.2-0.7-0.4-1.1-0.7c-0.4-0.3-1-0.7-1.6-0.7c-0.8,0-1.4-0.4-2.1-0.7
		c-0.6-0.3-1.2-0.7-1.9-0.4c-0.1,0.1-0.4-0.1-0.6-0.2c-0.5-0.1-0.9-0.2-1.4-0.3c-0.3,0-0.7,0-1,0c-0.5-0.1-1-0.1-1.5,0.2
		c-0.3,0.2-0.8,0.4-1,0.3c-0.7-0.5-1.4-0.5-2.1,0c0,0-0.1,0-0.2,0c-0.6-0.3-1.1,0-1.7,0.3c-1,0.5-2.1,1-3.1,1.5
		c-0.6,0.3-1.2,0.5-1.7,0.9c-0.7,0.6-1.5,1.1-2.1,1.9c-0.5,0.6-1.3,1.1-1.9,1.6c-0.2,0.1-0.3,0.3-0.4,0.5c-0.4,0.5-0.7,0.9-1.1,1.4
		c-0.2,0.2-0.5,0.4-0.5,0.6c-0.2,0.9-0.9,1.5-1.2,2.4c-0.1,0.4-0.5,0.8-0.7,1.2c-0.3,0.7-0.8,1.4-0.1,2.2c0.2-0.1,0.3-0.2,0.5-0.3
		c0.5,0.4,1.1,0.8,1.6,1.1c0.2,0.1,0.4,0.1,0.6,0.2c0.4,0.1,0.8,0.2,1.2,0.3c0.4,0.1,0.7,0.2,1.1,0.3c0.9,0.2,1.8,0.3,2.7,0.4
		c1.6,0.3,3.3,0.8,5,0.8c0.6,0,1.3-0.3,1.9-0.1c1,0.3,1.8,0,2.7-0.3c0.3-0.1,0.6-0.2,0.9-0.2c0.5-0.1,1-0.3,1.3-0.7
		c0.2-0.2,0.5-0.4,0.8-0.5c1.5-0.4,2.6-1.3,3.8-2.2c0.3-0.3,0.6-0.6,0.9-0.9c1.2-1,2.3-2,3.1-3.4c0.6-1,1.1-2,1.7-3.1
		c0.6,0.4,1.2,0.8,1.7,1.2c0.4,0.3,0.7,0.7,1.1,1c1,0.7,1.7,1.6,2.2,2.7c0.4,0.9,0.9,1.8,1.5,2.6c0.3,0.4,0.5,1,0.7,1.5
		c0.1,0.3,0.2,0.7,0.3,1.1c-0.2,0-0.4,0.1-0.6,0.1c-1.1,0.1-2.2,0.2-3.4,0.3c-2.1,0.3-4.1,0.9-6,1.8c-0.8,0.4-1.3,1-2,1.5
		c-0.3,0.3-0.5,0.8-0.2,1.1c0.5,0.6,0.5,1.1,0.4,1.8c0,0.2,0.1,0.5,0.1,0.7c0.1,0.4,0.2,0.7,0.2,1.1c0,1.1,0.5,2.1,0.6,3.1
		c0.1,1.1,0.6,2.2,0.7,3.3c0.1,1.1,0.3,2.2,0.7,3.3c0.1,0.3,0.1,0.7,0.2,1.1c0.1,0.5,0,1.1,0.2,1.6c0.7,1.6,0.8,3.3,1.1,5
		c0.2,1.2,0.3,2.4,0.7,3.5c0.1,0.4,0.1,0.9,0.2,1.3c0.1,0.4,0.1,0.8,0.4,1c0.9,0.8,1.9,1.6,3,1.8c1,0.2,1.9,0.6,2.9,0.7
		c0.4,0,0.7,0.2,1.1,0.2c0.9,0,1.8,0.1,2.7,0.6c0.6,0.3,1.2,0.3,1.9,0.1c0.3-0.1,0.6-0.1,0.9-0.1c0.9-0.1,1.7,0.3,2.7,0
		c0.5-0.1,1.1,0,1.7-0.1c0.5,0,1.1,0,1.6-0.1c0.7-0.1,1.4-0.2,2.1-0.4c0.8-0.2,1.6-0.4,2.5-0.5c0.3,0,0.7-0.3,0.9-0.5
		c0.5-0.7,1.2-0.7,1.9-0.8c1.1-0.1,1.6-0.5,1.7-1.5c0-0.4,0.1-0.8,0.2-1.2c0.1-1.1,0.8-2.1,0.4-3.2c0-0.1,0.1-0.2,0.1-0.3
		c0.4-0.6,0.8-1.2,0.5-1.9c-0.4-0.9,0.7-1.2,0.6-2c0-0.1,0-0.2,0-0.3c0.1-0.6,0.1-1.2,0.3-1.8c0.5-1.2,0.7-2.4,0.8-3.7
		c0.2-1.4,0.6-2.7,0.8-4.1c0.2-1.1,0.5-2.1,0.6-3.2c0-0.6,0-1.1,0.3-1.7c0.3-0.5,0.4-1.1,0.3-1.7c-0.2-0.7,0-1.3,0.2-2
		c0.3-0.8,0.1-1.3-0.7-1.7c-1.8-0.7-3.7-1.5-5.6-1.9c-1.3-0.3-2.6-0.4-4-0.3c-0.3,0-0.6-0.1-0.8-0.3c-0.5-0.5-0.9-1.1-1.3-1.7
		c-0.6-0.7-1.2-1.5-1.9-2.1c-0.6-0.5-1.3-0.8-2.1-0.2c-0.2,0.1-0.5,0.1-0.7,0.1c0-0.6,0.2-1,0.6-1.3c0.3-0.2,0.5-0.6,0.8-0.9
		c0.2-0.2,0.4-0.4,0.6-0.7c0.2-0.2,0.4-0.3,0.5-0.5c0.7-0.8,1.6-1.5,2.2-2.4c0.1-0.2,0.3-0.3,0.5-0.4c1-0.3,1.7-1,2.4-1.7
		c0.5-0.5,1.1-0.8,1.8-0.9c0.1,0.5,0.2,1.1,0.4,1.6c0.4,1.4,1.3,2.4,2.5,3.1c0.8,0.5,1.4,1.1,2.2,1.5c0.7,0.3,1.3,1,2.1,0.9
		c0.1,0,0.2,0.1,0.2,0.2c0.7,0.8,1.9,0.8,2.7,1.3c0.4,0.2,0.9,0.2,1.3,0.5c0.3,0.2,0.7,0.2,1.1,0.2c0.2,0,0.5-0.1,0.6,0
		c0.9,0.7,2,0.6,3,0.9c0.2,0.1,0.5,0.1,0.7,0.3c0.4,0.3,0.9,0.2,1.4,0.2c1-0.2,2-0.6,3-0.2c0.2,0.1,0.5,0,0.8-0.1
		c0.3,0,0.6-0.1,0.9-0.1c0.6,0,1.1-0.1,1.6-0.4c0.7-0.4,1.3-0.8,2.2-0.7c0.7,0.1,1.2-0.3,1.3-1.1C87.5,206.2,87.7,204.9,87.4,203.6z
		 M60.8,194.1c-0.5,0.3-0.7,0.7-0.8,1.2c-0.1,0.5-0.4,0.9-0.6,1.5c-0.8,0-1.4,0.3-1.9,1c-0.3,0.3-0.8,0.5-1.2,0.8
		c-1,0.5-2,0.9-2.5,2c-0.1,0.3-0.4,0.5-0.7,0.6c-0.9,0.6-1.6,1.6-2.2,2.5c-0.5,0.9-1.5,1.5-1.9,2.5c0.2-2.3,0.5-4.6,0.7-7
		c0.8-0.3,1.1-1.1,1.2-1.9c0.1-0.7,0.4-1.3,0.9-1.9c0.5-0.7,1-1.6,1.5-2.3c0.3-0.5,0.8-1,1.1-1.5c2.4,0.7,4.5,1.8,6.9,1.9
		C61.3,193.8,61,193.9,60.8,194.1z"/>
	<path class="st0" d="M31.2,217.8c0.8,0.6,1.8,0.4,2.6,1c0.4,0.3,1.1,0.1,1.6,0.2c0.7,0.1,1.5,0.3,2.2,0.5c0.7,0.1,1.4,0,2-0.7
		c0.1,1,0.2,1.9,0.3,2.7c0.1,1.3,0.7,2.4,1.3,3.6c0.6,1.2,1.6,2,2.4,3.1c0.7,1,1.6,1.9,2.9,2.3c0.6,0.2,1.2,0.5,2,0.9
		c0.7,1.3,0.9,1.4,2.4,0.7c0.6-0.3,1.3-0.6,1.5-1.3c0-0.1,0.1-0.2,0.1-0.2c1.4-0.6,1.5-2.4,2.9-3.1c0.2-0.9,1.2-1.5,1.2-2.5
		c0-0.3,0.2-0.6,0.4-0.8c0.4-0.6,0.6-1.2,0.5-2c-0.1-0.8,0.1-1.6,0.3-2.3c0.1-0.2,0.5-0.4,0.8-0.4c1-0.1,2-0.3,2.9-0.4
		c1.1-0.1,2-0.7,3.2-0.7c-0.2,1.1,0,2.2-0.5,3.2c-0.4,0.8-0.5,1.8-0.7,2.8c-0.2,0.8-0.3,1.6-0.5,2.3c-0.2,0.8-0.3,1.5-0.6,2.3
		c-0.3,1-0.6,2-0.6,3.1c0,0.7-0.3,1.3-0.5,2c0,0.2-0.2,0.3-0.2,0.5c0.2,0.9-0.1,1.7-0.5,2.5c-0.1,0.2-0.1,0.5-0.1,0.7
		c0.1,0.5,0.1,1-0.3,1.4c-0.2,0.2-0.2,0.6-0.2,0.9c-0.2,0.8-0.2,1.7-0.5,2.5c-0.3,0.6-0.9,1.2-1.7,1.2c-0.7,0-1.4,0.1-1.9,0.5
		c-0.1,0.1-0.3,0.1-0.4,0.1c-1.1,0.1-2.2,0-3.2,0.3c-1.5,0.4-2.9,0.5-4.4,0.6c-0.7,0.1-1.3,0.2-2-0.1c-0.4-0.2-1-0.3-1.5-0.1
		c-0.9,0.2-1.7,0-2.5-0.5c-0.4-0.2-1-0.3-1.5-0.4c-1.2-0.1-2.2-0.8-3.3-1.3c-0.3-0.1-0.6-0.3-0.9-0.5c-0.3-0.2-0.5-0.4-0.4-0.8
		c0-0.7,0-1.4-0.1-2c-0.2-1.1-0.3-2.2-0.6-3.2c-0.4-1.3-0.5-2.5-0.6-3.8c0-0.4-0.2-0.8-0.3-1.2c-0.1-0.5-0.4-0.9-0.5-1.4
		c-0.1-1.1-0.3-2.1-0.6-3.2c-0.3-1-0.3-2.1-0.5-3.2c-0.1-0.4-0.2-0.7-0.3-1.1c-0.1-0.2-0.2-0.3-0.2-0.5
		C32,220.5,31.2,219.3,31.2,217.8z"/>
	<path class="st1" d="M68.8,195.8c0.3,0.7,0.8,1.1,1.6,1.1c0.2,0,0.5,0.2,0.8,0.3c0.2,0.1,0.3,0.3,0.5,0.3c1.7,0.6,3.2,1.6,4.6,2.6
		c1,0.8,2.1,1.4,3.2,2.1c0.6,0.4,1.3,0.2,1.6-0.3c0.4-0.5,0.3-1.2-0.2-1.6c-0.4-0.4-0.9-0.7-1.4-1c-1.5-1-2.9-2.1-4.5-2.9
		c-1-0.5-2-1.4-3.2-1.4c-0.2,0-0.3-0.1-0.5-0.2c-0.7-0.4-1.4-0.6-2.1,0c-0.1,0.1-0.7,0-0.8-0.1c-0.6-0.6-1.3-0.5-2-0.4
		c-1.5,0.3-3.1,0.6-4.7,1c0.1-0.2,0.2-0.5,0.4-0.5c0.9-0.4,1.8-0.8,2.6-1.3c0.5-0.3,1-0.6,1.5-0.8c0.6-0.3,1.2-0.5,1.9-0.7
		c0.5-0.1,1-0.1,1.5-0.2c0.6-0.1,1.3-0.2,1.9-0.2c0.1,0,0.3,0,0.4,0.1c0.7,0.2,1.4,0.4,2.1,0.5c1.2,0.3,2.3,0.5,3.5,0.7
		c0.2,0,0.3,0.3,0.4,0.4c0.3,0.2,0.5,0.6,0.8,0.6c0.8,0.1,1.3,0.6,1.8,1.1c0.7,0.7,1.7,1.3,2.1,2.1c0.4,0.8,1.3,1.4,1.2,2.5
		c0,0.2,0.1,0.3,0.1,0.5c0.9,1.3,1,2.8,1.1,4.3c0,0.4,0.1,0.8,0.1,1.2c0.1,0.7-0.2,1.2-0.9,1.5c-0.4,0.2-0.9,0.2-1.3,0.3
		c-0.4,0.1-0.8,0.3-1.3,0.4c-0.7,0.2-1.4,0.6-2.1,0.7c-0.5,0.1-1.2,0.1-1.5-0.6c-0.1-0.2-0.5-0.4-0.8-0.4c-1.1-0.1-2.1-0.2-3.1-0.6
		c-0.2-0.1-0.5,0-0.8-0.1c-0.2,0-0.5,0-0.7-0.1c-0.5-0.3-1.1-0.4-1.6-0.6c-0.8-0.2-1.6-0.6-2.4-1c-0.1-0.1-0.2-0.2-0.4-0.2
		c-1.5-0.2-2.5-1.2-3.8-1.7c-0.2-0.1-0.4-0.3-0.6-0.4c-0.9-0.9-1.8-1.8-2.3-3c-0.2-0.4-0.5-0.8-0.8-1.3c0.2-0.2,0.4-0.3,0.5-0.4
		c1.5-0.5,3-1.4,4.6-1.5c0.5-0.1,1-0.1,1.4-0.2C67.8,196.3,68.2,196.1,68.8,195.8z"/>
	<path class="st1" d="M28.3,172.5c1.1,0.3,2.1,0.6,3.2,0.9c0.3,0.1,0.5,0.3,0.7,0.4c0.3,0.2,0.6,0.5,1,0.6c0.7,0.3,1.4,0.5,1.8,1.3
		c0.1,0.1,0.2,0.2,0.3,0.3c1.1,0.4,1.5,1.4,2.3,2.1c1,0.8,1.6,2,2.3,3c0.7,1,1.3,2.1,1.6,3.4c0.2,1.2,0.4,2.4,0.7,3.6
		c0.1,0.6,0.1,1.3,0,1.9c-0.1,0.8-0.2,1.5-0.3,2.3c0,0.1,0,0.3,0,0.4c0.5,1-0.2,1.7-0.6,2.8c-0.2-0.5-0.4-0.7-0.5-1
		c-0.4-0.8-0.5-1.8-1.1-2.5c-0.8-1.1-1-2.5-1.7-3.6c-0.8-1.2-1.6-2.3-2.5-3.5c-0.1-0.2-0.3-0.4-0.5-0.5c-0.2-0.1-0.6-0.1-0.7,0
		c-0.2,0.1-0.3,0.4-0.3,0.7c0,0.3,0.1,0.6,0.3,0.9c0.4,0.7,0.8,1.4,1.1,2.1c0.4,0.8,0.6,1.6,1.1,2.3c0.7,1.2,1.1,2.5,1.6,3.8
		c0.1,0.3,0.4,0.6,0.5,0.9c0.5,0.8,0.9,1.7,1.1,2.8c-0.3-0.1-0.5-0.1-0.7-0.2c-0.5-0.4-1.1-0.6-1.7-0.6c-0.2,0-0.3-0.1-0.5-0.2
		c-1.1-0.7-2.2-1.3-3.2-2c-0.4-0.2-0.7-0.6-1-0.9c-1-1.1-2.1-1.9-2.8-3.3c-0.4-0.8-0.5-1.7-1-2.4c-0.5-0.8-0.4-1.6-0.7-2.4
		c-0.4-1-0.1-2.1-0.6-3.1c0-0.1-0.1-0.1,0-0.2c0.5-1.1-0.2-2.2-0.1-3.3c0.1-0.4-0.1-0.9-0.1-1.4c0-0.1-0.1-0.2,0-0.3
		c0.6-0.9,0.3-1.9,0.6-2.8C28.1,174.1,28.2,173.3,28.3,172.5z"/>
	<path class="st1" d="M31.6,201.5c-0.1,1.4-1.4,2.1-2.2,3.1c-0.6,0.7-1.4,1.4-2.1,2.1c-0.1,0.1-0.2,0.3-0.4,0.4
		c-1.1,0.9-2.3,1.7-3.4,2.6c-0.4,0.3-0.7,0.5-1.3,0.5c-0.6,0-1.1,0.3-1.7,0.4c-2.2,0.6-4.3,0.3-6.5,0c-0.6-0.1-1.2-0.1-1.8-0.2
		c-0.7-0.1-1.5-0.3-2.2-0.5c-1.1-0.2-2.1-0.4-3.2-0.6c-0.2,0-0.5,0-0.7,0c-0.3,0-0.6-0.1-1-0.1c-0.2-1,0.5-1.4,0.9-2
		c0.2-0.3,0.3-0.5,0.5-0.7c0.1-0.2,0.3-0.3,0.4-0.5c0.2-0.3,0.4-0.5,0.7-0.8c0.4-0.4,0.7-0.8,1.1-1.2c0.1-0.1,0.3-0.2,0.4-0.3
		c1.1-1.5,2.7-2.4,4.2-3.4c0.4-0.3,0.7-0.6,1.2-0.8c1-0.5,2-0.9,3.2-1.1c0.7-0.1,1.3-0.6,2.1-0.4c0.1,0,0.2,0,0.3-0.1
		c0.6-0.7,1.2-0.6,1.9-0.1c0.1,0.1,0.3,0.1,0.4,0.1c0.9,0,1.8,0.1,2.7,0.1c0.4,0,0.7,0,0.8,0.4c-0.2,0.4-0.6,0.4-1,0.3
		c-0.5-0.1-0.9,0-1.2,0.3c-0.3,0.4-0.8,0.4-1.2,0.4c-0.8-0.1-1.5,0.1-2.2,0.4c-0.7,0.4-1.5,0.4-2.2,0.8c-0.7,0.3-1.2,0.9-1.8,1.3
		c-0.2,0.1-0.4,0.2-0.6,0.4c-0.4,0.3-0.9,0.6-1.3,1c-0.3,0.3-0.4,0.7-0.1,1c0.2,0.2,0.6,0.3,0.9,0.3c0.3,0,0.5-0.1,0.7-0.3
		c1.1-0.9,2.6-1.1,3.7-1.9c1.1-0.7,2.5-0.6,3.4-1.5c0.1-0.1,0.5,0,0.7,0c0.3,0,0.7,0.1,1,0.1c0.4,0,0.9,0,1.3-0.1c1-0.4,2,0.3,3-0.2
		c0.2-0.1,0.5,0,0.8,0.1C30.5,201.1,31,201.3,31.6,201.5z"/>
	<path class="st1" d="M55.3,187.2c0.5-0.6,0.6-1.3,1.4-1.8c0.4-0.2,0.6-0.9,1-1.3c0.6-0.6,1.2-1.1,1.8-1.6c0.9-0.7,1.9-1.3,2.8-2
		c0.2-0.1,0.4-0.3,0.5-0.5c0.4-0.5,0.8-0.8,1.4-0.8c0.5-0.1,1.1-0.4,1.6-0.7c0.4-0.2,0.7-0.4,1.2-0.1c0.2,0.1,0.4,0.1,0.6,0.1
		c0.8-0.3,1.5-0.1,2.3,0c0.5,0,0.9-0.1,1.4-0.2c0.7,0.2,1.4,0.5,2.1,0.6c1.6,0.1,2.8,0.9,4.1,1.7c0.7,0.4,1.4,0.8,2.2,1.3
		c-0.2,0.4-0.4,0.6-0.6,0.9c-0.3,0.6-0.6,1.2-1,1.8c-0.4,0.5-0.9,1-1.4,1.5c-0.9,0.9-1.8,1.9-2.9,2.5c-0.4,0.2-0.8,0.5-1,0.8
		c-0.4,0.5-0.9,0.8-1.6,0.6c-1-0.2-2,0-3,0.4c-0.6,0.2-1.2,0.3-1.8,0.5c-1,0.3-2.1,0.4-3.1,0.5c-0.2,0-0.4,0-0.6,0
		c-1.5-0.2-3-0.4-4.5-0.6c-0.7-0.1-1.4-0.5-2.3-0.8c1.2-0.9,2.3-1.7,3.4-2.4c1-0.6,2-1.2,3.1-1.7c1.1-0.5,2.2-0.8,3.4-1.2
		c1.4-0.5,2.8-0.6,4.3-0.9c0.4-0.1,0.8-0.2,0.8-0.6c0-0.4-0.2-0.7-0.6-0.8c-0.9-0.2-1.8-0.6-2.8-0.2c-0.7,0.3-1.5,0.2-2.2,0.3
		c-1.2,0.3-2.3,0.8-3.4,1.3c-1.4,0.5-2.5,1.4-3.7,2.2c-0.8,0.5-1.6,1-2.4,1.5C55.5,187.3,55.4,187.2,55.3,187.2z"/>
	<path class="st1" d="M45.6,211.6c0.1,0.1,0.3,0.2,0.4,0.4c0.3,0.6,0.6,1.3,1.2,1.7c0.1,0.1,0.2,0.3,0.1,0.4c-0.1,1.1,0.6,2,0.9,3
		c0.1,0.4,0.2,0.9,0.2,1.4c0.1,0.4,0,0.8,0.2,1.1c0.6,1.1,0.5,2.2,0.3,3.3c0,0.2,0,0.4,0,0.5c0.4,0.9,0.3,1.9,0.2,2.9
		c0,0.4,0,0.8,0.1,1.2c0.1,0.6,0,1-0.5,1.4c-1.3-0.2-2.1-1.1-3.1-1.8c-1.6-1.1-2.3-2.9-3-4.6c-0.3-0.8-0.5-1.7-0.9-2.5
		c-0.3-0.6-0.2-1-0.1-1.6c0.1-0.2,0.2-0.5,0.2-0.7c-0.3-1.6,0.5-3,1-4.5c0.2-0.6,0.6-1.3,1.5-1.2C44.8,212,45.2,211.8,45.6,211.6z"
		/>
	<path class="st1" d="M51,228.9c0-0.3-0.1-0.7,0-0.9c0.5-1.1,0.2-2.2,0.3-3.3c0.1-0.4,0.1-0.8,0.1-1.2c0-0.3,0-0.7-0.1-1
		c-0.1-1-0.7-1.9-0.4-3c0.1-0.4-0.1-0.8-0.2-1.2c-0.5-1-0.5-2-0.8-3c-0.1-0.5-0.4-1-0.7-1.5c-0.2-0.3-0.5-0.5-0.5-0.8
		c-0.2-0.8-0.3-1.5-1.1-2c0.2,0,0.4,0,0.6-0.1c0.8-0.2,1.6-0.2,2.3-0.6c0.6-0.3,1.1-0.2,1.7,0.4c0.9,0.9,1.2,2,1.8,3.1
		c0.1,0.2,0.1,0.5,0.3,0.7c0.6,0.8,1,1.5,0.8,2.6c-0.1,0.9,0.3,1.9,0.4,2.8c0.1,0.8,0.4,1.6-0.3,2.3c-0.1,0.1-0.1,0.2-0.1,0.3
		c0,1.1-0.6,1.9-1.1,2.9c-0.4,0.7-0.8,1.5-1.3,2.2c-0.1,0.1-0.1,0.2-0.2,0.3C52,228,51.5,228.4,51,228.9z"/>
	<path class="st0" d="M39.3,217.7c-1.3-0.2-2.4-0.3-3.5-0.5c-0.3-0.1-0.7-0.2-1-0.2c-0.3-0.1-0.6-0.3-0.8-0.2
		c-0.7,0.2-1.2-0.2-1.9-0.6c2.6-1,5.2-1.6,7.9-2.4c-0.1,0.4-0.2,0.7-0.2,1c-0.1,0.5,0,0.9-0.2,1.4C39.6,216.7,39.4,217.2,39.3,217.7
		z"/>
	<path class="st0" d="M57.8,217.2c-0.3-0.6-0.5-1.1-0.8-1.5c-0.3-0.5-0.3-0.9-0.3-1.5c3.3,0.2,6,0.9,7.5,1.9
		c-0.2,0.1-0.3,0.2-0.4,0.3c-1.1,0.1-2.1,0.6-3.2,0.7c-0.7,0-1.4,0.2-2.1,0.2C58.2,217.3,57.9,217.2,57.8,217.2z"/>
</g>
</svg>
