<?xml version="1.0" encoding="utf-8"?>
<!-- Generator: Adobe Illustrator 25.0.0, SVG Export Plug-In . SVG Version: 6.00 Build 0)  -->
<svg version="1.1" id="_xEFF5__xEED3__x5F_7" xmlns="http://www.w3.org/2000/svg" xmlns:xlink="http://www.w3.org/1999/xlink"
	 x="0px" y="0px" viewBox="0 0 142.8 187.5" style="enable-background:new 0 0 142.8 187.5;" xml:space="preserve">
<style type="text/css">
	.st0{fill:#FDD23E;}
	.st1{fill:#FFFFFF;}
</style>
<g>
	<path d="M141.9,68.8c-0.6-1.2-1.3-2.3-2-3.5c-0.4-0.6-1-1.1-1.4-1.7c-0.1-0.2-0.3-0.4-0.3-0.5c-0.1-1.2-0.8-2-1.5-2.8
		c-0.7-0.8-1.5-1.5-2.1-2.4c-0.7-0.9-1.1-1.9-1.8-2.8c-0.4-0.5-0.9-0.9-1.3-1.4c-0.9-0.9-1.8-1.7-2.5-2.7c-0.5-0.7-0.8-1.7-1.7-2
		c-0.1,0-0.2-0.2-0.2-0.3c-0.7-1.5-2.1-2-3.3-2.8c-0.8-0.5-1.7-0.9-2.5-1.3c-0.2-0.1-0.5-0.3-0.7-0.3c-0.7-0.2-1.4-0.5-2.1-0.7
		c-1.3-0.3-2.6-0.6-4-0.8c-1.4-0.2-2.7-0.3-4.1-0.4c-0.4,0-0.8-0.2-1.2-0.2c-1-0.1-2-0.1-2.5-1.2c-0.2-0.3-0.6-0.4-0.8-0.7
		c-0.4-0.4-1.1-0.7-1.3-1.2c-0.5-1.6-0.9-3.3-1.3-5c-0.3-1.3-0.5-2.7-0.7-4c0-0.2,0-0.5,0.1-0.6c0.5-0.5,1.1-1,1.7-1.5
		c0.2-0.2,0.4-0.4,0.4-0.7c0.1-0.7,0-1.4,0-2c0-0.6-0.2-1.2,0-1.6c0.8-1.6,1.8-3.1,2.2-4.9c0.6-2.5,1.6-4.9,1.6-7.6
		c0-1.3-0.2-1.8-1.6-1.9c-0.4,0-0.9,0-1.2-0.2c-1.4-1-3-1-4.5-1.2c-0.4,0-1-0.4-1-0.7c-0.4-1.9-0.6-3.8-1-5.7
		c-0.2-1.1-1.1-1.7-2.2-1.6c-0.9,0.1-1.9,0.1-2.8,0.2c-1.5,0.1-3,0.1-4.6,0.2c-0.5,0-0.9,0.1-1.4,0.2c-1,0.1-2.1,0.1-3.1,0.2
		C84,1,83.1,1.3,82.2,1.5c-0.1,0-0.2,0-0.3,0c-1.5,0.2-3,0.3-4.5,0.5c-1.1,0.2-2.1,0.6-3.1,0.9c-0.7,0.2-1.4,0.4-1.4,1.2
		c0,0.8,0,1.6,0.1,2.4c0.2,1.4,1,2.7,0.9,4.2c0,0.8,0.2,1.5,0.2,2.3c0,1.2,0,2.4,0,3.6c0.1,1.1,0.2,2.3,0.4,3.4
		c0.1,0.5,0.2,1,0.3,1.4c0.1,0.5,0.1,0.8-0.4,1.2c-0.5,0.4-0.8,1.1-1.1,1.8c-0.2,0.3-0.2,0.8-0.4,1.1c-0.7,0.8-1.5,1.5-2.2,2.3
		c-0.4,0.4-0.7,1-0.8,1.5c-0.2,1,0.7,1.9,1.6,1.6c1.1-0.2,2.1,0,3.1,0.4c0.2,0.1,0.4,0.3,0.5,0.5c0.4,1.3,0.9,2.6,0.7,4
		c0,0.2,0.1,0.4,0.2,0.5c0.7,0.6,0.6,1.4,0.4,2.2c-0.3,0.9,0.3,1.7,1.2,1.9c0.3,0.1,0.6,0.1,0.8,0.2c1.6,0.8,3.3,0.6,5,0.8
		c0.3,0,0.5,0,0.8,0c0.5,0,1,0,1.5,0c0.3,0,0.5,0,0.8,0c0,0.1,0.1,0.2,0.1,0.3c-1,0.4-1.7,1-1.8,2.1c0,0.1-0.3,0.2-0.5,0.2
		c-1.4,0.4-2.8,1-4.3,1.3c-1.9,0.4-3.7,1.4-5.6,1.9c-1.3,0.4-1.9,1.1-2.5,2.4c-1,2.4-1,4.9-1.5,7.4c-0.4,1.9-0.5,3.9-0.8,5.8
		c-0.3,1.6-0.6,3.3-0.9,4.9c-0.1,0.6-0.4,1.2-0.3,1.8c0.2,1.3-0.1,2.4-0.4,3.6c-0.2,0.5,0.1,1.2,0.1,1.8c0,0.2,0.1,0.5,0.1,0.7
		c-0.6,1.5-0.8,3-0.6,4.6c0.1,0.6,0.2,1.3,0,1.8c-0.5,1.1-0.4,2.2-0.4,3.4c0,1.5-0.2,3-0.3,4.4c-0.1,1.5-0.2,3-0.3,4.5
		c-0.1,2-0.1,4-0.1,6.1c0,1-0.1,1.9-0.1,2.9c0,0.4,0.2,1,0.5,1.1c1,0.2,0.9,0.9,0.8,1.6c0,1.3,0.1,2.6,0.9,3.8
		c0.3,0.4,0.5,0.8,0.6,1.2c0.3,2,1.2,3.4,3.1,4.3c0.2,0.1,0.3,0.3,0.4,0.4c0.9,1.1,1.8,2,3.4,1.7c0.5,0.7,0.3,1.4,0.2,2.2
		c-0.2,1.6-0.1,3.2,0.9,4.3c-0.3,0.7-0.6,1.2-0.7,1.7c0,1.1,0.1,2.3,0.2,3.4c0.1,1.7,0.1,3.4,0.2,5c0,0.4,0.2,0.9,0.3,1.3
		c0.1,0.4,0.3,0.7,0.3,1.1c0,1.2-0.2,2.5-0.3,3.7c0,0.2,0.1,0.3,0.1,0.5c0.3,0.7,0.6,1.3,0.2,2.1c-0.1,0.3,0.1,0.7,0.1,1.1
		c0,0.2,0.2,0.4,0.1,0.6c-0.3,1.4,0,2.7,0.3,4.1c0.2,0.6,0.1,1.3,0.2,1.9c0.1,0.8,0.2,1.6,0.3,2.4c0.1,0.9,0.4,1.8,0.5,2.6
		c0,0.1,0,0.2-0.1,0.2c-0.4,0.7-0.4,1.5,0,2.2c0.1,0.2,0,0.4,0,0.6c0,0.5,0,1,0,1.5c0.1,0.4,0.3,0.8,0.3,1.3c0.1,1.7,0.1,3.4,0.2,5
		c0,0.6,0.3,1.2,0.4,1.8c0.2,1-0.3,2.2,0.6,3c0.1,0.1,0.1,0.2,0,0.3c-0.4,2.4,1.1,4.2,1.6,6.3c-0.6,0.4-1.3,0.8-2,1.3
		c-1.5,1.1-3,2.2-4.4,3.4c-1,0.8-2.3,1.3-1.8,3c0,0.1-0.1,0.2-0.1,0.3c-0.1,0.8,0.2,1.4,1.1,1.4c0.7,0.1,1.4,0.2,2.1,0.2
		c1.3,0,2.6-0.2,3.8-0.2c0.9,0,1.8,0,2.7,0c1.3-0.1,2.7-0.4,4,0c0.3,0.1,0.7-0.1,1.1-0.1c0.6-0.1,1.3-0.4,1.9-0.3
		c1.2,0.3,2.3,0,3.4-0.4c0.2-0.1,0.5-0.1,0.7-0.1c1.2,0.1,1.7-0.4,1.7-1.5c0-0.4,0-0.8,0-1.2c-0.1-1.5-0.3-3-0.4-4.6
		c1.3-0.3,1.5-0.7,1.5-1.9c0-1.5,0.1-3.1,0.1-4.6c0-0.9,0.1-1.8-0.4-2.7c-0.2-0.3-0.1-1.1,0.2-1.5c0.4-0.7,0.7-1.4,0.3-2.2
		c-0.1-0.1-0.1-0.4-0.1-0.5c0.9-1.4,0-3,0.3-4.5c0.1-0.7-0.2-1.4,0.3-2c0.2-0.2,0.2-0.6,0.2-0.9c0.1-1.3-0.2-2.7,0.2-4
		c0.1-0.4-0.2-1-0.3-1.5c-0.1-0.3-0.2-0.7-0.1-1c0.6-1.2,0.6-2.5,0.7-3.7c0-0.7-0.3-1.4-0.2-2c0.2-1.1-0.3-2.2,0.5-3.2
		c0-0.1,0-0.2,0-0.2c-0.2-0.8-0.1-1.6,0.1-2.5c0.3-1.4,0.3-2.9,0.5-4.4c0.3,0.4,0.5,0.8,0.6,1.2c0.1,0.3,0.1,0.6,0.2,0.8
		c0.5,1.7,1.1,3.5,1.7,5.2c0.1,0.3,0.5,0.6,0.7,0.9c0.1,0.2,0.2,0.4,0.2,0.7c0.1,0.7,0,1.4,0.2,2c0.3,1.2,0.8,2.3,1.1,3.4
		c0.3,1.1,1.1,2,1.1,3.3c0,0.3,0.5,0.6,0.5,0.9c-0.2,1.3,0.4,2.3,1,3.4c0.3,0.5,0.4,1.1,0.5,1.6c0.3,0.9,0.4,1.9,0.8,2.7
		c0.5,1.3,1.3,2.6,1.5,4c0.1,1.4,0.8,2.5,1.1,3.8c0.2,0.8,0.6,1.5,1,2.2c0.4,0.8,1.1,1.4,1.1,2.4c0,0.2,0.1,0.5,0.3,0.7
		c0.5,1,1.6,1.7,1.2,3c0,0.1,0.1,0.3,0.1,0.3c1,0.5,1.1,1.4,1.1,2.3c0,0.1,0,0.2,0.1,0.2c0.6,0.5,0.4,1.1,0.5,1.8c0,0.5,0,0.9,0,1.4
		c0.1,1.3,0.7,2.1,2,2.3c0.7,0.2,1.5,0.5,2.2,0.4c1.4,0,2.7-0.2,4.1-0.4c0.8-0.1,1.7-0.2,2.5-0.2c0.6-0.1,1.2-0.2,1.7-0.2
		c0.6-0.1,1.3-0.3,1.8-0.1c1.2,0.5,2.3,0.1,3.4,0.2c0.2,0,0.4-0.1,0.6-0.2c0.5-0.2,0.9-0.4,1.4-0.6c0.8-0.3,1.4-1.2,0.8-1.9
		c-0.7-1-1.7-1.8-2.6-2.7c0,0-0.1,0-0.1-0.1c-1.1-0.7-2.3-1.3-3.4-2c-0.1-0.1-0.1-0.2-0.2-0.3c-0.3-0.3-0.5-0.7-0.8-1
		c-0.4-0.4-1-0.6-0.6-1.4c0.1-0.2,0-0.6-0.2-0.7c-1-0.6-0.9-1.5-0.7-2.5c0.1-0.3-0.1-0.7-0.2-1c0-0.3-0.1-0.5-0.1-0.8
		c-0.2-1.2-0.4-2.4-0.6-3.6c-0.1-0.6-0.5-1.2-0.6-1.8c-0.2-1.9-0.3-3.9-0.6-5.8c-0.2-2.1-0.6-4.1-0.9-6.2c-0.1-0.5-0.2-1-0.3-1.5
		c-0.2-1.4-0.3-2.7-0.5-4.1c-0.1-0.6-0.3-1.3-0.1-1.9c0.2-0.7,0.2-1.3-0.2-2c-0.1-0.3-0.3-0.6-0.3-0.9c0-1,0.1-2,0-2.9
		c-0.2-1.6-0.5-3.3-0.7-4.9c-0.1-0.6-0.1-1.2-0.1-1.8c0-0.7,0-1.4-0.1-2.1c0-0.5-0.2-1.1-0.1-1.6c0.1-0.9,0.1-1.7-0.3-2.6
		c-0.2-0.3-0.3-0.9-0.1-1.2c0.7-1.7-0.6-3.2-0.3-4.9c0-0.1-0.1-0.2-0.1-0.3c-0.1-0.7-0.4-1.5-0.2-2c0.4-1,0.5-2.1,0.2-2.9
		c-0.6-1.6,0.3-3.4-0.7-5c-0.1-0.1,0-0.3,0-0.4c0.3-1.4,0.4-2.7,0-4.1c-0.1-0.3,0-0.7,0-1.1c0-1.2,0-2.3-0.1-3.5
		c0-0.6-0.1-1.2-0.2-1.8c-0.1-1-0.1-2-0.2-3c-0.2-1.1,0.2-1.6,1.3-1.6c0.4,0,0.7-0.2,1.1-0.3c0.4-0.1,0.7-0.4,1.1-0.4
		c1.1-0.2,1.7-1,1.4-2c-0.2-0.6-0.5-1.2-0.8-1.9c0.6-0.4,1.2-0.9,2.2-0.6c0.7,0.2,1.4-0.1,1.5-0.8c0.1-0.8,0.6-1.1,1.3-1.4
		c0.3-0.2,0.6-0.4,0.9-0.7c0.6-0.8,1.1-1.7,2.2-2c0.3-0.1,0.5-0.4,0.7-0.7c0.7-0.8,1.4-1.6,2.1-2.4c0.5-0.6,1.4-1,1.4-1.6
		c0.1-1.2,0.7-1.7,1.7-2.2c0.2-0.1,0.4-0.3,0.5-0.5c0.6-0.7,1.2-1.5,1.8-2.2c0.3-0.3,0.6-0.7,0.8-1c0.3-0.9,0.8-1.9,0.8-2.8
		C142.8,70.8,142.3,69.7,141.9,68.8z M121.5,78.8c-0.1-0.4-0.3-0.9-0.3-1.3c-0.2-1.8-0.4-3.6-0.5-5.5c0-0.6,0-1.2,0-1.7
		c-0.1-0.6-0.3-1.3-0.4-1.9c0-0.2,0-0.4,0-0.6c0-0.4-0.1-0.8-0.1-1.3c0-0.4,0-0.8,0.1-1.3c2.2,2.4,3.8,5.3,6.9,6.6
		C125.3,74.1,123.4,76.4,121.5,78.8z"/>
	<path d="M18.2,36c-0.8,0.5-1.5,0.3-2.2,0.1c-1.1-0.3-2.3-0.3-3.4-0.5c-1.2-0.2-2.4-0.5-3.6-0.8c-0.3-0.1-0.6-0.3-1-0.5
		c-0.4-0.1-0.7-0.2-1.1-0.3c-0.2,0-0.4,0-0.6-0.1c-1-0.8-2.6-1-3-2.7c-0.2-0.7-0.9-1.3-1.1-2.2c-0.1-0.8-0.2-1.6,0.1-2.5
		c0.3-0.9,0.1-2.1,0.4-3c0.3-1,0.8-2,1.3-3c0.2-0.4,0.6-0.8,0.8-1.2c0.4-0.8,0.9-1.5,1.7-2C7,17.1,7.3,16.4,7.7,16
		c0.1-0.2,0.2-0.4,0.4-0.5c1.7-1.4,3.3-2.9,5.4-3.7c0.4-0.1,0.8-0.2,1.2-0.3c0.5-0.2,0.9-0.4,1.4-0.6c0.6-0.3,1.3-0.6,1.9-0.8
		c0.7-0.2,1.4-0.3,2.1-0.3c1.1,0,2.2,0.4,3.5,0.1c0.9-0.2,2,0.2,3.1,0.3c0.6,0,1.2-0.1,1.8,0c0.7,0.1,1.4,0.2,2,0.4
		c1.8,0.5,3.6,1.1,5.4,1.7c0.3,0.1,0.7,0.3,0.8,0.5c0.5,0.8,1.3,0.9,2.1,1.2c0.5,0.2,0.9,0.7,1.3,1c0.3,0.2,0.6,0.4,0.9,0.6
		c0.3,0.2,0.9,0.3,1,0.6c0.5,1.2,1.6,1.8,2.4,2.7c1,1.1,1.8,2.4,1.9,3.9c0,0.1,0,0.3,0,0.3c0.8,1,0.7,2.3,0.7,3.5
		c0,1.2-0.5,2.3-0.9,3.5c-0.4,1.1-1.1,1.9-2.2,2.6c-0.7,0.4-1.3,1.2-2,1.7c-0.6,0.4-1.3,0.8-2,1.1c-0.4,0.2-1,0.4-1.2,0.8
		c-0.6,1.1-1.8,1-2.7,1.2c-1,0.3-2.1,0.4-3.1,0.9c-1.1,0.6-2.1,0.5-3.3,0.5c-0.9-0.1-1,0.1-0.8,1c0.4,1.4,0.8,2.8,1,4.2
		c0.3,2.5,1.2,4.9,1.7,7.3c0.3,1.6,0.6,3.1,0.9,4.6c0.3,1.2,0.7,2.5,1.1,3.7c0.1,0.2,0.2,0.4,0.2,0.6c0.2,1.3,0.4,2.6,0.5,3.9
		c0.1,1.2,0.1,1.3,1.3,1.7c0.6,0.2,1.3,0.2,1.9,0.5c0.3,0.1,0.8,0.5,0.8,0.9c0.1,0.7,0.2,1.4,0.1,2c-0.1,0.7-0.7,1-1.4,1.1
		c-0.5,0.1-1,0.1-1.6,0.2c0.2,0.7,0.4,1.4,0.7,2.2c1-0.7,1.9-1.5,2.9-2.1c1.6-1,3.3-2,4.9-3c0.5-0.3,0.9-0.7,1.4-0.9
		c0.8-0.4,1.6-0.7,2.5-0.9c0.2-0.1,0.6,0.2,0.8,0.4c0.8,0.8,1.3,0.9,2.3,0.4c1.2-0.5,2.4-1,3.6-1.5c0.6-0.2,1.3,0.5,1.3,1.2
		c-0.1,1.9,0,3.8,0.6,5.7C57,72.4,57,73,57,73.6c0.1,0.9,0.1,1.8,0.2,2.7c0.1,0.6,0.4,1.2,0.4,1.8c0,0.4-0.2,0.9-0.5,1.2
		c-0.9,0.8-1.9,1.5-2.9,2.3c0.1,0.6,0.4,1.4,0.4,2.1c0,0.4-0.2,1-0.5,1.2c-1.4,0.9-2.9,1.7-4.4,2.4c-0.8,0.4-1.7,0.7-2.6,0.8
		c-0.6,0-1.3-0.3-1.9-0.6c-0.8-0.4-1.9-0.2-2.3,0.5c-0.6,0.9-1.4,1.4-2.4,1.7c-1,0.3-1.9,0.7-2.9,1.1c-0.1,0-0.3,0.1-0.2,0.2
		c0.2,0.7-0.7,1.3-0.2,2.1c0.2,0.3,0.1,0.8,0.2,1.2c0,1.6,0,3.2,0.1,4.8c0.1,2.3,0.5,4.5,0.5,6.8c0.1,2,0,4,0,6c0,0.5,0,1.1,0,1.6
		c0.2,1.7,0.3,3.4-0.1,5.1c-0.2,1.1,0,2.2-0.1,3.3c0,1.4-0.1,2.7-0.2,4.1c0,0.5,0.1,0.9,0,1.4c0,0.7-0.1,1.3-0.2,2
		c0,0.1-0.1,0.2-0.1,0.3c0.6,1.3-0.2,2.5-0.1,3.8c0,0.7-0.2,1.4-0.2,2.1c-0.1,2.1-0.5,4.2-0.9,6.3c-0.2,0.8-0.4,1.5-1.2,1.9
		c-0.1,0.1-0.2,0.3-0.2,0.4c0,0.7,0.1,1.5,0,2.2c0,0.5-0.1,1.1-0.2,1.6c0,0.2-0.2,0.5-0.2,0.7c0.4,2.6,0,5.2-0.1,7.8
		c0,1.1,0,2.2,0,3.3c0,0.3-0.2,0.6-0.2,1c-0.1,0.7-0.1,1.3-0.2,2c0,0.5,0,1,0,1.6c-0.1,1.7-0.3,3.5-0.4,5.2c0,0.1,0,0.2,0,0.2
		c0.3,1.2,0.4,2.3-0.3,3.4c-0.1,0.1,0.2,0.5,0.3,0.8c0.3,0.6,0.6,1.1,1,1.6c0.4,0.6,0.9,1.3,1.4,1.9c0.1,0.2,0.4,0.2,0.5,0.4
		c0.9,1.9,2.8,2.8,4.4,4c1.1,0.8,1.7,2,1.7,3.4c0,0.7-0.6,1.3-1.3,1.2c-1-0.1-1.9,0.2-2.8,0.4c-1.7,0.3-3.4,0.5-5.1-0.2
		c-0.2-0.1-0.4-0.2-0.5-0.2c-2.1,0.5-3.6-1-5.4-1.5c-1-0.3-1.3-1-1.2-2.1c0-0.1,0-0.2,0-0.2c-0.8-1.7,0-3.3,0.2-4.9
		c0.1-0.8,0.5-1.5,0.7-2.3c0.2-0.8,0.3-1.5,0.5-2.3c0-0.1,0-0.2,0-0.3c-0.4-1.7-0.8-3.3-1.1-5c0-0.2,0.1-0.4,0-0.7
		c-0.1-0.5-0.2-1.1-0.4-1.6c0-0.2-0.2-0.3-0.2-0.5c-0.5-2.7-1-5.4-1.5-8.1c-0.1-0.8-0.3-1.5-0.5-2.3c0-0.1-0.1-0.2-0.1-0.2
		c0.4-2.4-0.8-4.8-0.5-7.2c0.1-0.6-0.2-1.3-0.2-1.9c0-0.6,0.2-1.1,0.3-1.7c0.1-0.5,0.1-0.7-0.5-0.7c-0.6,0-1.2-0.1-2-0.1
		c-0.2,1.2-0.3,2.5-0.5,3.7c-0.2,1.3-0.5,2.5-0.7,3.8c-0.1,0.3-0.1,0.7-0.2,1.1c-0.4,2-0.8,4.1-1.2,6.1c-0.2,1.1-0.5,2.3-0.8,3.4
		c-0.4,1.6-0.7,3.3-1.1,4.9c-0.2,1-0.5,2-0.7,3c-0.1,0.3-0.1,0.6-0.2,0.8c-0.8,1.1-0.5,2.5,0.1,3.3c0.7,0.9,0.9,2.1,2,2.7
		c0.3,0.2,0.5,0.7,0.6,1.1c0.2,0.4,0.1,0.9,0.4,1.3c0.3,0.5,0.7,0.9,1.1,1.3c0.1,0.1,0.2,0.1,0.2,0.2c0.4,0.8,1,1.4,1.8,1.8
		c0.5,0.3,0.9,2.7,0.5,3.1c-0.3,0.3-0.8,0.7-1.2,0.7c-1.3,0-2.6-0.1-3.9-0.3c-1.1-0.2-2.2-0.8-3.2-0.6c-1.3,0.2-2.2-0.4-3.3-0.6
		c-1.8-0.3-3.5-1.3-3.9-3.2c-0.2-1.4,0.1-2.9,0.4-4.3c0.4-1.7,1-3.3,1.6-4.9c0-0.1,0-0.1,0-0.2c0.1-1.6,0.1-3.3,0.2-4.9
		c0-0.7,0.1-1.4,0.2-2.1c0.1-1.5,0-3,0.1-4.5c0.1-1.8,0.3-3.6,0.4-5.4c0-0.7-0.1-1.5-0.1-2.2c0-1.5,0.1-3,0.2-4.4
		c0.1-1.2,0.3-2.4,0.4-3.6c0.1-0.7,0.1-1.5,0.1-2.2c0-0.2-0.4-0.5-0.6-0.5c-1.4,0-1.7-0.4-1.5-1.8c0.2-1.1,0.3-2.3,0.5-3.5
		c0.3-1.8,0.7-3.6,1-5.4c0.2-0.9,0-1.9,0.4-2.6c0.7-1.2,0.4-2.4,0.2-3.6c-0.2-1.1-0.1-2.2-0.1-3.3c0-0.3-0.2-0.6-0.3-0.8
		c-0.6-0.6-0.7-1.3-0.7-2.1c0-0.4-0.1-0.9-0.1-1.3c-0.2-0.8-0.5-1.6-0.5-2.3c0-1.4-0.3-2.6-0.6-3.9c-0.1-0.5,0-1,0.1-1.5
		c0.2-0.9,0.1-1.7-0.3-2.5c-0.2-0.3-0.2-0.7-0.3-1.1c-0.1-1.5-0.2-3-0.3-4.4c0-0.2-0.1-0.4,0-0.5c0.5-0.8,0-1.5-0.1-2.3
		c0-0.2-0.4-0.5-0.7-0.5c-0.9-0.1-1.8-0.2-2.6-0.2c-0.7,0-1.1-0.3-1.4-0.8c-0.3-0.5-0.1-0.9,0.1-1.5c0.4-1.3,1.1-2.5,0.9-3.9
		c-0.1-0.8,0.2-1.6,0.3-2.4c-0.8-0.3-1.6-0.6-2.4-0.9c-0.3-0.1-0.6-0.4-0.7-0.7c-0.3-0.9-0.5-1.8-0.6-2.7c-0.1-0.4,0-0.9,0.2-1.4
		c0.3-1.1,0.7-2.2,0.9-3.3C1.2,79.5,1,78.9,1,78.3c0.1-1,0.4-1.9,0.6-2.9c0.3-1.2,0.5-2.4,0.8-3.6c0.5-2,1.1-4,1.7-6.1
		c0.1-0.2,0.2-0.4,0.3-0.6c0.1-0.3,0.3-0.7,0.2-1c-0.1-0.7-0.1-1.3,0.4-2c0.2-0.2,0.4-0.7,0.3-0.9C5,60.4,5.4,59.7,5.7,59
		c0.2-0.6,0.2-1.3,0.5-2c0.4-1.1,0.9-2.2,1.3-3.3c0.3-0.8,0.8-1.6,1.1-2.4c0.5-1.2,0.9-2.6,2.3-3.2c0.2-0.1,0.3-0.2,0.4-0.4
		c0.9-1.3,2.2-2.2,3.5-3c0.4-0.3,0.8-0.7,1.2-1.1c0.5-0.5,0.9-1,1.4-1.4c0.4-0.4,0.9-0.7,1.3-1.1c0.1-0.2,0.1-0.5,0.1-0.8
		c0-0.7-0.1-1.5-0.2-2.2C18.4,37.4,18.3,36.8,18.2,36z"/>
	<path class="st0" d="M78.1,123.8c1-1.6,0.9-3.3,0.3-5.2c-0.2-0.5,0.2-1.1,0.2-1.6c0-1.1-0.1-2.2-0.2-3.3c0-0.2,0-0.4,0-0.6
		c0.1-1,0.2-2.1,0.3-3.1c0-0.3-0.1-0.5-0.2-0.8c-0.1-0.3-0.2-0.7-0.1-0.9c0.6-1.1,0.1-2.1,0.1-3.2c0-0.3,0.1-0.7,0.1-1
		c0-0.9,0-1.8,0-2.8c0.3,0,0.7,0.1,1.2,0.1c0.9-0.1,1.7-0.2,2.6-0.2c1,0,2,0.1,3,0.2c0.6,0,1.2,0.2,1.8,0.1c1.7-0.1,3.3-0.2,5-0.3
		c0.2,0,0.5,0,0.7,0.1c0.7,0.4,1.4,0.4,2.1,0.1c0.2-0.1,0.5-0.1,0.7-0.1c1.5,0,2.9-0.1,4.4-0.1c0.4,0,0.8,0.1,1.2,0.2
		c0.3,0,0.7,0.2,1,0.1c0.9-0.4,1.8-0.1,2.7,0c0.6,0.1,1.2,0,1.7,0c0.6,0,1.2,0,1.7-0.1c1.4-0.1,2.8-0.2,4.2-0.2c0.3,0,0.6,0,0.9,0
		c0.7,0,1.5-0.1,2.2-0.1c0.4,0,0.9,0,1.3,0c0.4,0,0.8,0.1,1.2,0.1c0.9-0.2,1.1,0,0.9,0.9c0,0.1,0,0.1,0,0.2c0.2,0.9-0.1,1.8,0,2.7
		c0.1,1,0.1,1.9,0,2.9c-0.1,1,0.2,2,0.3,2.9c0,0.2,0.2,0.5,0.2,0.7c-0.6,1.3,0.2,2.6,0,3.9c-0.2,0.9-0.1,1.8,0,2.7
		c0,0.3,0,0.6,0.2,0.8c0.7,0.8,0.3,1.7,0.3,2.6c0,0.1-0.1,0.1,0,0.2c0.4,1.6-0.7,3.3,0.1,4.9c0.2,0.3,0,0.9,0,1.3c0,0.8,0,1.6,0,2.4
		c0,0.6,0.1,1.2,0.1,1.7c0.1,0.7,0.2,1.4,0.3,2.1c0.1,0.6,0.2,1.2,0.2,1.8c0.1,1.6,0.1,3.2,0.2,4.8c0.1,1,0.5,2.1,0.7,3.1
		c0.1,0.3,0,0.6-0.1,0.9c-0.2,0.7-0.1,1.3,0.2,1.9c0.3,0.5,0.3,1.2,0.3,1.7c0.2,1.5,0.3,3,0.5,4.5c0.2,2,0.3,4.1,0.6,6.1
		c0.3,1.9,0.8,3.7,1.2,5.5c0.3,1.3,0.4,2.6,0.6,3.9c0.2,1.1,0.6,2.2,0.8,3.3c0.2,0.8,0.4,1.7,0.5,2.6c0.1,0.3,0,0.7,0,1.1
		c0,0-0.1,0.1-0.2,0.1c-1.4,0.3-2.9,0.6-4.3,0.9c-1.3,0.3-2.6,0.5-3.9,0.8c-1.3,0.3-1.6,0-2-1.2c-0.3-0.9-0.3-1.9-1.1-2.6
		c-0.2-0.2-0.3-0.5-0.3-0.8c-0.5-1.7-0.9-3.4-1.4-5.1c-0.4-1.2-1.1-2.3-1.6-3.5c-0.2-0.5-0.3-1.1-0.4-1.7c-0.1-0.8-0.2-1.6-0.4-2.4
		c-0.1-0.5-0.5-1-0.7-1.5c-0.3-1-0.5-2-0.8-3c-0.1-0.5-0.4-0.9-0.7-1.3c-0.1-0.2-0.1-0.3-0.2-0.5c-0.2-0.6-0.4-1.2-0.5-1.8
		c0-0.1-0.2-0.3-0.2-0.4c0.2-1.5-0.7-2.7-1.1-4c-0.1-0.3-0.1-0.6-0.1-0.9c-0.1-0.8-0.2-1.6-0.9-2.2c-0.1-0.1-0.1-0.4-0.2-0.7
		c-0.1-0.6,0-1.2-0.2-1.8c-0.7-2.3-1.5-4.5-2.3-6.8c-0.5-1.4-1.1-2.7-1.6-4.1c-0.3-0.9-0.9-1.7-0.6-2.8c0.2-0.9-0.1-1.9-0.3-2.8
		c-0.3-1.6-0.6-3.2-0.9-4.7c-0.1-0.3-0.5-0.6-0.8-0.9c-0.3,0.3-0.6,0.5-0.8,0.9c-0.3,0.7-0.4,1.4-0.2,2.2c0.2,0.7,0,1.5-0.1,2.3
		c-0.2,1.6,0,3,0.6,4.5c0.2,0.5-0.1,1.1-0.1,1.6c0,0.6,0,1.1,0.1,1.7c0,0.2,0.1,0.4,0.1,0.6c-0.2,0.9-0.6,1.8-0.8,2.7
		c-0.1,0.5-0.1,1.1-0.1,1.6c0,1.1-0.1,2.2-0.1,3.4c0,0.2,0,0.4-0.1,0.6c-0.4,0.8-0.5,1.5-0.1,2.3c0.1,0.2,0,0.5-0.1,0.8
		c-0.2,1.1-0.6,2.2-0.7,3.3c-0.1,1.3-0.2,2.6,0.3,3.9c0.1,0.3-0.1,0.7-0.1,1c-0.1,0.4-0.4,0.9-0.5,1.3c-0.1,1.3-0.2,2.6-0.2,3.9
		c0,0.5,0.2,1.1,0.3,1.6c0,0.2,0.1,0.3,0.1,0.5c-0.2,1.3-0.5,2.7-0.7,4c-0.1,1.1,0.1,2.2-0.1,3.3c-0.1,0.6,0.3,1.3,0.5,2
		c0,0.2,0,0.4-0.1,0.6c-0.9,1-0.5,2.1-0.4,3.2c0.1,0.9,0.2,1.8,0.2,2.7c0,0.2-0.3,0.5-0.6,0.6c-0.9,0.1-1.8,0.2-2.8,0.2
		c-0.8,0-1.6-0.3-2.4-0.2c-1.1,0.1-2.1-0.4-3.1-0.5c-0.8,0-1.6-0.1-2.4-0.2c-0.4,0-0.5-0.2-0.5-0.6c0-1.3,0.2-2.6-0.6-3.8
		c-0.1-0.1-0.1-0.3-0.1-0.4c0.4-0.8,0-1.5-0.1-2.2c-0.1-0.7,0-1.5-0.2-2.3c-0.2-1.7-0.5-3.4-0.8-5.1c0-0.2,0-0.4,0-0.7
		c0-0.8-0.1-1.6-0.2-2.3c0-0.2,0-0.4,0-0.6c-0.1-0.7-0.2-1.3-0.3-2c0-0.1-0.2-0.2-0.2-0.4c0-0.9,0-1.8,0-2.7
		c-0.1-1.1-0.2-2.3-0.3-3.4c-0.1-1.1-0.1-2.2-0.2-3.3c0-0.5-0.2-1-0.3-1.4c0-0.2,0-0.5-0.1-0.7c-0.1-0.6-0.3-1.2-0.3-1.8
		c-0.1-0.5,0-1,0-1.5c0-0.5-0.2-1-0.3-1.6c-0.1-0.4-0.1-0.8-0.2-1.2c0-0.3,0.1-0.7-0.1-0.9c-0.4-0.5-0.2-1-0.1-1.5
		c0.1-0.5,0.1-1,0.1-1.5c-0.1-1.6-0.2-3.2-0.3-4.8c-0.1-1.2,0-2.3-0.1-3.5C78.8,125,78.4,124.5,78.1,123.8z"/>
	<path class="st1" d="M101.7,49.1c-0.9-0.5-1.7-0.8-2.4-1.2c-0.1-0.1-0.2-0.2-0.3-0.3c-0.5-1.2-1.6-1.7-2.7-2.3
		c0.3-0.8,1.1-0.7,1.7-0.7c0.9-0.1,1.6-0.4,2-1.3c0.1-0.3,0.5-0.4,0.7-0.6c0.5-0.4,0.9-0.8,1.5-1.3c0.6,0.2,1.1,0.4,1.5,1.1
		c0.4,0.8,1.2,1.3,2.1,1.4c0.5,0.1,1.1,0.2,1.5,0.5c1.1,0.8,2.2,0.7,3.4,0.6c0.2,0,0.3,0,0.5,0c1.2,0.6,2.5,0.7,3.8,0.7
		c0.1,0,0.1,0,0.2,0c1.2,0.4,2.5,0.7,3.7,1.2c0.6,0.2,1.2,0.4,1.9,0.2c0.3-0.1,0.9,0.1,1.2,0.4c0.6,0.5,1,1.1,1.5,1.6
		c0.5,0.5,1,0.9,1.6,1.4c0.1,0.1,0.2,0.1,0.2,0.2c0.2,1.2,1.4,1.6,2.1,2.4c0.1,0.1,0.2,0.2,0.3,0.4c0.5,1,1.1,2,1.6,2.9
		c0.2,0.4,0.6,0.7,0.9,1c0.7,0.7,1.5,1.4,2.1,2.2c0.6,0.8,1.1,1.6,1.5,2.5c0.5,1,0.9,1.9,1.9,2.5c0.2,0.1,0.3,0.3,0.4,0.5
		c0.5,1,1,1.9,1.5,2.9c0.3,0.6,0.6,1.3,1,1.9c0.4,0.7,0.9,1.3,1.3,1.9c-0.6,1-1.3,2-1.9,3c-0.1,0.1-0.2,0.2-0.3,0.3
		c-0.4,0.4-0.9,0.8-1,1.3c-0.4,1.1-0.8,2.1-2.2,2.4c-0.3,0.1-0.5,0.7-0.8,1.1c-0.8,1-1.7,2-2.6,3c-0.2,0.2-0.4,0.5-0.5,0.8
		c-0.1,0.9-0.7,1.3-1.4,1.8c-0.7,0.5-1.2,1.2-1.8,1.8c-0.7-0.6-1.5-1.2-2.3-1.7c-0.2-0.2-0.6-0.3-0.8-0.3c-0.8,0-1.2-0.4-1.6-1
		c-0.3-0.5-0.8-0.9-1.4-1.5c1-1.1,2.1-2.1,3.1-3.2c0.3-0.3,0.6-0.7,0.9-1c1.1-1.5,2.3-2.9,3.3-4.4c0.4-0.7,0.4-1.6,0.6-2.4
		c0-0.2-0.1-0.4-0.2-0.5c-1-1.2-1.9-2.5-3-3.7c-1.1-1.2-2.4-2.3-3.5-3.4c-0.6-0.6-1.1-1.4-1.7-2c-0.6-0.6-1.2-1.2-2-1.6
		c-0.3-0.2-1.2,0-1.4,0.3c-0.2,0.4-0.3,1.2,0,1.5c0.6,0.7,0.3,1.4,0.2,2.2c-0.1,0.5,0.1,1,0.1,1.5c0,0.3,0.1,0.6,0.1,0.9
		c0,0.2-0.1,0.4-0.1,0.6c0.2,1.6,0.3,3.1,0.5,4.7c0.1,0.7,0,1.4,0.1,2.1c0,1.2,0.1,2.3,0.1,3.5c0,0.8,0,1.7,0.1,2.5
		c0,0.3,0,0.6,0.2,0.8c0.4,0.7,0.4,1.1-0.4,1.6c-0.3,0.2-0.2,1-0.3,1.6c-0.8,0.4-1.8,1-2.7,1.6c-0.3,0.2-0.5,0.5-0.8,0.8
		c-0.5,0.5-1,1-1.3,1.7c-0.2,0.4-0.2,1.2,0.1,1.6c1.1,1.7,2.2,3.3,3.4,4.8c0.4,0.5,1,0.7,1.5,1.1c0.2,0.2,0.4,0.5,0.4,0.8
		c0,0.5-0.1,1.1-0.2,1.6c0,0.2-0.3,0.3-0.5,0.4c-0.4,0.2-0.9,0.3-1.3,0.4c-0.3,0.1-0.6,0.1-0.8,0c-0.8-0.4-1.6-0.5-2.6-0.2
		c-0.7,0.2-1.6,0.1-2.4,0.1c-2.4,0.1-4.9,0.1-7.3,0.2c-0.4,0-0.7-0.1-1.1-0.1c-0.4,0-0.8-0.1-1.2,0c-0.5,0-0.9,0.2-1.4,0.2
		c-1.4,0-2.9,0-4.3,0.1c-0.4,0-0.8-0.1-1.1-0.1c-0.4,0-0.8-0.1-1,0.1c-1,0.8-2,0.2-3.1,0.1c-1.1-0.2-2.1-0.2-3.2-0.2
		c-1.4,0-2.8,0.3-4.2,0.3c-0.9,0-1.8-0.2-2.7-0.2c-0.6,0-1.2,0-1.9,0c0-1.1-0.1-2.1-0.1-3.1c0-2,0-4,0-6.1c0-1.1,0.2-2.2,0.2-3.2
		c0-0.6-0.2-1.3-0.3-1.9c0-0.3-0.2-0.7,0-0.9c0.8-1.3,0.4-2.8,0.5-4.2c0-0.7,0.1-1.4,0.1-2.1c0-0.8,0.1-1.6,0.1-2.4
		c0.1-1.8,0.1-3.6,0.2-5.3c0-0.3,0.1-0.7,0.3-1c0.8-1.4,0.4-2.8,0.6-4.3c0-0.2,0.1-0.5,0.1-0.7c0-0.6-0.3-1.1-1-1.1
		c-0.6,0-1,0.3-1.1,0.9c-0.2,1.6-0.3,3.3-0.4,4.9c-0.1,1.2-0.4,2.4-0.4,3.6c-0.1,2-0.1,4-0.2,6c-0.1,0.9-0.3,1.8-0.4,2.7
		c-0.1,1.1-0.3,2.1,0.2,3.2c0.1,0.2,0,0.6-0.2,0.8c-0.4,0.8-0.6,1.7-0.4,2.6c0.2,0.6-0.1,1.3-0.1,1.9c-0.1,1.3-0.2,2.7-0.3,4
		c0,0.8,0,1.5,0.1,2.3c0.1,0.9,0.2,1.8,0.2,2.7c0,0.3-0.2,0.6-0.2,0.9c0,0.4-0.1,1.1,0.1,1.2c1.1,0.7,0.7,1.5,0.5,2.4
		c-0.1,0-0.2,0.1-0.2,0c-1.2-0.5-2.4-0.5-3.6-0.1c-0.2,0.1-0.3,0.1-0.5,0.1c-0.8-0.2-1.7-0.3-2.5-0.5c-0.4-0.1-0.7-1.1-0.5-1.8
		c0.6-2,0.7-4,0.5-6.1c-0.2-1.6-0.1-3.2,0-4.9c0.1-1.1,0-2.2,0-3.3c0-0.2,0-0.5,0.1-0.7c0.3-1.1,0.4-2.2,0.1-3.3
		c-0.1-0.5,0.2-1.1,0.3-1.7c0.4-1.6,0.4-3.1,0.1-4.7c0-0.2,0-0.5,0.2-0.6c0.5-0.6,0.6-1.2,0.5-1.9c-0.2-1.2-0.3-2.4,0.3-3.6
		c0.2-0.4,0.1-1,0.1-1.5c0.2-1.6,0.3-3.3,0.5-4.9c0.1-0.6,0.4-1.1,0.5-1.6c0.3-1.6,0.5-3.3,0.7-5c0.1-0.9,0.1-1.8,0.3-2.7
		c0.3-1.2,0.6-2.5,1-3.6c0.1-0.4,0.7-0.7,1.1-0.9c0.9-0.4,1.8-0.6,2.7-1c1.1-0.4,2.3-0.7,3.3-1.2c0.9-0.4,1.7-0.9,2.8-0.5
		c0.9,0.3,1.8-0.5,2.1-1.4c0-0.1,0-0.4,0.1-0.4c1.1-0.4,1.4-1.6,2.1-2.3c0.4-0.4,0.7-0.3,1,0.1c0.3,0.3,0.6,0.5,0.8,0.8
		c0.7,1,1.9,1.3,2.8,1.9c0.5,0.3,1.1,0.6,1.8,1c-1.2,1.3-2.4,2.6-3.6,3.9c-1.4-0.8-2.7-1.7-4.2-2.6c-0.2-0.1-0.8-0.1-0.9,0
		c-0.2,0.2-0.2,0.7-0.1,0.9c0.9,1.1,1.9,2.1,3,3c0.6,0.5,1.6,0.6,2.3,1c0.2,0.1,0.4,0.3,0.6,0.5c0.6,0.8,1.3,1.6,1.9,2.5
		c0.1,0.2,0.3,0.4,0.3,0.5c-0.2,1.1-0.4,2.2-0.7,3.3c-0.1,0.4-0.2,0.7-0.3,1.1c-0.3,1.5-0.6,3.1-0.8,4.6c-0.2,1.2-0.5,2.5-0.7,3.7
		c-0.1,0.6-0.3,1.2-0.3,1.8c0.1,2.2-1.1,4-1.2,6.1c-0.1,1.6-0.3,3.1-0.6,4.7c-0.1,0.7-0.3,1.5-0.6,2.2c-0.4,1.1,0.3,1.9,0.9,2.7
		c0.3,0.5,0.5,1,0.8,1.4c0.4,0.8,0.8,1.5,1.3,2.3c0.6,0.9,1.3,1.8,1.9,2.8c0.7,1,1.3,1.9,2,2.9c0.2,0.3,0.8,0.5,1.1,0.4
		c0.7-0.3,1.5-0.6,2-1.1c0.9-1,1.9-2.1,2.4-3.3c0.4-1.1,1.2-1.9,1.7-2.8c0.5-0.9,1.1-1.8,1.7-2.6c0.2-0.3,0.6-0.4,0.9-0.6
		c0.7-0.3,0.9-0.7,0.7-1.4c-0.1-0.4-0.1-0.7-0.2-1.1c0-0.4,0-0.8-0.1-1.2c-0.3-1.6-0.5-3.2-1-4.7c-0.4-1.1-0.7-2.1-0.8-3.2
		c-0.1-1.1-0.4-2.1-0.6-3.1c-0.3-1.6-0.6-3.2-1.4-4.6c-0.1-0.2-0.3-0.4-0.2-0.5c0.5-1.4-0.5-2.5-0.7-3.7c-0.2-1.3-0.7-2.6-1-3.9
		c-0.1-0.2-0.2-0.4-0.4-0.6c-0.4-0.5-0.6-0.9,0-1.5c0.2-0.2,0.2-0.7,0.2-1.1c0-0.2-0.1-0.3-0.1-0.5c0-0.6,1.4-2.2,1.9-2.5
		c1-0.6,1.9-1.2,2.8-1.9c0.7-0.5,1.3-1,1.8-1.6c0.4-0.5,0.6-1.2,0.7-1.8c0-0.2-0.6-0.7-0.9-0.7c-0.7,0-1.4,0.2-1.8,0.9
		c-0.2,0.4-0.6,0.6-0.9,0.9C102.8,48.1,102.1,48.7,101.7,49.1z"/>
	<path class="st1" d="M73.4,28.5c0.3-0.9,0.6-1.7,0.9-2.4c0.1-0.2,0.3-0.5,0.5-0.6c0.9-0.6,1.3-1.4,1.2-2.5c1.3-0.6,1.1-1.8,1-2.9
		c0-1.3-0.2-2.6-0.4-3.8c-0.2-1.2-0.5-2.3-0.8-3.5c-0.1-0.6-0.2-1.2-0.3-2c0.9-0.1,1.8-0.2,2.6-0.2c1.4,0,2.9,0,4.3,0
		c0.1,0,0.3,0,0.4-0.1c1.3-0.8,2.8-0.3,4.2-0.3c0.5,0,1,0.2,1.7,0.3c0,1.1,0.1,2.3,0.2,3.5c0.1,1.5,0,3,0.8,4.4
		c0.2,0.3,0.6,0.5,0.9,0.6c0.8,0.1,1.6,0.1,2.4,0.2c0.1,1.2,0.3,2.4,0.4,3.6c0.1,1.3,0.7,1.7,2,1.6c0.7-0.1,1.4-0.1,2.1-0.1
		c0.6,0.1,1-0.1,1.3-0.7c0.1-0.3,0.3-0.6,0.5-0.7c0.4-0.2,0.9-0.5,1.2-0.3c0.9,0.5,1.9,1,2.1,2.3c0.2,1.3-0.3,2.4-1.6,3
		c-0.4,0.1-0.7,0.3-1.1,0.3c-0.6,0.1-1.1,0.3-1.1,1c0,0.7,0.5,0.9,1.1,1c0.1,0,0.1,0,0.2,0.1c0.1,1,0.1,2.1,0.3,3.1
		c0.2,1.6,0.5,3.2,0.7,4.8c0.1,0.5,0.1,1.1,0.1,1.4c-0.8,0.5-1.5,0.9-2.1,1.4C99,40.9,98.9,41,98.8,41c-1.3,0.1-1.9,1-2.5,1.9
		c-0.7,1-2.2,1-3.1,0c-0.4-0.4-0.8-0.7-1.2-1.1c-0.4-0.3-0.9-0.6-1.2-1c-1.1-1.7-2.8-1.6-4.5-1.6c-0.9,0-1.7-0.3-2.6-0.6
		c-0.2-0.1-0.5-0.2-0.7-0.3c-1.1-0.2-2.3-0.3-3.4-0.4c-0.9-0.1-1.1-0.7-1.1-1.3c0-0.3,0.3-0.8,0.6-1.1c1-0.9,2.3-1.7,2.6-3.2
		c0.1-0.3,0.3-0.6,0.4-0.9c0.3-0.7,0-1.3-0.6-1.6c-1.1-0.4-2.1-0.7-3.3-0.1c-0.6,0.3-1.2,0.2-1.5-0.4c-0.6-1.1-1.5-1.3-2.6-1.1
		C73.9,28.5,73.7,28.4,73.4,28.5z"/>
	<path class="st1" d="M106.6,11.4c-1.1,3.5-2.1,6.7-3.2,10c-0.3-0.3-0.5-0.7-0.9-0.9c-0.4-0.3-0.9-0.3-1.4-0.5
		c-1.1-0.5-2-0.2-2.8,0.6c-0.6,0.5-1.1,1-1.6,1.5c-0.4,0.3-0.9,0.2-1-0.3c-0.1-0.7-0.1-1.5-0.4-2.2c-0.3-0.8-0.5-1.8-1.1-2.3
		c-0.6-0.5-1.6-0.4-2.5-0.5c0-0.3,0-0.9-0.1-1.4c-0.2-1.3-0.5-2.7-0.7-4c-0.1-0.6,0-1.2-0.2-1.8c-0.1-0.4-0.4-0.8-0.7-0.9
		c-1.1-0.6-2.4-0.6-3.7-0.7c-1.1-0.1-2.3,0.1-3.5-0.2c-1-0.3-2.2,0.2-3.3,0.3c-0.9,0.1-1.9,0.3-2.8,0.4c-0.5,0.1-1.1,0.1-1.6,0.2
		C75.1,7.9,75,7,74.9,6.1c-0.2-1.3-0.2-1.3,1.2-1.4c1.8-0.2,3.6-0.3,5.2-0.8c1.6-0.5,3.3-0.6,4.9-0.7c0.5,0,0.9-0.3,1.4-0.4
		c1.3-0.1,2.6-0.2,3.9-0.3c0.9-0.1,1.8-0.4,2.7-0.5c0.9-0.1,1.7-0.2,2.6-0.2c0.2,0,0.4,0.4,0.5,0.7c0.1,1.4,0.2,2.9,0.3,4.3
		c0,0,0,0.1,0,0.1c0.5,0.9,0.9,1.8,1.4,2.7c0.1,0.1,0.3,0.2,0.5,0.3c1.2,0.3,2.5,0.7,3.7,0.9c0.5,0.1,1.1,0,1.6,0.1
		C105.4,11,106,11.2,106.6,11.4z"/>
	<path class="st0" d="M96.8,93c-0.4-0.6-0.7-1.1-1.1-1.6c-1.1-1.5-2.2-2.9-3.3-4.4c-0.2-0.2-0.5-0.3-0.8-0.5c-0.9-0.4-1.2-1.1-0.9-2
		c0.2-0.8,0.3-1.7,0.5-2.5c0.2-0.8,0.6-1.5,0.8-2.3c0.3-1.2,0.6-2.5,0.8-3.8c0.1-0.8,0.1-1.7,0.1-2.5c0-0.4,0-0.8,0.2-1.2
		c0.8-2,0.9-4.1,1.2-6.1c0.3-1.4,0.6-2.8,0.9-4.3c0.2-1.1,0.3-2.2,0.5-3.2c0.1-0.6,0.3-1.3,0.6-1.9c0.1-0.2,0.6-0.3,1-0.5
		c0.1,0.8,0,1.5,0.2,2.1c0.2,0.9,0.7,1.7,0.9,2.6c0.3,1.1,0.5,2.2,0.7,3.3c0.1,0.3,0,0.7,0.2,0.9c0.7,0.7,0.6,1.6,0.8,2.4
		c0.3,1.5,0.7,2.9,1.1,4.4c0.2,0.9,0.3,1.8,0.6,2.7c0.4,1,0.4,2,0.5,3c0.3,2,1.1,3.8,1.6,5.8c0.1,0.4-0.4,1.1-0.8,1.6
		c-0.3,0.4-0.8,0.6-1.1,1c-0.7,1-1.3,2-1.9,3c-0.1,0.1-0.1,0.2-0.2,0.3c-1.2,0.7-1.6,1.9-2.3,3C97.4,92.4,97.1,92.7,96.8,93z"/>
	<path class="st1" d="M93.9,179.1c0,2,0,3.7,0,5.5c-0.7,0-1.5-0.2-2,0c-1.1,0.4-2,0.1-3.1,0c-1.9-0.3-3.9-0.3-5.8-0.3
		c-0.8,0-1.5,0.3-2.3,0.4c-1.1,0.1-2.2,0.1-3.5,0.2c0.3-0.3,0.4-0.5,0.5-0.6c1-0.9,2-1.9,3-2.8c0.7-0.6,1.3-1.3,1.9-1.9
		c0.2-0.2,0.3-0.4,0.4-0.6c0.4-0.8,1.1-1.1,2-0.8c0.9,0.3,1.8,0.5,2.8,0.2c0.6-0.1,1.3,0.2,1.9,0.4c0.2,0,0.4,0.1,0.6,0.1
		C91.6,178.9,92.7,179,93.9,179.1z"/>
	<path class="st1" d="M127.1,177.7c0.3,1.4,1.2,2,2.4,2.4c0.1,0,0.2,0,0.2,0.1c0.9,1,1.8,2,2.7,2.9c0.1,0.1,0.1,0.2,0.2,0.4
		c-1,0.2-2,0.4-3,0.5c-0.3,0-0.6,0-0.9-0.1c-0.2,0-0.4-0.1-0.6-0.1c-2.8,0.1-5.7,0.2-8.6,0.2c-0.4-0.9-0.8-1.7-1.2-2.6
		c-0.1-0.1-0.1-0.3-0.1-0.4c0-0.6,0.1-1.3,0.2-1.9C121.2,178.8,124.1,178.3,127.1,177.7z"/>
	<path class="st1" d="M76.5,105.1c0,0.3-0.1,0.5-0.1,0.8c0,0.7,0,1.4,0,2.1c0,0.3,0,0.7,0,1c0,0.5-0.2,1-0.2,1.5c0,0.7,0,1.4,0,2
		c0,0.6,0,1.3-0.1,2c-1.3-0.5-2.2-1.2-2.9-2.2c-0.5-0.8-1.3-1.4-2-2c-0.4-0.4-0.7-0.8-0.8-1.5c-0.1-1-0.3-2-0.5-2.9
		c-0.1-0.6-0.1-1,0.7-0.9c0.2,0,0.5,0,0.7-0.1c0.5-0.4,1-0.2,1.4,0c1.1,0.8,2.2,0.5,3.4,0.2C76.2,105.1,76.3,105.1,76.5,105.1z"/>
	<path class="st1" d="M124.8,88.8c-0.9,0.3-1.6,0.6-2.3,0.9c-0.2,0.1-0.4,0.3-0.6,0.4c-0.4,0.3-0.7,0.6-1.1,0.9
		c-0.7,0.4-1,0.9-0.7,1.5c0.3,0.5,0.9,0.6,1.6,0.1c0.8-0.5,0.8-0.5,1.4-0.1c-0.1,0.1-0.2,0.3-0.3,0.3c-0.7,0-1.3,0.4-1.7,1
		c-0.5,0.6-1.4,0.3-1.8-0.3c-0.5-0.7-1-1.3-1.5-2c-0.7-0.8-1.4-1.7-2.1-2.5c-0.1-0.1-0.2-0.3-0.2-0.5c1.1-0.5,2.1-1,3.1-1.6
		c0.5-0.3,1-0.7,1.5-0.9c1-0.4,2.5,0.4,3,1.3c0.2,0.4,0.6,0.7,0.9,0.9C124.1,88.3,124.4,88.5,124.8,88.8z"/>
	<path class="st0" d="M96,47.3c0.7,0.5,1.4,1,2,1.5c0.1,0.1,0.2,0.1,0.3,0.2c0.4,0.5,0.7,1,1,1.6c0.1,0.2,0.1,0.6,0,0.8
		c-0.3,0.5-0.6,1-0.9,1.4c-0.5,0.7-1.1,0.8-1.9,1c-1.4,0.2-1.9-0.3-2.2-1.5c0-0.2-0.2-0.3-0.3-0.4c-0.6-1-0.5-1.2,0.3-2.1
		c0.6-0.6,1-1.4,1.5-2.2C95.8,47.5,95.9,47.4,96,47.3z"/>
	<path class="st1" d="M78,33.6c0-0.6-0.3-1.4,0-1.6c0.4-0.4,1.2-0.4,1.8-0.6c0,0.1,0.1,0.2,0.1,0.3c-0.5,0.7-1,1.3-1.5,2
		C78.2,33.6,78.1,33.6,78,33.6z"/>
	<path class="st1" d="M10.8,139.3c0.2-1.2,0.4-2.4,0.6-3.6c0.2-1.2,0.6-2.4,0.8-3.6c0.2-1.3,0.6-2.6,0.6-3.9c0-0.8,0-1.5,0.3-2.3
		c0.4-1.4,0.1-2.7-0.7-4c-0.3-0.6-0.7-1.2-0.4-2.1c0.2-0.6-0.2-1.3-0.3-2c-0.1-0.4-0.2-0.8-0.3-1.2c-0.2-1.3-0.5-2.6-0.7-4
		c0-0.3,0-0.6-0.1-0.9c-0.1-0.8,0-1.7-0.3-2.5c-0.4-1-0.7-2-0.3-3.1c0.1-0.2,0-0.4,0-0.7c-0.2-1.6-0.2-3.2-0.6-4.7
		c-0.2-0.9-0.2-1.7-0.2-2.5c0-0.5,0.3-0.6,0.7-0.6c2.4,0,4.9-0.1,7.3-0.6c0.7-0.2,1.6-0.1,2.3-0.3c0.4-0.1,0.7-0.6,0.9-1
		c0.5-0.7,0.8-1.5,1.3-2.2c0.1-0.1,0.4-0.1,0.6-0.1c0.9,0.1,1.9,0.5,2.8,0.3c1.2-0.2,2.4,0.4,3.6-0.2c0.7-0.4,1.8-0.1,2.7-0.2
		c0.9-0.1,1.8-0.2,2.7-0.3c0.3,0,0.5,0,0.7,0c0.2,0.7,0.4,1.2,0.6,1.8c0.1,0.6,0.2,1.1,0.2,1.7c0.1,0.9,0.2,1.7,0.3,2.6
		c0.1,2,0.2,4.1,0.2,6.1c0,2.4,0,4.8,0,7.2c0,1.3-0.2,2.5-0.3,3.8c0,1.7,0,3.4,0,5.2c0,0.9-0.2,1.9-0.2,2.8
		c-0.1,1.7-0.1,3.4-0.1,5.1c0,0.1,0.1,0.2,0,0.3c-0.5,1-0.3,2-0.4,3.1c-0.2,2.4-0.8,4.8-0.6,7.3c0.1,1.2-1.2,2-2.4,1.6
		c-0.4-0.1-0.9-0.3-1.4-0.2c-1.9,0.2-3.5-0.7-5.4-0.7c-1.5,0.1-3.1-0.3-4.6-0.4c-1.3-0.1-2.7-0.1-4-0.1c-0.3,0-0.6,0-0.9-0.1
		C14,139.7,12.4,139.5,10.8,139.3z"/>
	<path class="st0" d="M16,70.8c0-1-0.3-1.8,0.4-2.7c0.5-0.7,0.5-1.8,0.6-2.7c0.3-2.5,0.5-4.9,0.6-7.4c0-1.2-0.5-2.3-0.8-3.5
		c-0.1-0.2-0.6-0.5-0.8-0.4c-0.2,0-0.5,0.5-0.5,0.7c-0.1,1.7-0.1,3.5-0.3,5.2c-0.2,1.4-0.5,2.8-0.8,4.2c-0.3,1.4-0.5,2.9-0.8,4.3
		c-0.1,0.7-0.5,1.3-0.7,2c-0.4,1-0.7,2.1-1.1,3.1c-0.2,0.6-0.2,1.1,0.3,1.4c0.4,0.2,1.1,0.3,1.4,0.1c1.8-1.1,3.7-2,5.6-2.8
		c0.2-0.1,0.3-0.2,0.5-0.3c1-0.7,1.3-0.5,1.7,0.7c0.5,1.2,0.5,2.7,2,3.4c0.1,0.1,0.2,0.3,0.2,0.4c0,0.1-0.2,0.3-0.3,0.3
		c-1.6-0.1-2.5,1.3-3.7,1.9c-0.9,0.5-1.8,1.1-2.7,1.7c-0.6,0.4-1.2,0.8-1.8,1.2c-1,0.6-1.9,1.3-3,1.9c-1.6,0.9-3.2,1.7-4.9,2.5
		c0,0-0.1,0-0.2,0.1c-0.7,0.9-1.8,0.7-2.7,1c-1,0.3-2-0.5-2-1.6c0-1.3,0.1-2.6,0.1-3.9c0-0.3,0-0.6,0.2-0.9c1-1.7,1-3.6,1.4-5.4
		c0.1-0.3,0-0.7,0.1-1.1c0.1-0.4,0.1-0.8,0.2-1.2c0-0.1,0.1-0.1,0.1-0.2C4.6,71,5.8,69.6,6,68c0.1-0.9,0.1-1.8,0.3-2.7
		c0-0.3,0.2-0.5,0.3-0.7c0.5-0.6,0.6-1.2,0.5-1.9c-0.1-0.4,0.1-0.9,0.3-1.3c0.1-0.4,0.4-0.8,0.4-1.2c0.1-0.9,0.2-1.7,0.8-2.5
		c0.5-0.8,0.8-1.8,1.1-2.7c0.4-1.4,0.9-2.8,1.8-4.1c0.3-0.4,0.5-0.9,0.7-1.3c0.1-0.2,0.2-0.4,0.3-0.5c1.2-1.1,2.4-2.2,3.6-3.3
		c0.3,0.9,0.6,1.9,1.1,2.9c0.5,1,1.1,2,1.6,3c0.1,0.3,0.3,0.6,0.4,0.9c0.2,1.2,0.8,2.2,1.5,3.3c0.5,0.7,1.2,1.3,1.2,2.3
		c0,0.4,0.4,0.9,0.7,1.3c0.3,0.5,0.5,1.1,0.8,1.6c0.4,0.6,0.8,1.2,1.2,1.8c0.1,0.2,0.3,0.3,0.4,0.5c0.6,1.2,0.5,1.1-0.4,2.2
		c-0.7,0.8-1.2,1.7-1.6,2.6c-0.2,0.5-0.4,0.6-0.9,0.4c-0.3-0.1-0.7-0.2-0.9-0.1c-1.5,0.6-3,1.3-4.4,1.9C16.4,70.7,16.2,70.7,16,70.8
		z"/>
	<path class="st1" d="M25,48.9c-1.4-0.1-2.5-0.3-3.7-0.4c-0.2,0-0.4,0-0.6,0c-1.2,0.2-1.5-0.1-1.9-1.2c-0.2-0.6-0.5-1.2-0.7-1.8
		c-0.1-0.2,0-0.5,0.1-0.6c0.6-0.5,1.3-0.9,1.8-1.4c0.8-0.8,1.5-1.6,1.2-2.9c-0.4-1.7-0.6-3.5-1.1-5.2c-0.4-1.3-1-2.6-1.8-3.8
		c-0.6-1.1-1.3-2.4-0.7-3.9c0.3-0.7,0.3-1.6,0.6-2.3c0.3-0.9,0.6-1.9,1-2.7c0.3-0.6,0.9-0.9,1.3-1.5c0.9-1.5,2.4-2.4,3.7-3.5
		c0.7-0.6,1.6-0.5,2.2-0.3c1.6,0.4,3.2,0.8,4.6,1.8c0.2,0.1,0.4,0.1,0.6,0.2c0.5,0.3,0.9,0.6,1.3,0.9c0.2,0.2,0.4,0.3,0.6,0.5
		c0.6,0.4,1.2,0.9,1.7,1.3c0.4,0.3,0.7,0.7,1,1.1c0,0,0.1,0.1,0.1,0.1c1,1.7,2.7,2.9,3.5,4.8c0.5,1,0.3,1.8,0.2,2.8
		c-0.1,1.1-0.8,1.7-1.4,2.5c-1.1,1.4-2.7,1.8-4.1,2.5c-0.3,0.1-0.6,0.2-0.9,0.1c-0.6-0.1-1.2-0.1-1.6,0.5c-0.1,0.1-0.3,0.2-0.5,0.2
		c-0.8,0-1.7,0-2.5,0c-1.3-0.1-1.8,0.3-1.9,1.5c0,1.1,0.1,2.2,0.1,3.3c0,1.4,0.2,2.7,1.2,3.7c0.1,0.1,0.1,0.4,0.1,0.6
		c-0.1,0.7-0.1,1.3,0.5,1.8c0.4,0.4,0,0.6-0.4,0.7C27.3,48.6,26.1,48.7,25,48.9z"/>
	<path class="st0" d="M41.7,32.1c0.1-0.7,0.2-1.3,0.3-2c0.1-0.8,0.1-1.5,0.2-2.3c0-0.2-0.1-0.5-0.2-0.7c-1.4-1.9-2.8-3.8-4.2-5.7
		c-0.3-0.4-0.7-0.6-1.1-0.9c-0.6-0.5-1.2-1-1.7-1.4c0,0-0.1-0.1-0.1-0.1c-1-0.6-1.9-1.1-2.9-1.6c-0.4-0.2-0.8-0.4-1.2-0.5
		c-0.8-0.3-1.6-0.5-2.4-0.7c-0.8-0.2-1.6-0.3-2.4-0.4c-1-0.2-1.8,0.2-2.7,0.6c-2,0.8-3.1,2.6-4.7,3.9c-0.3,0.2-0.4,0.7-0.6,1.1
		c-0.1,0.2-0.1,0.5-0.3,0.6c-1.4,1.2-1.6,3-2.4,4.5c0,0,0,0.1,0,0.1c0,2-0.3,4,0.9,5.8c0.4,0.5,0.6,1.1,1,1.8
		c-2.1-0.2-4,0.2-5.9-0.8c-0.9-0.5-2-0.6-3.1-0.9c-0.1,0-0.2,0-0.3-0.1c-1-0.7-2-1.3-2.8-2.1c-0.4-0.4-0.4-1.3-0.6-2
		c-0.1-0.2,0.1-0.5,0-0.7c-0.6-1.2,0.1-2.3,0.5-3.4c0.3-0.9,0.6-1.8,0.9-2.7c0.1-0.3,0.3-0.6,0.5-0.8c0.4-0.7,0.9-1.3,1.4-1.9
		c0.4-0.4,0.9-0.8,1.3-1.2c0.2-0.2,0.5-0.2,0.7-0.4c1.2-1.5,3-2.2,4.5-3.3c1.3-1,2.9-1.4,4.4-1.8c0.9-0.2,1.9,0.1,2.8-0.1
		c1.9-0.5,3.8,0,5.6,0.2c1.3,0.1,2.6,0.2,3.8,0.6c1.3,0.4,2.4,1.2,3.7,1.7c0.4,0.2,0.9,0.3,1.4,0.5c0.4,0.2,0.8,0.4,1.2,0.6
		c0.2,0.1,0.3,0.4,0.5,0.4c1.5,0.2,2.2,1.7,3.5,2.2c0.5,0.2,0.8,0.9,1.1,1.4c0.7,1.2,1.3,2.4,2,3.6c0.2,0.3,0.3,0.7,0.4,1.1
		c0,0.1,0,0.3,0,0.4c0.6,1.9-0.4,3.4-1.2,5c-0.2,0.3-0.3,0.7-0.5,1C43,31.5,42.5,32,41.7,32.1z"/>
	<path class="st1" d="M48.4,67.6c0.2,0.4,0.4,0.8,0.6,1.2c0.2,0.5,0.3,1,0.7,1.4c0.8,1.1,1,2.5,2.2,3.3c0.1,0.1,0.1,0.3,0.2,0.5
		c0.2,0.4,0.3,0.8,0.6,1.2c0.5,0.9,1.1,1.7,1.6,2.6c0.1,0.1,0.1,0.4,0.1,0.5c-0.5,0.6-1,1.1-1.5,1.6c-0.1,0.1-0.3,0-0.4,0
		c-0.3-0.1-0.5-0.3-0.8-0.5c-1.3-1.1-2.8-1.5-4.4-1.5c-0.7,0-1.8,1.2-2,2c-0.4,1.4-0.8,2.8-0.7,4.3c0,0.1-0.1,0.3-0.2,0.3
		c-0.6,0.5-1.1,0.9-1.7,1.4c-0.2,0.2-0.5,0.3-0.7,0.4c-0.7,0.3-1.4,0.5-2,0.8c-0.6,0.3-1.1,0.6-1.7,0.9c-0.5,0.2-0.7,0-0.8-0.6
		c-0.1-0.5-0.3-1-0.6-1.5c-0.8-1.2-1.6-2.5-2.6-3.5c-0.8-0.8-1-2.2-2.3-2.5c-0.1,0-0.2-0.2-0.3-0.3c-0.3-0.5-0.5-1.1-0.8-1.7
		c0.2-0.1,0.5-0.2,0.8-0.3c0.5-0.2,0.9-0.5,1.3-0.8c0.6-0.4,1.1-1,1.7-1.4c0.1-0.1,0.3-0.2,0.4-0.2c1.2,0,1.9-0.9,2.9-1.3
		c0.2-0.1,0.3-0.1,0.4-0.3c0.4-0.6,1.1-0.7,1.7-1c1.7-1,3.4-2.2,5-3.3c0.3-0.2,0.7-0.3,1-0.5C46.7,68.6,47.5,68.1,48.4,67.6z"/>
	<path class="st1" d="M34.7,180c-2-0.5-3.8-0.8-5.3-1.6c0.2-1.6,0.5-3.1,0.6-4.5c0-1-0.3-2-0.5-3c-0.2-1.2-0.4-2.3-0.7-3.5
		c0-0.2-0.2-0.4-0.3-0.7c-0.1-0.5-0.2-1-0.2-1.6c0-0.2,0-0.4,0-0.7c-0.5-2.6-1-5.2-1.4-7.8c-0.1-0.7-0.1-1.5-0.2-2.2
		c-0.1-0.6-0.3-1.1-0.5-1.7c0-0.1-0.1-0.3-0.1-0.4c0.2-1.8-0.1-3.6-0.5-5.4c-0.1-0.2-0.1-0.5-0.1-0.7c-0.1-1-0.3-2-0.6-2.9
		c0,0,0.1-0.1,0.1-0.1c1.5,0.4,3,0,4.5,0.3c0.8,0.2,1.7-0.1,2.5,0c0.5,0,1,0.2,1.4,0.4c0.1,0-0.1,0.6-0.1,0.9
		c0.1,1.2-0.9,2.3-0.2,3.5c0,0.1,0,0.2,0,0.2c-0.6,2.6-0.4,5.2-0.5,7.8c0,1.1-0.2,2.2-0.3,3.3c0,0.4,0.1,0.8,0.1,1.2
		c0,0.6-0.1,1.2-0.2,1.8c-0.1,0.5-0.3,1-0.3,1.5c0.1,1.8-1,3.6-0.5,5.4c0.1,0.2,0,0.6-0.1,0.8c-0.5,1.7-0.4,3.4,0.2,5.1
		c0.1,0.4,0.4,0.8,0.7,1.1C33.5,177.3,34.1,178.5,34.7,180z"/>
	<path class="st1" d="M21.9,91.4c0.2-1.7,0.5-3.3,0.6-4.9c0.1-1.1,0.1-2.3,0.2-3.4c0.2-1.5,0.3-3.1,0.9-4.5c0.2-0.4,0.4-0.9,1-0.7
		c0.6,0.2,1.1,0.1,1.4-0.4c0.3-0.5,0.2-1-0.1-1.5c-0.1-0.1-0.1-0.2-0.2-0.4c1.2-0.2,2.4-0.4,3.5-0.5c0.2,0,0.3,0,0.5-0.1
		c0.6-0.4,1.1-1,1.7-1.4c1-0.7,0.8-1.8,1-2.7c0-0.2,0.1-0.4,0.1-0.6c0.8-0.2,1.2,0,1.3,0.9c0.1,0.9,0.4,1.8,0.7,3
		c-0.7,0.3-1.5,0.7-2.3,1.1c-1,0.6-2.1,1.1-2.9,1.8c-0.8,0.7-0.2,2.7,0.8,3.4c0.3,0.2,0.5,0.6,0.7,0.9c0.2,0.2,0.2,0.6,0.4,0.8
		c1.3,1.1,1.9,2.6,2.8,3.9c0.6,0.9,0.9,2.1,2.2,2.5c0.1,0,0.1,0.5,0.1,0.7c0,0.1-0.3,0.2-0.4,0.3c-0.8,1.7-2.4,0.9-3.7,1.2
		c-0.3,0.1-0.6,0-0.9,0.1c-1.2,0.4-2.3,0.5-3.5,0.2c-0.1,0-0.2-0.1-0.3,0c-1.3,0.4-2.7,0.1-4,0.1C22.9,91,22.5,91.2,21.9,91.4z"/>
	<path class="st1" d="M15.9,177.9c-1.4,0-2.7-0.4-3.7-1.4c-0.3-0.2-0.7-0.3-1-0.5c-0.2-0.1-0.5-0.1-0.8-0.1c0.6-1.5,1-2.9,0.8-4.4
		c0-0.1,0-0.3,0-0.4c0.7-1.1,0.5-2.2,0.2-3.3c0-0.1,0-0.2,0-0.2c0.1-0.7,0.1-1.4,0.4-2.1c0.6-1.9,0.1-3.9,0.3-5.8
		c0.2-1.6-0.2-3.3-0.2-5c0-1,0.3-2,0.3-3c0-2.1,0-4.3,0-6.4c0-1,0.1-2,0.2-3c0-0.1,0.3-0.3,0.5-0.3c0.8,0,1.6,0.1,2.4,0.2
		c0.5,0.1,1,0.2,1.5,0.3c0.2,0,0.3,0.1,0.5,0.1c0.5,0.1,1.3-0.5,1.4,0.5c0.1,0.5-0.1,1.1-0.1,1.7c-0.1,0.8-0.2,1.7-0.3,2.5
		c-0.1,0.6-0.1,1.1-0.2,1.7c0,0.2-0.1,0.3-0.1,0.5c0,2.7-1.1,5.1-1.4,7.7c-0.1,1.2-0.7,2.3-0.9,3.4c-0.1,1.1-0.6,2-1,3
		c0,0.1-0.1,0.2-0.1,0.2c0.1,2-1.1,3.7-1.5,5.6c-0.2,0.9-0.3,1.9-0.4,2.8c0,0.1,0,0.2,0,0.2c0.7,1.3,1.4,2.5,2.1,3.8
		c0.3,0.6,0.8,1,1.3,1.5C16.1,177.8,16,177.8,15.9,177.9z"/>
	<path class="st0" d="M5.3,95.1c0-1.3-0.2-2.6,0.4-3.7c0.1-0.2,0.2-0.5,0.2-0.7c-0.1-1.2,0.4-1.8,1.6-2.2c1.5-0.5,2.8-1.3,4.2-2.1
		c1.1-0.6,2.1-1.4,3.2-2.1c0.9-0.6,1.9-1.1,2.8-1.6c1-0.6,1.9-1.1,2.9-1.7c0.1-0.1,0.3-0.1,0.7-0.3c-0.2,1-0.4,1.8-0.6,2.6
		c-0.4,1.6-0.7,3.2-1.1,4.9c-0.1,0.4-0.2,0.8-0.3,1.3c-0.2,1.4-0.4,2.8-0.6,4.2c0,0.3,0,0.6,0,1.1C14.2,94.6,9.8,95.5,5.3,95.1z"/>
	<path class="st1" d="M20.3,51.2c1.2,0,2.3,0,3.4,0c1.8-0.1,3.5-0.2,5.3-0.4c0.6-0.1,0.9,0,1,0.7c0.3,1.6,0.8,3.1,1.2,4.7
		c0.3,1.2,0.5,2.4,0.7,3.6c0.1,0.4,0,0.8,0.2,1c0.9,1.1,0.4,2.5,0.8,3.7c0,0.1,0,0.2-0.1,0.3c-1.3,0.3-2.5-0.1-3.6-0.6
		c-0.8-0.3-1.5-0.9-2.2-1.4c0,0-0.1-0.1-0.1-0.1c-0.8-1.3-1.5-2.7-2.3-4c-0.4-0.6-0.8-1.2-1.2-1.8c-0.3-0.6-0.7-1.2-0.8-1.9
		c-0.3-1.2-0.8-2.2-1.6-3.1C20.6,51.7,20.5,51.4,20.3,51.2z"/>
	<path class="st1" d="M24.5,73.4c-0.3-0.6-0.8-1.3-0.9-2c-0.1-0.6,0.2-1.4,0.6-1.9c0.8-1.1,1.8-2,2.3-3.3c0.1-0.4,0.5-0.6,1-0.4
		c0.9,0.3,2,0.4,3,0.5c0.3,0.1,0.6,0.1,0.9,0.2c0.6,0.2,1.1,0.4,1.7,0.5c1.2,0.2,2.3,0.3,3.5,0.5c0.2,0,0.4,0.3,0.6,0.5
		c-0.2,0.2-0.5,0.5-0.7,0.5c-1.1,0-2.1-0.1-3.2-0.2c-0.6,0-1.2,0.3-1.8-0.1c-0.1-0.1-0.6,0.2-0.6,0.4c-0.2,0.6-0.3,1.2-0.4,1.8
		c-0.1,0.4-0.2,0.9-0.3,1.3c-0.1,0.6-0.5,0.8-1.1,0.7c-0.2,0-0.5,0.1-0.8,0.2c-0.5,0.2-1.1,0.4-1.6,0.5
		C26.1,73.3,25.4,73.3,24.5,73.4z"/>
	<path class="st1" d="M47.5,86.4c-1.1,0-1.3-0.4-1.2-1.3c0.1-0.8,0.1-1.8,0-2.6c-0.2-1.7,0.2-2.1,1.7-2.4c0.6-0.1,1.3,0.4,1.8,0.7
		c0.9,0.6,1.8,1.4,2.6,2.1c0.4,0.3,0.3,0.6-0.1,0.9c-0.9,0.6-1.9,1.1-2.8,1.7c-0.4,0.3-0.9,0.5-1.4,0.7
		C47.9,86.2,47.7,86.3,47.5,86.4z"/>
	<path class="st0" d="M28.8,180.5c2.4,2.1,4.9,2,7.4,1.1c1,0.9,2,1.7,2.9,2.5c-1.8,0-3.6,0-5.4,0c-0.2,0-0.4,0-0.5-0.1
		c-1.1-0.8-2.4-0.8-3.6-1c-1.1-0.2-1.2-0.4-1-1.5C28.7,181.3,28.7,181,28.8,180.5z"/>
	<path class="st0" d="M19.6,182.6c-0.9-0.1-1.7-0.2-2.4-0.3c-0.8-0.1-1.6-0.2-2.4-0.4c-0.2,0-0.4-0.2-0.7-0.3
		c-0.2-0.1-0.4-0.2-0.5-0.2c-1.2,0.2-2.1-0.6-3.2-0.7c-1-0.1-1.2-0.5-0.9-1.4c0.2-0.5,0.4-1.1,0.6-1.7c2.2,1.8,4.6,3.2,7.5,2.5
		C18.1,181,18.8,181.7,19.6,182.6z"/>
	<path class="st1" d="M55.2,74.6c-0.2-0.5-0.4-1-0.7-1.3c-1.3-1.4-2-3.1-3.3-4.5c-0.1-0.1,0-0.6,0.2-0.7c1-0.3,2-0.6,3.2-0.9
		c0.3,2.6,0.5,5,0.8,7.4C55.3,74.6,55.3,74.6,55.2,74.6z"/>
	<path d="M79.3,21.9c-0.7,0-1-0.5-1-1.6c0-0.6,0.6-1.2,1.2-1.2c0.6,0,1.4,0.8,1.4,1.3C80.8,21.3,80.1,21.9,79.3,21.9z"/>
	<path d="M30.4,30.6c0.6,0.1,1.2,0.2,1.7,0.5c0.4,0.3,0.7,0.9,0.8,1.4c0.1,1.1-1.3,2.5-2.3,2.5c-1.4,0-2-0.7-2-2.3
		C28.6,31.6,29.5,30.7,30.4,30.6z"/>
	<path d="M32.4,28c-0.3-0.2-0.7-0.4-0.8-0.6c-0.1-0.3-0.1-0.7-0.1-1c0.4,0,0.9-0.2,1.1,0c0.5,0.4,1,1,1.4,1.6
		c0.1,0.2,0.2,0.5,0.1,0.7c-0.2,0.4-0.5,0.8-0.8,1.1c-0.6,0.5-1.2,0.5-1.6,0c-0.4-0.5-0.2-1,0.5-1.5C32.2,28.3,32.3,28.2,32.4,28z"
		/>
	<path d="M24.9,27.5c-0.9,0-1.4-0.2-1.4-0.9c0-0.6,0.6-1.4,1.2-1.4c0.6,0,1.1,0.5,1.2,1.2C25.8,27.1,25.3,27.5,24.9,27.5z"/>
	<path d="M34.8,26.6c0.1-0.9,0.6-1.4,1.1-1.4c0.6,0,1.1,0.6,1.1,1.1c0,0.5-0.9,1.2-1.3,1C35.4,27.2,35.1,26.8,34.8,26.6z"/>
	<path class="st1" d="M31.3,33.4c0,0-0.3,0.4-0.4,0.4c-0.5-0.1-0.9-0.5-0.8-1.1c0.1-0.3,0.4-0.8,0.5-0.8
		C31.1,32.1,31.5,32.5,31.3,33.4z"/>
</g>
<path class="st0" d="M26.1,29.3c0,0.7-0.9,1.2-2,1.2c-1.1,0-2-0.5-2-1.1c0-0.7,0.9-1.2,2-1.2C25.2,28.1,26.1,28.6,26.1,29.3z"/>
<path class="st0" d="M38.4,29c0,0.7-0.9,1.2-2,1.2c-1.1,0-2-0.5-2-1.1c0-0.7,0.9-1.2,2-1.2C37.5,27.9,38.4,28.4,38.4,29z"/>
<path class="st0" d="M83.7,23.2c0,0.7-0.9,1.2-2,1.2c-1.1,0-2-0.5-2-1.1c0-0.7,0.9-1.2,2-1.2C82.8,22,83.7,22.5,83.7,23.2z"/>
</svg>
