<?xml version="1.0" encoding="utf-8"?>
<!-- Generator: Adobe Illustrator 25.0.0, SVG Export Plug-In . SVG Version: 6.00 Build 0)  -->
<svg version="1.1" id="_xEFF5__xEED3__x5F_5" xmlns="http://www.w3.org/2000/svg" xmlns:xlink="http://www.w3.org/1999/xlink"
	 x="0px" y="0px" viewBox="0 0 199.3 245.5" style="enable-background:new 0 0 199.3 245.5;" xml:space="preserve">
<style type="text/css">
	.st0{fill:#FDD23E;}
	.st1{fill:#FFFFFF;}
</style>
<g>
	<g>
		<path class="st0" d="M140.7,239.4l-12.2,1.5l-5.4-7.2l-4.8,6.5c0,0-11.8-0.3-21.3-1c-6.2-0.5-10-0.9-11.1-2.3
			c-1.2-1.5-0.8-5.5-0.6-12.5c0.7-16.6,2.2-44,1.6-49.2c0,0-17.2,21.6-21.3,21.4c-7.9-0.5-28.5-51-28.5-51l13.1-8.3l15.4,23.5
			c0,0,13.9-42,17.4-43.5s23.6-6.4,23.6-6.4l40.6,67.1L140.7,239.4z"/>
		<g>
			<path d="M185.5,144c0.6,1.3,1.1,2.4,1.6,3.6c0.3,0.6,0.5,1.2,0.9,1.8c0.8,1.3,1.4,2.6,1.8,4c0.5,1.6,1.1,3.2,1.8,4.8
				c0.6,1.3,1.1,2.7,1.6,4.1c0.1,0.4,0.3,0.7,0.5,1.1c0.2,0.4,0.5,0.9,0.4,1.3c-0.1,0.9,0.3,1.5,0.7,2.1c0.6,0.7,0.9,1.5,0.7,2.4
				c-0.1,0.9,0.5,1.5,0.9,2c1,1.2,1.5,2.4,1.6,3.9c0,0.3,0,0.6,0.2,0.8c1.1,1.2,0.8,2.7,1,4.1c0.3,1.4-0.3,2.8-0.8,4.2
				c-0.1,0.2-0.2,0.5-0.2,0.7c0.2,0.8,0,1.5-0.1,2.2c-0.1,1-0.3,1.9-0.8,2.7c-0.2,0.2-0.2,0.6-0.2,0.9c0,0.8-0.3,1.5-0.9,2
				c-0.3,0.3-0.6,0.6-0.7,1c-0.4,1.5-0.9,2.9-1,4.5c-0.1,1.1-0.7,2-1.2,2.8c-0.5,0.9-0.9,1.9-1.1,3c-0.2,1-0.7,1.9-1,2.9
				c-0.2,0.4-0.4,0.9-0.5,1.3c-0.3,1.3-0.6,2.7-2,3.3c-0.5,0.2-0.7,0.7-0.6,1.2c0.1,0.9-0.3,1.6-0.9,2.2c-0.5,0.5-0.8,1.1-0.8,1.8
				c0,0.5-0.4,1-0.7,1.3c-1.4,1.7-1.5,3.5-0.7,5.3c0.3,0.6,0.3,1.2,0.2,2s0.1,1.7,0.1,2.6c0,0.5,0,0.9,0,1.4c0,0.2-0.1,0.5,0,0.7
				c0.4,0.8,0.3,1.7,0.2,2.6c-0.1,0.3,0.1,0.7,0.2,1c0.4,1.4,0.3,2.7-0.7,3.8c-0.3,0.3-0.6,0.8-0.8,1.2c-0.7,1.6-1.8,2.6-3.6,2.7
				c-0.3,0-0.7,0.3-1,0.6c-0.7,0.7-1.3,1.5-2.3,1.9c-0.6,0.2-1.1,0.2-1.6,0c-0.7-0.3-1.4-0.6-2.4-1.1c-0.2,0.3-0.5,0.6-0.6,0.9
				c-0.4,0.9-1.2,1.2-2,1.6c-0.9,0.4-1.7,0.4-2.5-0.2c-0.7-0.5-1.5-0.9-2.2-1.4c-0.7,0.2-1.4,0.5-2.1,0.7c-0.6,0.2-1.2,0.1-1.7-0.2
				c-0.5-0.4-1.1-0.7-1.5-1.2c-0.6-0.6-1-1.3-1.7-2c-0.9,0.5-2.2,0.1-3.1,1c0,0-0.1,0-0.1,0.1c-1.2,0.3-2.4,0.7-3.6,1
				c-0.7,0.2-1.2,0.4-1.6,1c-1,1.4-1.8,1.5-3.2,0.6c-0.2-0.1-0.4-0.3-0.6-0.3c-1.5-0.3-3-0.8-4.2-1.9c-0.1-0.1-0.3-0.1-0.4-0.2
				c-0.7-0.3-1.5-0.5-2.4-0.9c-1.9,0.7-3.3-0.1-4.1-2.6c-0.3-1.1-0.5-2.2,0.2-3.2c-0.3-0.5-0.6-0.8-0.8-1.3s-0.4-1-0.4-1.5
				c-0.1-0.7,0-1.5-0.2-2.3c-0.1-0.4-0.3-0.8-0.6-1.1c-0.6-0.7-1-1.5-0.9-2.5s-0.2-1.9-0.7-2.8c-0.5-0.9-0.7-1.9-1-2.9
				c0-0.1,0-0.3-0.1-0.5c-0.9-1.6-0.9-3.3-1.2-5.1c-0.1-0.8-0.6-1.5-0.9-2.2c-0.2-0.5-0.2-1.1-0.3-1.6c0-0.2,0-0.3,0-0.5
				c-0.4-1.4-0.9-2.8-1.3-4.2c-0.4-1.2-0.6-2.4-0.9-3.7c-0.2-0.8-0.4-1.5-0.6-2.3c-0.4-1.5-0.8-3.1-1.2-4.6c0-0.2-0.1-0.3,0-0.5
				c0.1-0.9-0.2-1.7-0.5-2.6c-0.4-1.2-0.5-2.4-1.2-3.5c-0.2-0.2-0.1-0.6-0.2-1c-0.9-0.1-1.5-0.7-1.8-1.6c-0.1-0.2-0.3-0.4-0.5-0.5
				c-0.2-0.2-0.5-0.5-0.6-0.7c-0.5-1.2-1.1-2.5-1.6-3.7c-0.1-0.2-0.2-0.4-0.3-0.6c-1-2.1-1.9-4.2-2.9-6.3c-0.2-0.4-0.4-0.7-0.5-1.1
				c-0.5-1-0.9-2-0.7-3.2c0.1-0.6,0-1.1-0.5-1.5c-0.6-0.5-0.8-1.1-0.9-1.9c0-0.5-0.2-0.9-0.4-1.4c-0.4-0.8-0.9-1.6-0.7-2.6
				c0-0.1-0.1-0.3-0.1-0.3c-0.8-0.6-1-1.5-1-2.5c0-0.3-0.2-0.6-0.3-0.9c-0.1-0.3-0.4-0.7-0.3-1c0.1-1.1-0.3-2-0.7-2.9
				c-0.4-0.8-0.4-1.6-0.4-2.4c0-0.8-0.3-1.6-0.7-2.4c-0.5-0.9-0.9-1.8-1-2.9c-0.1-1.1-0.5-2.2-0.8-3.2c-0.1-0.3-0.2-0.7-0.2-1.1
				c0-1.2,0.1-2.3-0.7-3.3c-0.2-0.2-0.1-0.7,0-1c0.2-0.9,0-1.8-0.5-2.6c-0.2-0.2-0.2-0.5-0.4-0.8c-0.5-1.2-0.4-2.7-1.1-3.9
				c-0.1-0.1-0.1-0.4,0-0.6c0.4-1.1-0.1-2-0.3-3c-0.2-1.1-0.4-2.2-0.7-3.2c-0.2-0.5-0.1-1.1-0.1-1.7c0-0.3,0-0.6-0.1-0.9
				c-0.5-1.3-0.8-2.5-0.6-3.9c0.1-0.7,0.1-1.4-0.2-2.1c-0.3-0.7-0.2-1.5-0.3-2.3c0-0.4,0-0.7,0.1-1.3c-0.9,0.4-1.6,0.8-2.4,1
				c-0.6,0.2-1.2,0.2-1.7,0.2s-1,0-1.4,0.4c-0.8,0.6-1.7,0.9-2.7,1c-0.8,0-1.6,0.2-2.2,0.8c-0.2,0.2-0.6,0.4-0.9,0.4
				c-0.9,0-1.6,0.5-2.4,0.9c-0.6,0.3-1.2,0.3-1.8,0.5c-1,0.3-2,0.6-2.9,0.8c-0.4,0.7-0.8,1.3-1.2,1.9c-0.1,0.2-0.2,0.4-0.2,0.5
				c-0.4,1.2-0.8,2.5-1.3,3.7c-0.2,0.5-0.3,0.9-0.4,1.4c-0.4,1.5-1.2,2.9-2,4.3c-0.2,0.3-0.3,0.6-0.3,0.9c0,1.1-0.3,2-1.1,2.8
				c-0.7,0.7-0.7,1.7-0.8,2.6c-0.1,1.6-0.9,2.9-1.4,4.3c-0.1,0.3-0.3,0.6-0.3,0.9c0,0.8-0.3,1.5-0.8,2.2c-0.4,0.5-0.6,1.2-0.7,1.9
				c-0.2,0.8-0.3,1.6-0.5,2.3c-0.2,0.6-0.5,1.2-0.9,1.7c-0.3,0.4-0.5,0.8-0.5,1.3c-0.1,0.7-0.3,1.3-0.4,2c-0.1,0.4-0.2,0.8-0.2,1.2
				c-0.1,0.8-0.3,1.6-1,2.1c-0.4,0.3-0.5,0.7-0.6,1.1c-0.2,0.7-0.5,1.4-0.8,2.1c-0.3,0.6-0.4,1.1-0.1,1.7c0.2,0.3,0.4,0.8,0.3,1.1
				c-0.3,1.7,0.7,3.3,0.4,5c0.8,1.5-0.1,3-0.3,4.4c-0.1,0.8-0.9,1.4-1.6,1.4c-0.6,0-1.3-0.6-1.5-1.3c-0.2-0.6-0.4-1.3-0.6-1.9
				c0-0.1-0.1-0.2-0.1-0.3c0-1.5-0.1-2.9-0.1-4.4c0-0.5,0-0.9-0.1-1.4c-0.2-0.6-0.3-1.4-0.1-2c0.3-1-0.2-1.6-0.8-2.2
				c-1.1-1.2-2.2-2.5-2.2-4.3c0-0.3-0.4-0.7-0.7-1c-0.3-0.4-0.7-0.7-1-1.1c-0.2-0.3-0.4-0.5-0.7-0.8c-0.2-0.3-0.5-0.6-0.7-1
				c-0.5-1-0.9-1.9-1.3-2.9c0-0.1-0.1-0.2-0.1-0.3c-0.9-1-1.5-2.1-1.7-3.5c-0.8-0.7-0.9-1.9-1.8-2.6c-0.5-0.4-0.7-1.2-1-1.9
				c-0.5-1-0.9-2-1.4-3c-1.4,1-2.6,1.9-3.9,2.7c-0.7,0.5-1.5,0.8-2.2,1.4c-0.8,0.7-1.8,1.2-2.7,1.8c-0.2,0.1-0.5,0.4-0.7,0.4
				c-0.9,0.1-1.3,0.6-1.5,1.3c0.4,1,0.7,2,1.1,3c0.1,0.3,0.3,0.6,0.5,1c0.2,0.5,0.4,0.9,0.6,1.4c0.1,0.3,0.1,0.6,0.3,0.8
				c0.7,0.7,0.9,1.6,0.6,2.5c1.1,0.7,1.6,1.8,2,2.9c0.3,0.9,0.7,1.8,1,2.8c0.1,0.3,0.2,0.6,0.3,0.9c0,0.1,0,0.2,0,0.2
				c0.6,1.1,1.1,2.2,1.8,3.1c0.4,0.6,0.7,1.1,0.9,1.8s0.6,1.3,0.9,2c0.6,1.3,1.5,2.6,1.5,4.1c0,0.5,0.2,0.8,0.6,1.1
				c0.8,0.5,1.4,1.1,1.5,2.2c0,0.2,0.2,0.5,0.3,0.6c0.6,0.7,0.9,1.4,1,2.3c0,0.2,0.1,0.3,0.2,0.4c0.6,0.8,1.2,1.6,1.7,2.5
				c0.4,0.8,0.6,1.7,1,2.8c0.5,0.4,1.2,0.9,1.8,1.5c0.3,0.3,0.6,0.7,0.6,1.1c0,0.7,0.4,1.1,0.9,1.5c0.6,0.6,1.2,1.3,1.4,2
				c0.3,1,1.1,1.6,1.7,2.4c0.7,0.8,1.8,0.6,2.8,0.6c1.5,0,2.7-0.8,3.7-1.9c0.6-0.6,1.3-1.1,1.8-1.7c1-1,1.9-2.2,2.9-3.2
				c0.9-1,1.9-1.9,2.9-2.8c0.2-0.2,0.5-0.4,0.8-0.5c0.8-0.2,1.2-0.8,1.4-1.5c0-0.1,0.1-0.2,0.1-0.2c0.3-1.2,0.9-2.1,2.2-2.3
				c0-1.6,0.6-2.8,2-3.5c0.9-0.4,1.4-1,1.2-2.2c-0.2-1-0.1-2.1-0.1-3.1c0-0.8,0.3-1.2,0.9-1.3s1.1,0.2,1.2,1
				c0.2,1.3,0.4,2.6,0.6,3.9c0.2,1,0.5,2.1,0.5,3.1c0.1,1.7,0.3,3.3,0.4,4.9c0,0.2-0.1,0.5-0.2,0.7c-0.8,1.5-0.7,3,0,4.4
				c0.2,0.4,0.3,0.9,0.3,1.4c-0.1,2,0,4-0.7,5.9c-0.1,0.2,0,0.5,0.1,0.8c0.1,0.5,0.3,1.1,0.3,1.6c-0.1,1.2-0.3,2.4-0.4,3.5
				c0,0.3-0.2,0.6-0.1,0.9c0.1,1.2,0.1,2.5-0.5,3.6c-0.1,0.2-0.1,0.4,0,0.6c0.1,0.8,0.3,1.6,0.3,2.5c0,0.7-0.1,1.5-0.2,2.2
				c-0.1,0.5-0.2,1-0.1,1.4c0.4,1.4,0.3,2.8,0,4.3c0,0.2,0,0.4,0.1,0.6c0.7,1.8,0.8,3.7,0.3,5.6c-0.1,0.6,0,1.2,0,1.8
				c0,1.3-0.1,2.5-0.1,3.8c0,1.9-0.6,3.8-1.4,5.6c-0.3,0.7-0.9,1.2-1.8,1.1c-0.8-0.1-1.2-0.8-1.3-1.5c-0.1-0.6-0.1-1.3-0.1-1.9
				c0-0.4-0.1-0.9-0.1-1.3c0-0.8-0.1-1.6-0.1-2.4c0.1-1.6,0.3-3.2,0.4-4.9c0-0.1,0-0.2,0-0.2c-0.6-1.5-0.1-3,0-4.5v-0.1
				c0.6-1,0.5-2,0.4-3.1c-0.1-0.9,0.1-1.9,0.4-2.8c0.2-0.5,0.1-1,0-1.5c-0.4-1.4-0.1-2.8,0.3-4.1c0.2-0.7,0.3-1.2,0-1.8
				c-0.3-0.7-0.4-1.4-0.1-2.1c0.1-0.3,0.1-0.6,0.1-0.9c-0.1-1.3-0.2-2.6-0.2-3.9c0-0.7,0.2-1.3,0.4-2c0.1-0.4,0.2-0.7,0.1-1.1
				c-0.1-1.2-0.2-2.4-0.2-3.7c0-0.3,0-0.6,0-1c0-1,0.1-1.9,0.6-2.8c0.6-1,0.6-2.2,0.2-3.2c-0.4-0.9-0.6-1.8-0.5-2.8
				c0-0.2,0-0.3,0-0.5c-0.6-0.1-1,0.1-1,0.7c0,1-0.6,1.7-1.5,2.1c-0.9,0.5-1.6,1.1-1.8,2.2c-0.1,0.5-0.5,1.1-0.9,1.5
				c-1.6,1.8-2.9,3.9-4.7,5.5c-0.8,0.8-1.7,1.4-2.5,2.2c-0.4,0.4-0.8,0.7-1.3,1.1c-0.3,0.2-0.6,0.5-0.9,0.6
				c-0.9,0.3-1.8,0.8-2.7,0.9c-1.2,0.1-2.5,0-3.6-0.3c-1.8-0.6-3.2-1.7-4.2-3.4c-0.1-0.1-0.2-0.3-0.3-0.4c-1.2-0.8-2.1-1.9-2.4-3.4
				c0-0.2-0.3-0.4-0.6-0.5c-0.7-0.4-1.1-1-1.2-1.8c-0.1-0.7-0.3-1.4-0.5-2.1c-1-0.7-2-1.4-2.2-2.8c-0.9-0.8-0.8-2.1-1.8-2.9
				c-0.2-0.1-0.3-0.4-0.4-0.6c-0.4-0.9-0.7-1.8-1.3-2.5c-0.3-0.3-0.3-1-0.3-1.5c0-0.6-0.1-1-0.7-1.4c-0.6-0.5-0.9-1.2-1.4-1.8
				c-1-1.4-1-3.3-2.2-4.6c-0.2-1.3-0.8-2.4-1.2-3.7c-0.1-0.5-0.3-0.9-0.6-1.4c-0.6-0.9-1-1.9-1.5-2.8c-0.3-0.6-0.6-1.2-0.8-1.9
				c-0.2-0.6-0.2-1.3-0.4-2.2c-0.6-0.4-1-1.3-1.3-2.3s-0.8-2-1.1-3c-0.4-1-0.8-2.1-1.3-3.2c-0.8-0.1-1.7-0.6-2.7-0.3
				c-0.2,0.1-0.6,0-0.8-0.1c-1.3-0.8-2.7-0.8-4.1-1c-1.1-0.2-2.1-0.3-3-1.1c-0.7-0.7-1.8-0.3-2.6-0.2c-1.5,0.2-2.9,0.4-4.4,0
				c-0.4-0.1-0.8-0.1-1.2-0.1c-0.9,0-1.8,0.1-2.6,0.2c-0.6,0.1-1.1-0.1-1.6-0.5c-0.3-0.2-0.7-0.5-1-0.5c-2.1,0.1-3.4-1.1-4.4-2.9
				c-0.8,0.1-1.5,0.1-2.3,0.2c-1.2,0.1-2.2-0.6-2.3-1.9c-0.2-0.3-0.2-1-0.3-1.8c-0.4,0-0.6,0-0.8,0c-0.9-0.1-1.2-0.4-1.4-1.2
				c-0.1-0.4-0.2-0.8-0.4-1.1c-0.5-1-0.4-1.9,0.4-2.6c0.5-0.4,1.2-0.8,1.8-1.1c1.1-0.4,1.8-1.3,2.6-2c0.7-0.6,1.2-1.2,1.8-1.8
				c0.1-0.1,0.3-0.2,0.5-0.3c0.9-0.3,1.7-0.7,2.6-0.9c0.6-0.2,1.3-0.4,2-0.5c1-0.1,2,0.1,3-0.6c0.3-0.2,0.9-0.1,1.4-0.1
				c0.7,0,1.3,0,2,0c1.2-0.1,2.3-0.2,3.5-0.3c0.5,0,0.9,0.1,1.4,0.2c0.5,0,1,0.1,1.7,0.1c-0.2-0.4-0.2-0.6-0.4-0.7
				c-0.1-0.2-0.4-0.3-0.5-0.5c-0.2-0.4-0.4-0.8-0.5-1.2c-0.2-1.2-0.3-2.4-0.4-3.6c0-0.2,0.1-0.4,0.3-0.5c0.9-0.5,1.8-1.2,2.8-1.4
				c1.1-0.3,2.1,0.5,2.9,1.2c0.4,0.4,0.8,0.6,1.2,0.9c1.2,0.5,2.4,1.1,3.7,1.7c0.2,0.1,0.5,0.1,0.7,0.1c1.6,0,3.3-0.1,4.8,0.5
				c0.1,0.1,0.3,0.1,0.5,0c1.1-0.1,2,0.2,3,0.7c1,0.6,2.1,1.2,3.1,1.8c0.7,0.4,1.4,1,1.7,1.8c0.1,0.2,0.2,0.4,0.3,0.5
				c1.2,0.6,1.6,1.9,2,3c0.3,1.1,0.4,2.3,0.1,3.4c-0.3,1.2,0.3,2.2,0.9,2.8c0.8,0.7,1.4,1.4,1.9,2.2c0.7,1.1,1.4,2.1,2.1,3.2
				c0.2,0.3,0.5,0.6,0.5,0.9c0,1.1,0.8,1.9,1.1,2.9c0.1,0.3,0.5,0.5,0.7,0.8c0.4,0.5,0.9,0.9,1.1,1.4c0.5,1.4,1.6,2.4,2.3,3.6
				c0.3,0.6,0.6,1.2,0.9,1.8c0.1,0.2,0.3,0.5,0.4,0.7c0.2,0.5,0.4,1,0.5,1.6s0.3,1,0.8,1.4s0.9,0.9,1.4,1.5c0-0.1,0.1-0.2,0.1-0.4
				c-0.2-1,0.1-1.8,0.7-2.6c0.2-0.3,0.3-0.7,0.5-1.1c0.4-0.7,0.9-1.3,1.1-2.1c0.2-0.7,0.1-1.6,0.3-2.3c0.2-0.8,0.7-1.5,1-2.3
				s0.7-1.6,0.6-2.5c-0.1-0.4,0.1-0.9,0.3-1.3c0.8-1.1,1-2.3,1.3-3.5c0.1-0.4,0.3-0.8,0.5-1.1c0.5-0.9,1.1-1.7,1.7-2.6
				c0.2-0.3,0.2-0.7,0.2-1c0-1.1,0.4-1.9,1.1-2.7c0.3-0.4,0.4-0.8,0.5-1.3c0.4-1.3,0.9-2.6,1.5-3.9c0.6-1.2,1.3-2.3,2-3.4
				c0.1-0.1,0.1-0.3,0.2-0.4c1-0.8,1.1-2.2,1.6-3.2c0.1-0.2,0.1-0.4,0.1-0.6c0-0.6,0.2-1,0.7-1.3c1.3-0.9,2.6-1.7,3.8-2.6
				c0.3-0.2,0.6-0.3,0.9-0.3c1-0.3,2.1-0.3,3-1c0.2-0.1,0.6-0.2,0.8-0.1c0.9,0.2,1.6-0.2,2.3-0.5c0.9-0.5,1.9-0.7,3-0.7
				c0.3,0,0.7-0.1,1-0.3c1.7-1.3,3.4-1.6,5.5-1.1c0.2-0.2,0.4-0.4,0.5-0.6c0.5-0.8,1.2-1.5,2.2-1.7c0.1,0,0.3-0.1,0.3-0.1
				c0.9-0.8,1.7-1.7,2.6-2.5c0.7-0.6,1.4-1.3,2.2-1.8c1-0.7,2-1.3,3.2-2c0.8-1.8-0.3-4,0.3-6.1c-1.1-0.6-2.1-0.8-3.3-0.5
				c-0.1,0-0.3,0.1-0.4,0c-1.3-0.6-2.9-0.5-4.2-1.3c-0.3-0.2-0.6-0.3-0.9-0.4c-0.9-0.1-1.5-0.6-2.1-1.2c-0.5-0.6-1.2-1-2-1.3
				c-1.1-0.4-2-1-2.4-2.2c-1.5-0.1-2.5-0.9-3.4-2c-0.2-0.3-0.5-0.5-0.8-0.7c-0.7-0.7-1.3-1.5-1.5-2.5c-0.2-0.7-0.5-1.4-0.9-1.9
				c-0.8-0.8-1-1.8-1.3-2.8c-0.1-0.3-0.3-0.7-0.5-0.9c-0.9-0.6-1.4-1.5-1.4-2.5c0-0.8-0.3-1.4-0.8-2.1c-0.3-0.3-0.5-0.7-0.6-1.1
				c-0.2-1.5-1-2.9-0.3-4.4c0.1-0.1,0.1-0.3,0-0.5c-0.5-1.5-0.2-3.1-0.3-4.7c0-0.3-0.1-0.6-0.3-0.9c-1.4-2-2.4-4-2.6-6.5
				c0-0.3-0.1-0.7-0.3-1c-0.6-0.9-0.6-1.9-0.2-2.9c0.3-0.8,0.3-1.5,0.1-2.2c-0.4-1.2-0.7-2.5,0.1-3.7c0.2-0.3,0.1-0.7,0.1-1
				c-0.1-1.1,0.1-2.1,1-3.1c0.5-0.6,0.6-1.6,0.8-2.5c0.3-1.5,0.6-3,0.9-4.6c0-0.1,0-0.2,0.1-0.2c0.6-1.2,1.3-2.4,2-3.7
				c0.3-0.6,0.6-1.1,0.9-1.7c0.1-0.1,0.1-0.3,0.2-0.4c0.8-0.9,1.6-1.8,2.4-2.7c0.4-0.5,0.9-0.9,1.3-1.3c1.5-1.4,2.9-2.9,4.5-4.2
				c0.9-0.7,1.9-1.4,2.9-1.9c1-0.4,1.8-1.1,2.7-1.6c1.1-0.6,2.2-1.2,2.8-2.3c0.3-0.4,0.9-0.9,1.3-0.9c1.7,0,2.8-2,4.7-1.4
				c0.7,0.2,1.3,0.1,2-0.2c0.9-0.4,1.9-0.8,2.8-1.4c0.6-0.5,1.1-1.2,1.5-1.9c0.5-0.8,1.2-1.5,1.5-2.4c0.2-0.4,0.8-0.7,1.1-1
				c0.8-0.7,1.8-1,2.4-1.9c0-0.1,0.1-0.1,0.2-0.1c1.3-0.1,2.3-1,3.4-1.6c0.4-0.2,0.8-0.4,1.2-0.7c0.7-0.6,1.5-0.8,2.4-0.8
				c1.2,0,2.5-0.3,3.7-0.3c1.1,0,2.1,0.3,3.1,0.5c0.7,0.2,1.4,0.6,2.1,0.9c0.2,0.1,0.4,0.2,0.6,0.2c1.6,0.1,2.5,0.9,2.7,2.3
				c0.8,0.5,1.4,0.9,2.1,1.3c0.9-0.3,1.9-0.7,2.9-1c0.8-0.2,1.7-0.3,2.6-0.5c0.1,0,0.3,0,0.4,0c1-0.7,2.2-0.5,3.3-0.7
				c0.7-0.1,1.4-0.1,1.9,0.4c0.5,0.4,1.1,0.4,1.7,0.3c0.8-0.2,1.5,0,2.3,0.5c1,0.6,2,1.2,3,1.8c0.9,0.5,1.6,1.2,2.1,2
				c0.7,1.1,1.6,2.1,2.3,3.3c0.8,1.3,1.5,2.7,1.9,4.2c0.2,0.8,0.2,1.7,0.6,2.5c0.1,0.3,0.1,0.6,0.1,0.9c-0.1,1.2,0.3,2.4,0.6,3.5
				c0.1,0.2,0.3,0.4,0.4,0.5c0.4,0.2,0.9,0.4,1.3,0.5c0.7,0.3,1.4,0.5,1.7,1.3c0.2,0.8,0.8,0.9,1.4,1c0.4,0.1,0.9,0.2,1.1,0.5
				c0.4,0.6,1,1,1.6,1.3c0.9,0.5,1.4,1.3,2,2.2c0.7,1.2,1.3,2.4,1.8,3.6c0,0.1,0.1,0.2,0.2,0.3c1.1,0.9,1.1,2.1,1.2,3.4
				c0,0.5,0.2,1.1,0.3,1.6c0.1,0.7,0.4,1.5,0.4,2.2c0,0.9-0.2,1.7-0.4,2.6c-0.2,0.9-0.5,1.7-0.5,2.7c0,0.5-0.4,1-0.6,1.5
				c-0.1,0.3-0.4,0.6-0.4,0.9c0,1.4-0.7,2.3-2,2.8c-0.2,0-0.3,0.1-0.4,0.2c-0.1,0-0.1,0.1-0.3,0.3c0.7,1.3,1.4,2.7,2,4.1
				c0.2,0.3,0.2,0.7,0.3,1c0.2,1.1,0.5,2.2,0.7,3.4s0.4,2.4-0.2,3.6c-0.2,0.3-0.2,0.7-0.3,1.1c-0.2,1.3-0.5,2.5-1.5,3.5
				c-0.2,0.2-0.3,0.6-0.4,1c-0.3,1.2-0.4,2.3-0.7,3.5c-0.2,0.7-0.3,1.2,0.3,1.8c0.1,0.1,0.2,0.3,0.3,0.4c0.7,1.9,2.4,2.3,4,3
				c0.2,1.3-0.6,2.5-1.8,2.7c-1.1,0.2-2.2,0.6-3.4,0.7c-1.4,0.2-2.8,0.2-4.1,0.3c-0.2,0-0.4,0-0.6-0.1c-1.5-0.6-3-0.9-4.6-0.9
				c-0.9,0-1.6-0.3-2.1-0.9s-1-1-1.8-1.1c-0.4-0.1-0.9-0.3-1.3-0.6c-1.1-1-2.4-1.9-3.2-3.2c-0.1-0.1-0.2-0.2-0.3-0.4
				c-0.5,0.3-0.5,0.8-0.6,1.2c-0.2,1.6-0.8,3-2,4.2c-0.2,0.2-0.3,0.4-0.4,0.6c-0.2,0.8-0.6,1.6-1.2,2.2c-0.2,0.2-0.2,0.5-0.2,0.8
				c-0.1,1.1-0.6,2-1.6,2.5c-0.6,0.3-1,0.8-1.5,1.3c-0.9,1-1.7,1.9-2.5,3c-0.2,0.2-0.5,0.4-0.8,0.6c-1.6,0.8-3,1.8-4.4,2.8
				c-0.4,0.3-0.9,0.4-1.3,0.4c-1.3,0.2-2.5,0.5-3.4,1.5c-0.5,0.5-1.3,0.6-2.1,0.9c-0.2,0.7-0.3,1.5,0.4,2.2c0.1,0.1,0.1,0.2,0.1,0.3
				c0.2,1.6,1.5,2.1,2.7,2.7c0.4,0.2,0.8,0.5,1.1,0.8c0.9,1,1.6,2.2,2.7,2.9c0.4,0.3,0.7,0.8,1,1.2c0.1,0.2,0.2,0.4,0.4,0.5
				c1.8,0.7,1.9,2.6,2.9,3.9c0.2,0.2,0.3,0.5,0.5,0.8c1.6-1,3.1-1.9,4.8-0.3c0.9-0.4,1.9-0.5,2.9,0c0.1,0.1,0.4,0,0.6,0
				c0.8-0.2,1.6-0.1,2.3,0.4c0.3,0.2,0.7,0.3,1,0.3c1.1-0.1,2.1,0.3,2.8,1.1c0.4,0.4,0.9,0.7,1.5,0.6c0.3,0,0.6,0,0.8,0.1
				c0.7,0.3,1.5,0.4,2.2,0.3s1.4,0.1,2.1,0.4c0.7,0.4,1.5,0.9,2.4,0.8c0.2,0,0.6,0.1,0.7,0.3c0.7,0.8,1.3,1.6,1.9,2.4
				c0.1,0.2,0.2,0.4,0.2,0.6c0,1.3,0.8,2.4,1.4,3.5c0.3,0.8,0.5,1.6,0.9,2.4c0.8,1.8,1.7,3.6,2.4,5.5c0.5,1.5,1,3,1.9,4.3
				c0.4,0.6,0.6,1.2,0.8,1.9c0.1,0.5,0.3,1.1,0.2,1.6c-0.1,0.6,0,1.1,0.5,1.5c0.9,0.7,1.3,1.8,1.7,2.8
				C185.7,142.8,185.5,143.5,185.5,144z"/>
			<path d="M94.7,133.1c-0.4-0.7-0.9-1-1.4-1.4c-1.6-1-2.8-2.4-4-3.8c-0.2-0.2-0.2-0.6-0.2-0.9c-0.1-0.3,0-0.6-0.2-0.8
				c-0.5-0.6-0.5-1.2,0-1.9c0.2-0.2,0.2-0.5,0.3-0.8c0.5-1.5,1.3-2.9,2.2-4.2c0.5-0.7,1.2-0.9,1.7-0.6c0.6,0.3,0.7,1,0.3,1.8
				c-0.8,1.5-1.6,3-2.4,4.4c0.8,0.7,1.5,1.4,2.3,2.1c0.2,0.2,0.6,0.3,0.8,0.5c0.7,0.5,1.3,1,1.7,1.8c0.1,0.3,0.4,0.5,0.6,0.7
				c0.2,0.3,0.4,0.5,0.7,0.8c0.2,0.3,0.4,0.6,0.7,0.9c0.6,0.5,0.8,1.1,0.6,1.8c0,0.2-0.1,0.3-0.2,0.5c-0.7,1.5-1.5,2.8-2.8,3.9
				c-0.4,0.3-0.8,0.9-1,1.5c-0.3,0.9-0.7,1.5-1.7,2c1,0.9,1.2,2.2,2.2,3c0.4,0.3,0.6,0.9,0.7,1.4c0.2,1.3,1.1,2.4,1.6,3.6
				c0.1,0.2,0.3,0.3,0.3,0.5c0.3,1.8,1.7,3.3,2.1,5c0.3,1.4,0.8,2.6,1.5,3.8c0.7,1.3,1,2.9,1.6,4.3c0.5,1.2,1.2,2.2,1.9,3.3
				c0.5,0.7,0.9,1.4,1.1,2.2c0.1,0.5,0.5,1.1,0.9,1.5c0.5,0.5,0.8,1,1,1.7c0,0.3,0.2,0.7,0.4,0.8c1.3,0.9,1.7,2.3,2.4,3.5
				c0.3,0.5,0.6,0.9,0.9,1.3c0.5,0.5,0.9,1.1,1.1,1.8c0.1,0.4,0.4,0.7,0.6,1c0.4,0.7,0.9,1.3,1.3,2c0.1,0.1,0.1,0.2,0.1,0.3
				c1.4,1.7,2.1,3.9,3.3,5.8c0.4,0.7,0.3,1.4-0.3,1.9c-0.6,0.5-1.3,0.5-2,0.1c-1.1-0.7-1.7-1.8-2.4-2.9c-0.3-0.5-0.8-1-1.1-1.5
				c-0.7-1.2-1.3-2.4-2-3.6c-0.2-0.3-0.4-0.7-0.7-0.9c-0.6-0.4-1-1-1.3-1.7c-0.2-0.4-0.5-0.8-0.8-1.2c-0.6-0.8-1.3-1.5-1.9-2.3
				c-0.3-0.3-0.4-0.8-0.5-1.2c-0.1-0.6-0.4-0.9-0.8-1.3c-0.4-0.4-0.8-1-0.9-1.5c-0.1-0.8-0.5-1.4-1-2c-0.5-0.5-0.8-1.1-1-1.7
				c-0.5-1.6-1.1-3.1-2.1-4.5c-0.2-0.3-0.3-0.7-0.5-1.1c-0.2-0.5-0.4-1-0.7-1.4c-0.7-0.7-0.9-1.6-1.2-2.6c-0.1-0.4-0.3-0.9-0.6-1.3
				c-1-1.2-1.3-2.6-1.7-4c-0.1-0.4-0.3-0.9-0.5-1.3c-0.3-1-0.8-1.9-1-2.9c-0.1-0.7-0.4-1.3-0.8-1.8c-0.4-0.6-0.7-1.2-0.7-2
				c0-0.3-0.2-0.7-0.3-1c-0.2-0.7-0.5-1.4-0.7-2.2c-0.1-0.2,0-0.5-0.1-0.6c-1.1-1.3-0.1-2.4,0.2-3.6c0.1-0.4,0.6-0.7,1-1
				c0.7-0.5,1.4-1,1.6-2c0.1-0.3,0.3-0.6,0.5-0.8C94,134,94.4,133.5,94.7,133.1z"/>
			<path d="M128.9,238.4c0.9-0.1,1.8-0.2,2.7-0.2c0.8,0,1.7,0.1,2.5,0.2c0.7,0.2,1.2,0.6,1.5,1.3c0.3,0.9,0,1.6-0.9,1.9
				c-1.5,0.5-2.9,1.1-4.5,1c-1.1,0-2-0.4-2.9-1c-0.4-0.2-0.8-0.5-1.2-0.6c-0.8-0.3-1.5-0.8-1.6-1.6c-0.1-1-0.8-1.6-1.2-2.7
				c-0.7,1-1.5,1.6-1.6,2.7c0,0.3-0.2,0.7-0.4,1c-0.8,1.4-3.2,2.5-4.9,2.3c-0.4,0-0.7,0-1.1,0c-2,0.1-4,0.4-5.9-0.2
				c-0.4-0.1-1,0.1-1.4,0c-1.4-0.4-2.8-0.2-4.2-0.1c-0.2,0-0.4-0.1-0.6,0c-2,0.5-4-0.2-5.9-0.6h-0.1c-1.5-0.9-3.1-0.7-4.7-0.8
				c-0.6,0-1.2-0.2-1.6-0.6c-0.6-0.5-1.2-0.9-1.9-1.1c-0.8-0.3-1.2-0.9-1-1.7c0.2-1,1.2-1.5,2.1-1.1c0.6,0.3,1.2,0.4,1.9,0.3
				c0.5-0.1,1,0.1,1.5,0.2c0.3,0.1,0.7,0.3,1,0.4c1,0.3,1.9,0.3,3,0.1c1.9-0.4,4-0.5,5.9,0.1c0.9,0.3,1.8,0.4,2.8,0.6
				c0.2,0,0.4,0,0.6,0s0.4-0.1,0.6-0.1c2.6-0.1,5.2-0.1,7.9-0.2c1.3,0,2.5-0.3,3.5-1c0.3-0.2,0.5-0.7,0.6-1.1c0.2-0.4,0.2-1,0.4-1.3
				c0.5-0.8,0.9-1.5,1-2.5c0.1-0.8,0.7-1.5,1.1-2.2c0.1-0.2,0.5-0.4,0.8-0.4c1.3-0.2,2.3,0.7,2.5,2c0.1,0.3,0.3,0.5,0.5,0.8
				c0.3,0.6,0.8,1.1,1,1.7c0.4,1.3,0.7,2.5,1.8,3.4C128.5,237.7,128.7,238,128.9,238.4z"/>
			<path d="M84.5,128.4c0,0.1-0.1,0.4,0,0.6c0.6,1.1,0.5,2.3,0.5,3.6c0,1.4,0.3,2.8,0.7,4.2c0.3,0.9,0.5,1.8,0.3,2.8
				c-0.1,0.3,0,0.7,0.1,0.9c0.5,1,0.4,1.9,0.2,2.9c-0.1,0.4,0,0.9,0,1.4c0.1,1.4,0.2,2.7,0.3,4.1c0,0.7,0.1,1.3,0.1,2
				c0,1.2,0.1,2.4,0.1,3.7c0,0.8,0,1.5-0.2,2.3c-0.3,1-1.3,1.4-2.2,0.8c-1.1-0.8-1.5-1.9-1.5-3.2c0-0.5-0.1-1-0.1-1.5
				c0-0.8-0.2-1.7-0.1-2.5c0.2-1.9-0.3-3.9,0.2-5.8c0.1-0.3-0.1-0.7-0.2-1c-0.3-0.9-0.4-1.8-0.2-2.7c0.1-0.4,0-0.8-0.1-1.1
				c-0.2-0.9-0.3-1.7-0.1-2.6c0.1-0.6,0-1.3,0-2c0-0.1-0.1-0.2-0.1-0.2c0.1-1.2-0.1-2.4-0.6-3.6c-0.1-0.3-0.1-0.8,0-1.2
				c0.1-0.5,0.1-0.9-0.1-1.4c-0.5-0.9-0.1-1.9,0-2.8s1.4-1.2,1.9-0.4C84,126.3,84.7,127.1,84.5,128.4z"/>
			<path d="M120.4,212.2c0.1-0.9,0.2-2.1,1.4-2.8c0.5-0.3,1.1-0.5,1.7-0.1c0.3,0.2,0.6,0.2,0.9,0.3c1.3,0.5,2.2,2.4,1.9,3.6
				c-0.5,1.8-2.2,2.6-4.1,2C120.8,214.8,120.5,213.8,120.4,212.2z"/>
			<path class="st1" d="M86.8,53.2c-0.4-0.8-0.7-1.5-1-2.2c-0.1-0.3,0-0.8,0.1-1.1c0.1-0.5,0.4-0.9,0.6-1.3c0.1-0.4,0.3-0.8,0.2-1.2
				c-0.3-1.1,0.1-2,0.4-3c0.1-0.4,0.2-1,0-1.4c-0.3-0.7-0.3-1.3,0-2c0.5-1.2,1-2.4,1.5-3.6c0.4-0.8,0.7-1.7,1.1-2.5
				c0.6-1.3,0.8-2.9,1.9-3.9c0.1-0.1,0.2-0.3,0.3-0.4c0.2-1.2,1.3-1.8,1.7-2.8c0.1-0.2,0.4-0.4,0.6-0.5c0.3-0.2,0.6-0.3,0.8-0.6
				c0.9-1.5,2.6-2,3.9-2.9c1-0.7,1.9-1.4,2.8-2.3c0.5-0.5,1-0.9,1.6-1.2c0.7-0.4,1.3-0.8,1.9-1.2c0.5-0.3,1-0.5,1.5-0.5
				c0.9-0.1,1.7-0.4,2.4-1.1c0.3-0.2,0.7-0.5,1-0.5c0.8-0.1,1.5-0.5,2.1-1.1c0.7-0.8,1.6-1.1,2.7-0.8c0.4,0.1,0.8,0.1,1.2,0.1
				c1.8-0.1,3.7-0.3,5.5-0.4c0.2,0,0.5,0,0.7-0.1c1.6-1,3.2-0.2,4.8,0.2c1.5,0.3,3,0.5,4.5,0.4c1-0.1,1.7,0.1,2.6,0.4
				c1.2,0.4,2.5,0.7,3.8,0.8c1.1,0.1,2.2,0.7,3.4,0.3c0.1,0,0.3,0.1,0.4,0.2c0.7,0.7,1.5,0.8,2.4,0.9s1.8,0.5,2.8,0.7
				c0.1,0,0.3,0.1,0.4,0.2c1.5,1.7,3.4,2.6,5.3,3.5c0.3,0.1,0.6,0.4,0.8,0.7c0.7,0.9,1.5,1.7,2.7,1.8c0.1,0.4,0.1,0.6,0.2,0.9
				c0.1,0.3,0.1,0.6,0.2,0.8c0.9,1.3,1.7,2.5,2.7,3.7c0.4,0.5,0.8,0.8,0.9,1.4c0.1,0.6,0.5,1.1,0.7,1.6c0.4,1.2,0.9,2.4,1.3,3.6
				c0.5,1.5,1,2.9,1.5,4.4c0.1,0.2,0.1,0.4,0.1,0.6c-0.2,1-0.2,2,0.1,2.9c0.1,0.4-0.2,1-0.1,1.4c0.3,1,0.2,2,0.1,2.9
				c0,0.4-0.1,0.8-0.2,1.2c-0.1,0.5-0.2,1-0.1,1.4c0.3,1.2-0.1,2.3-0.3,3.4c-0.2,0.9-0.7,1.3-1.5,1.5c-0.3,0.1-0.7,0.1-0.9,0.3
				c-0.9,0.7-1.8,0.7-2.8,0.3c-0.7-0.3-1.3-0.1-1.9,0.4c-0.3,0.3-0.6,0.5-1.1,0.3c-0.8-0.3-1.5-0.1-2.2,0.2
				c-0.6,0.2-1.2,0.3-1.7,0.4c-0.8,0.2-1.5,0.1-2.2-0.2c-0.4-0.2-0.9-0.2-1.3-0.1c-1.2,0.1-2.4-0.3-3.5,0.4c-0.1,0-0.2,0-0.3,0
				c-2.1-0.7-4.1-0.3-6.1,0c-0.4,0.1-0.8,0-1.1-0.1c-0.7-0.3-1.4-0.4-2.2-0.2c-0.3,0.1-0.6,0-0.9,0c-1.5-0.2-2.9-0.9-4.5-0.7
				c-0.1,0-0.2,0-0.2-0.1c-1.7-0.8-3.6-1.2-5.5-1.4c-0.2,0-0.4-0.1-0.6-0.2c-1.8-1.2-4-1.4-5.9-2.6c-0.7-0.4-1.5-0.6-2.4-0.9
				c-0.7-1.6-2.4-2.1-3.8-3.1c-0.2-0.1-0.5-0.2-0.6-0.3c-0.6-0.8-1.3-1.6-1.9-2.5c-0.4-0.5-0.9-1-1.3-1.6c-0.2-0.2-0.3-0.5-0.4-0.7
				c-0.1-0.1,0-0.3-0.1-0.5c-0.9-1.5-1.3-3.3-2.7-4.5c-0.5-0.4-0.8-0.9-0.7-1.6c0.1-1,0.1-2-0.6-2.9c-0.1-0.2-0.1-0.5-0.2-0.8
				c-0.1-0.5-0.3-1-0.5-1.4c-0.2-0.3-0.3-0.6-0.3-1c0.1-0.9-0.4-1.4-1.1-1.3c-0.7,0-1.2,0.6-1,1.4c0.1,0.7-0.1,0.8-0.6,1.1
				c-2,0.9-3.7,2.2-4.5,4.4c-0.1,0.2-0.3,0.4-0.4,0.5c-1,0.7-1.6,1.7-2,2.9c-0.3,0.9-0.8,1.7-1.3,2.5s-0.7,1.5-0.5,2.4
				c0.1,0.3,0,0.9-0.2,1.1c-1.5,1.5-2,3.5-2.3,5.5C87,52.5,86.9,52.8,86.8,53.2z"/>
			<path class="st0" d="M173.6,170.2c-0.4-0.9-0.7-1.6-1-2.3c-0.1-0.4-0.2-0.8-0.1-1.2c0-1.1-0.2-2.1-1.1-2.9
				c-0.1-0.1-0.3-0.2-0.3-0.4c0-1-0.8-1.6-1.2-2.4c-0.1-0.2-0.3-0.4-0.4-0.6c-0.4-0.5-1-0.7-1.6-0.5s-0.9,0.7-0.9,1.3
				c0,0.4,0,0.7,0,1.2c-0.5-0.1-1-0.1-1.4-0.2c-0.7-0.1-1.3-0.1-2,0.2c-0.2,0.1-0.4,0.2-0.6,0.2c-1.5-0.3-2.8,0.6-4.2,0.9
				c-0.9,0.2-1.8,0.5-2.6,1.1c-0.4,0.3-1.2,0.3-1.8,0.3c-0.9,0-1.6,0.2-2.3,0.7c-0.2,0.2-0.6,0.4-0.9,0.3c-1.5-0.3-2.7,0.5-4,0.9
				c-0.1,0-0.3,0.2-0.4,0.2c-1-0.1-1.9,0.1-2.6,0.8c-0.1,0.1-0.4,0-0.6,0c-1.3-0.3-2.3,0.1-3.3,1c-0.2,0.2-0.5,0.3-0.7,0.3
				c-1.2-0.1-2.4,0-3.5,0.5c-0.1,0-0.1,0-0.3-0.1c1.2-1.4,1.2-3.2,1.8-4.7c0.4-1.1,0.8-2.3,0.7-3.5c0-0.3,0.2-0.7,0.4-1
				c0.3-0.6,0.6-1.2,0.3-1.8c-0.4-1,0-1.8,0.5-2.6c0.1-0.2,0.3-0.5,0.4-0.7c0.3-1.4,0.5-2.8,0.8-4.2c0-0.2,0-0.4,0.1-0.5
				c1.1-1.2,0.8-2.8,1.3-4.2c0.2-0.4,0.3-0.8,0.4-1.2c0.1-0.6,0.2-1.2,0.3-1.7c0.1-0.3,0-0.7,0.2-1c0.5-0.7,0.7-1.5,0.5-2.4
				c-0.1-0.7,0-1.2,0.5-1.7c0.3-0.3,0.6-0.9,0.6-1.4c0-1.1,0.3-2,0.8-2.9c0.4-0.9,0.8-1.8,0.7-2.9c0-0.3,0.1-0.7,0.3-1
				c0.5-0.6,0.6-1.4,0.6-2.1c0-0.2-0.1-0.5,0-0.7c1.3-2.1,1.4-4.5,1.8-6.8c0.1-0.6,0.3-1.1,0.4-1.7c0.3-1.5,0.6-3,0.9-4.6
				c1.3,0.9,2.7,1.2,4,1s2.4,0.2,3.6,0.6c0.5,0.2,1.1,0.2,1.6,0.3c0.3,0.1,0.6,0.1,0.9,0.3c0.9,0.6,1.9,0.7,2.9,0.4
				c0.6-0.2,1,0,1.6,0.2c1.4,0.4,2.7,1,4.1,1.5c1.1,0.4,2.3,0.5,3.4,0.8c0.2,1.2,0.2,2.2,0.9,3.1c0.1,0.1,0.1,0.2,0.1,0.3
				c0.4,1.2,0.8,2.5,1.4,3.7c0.7,1.6,1.1,3.2,1.7,4.8v0.1c1,1.6,1.3,3.5,2,5.2c0.1,0.3,0.2,0.6,0.3,0.9c0.2,0.7,0.5,1.4,1.2,1.7
				c0.5,0.3,0.7,0.8,0.6,1.3c-0.2,1.1,0.3,2.1,0.6,3.1c0.1,0.2,0.1,0.4,0.3,0.5c1.3,0.7,1.4,2.1,1.8,3.3c0.5,1.2,0.7,2.4,1.1,3.7
				c0.4,1.2,0.8,2.4,1.3,3.6c0.7,1.6,1.4,3.3,2,4.9c0.5,1.4,1.1,2.8,1.7,4.2c0.2,0.4,0.2,0.8,0.4,1.1c0.2,0.4,0.2,0.9,0.5,1.2
				c0.7,0.6,0.9,1.4,1,2.2s0.4,1.5,1,2.1c0.2,0.2,0.4,0.6,0.5,0.9c0.2,0.6,0.3,1.3,0.3,1.9c0.1,1.6,0.9,2.9,2,4
				c1.2,1.3,1.6,2.8,0.9,4.5c-0.2,0.4-0.3,0.9-0.4,1.3c-0.1,0.2,0,0.5-0.2,0.6c-0.9,0.6-0.9,1.7-1.5,2.6c-0.1,0.2-0.2,0.4-0.2,0.5
				c-0.2,1.1-0.5,2.2-1.1,3.2c-0.2,0.3-0.1,0.9-0.1,1.3c0,0.4,0.1,0.8-0.1,1.2c-0.6,1.4-1.1,2.8-2,4c-0.6,0.8-0.7,1.9-0.9,2.8
				c-0.2,1.2-0.5,2.2-1.1,3.2c-0.5,0.8-0.7,1.8-1,2.7c-0.1,0.4-0.3,0.8-0.5,1.2c-0.7,1.1-1.3,2.3-1,3.7c0.1,0.5,0,0.9-0.4,1.2
				c-0.7,0.5-1,1.2-1.2,2c-0.1,0.6-0.4,1.1-0.9,1.5c-0.4,0.3-0.6,0.9-0.9,1.4c-0.2,0.4-0.4,0.8-0.7,1.3c-1.2-0.5-2.2-0.9-3.3-1.3
				c-0.6-0.3-1.3-0.4-2-0.3c-0.5,0.1-0.9,0.2-1.5,0.3c-0.6-0.9-1.6-1.3-2.7-1.4c-0.8,0-1.2-0.6-1.2-1.3c0-0.4-0.1-0.7-0.1-1.1
				c0.1-0.8,0.1-1.6,0.4-2.3c0.6-1.2,1.4-2.3,1.7-3.5c0.5-2,1.7-3.8,1.8-5.9c0-0.2,0-0.4,0.2-0.6c0.8-0.8,0.9-1.8,1-2.9
				c0-0.4,0.1-0.7,0.3-1c0.7-1.3,1.2-2.6,0.9-4.1c0-0.2,0.2-0.6,0.4-0.8c0.6-0.7,0.8-1.5,0.7-2.3c-0.1-0.5,0-0.9,0.3-1.3
				c0.1-0.1,0.1-0.1,0.1-0.2c0.4-1.3,1-2.6,1.3-3.9c0.3-1.3,0.2-2.7,0.3-4.1c0-0.8-0.3-1.5-1-1.6c-1.2-0.3-1.7-1.2-2.1-2.1
				c-0.7-1.3-1.5-2.4-1.8-3.9C175.1,171.1,174.7,170.8,173.6,170.2z"/>
			<path class="st1" d="M98.5,36.7c0.4,0.8,0.8,1.4,1.1,2.2c0.2,0.5,0.3,1.1,0.2,1.6c-0.1,1.2,0.2,2.2,0.8,3.3
				c0.6,1.3,1.1,2.5,2.3,3.3c0.3,1.1,1.1,1.9,1.8,2.8c0.1,0.1,0.2,0.3,0.3,0.4c0.6,1.1,1.8,1.5,2.4,2.6c0.6,1,1.6,1.7,2.6,2.4
				c0.6,0.4,1.4,0.5,2.4,0.9c0.8,1.3,2.4,2.1,4.2,2.6c0.2,0,0.3,0.1,0.4,0.2c1.4,0.7,2.8,1.4,4.4,1.4c0.2,0,0.4,0.1,0.6,0.2
				c1.4,0.5,2.7,1.2,4.2,1.4c1.2,0.2,2.4,0.4,3.6,0.6c0.7,0.1,1.4,0.1,2.2,0c1-0.1,1.9-0.2,2.8,0.2c0.3,0.1,0.7,0.1,0.9,0
				c0.9-0.5,1.8-0.2,2.8-0.1c1.8,0.2,3.6,0.2,5.3-0.4c0.2-0.1,0.4,0,0.6,0c1.7,0.4,3.4,0.8,5.1,0.2c0.3-0.1,0.7-0.1,1.1-0.1
				c1.3,0,2.5,0,3.8,0c0.4,0,1-0.1,1.2-0.4c1-1.1,2.3-1,3.6-1c0.8,0,1.6-0.2,2.3-0.5c0.7-0.2,1.3-0.5,2,0.2c0.3,0.3,0.8,0.4,1.2,0.6
				c0.8,2-0.2,3.8-1.1,5.5c-0.2,0.3-0.4,0.6-0.6,0.9c-0.9,1.7-2.4,2.6-4.3,2.8c-1.2,0.2-1.6,0.7-1.9,1.8c-0.2,0.6-0.5,1.3-0.9,1.8
				c-0.9,1-1.7,2.8-1.8,4.2c0,0.3-0.2,0.6-0.3,0.9c-0.1,0.2-0.4,0.4-0.5,0.7c-0.3,0.7-0.8,1.2-1.5,1.6c-0.5,0.3-0.9,0.9-1.1,1.5
				c-0.3,0.6-0.6,1-1.1,1.5c-0.9,0.9-1.9,1.5-2.8,2.3c-1.3,1.1-2.7,2.1-4.3,2.8c-0.4,0.2-0.8,0.6-1.1,0.9c-0.7,0.9-1.5,1.5-2.7,1.4
				s-2.1,0.7-2.4,1.8c-0.2,0.8-0.6,1.5-1,2.3c-0.2,0.3-0.4,0.7-0.4,1c0.3,0.8-0.1,1.3-0.5,2s-0.4,1.6-0.1,2.3c0.2,0.6,0.1,1-0.4,1.5
				c-0.9,0.9-1.8,1.8-2.7,2.7c-0.1,0.1-0.1,0.1-0.2,0.2c-1,1.8-3,2.7-4.2,4.3c-0.3,0.4-0.8,0.8-1.3,1c-0.2,0.1-0.8,0-0.9-0.3
				c-0.9-1.2-2.4-1.6-3.4-2.6c-0.1-0.1-0.4-0.2-0.5-0.2c-0.7-0.1-1.2-0.5-1.6-1.1c-0.2-0.3-0.6-0.6-1-0.7c-0.7-0.2-0.9-0.7-0.9-1.2
				c-0.1-0.8,0-1.6,0-2.4c0-0.9-0.2-1.8-0.2-2.7c-0.1-0.8-0.1-1.6-0.2-2.4c-0.1-0.4-0.1-0.8-0.3-1.1c-0.3-0.5-0.4-0.9-0.4-1.5
				c-0.1-1.1-0.7-1.7-1.8-1.7c-0.6,0-0.9-0.2-1.4-0.5c-0.7-0.6-1.4-1.1-2.1-1.6c-0.2-0.2-0.5-0.3-0.8-0.3c-0.8-0.1-1.4-0.4-2.1-0.7
				c-0.8-0.3-1.6-0.5-2.3-1c-0.3-0.2-0.8-0.3-1.1-0.3c-0.9,0-1.5-0.4-2-1.1c-0.4-0.6-1-1.1-1.7-1.2c-0.4-0.1-0.6-0.3-0.7-0.7
				c-0.1-0.3-0.2-0.6-0.4-0.9c-1.1-1.2-2.2-2.4-3.4-3.5c-0.5-0.5-1.1-1-1.2-1.7c-0.2-0.8-0.6-1.5-1.2-2c-0.4-0.4-0.6-0.8-0.5-1.4
				c0.1-0.8-0.2-1.5-0.7-2.1c-0.4-0.5-0.6-1-0.8-1.6c-0.1-0.5-0.4-1-0.7-1.5c-0.5-0.6-0.6-1.2-0.4-1.9c0.3-1,0.2-1.9-0.2-2.9
				c-0.2-0.7-0.2-1.5-0.1-2.2c0.1-0.6,0.1-1.2-0.1-1.7c-0.6-1.3-0.3-2.6,0.1-3.9c0.3-1.2,0.6-2.4,0.9-3.6c0.2-0.9,0.3-1.8,0.7-2.6
				c0.5-1.2,0.7-2.4,0.6-3.6c0-0.7,0.1-1.2,0.8-1.6c0.4-0.2,0.7-0.6,0.9-1c0.4-0.9,0.7-1.8,1-2.7c0.1-0.4,0.4-0.7,0.6-1
				c0.2-0.5,0.6-1.1,0.7-1.7C96.4,38.8,97.5,37.8,98.5,36.7z"/>
			<path class="st1" d="M153.8,171.1c1,0.3,1.8-0.1,2.6-0.6c1-0.5,1.9-1.2,3-1.5c1.2-0.3,2.6-0.7,3.4-1.9c0.1-0.2,0.4-0.3,0.7-0.4
				c1-0.4,1.9-0.7,2.9-1.2c0.4-0.2,0.8-0.6,1.3-1.1c0.1,0.4,0.2,0.7,0.2,1c-0.1,1.1,0.4,2,1.2,2.6c0.5,0.4,0.7,0.9,0.9,1.5
				s0.5,1.1,0.9,1.8c-0.6,1.2-0.2,2.2,0.5,3.4c0.8,1.2,1.2,2.7,1.7,4c0.2,0.4,0.4,0.9,0.6,1.3c0.4,0.6,0.7,1.2,1.1,1.8
				c0.7,1.1,0.5,2.2,0.2,3.4c-0.3,1.3-0.5,2.6-1.4,3.7c0.2,1.4-0.6,2.4-1.2,3.6c-0.4,0.8-0.4,1.7-0.6,2.5c-0.1,0.5-0.4,1-0.7,1.5
				c-0.3,0.6-0.5,1.2-0.5,1.9c-0.1,0.7-0.4,1.4-0.6,2c-0.2,0.8-0.4,1.6-0.6,2.4c-0.1,0.3-0.1,0.6-0.2,0.8c-0.8,1.6-1.1,3.3-1.2,5.1
				c-0.1,1-0.4,1.8-1.1,2.4c-0.8,0.8-1.1,1.6-0.9,2.7c0.2,0.8,0.1,0.9-0.8,1.1c-0.2,0-0.4,0-0.6,0.1c-1.5,1.1-3.2,1.9-4,3.8
				c-0.1,0.3-0.3,0.5-0.2,0.8c0.1,0.9-0.3,1.7-0.8,2.3c-0.9,1.3-1.3,2.8-1.4,4.4c0,0.5-0.2,0.9-0.7,1.2c-1.8,1-2.1,2.8-2.8,4.5
				c-0.4,0.9,0.2,2,1.2,2.3c1.5,0.5,3,0.7,4.6,0.1c0.6-0.2,1.1-0.6,1.7-0.9c0.3,0.4,0.1,0.7-0.1,1c-0.5,0.5-0.7,1-0.7,1.7
				c-0.1,0.8-0.5,1.1-1.2,0.9c-1.5-0.5-2.9-0.1-4.2,0.7c-0.2,0.1-0.5,0.2-0.8,0.3c-0.2,0-0.4,0-0.6,0.1c-1,0.7-2.2,0.6-3.2,1.1
				c-0.3,0.2-0.7,0.2-1.1,0.3c0-0.4,0-0.7,0-0.9c0.1-0.9-0.1-1.6-0.6-2.4c-0.5-0.7-0.8-1.6-0.7-2.6c0.1-0.6-0.2-1.2-0.4-1.8
				c-0.1-0.6-0.3-1.1-0.5-1.7c-0.2-0.6-0.3-1.2-0.4-1.9c-0.2-0.8-0.6-1.7-0.7-2.5c-0.2-1.3-1.2-2.4-0.9-3.8
				c-0.7-0.9-0.5-2.1-0.8-3.1c-0.3-1.1-0.9-2.1-0.9-3.3c0-0.4-0.3-0.7-0.5-1.1c-0.4-0.7-1-1.3-1.2-2c-0.3-0.9-0.4-1.9-0.3-2.8
				c0.1-0.9,0-1.7-0.3-2.5c-0.4-1.4-0.7-2.8-1.5-4.1c-0.4-0.7-0.3-1.6-0.6-2.4c-0.2-0.6-0.5-1.2-0.7-1.9c-0.1-0.3-0.2-0.7-0.2-1
				c0-1-0.2-1.9-0.8-2.7c-0.5-0.6-0.8-1.3-0.7-2.2c0-0.5-0.4-1-0.7-1.4s-0.6-0.7-0.4-1.2c0.5-1.3-0.2-2.4-0.7-3.5
				c-0.1-0.3-0.3-0.6-0.3-0.9c-0.4-1.9-0.9-3.8-1.3-5.7c1,0.2,1.9-0.1,2.6-1c1.3-0.2,2.4-0.9,3.6-1.3c0.6-0.2,1.3-0.3,1.8-0.8
				c0.2-0.2,0.5-0.3,0.7-0.4c1.4-0.4,2.7-0.9,3.8-1.9c0.1-0.1,0.3-0.2,0.4-0.3c2.1-0.3,3.7-1.8,5.6-2.6
				C153.1,171.9,153.4,171.5,153.8,171.1z"/>
			<path class="st1" d="M120.3,175.6c-0.4-0.9-0.8-1.6-1-2.3c-0.4-1.2-0.9-2.2-1.9-3c-0.4-0.3-0.6-0.8-0.5-1.4
				c0-0.6-0.2-1.1-0.3-1.7c-0.2-0.6-0.5-1.2-0.6-1.8c-0.1-0.7-0.2-1.4-0.6-2c-0.1-0.1-0.1-0.4-0.1-0.7c0-0.2,0.2-0.5,0.1-0.7
				c-0.6-1.4-0.5-3-1.2-4.3c-0.3-0.4-0.4-0.8-0.4-1.3c0-1.2-0.3-2.2-0.9-3.3c-0.4-0.6-0.5-1.5-0.6-2.3c-0.1-1.1-0.2-2.1-0.6-3.1
				c-0.5-1.2-0.7-2.4-1.2-3.6c-0.2-0.6-0.6-1.1-0.9-1.7c-0.1-0.3-0.3-0.7-0.2-1c0.1-0.8,0-1.5-0.5-2.1c-0.5-0.7-0.6-1.5-0.5-2.5
				c0.1-0.9-0.2-1.8-0.3-2.7c-0.1-1.4-0.5-2.7-0.9-4.1c-0.4-1.4-0.4-3-0.6-4.5c0-0.2,0-0.3-0.1-0.5c-0.8-1.5-0.7-3.1-1.1-4.7
				c-0.1-0.4-0.4-0.8-0.5-1.2c-0.3-0.6-0.8-1.2-0.6-2.2c0.2,0.3,0.3,0.5,0.4,0.7c0.3,0.4,0.6,0.8,1,1.2c0.5,0.6,1.2,1.1,1.7,1.7
				c1.1,1.4,2.6,2.3,4.2,2.7c0.7,0.2,1.1,0.4,1.5,1c0.4,0.7,1,0.9,1.7,0.7c0.3-0.1,0.7,0,1.1-0.1c0.3-0.1,0.8-0.2,0.9-0.5
				c0.8-2,2.7-3,3.9-4.6c0.3-0.5,0.6-1,0.9-1.5c0.1-0.2,0.3-0.5,0.5-0.6c1-0.5,1.7-1.2,2-2.3c0-0.1,0.1-0.2,0.2-0.3
				c0.1,0,0.1-0.1,0.4-0.2c0.5,0.9,1.6,1.5,1.9,2.6c0.1,0.2,0.2,0.5,0.3,0.6c0.9,1,1.9,1.9,2.8,2.9c0.4,0.5,0.8,1.1,1.1,1.6
				c0.7,1.5,1.8,2.4,3.4,2.6c0.5,0.1,1.1,0,1.3-0.4c0.4-1,1.3-1.3,2-1.8c1.1-0.7,2.1-1.5,3.1-2.4c0.5-0.6,1.2-1,1.9-1.5
				c0.5-0.4,0.9-0.9,1-1.6c0.1-0.3,0.2-0.7,0.4-0.8c1-0.7,2.1-1.3,3.2-1.9c0,0.4,0.1,0.8,0,1.1c-0.8,2.3-1.6,4.6-2.4,6.9
				c-0.3,0.7-0.5,1.4-0.8,2.1c-0.1,0.3-0.1,0.6-0.1,0.8c0.1,0.5-0.1,0.8-0.3,1.2c-0.3,0.5-0.6,1-0.6,1.5c0.1,0.9-0.3,1.5-0.7,2.2
				c-0.3,0.6-0.4,1.4-0.5,2.1c-0.2,1-0.3,2-0.9,2.9c-0.3,0.4-0.4,1-0.3,1.5c0.1,0.7,0.1,1.2-0.3,1.7c-0.6,0.8-1,1.6-0.9,2.6
				c0,0.2-0.1,0.5-0.2,0.6c-0.6,0.6-0.7,1.4-0.8,2.2c-0.1,0.9-0.5,1.8-0.7,2.6c-0.1,0.3-0.3,0.5-0.3,0.8c-0.1,1.2-0.2,2.3-0.7,3.4
				c-0.3,0.6-0.3,1.2-0.5,1.8c-0.2,0.7-0.4,1.3-0.3,2.1c0.1,0.8,0,1.7-0.6,2.3c-0.5,0.5-0.5,1.1-0.5,1.8c0,0.5-0.1,1-0.2,1.5
				c-0.3,1.2-0.6,2.5-1,3.7c-0.5,1.9-1.1,3.8-1.7,5.7c-0.1,0.3-0.3,0.5-0.6,0.7c-1.3,0.6-2.6,1.1-3.9,1.6c-0.2,0.1-0.6,0-0.8,0.1
				c-1.4,0.5-3,0.6-4.3,1.6C121.5,174.7,121,175.1,120.3,175.6z"/>
			<path class="st1" d="M119.9,9.8c0.2-0.2,0.3-0.6,0.5-0.7c1.1-0.3,1.5-1.3,2.2-1.9c0.1-0.1,0.1-0.2,0.2-0.3
				c1.6-0.7,2.9-2.3,4.7-2.6c0.3,0,0.6,0,0.8,0c0.5,0,1,0.1,1.4-0.1c1.5-0.7,3-0.5,4.5-0.1c1.2,0.3,2.4,0.6,3.4,1.6
				c0.5,0.5,1.4,0.5,2.4,0.8c0.4,0.9,1.7,1,2.6,1.7c0.1,0.1,0.3,0.1,0.5,0.1c1-0.2,2.1-0.5,3.1-0.8c1.2-0.3,2.4-0.6,3.6-1
				c0.1,0,0.2,0,0.3,0c1.1,0.2,2.2,0.3,3.3,0.5c0.2,0,0.3,0,0.5,0c0.8-0.3,1.3-0.1,1.9,0.5c0.3,0.3,0.8,0.4,1.2,0.5
				c0.8,0.2,1.6,0.6,2,1.4c0.2,0.3,0.5,0.6,0.8,0.9c1,0.9,1.8,2,2.3,3.3c0.1,0.3,0.3,0.5,0.5,0.8c0.3,0.5,0.6,1,0.8,1.6
				c0.1,0.2,0.1,0.5,0.3,0.7c0.9,0.9,0.9,2.2,1.5,3.2c0.4,0.7,0.3,1.3-0.2,2c-0.8,1.1-0.8,2.3-0.1,3.2c0.7,0.9,1.7,1.2,3,0.7
				c0.6-0.2,1.1-0.1,1.6,0.2c0.9,0.6,1.8,0.9,3,0.7c0.4,0.9,0.8,1.7,1.7,2.1c0.1,0,0.1,0.1,0.1,0.2c0.6,1.6,1.9,2.8,2.7,4.4
				c0.2,0.5,0.5,1,0.4,1.5c-0.1,1,0.2,1.8,0.6,2.6c0.2,0.5,0.3,0.9,0.2,1.5s-0.1,1.3-0.1,2c0,1.3,0.2,2.6-0.4,4
				c-0.4,0.8-0.7,1.6-1.2,2.3c-0.5,0.6-0.7,1.4-1,2.2c-0.1,0.2-0.1,0.4-0.2,0.6c-0.6,0.8-0.3,1.4,0,2.3c0.6,1.6,1.7,3,1.6,4.8
				c0,0.3,0.2,0.5,0.2,0.8c0.2,0.8,0.3,1.5,0,2.3c-0.3,0.7-0.3,1.6-0.6,2.3c-0.8,1.8-1.2,3.7-1.8,5.5c-0.3,0.9-0.7,1.8-0.8,2.7
				c-0.1,1.3,0.1,2.5,0.7,3.7c0.1,0.1,0.2,0.3,0.2,0.4c0,1.3,0.5,2.4,1.5,3.3c-0.8-0.1-1.5-0.1-2.3-0.2c-0.3,0-0.6-0.1-0.8,0
				c-1.3,0.5-2.3-0.1-3.2-0.9c-0.6-0.5-1.2-0.9-2-1c-0.5,0-1-0.2-1.3-0.7c-0.3-0.4-0.8-0.8-1.3-1.1c-0.7-0.5-1.5-1-2.4-1.6
				c0.7-0.6,1.3-1.2,2-1.7c1-0.7,1.6-1.6,2.2-2.6c0.5-0.9,1.1-1.9,1.3-2.9c0.2-1.3,0.2-2.7,0.2-4s-0.7-2.7-1.7-3.7
				c0.1-0.5,0.2-1,0.3-1.5s0.1-1,0.1-1.5c0-0.8,0.1-1.7,0.6-2.4c0.1-0.2,0.1-0.4,0.1-0.6c0-1.1-0.1-2.2,0.1-3.3c0.3-1.5,0-3,0-4.5
				c0-0.7-0.3-1.4-0.4-2.1c-0.1-0.5-0.2-1.1-0.3-1.6c-0.3-1.4-0.5-2.8-0.8-4.2c-0.4-1.6-1-3.2-2-4.5c-0.5-0.7-0.7-1.6-1.5-2.1
				c-0.2-0.1-0.2-0.5-0.2-0.8c-0.1-0.8-0.4-1.4-0.9-2c-0.4-0.4-0.7-0.9-0.9-1.4c-0.5-1-1.1-1.7-2.2-1.9c-0.5-0.1-0.8-0.4-0.9-0.9
				c-0.1-0.8-0.6-1.3-1.2-1.8c-0.8-0.6-1.5-1.2-2.2-2c-0.8-0.9-1.7-1.8-2.9-2.2c-0.9-0.3-1.8-1-2.8-0.9c-0.1,0-0.2-0.1-0.3-0.2
				c-1-1-2.4-1.3-3.5-1.9c-0.4-0.2-0.9-0.5-1.2-0.4c-1.2,0.2-2.1-0.3-3.1-0.6c-1.6-0.4-3.2-0.5-4.9-0.1c-0.7,0.2-1.5,0.3-2.3,0.5
				c0,0-0.1-0.1-0.2-0.3c-0.4-1-1.1-1.5-2.1-1.7c-1.1-0.2-2.1-0.5-3.2-0.5c-1.2,0-2.4,0.3-3.6,0.5c-0.3,0-0.5,0.2-0.8,0.2
				C122.5,10.4,121.3,10.1,119.9,9.8z"/>
			<path class="st1" d="M3.7,134c0-1.6,0.2-1.9,1.5-1.9c0.9,0,1.7-0.2,2.6-0.4c1.1-0.3,2.1-0.8,3.3-0.5c0.5,0.1,1.2-0.1,1.7-0.3
				s1.1-0.3,1.6-0.1c0.4,0.1,1,0.1,1.4,0c1.3-0.3,2.6-0.4,3.9-0.4c0.6,0,1.3-0.6,1.9-1c0.1-0.1,0.2-0.7,0-0.8c-0.5-0.5-1-1-1.8-1
				c-1.6,0.1-3.2-0.1-4.8,0.2c-1.2,0.2-2.4,0.5-3.6,0.4c-0.4,0-0.9,0.3-1.4,0.4c-0.2,0.1-0.4,0-0.6,0c0-0.1,0-0.2,0-0.3
				c0.6-0.2,1.2-0.3,1.7-0.5c1.3-0.4,2.6-0.9,4.1-0.9c0.4,0,0.9,0,1.3,0c1.9,0,3.9,0,5.8,0c0.3,0,0.6-0.1,0.9-0.2
				c1.6-0.5,3.2-0.6,4.6,0.6c0.9,0.8,2.2,0.5,2.7-0.4c0.5-0.8,0.3-2-0.7-2.5c-1.3-0.7-2.1-1.7-2.2-3.2c0-0.1-0.1-0.3-0.1-0.6
				c0.3,0.1,0.6,0,0.7,0.1c0.9,0.8,1.9,1.3,3.1,1.7c1.5,0.5,3,0.9,4.3,1.9c0.7,0.5,1.6,0.6,2.5,0.7c0.7,0.1,1.4,0.3,2.1,0.5
				c0.7,0.2,1.4,0.3,2.1,0.3c1.2,0.2,2.3,1.1,2.5,2.3c0.1,0.8,0.5,1.4,1,2c1.2,1.2,1.4,2.4,0.7,3.9c-0.4,0.8-0.1,1.6,0.1,2.5
				c-0.3,0.2-0.6,0.4-0.9,0.6c-1.8,1.1-3.7,2.2-5.4,3.4c-0.8,0.5-1.3,1.4-2,2c-0.3,0.3-0.7,0.6-0.9,0.6c-0.9-0.1-1.8-0.4-2.6-0.6
				c-0.2,0-0.4-0.2-0.5-0.3c-1.1,0-2.1-0.5-3-0.9c-0.8-0.3-1.7-0.4-2.5-0.6c-0.8-0.2-1.6,0-2.5,0c-1.3,0.1-2.6,0.6-4,0.3
				c-1.2-0.2-2.5-0.4-3.8,0.2c-1,0.4-1.9,0-2.8-0.1c-1.6-0.2-1.6-0.3-3,0.3c-0.5-0.6-1-1.2-1.5-1.8c0.7-1,1.5-1.5,2.7-1.3
				c1.5,0.3,2.9,0,4.4-0.3c0.6-0.1,1.2-0.2,1.7-0.1c0.6,0.1,1.1,0.1,1.6-0.3c0.3-0.2,0.6-0.3,0.9-0.5s0.6-0.4,0.8-0.5
				c-0.3-1-0.9-1.3-1.8-1.3c-2.2,0.1-4.4,0-6.6,0c-0.2,0-0.4,0-0.6,0.1c-1.2,0.5-2.3,0.8-3.6,0.6c-0.3,0-0.7,0.2-1,0.4
				c-0.4,0.2-0.7,0.5-0.9,0.6c-1.3-0.1-2.3-0.2-3.4-0.3c0.4-0.7,0.8-1.2,1.5-1.3c0.4-0.1,0.8-0.3,1.2-0.5c1.2-0.6,2.5-0.6,3.9-0.4
				c0.2,0,0.4,0.1,0.6,0c1.4-0.6,2.9-0.3,4.3-0.7c0.5-0.1,1.1,0,1.6,0c1.3,0.1,2.5-0.2,3.4-1.2c0.6-0.6,0.5-1-0.2-1.4
				c-1-0.7-2.1-0.7-3.1-0.3s-2.1,0.4-3.1,0.4c-0.4,0-0.8,0.1-1.2,0.1c-0.5,0-1,0.1-1.5,0.1c-0.5,0.1-0.9,0.1-1.4,0.2
				c-0.4,0.1-0.7,0.2-1.1,0.4c-0.7,0.2-1.3,0.2-2.1-0.1c-0.9-0.3-1.8,0.2-2.6,0.6C5.2,133.2,4.5,133.6,3.7,134z"/>
			<path class="st1" d="M124.4,180.6c0.7-0.4,1.1-0.3,1.6-0.1s1,0.4,1.5,0.3c1-0.3,1.9,0,2.8,0.4c0.3,0.1,0.6,0.2,0.9,0.3
				c0.3,0.9,0.5,1.9,0.8,2.8c0.5,1.6,1.1,3.2,1.2,5c0,0.5,0.4,0.9,0.7,1.3c0.4,0.5,0.6,1,0.4,1.6c-0.1,0.5-0.1,1.1,0.1,1.5
				c0.5,0.8,0.6,1.6,0.5,2.4c-0.1,0.9,0.1,1.7,0.6,2.4c0.3,0.5,0.4,1.1,0.5,1.7c0.1,1.1,0.4,2.2,0.8,3.2c0.2,0.6,0.4,1.1,0.4,1.7
				c-0.1,0.8,0.1,1.6,0.5,2.3c0.2,0.4,0.2,0.8,0.3,1.3c0.2,0.6,0.4,1.1,0.7,1.6c0.3,0.6,0.6,1.1,1,1.6c0.8,1.1,0.6,2.3,0.5,3.4
				c-0.1,0.8,0,1.5,0.4,2.3c0.3,0.7,0.4,1.6,0.6,2.4c0.2,1.1,0.7,2.1,0.9,3.2c0.2,1,0.6,1.9,0.8,2.9c0.4,1.9,1.2,3.8,1.7,5.7
				c0.1,0.3,0.2,0.6,0.2,0.9c0,0.9,0.3,1.6,0.8,2.3c0.4,0.6,0.6,1.4,0.6,2.1c0,0.9,0.1,1.7,0.6,2.4c-0.7,0-2.5-0.7-3-1
				c-0.7-0.4-1.5-0.7-2.3-0.9c-0.6-0.2-0.9-0.4-1.1-1c-0.2-0.6-0.7-1.1-1.1-1.7c0-0.1-0.1-0.2-0.1-0.2c0.5-1.6-0.2-2.9-1-4.2
				c-0.4-0.7-0.5-1.3-0.3-2.1c0.2-0.9,0-1.6-0.5-2.4c-0.6-0.8-0.8-1.7-0.8-2.7c0-1.1-0.1-2.2-0.6-3.3c-0.1-0.3-0.2-0.7-0.3-1
				c-0.1-1.2-0.4-2.2-1-3.3c-0.4-0.7-0.7-1.4-0.7-2.3c0-1-0.1-2-0.7-2.9c0-0.1-0.1-0.1-0.1-0.2c-0.3-1.3-0.6-2.6-0.9-3.9
				c-0.1-0.5-0.3-1-0.5-1.5c-0.1-0.2-0.2-0.4-0.2-0.7c-0.3-1-0.5-2.1-0.8-3.1c-0.1-0.5-0.2-1.1-0.4-1.6c-0.3-1.3-0.7-2.5-1.1-3.8
				c0-0.2-0.1-0.3-0.2-0.4c-0.5-0.9-0.9-1.8-1-2.9c-0.2-1.1-0.7-2.1-0.6-3.3c0-0.2-0.1-0.5-0.2-0.7c-0.7-0.8-0.7-1.7-0.9-2.7
				c-0.1-0.8-0.4-1.4-0.6-2.2C125.5,182.8,125.1,181.6,124.4,180.6z"/>
			<path class="st1" d="M181.1,238.6c-1.6-0.8-2.5-0.6-3.5,0.7c-1.2,1.5-1.2,1.5-2.8,0.3c-0.8-0.6-1.3-0.7-2.1-0.2
				c-0.6,0.5-1.2,1.1-1.8,1.6c-0.3,0.3-0.6,0.6-1,1c-0.4-0.4-0.6-0.8-0.9-1.1c-1.4-1.2-2.1-1.3-3.7-0.4c-0.7,0.4-0.7,0.4-1.4,0.3
				c0.2-0.8,0.4-1.6,0.6-2.4c0.1-0.2,0.1-0.5,0.3-0.6c0.5-0.5,0.8-1.2,0.8-1.9c0-0.3,0.2-0.5,0.3-0.8c0.5-0.8,0.7-1.8,0.9-2.7
				c0.4-1.3,0.3-2.8,1.4-3.9c0.5-0.4,0.4-1.1,0.1-1.7c-0.3-0.5-0.8-0.8-1.4-0.7c-0.6,0-1.2,0.1-1.8,0.2c-0.8,0.1-1.5,0.5-2,1.3
				c-0.3,0.5-0.4,0.5-1.2,0.7c0.3-0.6,0.6-1.1,0.9-1.5c0.6-0.8,0.8-1.7,0.8-2.7c0-0.3,0-0.6,0-1c-0.1-1.4,0.5-2.5,1.2-3.5
				c0.5-0.7,1.3-1.3,2.3-1.1c0.4,0.1,0.9,0.1,1.3,0c0.2,0,0.5-0.1,0.7-0.3c0.6-0.5,1.2-0.6,1.9-0.1c0.9,0.6,1.8,1,2.9,0.6
				c0.4,0.4,0.7,0.9,1,1.2c0.4,0.4,0.8,0.7,1.2,0.9c0.9,0.4,1.8,0.8,2.7,0.9c1,0.1,1.7,0.8,2.6,1c0.5,0.1,0.6,0.6,0.4,1
				c-0.3,0.7-0.1,1.3-0.1,2c0.1,0.7-0.1,1.5-0.2,2.2c0,0.2-0.1,0.4-0.1,0.6c0.4,1.5-0.5,3.2,0.3,4.7c0.1,0.2,0,0.5,0,0.8
				c0,0.6-0.2,1.2,0,1.7C182.3,236.8,181.7,237.7,181.1,238.6z"/>
			<path class="st1" d="M127.8,112.9c4.3-2.6,7.2-6.4,10.2-10.1c0.2,0.2,0.4,0.2,0.4,0.3c0.2,1.5,1.4,2.3,2.2,3.3
				c0.1,0.1,0.2,0.2,0.2,0.3c0.6,1.9,2.6,3,3.1,5c-0.7,1-1.4,2-2.1,3c-0.1,0.2-0.4,0.4-0.5,0.4c-1.5,0-2.3,1.2-3.2,2
				c-1.1,1-2.2,1.9-3.4,2.8c-0.4,0.3-0.8,0.3-1.2,0c-0.2-0.1-0.3-0.3-0.4-0.4c-0.7-1-1.5-2.1-2.2-3.1c-0.4-0.6-0.9-1.2-1.5-1.6
				C128.8,114.3,128.4,113.6,127.8,112.9z"/>
			<path class="st1" d="M120.7,113.2c-0.5,0.8-0.9,1.6-1.3,2.3c-0.1,0.2-0.2,0.4-0.4,0.4c-1.6,0.5-2.3,2-3.3,3.2
				c-0.5,0.6-0.9,1.2-1.4,1.8c-0.8-0.8-1.4-1.5-2-2.2c-0.7-0.7-1.4-1.3-2.4-1.8c-0.6-0.3-1.1-0.8-1.7-1.3c-0.2-0.1-0.4-0.4-0.6-0.4
				c-1.4-0.2-1.8-1.3-2.5-2.2c0.4-0.6,0.8-1.3,1.2-1.9c0.1-0.1,0.1-0.2,0.2-0.3c0.9-0.5,1.6-1.3,2.5-1.8c1.2-0.7,1.9-1.8,2.9-2.6
				c0.1-0.1,0.2-0.3,0.2-0.4c0.3,0.1,0.4,0.1,0.4,0.1c0.6,0.9,1.1,1.9,2.3,2c0.6,1,1.4,1.6,2.5,2
				C118.1,111.7,119.7,112.2,120.7,113.2z"/>
			<path class="st1" d="M126.1,176.8c0.5-0.2,1-0.5,1.6-0.7c0.3-0.1,0.5-0.2,0.8-0.2c1.2-0.2,2.4-0.3,3.6-0.6c0.8-0.2,1.7-0.5,2.4-1
				c1-0.6,2.1-0.6,3.1-0.8s1.8-0.5,2.6-1.1c0.4-0.3,0.7-0.4,1.2-0.3c0.6,0.1,1.2,0,1.8,0.1c-1.1,0.4-1.8,1.4-3,1.5
				c-0.1,0-0.3,0-0.3,0.1c-1,1.1-2.6,1.2-3.7,2.2c-0.2,0.2-0.6,0.5-0.9,0.5c-1.1,0-1.7,0.5-2.1,1.4c0,0.1-0.1,0.2-0.3,0.3
				c-0.7-0.5-1.5-0.7-2.5-0.6c-0.7,0.1-1.4,0-2-0.5C127.6,176.6,126.8,176.5,126.1,176.8z"/>
			<path class="st1" d="M145.9,171.2c-0.6,0.2-1.1,0.3-1.6,0.4C144.8,170.6,144.9,170.6,145.9,171.2z"/>
			<path d="M156.9,121.5c-0.7-1.1-1.4-2-2.1-3c-0.4-0.5-0.6-1.1-0.2-1.8c0.4-0.7,1-0.9,1.9-0.5c1.2,0.6,2,1.6,2.9,2.7
				c0.4,0.4,0.7,0.9,1,1.4c0.8,1.1,0.3,2.5-1,2.7c-0.9,0.1-1.4,0.6-1.6,1.4c-0.2,0.9-0.7,1.4-1.5,1.7c-0.2,0.1-0.6,0.3-0.7,0.5
				c-0.4,1.1-1.2,2-2,2.7c0,0.2,0,0.3,0.1,0.3c1.5,0.7,2.3,2.2,3.4,3.3c0.2,0.2,0.4,0.5,0.6,0.7c1.2,0.8,1.2,2,1,3.2
				c-0.2,0.9-0.3,1.9-0.6,2.8c-0.6,1.7-0.7,3.5-1.4,5.1c-0.5,1.1-0.7,2.2-1,3.4c0,0.1,0,0.2-0.1,0.3c-0.9,1.6-1.3,3.5-2.1,5.2
				c-0.4,0.9-0.8,1.8-1.2,2.7c-0.2,0.7-0.8,1.3-1.2,1.9c-0.5,1.1-1,2.2-1.5,3.2c-0.3,0.5-0.7,1-1.2,1.7c0,1.4-0.4,2.2-1.6,3.1
				c-0.5,0.4-1,0.4-1.6,0.1c-0.5-0.2-0.9-0.7-0.8-1.2c0.2-1.3,0-2.7,1.6-3.3c0.1-1.5,0.5-2.7,1.2-3.9c0.4-0.7,0.6-1.6,0.8-2.4
				c0.1-0.3,0-0.6,0.2-0.8c0.8-1.1,1-2.3,1.5-3.5c0.5-1.1,1.1-2.1,1.5-3.2c0.4-1.1,0.7-2.3,1.1-3.5c0.5-1.2,1.1-2.4,1.6-3.6
				c0.5-1,1-2.1,1.5-3.1c0.3-0.6,0.7-1.1,1.1-1.8c-1-0.7-2.1-1.6-3.2-2.4c-0.4-0.3-0.9-0.7-1.3-1c-0.4-0.3-0.8-0.7-1.3-1.1
				c-0.7-0.5-1.1-1.2-1-2c0-0.2,0-0.4,0.1-0.5c1-0.4,0.7-1.7,1.5-2.3c0.8-0.5,1.5-1.2,2.2-1.8c0.2-0.2,0.4-0.6,0.5-0.9
				c0.2-0.7,0.5-1.2,1.2-1.6C156,122.4,156.5,121.9,156.9,121.5z"/>
			<path d="M165.7,135.9c-0.6-1.1-0.6-2.3-0.2-3.5c0.1-0.3,0.1-0.5,0.1-0.8c0.1-0.6,0.1-1.2,0.2-1.8c0.4-1.4,0.9-2.7,1.2-4.1
				c0.2-0.9,0.4-1.7,1-2.4c0.3-0.5,0.7-0.8,1.3-0.6c0.6,0.2,0.8,0.7,0.7,1.2c-0.1,0.7-0.3,1.3-0.3,2c-0.1,1.2-0.2,2.3-0.4,3.5
				c0,0.2,0,0.3,0,0.5c-0.2,1.3-0.4,2.7-0.4,4c0,0.7-0.4,1.4-0.6,2.3c0.1,0.4,0.4,1,0.5,1.6c0.1,0.4,0.1,0.9,0,1.3
				c-0.5,1.1-0.4,2.2-0.2,3.4c0.2,1.5,0.6,2.9,0.7,4.3c0.1,1.8,1,3.4,0.9,5.2c0,0.8,0.1,1.6,0.2,2.4c0,0.7-0.5,1.1-1.1,1.2
				c-0.6,0.1-1.1-0.3-1.4-0.9c-0.4-0.8-0.8-1.6-1.2-2.4c-0.5-0.9-1.1-1.9-1-3c0-0.2,0-0.4-0.1-0.6c-0.6-0.8-0.6-1.8-0.6-2.8
				c0-1.9,0-3.9,0.1-5.8c0-0.2,0-0.3,0-0.5C164.6,137.9,164.6,137.6,165.7,135.9z"/>
			<path d="M123.6,85.1c-1.3-0.1-2.3-0.2-3.4-0.4c-0.2,0-0.5-0.1-0.7-0.2c-1.2-0.9-2.4-1.7-3.5-2.7c-0.6-0.6-0.9-1.4-1.3-2.1
				c-0.3-0.6,0-1.4,0.6-1.8s1.3-0.3,1.9,0.2c0.5,0.5,0.9,1,1.4,1.5c0.6,0.6,1.3,0.8,2,1.1c1.5,0.6,2.9,0.2,4.4,0.2
				c0.5,0,0.8-0.2,1.1-0.5c0.6-0.7,1.3-1.3,2.1-2c0.6-0.5,1.5-0.5,2.1,0s0.8,1.4,0.4,2.1c-0.5,0.8-1.1,1.5-1.7,2.2
				c-0.2,0.2-0.5,0.4-0.7,0.4c-1,0.1-1.7,0.8-2.5,1.3C125.1,84.9,124.3,85.1,123.6,85.1z"/>
			<path d="M121.3,74.2c0.2,0.2,0.5,0.4,0.7,0.7c0.6,0.7,0.7,1.7,0.2,2.3c-0.6,0.6-1.7,0.7-2.4,0.2c-0.5-0.3-1-0.7-1.5-1
				c-0.7-0.5-1.5-2.4-1.2-3.2c0.1-0.4,0.3-0.8,0.6-1c0.5-0.3,0.8-0.9,1.2-1.3c0.6-0.7,1.3-1.4,1.7-2.3c0.2-0.4,0.5-0.7,0.6-1.1
				c0.5-1.1,1.6-1.7,2.5-1.2c1,0.5,1.3,1.7,0.7,2.8c-0.2,0.4-0.3,0.8-0.5,1.2c-0.1,0.2-0.1,0.5-0.3,0.7
				C123,72,122.2,73.1,121.3,74.2z"/>
			<path d="M105.9,68.6c-0.1-2.4,2.4-4.1,4.6-3.3c0.2,0.1,0.4,0.3,0.6,0.4c0.2,0.2,0.3,0.5,0.5,0.7c0.8,0.6,1,1.3,0.7,2.3
				c-0.4,2-2.2,3.2-4.2,2.6C106.4,70.8,106,70.3,105.9,68.6z"/>
			<path d="M140.1,68.4c0,2.1-1.5,3.6-2.9,3.6s-3.2-1.3-3.5-2.6c-0.1-0.5,0-1,0.1-1.5c0.5-1.4,2.5-2.5,3.9-2.4
				c0.7,0.1,1.3,0.4,1.6,1C139.7,67.2,139.9,68,140.1,68.4z"/>
			<path d="M123.5,146c0-0.1,0-0.3,0-0.5c0.1-0.9,0.7-1.3,1.6-1.1s1.3,0.7,1.1,1.6c-0.1,0.3-0.1,0.7-0.2,1c-0.2,0.6-0.9,1.3-1.3,1.2
				c-0.6-0.1-1.2-0.9-1.3-1.5C123.5,146.5,123.5,146.3,123.5,146z"/>
			<path d="M123.3,163.8c0-0.9,0.7-1.5,1.8-1.5c0.8,0,1.3,0.7,1.3,1.5c0,0.3-0.1,0.6-0.2,0.9c-0.2,1.1-1,1.4-1.9,0.8
				C123.8,165.2,123.3,164.4,123.3,163.8z"/>
			<path d="M126,127.2c0,0.8-0.7,1.6-1.5,1.6s-1.5-0.6-1.5-1.3c0-0.8,0.8-1.8,1.5-1.8S126,126.4,126,127.2z"/>
			<path d="M33.2,133.1c0.4,0,0.8,0,1.2,0.2c0.6,0.2,1.1,0.3,1.7,0.2c0.3-0.1,0.7,0.1,1,0.2c0.4,0.1,0.9,0.3,1.3,0.5
				c0.7,0.2,1.2,0.8,1.1,1.5c-0.1,0.6-0.6,1.1-1.3,1.2c-0.5,0.1-1,0.2-1.5,0.3c-0.2,0-0.4,0.1-0.6,0.1c-1.6-0.5-3.3,0.1-5-0.2
				c-0.7-0.1-1.6,0.4-2.4,0.6c-0.3,0.1-0.6,0.3-1,0.4c-0.8,0.2-1.6-0.2-1.9-0.9s-0.1-1.7,0.6-2.1c1.1-0.5,2.2-0.8,3.3-1.2
				c0.3-0.1,0.6-0.2,0.9-0.2c0.8-0.2,1.5-0.4,2.3-0.6C33.2,133,33.2,133,33.2,133.1z"/>
		</g>
	</g>
	<path class="st0" d="M112.6,76.2c0,1.5-2.3,2.6-5.2,2.6c-2.9,0-5.2-1.2-5.2-2.6c0-1.5,2.3-2.6,5.2-2.6
		C110.2,73.6,112.6,74.8,112.6,76.2z"/>
	<path class="st0" d="M144,76.2c0,1.5-2.3,2.6-5.2,2.6s-5.2-1.2-5.2-2.6c0-1.5,2.3-2.6,5.2-2.6S144,74.8,144,76.2z"/>
</g>
</svg>
